<svg width="80" height="80" viewBox="0 0 80 80" fill="none" xmlns="http://www.w3.org/2000/svg">
<g clip-path="url(#clip0_29_137)">
<path fill-rule="evenodd" clip-rule="evenodd" d="M44.9163 15.8611C52.806 14.4797 61.4006 12.1371 68.0255 16.6005C75.4819 21.624 79.7559 30.5622 79.9906 39.4916C80.2306 48.6205 75.8438 57.2133 69.261 63.6066C62.7447 69.9353 53.7913 75.6611 44.9163 73.5563C36.6514 71.5962 34.6876 61.2967 29.9769 54.29C26.7253 49.4535 22.2457 45.298 22.0144 39.4916C21.7751 33.4847 24.5466 27.8141 28.7495 23.4774C33.0457 19.0446 38.8075 16.9307 44.9163 15.8611Z" fill="#81BC3D"/>
<path d="M14.8691 43.4727C12.3006 43.4727 10.2109 45.5623 10.2109 48.1309C10.2109 50.6994 12.3006 52.7891 14.8691 52.7891C17.4377 52.7891 19.5273 50.6994 19.5273 48.1309C19.5273 45.5623 17.4377 43.4727 14.8691 43.4727ZM14.8691 49.6836C14.013 49.6836 13.3164 48.987 13.3164 48.1309C13.3164 47.2747 14.013 46.5781 14.8691 46.5781C15.7253 46.5781 16.4219 47.2747 16.4219 48.1309C16.4219 48.987 15.7253 49.6836 14.8691 49.6836Z" fill="black"/>
<path d="M46.1309 37.2617H42.5698C44.4807 35.6964 45.9772 33.6112 46.8247 31.1691C47.6598 28.7629 47.4398 25.8237 46.2362 23.3065C45.2284 21.1988 45.2496 18.7913 46.2945 16.7015L47.4162 14.4581C47.6569 13.9767 47.6311 13.4051 47.3482 12.9473C47.0653 12.4896 46.5655 12.2109 46.0273 12.2109H42.9219C40.6756 12.2109 38.6491 13.1698 37.2302 14.6998C35.1444 9.6012 30.1294 6 24.2891 6H18.0781C17.4501 6 16.8839 6.37835 16.6436 6.95855C16.4033 7.53876 16.5362 8.20664 16.9802 8.65072L22.2068 13.8773C23.6312 15.3018 23.3934 17.6706 21.7207 18.7856C18.5161 20.9219 16.5254 24.721 16.5254 28.7001C16.5254 31.8423 17.6985 34.7684 19.8287 36.9395C19.9367 37.0496 20.0473 37.1565 20.1592 37.2617H14.8691C8.8759 37.2617 4 42.1376 4 48.1309C4 54.1241 8.8759 59 14.8691 59H46.1309C52.1241 59 57 54.1241 57 48.1309C57 42.1368 52.1227 37.2617 46.1309 37.2617ZM19.6309 28.7001C19.6309 25.7909 21.1274 22.9134 23.4433 21.3695C26.7516 19.1639 27.2085 14.4871 24.4027 11.6815L21.8267 9.10547H24.2891C30.2823 9.10547 35.1582 13.9814 35.1582 19.9746C35.1582 20.8321 35.8534 21.5273 36.7109 21.5273C37.5685 21.5273 38.2637 20.8321 38.2637 19.9746C38.2637 17.4061 40.3533 15.3164 42.9219 15.3164H43.515C42.0403 18.2686 42.0109 21.669 43.4346 24.6462C44.2805 26.4152 44.4554 28.5245 43.8909 30.1509C42.8627 33.1138 40.5996 35.398 37.7983 36.5122C38.0974 35.7852 38.2637 34.9899 38.2637 34.1562C38.2637 33.2391 38.0679 32.3552 37.6819 31.5292L33.4614 22.4269C33.207 21.8784 32.6574 21.5273 32.0527 21.5273C31.4481 21.5273 30.8984 21.8784 30.6441 22.4269L26.4244 31.5275C26.0378 32.3539 25.8418 33.2384 25.8418 34.1562C25.8418 35.2302 26.116 36.2414 26.5979 37.1235C22.5322 36.4174 19.6309 33.0328 19.6309 28.7001ZM35.1582 34.1562C35.1582 35.8686 33.7651 37.2617 32.0527 37.2617C30.3404 37.2617 28.9473 35.8686 28.9473 34.1562C28.9473 33.6964 29.0449 33.2546 29.2395 32.8384L32.0527 26.7712L34.8659 32.8384C34.8666 32.8399 34.8673 32.8415 34.868 32.843C35.0606 33.2546 35.1582 33.6964 35.1582 34.1562ZM14.8691 55.8945C10.5883 55.8945 7.10547 52.4117 7.10547 48.1309C7.10547 43.85 10.5883 40.3672 14.8691 40.3672C19.2072 40.3672 22.7363 43.85 22.7363 48.1309C22.7363 52.4117 19.2072 55.8945 14.8691 55.8945ZM46.1309 55.8945H22.54C24.576 53.9202 25.8418 51.1695 25.8418 48.1309C25.8418 47.6037 25.803 47.0855 25.7294 46.5781H33.6055C34.463 46.5781 35.1582 45.8829 35.1582 45.0254C35.1582 44.1679 34.463 43.4727 33.6055 43.4727H24.7817C24.2221 42.3089 23.4597 41.259 22.54 40.3672C28.2223 40.3672 43.8106 40.3672 46.1309 40.3672C48.6653 40.3672 50.9197 41.5883 52.3376 43.4727H49.2363C48.3788 43.4727 47.6836 44.1679 47.6836 45.0254C47.6836 45.8829 48.3788 46.5781 49.2363 46.5781H53.7383C53.8406 47.08 53.8945 47.5992 53.8945 48.1309C53.8945 52.4117 50.4117 55.8945 46.1309 55.8945Z" fill="black"/>
<path d="M46.1309 49.6836H36.7109C35.8534 49.6836 35.1582 50.3788 35.1582 51.2363C35.1582 52.0938 35.8534 52.7891 36.7109 52.7891H46.1309C46.9884 52.7891 47.6836 52.0938 47.6836 51.2363C47.6836 50.3788 46.9884 49.6836 46.1309 49.6836Z" fill="black"/>
</g>
<defs>
<clipPath id="clip0_29_137">
<rect width="79.6172" height="80" fill="white"/>
</clipPath>
</defs>
</svg>
