<svg width="80" height="80" viewBox="0 0 80 80" fill="none" xmlns="http://www.w3.org/2000/svg">
<g clip-path="url(#clip0_111_51)">
<path fill-rule="evenodd" clip-rule="evenodd" d="M44.9163 15.8611C52.806 14.4797 61.4006 12.1371 68.0255 16.6005C75.4819 21.624 79.7559 30.5622 79.9906 39.4916C80.2306 48.6205 75.8438 57.2133 69.261 63.6066C62.7447 69.9353 53.7913 75.6611 44.9163 73.5563C36.6514 71.5962 34.6876 61.2967 29.9769 54.29C26.7253 49.4535 22.2457 45.298 22.0144 39.4916C21.7751 33.4847 24.5466 27.8141 28.7495 23.4774C33.0457 19.0446 38.8075 16.9307 44.9163 15.8611Z" fill="#81BC3D"/>
<path d="M21.3719 42.3672V50.6484C21.3719 51.506 22.0628 52.2012 22.9151 52.2012H43.491C44.3433 52.2012 45.0342 51.506 45.0342 50.6484V42.3672C45.0342 41.5097 44.3433 40.8145 43.491 40.8145H22.9151C22.0627 40.8145 21.3719 41.5097 21.3719 42.3672ZM24.4583 43.9199H41.9478V49.0957H24.4583V43.9199Z" fill="black"/>
<path d="M54.7017 29.0114C54.5677 28.9108 54.4204 28.8345 54.2663 28.7828C54.2841 28.5848 54.2933 28.3855 54.2933 28.1855C54.2933 26.8831 53.9139 25.6256 53.2285 24.5549C55.1257 23.3567 56.3509 21.2408 56.3509 18.8691C56.3509 15.159 53.351 12.1406 49.6637 12.1406C49.3214 12.1406 48.9813 12.1675 48.6448 12.221C47.6544 9.72385 45.2434 8 42.4622 8C39.7169 8 37.3143 9.67426 36.2985 12.1406H36.2894C32.7339 12.1406 29.8186 14.9475 29.6147 18.4743C28.0953 18.7191 26.6525 19.3244 25.4075 20.2355L22.3967 14.9883C20.2694 11.2811 15.5411 10.0063 11.8564 12.1466C8.17188 14.2871 6.90492 19.0446 9.03226 22.752L12.4529 28.7135C12.1857 28.744 11.9265 28.8443 11.7036 29.0117C11.2667 29.34 11.0344 29.8759 11.0925 30.4213C11.6066 35.2492 12.1294 40.2109 12.6349 45.0092C13.0513 48.9609 13.4676 52.9125 13.884 56.8367C14.1358 59.2101 16.1148 61 18.4874 61H47.9171C50.2904 61 52.2696 59.2093 52.5208 56.8346L55.3135 30.4201C55.3712 29.8747 55.1386 29.3393 54.7017 29.0114ZM36.2894 15.2461C36.535 15.2461 36.7914 15.2768 37.0733 15.34C37.4841 15.4319 37.9147 15.3511 38.2651 15.1161C38.6154 14.881 38.855 14.5121 38.9284 14.0949C39.2329 12.3628 40.7191 11.1055 42.4622 11.1055C44.286 11.1055 45.8135 12.4925 46.0156 14.3318C46.0699 14.8261 46.3562 15.2644 46.7856 15.5106C47.2152 15.7567 47.7359 15.781 48.186 15.5758C48.6661 15.3571 49.1632 15.2461 49.6638 15.2461C51.6493 15.2461 53.2646 16.8714 53.2646 18.8691C53.2646 20.6251 52.013 22.1206 50.2886 22.4252C49.6741 22.5338 49.185 23.004 49.0492 23.6167C48.9134 24.2294 49.1576 24.864 49.6681 25.225C50.6317 25.9063 51.207 27.0131 51.207 28.1857C51.207 28.7218 51.0845 29.2495 50.8522 29.7358C47.3146 31.024 43.676 31.9145 39.9671 32.4021C40.1849 31.9422 40.3661 31.4654 40.5109 30.9767C44.4703 25.1249 45.0074 19.2511 45.0286 19.0008C45.1008 18.1464 44.4708 17.3948 43.6217 17.3221C42.7726 17.2509 42.0255 17.8833 41.9533 18.7378C41.9501 18.7754 41.7081 21.4189 40.3219 24.8001C39.1215 21.5163 36.2268 19.0501 32.7098 18.4783C32.9044 16.6636 34.4352 15.2461 36.2894 15.2461ZM31.1454 21.457C34.8328 21.457 37.8326 24.4754 37.8326 28.1855C37.8326 29.9125 37.1958 31.5195 36.032 32.7664C35.0925 32.8174 34.1495 32.8437 33.203 32.8437C33.0153 32.8437 32.8277 32.8423 32.6402 32.8403L26.9636 22.9473C28.1445 21.991 29.6197 21.457 31.1454 21.457ZM11.2426 17.6645C11.5627 16.4627 12.3287 15.4582 13.3996 14.836C15.6103 13.5519 18.4473 14.3166 19.7237 16.5411L21.0473 18.8477L16.6507 19.1132C15.7999 19.1646 15.1517 19.9002 15.2027 20.7561C15.2519 21.5805 15.9316 22.2159 16.7417 22.2159C16.7728 22.2159 16.8041 22.215 16.8356 22.2131L22.7726 21.8546L24.1337 24.2267L19.7371 24.4922C18.8864 24.5436 18.2381 25.2792 18.2892 26.1351C18.3384 26.9595 19.0182 27.5949 19.8282 27.5949C19.8593 27.5949 19.8906 27.594 19.9221 27.5921L25.859 27.2335L28.9797 32.6723C24.8511 32.3368 20.7993 31.5086 16.8664 30.1944L11.7052 21.1993C11.0868 20.1218 10.9226 18.8664 11.2426 17.6645ZM49.4517 56.5061C49.368 57.2976 48.7083 57.8945 47.9171 57.8945H18.4874C17.6965 57.8945 17.0368 57.298 16.9529 56.5071C16.5366 52.5837 16.1204 48.6328 15.7041 44.6819C15.2867 40.7204 14.8576 36.6474 14.4313 32.63C20.4562 34.8336 26.759 35.9492 33.203 35.9492C39.6479 35.9492 45.9506 34.8336 51.9761 32.6294L49.4517 56.5061Z" fill="black"/>
</g>
<defs>
<clipPath id="clip0_111_51">
<rect width="79.6172" height="80" fill="white"/>
</clipPath>
</defs>
</svg>
