<svg width="80" height="80" viewBox="0 0 80 80" fill="none" xmlns="http://www.w3.org/2000/svg">
<g clip-path="url(#clip0_111_45)">
<path fill-rule="evenodd" clip-rule="evenodd" d="M44.9163 15.8611C52.806 14.4797 61.4006 12.1371 68.0255 16.6005C75.4819 21.624 79.7559 30.5622 79.9906 39.4916C80.2306 48.6205 75.8438 57.2133 69.261 63.6066C62.7447 69.9353 53.7913 75.6611 44.9163 73.5563C36.6514 71.5962 34.6876 61.2967 29.9769 54.29C26.7253 49.4535 22.2457 45.298 22.0144 39.4916C21.7751 33.4847 24.5466 27.8141 28.7495 23.4774C33.0457 19.0446 38.8075 16.9307 44.9163 15.8611Z" fill="#81BC3D"/>
<path d="M58.7787 25.3853L54.0105 17.4383V12.879C54.0105 10.1561 51.7998 8 49.1315 8H15.8681C13.1917 8 10.9891 10.1634 10.9891 12.879V17.4385L6.22089 25.3853C6.06272 25.649 5.98943 25.9483 6.00123 26.245V30.3438C6.00123 32.6412 7.36516 34.6259 9.32587 35.5307V59.4473C9.32587 60.3048 10.0211 61 10.8786 61H54.121C54.9785 61 55.6737 60.3048 55.6737 59.4473V35.5314C57.6351 34.627 59 32.6417 59 30.3438V26.1843C59 25.9028 58.9235 25.6267 58.7787 25.3853ZM54.7048 24.6315H50.1827L48.0985 19.4212H51.5785L54.7048 24.6315ZM14.0946 12.8791C14.0946 11.8905 14.8977 11.1055 15.8681 11.1055H49.1314C50.0972 11.1055 50.9049 11.8863 50.9049 12.8791V16.3157H14.0945L14.0946 12.8791ZM42.3683 27.737H47.5787V30.3438C47.4362 33.7968 42.5104 33.7977 42.3683 30.3438V27.737ZM42.0885 24.6315L41.0465 19.4212H44.7539L46.8381 24.6315H42.0885ZM34.0534 27.737H39.2628V30.3438C39.1201 33.7974 34.1955 33.7971 34.0534 30.3438V27.737ZM34.0525 24.6315V19.4212H37.8795L38.9215 24.6315H34.0525ZM30.9479 27.737V30.3438C30.8053 33.797 25.8796 33.7976 25.7376 30.3438V27.737H30.9479ZM26.0779 24.6315L27.12 19.4212H30.947V24.6315H26.0779ZM18.1616 24.6315L20.2457 19.4212H23.9531L22.911 24.6315H18.1616ZM22.632 27.737V30.3438C22.4892 33.7973 17.5646 33.7972 17.4225 30.3438V27.737H22.632ZM13.421 19.4212H16.9011L14.817 24.6315H10.2948L13.421 19.4212ZM9.10672 30.3438V27.737H14.317V30.3438C14.1746 33.7968 9.24885 33.7977 9.10672 30.3438ZM45.9155 57.8945H37.3789V42.7054H45.9155V57.8945ZM52.5682 57.8945H49.0209V41.1526C49.0209 40.2951 48.3257 39.5999 47.4682 39.5999H35.8262C34.9687 39.5999 34.2734 40.2951 34.2734 41.1526V57.8945H12.4315V36.0055C13.7795 35.8346 14.9824 35.1937 15.8695 34.2511C18.0273 36.6366 22.0273 36.6347 24.1845 34.2512C26.3425 36.6368 30.3429 36.6345 32.5003 34.2511C34.6581 36.6366 38.6581 36.6347 40.8154 34.2512C42.9734 36.6368 46.9738 36.6344 49.1312 34.2511C50.018 35.194 51.2206 35.8351 52.5684 36.0057L52.5682 57.8945ZM55.8945 30.3438C55.752 33.7969 50.8263 33.7977 50.6842 30.3438V27.737H55.8945V30.3438Z" fill="black"/>
<path d="M29.1735 39.5999H17.5313C16.6738 39.5999 15.9786 40.2951 15.9786 41.1526V52.7947C15.9786 53.6522 16.6738 54.3475 17.5313 54.3475H29.1735C30.031 54.3475 30.7262 53.6522 30.7262 52.7947V41.1526C30.7262 40.295 30.031 39.5999 29.1735 39.5999ZM27.6207 51.2419H19.0841V42.7053H27.6207V51.2419Z" fill="black"/>
</g>
<defs>
<clipPath id="clip0_111_45">
<rect width="79.6172" height="80" fill="white"/>
</clipPath>
</defs>
</svg>
