<svg width="80" height="80" viewBox="0 0 80 80" fill="none" xmlns="http://www.w3.org/2000/svg">
<g clip-path="url(#clip0_111_48)">
<path fill-rule="evenodd" clip-rule="evenodd" d="M44.9163 15.8611C52.806 14.4797 61.4006 12.1371 68.0255 16.6005C75.4819 21.624 79.7559 30.5622 79.9906 39.4916C80.2306 48.6205 75.8438 57.2133 69.261 63.6066C62.7447 69.9353 53.7913 75.6611 44.9163 73.5563C36.6514 71.5962 34.6876 61.2967 29.9769 54.29C26.7253 49.4535 22.2457 45.298 22.0144 39.4916C21.7751 33.4847 24.5466 27.8141 28.7495 23.4774C33.0457 19.0446 38.8075 16.9307 44.9163 15.8611Z" fill="#81BC3D"/>
<path d="M58.2911 50.9589C58.7709 50.4122 59.1904 49.8032 59.5374 49.1405C61.1395 46.08 60.8913 42.4321 58.8897 39.6195C56.333 36.0275 52.7224 33.025 48.4478 30.9374C44.0706 28.7994 39.0748 27.6691 34 27.6691C28.9252 27.6691 23.929 28.7994 19.5518 30.9374C15.2776 33.025 11.667 36.0275 9.10992 39.6195C7.10828 42.4321 6.86005 46.08 8.46222 49.1405C8.80914 49.8032 9.2287 50.4122 9.7085 50.9589C7.59705 51.3745 6 53.2239 6 55.4359C6 57.9526 8.06702 60 10.6078 60H57.3922C59.933 60 62 57.9526 62 55.4359C62 53.2239 60.403 51.3745 58.2911 50.9589ZM44.949 32.9534C45.8616 33.3995 48.787 34.7897 49.6248 35.3237C45.8762 36.496 42.812 38.3902 40.7236 39.9496C40.6723 39.9881 40.5155 40.105 40.3015 39.9556C40.084 39.8045 40.1425 39.6162 40.1617 39.554C41.2055 36.2069 43.2354 34.154 44.949 32.9534ZM20.147 34.2895C21.3347 33.7093 23.4308 32.7744 24.7087 32.3627C22.8271 34.3085 21.4343 36.3517 20.458 38.0491C20.4268 38.1028 20.3704 38.2027 20.1931 38.1663C20.0137 38.1295 20.0004 38.008 19.994 37.9496C19.8582 36.6987 19.9094 35.4706 20.147 34.2895ZM11.7917 41.4926C13.1064 39.6458 14.7453 37.9733 16.6389 36.5332C16.6363 37.1172 16.6675 37.7059 16.7316 38.2979C16.899 39.8354 17.9954 41.0326 19.5245 41.3483C20.9002 41.6699 22.6643 40.7782 23.309 39.6581C24.845 36.9877 27.5328 33.3559 31.6895 31.0059C36.0106 30.9192 38.898 31.2129 41.2363 31.7825C39.5948 33.3369 37.9798 35.537 37.0266 38.5954C36.5511 40.1202 37.0967 41.6983 38.416 42.6157C39.0573 43.0618 39.7849 43.284 40.5108 43.284C41.276 43.284 42.0399 43.0372 42.6987 42.5451C44.9849 40.8375 48.5699 38.6822 52.933 37.8345C54.1724 38.9518 55.2722 40.1777 56.2083 41.4926C57.5203 43.336 57.6763 45.6361 56.6248 47.6441C55.5866 49.6276 53.6401 50.8265 51.3996 50.8718H16.6004C14.3599 50.8265 12.4134 49.6276 11.3752 47.6441C10.3237 45.6361 10.4797 43.336 11.7917 41.4926ZM57.3922 56.7499H10.6078C9.8764 56.7499 9.28125 56.1604 9.28125 55.4359C9.28125 54.7114 9.8764 54.1219 10.6078 54.1219H57.3922C58.1236 54.1219 58.7188 54.7114 58.7188 55.4359C58.7188 56.1604 58.1236 56.7499 57.3922 56.7499Z" fill="black"/>
<path d="M29.2751 22.7884C30.1813 22.7884 30.9157 22.0609 30.9157 21.1634V17.1934C30.9157 16.4321 31.2836 15.705 31.9005 15.248C33.3408 14.1803 34.2004 12.4803 34.2004 10.7V8.62505C34.2004 7.72747 33.4659 7 32.5598 7C31.6536 7 30.9191 7.72747 30.9191 8.62505V10.7C30.9191 11.4613 30.5508 12.1887 29.9343 12.6458C28.4941 13.7131 27.6345 15.4135 27.6345 17.1934V21.1634C27.6345 22.0609 28.3689 22.7884 29.2751 22.7884Z" fill="black"/>
<path d="M33.7971 21.1634C33.7971 22.0609 34.5315 22.7884 35.4377 22.7884C36.3439 22.7884 37.0783 22.0609 37.0783 21.1634V20.4405C37.0783 19.6792 37.4466 18.9522 38.0631 18.4951C39.5034 17.4274 40.363 15.7275 40.363 13.9471V8.62505C40.363 7.72747 39.6285 7 38.7224 7C37.8162 7 37.0817 7.72747 37.0817 8.62505V13.9475C37.0817 14.7084 36.7139 15.4359 36.0969 15.8929C34.6571 16.9606 33.7971 18.6606 33.7971 20.4405V21.1634Z" fill="black"/>
</g>
<defs>
<clipPath id="clip0_111_48">
<rect width="79.6172" height="80" fill="white"/>
</clipPath>
</defs>
</svg>
