<svg width="80" height="80" viewBox="0 0 80 80" fill="none" xmlns="http://www.w3.org/2000/svg">
<g clip-path="url(#clip0_111_42)">
<path fill-rule="evenodd" clip-rule="evenodd" d="M44.9163 15.8611C52.806 14.4797 61.4006 12.1371 68.0255 16.6005C75.4819 21.624 79.7559 30.5622 79.9906 39.4916C80.2306 48.6205 75.8438 57.2133 69.261 63.6066C62.7447 69.9353 53.7913 75.6611 44.9163 73.5563C36.6514 71.5962 34.6876 61.2967 29.9769 54.29C26.7253 49.4535 22.2457 45.298 22.0144 39.4916C21.7751 33.4847 24.5466 27.8141 28.7495 23.4774C33.0457 19.0446 38.8075 16.9307 44.9163 15.8611Z" fill="#81BC3D"/>
<path d="M68.1425 32.516C64.8816 26.7682 59.7693 22.2236 53.7474 19.7196C52.6355 19.2573 51.5035 18.8668 50.3546 18.5484C47.2131 13.1005 42.0761 9.00768 36.1711 7.27211C34.1326 6.67305 31.9928 7.07352 30.3001 8.37087C28.6152 9.66242 27.6476 11.6365 27.6457 13.7868L27.6395 20.4505C24.8675 21.4791 22.211 22.74 19.8586 24.1776L19.3182 23.6893C15.8744 20.5781 11.6372 18.6559 7.06507 18.1305C6.54122 18.0705 6.01403 18.2409 5.61956 18.6002C5.22534 18.9597 5 19.4733 5 20.0125V28.6503C5 30.5372 5.8236 32.2443 7.14741 33.4643C5.8236 34.6843 5 36.3915 5 38.2782V46.9161C5 47.4553 5.22534 47.9689 5.61968 48.3282C6.01403 48.6875 6.54023 48.8582 7.0652 48.798C11.6374 48.2725 15.8744 46.3502 19.3183 43.2392L19.8588 42.7508C22.7847 44.539 26.1806 46.0549 29.6854 47.1884L29.6915 53.2053C29.6936 55.3273 30.6401 57.2885 32.2885 58.5861C33.468 59.5148 34.8792 60 36.3223 60C36.8807 60 37.444 59.9273 38.0003 59.7796C44.7699 57.9814 50.3639 53.4589 53.4008 47.3484C53.5164 47.302 53.6324 47.257 53.7476 47.2091C59.7694 44.7051 64.8817 40.1605 68.1427 34.4127C68.4753 33.8259 68.4753 33.1027 68.1425 32.516ZM21.5243 39.3499V27.5787C27.5821 23.7957 35.9297 21.2917 42.6373 21.2917C45.0949 21.2917 47.5049 21.6428 49.8327 22.3348C47.4784 25.5311 46.2034 29.4001 46.2034 33.4643C46.2034 37.5277 47.4786 41.3973 49.8327 44.5937C47.5049 45.2858 45.0949 45.6369 42.6373 45.6369C35.9297 45.6369 27.5821 43.1329 21.5243 39.3499ZM31.3601 13.7906C31.361 12.8407 31.7881 11.9688 32.5322 11.3985C33.2837 10.8224 34.2353 10.6448 35.1425 10.9116C39.0488 12.0597 42.5586 14.4303 45.1772 17.6164C44.3362 17.5431 43.4893 17.5041 42.6373 17.5041C39.1275 17.5041 35.2103 18.1297 31.355 19.232L31.3601 13.7906ZM8.71438 44.677V38.2782C8.71438 36.668 10.2138 35.3581 12.0568 35.3581C13.0825 35.3581 13.914 34.5102 13.914 33.4643C13.914 32.4184 13.0825 31.5705 12.0568 31.5705C10.2138 31.5705 8.71438 30.2605 8.71438 28.6503V22.2516C11.73 22.9526 14.5127 24.4083 16.8551 26.5244L17.8099 27.3871V39.5415L16.8551 40.4042C14.5127 42.5203 11.73 43.976 8.71438 44.677ZM37.0639 56.1142C36.1905 56.3463 35.2775 56.1544 34.5583 55.5882C33.827 55.0123 33.4069 54.1423 33.4059 53.2015L33.4009 48.2355C36.5813 49.0004 39.7476 49.4244 42.6375 49.4244C44.4596 49.4244 46.2591 49.2543 48.0257 48.9202C45.3328 52.3902 41.4993 54.9361 37.0639 56.1142ZM53.4944 43.1883C51.182 40.4928 49.9179 37.0746 49.9179 33.4643C49.9179 29.8534 51.182 26.4358 53.4944 23.7403C57.9293 25.8513 61.7285 29.2486 64.3625 33.4643C61.7284 37.6801 57.9292 41.0772 53.4944 43.1883Z" fill="black"/>
<path d="M55.8513 31.5705C54.8798 31.5705 53.9491 32.4415 53.9941 33.4643C54.0391 34.4903 54.8101 35.3581 55.8513 35.3581C56.8227 35.3581 57.7534 34.487 57.7085 33.4643C57.6634 32.4382 56.8924 31.5705 55.8513 31.5705Z" fill="black"/>
</g>
<defs>
<clipPath id="clip0_111_42">
<rect width="79.6172" height="80" fill="white"/>
</clipPath>
</defs>
</svg>
