<?xml version="1.0" standalone="no"?>
<!DOCTYPE svg PUBLIC "-//W3C//DTD SVG 1.1//EN" "http://www.w3.org/Graphics/SVG/1.1/DTD/svg11.dtd" >
<svg>
<metadata>
Created by FontForge 20090914 at Tue Nov 14 11:45:39 2017
 By www-data
Appetite designed by Denis Serebryakov | www.dsgn.by
</metadata>
<defs>
<font id="Appetite" horiz-adv-x="615" >
  <font-face 
    font-family="Appetite"
    font-weight="400"
    font-stretch="normal"
    units-per-em="1000"
    panose-1="2 0 0 0 0 0 0 0 0 0"
    ascent="750"
    descent="-250"
    x-height="506"
    cap-height="714"
    bbox="-130 -343.304 2388.91 1032.39"
    underline-thickness="50"
    underline-position="-50"
    stemh="112"
    stemv="201"
    unicode-range="U+0020-U+FB06"
  />
<missing-glyph horiz-adv-x="249" 
 />
    <glyph glyph-name="ff" unicode="ff" horiz-adv-x="697" 
d="M595 557c-5 9 9 21 9 56c0 25 -10 51 -40 47c-70 -9 -26 -123 -12 -157h138s4 0 4 -5v-84c0 -5 -4 -5 -4 -5h-133v-403c0 -5 -4 -6 -4 -6h-193s-4 1 -4 5v404h-90v-403c0 -5 -4 -6 -4 -6h-193s-4 1 -4 5v404h-56s-4 0 -4 5v85c0 4 4 4 4 4h58c-11 192 216 253 314 155
l3 -7c30 61 105 91 186 91c119 0 187 -44 191 -114c1 -48 -39 -89 -94 -89c-34 0 -68 12 -72 18zM261 503h87c10 28 5 96 -43 96c-42 0 -55 -47 -44 -96z" />
    <glyph glyph-name="fi" unicode="fi" horiz-adv-x="601" 
d="M336 547c-5 9 9 21 9 56c0 77 -105 77 -105 -1c0 -50 13 -56 22 -99h153c80 0 156 -54 156 -148v-349c0 -5 -4 -6 -4 -6h-197s-4 1 -4 5c0 0 4 197 4 265c0 126 -37 144 -103 139v-403c0 -5 -4 -6 -4 -6h-193s-4 1 -4 5l-1 404h-55s-5 0 -4 5v85c0 4 3 4 3 4h57
c-5 110 50 221 218 239c123 13 251 -32 241 -137c-7 -79 -111 -94 -178 -65c-6 2 -10 5 -11 7z" />
    <glyph glyph-name="fl" unicode="fl" horiz-adv-x="619" 
d="M354 130l1 279h-89v-403c0 -5 -4 -6 -4 -6h-193s-4 1 -4 5v404h-56s-4 0 -4 5v85c0 4 4 4 4 4h57c-22 212 151 240 265 240c127 0 198 -48 231 -92c1 -1 3 -4 3 -10v-440l-1 -1c0 -158 68 -124 59 -151c-11 -32 -73 -71 -129 -71c-81 0 -140 58 -140 152zM355 503l2 96
c1 88 -119 80 -115 -4c2 -45 10 -59 19 -92h94z" />
    <glyph glyph-name="ffi" unicode="ffi" horiz-adv-x="881" 
d="M616 547c-5 9 9 21 9 56c0 77 -100 77 -95 -1c2 -34 10 -65 22 -99h143c80 0 156 -54 156 -148v-349c0 -5 -4 -6 -4 -6h-197s-4 1 -4 5c0 0 4 197 4 265c0 126 -46 138 -63 139h-30v-403c0 -5 -4 -6 -4 -6h-193s-4 1 -4 5v404h-90v-403c0 -5 -4 -6 -4 -6h-193s-4 1 -4 5
v404h-56s-4 0 -4 5v85c0 4 4 4 4 4h58c-11 192 216 253 314 155l12 -14c18 45 91 90 181 98c123 11 241 -32 231 -137c-7 -79 -111 -94 -178 -65c-6 2 -10 5 -11 7zM261 503h90c10 28 5 96 -43 96c-42 0 -58 -47 -47 -96z" />
    <glyph glyph-name="ffl" unicode="ffl" horiz-adv-x="908" 
d="M853 641v-194v-2s1 -175 1 -244c0 -159 68 -125 59 -152c-11 -32 -73 -71 -129 -71c-81 0 -140 58 -140 152h-1v279h-86v-403c0 -5 -4 -6 -4 -6h-193s-4 1 -4 5v404h-90v-403c0 -5 -4 -6 -4 -6h-193s-4 1 -4 5v404h-56s-4 0 -4 5v85c0 4 4 4 4 4h58
c-11 192 216 253 314 155l3 -7c30 42 100 91 235 92c99 0 198 -48 231 -92c1 -1 3 -4 3 -10zM643 503l2 96c1 88 -114 80 -110 -4c2 -45 10 -59 19 -92h89zM261 503h87c10 28 5 96 -43 96c-42 0 -55 -47 -44 -96z" />
    <glyph glyph-name="s_t" unicode="st" horiz-adv-x="855" 
d="M727 503h121s3 0 3 -5v-84c0 -5 -4 -5 -4 -5h-120v-208c0 -102 56 -118 117 -111c16 2 19 -13 13 -25c-30 -56 -104 -88 -175 -88c-94 0 -157 58 -157 155v355c0 87 -132 84 -155 17c45 -16 99 -55 99 -104c1 -48 -38 -89 -96 -89c-67 0 -109 56 -112 112h-7
c-31 -1 -47 -28 -47 -47c0 -49 59 -62 128 -82c80 -23 160 -63 160 -154c0 -121 -140 -163 -254 -163c-89 0 -235 31 -235 130c0 49 39 91 97 91c33 0 71 -9 75 -17c6 -9 2 -22 2 -41c0 -40 25 -61 59 -61c37 0 50 18 51 45c-2 48 -66 59 -140 83c-68 24 -135 72 -136 151v3
c0 104 123 163 225 163c9 0 18 0 27 -1c20 71 98 150 235 150c160 0 226 -88 226 -170z" />
    <glyph glyph-name="t_t" unicode="tt" horiz-adv-x="722" 
d="M710 90c18 0 20 -13 13 -26c-27 -54 -102 -91 -174 -91c-32 1 -63 8 -89 23c-41 25 -68 71 -68 134v279h-132v-224c0 -12 1 -22 2 -32c13 -81 70 -63 109 -63c18 0 20 -13 13 -26c-27 -54 -97 -91 -169 -91c-32 1 -63 8 -89 23c-41 25 -68 71 -68 134v279h-51s-4 0 -4 5
v85c0 4 4 4 4 4h51v76c0 5 5 5 5 5l192 79s5 -1 4 -5c0 0 1 -70 1 -155h132v136c0 5 5 5 5 5l192 79s5 -1 4 -5c0 0 1 -130 1 -215h122s3 0 3 -5v-84c0 -5 -4 -5 -4 -5h-121v-224c0 -12 1 -22 2 -32c13 -81 75 -63 114 -63z" />
    <glyph glyph-name="t_y" unicode="ty" horiz-adv-x="914" 
d="M376 90c18 0 20 -13 13 -26c-27 -54 -102 -91 -174 -91c-32 1 -63 8 -89 23c-41 25 -68 71 -68 134v279h-51s-4 0 -4 5v85c0 4 4 4 4 4h51v76c0 5 5 5 5 5l192 79s5 -1 4 -5c0 0 1 -70 1 -155l185 1c81 0 154 -56 154 -150l-2 -178c0 -100 94 -65 95 53l1 268
c0 5 4 5 4 5h194s4 0 4 -5c0 0 1 -311 1 -444c6 -173 -90 -297 -275 -297c-146 0 -213 98 -225 136c-16 49 -6 58 5 56c24 -4 53 -78 165 -78c80 0 126 64 129 124v100c-41 -86 -109 -116 -162 -116c-74 0 -137 65 -137 165v156c0 97 -42 118 -136 110v-224
c0 -12 1 -22 2 -32c13 -81 75 -63 114 -63z" />
    <glyph glyph-name="t_u" unicode="tu" horiz-adv-x="943" 
d="M893 201c0 -159 68 -125 59 -152c-11 -32 -65 -71 -121 -71c-69 0 -122 43 -136 115c-42 -85 -109 -115 -162 -115c-74 0 -137 65 -137 165v156c0 97 -42 118 -136 110v-224c0 -12 1 -22 2 -32c13 -81 75 -63 114 -63c18 0 20 -13 13 -26c-27 -54 -102 -91 -174 -91
c-32 1 -63 8 -89 23c-41 25 -68 71 -68 134v279h-51s-4 0 -4 5v85c0 4 4 4 4 4h51v76c0 5 5 5 5 5l192 79s5 -1 4 -5c0 0 1 -70 1 -155l185 1c81 0 154 -56 154 -150l-1 -89v-89c0 -98 90 -66 94 46v275c0 5 4 6 4 6h200s4 -1 4 -5c0 0 -7 -228 -7 -297z" />
    <glyph glyph-name="t_i" unicode="ti" horiz-adv-x="638" 
d="M614 6c0 -5 -4 -6 -4 -6h-199s-5 1 -5 5c0 0 1 100 4 294c0 97 -56 118 -150 110v-224c0 -12 1 -22 2 -32c13 -81 75 -63 114 -63c18 0 20 -13 13 -26c-27 -54 -102 -91 -174 -91c-32 1 -63 8 -89 23c-41 25 -68 71 -68 134v279h-51s-4 0 -4 5v85c0 4 4 4 4 4h51v76
c0 5 5 5 5 5l192 79s5 -1 4 -5c0 0 1 -70 1 -155l199 1c81 0 154 -56 154 -150zM606 645c0 -52 -53 -93 -117 -93s-116 41 -116 93c0 51 52 93 116 93s117 -42 117 -93z" />
    <glyph glyph-name="f_b" unicode="fb" horiz-adv-x="914" 
d="M714 525c126 0 195 -139 195 -273c0 -137 -69 -271 -200 -271c-69 0 -118 39 -149 95v-70c0 -5 -5 -6 -5 -6h-193s-4 1 -4 5v403l-3 1h-91v-403c0 -5 -4 -6 -4 -6h-193s-4 1 -4 5v404h-56s-4 0 -4 5v85c0 4 4 4 4 4h57c-13 201 151 240 265 240c123 0 196 -48 229 -92
c1 -1 3 -4 3 -10v-221c33 61 85 105 153 105zM629 116c49 0 75 61 75 136s-26 135 -75 135s-75 -60 -75 -135s26 -136 75 -136zM355 503l2 96c1 88 -121 80 -117 -4c2 -45 10 -59 19 -92h96z" />
    <glyph glyph-name="f_k" unicode="fk" horiz-adv-x="929" 
d="M921 66c16 -8 18 -13 1 -33c-23 -26 -79 -55 -134 -55c-171 0 -200 179 -201 243c0 14 4 22 11 22c131 0 112 148 44 148c-60 0 -78 -60 -80 -106v-279c0 -5 -4 -6 -4 -6h-193s-4 1 -4 5c0 0 -2 223 -3 403l-1 1h-91v-403c0 -5 -4 -6 -4 -6h-193s-4 1 -4 5v404h-56
s-4 0 -4 5v85c0 4 4 4 4 4h57c-20 202 151 240 265 240c123 0 196 -48 229 -92c1 -1 3 -4 3 -10v-217c41 70 107 101 168 101c170 0 205 -254 22 -283v-2s42 -114 168 -174zM357 503l2 96c1 88 -121 80 -117 -4c2 -45 10 -59 19 -92h96z" />
    <glyph glyph-name="f_t" unicode="ft" horiz-adv-x="685" 
d="M673 90c18 0 20 -13 13 -26c-27 -54 -102 -91 -174 -91c-32 1 -63 8 -89 23c-41 25 -68 71 -68 134v278l-3 1h-91v-403c0 -5 -4 -6 -4 -6h-193s-4 1 -4 5v404h-56s-4 0 -4 5v85c0 4 4 4 4 4h57c-15 195 151 240 265 240c121 0 196 -48 229 -92c1 -1 3 -4 3 -10v-138h121
s3 0 3 -5v-84c0 -5 -4 -5 -4 -5h-120l1 -256c13 -81 75 -63 114 -63zM352 503l2 96c1 88 -121 80 -117 -4c2 -45 10 -59 19 -92h96z" />
    <glyph glyph-name="f_y" unicode="fy" horiz-adv-x="883" 
d="M308 545c-5 9 7 21 7 56c0 25 -8 60 -38 60c-75 0 -33 -126 -16 -158l148 1c81 0 154 -56 154 -150l-2 -178c0 -100 94 -65 95 53l1 268c0 5 4 5 4 5h194s4 0 4 -5c0 0 1 -311 1 -444c6 -173 -90 -297 -275 -297c-146 0 -213 98 -225 136c-16 49 -6 58 5 56
c24 -4 53 -78 165 -78c80 0 126 64 129 124v100c-41 -86 -109 -116 -162 -116c-74 0 -137 65 -137 165v156c0 87 -26 110 -93 111l-1 -1v-403c0 -5 -4 -6 -4 -6h-193s-4 1 -4 5v404h-56s-4 0 -4 5v85c0 4 4 4 4 4h57c-19 193 112 240 226 240c119 0 180 -64 180 -127
c1 -48 -37 -89 -92 -89c-34 0 -68 12 -72 18z" />
    <glyph glyph-name="f_u" unicode="fu" horiz-adv-x="905" 
d="M852 201c0 -159 68 -125 59 -152c-11 -32 -65 -71 -121 -71c-69 0 -122 43 -136 115c-42 -85 -109 -115 -162 -115c-74 0 -137 65 -137 165v156c0 87 -28 110 -93 111l-1 -1v-403c0 -5 -4 -6 -4 -6h-193s-4 1 -4 5v404h-56s-4 0 -4 5v85c0 4 4 4 4 4h57
c-24 182 106 240 220 240c119 0 186 -64 186 -127c1 -48 -37 -88 -92 -88c-34 0 -68 11 -72 17c-5 9 7 21 7 56c0 25 -8 60 -38 60c-78 0 -30 -125 -16 -158l148 1c81 0 154 -56 154 -150l-1 -89v-89c0 -98 90 -66 94 46v275c0 5 4 6 4 6h200s4 -1 4 -5c0 0 -7 -228 -7 -297
z" />
    <glyph glyph-name="f_j" unicode="fj" horiz-adv-x="589" 
d="M567 355v-323c0 -214 -86 -296 -222 -296c-119 0 -179 64 -179 126c0 48 38 99 93 99c33 0 68 -11 71 -18c5 -8 -7 -30 -7 -65c0 -26 7 -60 36 -60c25 0 39 20 39 57c0 64 -30 91 -33 165v264c-7 95 -43 109 -102 105v-403c0 -5 -4 -6 -4 -6h-193s-4 1 -4 5l-1 404h-55
s-5 0 -4 5v85c0 4 3 4 3 4h57c-8 124 49 230 218 239c130 7 251 -32 241 -137c-7 -79 -111 -94 -178 -65c-6 2 -10 5 -11 7c-5 9 9 21 9 56c0 77 -103 79 -105 -1c-1 -43 12 -70 22 -99h153c80 0 156 -54 156 -148z" />
    <glyph glyph-name="c_t" unicode="ct" horiz-adv-x="852" 
d="M840 90c18 0 20 -13 13 -26c-27 -54 -102 -91 -174 -91c-32 1 -63 8 -89 23c-36 21 -61 59 -67 110c-176 -221 -518 -132 -518 146c0 146 112 265 265 272c112 0 224 -45 224 -140c1 -48 -38 -100 -97 -100c-33 0 -66 11 -70 17c-5 9 -1 21 -1 41c0 41 -20 69 -48 69
c-54 0 -80 -85 -73 -159c16 -183 241 -141 317 -42v369c0 5 5 6 5 6l192 78s5 1 4 -5c0 0 1 -70 1 -155h122s3 0 3 -5v-84c0 -5 -4 -5 -4 -5h-121v-224c0 -12 1 -22 2 -32c13 -81 75 -63 114 -63z" />
    <glyph glyph-name="f_h" unicode="fh" horiz-adv-x="928" 
d="M865 204c0 -159 76 -125 67 -153c-11 -31 -65 -70 -121 -70c-81 0 -147 58 -147 152v194c0 100 -102 65 -103 -53v-268c0 -5 -4 -6 -4 -6h-193s-4 1 -4 5c0 0 -2 220 -3 403l-2 1h-91v-403c0 -5 -4 -6 -4 -6h-193s-4 1 -4 5v404h-56s-4 0 -4 5v85c0 4 4 4 4 4h57
c-22 206 151 240 265 240c123 0 196 -48 229 -92c1 -1 3 -4 3 -10v-228c44 82 115 112 167 112c74 0 137 -65 137 -165v-156zM355 503l2 96c1 88 -121 80 -117 -4c2 -45 10 -59 19 -92h96z" />
    <glyph glyph-name="c_h" unicode="ch" horiz-adv-x="1084" 
d="M1022 204c0 -159 76 -125 67 -153c-11 -31 -65 -70 -121 -70c-81 0 -147 58 -147 152v194c0 100 -102 65 -103 -53v-268c0 -5 -4 -6 -4 -6h-193s-4 1 -4 5c0 0 -1 34 -1 83c-180 -197 -511 -106 -511 164c0 146 112 265 265 272c112 0 224 -45 224 -140
c1 -48 -38 -100 -97 -100c-33 0 -66 11 -70 17c-5 9 -1 21 -1 41c0 41 -20 69 -48 69c-54 0 -80 -85 -73 -159c15 -174 209 -156 311 -63c-1 187 -2 457 -2 526c0 4 4 4 4 4h197s3 1 3 -4v-302c44 82 115 112 167 112c74 0 137 -65 137 -165v-156z" />
    <glyph glyph-name="c_l" unicode="cl" horiz-adv-x="794" 
d="M530 714c0 5 5 5 5 5h200s5 0 4 -5c0 0 1 -444 1 -513c0 -159 68 -125 59 -152c-11 -32 -73 -71 -129 -71c-74 0 -129 48 -139 127c-176 -220 -526 -130 -526 147c0 146 112 265 265 272c112 0 224 -45 224 -140c1 -48 -38 -100 -97 -100c-33 0 -66 11 -70 17
c-5 9 -1 21 -1 41c0 41 -20 69 -48 69c-54 0 -80 -85 -73 -159c16 -183 228 -153 325 -48v510z" />
    <glyph glyph-name="c_k" unicode="ck" horiz-adv-x="1089" 
d="M1083 66c16 -8 18 -13 1 -33c-23 -26 -79 -55 -134 -55c-171 0 -200 179 -201 243c0 14 4 22 11 22c131 0 112 148 44 148c-60 0 -78 -60 -80 -106v-279c0 -5 -4 -6 -4 -6h-193s-4 1 -4 5c0 0 0 37 -1 89c-179 -206 -517 -115 -517 158c0 146 112 265 265 272
c112 0 224 -45 224 -140c1 -48 -38 -100 -97 -100c-33 0 -66 11 -70 17c-5 9 -1 21 -1 41c0 41 -20 69 -48 69c-54 0 -80 -85 -73 -159c15 -178 217 -155 317 -57c-1 186 -2 451 -2 520c0 4 4 4 4 4h196s4 1 4 -4v-293c41 72 108 103 169 103c170 0 205 -254 22 -283v-2
s42 -114 168 -174z" />
    <glyph glyph-name="T_h" unicode="Th" horiz-adv-x="1135" 
d="M1073 204c0 -159 76 -125 67 -153c-11 -31 -65 -70 -121 -70c-81 0 -147 58 -147 152v194c0 100 -102 65 -103 -53v-268c0 -5 -4 -6 -4 -6h-193s-4 1 -4 5c0 0 -2 337 -3 552c-38 -12 -153 -6 -153 -6l6 -351c5 -149 74 -117 64 -144c-11 -34 -77 -76 -136 -76
c-79 0 -149 48 -149 165l7 408c-63 1 -125 -3 -182 -14c-5 -1 -7 5 -7 5c-1 1 -46 116 61 172c85 45 318 5 690 3c0 0 3 1 3 -4v-302c44 82 115 112 167 112c74 0 137 -65 137 -165v-156z" />
    <glyph glyph-name="C_o_period" unicode="Co&#x2e;" horiz-adv-x="1329" 
d="M1129 249c0 -151 -116 -272 -280 -272c-104 0 -191 50 -239 126c-38 -56 -112 -121 -246 -124c-198 -4 -349 176 -349 382c0 199 141 375 350 376c157 2 267 -75 267 -183c0 -53 -39 -114 -111 -114c-44 0 -79 16 -77 36c9 65 -7 135 -74 135c-91 0 -138 -157 -125 -258
c28 -229 210 -261 337 -189c-9 27 -13 55 -13 85c0 150 119 272 280 272s280 -122 280 -272zM766 249c0 -84 25 -159 83 -159c60 0 83 71 83 159c0 86 -25 159 -83 159c-59 0 -83 -73 -83 -159zM1312 80c0 -54 -44 -98 -98 -98s-98 44 -98 98s44 98 98 98s98 -44 98 -98z
" />
    <glyph glyph-name="t_f" unicode="tf" horiz-adv-x="740" 
d="M637 545c-5 9 7 21 7 56c0 25 -8 60 -38 60c-78 0 -30 -125 -16 -158h138s4 0 4 -5v-84c0 -5 -4 -5 -4 -5h-133v-403c0 -5 -4 -6 -4 -6h-193s-4 1 -4 5v404h-134c0 -108 0 -193 2 -249c13 -81 55 -70 94 -70c18 0 20 -13 13 -26c-27 -54 -82 -91 -154 -91
c-32 1 -63 8 -89 23c-41 25 -68 71 -68 134v279h-51s-4 0 -4 5v85c0 4 4 4 4 4h51v76c0 5 5 5 5 5l192 79s5 -1 4 -5c0 0 1 -70 1 -155h135c-21 181 106 240 220 240c119 0 186 -64 186 -127c1 -48 -37 -89 -92 -89c-34 0 -68 12 -72 18z" />
    <glyph glyph-name="C_o" unicode="Co" horiz-adv-x="1134" 
d="M1124 249c0 -151 -116 -272 -280 -272c-104 0 -191 50 -239 126c-38 -56 -112 -121 -246 -124c-198 -4 -349 176 -349 382c0 199 141 375 350 376c157 2 267 -75 267 -183c0 -53 -39 -114 -111 -114c-44 0 -79 16 -77 36c9 65 -7 135 -74 135c-91 0 -138 -157 -125 -258
c28 -229 210 -261 337 -189c-9 27 -13 55 -13 85c0 150 119 272 280 272s280 -122 280 -272zM761 249c0 -84 25 -159 83 -159c60 0 83 71 83 159c0 86 -25 159 -83 159c-59 0 -83 -73 -83 -159z" />
    <glyph glyph-name="f_x" unicode="fx" horiz-adv-x="860" 
d="M701 248l155 -242c2 -3 1 -6 -3 -6h-221c-4 0 -7 3 -8 5l-99 173c-22 -15 -35 -31 -35 -51c0 -51 43 -61 43 -78c1 -33 -48 -71 -104 -71c-80 0 -134 55 -134 124c0 90 81 133 167 163l-94 144h-104v-403c0 -5 -4 -6 -4 -6h-193s-4 1 -4 5v404h-56s-4 0 -4 5v85
c0 4 4 4 4 4h57c-15 188 106 240 220 240c119 0 186 -64 186 -127c1 -48 -37 -89 -92 -89c-34 0 -68 12 -72 18c-5 9 7 21 7 56c0 25 -8 60 -38 60c-78 0 -30 -125 -16 -158h276c3 0 6 -2 8 -5l96 -169c18 12 29 25 29 42c0 51 -43 62 -43 79c-1 33 48 70 104 70
c80 0 133 -55 133 -123c0 -76 -77 -117 -161 -149z" />
    <glyph glyph-name="T_i" unicode="Ti" horiz-adv-x="780" 
d="M762 6c0 -5 -4 -6 -4 -6h-200s-5 1 -5 5c0 0 8 208 8 277c0 159 -68 125 -59 152c11 32 65 71 121 71c81 0 139 -58 139 -152v-347zM773 719c0 0 40 -145 -78 -180c-46 -14 -276 0 -276 0v-339c5 -149 74 -117 64 -144c-11 -34 -77 -76 -136 -76c-79 0 -149 48 -149 165
v408c-63 1 -118 -3 -175 -14c-5 -1 -7 5 -7 5c-1 1 -46 117 61 173c97 51 332 0 623 3c39 0 65 4 65 4s6 0 8 -5z" />
    <glyph glyph-name="F_i" unicode="Fi" horiz-adv-x="604" 
d="M585 6c0 -5 -4 -6 -4 -6h-200s-5 1 -5 5c0 0 8 168 8 237c0 22 20 162 -134 88v-119c5 -158 76 -124 66 -152c-12 -36 -74 -79 -134 -79c-81 0 -152 49 -152 173c0 126 1 561 1 561c0 5 5 5 5 5h542s6 0 8 -5c0 0 40 -116 -76 -165c-75 -31 -258 -2 -258 -2
c0 -22 -1 -56 -1 -110c108 65 334 126 334 -84v-347z" />
    <glyph glyph-name="F_u" unicode="Fu" horiz-adv-x="936" 
d="M881 201c0 -159 68 -125 59 -152c-11 -32 -65 -71 -121 -71c-69 0 -122 43 -136 115c-42 -85 -109 -115 -162 -115c-74 0 -137 65 -137 165v141c-4 44 -26 98 -134 46v-119c5 -158 76 -124 66 -152c-12 -36 -74 -79 -134 -79c-81 0 -152 49 -152 173c0 126 1 561 1 561
c0 5 5 5 5 5h482s6 0 8 -5c0 0 40 -116 -76 -165c-75 -31 -198 -2 -198 -2c0 -22 -1 -56 -1 -110c107 84 335 133 335 -67v-194c0 -98 90 -66 94 46v275c0 5 4 6 4 6h201s4 -1 4 -5c0 0 -8 -228 -8 -297z" />
    <glyph glyph-name="F_y" unicode="Fy" horiz-adv-x="906" 
d="M885 73c6 -173 -91 -297 -276 -297c-146 0 -213 98 -225 136c-16 49 -6 58 5 56c24 -4 53 -78 165 -78c80 0 126 50 129 110v100c-41 -86 -109 -116 -162 -116c-74 0 -137 65 -137 165v135c1 46 -26 98 -134 46v-119c5 -158 76 -124 66 -152c-12 -36 -74 -79 -134 -79
c-81 0 -152 49 -152 173c0 126 1 561 1 561c0 5 5 5 5 5h482s6 0 8 -5c0 0 40 -116 -76 -165c-75 -31 -198 -2 -198 -2c0 -22 -1 -56 -1 -110c107 84 334 133 334 -67v-188c0 -100 94 -65 96 52v263c0 5 4 5 4 5h193s4 0 4 -5c0 0 3 -291 3 -424z" />
    <glyph glyph-name="t_t_y" unicode="tty" horiz-adv-x="1251" 
d="M712 90c18 0 20 -13 13 -26c-27 -54 -102 -91 -174 -91c-32 1 -63 8 -89 23c-41 25 -68 71 -68 134v279h-132v-224c0 -12 1 -22 2 -32c13 -81 65 -63 104 -63c18 0 20 -13 13 -26c-27 -54 -92 -91 -164 -91c-32 1 -63 8 -89 23c-41 25 -68 71 -68 134v279h-51s-4 0 -4 5
v85c0 4 4 4 4 4h51v76c0 5 5 5 5 5l192 79s5 -1 4 -5c0 0 1 -70 1 -155h132v136c0 5 5 5 5 5l192 79s5 -1 4 -5c0 0 1 -130 1 -215l183 1c81 0 154 -56 154 -150l-2 -178c0 -100 94 -65 95 53l1 268c0 5 4 5 4 5h194s4 0 4 -5c0 0 1 -311 1 -444c6 -173 -90 -297 -275 -297
c-146 0 -213 98 -225 136c-16 49 -6 58 5 56c24 -4 53 -78 165 -78c80 0 126 64 129 124v100c-41 -86 -109 -116 -162 -116c-74 0 -137 65 -137 165v156c0 96 -42 117 -134 110v-224c0 -12 1 -22 2 -32c13 -81 75 -63 114 -63z" />
    <glyph glyph-name="t_t_i" unicode="tti" horiz-adv-x="969" 
d="M949 6c0 -5 -4 -6 -4 -6h-199s-5 1 -5 5c0 0 1 100 4 294c0 96 -56 118 -149 110v-224c0 -12 1 -22 2 -32c13 -81 75 -63 114 -63c18 0 20 -13 13 -26c-27 -54 -102 -91 -174 -91c-32 1 -63 8 -89 23c-41 25 -68 71 -68 134v279h-132v-224c0 -12 1 -22 2 -32
c13 -81 65 -63 104 -63c18 0 20 -13 13 -26c-27 -54 -92 -91 -164 -91c-32 1 -63 8 -89 23c-41 25 -68 71 -68 134v279h-51s-4 0 -4 5v85c0 4 4 4 4 4h51v76c0 5 5 5 5 5l192 79s5 -1 4 -5c0 0 1 -70 1 -155h132v136c0 5 5 5 5 5l192 79s5 -1 4 -5c0 0 0 -64 1 -215l198 1
c81 0 154 -56 154 -150zM941 645c0 -52 -53 -93 -117 -93s-116 41 -116 93c0 51 52 93 116 93s117 -42 117 -93z" />
    <glyph glyph-name="afii10076_afii10085" unicode="&#x43a;&#x443;" horiz-adv-x="1129" 
d="M1098 73c6 -173 -91 -297 -276 -297c-146 0 -213 98 -225 136c-16 49 -6 58 5 56c24 -4 53 -78 165 -78c80 0 126 64 129 124v100c-41 -86 -109 -116 -162 -116c-74 0 -137 65 -137 165v131c0 136 -210 136 -257 9c44 4 81 -11 104 -40c40 -53 41 -144 150 -197
c16 -8 17 -13 1 -33c-23 -26 -71 -55 -127 -55c-206 0 -149 230 -212 236v-208c0 -5 -4 -6 -4 -6h-201s-4 1 -4 5c0 0 8 228 8 297c0 159 -68 125 -59 152c11 32 65 71 121 71c80 0 139 -58 139 -152v-84s6 2 16 4c2 41 33 225 254 238c139 8 276 -69 272 -232v-103
c0 -100 94 -65 96 52v249c0 5 4 5 4 5h193s4 0 4 -5c0 0 3 -291 3 -424z" />
    <glyph glyph-name="afii10076_afii10074" unicode="&#x43a;&#x438;" horiz-adv-x="1149" 
d="M1094 201c0 -159 68 -125 59 -152c-11 -32 -65 -71 -121 -71c-69 0 -122 43 -136 115c-42 -85 -109 -115 -162 -115c-74 0 -137 65 -137 165v156c0 131 -211 129 -257 4c44 4 81 -11 104 -40c40 -53 41 -144 150 -197c16 -8 17 -13 1 -33c-23 -26 -71 -55 -127 -55
c-206 0 -149 230 -212 236v-208c0 -5 -4 -6 -4 -6h-201s-4 1 -4 5c0 0 8 228 8 297c0 159 -68 125 -59 152c11 32 65 71 121 71c80 0 139 -58 139 -152v-84s6 2 16 4c2 41 33 225 254 238c139 8 276 -69 272 -232v-128c3 -92 91 -59 95 51v275c0 5 4 6 4 6h201s4 -1 4 -5
c0 0 -8 -228 -8 -297z" />
    <glyph glyph-name="afii10084_afii10085" unicode="&#x442;&#x443;" horiz-adv-x="1005" 
d="M474 143v126c0 94 -49 142 -135 111v-177c0 -159 68 -125 59 -152c-11 -32 -63 -71 -119 -71c-80 0 -139 58 -139 152v244l-130 1s-3 0 -3 4l-2 112v7c0 3 1 3 2 4c197 37 447 16 516 2c79 -16 154 -58 154 -152l-2 -178c0 -100 94 -65 95 53l1 268c0 5 4 5 4 5h194
s4 0 4 -5c0 0 1 -311 1 -444c6 -173 -90 -297 -275 -297c-146 0 -213 98 -225 136c-16 49 -6 58 5 56c24 -4 53 -78 165 -78c80 0 126 64 129 124v100c-41 -86 -109 -116 -162 -116c-74 0 -137 65 -137 165z" />
    <glyph glyph-name="afii10084_afii10074" unicode="&#x442;&#x438;" horiz-adv-x="1025" 
d="M970 201c0 -159 68 -125 59 -152c-11 -32 -65 -71 -121 -71c-69 0 -122 43 -136 115c-42 -85 -109 -115 -162 -115c-74 0 -137 65 -137 165v146c-7 81 -55 119 -134 91v-177c0 -159 68 -125 59 -152c-11 -32 -63 -71 -119 -71c-80 0 -139 58 -139 152v244l-130 1
s-3 0 -3 4l-2 112v7c0 3 1 3 2 4c197 37 447 14 516 0c79 -16 154 -56 154 -150l-2 -185c4 -89 90 -56 94 53v275c0 5 4 6 4 6h201s4 -1 4 -5c0 0 -8 -228 -8 -297z" />
    <glyph glyph-name="afii10076_afii10077" unicode="&#x43a;&#x43b;" horiz-adv-x="1135" 
d="M1105 499v-493c0 -5 -4 -5 -4 -5h-193s-4 0 -4 5v405h-71c2 -87 -4 -204 -20 -260c-40 -142 -179 -179 -258 -179c-324 0 -231 248 -299 242v-208c0 -5 -4 -6 -4 -6h-201s-4 1 -4 5c0 0 8 228 8 297c0 159 -68 125 -59 152c11 32 65 71 121 71c80 0 139 -58 139 -152v-84
l8 3c8 70 60 229 203 233c73 2 124 -46 124 -112c0 -67 -46 -106 -109 -106c-25 0 -51 8 -51 23s9 59 -29 59c-39 0 -53 -48 -59 -86c162 18 135 -240 216 -240c105 0 102 435 102 435c0 4 3 5 4 5c134 30 277 32 437 0c1 0 3 -1 3 -4z" />
    <glyph glyph-name="afii10065_afii10077" unicode="&#x430;&#x43b;" horiz-adv-x="1177" 
d="M291 117c49 0 75 60 75 135s-26 136 -75 136s-75 -61 -75 -136s26 -135 75 -135zM1147 498v-493c0 -5 -4 -5 -4 -5h-193s-4 0 -4 5v405h-71c17 -402 -179 -426 -274 -432c-104 -7 -212 38 -237 113c-34 -65 -88 -113 -158 -113c-126 0 -196 139 -196 273
c0 137 70 271 201 271c69 0 118 -39 149 -95v69c0 5 5 6 5 6h200s4 -1 4 -5c0 0 -5 -285 -4 -354c1 -112 72 -89 108 63c28 117 30 291 30 291c0 4 3 5 4 5c134 30 277 32 437 0c1 0 3 -1 3 -4z" />
    <glyph glyph-name="afii10065_afii10078" unicode="&#x430;&#x43c;" horiz-adv-x="1369" 
d="M1331 499c0 -23 8 -494 8 -494c0 -5 -4 -5 -4 -5h-194s-4 0 -4 5c0 0 1 89 1 191l10 108l-127 -295c-2 -6 -4 -8 -13 -8h-25c-6 0 -9 2 -12 8l-100 254c-31 -263 -188 -280 -270 -285c-104 -7 -212 38 -237 113c-34 -65 -88 -113 -158 -113c-126 0 -196 139 -196 273
c0 137 70 271 201 271c69 0 118 -39 149 -95v69c0 5 5 6 5 6h200s4 -1 4 -5c0 0 -4 -285 -3 -354c1 -139 90 -46 112 84c17 101 11 271 11 271c0 5 4 5 4 5h210c3 0 5 -4 5 -4l90 -187h3l98 188s1 3 5 3h224s3 0 3 -4zM291 117c49 0 75 60 75 135s-26 136 -75 136
s-75 -61 -75 -136s26 -135 75 -135z" />
    <glyph glyph-name="afii10074_afii10077" unicode="&#x438;&#x43b;" horiz-adv-x="1175" 
d="M1145 498v-493c0 -5 -4 -5 -4 -5h-193s-4 0 -4 5v405h-71c17 -402 -179 -426 -274 -432c-104 -7 -211 40 -237 115c-42 -85 -109 -115 -162 -115c-74 0 -137 65 -137 165v156c0 159 -76 125 -67 152c11 32 65 71 121 71c81 0 148 -58 148 -152v-194c0 -98 90 -66 94 46
v275c0 5 4 6 4 6h201s4 -1 4 -5c-4 -89 -6 -286 -5 -355c1 -112 72 -89 108 63c28 117 30 291 30 291c0 4 3 5 4 5c134 30 277 32 437 0c1 0 3 -1 3 -4z" />
    <glyph glyph-name="afii10074_afii10078" unicode="&#x438;&#x43c;" horiz-adv-x="1360" 
d="M1322 499c0 -23 8 -494 8 -494c0 -5 -4 -5 -4 -5h-194s-4 0 -4 5c0 0 1 89 1 191l10 108l-127 -295c-2 -6 -4 -8 -13 -8h-25c-6 0 -9 2 -12 8l-100 254c-20 -256 -182 -280 -264 -285c-104 -7 -211 38 -236 113c-42 -85 -109 -113 -162 -113c-74 0 -137 65 -137 165v156
c0 159 -76 125 -67 152c11 32 65 71 121 71c81 0 148 -58 148 -152v-194c0 -98 90 -66 94 46v275c0 5 4 6 4 6h200s4 -1 4 -5c-4 -88 -5 -288 -4 -355c1 -45 16 -64 31 -64c100 0 90 419 90 419c0 5 4 5 4 5h206c3 0 5 -4 5 -4l90 -187h3l98 188s1 3 5 3h224s3 0 3 -4z" />
    <glyph glyph-name="afii10074_afii10097" unicode="&#x438;&#x44f;" horiz-adv-x="1148" 
d="M882 418c-35 0 -65 -22 -65 -68c0 -44 23 -65 67 -65h32v131c-11 1 -23 2 -34 2zM1118 499v-493c0 -5 -4 -5 -4 -5h-193s-4 0 -4 5v189c-28 -8 -10 -88 -81 -159c-92 -91 -398 -100 -474 57c-42 -85 -109 -115 -162 -115c-74 0 -137 65 -137 165v156
c0 159 -76 125 -67 152c11 32 65 71 121 71c81 0 148 -58 148 -152v-194c0 -98 90 -66 94 46v275c0 5 4 6 4 6h201s4 -1 4 -5c-4 -89 -6 -276 -5 -345c2 -137 118 -58 182 58c-70 17 -123 71 -123 143c0 115 126 172 249 172c133 0 243 -23 243 -23s4 0 4 -4z" />
    <glyph glyph-name="afii10079_afii10097" unicode="&#x43d;&#x44f;" horiz-adv-x="1141" 
d="M875 418c-35 0 -65 -22 -65 -68c0 -44 23 -65 67 -65h32v131c-11 1 -23 2 -34 2zM556 498v-345c2 -137 118 -58 182 58c-70 17 -123 71 -123 143c0 115 126 172 249 172c133 0 243 -23 243 -23s4 0 4 -4v-494c0 -5 -4 -5 -4 -5h-193s-4 0 -4 5v190
c-28 -8 -9 -87 -80 -158c-40 -39 -133 -70 -227 -69c-126 1 -250 39 -248 230h-98v-192c0 -5 -5 -6 -5 -6h-200s-5 1 -4 5c0 0 7 228 7 297c0 159 -68 125 -59 152c11 32 65 71 121 71c81 0 140 -58 140 -152v-58h98v183c0 5 5 5 5 5h192s4 0 4 -5z" />
    <glyph glyph-name="afii10072_afii10078" unicode="&#x436;&#x43c;" horiz-adv-x="1629" 
d="M1591 499c0 -23 8 -494 8 -494c0 -5 -4 -5 -4 -5h-194s-4 0 -4 5c0 0 1 89 1 191l10 108l-127 -295c-2 -6 -4 -8 -13 -8h-25c-6 0 -10 2 -12 8l-102 254c-1 -46 -3 -79 -12 -112c-41 -160 -192 -179 -271 -179c-324 0 -231 248 -299 242v-208c0 -5 -4 -5 -4 -5h-193
s-4 0 -4 5v208c-64 -4 -5 -236 -213 -236c-55 0 -104 29 -126 55c-17 20 -15 25 1 33c109 53 109 144 150 197c23 29 53 46 97 40h1c-8 37 -24 86 -60 86c-37 0 -26 -44 -26 -59s-26 -23 -50 -23c-63 0 -109 39 -109 106c0 66 51 112 124 112c133 0 183 -135 203 -233l8 -3
v210c0 4 4 4 4 4h194s3 1 3 -4v-210l7 3c14 81 71 233 203 233c73 0 125 -46 125 -112c0 -67 -46 -106 -110 -106c-24 0 -50 8 -50 23s8 59 -29 59c-36 0 -52 -49 -60 -86h1c162 18 135 -240 216 -240c45 0 108 77 99 435c0 5 4 5 4 5h210c3 0 5 -4 5 -4l90 -187h3l98 188
s1 3 5 3h224s3 0 3 -4z" />
    <glyph glyph-name="afii10074_afii10072" unicode="&#x438;&#x436;" horiz-adv-x="1505" 
d="M1497 65c15 -8 17 -13 0 -33c-22 -26 -71 -55 -126 -55c-206 0 -150 228 -212 236v-208c0 -5 -4 -5 -4 -5h-193s-4 0 -4 5v208c-7 0 -15 -3 -17 -11c-46 -218 -191 -234 -314 -234c-124 0 -221 29 -265 123c-42 -84 -109 -114 -162 -114c-74 0 -137 65 -137 165v156
c0 159 -76 125 -67 152c11 32 65 71 121 71c81 0 148 -58 148 -152v-194c0 -98 90 -66 94 46v275c0 5 4 6 4 6h201s4 -1 4 -5c-2 -38 -3 -112 -4 -191c0 -196 29 -244 82 -244c97 0 37 251 223 240c-8 37 -24 86 -60 86c-37 0 -27 -44 -27 -59s-26 -23 -50 -23
c-63 0 -109 39 -109 106c0 66 51 112 124 112c133 0 189 -148 203 -233l8 -3v210c0 4 4 4 4 4h194s3 1 3 -4v-210l7 3c8 73 71 233 203 233c73 0 125 -46 125 -112c0 -67 -46 -106 -110 -106c-24 0 -50 8 -50 23s8 59 -29 59c-36 0 -52 -49 -60 -86h1c44 6 77 -11 100 -40
c41 -53 41 -144 151 -197z" />
    <glyph glyph-name="afii10065_afii10072" unicode="&#x430;&#x436;" horiz-adv-x="1504" 
d="M1496 65c15 -8 17 -13 0 -33c-22 -26 -71 -55 -126 -55c-206 0 -150 228 -212 236v-208c0 -5 -4 -5 -4 -5h-193s-4 0 -4 5v208c-7 0 -15 -3 -17 -11c-46 -218 -191 -234 -314 -234s-220 29 -264 120c-34 -63 -88 -109 -156 -109c-126 0 -196 139 -196 273
c0 137 70 271 201 271c69 0 118 -39 149 -95v69c0 5 5 6 5 6h200s4 -1 4 -5c0 0 -4 -128 -6 -221c3 -172 33 -215 84 -215c97 0 59 258 221 240c-8 37 -22 86 -58 86c-37 0 -29 -44 -29 -59s-26 -23 -50 -23c-63 0 -109 39 -109 106c0 66 51 112 124 112
c133 0 192 -154 203 -233l8 -3v210c0 4 4 4 4 4h194s3 1 3 -4v-210l7 3c13 68 71 233 203 233c73 0 125 -46 125 -112c0 -67 -46 -106 -110 -106c-24 0 -50 8 -50 23s12 59 -25 59c-36 0 -57 -49 -65 -86h1c44 6 78 -11 101 -40c41 -53 41 -144 151 -197zM291 117
c49 0 75 60 75 135s-26 136 -75 136s-75 -61 -75 -136s26 -135 75 -135z" />
    <glyph glyph-name="afii10084_afii10084" unicode="&#x442;&#x442;" horiz-adv-x="840" 
d="M834 467c2 -99 -104 -107 -158 -99h-1v-165c0 -159 68 -125 59 -152c-11 -32 -66 -71 -122 -71c-80 0 -139 58 -139 152v244l-131 1v-174c0 -159 68 -125 59 -152c-11 -32 -66 -71 -122 -71c-80 0 -139 58 -139 152v244l-130 1s-3 0 -3 4l-2 112v7c0 3 1 3 2 4
c215 24 649 23 814 2c7 -1 9 -5 10 -10c0 0 3 -12 3 -29z" />
    <glyph glyph-name="afii10084_afii10089" unicode="&#x442;&#x447;" horiz-adv-x="999" 
d="M944 201c0 -159 69 -125 59 -152c-10 -32 -64 -71 -120 -71c-81 0 -140 58 -140 152v68c-35 -49 -89 -63 -135 -63c-85 0 -142 57 -145 154c-7 81 -45 119 -124 91v-177c0 -159 68 -125 59 -152c-11 -32 -63 -71 -119 -71c-80 0 -139 58 -139 152v244l-130 1s-3 0 -3 4
l-2 112v7c0 3 1 3 2 4c197 37 437 14 506 0c79 -16 151 -56 151 -150v-44c0 -101 79 -79 79 21v166c0 5 5 6 5 6h200s4 -1 4 -5c0 0 -8 -228 -8 -297z" />
    <glyph glyph-name="afii10083_afii10084" unicode="&#x441;&#x442;" horiz-adv-x="916" 
d="M297 393c2 9 3 10 4 14c-5 3 -12 4 -18 4c-54 0 -80 -85 -73 -159c16 -179 186 -159 288 -98c4 3 10 4 14 1c3 -3 5 -7 3 -16c-12 -42 -86 -160 -232 -160c-152 0 -273 122 -273 273c0 146 112 265 265 272c44 1 103 -6 141 -28c191 45 446 15 481 10c7 -1 9 -5 10 -10
c0 0 3 -12 3 -29c2 -99 -104 -107 -158 -99h-1v-165c0 -159 68 -125 59 -152c-11 -32 -66 -71 -122 -71c-80 0 -139 58 -139 152v245c-52 1 -53 0 -54 0c-12 -53 -58 -93 -108 -93c-56 0 -103 50 -90 109z" />
    <glyph glyph-name="afii10084_afii10094" unicode="&#x442;&#x44c;" horiz-adv-x="965" 
d="M747 394c107 0 207 -79 207 -197c0 -129 -116 -219 -249 -219c-185 0 -239 125 -239 217v181h-124v-173c0 -159 68 -125 59 -152c-11 -32 -66 -71 -122 -71c-80 0 -139 58 -139 152v244l-130 1s-3 0 -3 4l-2 119c0 3 1 3 2 4c197 37 612 7 647 2c7 -1 9 -5 10 -10
c0 0 3 -12 3 -109c25 4 52 7 80 7zM713 94c42 0 52 54 52 108c0 58 -33 96 -78 96c-7 0 -14 -1 -20 -2v-132c2 -35 11 -70 46 -70z" />
    <glyph glyph-name="afii10084_afii10093" unicode="&#x442;&#x44b;" horiz-adv-x="1229" 
d="M1167 201c0 -159 76 -125 66 -152c-11 -32 -65 -71 -121 -71c-80 0 -147 58 -147 152v194c0 81 -50 74 -70 7c31 -34 51 -80 51 -134c0 -129 -108 -219 -241 -219c-185 0 -239 125 -239 217v181h-124v-173c0 -159 68 -125 59 -152c-11 -32 -66 -71 -122 -71
c-80 0 -139 58 -139 152v244l-130 1s-3 0 -3 4l-2 119c0 3 1 3 2 4c197 37 612 7 647 2c7 -1 9 -5 10 -10c0 0 3 -12 3 -109c24 4 52 7 80 7c37 0 73 -10 104 -28c38 116 118 156 178 156c75 0 138 -65 138 -165v-156zM710 94c41 0 47 54 47 108c0 58 -26 96 -70 96
c-7 0 -15 -1 -20 -2v-122c1 -39 8 -80 43 -80z" />
    <glyph glyph-name="afii10084_afii10096" unicode="&#x442;&#x44e;" horiz-adv-x="1251" 
d="M980 524c161 0 265 -122 265 -272c0 -151 -100 -273 -265 -273c-142 0 -239 94 -260 219h-42v-192c0 -5 -4 -6 -4 -6h-197s-4 1 -4 5v295c-4 67 -59 106 -134 80v-177c0 -159 68 -125 59 -152c-11 -32 -63 -71 -119 -71c-80 0 -139 58 -139 152v244l-130 1s-3 0 -3 4
l-2 112v7c0 3 1 3 2 4c197 37 447 14 516 0c76 -16 151 -54 155 -142c1 -14 0 -23 0 -47h44c24 120 120 209 258 209zM980 93c61 0 67 71 67 159c0 86 -8 159 -67 159c-58 0 -67 -72 -67 -159c0 -84 9 -159 67 -159z" />
    <glyph glyph-name="afii10076_afii10079" unicode="&#x43a;&#x43d;" horiz-adv-x="1161" 
d="M1106 202c0 -159 69 -125 59 -153c-10 -31 -64 -68 -120 -68c-81 0 -140 56 -140 150v67h-98v-192c0 -5 -5 -6 -5 -6h-194s-5 1 -4 5c0 0 1 212 0 284c0 174 -208 139 -254 14c155 2 71 -162 225 -237c16 -8 17 -13 1 -33c-23 -26 -52 -55 -108 -55
c-206 0 -149 230 -212 236v-208c0 -5 -4 -6 -4 -6h-201s-4 1 -4 5c0 0 8 228 8 297c0 159 -68 125 -59 152c11 32 65 71 121 71c80 0 139 -58 139 -152v-84s6 2 16 4c2 41 41 218 261 238c177 16 263 -67 271 -216h101v183c0 5 5 5 5 5h192s4 0 4 -5v-296z" />
    <glyph glyph-name="afii10076_afii10084" unicode="&#x43a;&#x442;" horiz-adv-x="989" 
d="M982 467c2 -99 -104 -107 -158 -99h-1v-165c0 -159 68 -125 59 -152c-11 -32 -66 -71 -122 -71c-80 0 -139 58 -139 152v249c-95 15 -232 18 -281 -78c44 4 81 -11 104 -40c40 -53 41 -144 150 -197c16 -8 17 -13 1 -33c-23 -26 -71 -55 -127 -55
c-206 0 -149 230 -212 236v-208c0 -5 -4 -6 -4 -6h-201s-4 1 -4 5c0 0 8 228 8 297c0 159 -68 125 -59 152c11 32 65 71 121 71c80 0 139 -58 139 -152v-84s6 2 16 4c2 41 33 216 254 229c118 7 424 -13 443 -16c7 -1 9 -5 10 -10c0 0 3 -12 3 -29z" />
    <glyph glyph-name="afii10084_afii10076" unicode="&#x442;&#x43a;" horiz-adv-x="1022" 
d="M1012 66c16 -8 17 -13 1 -33c-23 -26 -71 -55 -127 -55c-206 0 -149 230 -212 236v-208c0 -5 -4 -6 -4 -6h-201s-4 1 -4 5c0 0 7 204 8 284c-7 81 -55 119 -134 91v-177c0 -159 68 -125 59 -152c-11 -32 -63 -71 -119 -71c-80 0 -139 58 -139 152v244l-130 1s-3 0 -3 4
l-2 112v7c0 3 1 3 2 4c197 37 447 14 516 0c79 -16 152 -56 151 -151v-64l8 3c9 75 70 233 203 233c73 0 124 -46 124 -112c0 -67 -46 -106 -109 -106c-25 0 -51 8 -51 23s11 59 -27 59c-36 0 -49 -47 -58 -86c45 6 75 -11 98 -40c40 -53 41 -144 150 -197z" />
    <glyph glyph-name="afii10084_afii10082" unicode="&#x442;&#x440;" horiz-adv-x="1038" 
d="M836 525c126 0 195 -139 195 -273c0 -137 -69 -271 -200 -271c-69 0 -118 39 -149 95v-290c0 -5 -5 -6 -5 -6h-200s-5 1 -4 5c0 0 -1 438 -1 513c-10 75 -57 109 -133 82v-177c0 -159 68 -125 59 -152c-11 -32 -63 -71 -119 -71c-80 0 -139 58 -139 152v244l-130 1
s-3 0 -3 4l-2 112v7c0 3 1 3 2 4c197 37 457 14 526 0c56 -12 106 -46 145 -93c34 66 88 114 158 114zM751 116c49 0 75 61 75 136s-26 135 -75 135s-75 -60 -75 -135s26 -136 75 -136z" />
    <glyph glyph-name="afii10072_afii10074" unicode="&#x436;&#x438;" horiz-adv-x="1435" 
d="M547 499v-210c0 1 1 2 9 4c2 41 33 225 254 238c139 8 276 -69 272 -232v-128c3 -92 91 -59 95 51v275c0 5 4 6 4 6h201s4 -1 4 -5c0 0 -8 -228 -8 -297c0 -159 68 -125 59 -152c-11 -32 -65 -71 -121 -71c-69 0 -122 43 -136 115c-42 -85 -109 -115 -162 -115
c-74 0 -137 65 -137 165v156c0 131 -208 129 -254 4c44 4 78 -11 101 -40c40 -53 41 -144 150 -197c16 -8 17 -13 1 -33c-23 -26 -71 -55 -127 -55c-206 0 -142 230 -205 236v-208c0 -5 -4 -5 -4 -5h-193s-4 0 -4 5v208c-64 -4 -5 -236 -213 -236c-55 0 -104 29 -126 55
c-17 20 -15 25 1 33c109 53 109 144 150 197c23 29 54 46 98 40h1c-8 37 -24 86 -60 86c-37 0 -27 -44 -27 -59s-26 -23 -50 -23c-63 0 -109 39 -109 106c0 66 51 112 124 112c133 0 189 -145 203 -233l8 -3v210c0 4 4 4 4 4h194s3 1 3 -4z" />
    <glyph glyph-name="afii10072_afii10093" unicode="&#x436;&#x44b;" horiz-adv-x="1627" 
d="M1564 201c0 -159 76 -125 66 -152c-11 -32 -65 -71 -121 -71c-80 0 -147 58 -147 152v194c0 81 -50 74 -70 7c31 -34 51 -80 51 -134c0 -129 -108 -219 -241 -219c-185 0 -239 125 -239 217v109c0 131 -193 124 -239 -1c44 4 81 -11 104 -40c40 -53 41 -144 150 -197
c16 -8 17 -13 1 -33c-23 -26 -71 -55 -127 -55c-206 0 -142 230 -205 236v-208c0 -5 -4 -5 -4 -5h-193s-4 0 -4 5v208c-64 -4 -5 -236 -213 -236c-55 0 -104 29 -126 55c-17 20 -15 25 1 33c109 53 109 144 150 197c23 29 54 46 98 40h1c-8 37 -24 86 -60 86
c-37 0 -27 -44 -27 -59s-26 -23 -50 -23c-63 0 -109 39 -109 106c0 66 51 112 124 112c133 0 189 -146 203 -233l8 -3v210c0 4 4 4 4 4h194s3 1 3 -4v-210c0 1 2 2 9 4c2 41 33 221 254 238c126 10 240 -19 246 -142c25 3 62 5 88 5c37 0 73 -10 104 -28
c38 116 118 156 178 156c75 0 138 -65 138 -165v-156zM1107 94c41 0 47 54 47 108c0 58 -26 96 -70 96c-7 0 -15 -1 -20 -2v-122c1 -39 8 -80 43 -80z" />
    <glyph glyph-name="afii10076_afii10093" unicode="&#x43a;&#x44b;" horiz-adv-x="1340" 
d="M1278 201c0 -159 76 -125 66 -152c-11 -32 -65 -71 -121 -71c-80 0 -147 58 -147 152v194c0 81 -50 74 -70 7c31 -34 51 -80 51 -134c0 -129 -108 -219 -241 -219c-185 0 -239 125 -239 217v109c0 131 -193 124 -239 -1c44 4 81 -11 104 -40c40 -53 41 -144 150 -197
c16 -8 17 -13 1 -33c-23 -26 -71 -55 -127 -55c-205 0 -149 227 -210 236v-208c0 -5 -4 -6 -4 -6h-201s-4 1 -4 5c0 0 8 228 8 297c0 159 -68 125 -59 152c11 32 65 71 121 71c80 0 139 -58 139 -152v-84c1 1 8 2 14 4c2 41 33 221 254 238c126 10 240 -19 246 -142
c25 3 62 5 88 5c37 0 73 -10 104 -28c38 116 118 156 178 156c75 0 138 -65 138 -165v-156zM821 94c41 0 47 54 47 108c0 58 -26 96 -70 96c-7 0 -15 -1 -20 -2v-122c1 -39 8 -80 43 -80z" />
    <glyph glyph-name="afii10072_afii10085" unicode="&#x436;&#x443;" horiz-adv-x="1404" 
d="M1375 73c6 -173 -91 -297 -276 -297c-146 0 -213 98 -225 136c-16 49 -6 58 5 56c24 -4 53 -78 165 -78c80 0 126 64 129 124v100c-41 -86 -109 -116 -162 -116c-74 0 -137 65 -137 165v136h-1c0 131 -203 129 -249 4c44 4 81 -11 104 -40c40 -53 41 -144 150 -197
c16 -8 17 -13 1 -33c-23 -26 -71 -55 -127 -55c-206 0 -142 230 -205 236v-208c0 -5 -4 -5 -4 -5h-193s-4 0 -4 5v208c-64 -4 -5 -236 -213 -236c-55 0 -104 29 -126 55c-17 20 -15 25 1 33c109 53 109 144 150 197c23 29 54 46 98 40h1c-8 37 -25 86 -61 86
c-37 0 -26 -44 -26 -59s-26 -23 -50 -23c-63 0 -109 39 -109 106c0 66 51 112 124 112c139 0 193 -153 203 -233l8 -3v210c0 4 4 4 4 4h194s3 1 3 -4v-210c0 1 2 2 9 4c2 41 33 225 254 238c139 8 272 -69 265 -232c1 -1 -1 -1 0 -103c0 -100 94 -65 96 52v249c0 5 4 5 4 5
h193s4 0 4 -5c0 0 3 -291 3 -424z" />
    <glyph glyph-name="afii10072_afii10077" unicode="&#x436;&#x43b;" horiz-adv-x="1425" 
d="M1395 499v-493c0 -5 -4 -5 -4 -5h-193s-4 0 -4 5v405h-71c2 -87 -4 -204 -20 -260c-40 -142 -179 -179 -258 -179c-323 0 -232 245 -298 242v-208c0 -5 -4 -5 -4 -5h-193s-4 0 -4 5v208c-64 -4 -5 -236 -213 -236c-55 0 -104 29 -126 55c-17 20 -15 25 1 33
c109 53 109 144 150 197c23 29 52 46 96 40h1c-8 37 -24 86 -60 86c-37 0 -25 -44 -25 -59s-26 -23 -50 -23c-63 0 -109 39 -109 106c0 66 51 112 124 112c133 0 192 -146 203 -233l8 -3v210c0 4 4 4 4 4h194s3 1 3 -4v-210l7 3c8 68 60 230 203 233c73 2 124 -46 124 -112
c0 -67 -46 -106 -109 -106c-25 0 -51 8 -51 23s14 59 -24 59c-39 0 -57 -48 -63 -86c162 18 134 -240 215 -240c105 0 102 435 102 435c0 4 3 5 4 5c134 30 277 32 437 0c1 0 3 -1 3 -4z" />
    <glyph glyph-name="afii10072_afii10084" unicode="&#x436;&#x442;" horiz-adv-x="1273" 
d="M1266 467c2 -99 -104 -107 -158 -99h-1v-165c0 -159 68 -125 59 -152c-11 -32 -66 -71 -122 -71c-80 0 -139 58 -139 152v249c-95 15 -232 18 -281 -78c44 4 81 -11 104 -40c40 -53 41 -144 150 -197c16 -8 17 -13 1 -33c-23 -26 -71 -55 -127 -55
c-198 0 -154 211 -205 234v-206c0 -5 -4 -5 -4 -5h-193s-4 0 -4 5v208c-64 -4 -5 -236 -213 -236c-55 0 -104 29 -126 55c-17 20 -15 25 1 33c109 53 109 144 150 197c23 29 54 46 98 40h1c-8 37 -24 86 -60 86c-37 0 -27 -44 -27 -59s-26 -23 -50 -23
c-63 0 -109 39 -109 106c0 66 51 112 124 112c133 0 189 -138 203 -233l8 -3v210c0 4 4 4 4 4h194s3 1 3 -4v-208c2 0 5 1 9 2c2 41 33 216 254 229c118 7 424 -13 443 -16c7 -1 9 -5 10 -10c0 0 3 -12 3 -29z" />
    <glyph glyph-name="afii10093_afii10072" unicode="&#x44b;&#x436;" horiz-adv-x="1654" 
d="M1644 65c15 -8 17 -13 0 -33c-22 -26 -71 -55 -126 -55c-206 0 -150 228 -212 236v-208c0 -5 -4 -5 -4 -5h-193s-4 0 -4 5v208c-7 0 -15 -3 -17 -11c-46 -218 -191 -234 -314 -234c-263 0 -235 142 -235 356c0 77 -50 74 -70 7c31 -34 41 -80 41 -134
c0 -129 -98 -219 -231 -219c-185 0 -239 125 -239 217c0 68 0 304 0 303c0 4 4 5 4 5h193s4 -1 4 -6v-110c24 4 52 7 80 7c37 0 73 -10 104 -28c38 116 118 156 178 156c75 0 139 -65 139 -165c0 -105 -24 -295 53 -295c97 0 60 258 222 240c-8 37 -24 86 -60 86
c-37 0 -28 -44 -28 -59s-26 -23 -50 -23c-63 0 -109 39 -109 106c0 66 51 112 124 112c133 0 189 -143 203 -233l8 -3v210c0 4 4 4 4 4h194s3 1 3 -4v-210l7 3c10 69 71 233 203 233c73 0 125 -46 125 -112c0 -67 -46 -106 -110 -106c-24 0 -50 8 -50 23s12 59 -25 59
c-36 0 -55 -49 -63 -86h1c44 6 76 -11 99 -40c41 -53 41 -144 151 -197zM284 94c41 0 47 54 47 108c0 58 -26 96 -70 96c-7 0 -15 -1 -20 -2v-122c1 -39 8 -80 43 -80z" />
    <glyph glyph-name="afii10093_afii10072_afii10074" unicode="&#x44b;&#x436;&#x438;" horiz-adv-x="2194" 
d="M1306 498v-208c1 1 3 2 8 3c2 41 33 225 254 238c139 8 276 -69 272 -232v-128c3 -92 91 -59 95 51v275c0 5 4 6 4 6h201s4 -1 4 -5c0 0 -8 -228 -8 -297c0 -159 68 -125 59 -152c-11 -32 -65 -71 -121 -71c-69 0 -122 43 -136 115c-42 -85 -109 -115 -162 -115
c-74 0 -137 65 -137 165v156c0 131 -211 129 -257 4c44 4 81 -11 104 -40c40 -53 41 -144 150 -197c16 -8 17 -13 1 -33c-23 -26 -71 -55 -127 -55c-205 0 -143 227 -204 236v-209c0 -5 -4 -5 -4 -5h-193s-4 0 -4 5v208c-7 0 -15 -3 -17 -11c-46 -218 -191 -234 -314 -234
c-263 0 -235 142 -235 356c0 77 -50 74 -70 7c31 -34 41 -80 41 -134c0 -129 -98 -219 -231 -219c-185 0 -239 125 -239 217v303c0 4 4 5 4 5h193s4 -1 4 -6v-110c24 4 52 7 80 7c37 0 73 -10 104 -28c38 116 118 156 178 156c75 0 139 -65 139 -165
c0 -105 -24 -295 53 -295c97 0 61 258 223 240c-8 37 -26 86 -62 86c-37 0 -27 -44 -27 -59s-26 -23 -50 -23c-63 0 -109 39 -109 106c0 66 51 112 124 112c133 0 192 -145 203 -233l8 -3v210c0 4 4 4 4 4h194s3 1 3 -4zM284 94c41 0 47 54 47 108c0 58 -26 96 -70 96
c-7 0 -15 -1 -20 -2v-122c1 -39 8 -80 43 -80z" />
    <glyph glyph-name="afii10093_afii10072_afii10093" unicode="&#x44b;&#x436;&#x44b;" horiz-adv-x="2384" 
d="M2322 201c0 -159 76 -125 66 -152c-11 -32 -65 -71 -121 -71c-80 0 -147 58 -147 152v194c0 81 -50 74 -70 7c31 -34 51 -80 51 -134c0 -129 -108 -219 -241 -219c-185 0 -239 125 -239 217v109c0 131 -193 124 -239 -1c44 4 81 -11 104 -40c40 -53 41 -144 150 -197
c16 -8 17 -13 1 -33c-23 -26 -71 -55 -127 -55c-205 0 -143 227 -204 236v-209c0 -5 -4 -5 -4 -5h-193s-4 0 -4 5v208c-7 0 -15 -3 -17 -11c-46 -218 -191 -234 -314 -234c-263 0 -235 142 -235 356c0 77 -50 74 -70 7c31 -34 41 -80 41 -134c0 -129 -98 -219 -231 -219
c-185 0 -239 125 -239 217v303c0 4 4 5 4 5h193s4 -1 4 -6v-110c24 4 52 7 80 7c37 0 73 -10 104 -28c38 116 118 156 178 156c75 0 139 -65 139 -165c0 -105 -24 -295 53 -295c97 0 58 258 220 240c-8 37 -22 86 -58 86c-37 0 -28 -44 -28 -59s-26 -23 -50 -23
c-63 0 -109 39 -109 106c0 66 51 112 124 112c133 0 192 -143 203 -233l8 -3v210c0 4 4 4 4 4h194s3 1 3 -4v-208c1 1 3 1 8 3c2 41 33 221 254 238c126 10 240 -19 246 -142c25 3 62 5 88 5c37 0 73 -10 104 -28c38 116 118 156 178 156c75 0 138 -65 138 -165v-156z
M1865 94c41 0 47 54 47 108c0 58 -26 96 -70 96c-7 0 -15 -1 -20 -2v-122c1 -39 8 -80 43 -80zM284 94c41 0 47 54 47 108c0 58 -26 96 -70 96c-7 0 -15 -1 -20 -2v-122c1 -39 8 -80 43 -80z" />
    <glyph glyph-name="uni0410_afii10077" unicode="&#x410;&#x43b;" horiz-adv-x="1216" 
d="M1185 499v-493c0 -5 -4 -5 -4 -5h-193s-4 0 -4 5v405h-71c-5 -83 -2 -171 -24 -260c-59 -239 -404 -227 -468 -40h-175c-12 -63 -22 -106 -22 -106c-2 -5 -7 -5 -7 -5h-209s-5 0 -2 5c0 0 172 538 172 539c41 105 -13 107 -5 130c13 39 85 69 143 69
c73 0 147 -48 186 -157c19 -54 73 -290 108 -411c96 -330 130 303 131 323c0 4 3 5 4 5c134 30 277 32 437 0c1 -1 3 -2 3 -4zM274 246h117l-59 290c-18 -73 -39 -199 -58 -290z" />
    <glyph glyph-name="uni0410_afii10078" unicode="&#x410;&#x43c;" horiz-adv-x="1402" 
d="M1366 499c0 -23 8 -494 8 -494c0 -5 -4 -5 -4 -5h-194s-4 0 -4 5c0 0 1 89 1 191l10 108l-127 -295c-2 -6 -4 -8 -13 -8h-25c-6 0 -9 2 -12 8l-99 251c-5 -48 -11 -75 -18 -110c-44 -232 -403 -233 -468 -39h-175c-12 -63 -22 -106 -22 -106c-2 -5 -7 -5 -7 -5h-209
s-5 0 -2 5c0 0 172 538 172 539c41 105 -13 107 -5 130c13 39 85 69 143 69c73 0 147 -48 186 -157c19 -54 72 -291 108 -411c93 -310 122 244 121 323c0 5 4 5 4 5h203c3 0 5 -4 5 -4l90 -187h3l98 188s1 3 5 3h224s3 0 3 -4zM274 246h117l-59 290
c-18 -73 -39 -199 -58 -290z" />
    <glyph glyph-name="uni041A_afii10077" unicode="&#x41a;&#x43b;" horiz-adv-x="1165" 
d="M1137 499v-493c0 -5 -4 -5 -4 -5h-193s-4 0 -4 5v405h-71c2 -87 -7 -204 -23 -260c-40 -142 -160 -179 -239 -179c-200 0 -272 126 -291 341c-8 2 -28 1 -36 -4l7 -304c0 -5 -5 -5 -5 -5h-215s-5 0 -4 5c-1 478 0 542 0 543c-11 119 -72 92 -63 118c12 33 78 73 137 73
c78 0 148 -46 148 -160l-5 -160c7 4 23 4 30 7c-2 153 71 295 219 313c88 11 161 -41 150 -126c-18 -145 -192 -101 -192 -88c0 20 5 51 -29 51c-41 0 -62 -65 -61 -140c170 17 148 -374 233 -355c45 11 67 417 67 417c0 4 3 5 4 5c134 30 277 32 437 0c1 0 3 -1 3 -4z" />
    <glyph glyph-name="uni0416_afii10077" unicode="&#x416;&#x43b;" horiz-adv-x="1497" 
d="M1470 499v-493c0 -5 -4 -5 -4 -5h-193s-4 0 -4 5v405h-71c2 -87 -7 -204 -23 -260c-40 -142 -160 -179 -239 -179c-200 0 -271 126 -290 341c-6 1 -20 1 -29 -1v-3l6 -304c0 -5 -5 -5 -5 -5h-213s-5 0 -4 5l5 304c-8 5 -19 6 -27 4c-15 -172 -85 -354 -272 -333
c-95 11 -124 119 -107 125c78 25 162 167 184 213c32 68 70 108 116 114c1 75 -39 153 -80 151c-37 -2 -31 -38 -31 -58c0 -13 -174 -57 -192 88c-11 85 70 135 158 126c147 -15 223 -175 228 -317c7 -3 16 -3 23 -7l-5 294c0 5 5 5 5 5h213s5 0 4 -5l-6 -288c8 2 18 3 23 5
c-2 153 70 295 218 313c88 11 161 -41 150 -126c-18 -145 -192 -101 -192 -88c0 20 4 51 -30 51c-41 0 -63 -65 -62 -140c170 17 150 -374 235 -355c44 12 67 417 67 417c0 4 3 5 4 5c134 30 277 32 437 0c1 0 3 -1 3 -4z" />
    <glyph glyph-name="uni0416_afii10078" unicode="&#x416;&#x43c;" horiz-adv-x="1695" 
d="M1663 499c0 -23 8 -494 8 -494c0 -5 -4 -5 -4 -5h-194s-4 0 -4 5c0 0 1 89 1 191l10 108l-127 -295c-2 -6 -4 -8 -13 -8h-25c-6 0 -9 2 -12 8l-104 258c-4 -44 -6 -90 -13 -116c-40 -142 -171 -179 -250 -179c-200 0 -271 126 -290 341c-6 1 -20 1 -29 -1v-3l6 -304
c0 -5 -5 -5 -5 -5h-213s-5 0 -4 5l5 304c-8 5 -19 6 -27 4c-15 -172 -85 -354 -272 -333c-95 11 -124 119 -107 125c78 25 164 167 186 213c32 68 67 108 113 114c1 75 -38 153 -79 151c-34 -2 -31 -38 -31 -58c0 -13 -174 -57 -192 88c-11 85 70 136 158 126
c161 -19 223 -175 228 -317c7 -3 16 -3 23 -7l-5 294c0 5 5 5 5 5h213s5 0 4 -5l-6 -288c8 2 18 3 23 5c-2 153 70 295 218 313c88 11 161 -41 150 -126c-18 -145 -192 -101 -192 -88c0 20 4 51 -30 51c-41 0 -61 -65 -60 -140c170 17 148 -374 233 -355c34 8 67 309 62 417
c0 5 4 5 4 5h210c3 0 5 -4 5 -4l90 -187h3l98 188s1 3 5 3h224s3 0 3 -4z" />
    <glyph glyph-name="afii10084_afii10103" unicode="&#x442;&#x456;" horiz-adv-x="701" 
d="M674 353v-347c0 -5 -4 -6 -4 -6h-201s-4 1 -4 5c0 0 7 204 8 284c-7 81 -55 119 -134 91v-177c0 -159 68 -125 59 -152c-11 -32 -63 -71 -119 -71c-80 0 -139 58 -139 152v244l-130 1s-3 0 -3 4l-2 112v7c0 3 1 3 2 4c197 37 447 18 516 4c79 -16 152 -60 151 -155z
M666 645c0 -52 -53 -93 -117 -93s-116 41 -116 93c0 51 52 93 116 93s117 -42 117 -93z" />
    <glyph glyph-name="afii10103_afii10104" unicode="&#x456;&#x457;" horiz-adv-x="581" 
d="M549 6c0 -5 -5 -6 -5 -6h-200s-4 1 -4 5c0 0 7 228 7 297c0 159 -68 125 -58 152c10 32 64 71 120 71c81 0 140 -58 140 -152v-367zM403 644c0 -48 -45 -86 -100 -86c-54 0 -99 38 -99 86s45 86 99 86c55 0 100 -38 100 -86zM630 643c0 -46 -42 -82 -94 -82
s-94 36 -94 82s42 82 94 82s94 -36 94 -82zM260 6c0 -5 -4 -6 -4 -6h-200s-5 1 -5 5c0 0 8 228 8 297c0 159 -68 125 -59 152c11 32 65 71 121 71c81 0 139 -58 139 -152v-367zM176 645c0 -52 -53 -93 -117 -93s-116 41 -116 93c0 51 52 93 116 93s117 -42 117 -93z" />
    <glyph glyph-name="uni0422_afii10103" unicode="&#x422;&#x456;" horiz-adv-x="792" 
d="M762 6c0 -5 -4 -6 -4 -6h-200s-5 1 -5 5c0 0 8 208 8 277c0 159 -68 125 -59 152c11 32 65 71 121 71c81 0 139 -58 139 -152v-347zM773 719c0 0 40 -145 -78 -180c-46 -14 -276 0 -276 0v-339c5 -149 74 -117 64 -144c-11 -34 -77 -76 -136 -76c-79 0 -149 48 -149 165
v408c-63 1 -118 -3 -175 -14c-5 -1 -7 5 -7 5c-1 1 -46 117 61 173c97 51 332 0 623 3c39 0 65 4 65 4s6 0 8 -5z" />
    <glyph glyph-name="afii10072_afii10097" unicode="&#x436;&#x44f;" horiz-adv-x="1416" 
d="M1153 418c-35 0 -65 -22 -65 -68c0 -44 23 -65 67 -65h32v131c-11 1 -23 2 -34 2zM635 303c107 12 128 -97 157 -172l2 -1c34 -111 139 -31 222 81c-70 17 -123 71 -123 143c0 115 126 172 249 172c133 0 243 -23 243 -23s4 0 4 -4v-494c0 -5 -4 -5 -4 -5h-193s-4 0 -4 5
v190c-28 -8 -9 -87 -80 -158c-40 -39 -123 -70 -242 -70c-341 0 -251 253 -319 247v-208c0 -5 -4 -5 -4 -5h-193s-4 0 -4 5v208c-64 -4 -5 -236 -213 -236c-55 0 -104 29 -126 55c-17 20 -15 25 1 33c109 53 109 144 150 197c23 29 53 46 97 40h1c-8 37 -22 86 -58 86
c-37 0 -28 -44 -28 -59s-26 -23 -50 -23c-63 0 -109 39 -109 106c0 66 51 112 124 112c133 0 191 -139 203 -233l8 -3v210c0 4 4 4 4 4h194s3 1 3 -4v-210l7 3c15 61 52 232 203 233c73 0 125 -46 125 -112c0 -67 -46 -106 -110 -106c-24 0 -50 8 -50 23s9 59 -28 59
c-36 0 -52 -49 -60 -86h1z" />
    <glyph glyph-name="afii10084_afii10079" unicode="&#x442;&#x43d;" horiz-adv-x="1027" 
d="M674 353v-38h96v183c0 5 5 5 5 5h192s4 0 4 -5v-296c0 -159 69 -125 59 -153c-10 -31 -64 -68 -120 -68c-81 0 -140 56 -140 150v67h-96v-192c0 -5 -4 -6 -4 -6h-201s-4 1 -4 5c0 0 7 204 8 284c-7 81 -55 119 -134 91v-177c0 -159 68 -125 59 -152
c-11 -32 -63 -71 -119 -71c-80 0 -139 58 -139 152v244l-130 1s-3 0 -3 4l-2 112v7c0 3 1 3 2 4c197 37 447 14 516 0c79 -16 152 -56 151 -151z" />
    <glyph glyph-name="afii10104_afii10104" unicode="&#x457;&#x457;" horiz-adv-x="578" 
d="M264 6c0 -5 -5 -6 -5 -6h-200s-4 1 -4 5c0 0 7 228 7 297c0 159 -68 125 -58 152c10 32 64 71 120 71c81 0 140 -58 140 -152v-367zM150 638c0 -48 -45 -86 -100 -86c-54 0 -99 38 -99 86s45 86 99 86c55 0 100 -38 100 -86zM382 638c0 -48 -44 -86 -99 -86
s-99 38 -99 86s44 86 99 86s99 -38 99 -86zM548 6c0 -5 -5 -6 -5 -6h-200s-4 1 -4 5c0 0 7 228 7 297c0 159 -68 125 -58 152c10 32 64 71 120 71c81 0 140 -58 140 -152v-367zM614 638c0 -48 -44 -86 -99 -86s-99 38 -99 86s44 86 99 86s99 -38 99 -86z" />
    <glyph glyph-name="quotesingle_afii10104" unicode="&#x27;&#x457;" horiz-adv-x="402" 
d="M371 6c0 -5 -5 -6 -5 -6h-200s-4 1 -4 5c0 0 7 228 7 297c0 159 -68 125 -58 152c10 32 64 71 120 71c81 0 140 -58 140 -152v-367zM300 642c0 -47 -41 -85 -91 -85s-91 38 -91 85s41 85 91 85s91 -38 91 -85zM505 644c0 -47 -40 -85 -91 -85c-50 0 -90 38 -90 85
s40 85 90 85c51 0 91 -38 91 -85zM89 652c0 -98 -77 -149 -108 -160c-39 -14 -46 -6 -46 2s7 15 16 23c36 34 38 51 20 57c-34 14 -58 45 -58 84c0 48 39 88 88 88c47 0 88 -40 88 -94z" />
    <glyph glyph-name="afii10093_afii10097" unicode="&#x44b;&#x44f;" horiz-adv-x="1315" 
d="M731 358v-205c2 -137 116 -58 180 58c-70 17 -123 71 -123 143c0 115 126 172 249 172c133 0 243 -23 243 -23s4 0 4 -4v-494c0 -5 -4 -5 -4 -5h-193s-4 0 -4 5v190c-28 -8 -9 -87 -80 -158c-40 -39 -133 -70 -227 -69c-126 1 -249 39 -247 230v126c0 81 -50 74 -70 7
c31 -34 51 -80 51 -134c0 -129 -108 -219 -241 -219c-185 0 -239 125 -239 217v303c0 4 4 5 4 5h193s4 -1 4 -6v-110c24 4 52 7 80 7c37 0 73 -10 104 -28c38 116 118 156 178 156c74 0 137 -65 138 -164zM274 94c41 0 47 54 47 108c0 58 -26 96 -70 96c-7 0 -15 -1 -20 -2
v-122c1 -39 8 -80 43 -80zM1048 418c-35 0 -65 -22 -65 -68c0 -44 23 -65 67 -65h32v131c-11 1 -23 2 -34 2z" />
    <glyph glyph-name="afii10093_afii10077" unicode="&#x44b;&#x43b;" horiz-adv-x="1343" 
d="M1314 499v-493c0 -5 -4 -5 -4 -5h-193s-4 0 -4 5v405h-71c17 -402 -179 -426 -274 -432c-94 -7 -197 16 -228 118c-16 52 -9 141 -12 228c-3 81 -50 74 -70 7c31 -34 51 -80 51 -134c0 -129 -108 -219 -241 -219c-185 0 -239 125 -239 217c0 68 0 304 0 303c0 4 4 5 4 5
h193s4 -1 4 -6v-110c24 4 52 7 80 7c37 0 73 -10 104 -28c38 116 118 156 178 156c75 0 138 -65 138 -165c0 -43 0 -170 1 -214c1 -112 73 -89 109 63c28 117 30 291 30 291c0 4 3 5 4 5c134 30 277 32 437 0c1 0 3 -1 3 -4zM320 203c0 58 -26 96 -70 96c-7 0 -15 -1 -20 -2
v-122c1 -39 8 -80 43 -80c41 0 47 54 47 108z" />
    <glyph glyph-name="afii10093_afii10078" unicode="&#x44b;&#x43c;" horiz-adv-x="1520" 
d="M320 203c0 58 -26 96 -70 96c-7 0 -15 -1 -20 -2v-122c1 -39 8 -80 43 -80c41 0 47 54 47 108zM1490 499c0 -23 8 -494 8 -494c0 -5 -4 -5 -4 -5h-194s-4 0 -4 5c0 0 1 89 1 191l10 108l-127 -295c-2 -6 -4 -8 -13 -8h-25c-6 0 -9 2 -12 8l-100 254
c-27 -214 -110 -274 -262 -284c-94 -7 -197 16 -228 118c-16 52 -9 141 -12 228c-3 81 -50 74 -70 7c31 -34 51 -80 51 -134c0 -129 -108 -219 -241 -219c-185 0 -239 125 -239 217v303c0 4 4 5 4 5h193s4 -1 4 -6v-110c24 4 52 7 80 7c37 0 73 -10 104 -28
c38 116 118 156 178 156c75 0 138 -65 138 -165c0 -43 0 -170 1 -214c1 -86 47 -94 77 -23c46 110 44 388 44 377c0 5 4 5 4 5h206c3 0 5 -4 5 -4l90 -187h3l98 188s1 3 5 3h224s3 0 3 -4z" />
    <glyph glyph-name="f_r" unicode="fr" horiz-adv-x="785" 
d="M682 524c63 0 111 -40 111 -112c0 -83 -57 -129 -125 -129c-24 0 -47 14 -50 20c-6 9 -2 16 -2 36c0 31 -6 44 -21 44c-29 0 -34 -51 -34 -113c0 -113 4 -265 4 -265c0 -5 -4 -5 -4 -5h-201s-4 0 -4 5c0 0 1 74 2 302c0 87 -28 102 -93 103l-1 -1v-403c0 -5 -4 -6 -4 -6
h-193s-4 1 -4 5v404h-56s-4 0 -4 5v85c0 4 4 4 4 4h57c-24 182 106 240 220 240c119 0 186 -64 186 -127c1 -48 -37 -88 -92 -88c-34 0 -68 11 -72 17c-5 9 7 21 7 56c0 25 -8 60 -38 60c-78 0 -30 -125 -16 -158l148 1c71 0 117 -32 141 -87h1c13 70 84 107 133 107z" />
    <glyph glyph-name=".notdef" horiz-adv-x="249" 
 />
    <glyph glyph-name="space" unicode=" " horiz-adv-x="249" 
 />
    <glyph glyph-name="exclam" unicode="!" horiz-adv-x="266" 
d="M244 80c0 -55 -44 -99 -98 -99s-98 44 -98 99c0 54 44 98 98 98s98 -44 98 -98zM256 598c0 -127 -33 -379 -114 -379c-71 0 -85 225 -87 309c-4 158 -68 125 -59 152c11 31 65 71 121 71c81 0 139 -58 139 -153z" />
    <glyph glyph-name="quotedbl" unicode="&#x22;" horiz-adv-x="395" 
d="M191 637c0 -98 -54 -209 -88 -209s-88 112 -88 209c0 152 176 152 176 0zM380 637c0 -98 -54 -209 -88 -209s-88 112 -88 209c0 152 176 152 176 0z" />
    <glyph glyph-name="numbersign" unicode="#" horiz-adv-x="590" 
d="M581 375c4 0 3 -4 3 -4l-21 -65s-2 -4 -7 -4h-128l-33 -98h133c4 0 3 -4 3 -4l-21 -65s-2 -4 -7 -4h-132l-43 -127c-1 -5 -5 -4 -5 -4h-66s-4 -1 -2 3c3 11 20 62 42 128c-30 0 -62 0 -93 1c-21 -63 -38 -113 -42 -128c-2 -5 -5 -4 -5 -4h-67s-3 -1 -2 3
c4 11 21 63 43 129h-122c-5 0 -3 4 -3 4l22 66s1 3 5 3h122c11 32 23 66 33 98h-126c-5 0 -3 4 -3 4l22 66s1 4 5 4c10 0 61 0 127 -1l41 123c1 4 6 5 6 5h65s4 0 2 -5l-41 -123h93l42 123c1 4 5 5 5 5h65s4 0 3 -5l-41 -124h128zM322 204l33 98c-31 1 -63 1 -94 1
c-10 -32 -21 -66 -32 -98c30 0 62 0 93 -1z" />
    <glyph glyph-name="dollar" unicode="$" horiz-adv-x="500" 
d="M490 141c0 -91 -80 -138 -166 -155c5 -44 9 -62 9 -62c1 -4 -3 -5 -3 -5l-59 -3s-5 0 -5 5c0 0 2 18 2 58c-10 -1 -20 -1 -29 -1h-16c0 -41 2 -57 2 -57c0 -5 -4 -5 -4 -5l-59 3s-5 0 -4 5l7 60c-76 14 -155 50 -155 124c0 49 38 91 94 91c33 0 69 -9 73 -17
c6 -9 2 -22 2 -41c0 -40 25 -61 58 -61c36 0 51 18 52 45c-2 48 -67 59 -138 83c-67 24 -132 71 -133 150v3c0 80 71 133 149 154c-5 47 -9 66 -9 66c-1 5 4 6 4 6l59 3s4 0 4 -5c0 0 -2 -19 -2 -61h14c11 0 21 0 32 -1c-1 44 -3 62 -3 62c0 4 4 5 4 5l59 -3s5 0 4 -5
c0 0 -4 -29 -8 -67c78 -16 141 -56 141 -121c1 -48 -33 -87 -94 -87c-33 0 -66 11 -70 18c-5 8 -1 21 -1 41c0 40 -17 58 -50 57c-30 -1 -45 -28 -45 -47v0v0c0 -49 57 -62 125 -82c77 -23 159 -62 159 -153z" />
    <glyph glyph-name="percent" unicode="%" horiz-adv-x="740" 
d="M593 517c0 0 4 0 1 -4c-172 -328 -184 -356 -184 -400c0 -47 24 -76 16 -89c-105 -95 -259 -16 -193 141l137 277h-80c8 -18 13 -38 13 -60c0 -76 -54 -136 -150 -136c-93 0 -149 60 -149 136s57 137 149 137zM586 255c97 0 150 -61 150 -137s-54 -136 -150 -136
c-93 0 -149 60 -149 136s57 137 149 137zM153 321c21 0 29 23 29 61c0 34 -8 61 -29 61c-20 0 -27 -20 -27 -61c0 -39 7 -61 27 -61zM586 57c21 0 29 23 29 61c0 34 -8 61 -29 61c-20 0 -27 -20 -27 -61c0 -39 7 -61 27 -61z" />
    <glyph glyph-name="ampersand" unicode="&#x26;" 
d="M604 90c16 0 18 -13 12 -26c-26 -54 -75 -91 -145 -91c-72 0 -107 41 -124 83c-90 -125 -342 -109 -342 70c0 81 53 119 122 137c-51 14 -92 44 -92 106c0 121 144 155 250 155c83 0 223 -26 223 -125c1 -49 -49 -73 -103 -73c-32 0 -66 10 -71 17c-5 9 -1 6 -1 26
c0 40 -22 53 -56 53c-36 0 -54 -28 -54 -57c0 -24 15 -59 55 -59h3h1h331s3 0 3 -5v-91c0 -5 -4 -5 -4 -5h-105v-4c0 -18 0 -34 2 -48c8 -60 57 -63 95 -63zM262 86c38 2 70 45 65 118v0h-38c-56 0 -74 -43 -74 -68c0 -28 12 -53 47 -50z" />
    <glyph glyph-name="quotesingle" unicode="'" horiz-adv-x="206" 
d="M191 657c0 -98 -77 -149 -108 -160c-39 -14 -46 -6 -46 2s7 15 16 23c36 34 38 51 20 57c-34 14 -58 45 -58 84c0 48 39 88 88 88c47 0 88 -40 88 -94z" />
    <glyph glyph-name="parenleft" unicode="(" horiz-adv-x="216" 
d="M148 273c0 -276 56 -431 56 -431c5 -22 -5 -26 -22 -6c0 0 -172 154 -172 440c0 297 172 453 172 453c16 19 28 18 22 -6c0 0 -56 -151 -56 -450z" />
    <glyph glyph-name="parenright" unicode=")" horiz-adv-x="236" 
d="M78 273c0 299 -56 450 -56 450c-6 24 6 25 22 6c0 0 172 -156 172 -453c0 -286 -172 -430 -172 -430c-17 -20 -27 -16 -22 6c0 0 56 145 56 421z" />
    <glyph glyph-name="asterisk" unicode="*" horiz-adv-x="358" 
d="M272 655c79 26 108 -65 30 -91c-20 -6 -43 -9 -63 -8c16 -12 33 -27 46 -44c48 -67 -29 -123 -78 -56c-13 18 -22 39 -28 60c-6 -21 -16 -42 -28 -60c-49 -67 -126 -11 -78 56c13 17 29 32 46 44c-20 -1 -43 2 -63 8c-78 26 -49 117 30 91c21 -7 41 -19 58 -32
c-7 20 -13 44 -13 66c0 83 96 83 96 0c0 -22 -5 -45 -12 -65c16 13 36 24 57 31z" />
    <glyph glyph-name="plus" unicode="+" horiz-adv-x="467" 
d="M439 301c5 0 5 -4 5 -4v-86s0 -3 -4 -3c-36 0 -95 -1 -159 0v-158c0 -5 -3 -5 -3 -5h-89s-4 0 -4 4v159h-157c-5 0 -5 4 -5 4v84s0 5 5 5h157c1 86 1 157 1 157c0 5 4 5 4 5h87s4 0 4 -5v-157h158z" />
    <glyph glyph-name="comma" unicode="," horiz-adv-x="226" 
d="M211 74c0 -110 -86 -167 -120 -179c-44 -15 -51 -7 -51 3c0 8 7 16 17 25c40 38 43 57 23 64c-38 15 -65 50 -65 93c0 54 44 98 98 98c53 0 98 -44 98 -104z" />
    <glyph glyph-name="hyphen" unicode="-" horiz-adv-x="368" 
d="M337 297v-88s0 -3 -4 -3c-108 -1 -298 0 -298 0c-4 0 -5 4 -5 4v86s1 5 6 5h297c5 0 4 -4 4 -4z" />
    <glyph glyph-name="period" unicode="." horiz-adv-x="226" 
d="M211 80c0 -54 -44 -98 -98 -98s-98 44 -98 98s44 98 98 98s98 -44 98 -98z" />
    <glyph glyph-name="slash" unicode="/" horiz-adv-x="407" 
d="M95 -171c-2 -5 -6 -4 -6 -4h-85s-4 -1 -3 4l303 890c1 5 6 5 6 5h84s4 0 2 -5c0 0 -285 -839 -301 -890z" />
    <glyph glyph-name="zero" unicode="0" horiz-adv-x="549" 
d="M534 278c0 -150 -84 -301 -262 -301c-173 0 -260 151 -260 301c0 149 87 300 260 300c172 0 262 -151 262 -300zM208 278c0 -83 8 -196 64 -196c61 0 66 109 66 196c0 86 -7 196 -66 196c-57 0 -64 -109 -64 -196z" />
    <glyph glyph-name="one" unicode="1" horiz-adv-x="274" 
d="M241 580c0 0 3 0 3 -5v-570c0 -5 -4 -5 -4 -5h-193s-4 0 -4 5v400c0 90 -32 97 -36 108c-5 10 4 16 23 20z" />
    <glyph glyph-name="two" unicode="2" horiz-adv-x="495" 
d="M473 151v-147s1 -4 -4 -4h-439c-5 0 -5 4 -5 4v146s0 3 3 4c87 35 259 188 259 264c0 29 -12 58 -49 58c-33 0 -59 -22 -59 -62c0 -20 4 -33 -1 -41s-40 -18 -73 -18c-57 0 -95 43 -94 91c0 101 142 132 228 132c111 0 248 -45 248 -158c0 -148 -274 -265 -274 -265
l-3 -1c102 1 200 1 259 1c4 0 4 -4 4 -4z" />
    <glyph glyph-name="three" unicode="3" horiz-adv-x="498" 
d="M318 319c81 -12 170 -61 170 -159c0 -139 -139 -183 -249 -183c-78 0 -229 28 -229 131c0 53 38 93 94 93c34 0 69 -11 74 -19c5 -10 1 -24 1 -46c0 -39 23 -56 53 -56c34 0 61 32 61 69c0 35 -16 90 -105 90h-34s-4 0 -4 5v80c0 3 1 4 2 4l138 73h-252c-4 0 -4 4 -4 4
v146s0 4 5 4h430c5 0 5 -3 5 -3v-147s0 -3 -2 -4l-153 -81z" />
    <glyph glyph-name="four" unicode="4" horiz-adv-x="516" 
d="M502 223c5 0 5 -4 5 -4v-142s0 -4 -5 -4h-59v-70c0 -5 -4 -5 -4 -5h-186s-5 0 -4 5c0 0 0 28 -1 70h-232c-5 0 -5 4 -5 4v135s0 2 1 3c168 151 244 325 249 338v1c1 2 4 2 4 2h174s4 0 4 -5v-261v-67h59zM250 224v125c-11 -15 -51 -74 -95 -125h95z" />
    <glyph glyph-name="five" unicode="5" horiz-adv-x="499" 
d="M156 337c188 35 333 -33 333 -177c0 -139 -135 -183 -245 -183c-79 0 -229 28 -229 131c0 53 38 93 94 93c33 0 69 -11 73 -19c6 -10 2 -24 2 -46c0 -39 23 -56 53 -56c33 0 57 32 57 69c0 68 -42 112 -243 90h-6s-4 0 -4 5v48v113v39v107s0 4 5 4h417c5 0 4 -3 4 -3
v-147s0 -4 -4 -4h-307v-64z" />
    <glyph glyph-name="six" unicode="6" horiz-adv-x="513" 
d="M211 336c188 54 294 -50 293 -160c-1 -164 -164 -198 -229 -198c-169 2 -263 138 -262 304c2 166 103 300 264 298c123 -1 200 -75 200 -131c0 -47 -30 -86 -92 -85c-33 0 -66 12 -69 18c-5 9 -1 22 -1 40c0 30 -8 57 -39 57c-50 1 -64 -68 -65 -143zM270 88
c46 0 54 73 53 94c-2 50 -29 88 -112 68c0 -83 13 -162 59 -162z" />
    <glyph glyph-name="seven" unicode="7" horiz-adv-x="450" 
d="M443 552v-147s0 -3 -2 -4c0 0 -163 -94 -165 -233c0 -22 1 -46 14 -69c23 -41 55 -32 49 -51c-11 -31 -65 -71 -121 -71c-78 0 -147 53 -147 153c0 142 154 238 216 271h-279c-5 0 -5 4 -5 4v146s0 4 5 4h430c5 0 5 -3 5 -3z" />
    <glyph glyph-name="eight" unicode="8" horiz-adv-x="530" 
d="M402 287c61 -19 113 -62 113 -130c0 -135 -127 -180 -245 -180h-10c-118 0 -245 45 -245 180c0 68 52 111 113 130c-59 15 -99 61 -99 125c0 123 113 167 231 167h10c118 0 231 -48 231 -167c0 -64 -41 -110 -99 -125zM264 89c33 0 55 29 55 76c0 38 -22 80 -55 80
c-32 0 -54 -42 -54 -80c0 -47 22 -76 54 -76zM264 327c33 0 54 40 54 75c0 41 -21 72 -54 72c-32 0 -54 -32 -54 -72c0 -35 22 -75 54 -75z" />
    <glyph glyph-name="nine" unicode="9" horiz-adv-x="510" 
d="M236 578c169 0 259 -135 259 -303c0 -187 -97 -298 -259 -298c-111 0 -198 53 -202 122c-2 48 29 99 90 99c34 1 67 -11 71 -17c5 -9 1 -22 1 -41c0 -29 9 -60 44 -60c49 0 58 74 58 148c-175 -62 -287 42 -287 153c-1 166 146 197 225 197zM297 319
c4 83 -10 142 -62 141c-45 -1 -53 -61 -51 -83c3 -51 31 -80 113 -58z" />
    <glyph glyph-name="colon" unicode=":" horiz-adv-x="226" 
d="M211 347c0 -54 -44 -98 -98 -98s-98 44 -98 98s44 98 98 98s98 -44 98 -98zM211 80c0 -54 -44 -98 -98 -98s-98 44 -98 98s44 98 98 98s98 -44 98 -98z" />
    <glyph glyph-name="semicolon" unicode=";" horiz-adv-x="226" 
d="M211 347c0 -54 -44 -98 -98 -98s-98 44 -98 98s44 98 98 98s98 -44 98 -98zM211 74c0 -110 -86 -167 -120 -179c-44 -15 -51 -7 -51 3c0 8 7 16 17 25c40 38 43 57 23 64c-38 15 -65 50 -65 93c0 54 44 98 98 98c53 0 98 -44 98 -104z" />
    <glyph glyph-name="equal" unicode="=" horiz-adv-x="500" 
d="M466 372v-88s0 -3 -4 -3c-108 -1 -428 0 -428 0c-4 0 -5 4 -5 4v86s1 5 6 5h427c5 0 4 -4 4 -4zM466 202v-88s0 -3 -4 -3c-108 -1 -428 0 -428 0c-4 0 -5 4 -5 4v86s1 5 6 5h427c5 0 4 -4 4 -4z" />
    <glyph glyph-name="question" unicode="?" horiz-adv-x="299" 
d="M243 80c0 -55 -44 -99 -98 -99s-98 44 -98 99c0 54 44 98 98 98s98 -44 98 -98zM252 371c-31 -58 -59 -152 -111 -152c-45 0 -80 87 -73 155c10 100 106 158 107 226c1 18 -5 50 -36 50c-32 0 -36 -37 -37 -65c0 -18 4 -41 -1 -49c-4 -6 -42 -17 -75 -18
c-62 0 -91 37 -90 83c1 70 84 147 212 147c141 0 216 -86 216 -161c0 -78 -62 -123 -112 -216z" />
    <glyph glyph-name="at" unicode="@" horiz-adv-x="719" 
d="M512 60c-82 0 -110 68 -115 81c-23 -45 -61 -78 -109 -78c-87 0 -135 96 -135 189c0 95 47 187 138 187c48 0 82 -27 104 -66v48c0 4 3 4 3 4h139s3 0 3 -3c0 0 -6 -209 -5 -214c3 -26 16 -44 39 -44c35 0 63 50 63 112c0 120 -83 260 -276 260
c-173 0 -279 -145 -279 -288c0 -205 163 -281 279 -281c140 0 194 49 200 34c3 -9 -38 -96 -203 -96c-197 0 -348 155 -348 346s151 346 348 346s353 -127 350 -323c-2 -134 -105 -214 -196 -214zM347 158c34 0 52 42 52 94s-18 94 -52 94s-52 -42 -52 -94s18 -94 52 -94z
" />
    <glyph glyph-name="A" unicode="A" horiz-adv-x="689" 
d="M683 5c2 -5 -3 -5 -3 -5h-226s-5 0 -6 5l-25 106h-177c-12 -63 -22 -106 -22 -106c-2 -5 -7 -5 -7 -5h-209s-5 0 -2 5c0 0 172 538 172 539c41 105 -13 107 -5 130c13 39 85 69 143 69c73 0 147 -48 186 -157c42 -118 181 -581 181 -581zM274 246h117l-59 290
c-18 -73 -39 -199 -58 -290z" />
    <glyph glyph-name="B" unicode="B" horiz-adv-x="645" 
d="M502 411c-3 -2 -3 -5 1 -6c89 -31 132 -111 132 -181c0 -176 -153 -246 -314 -246c-224 0 -291 165 -291 291c0 92 0 432 0 431c0 5 4 6 5 6c0 0 107 31 268 31c127 0 282 -38 282 -180c0 -69 -45 -131 -83 -146zM378 541c0 90 -80 96 -129 84v-189c94 0 129 52 129 105z
M335 98c55 0 87 42 87 107c0 91 -80 139 -173 121v-129c2 -49 22 -99 86 -99z" />
    <glyph glyph-name="C" unicode="C" horiz-adv-x="642" 
d="M623 198c20 17 22 1 16 -23c-9 -39 -74 -192 -280 -196c-198 -4 -349 176 -349 382c0 199 141 375 350 376c157 2 267 -75 267 -183c0 -53 -39 -114 -111 -114c-44 0 -79 16 -77 36c9 65 -7 135 -74 135c-91 0 -138 -157 -125 -258c32 -258 259 -266 383 -155z" />
    <glyph glyph-name="D" unicode="D" horiz-adv-x="657" 
d="M649 356c0 -210 -125 -379 -360 -379c-164 0 -254 30 -254 30c-1 0 -5 1 -5 6v686c0 5 4 6 5 6c0 0 90 28 254 28c218 0 360 -167 360 -377zM250 624v-537c124 -6 178 133 178 274c0 121 -52 282 -178 263z" />
    <glyph glyph-name="E" unicode="E" horiz-adv-x="541" 
d="M511 171c20 13 28 0 24 -24c-8 -51 -86 -169 -249 -169c-171 0 -256 133 -256 272l1 461c0 5 6 5 6 5h477s6 0 8 -5c0 0 39 -119 -76 -165c-73 -29 -192 -2 -192 -2c0 -20 -1 -81 -1 -132h165s6 0 5 -5v-100c0 -5 -6 -5 -6 -5h-165v-72c4 -130 189 -104 259 -59z" />
    <glyph glyph-name="F" unicode="F" horiz-adv-x="527" 
d="M512 715c0 0 6 0 8 -5c0 0 40 -116 -76 -165c-75 -31 -192 -2 -192 -2c0 -22 -1 -72 -1 -126h163s7 0 6 -6v-106c0 -5 -7 -5 -7 -5h-163v-89c5 -158 76 -124 66 -152c-12 -36 -74 -81 -134 -81c-81 0 -152 51 -152 175c0 126 1 557 1 557c0 5 5 5 5 5h476z" />
    <glyph glyph-name="G" unicode="G" horiz-adv-x="657" 
d="M522 375c81 0 130 -58 130 -152c0 -10 -1 -86 -8 -142c0 -5 -3 -10 -6 -12c-27 -19 -110 -90 -274 -90c-199 0 -350 176 -350 383c0 200 141 376 351 377c158 2 268 -75 268 -183c0 -54 -39 -115 -111 -115c-45 0 -80 16 -78 36c9 65 -7 136 -74 136
c-91 0 -132 -157 -125 -259c4 -57 27 -232 193 -226c15 169 -48 149 -38 176c12 32 65 71 122 71z" />
    <glyph glyph-name="H" unicode="H" horiz-adv-x="687" 
d="M656 714c0 0 5 0 4 -5l-1 -704c0 -5 -5 -5 -5 -5h-207s-5 0 -4 5l2 288h-176l1 -288c0 -5 -5 -5 -5 -5h-206s-5 0 -4 5c0 0 2 546 2 547c-11 119 -70 92 -61 117c11 33 75 74 133 74c75 0 143 -47 143 -161c0 -30 -1 -103 -1 -145h174l-2 272c0 5 5 5 5 5h208z" />
    <glyph glyph-name="I" unicode="I" horiz-adv-x="311" 
d="M133 739c78 0 148 -46 148 -160v-574c0 -5 -5 -5 -5 -5h-213s-5 0 -4 5c-1 478 0 542 0 543c-11 119 -72 92 -63 118c12 33 78 73 137 73z" />
    <glyph glyph-name="J" unicode="J" horiz-adv-x="468" 
d="M295 739c78 0 143 -46 143 -160c0 -23 -1 -49 -1 -281c0 -230 -91 -318 -237 -318c-129 0 -195 68 -195 136c0 52 42 105 101 105c37 0 77 -11 80 -18c5 -10 -7 -32 -7 -71c0 -28 4 -64 35 -64c27 0 43 22 43 61c0 70 -37 99 -37 177v250c-5 106 -71 84 -62 110
c12 33 78 73 137 73z" />
    <glyph glyph-name="K" unicode="K" horiz-adv-x="692" 
d="M681 105c17 -6 -12 -114 -107 -125c-142 -16 -213 82 -247 229c-7 28 -14 77 -18 104c-8 -2 -20 -3 -28 -4v-304c0 -5 -5 -5 -5 -5h-213s-5 0 -4 5c-1 478 0 542 0 543c-11 119 -72 92 -63 118c12 33 78 73 137 73c78 0 148 -46 148 -160v-163c108 0 157 173 80 261
c-13 14 47 62 113 62c84 0 142 -71 142 -154c0 -102 -56 -171 -150 -220c2 -8 56 -200 215 -260z" />
    <glyph glyph-name="L" unicode="L" horiz-adv-x="529" 
d="M527 143c17 -138 -109 -180 -223 -164c-63 8 -139 21 -241 21c0 0 -5 0 -4 5c-1 478 0 542 0 543c-11 119 -72 92 -63 118c12 33 78 73 137 73c78 0 148 -46 148 -160v-423h17c210 0 186 50 204 36c13 -10 23 -31 25 -49z" />
    <glyph glyph-name="M" unicode="M" horiz-adv-x="841" 
d="M433 401l172 308c2 4 7 5 7 5h193s6 0 5 -5l3 -704c0 -5 -6 -5 -6 -5h-204s-6 0 -5 5l3 320l19 103c-12 -21 -157 -298 -157 -298c-2 -4 -6 -4 -13 -4h-28c-12 0 -12 0 -14 4l-164 301l19 -93l6 -333c0 -5 -5 -5 -5 -5h-211s-6 0 -5 5c0 0 7 546 7 547
c-5 115 -68 92 -58 117c12 33 85 74 151 74c95 0 139 -71 185 -151c50 -86 100 -191 100 -191z" />
    <glyph glyph-name="N" unicode="N" horiz-adv-x="696" 
d="M668 710l-3 -705c1 -5 -5 -5 -5 -5h-184s-4 -1 -7 5l-212 417l9 -83l9 -334c0 -5 -5 -5 -5 -5h-214s-6 0 -5 5c0 0 6 546 6 547c-5 115 -70 92 -60 117c12 33 80 74 146 74c80 0 121 -56 169 -127c49 -84 110 -191 154 -286l-10 96l-5 284c-2 5 4 5 4 5h208s5 0 5 -5z
" />
    <glyph glyph-name="O" unicode="O" horiz-adv-x="710" 
d="M703 357c0 -205 -132 -378 -347 -378c-210 0 -346 173 -346 378c0 204 136 380 346 380c211 0 347 -176 347 -380zM236 357c0 -114 45 -266 120 -266c78 0 121 147 121 266c0 118 -45 268 -121 268s-120 -150 -120 -268z" />
    <glyph glyph-name="P" unicode="P" horiz-adv-x="588" 
d="M26 152l1 547c0 5 5 5 5 5s112 35 263 30c154 -5 286 -82 286 -229c0 -107 -65 -258 -335 -247v-48c5 -158 75 -124 65 -152c-12 -36 -74 -81 -134 -81c-81 0 -151 51 -151 175zM373 507c0 75 -52 131 -127 119v-265c80 0 127 73 127 146z" />
    <glyph glyph-name="Q" unicode="Q" horiz-adv-x="693" 
d="M717 -45c5 -75 -56 -133 -122 -138c-112 -7 -158 79 -190 167c-19 -3 -38 -4 -59 -4c-210 0 -336 174 -336 378s126 379 336 379c211 0 338 -175 338 -379c0 -141 -58 -273 -165 -334c14 -20 27 -32 43 -32c33 0 63 21 81 63c3 7 6 10 11 9c11 -2 57 -31 63 -109z
M346 624c-76 0 -109 -149 -109 -266c0 -48 5 -127 18 -167c73 22 126 -5 166 -47c24 45 36 144 36 214c0 117 -33 266 -111 266zM346 92c3 0 6 0 9 1c-20 34 -43 55 -80 48c18 -30 41 -49 71 -49z" />
    <glyph glyph-name="R" unicode="R" horiz-adv-x="634" 
d="M631 99c10 -3 -12 -110 -107 -121c-157 -18 -232 123 -246 296h-29v-268c0 -6 -4 -6 -4 -6h-210s-5 0 -5 6v692c0 5 5 5 5 5s112 35 263 30c154 -5 283 -82 283 -229c0 -77 -40 -173 -140 -214c38 -90 105 -152 190 -191zM249 625v-248c80 0 124 66 124 139
c0 75 -49 121 -124 109z" />
    <glyph glyph-name="S" unicode="S" horiz-adv-x="637" 
d="M412 407c102 -31 220 -87 220 -210c0 -166 -184 -219 -330 -219c-113 0 -286 35 -296 171c-4 57 42 114 110 114c42 0 92 -18 99 -28c5 -7 -3 -27 -3 -52c2 -130 181 -126 184 -15c0 71 -100 96 -193 137c-83 37 -185 74 -191 196c-7 140 149 234 288 237
c159 4 292 -56 292 -176c1 -67 -34 -114 -114 -114c-45 0 -80 15 -85 24c-3 6 3 38 4 65c6 108 -153 113 -161 14c0 -73 87 -117 176 -144z" />
    <glyph glyph-name="T" unicode="T" horiz-adv-x="636" 
d="M623 716c0 0 43 -140 -75 -175c-46 -14 -135 -2 -135 -2l6 -339c5 -149 74 -117 64 -144c-11 -34 -77 -76 -136 -76c-79 0 -149 48 -149 165l7 408c-63 1 -125 -3 -182 -14c-5 -1 -7 5 -7 5c-1 1 -46 116 61 172c97 51 195 8 473 4c39 0 65 1 65 1s6 0 8 -5z" />
    <glyph glyph-name="U" unicode="U" horiz-adv-x="698" 
d="M668 710c-1 -105 -3 -357 -2 -463c3 -357 -599 -358 -599 -3v1v256c0 168 -80 132 -71 160c12 34 69 75 128 75c86 0 163 -61 163 -160v-383v-2c0 -111 153 -114 153 1v517c0 5 4 6 4 6h220s4 -1 4 -5z" />
    <glyph glyph-name="V" unicode="V" horiz-adv-x="664" 
d="M479 746c97 0 179 -93 179 -329c0 -204 -68 -439 -321 -439c-148 0 -307 90 -307 304c1 0 1 17 1 427c0 5 6 7 6 7h216s4 -2 4 -8v-462c0 -77 25 -133 77 -133c53 0 104 69 104 226c0 246 -104 273 -104 302c0 27 53 105 145 105z" />
    <glyph glyph-name="W" unicode="W" horiz-adv-x="1001" 
d="M809 746c97 0 179 -93 179 -329c0 -204 -65 -438 -318 -438c-83 0 -157 27 -208 98c-41 -74 -116 -97 -191 -97c-154 0 -241 137 -241 298v431c0 6 5 7 5 7h214s7 -1 7 -8v-507c0 -131 137 -116 137 17v491c0 6 4 7 4 7h209s4 -2 4 -8v-478c0 -77 16 -127 68 -127
c53 0 90 79 90 236c0 246 -104 273 -104 302c0 27 53 105 145 105z" />
    <glyph glyph-name="X" unicode="X" horiz-adv-x="708" 
d="M700 5c0 0 4 -5 -2 -5h-270c-5 0 -7 5 -7 5l-140 264c-88 -68 -11 -176 10 -196c10 -13 -31 -95 -123 -95c-87 0 -159 71 -165 159c-6 103 82 208 219 249l-202 323s-3 7 5 7h253c5 0 8 -6 8 -6l136 -265c96 60 20 198 -3 218c-8 7 12 69 103 77c99 9 171 -60 180 -149
c10 -105 -78 -211 -217 -254z" />
    <glyph glyph-name="Y" unicode="Y" horiz-adv-x="668" 
d="M664 615c0 -165 -134 -260 -223 -322v-85c5 -158 76 -124 66 -152c-12 -36 -74 -79 -134 -79c-81 0 -152 49 -152 173c0 67 0 103 -1 150l-219 408c-3 6 4 8 4 8h240s5 0 7 -6l123 -305c84 129 50 286 50 297c-2 43 233 97 239 -87z" />
    <glyph glyph-name="Z" unicode="Z" horiz-adv-x="611" 
d="M604 143c17 -138 -109 -180 -223 -164c-63 8 -249 21 -351 21c0 0 -5 0 -4 5v141c0 8 1 13 9 22c30 37 133 192 208 283c42 50 120 92 120 93c-151 9 -238 -2 -340 -22c-4 -1 -7 5 -7 5c-1 1 -46 126 62 182c100 53 203 1 510 1c3 0 6 0 8 -5l-1 -145
c0 -10 -7 -18 -7 -18c-183 -239 -176 -250 -243 -324c-15 -17 -77 -62 -77 -62h107c196 0 186 50 204 36c13 -10 23 -31 25 -49z" />
    <glyph glyph-name="bracketleft" unicode="[" horiz-adv-x="305" 
d="M280 -92c5 0 4 -3 4 -3v-81s1 -4 -3 -4c-36 0 -246 1 -246 1c-4 -1 -5 4 -5 4v895s1 5 6 5h244c5 0 4 -4 4 -4v-81s1 -4 -3 -4c-19 0 -89 0 -155 1v-729h154z" />
    <glyph glyph-name="backslash" unicode="\" horiz-adv-x="407" 
d="M303 -171c-16 51 -301 890 -301 890c-2 5 2 5 2 5h84s5 0 6 -5l303 -890c1 -5 -3 -4 -3 -4h-85s-4 -1 -6 4z" />
    <glyph glyph-name="bracketright" unicode="]" horiz-adv-x="291" 
d="M22 -92h154v729c-66 -1 -136 -1 -155 -1c-4 0 -3 4 -3 4v81s-1 4 4 4h244c5 0 6 -5 6 -5v-895s-1 -5 -5 -4c0 0 -210 -1 -246 -1c-4 0 -3 4 -3 4v81s-1 3 4 3z" />
    <glyph glyph-name="underscore" unicode="_" horiz-adv-x="476" 
d="M452 -5v-88s0 -3 -4 -3c-108 -1 -418 0 -418 0c-4 0 -5 4 -5 4v86s1 5 6 5h417c5 0 4 -4 4 -4z" />
    <glyph glyph-name="grave" unicode="`" horiz-adv-x="272" 
d="M4 735c-1 2 -1 6 2 8c32 38 76 66 129 79c3 1 5 0 6 -2c23 -93 56 -143 126 -213c2 -2 3 -5 1 -7c-11 -19 -23 -35 -41 -49c-2 -1 -5 0 -8 1c-103 36 -171 97 -215 183z" />
    <glyph glyph-name="a" unicode="a" horiz-adv-x="617" 
d="M562 201c0 -159 68 -125 58 -152c-10 -32 -64 -71 -120 -71c-69 0 -123 43 -136 114c-34 -65 -88 -113 -158 -113c-126 0 -196 139 -196 273c0 137 70 271 201 271c69 0 118 -39 149 -95v69c0 5 5 6 5 6h200s4 -1 4 -5c0 0 -7 -228 -7 -297zM291 117c49 0 75 60 75 135
s-26 136 -75 136s-75 -61 -75 -136s26 -135 75 -135z" />
    <glyph glyph-name="b" unicode="b" horiz-adv-x="591" 
d="M386 525c126 0 195 -139 195 -273c0 -137 -69 -271 -200 -271c-69 0 -118 39 -149 95v-70c0 -5 -5 -6 -5 -6h-193s-4 1 -4 5v709c0 4 4 4 4 4h194s4 1 4 -4v-296c33 62 86 107 154 107zM301 116c49 0 75 61 75 136s-26 135 -75 135s-75 -60 -75 -135s26 -136 75 -136z
" />
    <glyph glyph-name="c" unicode="c" horiz-adv-x="521" 
d="M512 155c3 -3 5 -7 3 -16c-12 -42 -86 -160 -232 -160c-152 0 -273 122 -273 273c0 146 112 265 265 272v0c112 0 224 -45 224 -140c1 -48 -38 -100 -97 -100c-33 0 -66 11 -70 17c-5 9 -1 21 -1 41c0 41 -20 69 -48 69c-54 0 -80 -85 -73 -159c16 -179 186 -159 288 -98
c4 3 10 4 14 1z" />
    <glyph glyph-name="d" unicode="d" horiz-adv-x="607" 
d="M559 202c0 -159 61 -125 51 -152c-10 -32 -64 -71 -120 -71c-69 0 -122 43 -136 114c-34 -66 -88 -114 -158 -114c-126 0 -196 139 -196 273c0 137 69 271 201 271c69 0 118 -39 149 -95v286c0 5 5 5 5 5h200s4 0 4 -4v-513zM281 117c49 0 75 60 75 135s-26 136 -75 136
s-76 -61 -76 -136s27 -135 76 -135z" />
    <glyph glyph-name="e" unicode="e" horiz-adv-x="540" 
d="M519 155c4 -3 6 -7 3 -16c-11 -42 -94 -160 -240 -160c-151 0 -272 122 -272 273c0 146 113 272 285 272c164 0 235 -103 235 -174c0 -157 -183 -176 -314 -154c35 -100 168 -110 290 -42c4 3 9 4 13 1zM260 401c-33 -20 -48 -68 -52 -117c89 -8 133 25 133 79
c0 27 -22 50 -53 48c0 0 0 -1 -1 -1v0h-3c-7 -1 -16 -4 -24 -9v0z" />
    <glyph glyph-name="f" unicode="f" horiz-adv-x="409" 
d="M308 555c-5 9 7 21 7 56c0 25 -8 52 -38 52c-78 0 -30 -127 -16 -160h138s4 0 4 -5v-84c0 -5 -4 -5 -4 -5h-133v-403c0 -5 -4 -6 -4 -6h-193s-4 1 -4 5v404h-56s-4 0 -4 5v85c0 4 4 4 4 4h57c-9 182 106 240 220 240c119 0 186 -54 186 -117c1 -48 -37 -89 -92 -89
c-34 0 -68 12 -72 18z" />
    <glyph glyph-name="g" unicode="g" horiz-adv-x="596" 
d="M565 56c6 -173 -91 -297 -276 -297c-146 0 -212 98 -225 136c-15 49 -6 58 5 56c24 -4 53 -78 165 -78c80 0 126 64 129 124v89c-33 -63 -88 -104 -157 -104c-126 0 -196 136 -196 270c0 137 69 271 201 271c69 0 119 -40 150 -97v71c0 5 4 5 4 5h193s4 0 4 -5
c0 0 3 -319 3 -441v0zM291 120c48 0 75 57 75 132s-27 136 -75 136c-49 0 -76 -61 -76 -136s27 -132 76 -132z" />
    <glyph glyph-name="h" unicode="h" horiz-adv-x="601" 
d="M538 204c0 -159 76 -125 67 -153c-11 -31 -65 -70 -121 -70c-81 0 -147 58 -147 152v194c0 100 -102 65 -103 -53v-268c0 -5 -4 -6 -4 -6h-193s-4 1 -4 5c0 0 -3 602 -3 710c0 4 4 4 4 4h197s3 1 3 -4v-302c44 82 115 112 167 112c74 0 137 -65 137 -165v-156z" />
    <glyph glyph-name="i" unicode="i" horiz-adv-x="286" 
d="M256 6c0 -5 -4 -6 -4 -6h-200s-5 1 -5 5c0 0 8 228 8 297c0 159 -68 125 -59 152c11 32 65 71 121 71c81 0 139 -58 139 -152v-367zM249 645c0 -52 -53 -93 -117 -93s-116 41 -116 93c0 51 52 93 116 93s117 -42 117 -93z" />
    <glyph glyph-name="j" unicode="j" horiz-adv-x="306" 
d="M270 498v-466v0c0 -214 -85 -296 -221 -296c-119 0 -179 64 -179 126c0 48 38 99 93 99c33 0 68 -11 71 -18c5 -8 -7 -30 -7 -65c0 -26 7 -60 36 -60c25 0 39 20 39 57c0 64 -33 91 -33 165v0v457c0 5 4 6 4 6h193s4 -1 4 -5zM169 552c-64 0 -116 41 -116 93
c0 51 52 93 116 93c65 0 117 -42 117 -93c0 -52 -52 -93 -117 -93z" />
    <glyph glyph-name="k" unicode="k" horiz-adv-x="601" 
d="M593 66c16 -8 18 -13 1 -33c-23 -26 -79 -55 -134 -55c-171 0 -200 179 -201 243c0 14 4 22 11 22c131 0 112 148 44 148c-60 0 -78 -60 -80 -106v-279c0 -5 -4 -6 -4 -6h-193s-4 1 -4 5c0 0 -3 602 -3 710c0 4 4 4 4 4h196s4 1 4 -4v-293c41 72 108 103 169 103
c170 0 205 -254 22 -283v-2s42 -114 168 -174z" />
    <glyph glyph-name="l" unicode="l" horiz-adv-x="295" 
d="M30 714c0 5 5 5 5 5h200s5 0 4 -5c0 0 1 -444 1 -513c0 -159 68 -125 59 -152c-11 -32 -73 -71 -129 -71c-81 0 -140 58 -140 152v584z" />
    <glyph glyph-name="m" unicode="m" horiz-adv-x="911" 
d="M849 204c0 -159 76 -125 66 -153c-11 -31 -65 -70 -121 -70c-80 0 -147 58 -147 152v194c0 100 -94 65 -94 -53v0v-18c0 -65 8 -250 8 -250c0 -5 -5 -6 -5 -6h-200s-5 1 -4 5c0 0 -2 186 -1 251c1 24 0 49 0 71c0 100 -94 65 -94 -53v-268c0 -5 -5 -6 -5 -6h-200
s-4 1 -4 5c0 0 7 228 7 297c0 159 -68 125 -58 152c10 32 64 71 120 71c70 0 123 -43 137 -115c41 84 109 115 161 115c63 0 117 -45 133 -119c41 88 110 119 163 119c75 0 138 -65 138 -165v-156z" />
    <glyph glyph-name="n" unicode="n" horiz-adv-x="622" 
d="M559 204c0 -159 77 -125 67 -153c-11 -31 -65 -70 -121 -70c-80 0 -147 58 -147 152v194c0 100 -101 65 -102 -53v-268c0 -5 -5 -6 -5 -6h-200s-4 1 -4 5c0 0 8 228 8 297c0 159 -69 125 -59 152c10 32 64 71 120 71c70 0 124 -44 137 -117c44 86 116 117 169 117
c75 0 138 -65 138 -165c0 -42 -1 -81 -1 -156z" />
    <glyph glyph-name="o" unicode="o" horiz-adv-x="580" 
d="M570 249c0 -151 -116 -272 -280 -272c-161 0 -280 121 -280 272c0 150 119 272 280 272s280 -122 280 -272zM207 249c0 -84 25 -159 83 -159c60 0 83 71 83 159c0 86 -25 159 -83 159c-59 0 -83 -73 -83 -159z" />
    <glyph glyph-name="p" unicode="p" horiz-adv-x="616" 
d="M411 525c126 0 195 -139 195 -273c0 -137 -69 -271 -200 -271c-69 0 -118 39 -149 95v-290c0 -5 -5 -6 -5 -6h-200s-5 1 -4 5c0 0 -1 448 -1 517c0 159 -60 125 -51 152c11 32 65 71 121 71c69 0 122 -43 136 -114c34 66 88 114 158 114zM326 116c49 0 75 61 75 136
s-26 135 -75 135s-75 -60 -75 -135s26 -136 75 -136z" />
    <glyph glyph-name="q" unicode="q" horiz-adv-x="584" 
d="M561 503c0 0 3 1 3 -4v-713c0 -5 -4 -5 -4 -5h-193s-4 0 -4 5c0 0 -1 122 -1 295c-34 -62 -88 -101 -157 -101c-126 0 -195 138 -195 273c0 137 69 271 200 271c72 0 122 -43 153 -103v78c0 4 4 4 4 4h194zM290 117c49 0 75 61 75 136s-26 135 -75 135s-75 -60 -75 -135
s26 -136 75 -136z" />
    <glyph glyph-name="r" unicode="r" horiz-adv-x="483" 
d="M377 524c63 0 111 -40 111 -112c0 -83 -57 -129 -125 -129c-24 0 -47 14 -50 20c-6 9 -2 16 -2 36c0 31 -6 44 -21 44c-29 0 -34 -51 -34 -113v-265c0 -5 -4 -5 -4 -5h-201s-4 0 -4 5c0 0 8 227 8 296c0 159 -68 125 -59 152c11 32 65 71 121 71c67 0 119 -40 134 -109
c27 66 77 109 126 109z" />
    <glyph glyph-name="s" unicode="s" horiz-adv-x="513" 
d="M339 294c80 -23 164 -63 164 -154c0 -121 -144 -163 -258 -163c-89 0 -235 31 -235 130c0 49 39 91 97 91c33 0 71 -9 75 -17c6 -9 2 -22 2 -41c0 -40 25 -61 59 -61c37 0 53 18 54 45c-2 48 -69 59 -143 83c-68 24 -135 72 -136 151v3c0 104 123 163 225 163
c117 0 236 -41 236 -130c1 -48 -35 -87 -97 -87c-35 0 -68 11 -72 18c-5 8 -1 21 -1 41c0 40 -17 58 -51 57c-31 -1 -47 -28 -47 -47v0v0c0 -49 59 -62 128 -82z" />
    <glyph glyph-name="t" unicode="t" horiz-adv-x="380" 
d="M368 90c18 0 20 -13 13 -26c-27 -54 -102 -91 -174 -91c-32 1 -63 8 -89 23c-41 25 -68 71 -68 134v279h-51s-4 0 -4 5v85c0 4 4 4 4 4h51v76c0 5 5 5 5 5l192 79s5 -1 4 -5c0 0 1 -70 1 -155h122s3 0 3 -5v-84c0 -5 -4 -5 -4 -5h-121v-208v-16v0v0c0 -12 1 -22 2 -32
c13 -81 75 -63 114 -63z" />
    <glyph glyph-name="u" unicode="u" 
d="M560 201c0 -159 68 -125 59 -152c-11 -32 -65 -71 -121 -71c-69 0 -122 43 -136 115c-42 -85 -109 -115 -162 -115c-74 0 -137 65 -137 165v156c0 159 -76 125 -67 152c11 32 65 71 121 71c81 0 148 -58 148 -152v-194c0 -98 90 -66 94 46v275c0 5 4 6 4 6h201s4 -1 4 -5
c0 0 -8 -228 -8 -297z" />
    <glyph glyph-name="v" unicode="v" horiz-adv-x="548" 
d="M385 525c77 0 153 -60 153 -232c0 -91 -40 -315 -271 -315v0h-6c-118 0 -241 66 -241 222h1v1v297c0 4 4 5 4 5h193s4 -1 4 -6v-308v0c0 -65 8 -96 41 -96v0v0c42 0 87 44 87 158c0 178 -87 182 -87 203c0 19 48 71 122 71z" />
    <glyph glyph-name="w" unicode="w" horiz-adv-x="860" 
d="M697 525c77 0 153 -60 153 -232c0 -91 -40 -315 -271 -315v0h-6c-70 0 -141 23 -188 74c-29 -38 -79 -74 -157 -74c-102 0 -185 72 -204 177c-3 13 -4 27 -4 42v3v2v0v296c0 4 4 5 4 5h195s5 -1 5 -6v-323c3 -60 27 -81 54 -81s54 28 54 96l1 -1c-1 4 -1 8 -1 12h1v1v297
c0 4 4 5 4 5h193s4 -1 4 -6v-308v0c0 -65 8 -96 41 -96v0v0c42 0 87 44 87 158c0 178 -87 182 -87 203c0 19 48 71 122 71z" />
    <glyph glyph-name="x" unicode="x" horiz-adv-x="580" 
d="M406 248l170 -242c2 -3 1 -6 -3 -6h-221c-4 0 -7 3 -8 5l-112 173c-86 -23 11 -120 11 -129c1 -33 -48 -71 -104 -71c-80 0 -131 48 -134 117c-4 88 50 143 169 170l-163 233c-2 3 1 5 3 5h217c3 0 6 -2 8 -5l112 -170c80 23 -16 115 -16 122c-1 33 48 70 104 70
c80 0 133 -55 133 -123c0 -76 -76 -129 -166 -149z" />
    <glyph glyph-name="y" unicode="y" horiz-adv-x="595" 
d="M564 71c6 -173 -91 -297 -276 -297c-146 0 -213 98 -225 136c-16 49 -6 58 5 56c24 -4 53 -80 165 -80c80 0 126 54 129 114v100c-41 -86 -109 -116 -162 -116c-74 0 -137 65 -137 165v150c0 159 -76 125 -67 152c11 32 65 71 121 71c81 0 147 -58 147 -152v-188
c0 -100 94 -65 96 52v263c0 5 4 5 4 5h193s4 0 4 -5c0 0 3 -293 3 -426v0z" />
    <glyph glyph-name="z" unicode="z" horiz-adv-x="496" 
d="M495 127c14 -122 -91 -160 -184 -146c-53 7 -205 19 -289 19c0 0 -4 0 -3 4c-5 42 -8 72 -3 114c9 73 143 166 217 207c26 14 54 25 81 36c-123 8 -215 -1 -298 -18c-4 -1 -6 4 -6 4c-1 1 -38 111 51 159c82 47 167 -6 421 -6c2 0 5 0 6 -4c0 -39 5 -80 -1 -118
c-10 -65 -94 -135 -192 -189c-29 -16 -61 -34 -95 -51h106c162 0 153 44 168 32c11 -9 19 -28 21 -43z" />
    <glyph glyph-name="braceleft" unicode="{" horiz-adv-x="212" 
d="M197 -151c5 -5 10 -9 9 -13c0 -5 -5 -8 -18 -9c-107 -4 -159 75 -150 220c0 0 1 10 1 15c10 108 -4 191 -25 208c-12 11 -12 13 0 25c20 19 35 100 25 208c0 5 -1 15 -1 15c-9 146 43 224 150 220c13 0 18 -4 18 -9c1 -3 -4 -8 -9 -13c-20 -18 -35 -77 -25 -184
c0 -5 1 -15 1 -15c7 -113 -23 -209 -87 -234c64 -25 94 -121 87 -234c0 0 -1 -10 -1 -16c-10 -107 5 -166 25 -184z" />
    <glyph glyph-name="bar" unicode="|" horiz-adv-x="158" 
d="M125 -171c0 -5 -3 -4 -3 -4h-88s-4 -1 -4 4c0 35 1 910 1 910c0 5 4 5 4 5h86s4 0 4 -5v-910z" />
    <glyph glyph-name="braceright" unicode="}" horiz-adv-x="232" 
d="M25 -151c20 18 35 77 25 184c0 6 -1 16 -1 16c-7 113 23 209 87 234c-64 25 -94 121 -87 234c0 0 1 10 1 15c10 107 -5 166 -25 184c-5 5 -10 10 -9 13c0 5 5 9 18 9c107 4 159 -74 150 -220c0 0 -1 -10 -1 -15c-10 -108 5 -189 25 -208c12 -12 12 -14 0 -25
c-21 -17 -35 -100 -25 -208c0 -5 1 -15 1 -15c9 -145 -43 -224 -150 -220c-13 1 -18 4 -18 9c-1 4 4 8 9 13z" />
    <glyph glyph-name="asciitilde" unicode="~" horiz-adv-x="596" 
d="M481 332c35 9 91 -34 79 -93c-10 -48 -54 -97 -153 -72c-80 20 -148 108 -228 69c-41 -20 -55 -57 -61 -59c-38 -10 -95 32 -84 92c10 54 69 98 158 71c78 -24 149 -98 227 -67c43 17 54 57 62 59z" />
    <glyph glyph-name="exclamdown" unicode="&#xa1;" horiz-adv-x="266" 
d="M22 433c0 55 44 99 98 99s98 -44 98 -99c0 -54 -44 -98 -98 -98s-98 44 -98 98zM10 -85c0 127 33 379 114 379c71 0 85 -225 87 -309c4 -158 68 -125 59 -152c-11 -31 -65 -71 -121 -71c-81 0 -139 58 -139 153z" />
    <glyph glyph-name="cent" unicode="&#xa2;" horiz-adv-x="423" 
d="M414 174c3 -3 5 -6 3 -13c-9 -31 -61 -115 -163 -127c2 -35 6 -66 6 -66c1 -4 -4 -5 -4 -5h-67s-4 1 -4 6c0 0 4 34 6 67c-103 18 -181 108 -181 216c0 107 75 196 182 215c-3 33 -7 62 -7 62c0 4 4 4 4 4h67s5 0 5 -5c0 0 -5 -26 -7 -58c80 -8 154 -45 154 -113
c0 -39 -23 -76 -82 -80c-27 -1 -53 9 -57 15c-4 7 -2 17 0 33c3 32 -13 44 -30 46c-49 4 -59 -59 -59 -119c0 -143 118 -150 223 -79c3 2 8 4 11 1z" />
    <glyph glyph-name="sterling" unicode="&#xa3;" horiz-adv-x="488" 
d="M466 152v-147s0 -4 -5 -4h-430c-5 0 -6 4 -6 4v146s1 3 3 4v1c27 11 48 26 60 43c-35 -3 -61 -6 -72 -7c-5 0 -4 4 -4 4l-2 68s0 3 4 3c12 1 38 -1 71 -3c-24 24 -66 43 -66 105v0c0 121 127 155 238 155c86 0 221 -31 221 -131c0 -48 -38 -91 -95 -91
c-33 0 -68 10 -73 18s-2 22 -1 41c3 41 -15 63 -48 63c-25 0 -38 -14 -43 -31c-12 -37 25 -108 33 -126c53 3 92 8 92 8c5 0 5 -4 5 -4l2 -67s0 -5 -5 -5c0 0 -46 4 -103 5c-15 -24 -43 -38 -78 -49c102 1 235 1 298 1c4 0 4 -4 4 -4z" />
    <glyph glyph-name="section" unicode="&#xa7;" horiz-adv-x="500" 
d="M414 143c37 -25 64 -60 67 -107c1 -3 1 -7 1 -10c0 -102 -121 -160 -220 -160c-112 0 -228 41 -228 127c-1 47 32 86 94 86c33 0 66 -11 70 -18c5 -8 1 -21 1 -40c0 -39 16 -57 50 -56c30 1 45 28 45 47v0h-1c0 47 -56 60 -124 80c-57 16 -117 41 -144 89
c-9 15 -15 31 -15 51v4v6c0 56 31 94 76 119c-37 26 -64 61 -68 108v10c0 102 120 160 219 160c113 0 229 -41 229 -127c1 -47 -33 -86 -94 -86c-33 0 -66 11 -70 18c-5 8 -1 21 -1 40c0 39 -17 57 -50 56c-30 -1 -45 -28 -45 -47v0v0c0 -47 57 -60 125 -80
c57 -16 116 -41 144 -89c9 -15 15 -31 15 -51v-5v-5c0 -56 -31 -94 -76 -120zM301 191c17 5 42 41 16 73c-5 7 -13 13 -25 17l-28 10v0l-26 9l-28 10c-1 1 -2 1 -2 1l-6 2c-19 -6 -46 -48 -7 -82v1c4 -4 10 -8 17 -10l64 -22v0z" />
    <glyph glyph-name="dieresis" unicode="&#xa8;" horiz-adv-x="441" 
d="M204 638c0 -48 -45 -86 -100 -86c-54 0 -99 38 -99 86s45 86 99 86c55 0 100 -38 100 -86zM436 638c0 -48 -44 -86 -99 -86s-99 38 -99 86s44 86 99 86s99 -38 99 -86z" />
    <glyph glyph-name="copyright" unicode="&#xa9;" horiz-adv-x="725" 
d="M516 184c3 2 7 3 9 1c3 -2 4 -5 3 -11c-8 -29 -60 -110 -161 -110c-104 0 -188 84 -188 188c0 100 78 183 183 188v0c77 0 158 -33 158 -98c0 -33 -20 -65 -70 -68c-23 -2 -46 7 -49 12c-3 6 -2 15 0 28c3 28 -11 52 -25 53c-43 4 -58 -64 -58 -115
c0 -123 108 -128 198 -68zM361 578c179 0 325 -146 325 -325s-146 -325 -325 -325s-325 146 -325 325s146 325 325 325zM361 -9c144 0 262 117 262 262c0 144 -118 262 -262 262c-145 0 -262 -118 -262 -262c0 -145 117 -262 262 -262z" />
    <glyph glyph-name="guillemotleft" unicode="&#xab;" horiz-adv-x="410" 
d="M398 68c5 -16 -5 -30 -23 -16c-76 64 -177 163 -178 164c-18 22 -18 28 0 49c1 1 100 101 178 164c15 12 29 5 22 -16c-17 -51 -52 -158 -57 -172zM225 68c5 -16 -5 -30 -23 -16c-75 64 -177 163 -178 164c-18 22 -18 28 0 49c1 1 100 101 178 164c15 12 29 5 22 -16
c-16 -51 -52 -158 -57 -172z" />
    <glyph glyph-name="registered" unicode="&#xae;" horiz-adv-x="444" 
d="M334 331c6 -4 9 -7 1 -15c-10 -11 -28 -23 -51 -23c-68 0 -69 78 -72 93l-13 1v-82c0 -2 -2 -3 -2 -3h-81s-2 1 -2 3v209c0 2 1 2 1 2s55 9 111 9c52 0 110 -22 110 -70c0 -30 -26 -51 -54 -62c5 -9 26 -46 52 -62zM249 452c0 20 -13 28 -28 28c-7 0 -15 -1 -22 -2v-55
h19c19 0 31 10 31 29zM222 621c117 0 212 -95 212 -212s-95 -212 -212 -212s-212 95 -212 212s95 212 212 212zM222 238c94 0 171 77 171 171s-77 171 -171 171c-95 0 -171 -77 -171 -171s76 -171 171 -171z" />
    <glyph glyph-name="degree" unicode="&#xb0;" horiz-adv-x="324" 
d="M162 431c-84 0 -152 68 -152 152s68 152 152 152s152 -68 152 -152s-68 -152 -152 -152v0zM162 641c-32 0 -58 -26 -58 -58s26 -57 58 -57s58 25 58 57s-26 58 -58 58v0z" />
    <glyph glyph-name="acute" unicode="&#xb4;" horiz-adv-x="274" 
d="M269 735c-44 -86 -112 -147 -215 -183c-3 -1 -6 -2 -8 -1c-18 14 -30 30 -41 49c-2 2 -1 5 1 7c70 70 103 120 126 213c1 2 3 3 6 2c53 -13 97 -41 129 -79c3 -2 3 -6 2 -8z" />
    <glyph glyph-name="paragraph" unicode="&#xb6;" horiz-adv-x="676" 
d="M646 701v-856c0 -5 -4 -5 -4 -5h-114s-4 0 -4 4c0 5 -1 769 -1 769c0 5 -4 5 -4 5h-52s-4 0 -4 -4v-768c0 -5 -4 -4 -4 -4h-115s-4 -1 -4 4v401c-155 -17 -330 42 -330 256c0 172 147 233 303 233s329 -30 329 -30s4 0 4 -5z" />
    <glyph glyph-name="cedilla" unicode="&#xb8;" horiz-adv-x="265" 
d="M97 5h13c3 0 3 -3 3 -3v-74c187 25 206 -206 24 -194c-96 5 -149 77 -134 79c7 2 162 -55 159 26c-2 33 -54 47 -136 26c-2 0 -4 2 -3 4c9 18 61 118 70 133c2 3 4 3 4 3z" />
    <glyph glyph-name="guillemotright" unicode="&#xbb;" horiz-adv-x="410" 
d="M12 68l58 173c-5 14 -40 121 -57 172c-7 21 7 28 22 16c78 -63 177 -163 178 -164c18 -21 18 -27 0 -49c-1 -1 -102 -100 -178 -164c-18 -14 -28 0 -23 16zM185 68l58 173c-5 14 -41 121 -57 172c-7 21 7 28 22 16c78 -63 177 -163 178 -164c18 -21 18 -27 0 -49
c-1 -1 -103 -100 -178 -164c-18 -14 -28 0 -23 16z" />
    <glyph glyph-name="questiondown" unicode="&#xbf;" horiz-adv-x="299" 
d="M56 428c0 55 44 99 98 99s98 -44 98 -99c0 -54 -44 -98 -98 -98s-98 44 -98 98zM47 137c31 58 59 152 111 152c45 0 80 -87 73 -155c-10 -100 -106 -158 -107 -226c-1 -18 5 -50 36 -50c32 0 36 37 37 65c0 18 -4 41 1 49c4 6 42 17 75 18c62 0 91 -37 90 -83
c-1 -70 -84 -147 -212 -147c-141 0 -216 86 -216 161c0 78 62 123 112 216z" />
    <glyph glyph-name="Agrave" unicode="&#xc0;" horiz-adv-x="689" 
d="M683 5c2 -5 -3 -5 -3 -5h-226s-5 0 -6 5l-25 106h-177c-12 -63 -22 -106 -22 -106c-2 -5 -7 -5 -7 -5h-209s-5 0 -2 5c0 0 172 538 172 539c41 105 -13 107 -5 130c13 39 85 69 143 69c73 0 147 -48 186 -157c42 -118 181 -581 181 -581zM274 246h117l-59 290
c-18 -73 -39 -199 -58 -290zM212 935c-1 2 -1 6 2 8c32 38 76 66 129 79c3 1 5 0 6 -2c23 -93 56 -143 126 -213c2 -2 3 -5 1 -7c-11 -19 -23 -35 -41 -49c-2 -1 -5 0 -8 1c-103 36 -171 97 -215 183z" />
    <glyph glyph-name="Aacute" unicode="&#xc1;" horiz-adv-x="689" 
d="M683 5c2 -5 -3 -5 -3 -5h-226s-5 0 -6 5l-25 106h-177c-12 -63 -22 -106 -22 -106c-2 -5 -7 -5 -7 -5h-209s-5 0 -2 5c0 0 172 538 172 539c41 105 -13 107 -5 130c13 39 85 69 143 69c73 0 147 -48 186 -157c42 -118 181 -581 181 -581zM274 246h117l-59 290
c-18 -73 -39 -199 -58 -290zM477 945c-44 -86 -112 -147 -215 -183c-3 -1 -6 -2 -8 -1c-18 14 -30 30 -41 49c-2 2 -1 5 1 7c70 70 103 120 126 213c1 2 3 3 6 2c53 -13 97 -41 129 -79c3 -2 3 -6 2 -8z" />
    <glyph glyph-name="Acircumflex" unicode="&#xc2;" horiz-adv-x="689" 
d="M683 5c2 -5 -3 -5 -3 -5h-226s-5 0 -6 5l-25 106h-177c-12 -63 -22 -106 -22 -106c-2 -5 -7 -5 -7 -5h-209s-5 0 -2 5c0 0 172 538 172 539c41 105 -13 107 -5 130c13 39 85 69 143 69c73 0 147 -48 186 -157c42 -118 181 -581 181 -581zM274 246h117l-59 290
c-18 -73 -39 -199 -58 -290zM506 753l-179 65l-184 -62c-22 -7 -28 3 -16 18c0 0 157 180 158 181c2 3 6 3 6 3h69c7 0 9 -3 10 -4s153 -183 153 -183c14 -18 0 -24 -17 -18z" />
    <glyph glyph-name="Atilde" unicode="&#xc3;" horiz-adv-x="689" 
d="M683 5c2 -5 -3 -5 -3 -5h-226s-5 0 -6 5l-25 106h-177c-12 -63 -22 -106 -22 -106c-2 -5 -7 -5 -7 -5h-209s-5 0 -2 5c0 0 172 538 172 539c41 105 -13 107 -5 130c13 39 85 69 143 69c73 0 147 -48 186 -157c42 -118 181 -581 181 -581zM274 246h117l-59 290
c-18 -73 -39 -199 -58 -290zM576 926c24 3 42 -193 -164 -175c-77 8 -150 64 -207 66c-77 3 -95 -56 -110 -57c-24 -4 -11 175 155 169c90 -3 145 -58 224 -61c64 -2 87 56 102 58z" />
    <glyph glyph-name="Adieresis" unicode="&#xc4;" horiz-adv-x="689" 
d="M683 5c2 -5 -3 -5 -3 -5h-226s-5 0 -6 5l-25 106h-177c-12 -63 -22 -106 -22 -106c-2 -5 -7 -5 -7 -5h-209s-5 0 -2 5c0 0 172 538 172 539c41 105 -13 107 -5 130c13 39 85 69 143 69c73 0 147 -48 186 -157c42 -118 181 -581 181 -581zM274 246h117l-59 290
c-18 -73 -39 -199 -58 -290zM312 838c0 -48 -45 -86 -100 -86c-54 0 -99 38 -99 86s45 86 99 86c55 0 100 -38 100 -86zM544 838c0 -48 -44 -86 -99 -86s-99 38 -99 86s44 86 99 86s99 -38 99 -86z" />
    <glyph glyph-name="Aring" unicode="&#xc5;" horiz-adv-x="689" 
d="M683 5c2 -5 -3 -5 -3 -5h-226s-5 0 -6 5l-25 106h-177c-12 -63 -22 -106 -22 -106c-2 -5 -7 -5 -7 -5h-209s-5 0 -2 5c0 0 172 538 172 539c41 105 -13 107 -5 130c13 39 85 69 143 69c73 0 147 -48 186 -157c42 -118 181 -581 181 -581zM274 246h117l-59 290
c-18 -73 -39 -199 -58 -290zM456 845c0 -68 -58 -124 -130 -124s-131 56 -131 124s59 123 131 123s130 -55 130 -123zM326 901c-28 0 -49 -23 -49 -56s23 -59 49 -59c27 0 48 26 48 59s-21 56 -48 56z" />
    <glyph glyph-name="Ccedilla" unicode="&#xc7;" horiz-adv-x="642" 
d="M623 198c20 17 22 1 16 -23c-9 -39 -74 -192 -280 -196c-198 -4 -349 176 -349 382c0 199 141 375 350 376c157 2 267 -75 267 -183c0 -53 -39 -114 -111 -114c-44 0 -79 16 -77 36c9 65 -7 135 -74 135c-91 0 -138 -157 -125 -258c32 -258 259 -266 383 -155zM355 5h13
c3 0 3 -3 3 -3v-74c187 25 206 -206 24 -194c-96 5 -149 77 -134 79c7 2 162 -55 159 26c-2 33 -54 47 -136 26c-2 0 -4 2 -3 4c9 18 61 118 70 133c2 3 4 3 4 3z" />
    <glyph glyph-name="Egrave" unicode="&#xc8;" horiz-adv-x="541" 
d="M511 171c20 13 28 0 24 -24c-8 -51 -86 -169 -249 -169c-171 0 -256 133 -256 272l1 461c0 5 6 5 6 5h477s6 0 8 -5c0 0 39 -119 -76 -165c-73 -29 -192 -2 -192 -2c0 -20 -1 -81 -1 -132h165s6 0 5 -5v-100c0 -5 -6 -5 -6 -5h-165v-72c4 -130 189 -104 259 -59zM118 935
c-1 2 -1 6 2 8c32 38 76 66 129 79c3 1 5 0 6 -2c23 -93 56 -143 126 -213c2 -2 3 -5 1 -7c-11 -19 -23 -35 -41 -49c-2 -1 -5 0 -8 1c-103 36 -171 97 -215 183z" />
    <glyph glyph-name="Eacute" unicode="&#xc9;" horiz-adv-x="541" 
d="M511 171c20 13 28 0 24 -24c-8 -51 -86 -169 -249 -169c-171 0 -256 133 -256 272l1 461c0 5 6 5 6 5h477s6 0 8 -5c0 0 39 -119 -76 -165c-73 -29 -192 -2 -192 -2c0 -20 -1 -81 -1 -132h165s6 0 5 -5v-100c0 -5 -6 -5 -6 -5h-165v-72c4 -130 189 -104 259 -59zM403 935
c-44 -86 -112 -147 -215 -183c-3 -1 -6 -2 -8 -1c-18 14 -30 30 -41 49c-2 2 -1 5 1 7c70 70 103 120 126 213c1 2 3 3 6 2c53 -13 97 -41 129 -79c3 -2 3 -6 2 -8z" />
    <glyph glyph-name="Ecircumflex" unicode="&#xca;" horiz-adv-x="541" 
d="M511 171c20 13 28 0 24 -24c-8 -51 -86 -169 -249 -169c-171 0 -256 133 -256 272l1 461c0 5 6 5 6 5h477s6 0 8 -5c0 0 39 -119 -76 -165c-73 -29 -192 -2 -192 -2c0 -20 -1 -81 -1 -132h165s6 0 5 -5v-100c0 -5 -6 -5 -6 -5h-165v-72c4 -130 189 -104 259 -59zM450 753
l-179 65l-184 -62c-22 -7 -28 3 -16 18c0 0 157 180 158 181c2 3 6 3 6 3h69c7 0 9 -3 10 -4s153 -183 153 -183c14 -18 0 -24 -17 -18z" />
    <glyph glyph-name="Edieresis" unicode="&#xcb;" horiz-adv-x="541" 
d="M511 171c20 13 28 0 24 -24c-8 -51 -86 -169 -249 -169c-171 0 -256 133 -256 272l1 461c0 5 6 5 6 5h477s6 0 8 -5c0 0 39 -119 -76 -165c-73 -29 -192 -2 -192 -2c0 -20 -1 -81 -1 -132h165s6 0 5 -5v-100c0 -5 -6 -5 -6 -5h-165v-72c4 -130 189 -104 259 -59zM254 838
c0 -48 -45 -86 -100 -86c-54 0 -99 38 -99 86s45 86 99 86c55 0 100 -38 100 -86zM486 838c0 -48 -44 -86 -99 -86s-99 38 -99 86s44 86 99 86s99 -38 99 -86z" />
    <glyph glyph-name="Igrave" unicode="&#xcc;" horiz-adv-x="311" 
d="M133 739c78 0 148 -46 148 -160v-574c0 -5 -5 -5 -5 -5h-213s-5 0 -4 5c-1 478 0 542 0 543c-11 119 -72 92 -63 118c12 33 78 73 137 73zM23 935c-1 2 -1 6 2 8c32 38 76 66 129 79c3 1 5 0 6 -2c23 -93 56 -143 126 -213c2 -2 3 -5 1 -7c-11 -19 -23 -35 -41 -49
c-2 -1 -5 0 -8 1c-103 36 -171 97 -215 183z" />
    <glyph glyph-name="Iacute" unicode="&#xcd;" horiz-adv-x="311" 
d="M133 739c78 0 148 -46 148 -160v-574c0 -5 -5 -5 -5 -5h-213s-5 0 -4 5c-1 478 0 542 0 543c-11 119 -72 92 -63 118c12 33 78 73 137 73zM288 945c-44 -86 -112 -147 -215 -183c-3 -1 -6 -2 -8 -1c-18 14 -30 30 -41 49c-2 2 -1 5 1 7c70 70 103 120 126 213
c1 2 3 3 6 2c53 -13 97 -41 129 -79c3 -2 3 -6 2 -8z" />
    <glyph glyph-name="Icircumflex" unicode="&#xce;" horiz-adv-x="311" 
d="M133 739c78 0 148 -46 148 -160v-574c0 -5 -5 -5 -5 -5h-213s-5 0 -4 5c-1 478 0 542 0 543c-11 119 -72 92 -63 118c12 33 78 73 137 73zM336 753l-179 65l-184 -62c-22 -7 -28 3 -16 18c0 0 157 180 158 181c2 3 6 3 6 3h69c7 0 9 -3 10 -4s153 -183 153 -183
c14 -18 0 -24 -17 -18z" />
    <glyph glyph-name="Idieresis" unicode="&#xcf;" horiz-adv-x="311" 
d="M133 739c78 0 148 -46 148 -160v-574c0 -5 -5 -5 -5 -5h-213s-5 0 -4 5c-1 478 0 542 0 543c-11 119 -72 92 -63 118c12 33 78 73 137 73zM139 838c0 -48 -45 -86 -100 -86c-54 0 -99 38 -99 86s45 86 99 86c55 0 100 -38 100 -86zM371 838c0 -48 -44 -86 -99 -86
s-99 38 -99 86s44 86 99 86s99 -38 99 -86z" />
    <glyph glyph-name="Ntilde" unicode="&#xd1;" horiz-adv-x="696" 
d="M668 710l-3 -705c1 -5 -5 -5 -5 -5h-184s-4 -1 -7 5l-212 417l9 -83l9 -334c0 -5 -5 -5 -5 -5h-214s-6 0 -5 5c0 0 6 546 6 547c-5 115 -70 92 -60 117c12 33 80 74 146 74c80 0 121 -56 169 -127c49 -84 110 -191 154 -286l-10 96l-5 284c-2 5 4 5 4 5h208s5 0 5 -5z
M579 926c24 3 42 -193 -164 -175c-77 8 -150 64 -207 66c-77 3 -95 -56 -110 -57c-24 -4 -11 175 155 169c90 -3 145 -58 224 -61c64 -2 87 56 102 58z" />
    <glyph glyph-name="Ograve" unicode="&#xd2;" horiz-adv-x="710" 
d="M703 357c0 -205 -132 -378 -347 -378c-210 0 -346 173 -346 378c0 204 136 380 346 380c211 0 347 -176 347 -380zM236 357c0 -114 45 -266 120 -266c78 0 121 147 121 266c0 118 -45 268 -121 268s-120 -150 -120 -268zM222 935c-1 2 -1 6 2 8c32 38 76 66 129 79
c3 1 5 0 6 -2c23 -93 56 -143 126 -213c2 -2 3 -5 1 -7c-11 -19 -23 -35 -41 -49c-2 -1 -5 0 -8 1c-103 36 -171 97 -215 183z" />
    <glyph glyph-name="Oacute" unicode="&#xd3;" horiz-adv-x="710" 
d="M703 357c0 -205 -132 -378 -347 -378c-210 0 -346 173 -346 378c0 204 136 380 346 380c211 0 347 -176 347 -380zM236 357c0 -114 45 -266 120 -266c78 0 121 147 121 266c0 118 -45 268 -121 268s-120 -150 -120 -268zM513 945c-44 -86 -112 -147 -215 -183
c-3 -1 -6 -2 -8 -1c-18 14 -30 30 -41 49c-2 2 -1 5 1 7c70 70 103 120 126 213c1 2 3 3 6 2c53 -13 97 -41 129 -79c3 -2 3 -6 2 -8z" />
    <glyph glyph-name="Ocircumflex" unicode="&#xd4;" horiz-adv-x="710" 
d="M703 357c0 -205 -132 -378 -347 -378c-210 0 -346 173 -346 378c0 204 136 380 346 380c211 0 347 -176 347 -380zM236 357c0 -114 45 -266 120 -266c78 0 121 147 121 266c0 118 -45 268 -121 268s-120 -150 -120 -268zM538 743l-179 65l-184 -62c-22 -7 -28 3 -16 18
c0 0 157 180 158 181c2 3 6 3 6 3h69c7 0 9 -3 10 -4s153 -183 153 -183c14 -18 0 -24 -17 -18z" />
    <glyph glyph-name="Otilde" unicode="&#xd5;" horiz-adv-x="710" 
d="M703 357c0 -205 -132 -378 -347 -378c-210 0 -346 173 -346 378c0 204 136 380 346 380c211 0 347 -176 347 -380zM236 357c0 -114 45 -266 120 -266c78 0 121 147 121 266c0 118 -45 268 -121 268s-120 -150 -120 -268zM595 936c24 3 42 -193 -164 -175
c-77 8 -150 64 -207 66c-77 3 -95 -56 -110 -57c-24 -4 -11 175 155 169c90 -3 145 -58 224 -61c64 -2 87 56 102 58z" />
    <glyph glyph-name="Odieresis" unicode="&#xd6;" horiz-adv-x="710" 
d="M703 357c0 -205 -132 -378 -347 -378c-210 0 -346 173 -346 378c0 204 136 380 346 380c211 0 347 -176 347 -380zM236 357c0 -114 45 -266 120 -266c78 0 121 147 121 266c0 118 -45 268 -121 268s-120 -150 -120 -268zM338 838c0 -48 -45 -86 -100 -86
c-54 0 -99 38 -99 86s45 86 99 86c55 0 100 -38 100 -86zM570 838c0 -48 -44 -86 -99 -86s-99 38 -99 86s44 86 99 86s99 -38 99 -86z" />
    <glyph glyph-name="Oslash" unicode="&#xd8;" horiz-adv-x="710" 
d="M703 357c0 -205 -132 -378 -347 -378c-51 0 -97 10 -138 28l-49 -106c-4 -5 -8 -4 -8 -4h-85s-4 -1 -1 4c4 9 36 64 80 143c-92 68 -145 184 -145 313c0 204 136 380 346 380c50 0 96 -10 137 -28l39 82c3 5 8 5 8 5h84s4 0 0 -5l-67 -120c92 -69 146 -186 146 -314z
M477 357c0 42 -6 88 -17 130l-175 -342c19 -33 43 -54 71 -54c78 0 121 147 121 266zM236 357c0 -41 5 -86 16 -127l176 340c-19 33 -43 55 -72 55c-76 0 -120 -150 -120 -268z" />
    <glyph glyph-name="Ugrave" unicode="&#xd9;" horiz-adv-x="698" 
d="M668 710c-1 -105 -3 -357 -2 -463c3 -357 -599 -358 -599 -3v1v256c0 168 -80 132 -71 160c12 34 69 75 128 75c86 0 163 -61 163 -160v-383v-2c0 -111 153 -114 153 1v517c0 5 4 6 4 6h220s4 -1 4 -5zM216 935c-1 2 -1 6 2 8c32 38 76 66 129 79c3 1 5 0 6 -2
c23 -93 56 -143 126 -213c2 -2 3 -5 1 -7c-11 -19 -23 -35 -41 -49c-2 -1 -5 0 -8 1c-103 36 -171 97 -215 183z" />
    <glyph glyph-name="Uacute" unicode="&#xda;" horiz-adv-x="698" 
d="M668 710c-1 -105 -3 -357 -2 -463c3 -357 -599 -358 -599 -3v1v256c0 168 -80 132 -71 160c12 34 69 75 128 75c86 0 163 -61 163 -160v-383v-2c0 -111 153 -114 153 1v517c0 5 4 6 4 6h220s4 -1 4 -5zM481 935c-44 -86 -112 -147 -215 -183c-3 -1 -6 -2 -8 -1
c-18 14 -30 30 -41 49c-2 2 -1 5 1 7c70 70 103 120 126 213c1 2 3 3 6 2c53 -13 97 -41 129 -79c3 -2 3 -6 2 -8z" />
    <glyph glyph-name="Ucircumflex" unicode="&#xdb;" horiz-adv-x="698" 
d="M668 710c-1 -105 -3 -357 -2 -463c3 -357 -599 -358 -599 -3v1v256c0 168 -80 132 -71 160c12 34 69 75 128 75c86 0 163 -61 163 -160v-383v-2c0 -111 153 -114 153 1v517c0 5 4 6 4 6h220s4 -1 4 -5zM529 753l-179 65l-184 -62c-22 -7 -28 3 -16 18
c0 0 157 180 158 181c2 3 6 3 6 3h69c7 0 9 -3 10 -4s153 -183 153 -183c14 -18 0 -24 -17 -18z" />
    <glyph glyph-name="Udieresis" unicode="&#xdc;" horiz-adv-x="698" 
d="M668 710c-1 -105 -3 -357 -2 -463c3 -357 -599 -358 -599 -3v1v256c0 168 -80 132 -71 160c12 34 69 75 128 75c86 0 163 -61 163 -160v-383v-2c0 -111 153 -114 153 1v517c0 5 4 6 4 6h220s4 -1 4 -5zM332 838c0 -48 -45 -86 -100 -86c-54 0 -99 38 -99 86s45 86 99 86
c55 0 100 -38 100 -86zM564 838c0 -48 -44 -86 -99 -86s-99 38 -99 86s44 86 99 86s99 -38 99 -86z" />
    <glyph glyph-name="Yacute" unicode="&#xdd;" horiz-adv-x="668" 
d="M664 615c0 -165 -134 -260 -223 -322v-85c5 -158 76 -124 66 -152c-12 -36 -74 -79 -134 -79c-81 0 -152 49 -152 173c0 67 0 103 -1 150l-219 408c-3 6 4 8 4 8h240s5 0 7 -6l123 -305c84 129 50 286 50 297c-2 43 233 97 239 -87zM478 935c-44 -86 -112 -147 -215 -183
c-3 -1 -6 -2 -8 -1c-18 14 -30 30 -41 49c-2 2 -1 5 1 7c70 70 103 120 126 213c1 2 3 3 6 2c53 -13 97 -41 129 -79c3 -2 3 -6 2 -8z" />
    <glyph glyph-name="germandbls" unicode="&#xdf;" horiz-adv-x="699" 
d="M547 349c80 -65 145 -112 151 -197c6 -87 -77 -174 -236 -175c-110 -1 -214 41 -214 130c0 49 37 95 95 95c33 0 73 -13 77 -21c6 -9 -3 -31 -3 -50c0 -100 152 -43 53 48c-84 77 -214 143 -207 243c5 81 97 107 96 173c-2 108 -145 100 -153 4c-4 -50 9 -42 18 -179
v-414c0 -5 -4 -6 -4 -6h-193s-4 1 -4 5v498c-19 139 93 242 271 242c91 1 206 -24 260 -95c103 -136 -175 -164 -7 -301z" />
    <glyph glyph-name="agrave" unicode="&#xe0;" horiz-adv-x="617" 
d="M562 201c0 -159 68 -125 58 -152c-10 -32 -64 -71 -120 -71c-69 0 -123 43 -136 114c-34 -65 -88 -113 -158 -113c-126 0 -196 139 -196 273c0 137 70 271 201 271c69 0 118 -39 149 -95v69c0 5 5 6 5 6h200s4 -1 4 -5c0 0 -7 -228 -7 -297zM291 117c49 0 75 60 75 135
s-26 136 -75 136s-75 -61 -75 -136s26 -135 75 -135zM175 735c-1 2 -1 6 2 8c32 38 76 66 129 79c3 1 5 0 6 -2c23 -93 56 -143 126 -213c2 -2 3 -5 1 -7c-11 -19 -23 -35 -41 -49c-2 -1 -5 0 -8 1c-103 36 -171 97 -215 183z" />
    <glyph glyph-name="aacute" unicode="&#xe1;" horiz-adv-x="617" 
d="M562 201c0 -159 68 -125 58 -152c-10 -32 -64 -71 -120 -71c-69 0 -123 43 -136 114c-34 -65 -88 -113 -158 -113c-126 0 -196 139 -196 273c0 137 70 271 201 271c69 0 118 -39 149 -95v69c0 5 5 6 5 6h200s4 -1 4 -5c0 0 -7 -228 -7 -297zM291 117c49 0 75 60 75 135
s-26 136 -75 136s-75 -61 -75 -136s26 -135 75 -135zM454 735c-44 -86 -112 -147 -215 -183c-3 -1 -6 -2 -8 -1c-18 14 -30 30 -41 49c-2 2 -1 5 1 7c70 70 103 120 126 213c1 2 3 3 6 2c53 -13 97 -41 129 -79c3 -2 3 -6 2 -8z" />
    <glyph glyph-name="acircumflex" unicode="&#xe2;" horiz-adv-x="617" 
d="M562 201c0 -159 68 -125 58 -152c-10 -32 -64 -71 -120 -71c-69 0 -123 43 -136 114c-34 -65 -88 -113 -158 -113c-126 0 -196 139 -196 273c0 137 70 271 201 271c69 0 118 -39 149 -95v69c0 5 5 6 5 6h200s4 -1 4 -5c0 0 -7 -228 -7 -297zM291 117c49 0 75 60 75 135
s-26 136 -75 136s-75 -61 -75 -136s26 -135 75 -135zM488 553l-179 65l-184 -62c-22 -7 -28 3 -16 18c0 0 157 180 158 181c2 3 6 3 6 3h69c7 0 9 -3 10 -4s153 -183 153 -183c14 -18 0 -24 -17 -18z" />
    <glyph glyph-name="atilde" unicode="&#xe3;" horiz-adv-x="617" 
d="M562 201c0 -159 68 -125 58 -152c-10 -32 -64 -71 -120 -71c-69 0 -123 43 -136 114c-34 -65 -88 -113 -158 -113c-126 0 -196 139 -196 273c0 137 70 271 201 271c69 0 118 -39 149 -95v69c0 5 5 6 5 6h200s4 -1 4 -5c0 0 -7 -228 -7 -297zM291 117c49 0 75 60 75 135
s-26 136 -75 136s-75 -61 -75 -136s26 -135 75 -135zM553 726c24 3 42 -193 -164 -175c-77 8 -150 64 -207 66c-77 3 -95 -56 -110 -57c-24 -4 -11 175 155 169c90 -3 145 -58 224 -61c64 -2 87 56 102 58z" />
    <glyph glyph-name="adieresis" unicode="&#xe4;" horiz-adv-x="617" 
d="M562 201c0 -159 68 -125 58 -152c-10 -32 -64 -71 -120 -71c-69 0 -123 43 -136 114c-34 -65 -88 -113 -158 -113c-126 0 -196 139 -196 273c0 137 70 271 201 271c69 0 118 -39 149 -95v69c0 5 5 6 5 6h200s4 -1 4 -5c0 0 -7 -228 -7 -297zM291 117c49 0 75 60 75 135
s-26 136 -75 136s-75 -61 -75 -136s26 -135 75 -135zM298 638c0 -48 -45 -86 -100 -86c-54 0 -99 38 -99 86s45 86 99 86c55 0 100 -38 100 -86zM530 638c0 -48 -44 -86 -99 -86s-99 38 -99 86s44 86 99 86s99 -38 99 -86z" />
    <glyph glyph-name="aring" unicode="&#xe5;" horiz-adv-x="617" 
d="M562 201c0 -159 68 -125 58 -152c-10 -32 -64 -71 -120 -71c-69 0 -123 43 -136 114c-34 -65 -88 -113 -158 -113c-126 0 -196 139 -196 273c0 137 70 271 201 271c69 0 118 -39 149 -95v69c0 5 5 6 5 6h200s4 -1 4 -5c0 0 -7 -228 -7 -297zM291 117c49 0 75 60 75 135
s-26 136 -75 136s-75 -61 -75 -136s26 -135 75 -135zM439 675c0 -68 -58 -124 -130 -124s-131 56 -131 124s59 123 131 123s130 -55 130 -123zM309 731c-28 0 -49 -23 -49 -56s23 -59 49 -59c27 0 48 26 48 59s-21 56 -48 56z" />
    <glyph glyph-name="ae" unicode="&#xe6;" horiz-adv-x="1134" 
d="M1118 155c4 -3 6 -7 3 -16c-11 -42 -94 -160 -240 -160c-77 0 -145 31 -195 82c-43 -51 -91 -82 -179 -83c-75 -1 -132 58 -143 114c-34 -65 -88 -113 -158 -113c-126 0 -196 139 -196 273c0 137 70 271 201 271c69 0 118 -39 149 -95v69c0 5 5 6 5 6h199s4 -1 4 -5
c0 0 -2 -225 -4 -298c0 -82 37 -89 69 -62c-15 35 -24 73 -24 114c0 146 113 272 285 272c164 0 235 -103 235 -174c0 -157 -183 -176 -314 -154c35 -100 168 -110 290 -42c4 3 9 4 13 1zM291 117c49 0 75 60 75 135s-26 136 -75 136s-75 -61 -75 -136s26 -135 75 -135z
M859 401c-33 -20 -48 -68 -52 -117c89 -8 133 25 133 79c0 27 -22 50 -53 48c0 0 0 -1 -1 -1h-3c-7 -1 -16 -4 -24 -9z" />
    <glyph glyph-name="ccedilla" unicode="&#xe7;" horiz-adv-x="521" 
d="M512 155c3 -3 5 -7 3 -16c-12 -42 -86 -160 -232 -160c-152 0 -273 122 -273 273c0 146 112 265 265 272v0c112 0 224 -45 224 -140c1 -48 -38 -100 -97 -100c-33 0 -66 11 -70 17c-5 9 -1 21 -1 41c0 41 -20 69 -48 69c-54 0 -80 -85 -73 -159c16 -179 186 -159 288 -98
c4 3 10 4 14 1zM270 5h13c3 0 3 -3 3 -3v-74c187 25 206 -206 24 -194c-96 5 -149 77 -134 79c7 2 162 -55 159 26c-2 33 -54 47 -136 26c-2 0 -4 2 -3 4c9 18 61 118 70 133c2 3 4 3 4 3z" />
    <glyph glyph-name="egrave" unicode="&#xe8;" horiz-adv-x="540" 
d="M519 155c4 -3 6 -7 3 -16c-11 -42 -94 -160 -240 -160c-151 0 -272 122 -272 273c0 146 113 272 285 272c164 0 235 -103 235 -174c0 -157 -183 -176 -314 -154c35 -100 168 -110 290 -42c4 3 9 4 13 1zM260 401c-33 -20 -48 -68 -52 -117c89 -8 133 25 133 79
c0 27 -22 50 -53 48c0 0 0 -1 -1 -1v0h-3c-7 -1 -16 -4 -24 -9v0zM128 735c-1 2 -1 6 2 8c32 38 76 66 129 79c3 1 5 0 6 -2c23 -93 56 -143 126 -213c2 -2 3 -5 1 -7c-11 -19 -23 -35 -41 -49c-2 -1 -5 0 -8 1c-103 36 -171 97 -215 183z" />
    <glyph glyph-name="eacute" unicode="&#xe9;" horiz-adv-x="540" 
d="M519 155c4 -3 6 -7 3 -16c-11 -42 -94 -160 -240 -160c-151 0 -272 122 -272 273c0 146 113 272 285 272c164 0 235 -103 235 -174c0 -157 -183 -176 -314 -154c35 -100 168 -110 290 -42c4 3 9 4 13 1zM260 401c-33 -20 -48 -68 -52 -117c89 -8 133 25 133 79
c0 27 -22 50 -53 48c0 0 0 -1 -1 -1v0h-3c-7 -1 -16 -4 -24 -9v0zM413 735c-44 -86 -112 -147 -215 -183c-3 -1 -6 -2 -8 -1c-18 14 -30 30 -41 49c-2 2 -1 5 1 7c70 70 103 120 126 213c1 2 3 3 6 2c53 -13 97 -41 129 -79c3 -2 3 -6 2 -8z" />
    <glyph glyph-name="ecircumflex" unicode="&#xea;" horiz-adv-x="540" 
d="M519 155c4 -3 6 -7 3 -16c-11 -42 -94 -160 -240 -160c-151 0 -272 122 -272 273c0 146 113 272 285 272c164 0 235 -103 235 -174c0 -157 -183 -176 -314 -154c35 -100 168 -110 290 -42c4 3 9 4 13 1zM260 401c-33 -20 -48 -68 -52 -117c89 -8 133 25 133 79
c0 27 -22 50 -53 48c0 0 0 -1 -1 -1v0h-3c-7 -1 -16 -4 -24 -9v0zM463 553l-179 65l-184 -62c-22 -7 -28 3 -16 18c0 0 157 180 158 181c2 3 6 3 6 3h69c7 0 9 -3 10 -4s153 -183 153 -183c14 -18 0 -24 -17 -18z" />
    <glyph glyph-name="edieresis" unicode="&#xeb;" horiz-adv-x="540" 
d="M255 638c0 -48 -44 -86 -99 -86s-99 38 -99 86s44 86 99 86s99 -38 99 -86zM488 638c0 -48 -44 -86 -99 -86s-99 38 -99 86s44 86 99 86s99 -38 99 -86zM519 155c4 -3 6 -7 3 -16c-11 -42 -94 -160 -240 -160c-151 0 -272 122 -272 273c0 146 113 272 285 272
c164 0 235 -103 235 -174c0 -157 -183 -176 -314 -154c35 -100 168 -110 290 -42c4 3 9 4 13 1zM260 401c-33 -20 -48 -68 -52 -117c89 -8 133 25 133 79c0 27 -22 50 -53 48c0 0 0 -1 -1 -1v0h-3c-7 -1 -16 -4 -24 -9v0z" />
    <glyph glyph-name="igrave" unicode="&#xec;" horiz-adv-x="286" 
d="M256 6c0 -5 -4 -6 -4 -6h-200s-5 1 -5 5c0 0 8 228 8 297c0 159 -68 125 -59 152c11 32 65 71 121 71c81 0 139 -58 139 -152v-367zM10 735c-1 2 -1 6 2 8c32 38 76 66 129 79c3 1 5 0 6 -2c23 -93 56 -143 126 -213c2 -2 3 -5 1 -7c-11 -19 -23 -35 -41 -49
c-2 -1 -5 0 -8 1c-103 36 -171 97 -215 183z" />
    <glyph glyph-name="iacute" unicode="&#xed;" horiz-adv-x="286" 
d="M256 6c0 -5 -4 -6 -4 -6h-200s-5 1 -5 5c0 0 8 228 8 297c0 159 -68 125 -59 152c11 32 65 71 121 71c81 0 139 -58 139 -152v-367zM275 735c-44 -86 -112 -147 -215 -183c-3 -1 -6 -2 -8 -1c-18 14 -30 30 -41 49c-2 2 -1 5 1 7c70 70 103 120 126 213c1 2 3 3 6 2
c53 -13 97 -41 129 -79c3 -2 3 -6 2 -8z" />
    <glyph glyph-name="icircumflex" unicode="&#xee;" horiz-adv-x="286" 
d="M256 6c0 -5 -4 -6 -4 -6h-200s-5 1 -5 5c0 0 8 228 8 297c0 159 -68 125 -59 152c11 32 65 71 121 71c81 0 139 -58 139 -152v-367zM323 553l-179 65l-184 -62c-22 -7 -28 3 -16 18c0 0 157 180 158 181c2 3 6 3 6 3h69c7 0 9 -3 10 -4s153 -183 153 -183
c14 -18 0 -24 -17 -18z" />
    <glyph glyph-name="idieresis" unicode="&#xef;" horiz-adv-x="286" 
d="M256 6c0 -5 -4 -6 -4 -6h-200s-5 1 -5 5c0 0 8 228 8 297c0 159 -68 125 -59 152c11 32 65 71 121 71c81 0 139 -58 139 -152v-367zM127 638c0 -48 -45 -86 -100 -86c-54 0 -99 38 -99 86s45 86 99 86c55 0 100 -38 100 -86zM359 638c0 -48 -44 -86 -99 -86
s-99 38 -99 86s44 86 99 86s99 -38 99 -86z" />
    <glyph glyph-name="ntilde" unicode="&#xf1;" horiz-adv-x="622" 
d="M559 204c0 -159 77 -125 67 -153c-11 -31 -65 -70 -121 -70c-80 0 -147 58 -147 152v194c0 100 -101 65 -102 -53v-268c0 -5 -5 -6 -5 -6h-200s-4 1 -4 5c0 0 8 228 8 297c0 159 -69 125 -59 152c10 32 64 71 120 71c70 0 124 -44 137 -117c44 86 116 117 169 117
c75 0 138 -65 138 -165c0 -42 -1 -81 -1 -156zM542 726c24 3 42 -193 -164 -175c-77 8 -150 64 -207 66c-77 3 -95 -56 -110 -57c-24 -4 -11 175 155 169c90 -3 145 -58 224 -61c64 -2 87 56 102 58z" />
    <glyph glyph-name="ograve" unicode="&#xf2;" horiz-adv-x="580" 
d="M570 249c0 -151 -116 -272 -280 -272c-161 0 -280 121 -280 272c0 150 119 272 280 272s280 -122 280 -272zM207 249c0 -84 25 -159 83 -159c60 0 83 71 83 159c0 86 -25 159 -83 159c-59 0 -83 -73 -83 -159zM157 735c-1 2 -1 6 2 8c32 38 76 66 129 79c3 1 5 0 6 -2
c23 -93 56 -143 126 -213c2 -2 3 -5 1 -7c-11 -19 -23 -35 -41 -49c-2 -1 -5 0 -8 1c-103 36 -171 97 -215 183z" />
    <glyph glyph-name="oacute" unicode="&#xf3;" horiz-adv-x="580" 
d="M570 249c0 -151 -116 -272 -280 -272c-161 0 -280 121 -280 272c0 150 119 272 280 272s280 -122 280 -272zM207 249c0 -84 25 -159 83 -159c60 0 83 71 83 159c0 86 -25 159 -83 159c-59 0 -83 -73 -83 -159zM422 735c-44 -86 -112 -147 -215 -183c-3 -1 -6 -2 -8 -1
c-18 14 -30 30 -41 49c-2 2 -1 5 1 7c70 70 103 120 126 213c1 2 3 3 6 2c53 -13 97 -41 129 -79c3 -2 3 -6 2 -8z" />
    <glyph glyph-name="ocircumflex" unicode="&#xf4;" horiz-adv-x="580" 
d="M570 249c0 -151 -116 -272 -280 -272c-161 0 -280 121 -280 272c0 150 119 272 280 272s280 -122 280 -272zM207 249c0 -84 25 -159 83 -159c60 0 83 71 83 159c0 86 -25 159 -83 159c-59 0 -83 -73 -83 -159zM470 553l-179 65l-184 -62c-22 -7 -28 3 -16 18
c0 0 157 180 158 181c2 3 6 3 6 3h69c7 0 9 -3 10 -4s153 -183 153 -183c14 -18 0 -24 -17 -18z" />
    <glyph glyph-name="otilde" unicode="&#xf5;" horiz-adv-x="580" 
d="M570 249c0 -151 -116 -272 -280 -272c-161 0 -280 121 -280 272c0 150 119 272 280 272s280 -122 280 -272zM207 249c0 -84 25 -159 83 -159c60 0 83 71 83 159c0 86 -25 159 -83 159c-59 0 -83 -73 -83 -159zM539 726c24 3 42 -193 -164 -175c-77 8 -150 64 -207 66
c-77 3 -95 -56 -110 -57c-24 -4 -11 175 155 169c90 -3 145 -58 224 -61c64 -2 87 56 102 58z" />
    <glyph glyph-name="odieresis" unicode="&#xf6;" horiz-adv-x="580" 
d="M570 249c0 -151 -116 -272 -280 -272c-161 0 -280 121 -280 272c0 150 119 272 280 272s280 -122 280 -272zM207 249c0 -84 25 -159 83 -159c60 0 83 71 83 159c0 86 -25 159 -83 159c-59 0 -83 -73 -83 -159zM273 638c0 -48 -45 -86 -100 -86c-54 0 -99 38 -99 86
s45 86 99 86c55 0 100 -38 100 -86zM505 638c0 -48 -44 -86 -99 -86s-99 38 -99 86s44 86 99 86s99 -38 99 -86z" />
    <glyph glyph-name="divide" unicode="&#xf7;" horiz-adv-x="500" 
d="M250 164c41 0 75 -33 75 -74s-34 -75 -75 -75s-75 34 -75 75s34 74 75 74zM250 327c-41 0 -75 33 -75 74c0 42 34 75 75 75s75 -33 75 -75c0 -41 -34 -74 -75 -74zM466 289v-88s0 -3 -4 -3c-108 -1 -428 0 -428 0c-4 0 -5 4 -5 4v86s1 5 6 5h427c5 0 4 -4 4 -4z" />
    <glyph glyph-name="oslash" unicode="&#xf8;" horiz-adv-x="570" 
d="M565 249c0 -151 -116 -272 -280 -272c-35 0 -67 6 -97 16l-43 -95c-3 -4 -6 -3 -6 -3h-72s-3 -1 0 3c3 7 31 54 68 119c-80 48 -130 133 -130 232c0 150 119 272 280 272c35 0 68 -6 98 -17l39 86c2 4 6 4 6 4h71s3 0 0 -4c0 0 -28 -45 -64 -110
c80 -48 130 -134 130 -231zM202 249c0 -31 3 -60 10 -85l116 226c-11 11 -26 18 -43 18c-59 0 -83 -73 -83 -159zM368 249c0 30 -3 59 -10 83l-115 -225c11 -11 25 -17 42 -17c60 0 83 71 83 159z" />
    <glyph glyph-name="ugrave" unicode="&#xf9;" 
d="M560 201c0 -159 68 -125 59 -152c-11 -32 -65 -71 -121 -71c-69 0 -122 43 -136 115c-42 -85 -109 -115 -162 -115c-74 0 -137 65 -137 165v156c0 159 -76 125 -67 152c11 32 65 71 121 71c81 0 148 -58 148 -152v-194c0 -98 90 -66 94 46v275c0 5 4 6 4 6h201s4 -1 4 -5
c0 0 -8 -228 -8 -297zM165 735c-1 2 -1 6 2 8c32 38 76 66 129 79c3 1 5 0 6 -2c23 -93 56 -143 126 -213c2 -2 3 -5 1 -7c-11 -19 -23 -35 -41 -49c-2 -1 -5 0 -8 1c-103 36 -171 97 -215 183z" />
    <glyph glyph-name="uacute" unicode="&#xfa;" 
d="M560 201c0 -159 68 -125 59 -152c-11 -32 -65 -71 -121 -71c-69 0 -122 43 -136 115c-42 -85 -109 -115 -162 -115c-74 0 -137 65 -137 165v156c0 159 -76 125 -67 152c11 32 65 71 121 71c81 0 148 -58 148 -152v-194c0 -98 90 -66 94 46v275c0 5 4 6 4 6h201s4 -1 4 -5
c0 0 -8 -228 -8 -297zM447 735c-44 -86 -112 -147 -215 -183c-3 -1 -6 -2 -8 -1c-18 14 -30 30 -41 49c-2 2 -1 5 1 7c70 70 103 120 126 213c1 2 3 3 6 2c53 -13 97 -41 129 -79c3 -2 3 -6 2 -8z" />
    <glyph glyph-name="ucircumflex" unicode="&#xfb;" 
d="M560 201c0 -159 68 -125 59 -152c-11 -32 -65 -71 -121 -71c-69 0 -122 43 -136 115c-42 -85 -109 -115 -162 -115c-74 0 -137 65 -137 165v156c0 159 -76 125 -67 152c11 32 65 71 121 71c81 0 148 -58 148 -152v-194c0 -98 90 -66 94 46v275c0 5 4 6 4 6h201s4 -1 4 -5
c0 0 -8 -228 -8 -297zM487 553l-179 65l-184 -62c-22 -7 -28 3 -16 18c0 0 157 180 158 181c2 3 6 3 6 3h69c7 0 9 -3 10 -4s153 -183 153 -183c14 -18 0 -24 -17 -18z" />
    <glyph glyph-name="udieresis" unicode="&#xfc;" 
d="M560 201c0 -159 68 -125 59 -152c-11 -32 -65 -71 -121 -71c-69 0 -122 43 -136 115c-42 -85 -109 -115 -162 -115c-74 0 -137 65 -137 165v156c0 159 -76 125 -67 152c11 32 65 71 121 71c81 0 148 -58 148 -152v-194c0 -98 90 -66 94 46v275c0 5 4 6 4 6h201s4 -1 4 -5
c0 0 -8 -228 -8 -297zM291 638c0 -48 -45 -86 -100 -86c-54 0 -99 38 -99 86s45 86 99 86c55 0 100 -38 100 -86zM523 638c0 -48 -44 -86 -99 -86s-99 38 -99 86s44 86 99 86s99 -38 99 -86z" />
    <glyph glyph-name="yacute" unicode="&#xfd;" horiz-adv-x="595" 
d="M564 71c6 -173 -91 -297 -276 -297c-146 0 -213 98 -225 136c-16 49 -6 58 5 56c24 -4 53 -80 165 -80c80 0 126 54 129 114v100c-41 -86 -109 -116 -162 -116c-74 0 -137 65 -137 165v150c0 159 -76 125 -67 152c11 32 65 71 121 71c81 0 147 -58 147 -152v-188
c0 -100 94 -65 96 52v263c0 5 4 5 4 5h193s4 0 4 -5c0 0 3 -293 3 -426v0zM439 735c-44 -86 -112 -147 -215 -183c-3 -1 -6 -2 -8 -1c-18 14 -30 30 -41 49c-2 2 -1 5 1 7c70 70 103 120 126 213c1 2 3 3 6 2c53 -13 97 -41 129 -79c3 -2 3 -6 2 -8z" />
    <glyph glyph-name="ydieresis" unicode="&#xff;" horiz-adv-x="595" 
d="M294 638c0 -48 -44 -86 -99 -86s-99 38 -99 86s44 86 99 86s99 -38 99 -86zM527 638c0 -48 -44 -86 -99 -86s-99 38 -99 86s44 86 99 86s99 -38 99 -86zM564 73c6 -173 -91 -297 -276 -297c-146 0 -213 98 -225 136c-16 49 -6 58 5 56c24 -4 53 -78 165 -78
c80 0 126 64 129 124v100c-41 -86 -109 -116 -162 -116c-74 0 -137 65 -137 165v136c0 159 -76 125 -67 152c11 32 65 71 121 71c81 0 147 -58 147 -152v-174c0 -100 94 -65 96 52v249c0 5 4 5 4 5h193s4 0 4 -5c0 0 3 -291 3 -424z" />
    <glyph glyph-name="Amacron" unicode="&#x100;" horiz-adv-x="689" 
d="M504 862v-88s0 -3 -4 -3c-108 -1 -344 0 -344 0c-4 0 -5 4 -5 4v86s1 5 6 5h343c5 0 4 -4 4 -4zM683 5c2 -5 -3 -5 -3 -5h-226s-5 0 -6 5l-25 106h-177c-12 -63 -22 -106 -22 -106c-2 -5 -7 -5 -7 -5h-209s-5 0 -2 5c0 0 172 538 172 539c41 105 -13 107 -5 130
c13 39 85 69 143 69c73 0 147 -48 186 -157c42 -118 181 -581 181 -581zM274 246h117l-59 290c-18 -73 -39 -199 -58 -290z" />
    <glyph glyph-name="amacron" unicode="&#x101;" horiz-adv-x="617" 
d="M499 657v-88s0 -3 -4 -3c-108 -1 -344 0 -344 0c-4 0 -5 4 -5 4v86s1 5 6 5h343c5 0 4 -4 4 -4zM562 201c0 -159 68 -125 58 -152c-10 -32 -64 -71 -120 -71c-69 0 -123 43 -136 114c-34 -65 -88 -113 -158 -113c-126 0 -196 139 -196 273c0 137 70 271 201 271
c69 0 118 -39 149 -95v69c0 5 5 6 5 6h200s4 -1 4 -5c0 0 -7 -228 -7 -297zM291 117c49 0 75 60 75 135s-26 136 -75 136s-75 -61 -75 -136s26 -135 75 -135z" />
    <glyph glyph-name="Abreve" unicode="&#x102;" horiz-adv-x="689" 
d="M683 5c2 -5 -3 -5 -3 -5h-226s-5 0 -6 5l-25 106h-177c-12 -63 -22 -106 -22 -106c-2 -5 -7 -5 -7 -5h-209s-5 0 -2 5c0 0 172 538 172 539c41 105 -13 107 -5 130c13 39 85 69 143 69c73 0 147 -48 186 -157c42 -118 181 -581 181 -581zM274 246h117l-59 290
c-18 -73 -39 -199 -58 -290zM544 937c17 -9 2 -43 -8 -62c-38 -75 -115 -121 -192 -121c-76 0 -155 46 -193 121c-9 19 -24 53 -8 62c15 8 60 -71 201 -71c145 0 185 79 200 71z" />
    <glyph glyph-name="abreve" unicode="&#x103;" horiz-adv-x="617" 
d="M562 201c0 -159 68 -125 58 -152c-10 -32 -64 -71 -120 -71c-69 0 -123 43 -136 114c-34 -65 -88 -113 -158 -113c-126 0 -196 139 -196 273c0 137 70 271 201 271c69 0 118 -39 149 -95v69c0 5 5 6 5 6h200s4 -1 4 -5c0 0 -7 -228 -7 -297zM291 117c49 0 75 60 75 135
s-26 136 -75 136s-75 -61 -75 -136s26 -135 75 -135zM508 737c17 -9 2 -43 -8 -62c-38 -75 -115 -121 -192 -121c-76 0 -155 46 -193 121c-9 19 -24 53 -8 62c15 8 60 -71 201 -71c145 0 185 79 200 71z" />
    <glyph glyph-name="Aogonek" unicode="&#x104;" horiz-adv-x="689" 
d="M683 5c2 -5 -3 -5 -3 -5h-226s-5 0 -6 5l-25 106h-177c-12 -63 -22 -106 -22 -106c-2 -5 -7 -5 -7 -5h-209s-5 0 -2 5c0 0 172 538 172 539c41 105 -13 107 -5 130c13 39 85 69 143 69c73 0 147 -48 186 -157c42 -118 181 -581 181 -581zM274 246h117l-59 290
c-18 -73 -39 -199 -58 -290zM441 -162c8 159 196 187 187 171c-11 -19 -65 -68 -65 -129c0 -25 11 -45 49 -45c26 0 46 14 49 8c24 -41 -23 -114 -95 -120c-95 -7 -127 81 -125 115z" />
    <glyph glyph-name="aogonek" unicode="&#x105;" horiz-adv-x="617" 
d="M562 201c0 -159 68 -125 58 -152c-10 -32 -64 -71 -120 -71c-69 0 -123 43 -136 114c-34 -65 -88 -113 -158 -113c-126 0 -196 139 -196 273c0 137 70 271 201 271c69 0 118 -39 149 -95v69c0 5 5 6 5 6h200s4 -1 4 -5c0 0 -7 -228 -7 -297zM291 117c49 0 75 60 75 135
s-26 136 -75 136s-75 -61 -75 -136s26 -135 75 -135zM373 -182c8 159 196 187 187 171c-11 -19 -65 -68 -65 -129c0 -25 11 -45 49 -45c26 0 46 14 49 8c24 -41 -23 -114 -95 -120c-95 -7 -127 81 -125 115z" />
    <glyph glyph-name="Cacute" unicode="&#x106;" horiz-adv-x="642" 
d="M623 198c20 17 22 1 16 -23c-9 -39 -74 -192 -280 -196c-198 -4 -349 176 -349 382c0 199 141 375 350 376c157 2 267 -75 267 -183c0 -53 -39 -114 -111 -114c-44 0 -79 16 -77 36c9 65 -7 135 -74 135c-91 0 -138 -157 -125 -258c32 -258 259 -266 383 -155zM475 935
c-44 -86 -112 -147 -215 -183c-3 -1 -6 -2 -8 -1c-18 14 -30 30 -41 49c-2 2 -1 5 1 7c70 70 103 120 126 213c1 2 3 3 6 2c53 -13 97 -41 129 -79c3 -2 3 -6 2 -8z" />
    <glyph glyph-name="cacute" unicode="&#x107;" horiz-adv-x="521" 
d="M512 155c3 -3 5 -7 3 -16c-12 -42 -86 -160 -232 -160c-152 0 -273 122 -273 273c0 146 112 265 265 272v0c112 0 224 -45 224 -140c1 -48 -38 -100 -97 -100c-33 0 -66 11 -70 17c-5 9 -1 21 -1 41c0 41 -20 69 -48 69c-54 0 -80 -85 -73 -159c16 -179 186 -159 288 -98
c4 3 10 4 14 1zM395 735c-44 -86 -112 -147 -215 -183c-3 -1 -6 -2 -8 -1c-18 14 -30 30 -41 49c-2 2 -1 5 1 7c70 70 103 120 126 213c1 2 3 3 6 2c53 -13 97 -41 129 -79c3 -2 3 -6 2 -8z" />
    <glyph glyph-name="Ccaron" unicode="&#x10c;" horiz-adv-x="642" 
d="M623 198c20 17 22 1 16 -23c-9 -39 -74 -192 -280 -196c-198 -4 -349 176 -349 382c0 199 141 375 350 376c157 2 267 -75 267 -183c0 -53 -39 -114 -111 -114c-44 0 -79 16 -77 36c9 65 -7 135 -74 135c-91 0 -138 -157 -125 -258c32 -258 259 -266 383 -155zM531 970
c17 6 31 0 17 -18c0 0 -152 -182 -153 -183s-3 -4 -10 -4h-69s-4 0 -6 3c-1 1 -158 181 -158 181c-12 15 -6 25 16 18l184 -62z" />
    <glyph glyph-name="ccaron" unicode="&#x10d;" horiz-adv-x="521" 
d="M512 155c3 -3 5 -7 3 -16c-12 -42 -86 -160 -232 -160c-152 0 -273 122 -273 273c0 146 112 265 265 272v0c112 0 224 -45 224 -140c1 -48 -38 -100 -97 -100c-33 0 -66 11 -70 17c-5 9 -1 21 -1 41c0 41 -20 69 -48 69c-54 0 -80 -85 -73 -159c16 -179 186 -159 288 -98
c4 3 10 4 14 1zM440 760c17 6 31 0 17 -18c0 0 -152 -182 -153 -183s-3 -4 -10 -4h-69s-4 0 -6 3c-1 1 -158 181 -158 181c-12 15 -6 25 16 18l184 -62z" />
    <glyph glyph-name="Dcaron" unicode="&#x10e;" horiz-adv-x="657" 
d="M649 356c0 -210 -125 -379 -360 -379c-164 0 -254 30 -254 30c-1 0 -5 1 -5 6v686c0 5 4 6 5 6c0 0 90 28 254 28c218 0 360 -167 360 -377zM250 624v-537c124 -6 178 133 178 274c0 121 -52 282 -178 263zM473 970c17 6 31 0 17 -18c0 0 -152 -182 -153 -183
s-3 -4 -10 -4h-69s-4 0 -6 3c-1 1 -158 181 -158 181c-12 15 -6 25 16 18l184 -62z" />
    <glyph glyph-name="dcaron" unicode="&#x10f;" horiz-adv-x="776" 
d="M559 202c0 -159 61 -125 51 -152c-10 -32 -64 -71 -120 -71c-69 0 -122 43 -136 114c-34 -66 -88 -114 -158 -114c-126 0 -196 139 -196 273c0 137 69 271 201 271c69 0 118 -39 149 -95v286c0 5 5 5 5 5h200s4 0 4 -4v-513zM281 117c49 0 75 60 75 135s-26 136 -75 136
s-76 -61 -76 -136s27 -135 76 -135zM768 628c0 -98 -77 -149 -108 -160c-39 -14 -46 -6 -46 2s7 15 16 23c36 34 38 51 20 57c-34 14 -58 45 -58 84c0 48 39 88 88 88c47 0 88 -40 88 -94z" />
    <glyph glyph-name="Dcroat" unicode="&#x110;" horiz-adv-x="703" 
d="M695 356c0 -210 -125 -379 -360 -379c-164 0 -254 30 -254 30c-1 0 -5 1 -5 6v309c-30 0 -65 1 -65 1c-5 0 -5 4 -5 4v67s0 5 5 5h65v300c0 5 4 6 5 6c0 0 90 28 254 28c218 0 360 -167 360 -377zM296 624v-225h97c5 0 5 -4 5 -4v-69s0 -3 -4 -3c-25 0 -61 -1 -98 -1
v-235c124 -6 178 133 178 274c0 121 -52 282 -178 263z" />
    <glyph glyph-name="dcroat" unicode="&#x111;" horiz-adv-x="607" 
d="M559 202c0 -159 61 -125 51 -152c-10 -32 -64 -71 -120 -71c-69 0 -122 43 -136 114c-34 -66 -88 -114 -158 -114c-126 0 -196 139 -196 273c0 137 69 271 201 271c69 0 118 -39 149 -95v138c-64 0 -114 1 -114 1c-5 0 -5 4 -5 4v67s0 5 5 5h114v71c0 5 5 5 5 5h200
s4 0 4 -4v-72h59c5 0 5 -4 5 -4v-69s0 -3 -4 -3c-17 0 -38 -1 -60 -1v-364zM281 117c49 0 75 60 75 135s-26 136 -75 136s-76 -61 -76 -136s27 -135 76 -135z" />
    <glyph glyph-name="Emacron" unicode="&#x112;" horiz-adv-x="541" 
d="M448 862v-88s0 -3 -4 -3c-108 -1 -344 0 -344 0c-4 0 -5 4 -5 4v86s1 5 6 5h343c5 0 4 -4 4 -4zM511 171c20 13 28 0 24 -24c-8 -51 -86 -169 -249 -169c-171 0 -256 133 -256 272l1 461c0 5 6 5 6 5h477s6 0 8 -5c0 0 39 -119 -76 -165c-73 -29 -192 -2 -192 -2
c0 -20 -1 -81 -1 -132h165s6 0 5 -5v-100c0 -5 -6 -5 -6 -5h-165v-72c4 -130 189 -104 259 -59z" />
    <glyph glyph-name="emacron" unicode="&#x113;" horiz-adv-x="540" 
d="M454 657v-88s0 -3 -4 -3c-108 -1 -344 0 -344 0c-4 0 -5 4 -5 4v86s1 5 6 5h343c5 0 4 -4 4 -4zM519 155c4 -3 6 -7 3 -16c-11 -42 -94 -160 -240 -160c-151 0 -272 122 -272 273c0 146 113 272 285 272c164 0 235 -103 235 -174c0 -157 -183 -176 -314 -154
c35 -100 168 -110 290 -42c4 3 9 4 13 1zM260 401c-33 -20 -48 -68 -52 -117c89 -8 133 25 133 79c0 27 -22 50 -53 48c0 0 0 -1 -1 -1v0h-3c-7 -1 -16 -4 -24 -9v0z" />
    <glyph glyph-name="Edotaccent" unicode="&#x116;" horiz-adv-x="541" 
d="M511 171c20 13 28 0 24 -24c-8 -51 -86 -169 -249 -169c-171 0 -256 133 -256 272l1 461c0 5 6 5 6 5h477s6 0 8 -5c0 0 39 -119 -76 -165c-73 -29 -192 -2 -192 -2c0 -20 -1 -81 -1 -132h165s6 0 5 -5v-100c0 -5 -6 -5 -6 -5h-165v-72c4 -130 189 -104 259 -59zM370 838
c0 -48 -45 -86 -100 -86c-54 0 -99 38 -99 86s45 86 99 86c55 0 100 -38 100 -86z" />
    <glyph glyph-name="edotaccent" unicode="&#x117;" horiz-adv-x="540" 
d="M519 155c4 -3 6 -7 3 -16c-11 -42 -94 -160 -240 -160c-151 0 -272 122 -272 273c0 146 113 272 285 272c164 0 235 -103 235 -174c0 -157 -183 -176 -314 -154c35 -100 168 -110 290 -42c4 3 9 4 13 1zM260 401c-33 -20 -48 -68 -52 -117c89 -8 133 25 133 79
c0 27 -22 50 -53 48c0 0 0 -1 -1 -1v0h-3c-7 -1 -16 -4 -24 -9v0zM369 638c0 -48 -45 -86 -100 -86c-54 0 -99 38 -99 86s45 86 99 86c55 0 100 -38 100 -86z" />
    <glyph glyph-name="Eogonek" unicode="&#x118;" horiz-adv-x="541" 
d="M511 171c20 13 28 0 24 -24c-8 -51 -86 -169 -249 -169c-171 0 -256 133 -256 272l1 461c0 5 6 5 6 5h477s6 0 8 -5c0 0 39 -119 -76 -165c-73 -29 -192 -2 -192 -2c0 -20 -1 -81 -1 -132h165s6 0 5 -5v-100c0 -5 -6 -5 -6 -5h-165v-72c4 -130 189 -104 259 -59z
M187 -182c8 159 196 187 187 171c-11 -19 -65 -68 -65 -129c0 -25 11 -45 49 -45c26 0 46 14 49 8c24 -41 -23 -114 -95 -120c-95 -7 -127 81 -125 115z" />
    <glyph glyph-name="eogonek" unicode="&#x119;" horiz-adv-x="540" 
d="M519 155c4 -3 6 -7 3 -16c-11 -42 -94 -160 -240 -160c-151 0 -272 122 -272 273c0 146 113 272 285 272c164 0 235 -103 235 -174c0 -157 -183 -176 -314 -154c35 -100 168 -110 290 -42c4 3 9 4 13 1zM260 401c-33 -20 -48 -68 -52 -117c89 -8 133 25 133 79
c0 27 -22 50 -53 48c0 0 0 -1 -1 -1v0h-3c-7 -1 -16 -4 -24 -9v0zM165 -182c8 159 196 187 187 171c-11 -19 -65 -68 -65 -129c0 -25 11 -45 49 -45c26 0 46 14 49 8c24 -41 -23 -114 -95 -120c-95 -7 -127 81 -125 115z" />
    <glyph glyph-name="Ecaron" unicode="&#x11a;" horiz-adv-x="541" 
d="M511 171c20 13 28 0 24 -24c-8 -51 -86 -169 -249 -169c-171 0 -256 133 -256 272l1 461c0 5 6 5 6 5h477s6 0 8 -5c0 0 39 -119 -76 -165c-73 -29 -192 -2 -192 -2c0 -20 -1 -81 -1 -132h165s6 0 5 -5v-100c0 -5 -6 -5 -6 -5h-165v-72c4 -130 189 -104 259 -59zM450 960
c17 6 31 0 17 -18c0 0 -152 -182 -153 -183s-3 -4 -10 -4h-69s-4 0 -6 3c-1 1 -158 181 -158 181c-12 15 -6 25 16 18l184 -62z" />
    <glyph glyph-name="ecaron" unicode="&#x11b;" horiz-adv-x="540" 
d="M519 155c4 -3 6 -7 3 -16c-11 -42 -94 -160 -240 -160c-151 0 -272 122 -272 273c0 146 113 272 285 272c164 0 235 -103 235 -174c0 -157 -183 -176 -314 -154c35 -100 168 -110 290 -42c4 3 9 4 13 1zM260 401c-33 -20 -48 -68 -52 -117c89 -8 133 25 133 79
c0 27 -22 50 -53 48c0 0 0 -1 -1 -1v0h-3c-7 -1 -16 -4 -24 -9v0zM461 760c17 6 31 0 17 -18c0 0 -152 -182 -153 -183s-3 -4 -10 -4h-69s-4 0 -6 3c-1 1 -158 181 -158 181c-12 15 -6 25 16 18l184 -62z" />
    <glyph glyph-name="Gbreve" unicode="&#x11e;" horiz-adv-x="657" 
d="M522 375c81 0 130 -58 130 -152c0 -10 -1 -86 -8 -142c0 -5 -3 -10 -6 -12c-27 -19 -110 -90 -274 -90c-199 0 -350 176 -350 383c0 200 141 376 351 377c158 2 268 -75 268 -183c0 -54 -39 -115 -111 -115c-45 0 -80 16 -78 36c9 65 -7 136 -74 136
c-91 0 -132 -157 -125 -259c4 -57 27 -232 193 -226c15 169 -48 149 -38 176c12 32 65 71 122 71zM568 947c17 -9 2 -43 -8 -62c-38 -75 -115 -121 -192 -121c-76 0 -155 46 -193 121c-9 19 -24 53 -8 62c15 8 60 -71 201 -71c145 0 185 79 200 71z" />
    <glyph glyph-name="gbreve" unicode="&#x11f;" horiz-adv-x="596" 
d="M565 56c6 -173 -91 -297 -276 -297c-146 0 -212 98 -225 136c-15 49 -6 58 5 56c24 -4 53 -78 165 -78c80 0 126 64 129 124v89c-33 -63 -88 -104 -157 -104c-126 0 -196 136 -196 270c0 137 69 271 201 271c69 0 119 -40 150 -97v71c0 5 4 5 4 5h193s4 0 4 -5
c0 0 3 -319 3 -441v0zM291 120c48 0 75 57 75 132s-27 136 -75 136c-49 0 -76 -61 -76 -136s27 -132 76 -132zM510 737c17 -9 2 -43 -8 -62c-38 -75 -115 -121 -192 -121c-76 0 -155 46 -193 121c-9 19 -24 53 -8 62c15 8 60 -71 201 -71c145 0 185 79 200 71z" />
    <glyph glyph-name="Gcommaaccent" unicode="&#x122;" horiz-adv-x="657" 
d="M467 -156c0 -110 -86 -167 -120 -179c-44 -15 -51 -7 -51 3c0 8 7 16 17 25c40 38 43 57 23 64c-38 15 -65 50 -65 93c0 54 44 98 98 98c53 0 98 -44 98 -104zM522 375c81 0 130 -58 130 -152c0 -10 -1 -86 -8 -142c0 -5 -3 -10 -6 -12c-27 -19 -110 -90 -274 -90
c-199 0 -350 176 -350 383c0 200 141 376 351 377c158 2 268 -75 268 -183c0 -54 -39 -115 -111 -115c-45 0 -80 16 -78 36c9 65 -7 136 -74 136c-91 0 -132 -157 -125 -259c4 -57 27 -232 193 -226c15 169 -48 149 -38 176c12 32 65 71 122 71z" />
    <glyph glyph-name="gcommaaccent" unicode="&#x123;" horiz-adv-x="596" 
d="M565 56c6 -173 -91 -297 -276 -297c-146 0 -212 98 -225 136c-15 49 -6 58 5 56c24 -4 53 -78 165 -78c80 0 126 64 129 124v89c-33 -63 -88 -104 -157 -104c-126 0 -196 136 -196 270c0 137 69 271 201 271c69 0 119 -40 150 -97v71c0 5 4 5 4 5h193s4 0 4 -5
c0 0 3 -319 3 -441v0zM291 120c48 0 75 57 75 132s-27 136 -75 136c-49 0 -76 -61 -76 -136s27 -132 76 -132zM210 780c0 98 77 149 108 160c39 14 45 6 45 -2s-6 -15 -15 -23c-36 -34 -38 -51 -20 -57c34 -14 58 -45 58 -84c0 -48 -40 -88 -88 -88s-88 40 -88 94z" />
    <glyph glyph-name="imacron" unicode="&#x12b;" horiz-adv-x="286" 
d="M304 657v-88s0 -3 -4 -3c-108 -1 -344 0 -344 0c-4 0 -5 4 -5 4v86s1 5 6 5h343c5 0 4 -4 4 -4zM256 6c0 -5 -4 -6 -4 -6h-200s-5 1 -5 5c0 0 8 228 8 297c0 159 -68 125 -59 152c11 32 65 71 121 71c81 0 139 -58 139 -152v-367z" />
    <glyph glyph-name="Iogonek" unicode="&#x12e;" horiz-adv-x="311" 
d="M133 739c78 0 148 -46 148 -160v-574c0 -5 -5 -5 -5 -5h-213s-5 0 -4 5c-1 478 0 542 0 543c-11 119 -72 92 -63 118c12 33 78 73 137 73zM53 -162c8 159 196 187 187 171c-11 -19 -65 -68 -65 -129c0 -25 11 -45 49 -45c26 0 46 14 49 8c24 -41 -23 -114 -95 -120
c-95 -7 -127 81 -125 115z" />
    <glyph glyph-name="iogonek" unicode="&#x12f;" horiz-adv-x="286" 
d="M256 6c0 -5 -4 -6 -4 -6h-200s-5 1 -5 5c0 0 8 228 8 297c0 159 -68 125 -59 152c11 32 65 71 121 71c81 0 139 -58 139 -152v-367zM249 645c0 -52 -53 -93 -117 -93s-116 41 -116 93c0 51 52 93 116 93s117 -42 117 -93zM32 -162c8 159 196 187 187 171
c-11 -19 -65 -68 -65 -129c0 -25 11 -45 49 -45c26 0 46 14 49 8c24 -41 -23 -114 -95 -120c-95 -7 -127 81 -125 115z" />
    <glyph glyph-name="dotlessi" unicode="&#x131;" horiz-adv-x="286" 
d="M256 6c0 -5 -4 -6 -4 -6h-200s-5 1 -5 5c0 0 8 228 8 297c0 159 -68 125 -59 152c11 32 65 71 121 71c81 0 139 -58 139 -152v-367z" />
    <glyph glyph-name="Kcommaaccent" unicode="&#x136;" horiz-adv-x="692" 
d="M442 -146c0 -110 -86 -167 -120 -179c-44 -15 -51 -7 -51 3c0 8 7 16 17 25c40 38 43 57 23 64c-38 15 -65 50 -65 93c0 54 44 98 98 98c53 0 98 -44 98 -104zM681 105c17 -6 -12 -114 -107 -125c-142 -16 -213 82 -247 229c-7 28 -14 77 -18 104c-8 -2 -20 -3 -28 -4
v-304c0 -5 -5 -5 -5 -5h-213s-5 0 -4 5c-1 478 0 542 0 543c-11 119 -72 92 -63 118c12 33 78 73 137 73c78 0 148 -46 148 -160v-163c108 0 157 173 80 261c-13 14 47 62 113 62c84 0 142 -71 142 -154c0 -102 -56 -171 -150 -220c2 -8 56 -200 215 -260z" />
    <glyph glyph-name="kcommaaccent" unicode="&#x137;" horiz-adv-x="601" 
d="M393 -146c0 -110 -86 -167 -120 -179c-44 -15 -51 -7 -51 3c0 8 7 16 17 25c40 38 43 57 23 64c-38 15 -65 50 -65 93c0 54 44 98 98 98c53 0 98 -44 98 -104zM593 66c16 -8 18 -13 1 -33c-23 -26 -79 -55 -134 -55c-171 0 -200 179 -201 243c0 14 4 22 11 22
c131 0 112 148 44 148c-60 0 -78 -60 -80 -106v-279c0 -5 -4 -6 -4 -6h-193s-4 1 -4 5c0 0 -3 602 -3 710c0 4 4 4 4 4h196s4 1 4 -4v-293c41 72 108 103 169 103c170 0 205 -254 22 -283v-2s42 -114 168 -174z" />
    <glyph glyph-name="Lacute" unicode="&#x139;" horiz-adv-x="529" 
d="M527 143c17 -138 -109 -180 -223 -164c-63 8 -139 21 -241 21c0 0 -5 0 -4 5c-1 478 0 542 0 543c-11 119 -72 92 -63 118c12 33 78 73 137 73c78 0 148 -46 148 -160v-423h17c210 0 186 50 204 36c13 -10 23 -31 25 -49zM297 935c-44 -86 -112 -147 -215 -183
c-3 -1 -6 -2 -8 -1c-18 14 -30 30 -41 49c-2 2 -1 5 1 7c70 70 103 120 126 213c1 2 3 3 6 2c53 -13 97 -41 129 -79c3 -2 3 -6 2 -8z" />
    <glyph glyph-name="lacute" unicode="&#x13a;" horiz-adv-x="295" 
d="M30 714c0 5 5 5 5 5h200s5 0 4 -5c0 0 1 -444 1 -513c0 -159 68 -125 59 -152c-11 -32 -73 -71 -129 -71c-81 0 -140 58 -140 152v584zM287 935c-44 -86 -112 -147 -215 -183c-3 -1 -6 -2 -8 -1c-18 14 -30 30 -41 49c-2 2 -1 5 1 7c70 70 103 120 126 213c1 2 3 3 6 2
c53 -13 97 -41 129 -79c3 -2 3 -6 2 -8z" />
    <glyph glyph-name="Lcommaaccent" unicode="&#x13b;" horiz-adv-x="529" 
d="M370 -156c0 -110 -86 -167 -120 -179c-44 -15 -51 -7 -51 3c0 8 7 16 17 25c40 38 43 57 23 64c-38 15 -65 50 -65 93c0 54 44 98 98 98c53 0 98 -44 98 -104zM527 143c17 -138 -109 -180 -223 -164c-63 8 -139 21 -241 21c0 0 -5 0 -4 5c-1 478 0 542 0 543
c-11 119 -72 92 -63 118c12 33 78 73 137 73c78 0 148 -46 148 -160v-423h17c210 0 186 50 204 36c13 -10 23 -31 25 -49z" />
    <glyph glyph-name="lcommaaccent" unicode="&#x13c;" horiz-adv-x="295" 
d="M253 -156c0 -110 -86 -167 -120 -179c-44 -15 -51 -7 -51 3c0 8 7 16 17 25c40 38 43 57 23 64c-38 15 -65 50 -65 93c0 54 44 98 98 98c53 0 98 -44 98 -104zM30 714c0 5 5 5 5 5h200s5 0 4 -5c0 0 1 -444 1 -513c0 -159 68 -125 59 -152c-11 -32 -73 -71 -129 -71
c-81 0 -140 58 -140 152v584z" />
    <glyph glyph-name="Lcaron" unicode="&#x13d;" horiz-adv-x="529" 
d="M527 143c17 -138 -109 -180 -223 -164c-63 8 -139 21 -241 21c0 0 -5 0 -4 5c-1 478 0 542 0 543c-11 119 -72 92 -63 118c12 33 78 73 137 73c78 0 148 -46 148 -160v-423h17c210 0 186 50 204 36c13 -10 23 -31 25 -49zM506 647c0 -98 -77 -149 -108 -160
c-39 -14 -46 -6 -46 2s7 15 16 23c36 34 38 51 20 57c-34 14 -58 45 -58 84c0 48 39 88 88 88c47 0 88 -40 88 -94z" />
    <glyph glyph-name="lcaron" unicode="&#x13e;" horiz-adv-x="470" 
d="M30 714c0 5 5 5 5 5h200s5 0 4 -5c0 0 1 -444 1 -513c0 -159 68 -125 59 -152c-11 -32 -73 -71 -129 -71c-81 0 -140 58 -140 152v584zM457 647c0 -98 -77 -149 -108 -160c-39 -14 -46 -6 -46 2s7 15 16 23c36 34 38 51 20 57c-34 14 -58 45 -58 84c0 48 39 88 88 88
c47 0 88 -40 88 -94z" />
    <glyph glyph-name="Lslash" unicode="&#x141;" horiz-adv-x="575" 
d="M574 143c17 -138 -109 -180 -223 -164c-63 8 -139 21 -241 21c0 0 -5 0 -4 5c-1 131 -1 184 -1 260l-73 -26c-4 -2 -6 2 -6 2l-23 63s-1 5 3 6l99 36c0 125 1 201 1 202c-11 119 -72 92 -63 118c12 33 78 73 137 73c78 0 148 -46 148 -160v-152l131 48c5 2 6 -2 6 -2
l24 -65s1 -3 -3 -4c-33 -13 -93 -34 -158 -58v-190h17c210 0 186 50 204 36c13 -10 23 -31 25 -49z" />
    <glyph glyph-name="lslash" unicode="&#x142;" horiz-adv-x="357" 
d="M50 714c0 5 5 5 5 5h200s5 0 4 -5c0 0 0 -154 1 -295c28 11 58 21 87 32c5 2 6 -2 6 -2l24 -65s1 -3 -3 -4l-114 -42v-137c0 -159 68 -125 59 -152c-11 -32 -73 -71 -129 -71c-81 0 -140 58 -140 152v133l-39 -13c-4 -2 -6 2 -6 2l-23 63s-1 5 3 6c0 0 25 8 65 23v370z
" />
    <glyph glyph-name="Nacute" unicode="&#x143;" horiz-adv-x="696" 
d="M668 710l-3 -705c1 -5 -5 -5 -5 -5h-184s-4 -1 -7 5l-212 417l9 -83l9 -334c0 -5 -5 -5 -5 -5h-214s-6 0 -5 5c0 0 6 546 6 547c-5 115 -70 92 -60 117c12 33 80 74 146 74c80 0 121 -56 169 -127c49 -84 110 -191 154 -286l-10 96l-5 284c-2 5 4 5 4 5h208s5 0 5 -5z
M480 935c-44 -86 -112 -147 -215 -183c-3 -1 -6 -2 -8 -1c-18 14 -30 30 -41 49c-2 2 -1 5 1 7c70 70 103 120 126 213c1 2 3 3 6 2c53 -13 97 -41 129 -79c3 -2 3 -6 2 -8z" />
    <glyph glyph-name="nacute" unicode="&#x144;" horiz-adv-x="622" 
d="M559 204c0 -159 77 -125 67 -153c-11 -31 -65 -70 -121 -70c-80 0 -147 58 -147 152v194c0 100 -101 65 -102 -53v-268c0 -5 -5 -6 -5 -6h-200s-4 1 -4 5c0 0 8 228 8 297c0 159 -69 125 -59 152c10 32 64 71 120 71c70 0 124 -44 137 -117c44 86 116 117 169 117
c75 0 138 -65 138 -165c0 -42 -1 -81 -1 -156zM443 735c-44 -86 -112 -147 -215 -183c-3 -1 -6 -2 -8 -1c-18 14 -30 30 -41 49c-2 2 -1 5 1 7c70 70 103 120 126 213c1 2 3 3 6 2c53 -13 97 -41 129 -79c3 -2 3 -6 2 -8z" />
    <glyph glyph-name="Ncommaaccent" unicode="&#x145;" horiz-adv-x="696" 
d="M466 -146c0 -110 -86 -167 -120 -179c-44 -15 -51 -7 -51 3c0 8 7 16 17 25c40 38 43 57 23 64c-38 15 -65 50 -65 93c0 54 44 98 98 98c53 0 98 -44 98 -104zM668 710l-3 -705c1 -5 -5 -5 -5 -5h-184s-4 -1 -7 5l-212 417l9 -83l9 -334c0 -5 -5 -5 -5 -5h-214s-6 0 -5 5
c0 0 6 546 6 547c-5 115 -70 92 -60 117c12 33 80 74 146 74c80 0 121 -56 169 -127c49 -84 110 -191 154 -286l-10 96l-5 284c-2 5 4 5 4 5h208s5 0 5 -5z" />
    <glyph glyph-name="ncommaaccent" unicode="&#x146;" horiz-adv-x="622" 
d="M407 -146c0 -110 -86 -167 -120 -179c-44 -15 -51 -7 -51 3c0 8 7 16 17 25c40 38 43 57 23 64c-38 15 -65 50 -65 93c0 54 44 98 98 98c53 0 98 -44 98 -104zM559 204c0 -159 77 -125 67 -153c-11 -31 -65 -70 -121 -70c-80 0 -147 58 -147 152v194
c0 100 -101 65 -102 -53v-268c0 -5 -5 -6 -5 -6h-200s-4 1 -4 5c0 0 8 228 8 297c0 159 -69 125 -59 152c10 32 64 71 120 71c70 0 124 -44 137 -117c44 86 116 117 169 117c75 0 138 -65 138 -165c0 -42 -1 -81 -1 -156z" />
    <glyph glyph-name="Ncaron" unicode="&#x147;" horiz-adv-x="696" 
d="M668 710l-3 -705c1 -5 -5 -5 -5 -5h-184s-4 -1 -7 5l-212 417l9 -83l9 -334c0 -5 -5 -5 -5 -5h-214s-6 0 -5 5c0 0 6 546 6 547c-5 115 -70 92 -60 117c12 33 80 74 146 74c80 0 121 -56 169 -127c49 -84 110 -191 154 -286l-10 96l-5 284c-2 5 4 5 4 5h208s5 0 5 -5z
M528 960c17 6 31 0 17 -18c0 0 -152 -182 -153 -183s-3 -4 -10 -4h-69s-4 0 -6 3c-1 1 -158 181 -158 181c-12 15 -6 25 16 18l184 -62z" />
    <glyph glyph-name="ncaron" unicode="&#x148;" horiz-adv-x="622" 
d="M559 204c0 -159 77 -125 67 -153c-11 -31 -65 -70 -121 -70c-80 0 -147 58 -147 152v194c0 100 -101 65 -102 -53v-268c0 -5 -5 -6 -5 -6h-200s-4 1 -4 5c0 0 8 228 8 297c0 159 -69 125 -59 152c10 32 64 71 120 71c70 0 124 -44 137 -117c44 86 116 117 169 117
c75 0 138 -65 138 -165c0 -42 -1 -81 -1 -156zM481 760c17 6 31 0 17 -18c0 0 -152 -182 -153 -183s-3 -4 -10 -4h-69s-4 0 -6 3c-1 1 -158 181 -158 181c-12 15 -6 25 16 18l184 -62z" />
    <glyph glyph-name="Omacron" unicode="&#x14c;" horiz-adv-x="710" 
d="M534 862v-88s0 -3 -4 -3c-108 -1 -344 0 -344 0c-4 0 -5 4 -5 4v86s1 5 6 5h343c5 0 4 -4 4 -4zM703 357c0 -205 -132 -378 -347 -378c-210 0 -346 173 -346 378c0 204 136 380 346 380c211 0 347 -176 347 -380zM236 357c0 -114 45 -266 120 -266c78 0 121 147 121 266
c0 118 -45 268 -121 268s-120 -150 -120 -268z" />
    <glyph glyph-name="omacron" unicode="&#x14d;" horiz-adv-x="580" 
d="M458 657v-88s0 -3 -4 -3c-108 -1 -344 0 -344 0c-4 0 -5 4 -5 4v86s1 5 6 5h343c5 0 4 -4 4 -4zM570 249c0 -151 -116 -272 -280 -272c-161 0 -280 121 -280 272c0 150 119 272 280 272s280 -122 280 -272zM207 249c0 -84 25 -159 83 -159c60 0 83 71 83 159
c0 86 -25 159 -83 159c-59 0 -83 -73 -83 -159z" />
    <glyph glyph-name="Ohungarumlaut" unicode="&#x150;" horiz-adv-x="710" 
d="M703 357c0 -205 -132 -378 -347 -378c-210 0 -346 173 -346 378c0 204 136 380 346 380c211 0 347 -176 347 -380zM236 357c0 -114 45 -266 120 -266c78 0 121 147 121 266c0 118 -45 268 -121 268s-120 -150 -120 -268zM407 935c-44 -86 -112 -147 -215 -183
c-3 -1 -6 -2 -8 -1c-18 14 -30 30 -41 49c-2 2 -1 5 1 7c70 70 103 120 126 213c1 2 3 3 6 2c53 -13 97 -41 129 -79c3 -2 3 -6 2 -8zM647 935c-44 -86 -112 -147 -215 -183c-3 -1 -6 -2 -8 -1c-18 14 -30 30 -41 49c-2 2 -1 5 1 7c70 70 103 120 126 213c1 2 3 3 6 2
c53 -13 97 -41 129 -79c3 -2 3 -6 2 -8z" />
    <glyph glyph-name="ohungarumlaut" unicode="&#x151;" horiz-adv-x="580" 
d="M570 249c0 -151 -116 -272 -280 -272c-161 0 -280 121 -280 272c0 150 119 272 280 272s280 -122 280 -272zM207 249c0 -84 25 -159 83 -159c60 0 83 71 83 159c0 86 -25 159 -83 159c-59 0 -83 -73 -83 -159zM322 735c-44 -86 -112 -147 -215 -183c-3 -1 -6 -2 -8 -1
c-18 14 -30 30 -41 49c-2 2 -1 5 1 7c70 70 103 120 126 213c1 2 3 3 6 2c53 -13 97 -41 129 -79c3 -2 3 -6 2 -8zM562 735c-44 -86 -112 -147 -215 -183c-3 -1 -6 -2 -8 -1c-18 14 -30 30 -41 49c-2 2 -1 5 1 7c70 70 103 120 126 213c1 2 3 3 6 2c53 -13 97 -41 129 -79
c3 -2 3 -6 2 -8z" />
    <glyph glyph-name="oe" unicode="&#x153;" horiz-adv-x="900" 
d="M884 155c4 -3 6 -7 3 -16c-11 -42 -94 -160 -240 -160c-67 0 -139 35 -175 78c-35 -48 -108 -80 -182 -80c-161 0 -280 121 -280 272c0 150 119 272 280 272c71 0 143 -31 179 -74c34 42 114 77 191 77c164 0 235 -103 235 -174c0 -157 -183 -176 -314 -154
c35 -100 168 -110 290 -42c4 3 9 4 13 1zM207 249c0 -84 25 -159 83 -159c60 0 83 71 83 159c0 86 -25 159 -83 159c-59 0 -83 -73 -83 -159zM625 401c-33 -20 -48 -68 -52 -117c89 -8 133 25 133 79c0 27 -22 50 -53 48c0 0 0 -1 -1 -1h-3c-7 -1 -16 -4 -24 -9z" />
    <glyph glyph-name="Racute" unicode="&#x154;" horiz-adv-x="634" 
d="M631 99c10 -3 -12 -110 -107 -121c-157 -18 -232 123 -246 296h-29v-268c0 -6 -4 -6 -4 -6h-210s-5 0 -5 6v692c0 5 5 5 5 5s112 35 263 30c154 -5 283 -82 283 -229c0 -77 -40 -173 -140 -214c38 -90 105 -152 190 -191zM249 625v-248c80 0 124 66 124 139
c0 75 -49 121 -124 109zM449 935c-44 -86 -112 -147 -215 -183c-3 -1 -6 -2 -8 -1c-18 14 -30 30 -41 49c-2 2 -1 5 1 7c70 70 103 120 126 213c1 2 3 3 6 2c53 -13 97 -41 129 -79c3 -2 3 -6 2 -8z" />
    <glyph glyph-name="racute" unicode="&#x155;" horiz-adv-x="483" 
d="M377 524c63 0 111 -40 111 -112c0 -83 -57 -129 -125 -129c-24 0 -47 14 -50 20c-6 9 -2 16 -2 36c0 31 -6 44 -21 44c-29 0 -34 -51 -34 -113v-265c0 -5 -4 -5 -4 -5h-201s-4 0 -4 5c0 0 8 227 8 296c0 159 -68 125 -59 152c11 32 65 71 121 71c67 0 119 -40 134 -109
c27 66 77 109 126 109zM381 735c-44 -86 -112 -147 -215 -183c-3 -1 -6 -2 -8 -1c-18 14 -30 30 -41 49c-2 2 -1 5 1 7c70 70 103 120 126 213c1 2 3 3 6 2c53 -13 97 -41 129 -79c3 -2 3 -6 2 -8z" />
    <glyph glyph-name="Rcommaaccent" unicode="&#x156;" horiz-adv-x="634" 
d="M398 -146c0 -110 -86 -167 -120 -179c-44 -15 -51 -7 -51 3c0 8 7 16 17 25c40 38 43 57 23 64c-38 15 -65 50 -65 93c0 54 44 98 98 98c53 0 98 -44 98 -104zM631 99c10 -3 -12 -110 -107 -121c-157 -18 -232 123 -246 296h-29v-268c0 -6 -4 -6 -4 -6h-210s-5 0 -5 6
v692c0 5 5 5 5 5s112 35 263 30c154 -5 283 -82 283 -229c0 -77 -40 -173 -140 -214c38 -90 105 -152 190 -191zM249 625v-248c80 0 124 66 124 139c0 75 -49 121 -124 109z" />
    <glyph glyph-name="rcommaaccent" unicode="&#x157;" horiz-adv-x="483" 
d="M267 -146c0 -110 -86 -167 -120 -179c-44 -15 -51 -7 -51 3c0 8 7 16 17 25c40 38 43 57 23 64c-38 15 -65 50 -65 93c0 54 44 98 98 98c53 0 98 -44 98 -104zM377 524c63 0 111 -40 111 -112c0 -83 -57 -129 -125 -129c-24 0 -47 14 -50 20c-6 9 -2 16 -2 36
c0 31 -6 44 -21 44c-29 0 -34 -51 -34 -113v-265c0 -5 -4 -5 -4 -5h-201s-4 0 -4 5c0 0 8 227 8 296c0 159 -68 125 -59 152c11 32 65 71 121 71c67 0 119 -40 134 -109c27 66 77 109 126 109z" />
    <glyph glyph-name="Rcaron" unicode="&#x158;" horiz-adv-x="634" 
d="M631 99c10 -3 -12 -110 -107 -121c-157 -18 -232 123 -246 296h-29v-268c0 -6 -4 -6 -4 -6h-210s-5 0 -5 6v692c0 5 5 5 5 5s112 35 263 30c154 -5 283 -82 283 -229c0 -77 -40 -173 -140 -214c38 -90 105 -152 190 -191zM249 625v-248c80 0 124 66 124 139
c0 75 -49 121 -124 109zM467 970c17 6 31 0 17 -18c0 0 -152 -182 -153 -183s-3 -4 -10 -4h-69s-4 0 -6 3c-1 1 -158 181 -158 181c-12 15 -6 25 16 18l184 -62z" />
    <glyph glyph-name="rcaron" unicode="&#x159;" horiz-adv-x="483" 
d="M377 524c63 0 111 -40 111 -112c0 -83 -57 -129 -125 -129c-24 0 -47 14 -50 20c-6 9 -2 16 -2 36c0 31 -6 44 -21 44c-29 0 -34 -51 -34 -113v-265c0 -5 -4 -5 -4 -5h-201s-4 0 -4 5c0 0 8 227 8 296c0 159 -68 125 -59 152c11 32 65 71 121 71c67 0 119 -40 134 -109
c27 66 77 109 126 109zM421 760c17 6 31 0 17 -18c0 0 -152 -182 -153 -183s-3 -4 -10 -4h-69s-4 0 -6 3c-1 1 -158 181 -158 181c-12 15 -6 25 16 18l184 -62z" />
    <glyph glyph-name="Sacute" unicode="&#x15a;" horiz-adv-x="637" 
d="M412 407c102 -31 220 -87 220 -210c0 -166 -184 -219 -330 -219c-113 0 -286 35 -296 171c-4 57 42 114 110 114c42 0 92 -18 99 -28c5 -7 -3 -27 -3 -52c2 -130 181 -126 184 -15c0 71 -100 96 -193 137c-83 37 -185 74 -191 196c-7 140 149 234 288 237
c159 4 292 -56 292 -176c1 -67 -34 -114 -114 -114c-45 0 -80 15 -85 24c-3 6 3 38 4 65c6 108 -153 113 -161 14c0 -73 87 -117 176 -144zM451 935c-44 -86 -112 -147 -215 -183c-3 -1 -6 -2 -8 -1c-18 14 -30 30 -41 49c-2 2 -1 5 1 7c70 70 103 120 126 213c1 2 3 3 6 2
c53 -13 97 -41 129 -79c3 -2 3 -6 2 -8z" />
    <glyph glyph-name="sacute" unicode="&#x15b;" horiz-adv-x="513" 
d="M339 294c80 -23 164 -63 164 -154c0 -121 -144 -163 -258 -163c-89 0 -235 31 -235 130c0 49 39 91 97 91c33 0 71 -9 75 -17c6 -9 2 -22 2 -41c0 -40 25 -61 59 -61c37 0 53 18 54 45c-2 48 -69 59 -143 83c-68 24 -135 72 -136 151v3c0 104 123 163 225 163
c117 0 236 -41 236 -130c1 -48 -35 -87 -97 -87c-35 0 -68 11 -72 18c-5 8 -1 21 -1 41c0 40 -17 58 -51 57c-31 -1 -47 -28 -47 -47v0v0c0 -49 59 -62 128 -82zM389 735c-44 -86 -112 -147 -215 -183c-3 -1 -6 -2 -8 -1c-18 14 -30 30 -41 49c-2 2 -1 5 1 7
c70 70 103 120 126 213c1 2 3 3 6 2c53 -13 97 -41 129 -79c3 -2 3 -6 2 -8z" />
    <glyph glyph-name="Scaron" unicode="&#x160;" horiz-adv-x="637" 
d="M412 407c102 -31 220 -87 220 -210c0 -166 -184 -219 -330 -219c-113 0 -286 35 -296 171c-4 57 42 114 110 114c42 0 92 -18 99 -28c5 -7 -3 -27 -3 -52c2 -130 181 -126 184 -15c0 71 -100 96 -193 137c-83 37 -185 74 -191 196c-7 140 149 234 288 237
c159 4 292 -56 292 -176c1 -67 -34 -114 -114 -114c-45 0 -80 15 -85 24c-3 6 3 38 4 65c6 108 -153 113 -161 14c0 -73 87 -117 176 -144zM488 970c17 6 31 0 17 -18c0 0 -152 -182 -153 -183s-3 -4 -10 -4h-69s-4 0 -6 3c-1 1 -158 181 -158 181c-12 15 -6 25 16 18
l184 -62z" />
    <glyph glyph-name="scaron" unicode="&#x161;" horiz-adv-x="513" 
d="M339 294c80 -23 164 -63 164 -154c0 -121 -144 -163 -258 -163c-89 0 -235 31 -235 130c0 49 39 91 97 91c33 0 71 -9 75 -17c6 -9 2 -22 2 -41c0 -40 25 -61 59 -61c37 0 53 18 54 45c-2 48 -69 59 -143 83c-68 24 -135 72 -136 151v3c0 104 123 163 225 163
c117 0 236 -41 236 -130c1 -48 -35 -87 -97 -87c-35 0 -68 11 -72 18c-5 8 -1 21 -1 41c0 40 -17 58 -51 57c-31 -1 -47 -28 -47 -47v0v0c0 -49 59 -62 128 -82zM436 760c17 6 31 0 17 -18c0 0 -152 -182 -153 -183s-3 -4 -10 -4h-69s-4 0 -6 3c-1 1 -158 181 -158 181
c-12 15 -6 25 16 18l184 -62z" />
    <glyph glyph-name="Tcaron" unicode="&#x164;" horiz-adv-x="636" 
d="M623 716c0 0 43 -140 -75 -175c-46 -14 -135 -2 -135 -2l6 -339c5 -149 74 -117 64 -144c-11 -34 -77 -76 -136 -76c-79 0 -149 48 -149 165l7 408c-63 1 -125 -3 -182 -14c-5 -1 -7 5 -7 5c-1 1 -46 116 61 172c97 51 195 8 473 4c39 0 65 1 65 1s6 0 8 -5zM498 970
c17 6 31 0 17 -18c0 0 -152 -182 -153 -183s-3 -4 -10 -4h-69s-4 0 -6 3c-1 1 -158 181 -158 181c-12 15 -6 25 16 18l184 -62z" />
    <glyph glyph-name="tcaron" unicode="&#x165;" horiz-adv-x="387" 
d="M368 90c18 0 20 -13 13 -26c-27 -54 -102 -91 -174 -91c-32 1 -63 8 -89 23c-41 25 -68 71 -68 134v279h-51s-4 0 -4 5v85c0 4 4 4 4 4h51v76c0 5 5 5 5 5l192 79s5 -1 4 -5c0 0 1 -70 1 -155h122s3 0 3 -5v-84c0 -5 -4 -5 -4 -5h-121v-208v-16v0v0c0 -12 1 -22 2 -32
c13 -81 75 -63 114 -63zM432 705c0 -98 -77 -149 -108 -160c-39 -14 -46 -6 -46 2s7 15 16 23c36 34 38 51 20 57c-34 14 -58 45 -58 84c0 48 39 88 88 88c47 0 88 -40 88 -94z" />
    <glyph glyph-name="Umacron" unicode="&#x16a;" horiz-adv-x="698" 
d="M533 862v-88s0 -3 -4 -3c-108 -1 -344 0 -344 0c-4 0 -5 4 -5 4v86s1 5 6 5h343c5 0 4 -4 4 -4zM668 710c-1 -105 -3 -357 -2 -463c3 -357 -599 -358 -599 -3v1v256c0 168 -80 132 -71 160c12 34 69 75 128 75c86 0 163 -61 163 -160v-383v-2c0 -111 153 -114 153 1v517
c0 5 4 6 4 6h220s4 -1 4 -5z" />
    <glyph glyph-name="umacron" unicode="&#x16b;" 
d="M484 657v-88s0 -3 -4 -3c-108 -1 -344 0 -344 0c-4 0 -5 4 -5 4v86s1 5 6 5h343c5 0 4 -4 4 -4zM560 201c0 -159 68 -125 59 -152c-11 -32 -65 -71 -121 -71c-69 0 -122 43 -136 115c-42 -85 -109 -115 -162 -115c-74 0 -137 65 -137 165v156c0 159 -76 125 -67 152
c11 32 65 71 121 71c81 0 148 -58 148 -152v-194c0 -98 90 -66 94 46v275c0 5 4 6 4 6h201s4 -1 4 -5c0 0 -8 -228 -8 -297z" />
    <glyph glyph-name="Uring" unicode="&#x16e;" horiz-adv-x="698" 
d="M668 710c-1 -105 -3 -357 -2 -463c3 -357 -599 -358 -599 -3v1v256c0 168 -80 132 -71 160c12 34 69 75 128 75c86 0 163 -61 163 -160v-383v-2c0 -111 153 -114 153 1v517c0 5 4 6 4 6h220s4 -1 4 -5zM479 875c0 -68 -58 -124 -130 -124s-131 56 -131 124
s59 123 131 123s130 -55 130 -123zM349 931c-28 0 -49 -23 -49 -56s23 -59 49 -59c27 0 48 26 48 59s-21 56 -48 56z" />
    <glyph glyph-name="uring" unicode="&#x16f;" 
d="M560 201c0 -159 68 -125 59 -152c-11 -32 -65 -71 -121 -71c-69 0 -122 43 -136 115c-42 -85 -109 -115 -162 -115c-74 0 -137 65 -137 165v156c0 159 -76 125 -67 152c11 32 65 71 121 71c81 0 148 -58 148 -152v-194c0 -98 90 -66 94 46v275c0 5 4 6 4 6h201s4 -1 4 -5
c0 0 -8 -228 -8 -297zM438 675c0 -68 -58 -124 -130 -124s-131 56 -131 124s59 123 131 123s130 -55 130 -123zM308 731c-28 0 -49 -23 -49 -56s23 -59 49 -59c27 0 48 26 48 59s-21 56 -48 56z" />
    <glyph glyph-name="Uhungarumlaut" unicode="&#x170;" horiz-adv-x="698" 
d="M668 710c-1 -105 -3 -357 -2 -463c3 -357 -599 -358 -599 -3v1v256c0 168 -80 132 -71 160c12 34 69 75 128 75c86 0 163 -61 163 -160v-383v-2c0 -111 153 -114 153 1v517c0 5 4 6 4 6h220s4 -1 4 -5zM401 935c-44 -86 -112 -147 -215 -183c-3 -1 -6 -2 -8 -1
c-18 14 -30 30 -41 49c-2 2 -1 5 1 7c70 70 103 120 126 213c1 2 3 3 6 2c53 -13 97 -41 129 -79c3 -2 3 -6 2 -8zM641 935c-44 -86 -112 -147 -215 -183c-3 -1 -6 -2 -8 -1c-18 14 -30 30 -41 49c-2 2 -1 5 1 7c70 70 103 120 126 213c1 2 3 3 6 2c53 -13 97 -41 129 -79
c3 -2 3 -6 2 -8z" />
    <glyph glyph-name="uhungarumlaut" unicode="&#x171;" 
d="M560 201c0 -159 68 -125 59 -152c-11 -32 -65 -71 -121 -71c-69 0 -122 43 -136 115c-42 -85 -109 -115 -162 -115c-74 0 -137 65 -137 165v156c0 159 -76 125 -67 152c11 32 65 71 121 71c81 0 148 -58 148 -152v-194c0 -98 90 -66 94 46v275c0 5 4 6 4 6h201s4 -1 4 -5
c0 0 -8 -228 -8 -297zM360 735c-44 -86 -112 -147 -215 -183c-3 -1 -6 -2 -8 -1c-18 14 -30 30 -41 49c-2 2 -1 5 1 7c70 70 103 120 126 213c1 2 3 3 6 2c53 -13 97 -41 129 -79c3 -2 3 -6 2 -8zM600 735c-44 -86 -112 -147 -215 -183c-3 -1 -6 -2 -8 -1
c-18 14 -30 30 -41 49c-2 2 -1 5 1 7c70 70 103 120 126 213c1 2 3 3 6 2c53 -13 97 -41 129 -79c3 -2 3 -6 2 -8z" />
    <glyph glyph-name="Uogonek" unicode="&#x172;" horiz-adv-x="698" 
d="M668 710c-1 -105 -3 -357 -2 -463c3 -357 -599 -358 -599 -3v1v256c0 168 -80 132 -71 160c12 34 69 75 128 75c86 0 163 -61 163 -160v-383v-2c0 -111 153 -114 153 1v517c0 5 4 6 4 6h220s4 -1 4 -5zM270 -182c8 159 196 187 187 171c-11 -19 -65 -68 -65 -129
c0 -25 11 -45 49 -45c26 0 46 14 49 8c24 -41 -23 -114 -95 -120c-95 -7 -127 81 -125 115z" />
    <glyph glyph-name="uogonek" unicode="&#x173;" 
d="M560 201c0 -159 68 -125 59 -152c-11 -32 -65 -71 -121 -71c-69 0 -122 43 -136 115c-42 -85 -109 -115 -162 -115c-74 0 -137 65 -137 165v156c0 159 -76 125 -67 152c11 32 65 71 121 71c81 0 148 -58 148 -152v-194c0 -98 90 -66 94 46v275c0 5 4 6 4 6h201s4 -1 4 -5
c0 0 -8 -228 -8 -297zM370 -179c8 159 196 187 187 171c-11 -19 -65 -68 -65 -129c0 -25 11 -45 49 -45c26 0 46 14 49 8c24 -41 -23 -114 -95 -120c-95 -7 -127 81 -125 115z" />
    <glyph glyph-name="Ydieresis" unicode="&#x178;" horiz-adv-x="668" 
d="M664 615c0 -165 -134 -260 -223 -322v-85c5 -158 76 -124 66 -152c-12 -36 -74 -79 -134 -79c-81 0 -152 49 -152 173c0 67 0 103 -1 150l-219 408c-3 6 4 8 4 8h240s5 0 7 -6l123 -305c84 129 50 286 50 297c-2 43 233 97 239 -87zM317 838c0 -48 -45 -86 -100 -86
c-54 0 -99 38 -99 86s45 86 99 86c55 0 100 -38 100 -86zM549 838c0 -48 -44 -86 -99 -86s-99 38 -99 86s44 86 99 86s99 -38 99 -86z" />
    <glyph glyph-name="Zacute" unicode="&#x179;" horiz-adv-x="611" 
d="M604 143c17 -138 -109 -180 -223 -164c-63 8 -249 21 -351 21c0 0 -5 0 -4 5v141c0 8 1 13 9 22c30 37 133 192 208 283c42 50 120 92 120 93c-151 9 -238 -2 -340 -22c-4 -1 -7 5 -7 5c-1 1 -46 126 62 182c100 53 203 1 510 1c3 0 6 0 8 -5l-1 -145
c0 -10 -7 -18 -7 -18c-183 -239 -176 -250 -243 -324c-15 -17 -77 -62 -77 -62h107c196 0 186 50 204 36c13 -10 23 -31 25 -49zM452 935c-44 -86 -112 -147 -215 -183c-3 -1 -6 -2 -8 -1c-18 14 -30 30 -41 49c-2 2 -1 5 1 7c70 70 103 120 126 213c1 2 3 3 6 2
c53 -13 97 -41 129 -79c3 -2 3 -6 2 -8z" />
    <glyph glyph-name="zacute" unicode="&#x17a;" horiz-adv-x="496" 
d="M495 127c14 -122 -91 -160 -184 -146c-53 7 -205 19 -289 19c0 0 -4 0 -3 4c-5 42 -8 72 -3 114c9 73 143 166 217 207c26 14 54 25 81 36c-123 8 -215 -1 -298 -18c-4 -1 -6 4 -6 4c-1 1 -38 111 51 159c82 47 167 -6 421 -6c2 0 5 0 6 -4c0 -39 5 -80 -1 -118
c-10 -65 -94 -135 -192 -189c-29 -16 -61 -34 -95 -51h106c162 0 153 44 168 32c11 -9 19 -28 21 -43zM395 735c-44 -86 -112 -147 -215 -183c-3 -1 -6 -2 -8 -1c-18 14 -30 30 -41 49c-2 2 -1 5 1 7c70 70 103 120 126 213c1 2 3 3 6 2c53 -13 97 -41 129 -79
c3 -2 3 -6 2 -8z" />
    <glyph glyph-name="Zdotaccent" unicode="&#x17b;" horiz-adv-x="611" 
d="M604 143c17 -138 -109 -180 -223 -164c-63 8 -249 21 -351 21c0 0 -5 0 -4 5v141c0 8 1 13 9 22c30 37 133 192 208 283c42 50 120 92 120 93c-151 9 -238 -2 -340 -22c-4 -1 -7 5 -7 5c-1 1 -46 126 62 182c100 53 203 1 510 1c3 0 6 0 8 -5l-1 -145
c0 -10 -7 -18 -7 -18c-183 -239 -176 -250 -243 -324c-15 -17 -77 -62 -77 -62h107c196 0 186 50 204 36c13 -10 23 -31 25 -49zM418 848c0 -48 -45 -86 -100 -86c-54 0 -99 38 -99 86s45 86 99 86c55 0 100 -38 100 -86z" />
    <glyph glyph-name="zdotaccent" unicode="&#x17c;" horiz-adv-x="496" 
d="M495 127c14 -122 -91 -160 -184 -146c-53 7 -205 19 -289 19c0 0 -4 0 -3 4c-5 42 -8 72 -3 114c9 73 143 166 217 207c26 14 54 25 81 36c-123 8 -215 -1 -298 -18c-4 -1 -6 4 -6 4c-1 1 -38 111 51 159c82 47 167 -6 421 -6c2 0 5 0 6 -4c0 -39 5 -80 -1 -118
c-10 -65 -94 -135 -192 -189c-29 -16 -61 -34 -95 -51h106c162 0 153 44 168 32c11 -9 19 -28 21 -43zM360 638c0 -48 -45 -86 -100 -86c-54 0 -99 38 -99 86s45 86 99 86c55 0 100 -38 100 -86z" />
    <glyph glyph-name="Zcaron" unicode="&#x17d;" horiz-adv-x="611" 
d="M604 143c17 -138 -109 -180 -223 -164c-63 8 -249 21 -351 21c0 0 -5 0 -4 5v141c0 8 1 13 9 22c30 37 133 192 208 283c42 50 120 92 120 93c-151 9 -238 -2 -340 -22c-4 -1 -7 5 -7 5c-1 1 -46 126 62 182c100 53 203 1 510 1c3 0 6 0 8 -5l-1 -145
c0 -10 -7 -18 -7 -18c-183 -239 -176 -250 -243 -324c-15 -17 -77 -62 -77 -62h107c196 0 186 50 204 36c13 -10 23 -31 25 -49zM485 970c17 6 31 0 17 -18c0 0 -152 -182 -153 -183s-3 -4 -10 -4h-69s-4 0 -6 3c-1 1 -158 181 -158 181c-12 15 -6 25 16 18l184 -62z" />
    <glyph glyph-name="zcaron" unicode="&#x17e;" horiz-adv-x="496" 
d="M495 127c14 -122 -91 -160 -184 -146c-53 7 -205 19 -289 19c0 0 -4 0 -3 4c-5 42 -8 72 -3 114c9 73 143 166 217 207c26 14 54 25 81 36c-123 8 -215 -1 -298 -18c-4 -1 -6 4 -6 4c-1 1 -38 111 51 159c82 47 167 -6 421 -6c2 0 5 0 6 -4c0 -39 5 -80 -1 -118
c-10 -65 -94 -135 -192 -189c-29 -16 -61 -34 -95 -51h106c162 0 153 44 168 32c11 -9 19 -28 21 -43zM435 760c17 6 31 0 17 -18c0 0 -152 -182 -153 -183s-3 -4 -10 -4h-69s-4 0 -6 3c-1 1 -158 181 -158 181c-12 15 -6 25 16 18l184 -62z" />
    <glyph glyph-name="circumflex" unicode="&#x2c6;" horiz-adv-x="415" 
d="M390 553l-179 65l-184 -62c-22 -7 -28 3 -16 18c0 0 157 180 158 181c2 3 6 3 6 3h69c7 0 9 -3 10 -4s153 -183 153 -183c14 -18 0 -24 -17 -18z" />
    <glyph glyph-name="caron" unicode="&#x2c7;" horiz-adv-x="422" 
d="M393 760c17 6 31 0 17 -18c0 0 -152 -182 -153 -183s-3 -4 -10 -4h-69s-4 0 -6 3c-1 1 -158 181 -158 181c-12 15 -6 25 16 18l184 -62z" />
    <glyph glyph-name="breve" unicode="&#x2d8;" horiz-adv-x="429" 
d="M416 737c17 -9 2 -43 -8 -62c-38 -75 -115 -121 -192 -121c-76 0 -155 46 -193 121c-9 19 -24 53 -8 62c15 8 60 -71 201 -71c145 0 185 79 200 71z" />
    <glyph glyph-name="dotaccent" unicode="&#x2d9;" horiz-adv-x="209" 
d="M204 638c0 -48 -45 -86 -100 -86c-54 0 -99 38 -99 86s45 86 99 86c55 0 100 -38 100 -86z" />
    <glyph glyph-name="ring" unicode="&#x2da;" horiz-adv-x="269" 
d="M266 675c0 -68 -58 -124 -130 -124s-131 56 -131 124s59 123 131 123s130 -55 130 -123zM136 731c-28 0 -49 -23 -49 -56s23 -59 49 -59c27 0 48 26 48 59s-21 56 -48 56z" />
    <glyph glyph-name="ogonek" unicode="&#x2db;" horiz-adv-x="239" 
d="M8 -182c8 159 196 187 187 171c-11 -19 -65 -68 -65 -129c0 -25 11 -45 49 -45c26 0 46 14 49 8c24 -41 -23 -114 -95 -120c-95 -7 -127 81 -125 115z" />
    <glyph glyph-name="tilde" unicode="&#x2dc;" horiz-adv-x="514" 
d="M495 726c24 3 42 -193 -164 -175c-77 8 -150 64 -207 66c-77 3 -95 -56 -110 -57c-24 -4 -11 175 155 169c90 -3 145 -58 224 -61c64 -2 87 56 102 58z" />
    <glyph glyph-name="hungarumlaut" unicode="&#x2dd;" horiz-adv-x="513" 
d="M269 735c-44 -86 -112 -147 -215 -183c-3 -1 -6 -2 -8 -1c-18 14 -30 30 -41 49c-2 2 -1 5 1 7c70 70 103 120 126 213c1 2 3 3 6 2c53 -13 97 -41 129 -79c3 -2 3 -6 2 -8zM509 735c-44 -86 -112 -147 -215 -183c-3 -1 -6 -2 -8 -1c-18 14 -30 30 -41 49c-2 2 -1 5 1 7
c70 70 103 120 126 213c1 2 3 3 6 2c53 -13 97 -41 129 -79c3 -2 3 -6 2 -8z" />
    <glyph glyph-name="afii10023" unicode="&#x401;" horiz-adv-x="542" 
d="M251 837c0 -48 -44 -86 -99 -86s-99 38 -99 86s44 86 99 86s99 -38 99 -86zM484 837c0 -48 -44 -86 -99 -86s-99 38 -99 86s44 86 99 86s99 -38 99 -86zM511 171c20 13 28 0 24 -24c-8 -51 -86 -169 -249 -169c-171 0 -256 133 -256 272l1 461c0 5 6 5 6 5h477s6 0 8 -5
c0 0 39 -119 -76 -165c-73 -29 -192 -2 -192 -2c0 -20 -1 -81 -1 -132h165s6 0 5 -5v-100c0 -5 -6 -5 -6 -5h-165v-72c4 -130 189 -104 259 -59z" />
    <glyph glyph-name="afii10052" unicode="&#x403;" horiz-adv-x="506" 
d="M36 715c148 13 290 14 446 0c0 0 6 0 8 -5c0 0 40 -113 -76 -162c-75 -31 -167 -2 -167 -2c0 -22 0 -112 3 -335c5 -158 76 -124 66 -152c-12 -36 -74 -81 -134 -81c-81 0 -152 51 -152 175c0 126 1 557 1 557c0 5 5 5 5 5zM405 924c-44 -86 -112 -147 -215 -183
c-3 -1 -6 -2 -8 -1c-18 14 -30 30 -41 49c-2 2 -1 5 1 7c70 70 103 120 126 213c1 2 3 3 6 2c53 -13 97 -41 129 -79c3 -2 3 -6 2 -8z" />
    <glyph glyph-name="afii10053" unicode="&#x404;" horiz-adv-x="632" 
d="M516 275c72 0 111 -61 111 -114c0 -108 -110 -185 -267 -183c-204 1 -350 178 -350 383c0 199 141 375 350 376c157 2 267 -75 267 -183c0 -53 -39 -114 -111 -114c-44 0 -79 16 -77 36c9 65 -7 135 -74 135c-73 0 -128 -88 -125 -193h159s6 0 5 -5v-109
c0 -5 -6 -5 -6 -5h-158c0 -107 53 -195 125 -195c67 0 83 70 74 135c-2 20 33 36 77 36z" />
    <glyph glyph-name="afii10054" unicode="&#x405;" horiz-adv-x="637" 
d="M412 407c102 -31 220 -87 220 -210c0 -166 -184 -219 -330 -219c-113 0 -286 35 -296 171c-4 57 42 114 110 114c42 0 92 -18 99 -28c5 -7 -3 -27 -3 -52c2 -130 181 -126 184 -15c0 71 -100 96 -193 137c-83 37 -185 74 -191 196c-7 140 149 234 288 237
c159 4 292 -56 292 -176c1 -67 -34 -114 -114 -114c-45 0 -80 15 -85 24c-3 6 3 38 4 65c6 108 -153 113 -161 14c0 -73 87 -117 176 -144z" />
    <glyph glyph-name="uni0406" unicode="&#x406;" horiz-adv-x="311" 
d="M133 739c78 0 148 -46 148 -160v-574c0 -5 -5 -5 -5 -5h-213s-5 0 -4 5c-1 478 0 542 0 543c-11 119 -72 92 -63 118c12 33 78 73 137 73z" />
    <glyph glyph-name="afii10056" unicode="&#x407;" horiz-adv-x="296" 
d="M130 851c0 -48 -45 -86 -100 -86c-54 0 -99 38 -99 86s45 86 99 86c55 0 100 -38 100 -86zM362 851c0 -48 -44 -86 -99 -86s-99 38 -99 86s44 86 99 86s99 -38 99 -86zM133 739c78 0 148 -46 148 -160v-574c0 -5 -5 -5 -5 -5h-213s-5 0 -4 5c-1 478 0 542 0 543
c-11 119 -72 92 -63 118c12 33 78 73 137 73z" />
    <glyph glyph-name="afii10057" unicode="&#x408;" horiz-adv-x="468" 
d="M295 739c78 0 143 -46 143 -160c0 -23 -1 -49 -1 -281c0 -230 -91 -318 -237 -318c-129 0 -195 68 -195 136c0 52 42 105 101 105c37 0 77 -11 80 -18c5 -10 -7 -32 -7 -71c0 -28 4 -64 35 -64c27 0 43 22 43 61c0 70 -37 99 -37 177v250c-5 106 -71 84 -62 110
c12 33 78 73 137 73z" />
    <glyph glyph-name="afii10058" unicode="&#x409;" horiz-adv-x="1059" 
d="M669 714c0 0 5 0 4 -5v-229c240 37 378 -97 378 -239c0 -155 -103 -263 -311 -263c-213 0 -284 156 -284 283l-1 334h-110c-9 -175 4 -616 -220 -616c-80 0 -130 69 -130 98c0 27 150 75 152 632v1c0 4 4 4 4 4c149 41 368 44 518 0zM755 99c55 0 81 66 81 122
c0 105 -70 162 -163 144v-164c1 -47 30 -102 82 -102z" />
    <glyph glyph-name="afii10059" unicode="&#x40a;" horiz-adv-x="1041" 
d="M650 714c0 0 5 0 4 -5v-229c240 37 378 -97 378 -239c0 -155 -103 -263 -311 -263c-213 0 -282 156 -282 283l-1 32h-169l1 -288c0 -5 -5 -5 -5 -5h-206s-5 0 -4 5c0 0 2 546 2 547c-11 119 -70 92 -61 117c11 33 75 74 133 74c75 0 143 -47 143 -161
c0 -30 -1 -103 -1 -145h165l-3 272c0 5 5 5 5 5h212zM736 99c55 0 81 66 81 122c0 105 -70 162 -163 144v-164c1 -47 30 -102 82 -102z" />
    <glyph glyph-name="afii10062" unicode="&#x40e;" horiz-adv-x="640" 
d="M540 852c-71 -132 -339 -142 -429 -8c-33 49 -18 112 27 139c45 30 105 17 134 -29c24 -37 20 -77 -4 -109c-7 -10 -7 -22 12 -30c38 -16 77 -5 91 2c19 9 22 20 12 31c-24 32 -30 71 -8 108c27 48 87 63 134 35c45 -27 60 -84 31 -139zM624 708c0 -141 0 -290 -7 -399
c-12 -198 -114 -323 -279 -336c-138 -11 -250 34 -256 149c-4 71 45 113 116 113c43 0 89 -28 86 -48c-28 -71 4 -115 43 -115c95 0 79 183 77 247c-98 -131 -316 -72 -326 119l-3 50c-6 175 -88 139 -79 169c11 33 69 77 131 77c89 0 164 -64 168 -167l4 -113
c3 -89 85 -88 101 -5c7 50 -6 259 -6 259c0 5 5 5 5 5h220s5 0 5 -5z" />
    <glyph glyph-name="uni0410" unicode="&#x410;" horiz-adv-x="689" 
d="M683 5c2 -5 -3 -5 -3 -5h-226s-5 0 -6 5l-25 106h-177c-12 -63 -22 -106 -22 -106c-2 -5 -7 -5 -7 -5h-209s-5 0 -2 5c0 0 172 538 172 539c41 105 -13 107 -5 130c13 39 85 69 143 69c73 0 147 -48 186 -157c42 -118 181 -581 181 -581zM274 246h117l-59 290
c-18 -73 -39 -199 -58 -290z" />
    <glyph glyph-name="uni0411" unicode="&#x411;" horiz-adv-x="639" 
d="M252 460c240 37 377 -77 377 -219c0 -155 -103 -263 -311 -263c-213 0 -288 156 -288 283l1 451c0 5 5 5 5 5c175 18 355 17 530 0c0 0 6 0 8 -5c0 0 40 -111 -76 -160c-75 -31 -246 -2 -246 -2v-90zM333 99c55 0 81 66 81 122c0 105 -69 137 -162 119v-139
c1 -47 21 -102 81 -102z" />
    <glyph glyph-name="uni0412" unicode="&#x412;" horiz-adv-x="645" 
d="M502 411c-3 -2 -3 -5 1 -6c89 -31 132 -111 132 -181c0 -176 -153 -246 -314 -246c-224 0 -291 165 -291 291c0 92 0 432 0 431c0 5 4 6 5 6c0 0 107 31 268 31c127 0 282 -38 282 -180c0 -69 -45 -131 -83 -146zM378 541c0 90 -80 96 -129 84v-189c94 0 129 52 129 105z
M335 98c55 0 87 42 87 107c0 91 -80 139 -173 121v-129c2 -49 22 -99 86 -99z" />
    <glyph glyph-name="uni0413" unicode="&#x413;" horiz-adv-x="502" 
d="M36 715c148 13 290 14 446 0c0 0 6 0 8 -5c0 0 40 -113 -76 -162c-75 -31 -167 -2 -167 -2c0 -22 0 -112 3 -335c5 -158 76 -124 66 -152c-12 -36 -74 -81 -134 -81c-81 0 -152 51 -152 175c0 126 1 557 1 557c0 5 5 5 5 5z" />
    <glyph glyph-name="uni0414" unicode="&#x414;" horiz-adv-x="786" 
d="M780 145l1 -156c0 -124 -69 -175 -179 -175c-12 0 -53 5 -53 16v170h-323c0 -5 1 -32 1 -37c0 -91 -64 -150 -175 -150c-13 0 -47 5 -47 16v298c0 3 2 4 3 5c11 10 156 78 151 576v1c0 4 4 4 4 4c149 41 367 44 517 0c0 0 5 0 4 -5l-1 -557h93s4 0 4 -6zM256 153
c-1 -1 1 -2 1 -2h210v444h-111c0 -171 -15 -381 -100 -442z" />
    <glyph glyph-name="uni0415" unicode="&#x415;" horiz-adv-x="542" 
d="M511 171c20 13 28 0 24 -24c-8 -51 -86 -169 -249 -169c-171 0 -256 133 -256 272l1 461c0 5 6 5 6 5h477s6 0 8 -5c0 0 39 -119 -76 -165c-73 -29 -192 -2 -192 -2c0 -20 -1 -81 -1 -132h165s6 0 5 -5v-100c0 -5 -6 -5 -6 -5h-165v-72c4 -130 189 -104 259 -59z" />
    <glyph glyph-name="uni0416" unicode="&#x416;" horiz-adv-x="1024" 
d="M0 105c78 25 164 167 186 213c32 68 68 108 114 114c1 75 -39 152 -80 151c-34 -1 -31 -38 -31 -58c0 -13 -174 -57 -192 88c-11 85 70 135 158 126c147 -15 223 -175 228 -317c7 -3 16 -3 23 -7l-5 294c0 5 5 5 5 5h213s5 0 4 -5l-6 -294c7 4 17 4 24 7
c5 142 84 302 231 317c88 9 166 -41 155 -126c-18 -145 -192 -101 -192 -88c0 20 11 55 -31 57c-41 2 -82 -75 -81 -150c46 -6 83 -46 115 -114c22 -46 108 -188 186 -213c17 -6 -12 -114 -107 -125c-187 -21 -258 161 -273 333c-8 2 -19 1 -27 -4l6 -304c0 -5 -5 -5 -5 -5
h-213s-5 0 -4 5l5 304c-8 5 -19 6 -27 4c-15 -172 -85 -354 -272 -333c-95 11 -124 119 -107 125z" />
    <glyph glyph-name="uni0417" unicode="&#x417;" horiz-adv-x="620" 
d="M465 369c78 -24 145 -72 145 -164c0 -169 -179 -227 -319 -227c-109 0 -281 43 -281 181c0 68 44 113 115 113c42 0 82 -18 85 -30c2 -9 -2 -31 -2 -57c0 -56 36 -95 75 -95c124 0 141 212 -19 212h-26s-5 0 -5 7v105c0 5 5 5 5 5h45c141 0 117 198 6 198
c-42 0 -83 -33 -83 -88c0 -28 3 -51 0 -57c-5 -11 -39 -31 -81 -31c-71 0 -115 48 -115 114c0 139 172 183 281 183c140 0 315 -47 308 -216c-4 -89 -60 -134 -134 -153z" />
    <glyph glyph-name="uni0418" unicode="&#x418;" horiz-adv-x="703" 
d="M670 710l3 -705c0 -5 -5 -5 -5 -5h-208s-6 0 -4 5l5 284l10 96c-55 -102 -146 -292 -196 -380c-2 -5 -8 -5 -8 -5h-204s-5 0 -4 5c-1 478 0 542 0 543c-11 119 -72 92 -63 118c12 33 78 73 137 73c78 0 148 -46 148 -160v-203l-9 -84l202 418c3 6 7 5 7 5h184s6 0 5 -5z
" />
    <glyph glyph-name="uni0419" unicode="&#x419;" horiz-adv-x="703" 
d="M570 832c-74 -131 -342 -136 -429 0c-32 50 -16 112 29 139c46 29 106 15 134 -32c23 -37 18 -77 -6 -109c-8 -10 -8 -22 11 -30c38 -17 77 -7 91 0c19 9 22 20 13 31c-24 32 -29 71 -6 108c28 47 88 61 134 32c45 -27 59 -85 29 -139zM670 710l3 -705c0 -5 -5 -5 -5 -5
h-208s-6 0 -4 5l5 284l10 96c-55 -102 -146 -292 -196 -380c-2 -5 -8 -5 -8 -5h-204s-5 0 -4 5c-1 478 0 542 0 543c-11 119 -72 92 -63 118c12 33 78 73 137 73c78 0 148 -46 148 -160v-203l-9 -84l202 418c3 6 7 5 7 5h184s6 0 5 -5z" />
    <glyph glyph-name="uni041A" unicode="&#x41a;" horiz-adv-x="682" 
d="M682 105c17 -6 -12 -114 -107 -125c-194 -22 -241 178 -262 333c-8 2 -29 1 -37 -4l7 -304c0 -5 -5 -5 -5 -5h-215s-5 0 -4 5c-1 478 0 542 0 543c-11 119 -72 92 -63 118c12 33 78 73 137 73c78 0 148 -46 148 -160l-5 -160c7 4 24 4 31 7c-2 153 70 295 218 313
c88 11 161 -41 150 -126c-18 -145 -192 -101 -192 -88c0 20 5 51 -29 51c-41 0 -61 -65 -60 -140c67 1 93 -50 125 -118c22 -46 85 -188 163 -213z" />
    <glyph glyph-name="uni041B" unicode="&#x41b;" horiz-adv-x="714" 
d="M679 714c0 0 5 0 4 -5l-1 -704c0 -5 -5 -5 -5 -5h-207s-5 0 -4 5v590h-111c-9 -175 4 -616 -220 -616c-80 0 -130 69 -130 98c0 27 151 75 153 632v1c0 4 4 4 4 4c149 41 367 44 517 0z" />
    <glyph glyph-name="uni041C" unicode="&#x41c;" horiz-adv-x="843" 
d="M433 401l172 308c2 4 7 5 7 5h193s6 0 5 -5l3 -704c0 -5 -6 -5 -6 -5h-204s-6 0 -5 5l3 320l19 103c-12 -21 -157 -298 -157 -298c-2 -4 -6 -4 -13 -4h-28c-12 0 -12 0 -14 4l-164 301l19 -93l6 -333c0 -5 -5 -5 -5 -5h-211s-6 0 -5 5c0 0 7 546 7 547
c-5 115 -68 92 -58 117c12 33 85 74 151 74c95 0 139 -71 185 -151c50 -86 100 -191 100 -191z" />
    <glyph glyph-name="uni041D" unicode="&#x41d;" horiz-adv-x="691" 
d="M656 714c0 0 5 0 4 -5l-1 -704c0 -5 -5 -5 -5 -5h-207s-5 0 -4 5l2 288h-176l1 -288c0 -5 -5 -5 -5 -5h-206s-5 0 -4 5c0 0 2 546 2 547c-11 119 -70 92 -61 117c11 33 75 74 133 74c75 0 143 -47 143 -161c0 -30 -1 -103 -1 -145h174l-2 272c0 5 5 5 5 5h208z" />
    <glyph glyph-name="uni041E" unicode="&#x41e;" horiz-adv-x="713" 
d="M703 357c0 -205 -132 -378 -347 -378c-210 0 -346 173 -346 378c0 204 136 380 346 380c211 0 347 -176 347 -380zM236 357c0 -114 45 -266 120 -266c78 0 121 147 121 266c0 118 -45 268 -121 268s-120 -150 -120 -268z" />
    <glyph glyph-name="uni041F" unicode="&#x41f;" horiz-adv-x="673" 
d="M638 714c0 0 5 0 4 -5l-1 -704c0 -5 -5 -5 -5 -5h-207s-5 0 -4 5v588h-177v-588c1 -5 -4 -5 -4 -5h-207s-5 0 -5 5l-1 704c-1 5 4 5 4 5c149 41 453 44 603 0z" />
    <glyph glyph-name="uni0420" unicode="&#x420;" horiz-adv-x="589" 
d="M30 152l1 547c0 5 5 5 5 5s112 35 263 30c154 -5 285 -82 285 -229c0 -107 -64 -258 -334 -247v-48c5 -158 75 -124 65 -152c-12 -36 -74 -81 -134 -81c-81 0 -151 51 -151 175zM376 507c0 75 -51 131 -126 119v-265c80 0 126 73 126 146z" />
    <glyph glyph-name="uni0421" unicode="&#x421;" horiz-adv-x="647" 
d="M623 198c20 17 22 1 16 -23c-9 -39 -74 -192 -280 -196c-198 -4 -349 176 -349 382c0 199 141 375 350 376c157 2 267 -75 267 -183c0 -53 -39 -114 -111 -114c-44 0 -79 16 -77 36c9 65 -7 135 -74 135c-91 0 -138 -157 -125 -258c32 -258 259 -266 383 -155z" />
    <glyph glyph-name="uni0422" unicode="&#x422;" horiz-adv-x="636" 
d="M623 716c0 0 43 -140 -75 -175c-46 -14 -133 -2 -133 -2l4 -339c5 -149 74 -117 64 -144c-11 -34 -77 -76 -136 -76c-79 0 -149 48 -149 165l3 408c-63 1 -121 -3 -178 -14c-5 -1 -7 5 -7 5c-1 1 -46 116 61 172c97 51 195 8 473 4c39 0 65 1 65 1s6 0 8 -5z" />
    <glyph glyph-name="uni0423" unicode="&#x423;" horiz-adv-x="649" 
d="M624 708c0 -141 0 -290 -7 -399c-12 -198 -114 -323 -279 -336c-138 -11 -250 34 -256 149c-4 71 45 113 116 113c43 0 89 -28 86 -48c-28 -71 4 -115 43 -115c95 0 79 183 77 247c-98 -131 -316 -72 -326 119l-3 50c-6 175 -88 139 -79 169c11 33 69 77 131 77
c89 0 164 -64 168 -167l4 -113c3 -89 85 -88 101 -5c7 50 -6 259 -6 259c0 5 5 5 5 5h220s5 0 5 -5z" />
    <glyph glyph-name="uni0424" unicode="&#x424;" horiz-adv-x="845" 
d="M531 211c-7 -130 75 -122 65 -150c-12 -36 -74 -81 -134 -81c-81 0 -151 51 -151 175v57c-210 0 -306 115 -306 258c0 161 141 262 415 263h1h1h1c291 0 417 -98 417 -263c0 -143 -93 -257 -309 -259zM530 610v-283c75 6 106 67 106 142c0 74 -32 131 -106 141zM204 469
c0 -75 31 -136 106 -142v283c-74 -10 -106 -67 -106 -141z" />
    <glyph glyph-name="uni0425" unicode="&#x425;" horiz-adv-x="711" 
d="M703 5c0 0 4 -5 -2 -5h-270c-5 0 -7 5 -7 5l-140 264c-88 -68 -11 -176 10 -196c10 -13 -31 -95 -123 -95c-87 0 -159 71 -165 159c-6 103 82 208 219 249l-202 323s-3 7 5 7h253c5 0 8 -6 8 -6l136 -265c96 60 20 198 -3 218c-8 7 12 69 103 77c99 9 171 -60 180 -149
c10 -105 -78 -211 -217 -254z" />
    <glyph glyph-name="uni0426" unicode="&#x426;" horiz-adv-x="757" 
d="M751 125l1 -136c0 -124 -69 -175 -179 -175c-12 0 -53 5 -53 16v157c-142 -16 -349 -12 -462 21c0 0 -5 0 -4 5l3 539c-11 119 -70 92 -61 117c11 33 75 74 133 74c75 0 143 -47 143 -161l-1 -451h167v579c-1 5 4 5 4 5h207s5 0 5 -5l1 -579h92s4 0 4 -6z" />
    <glyph glyph-name="uni0427" unicode="&#x427;" horiz-adv-x="710" 
d="M70 488c0 175 -84 139 -74 169c12 33 72 77 134 77c89 0 162 -64 162 -167v-145c0 -105 131 -72 132 40l1 245c0 5 4 7 4 7h214s5 -2 5 -6c0 0 -1 -32 2 -508c5 -149 74 -117 64 -144c-11 -34 -82 -76 -141 -76c-79 0 -149 48 -149 165v170c-81 -172 -354 -142 -354 71
v102z" />
    <glyph glyph-name="uni0428" unicode="&#x428;" horiz-adv-x="982" 
d="M272 582l-1 -453h125v581c-1 5 4 5 4 5h201s5 0 5 -5l1 -581h127v581c-1 5 4 5 4 5h207s5 0 5 -5l1 -697c1 -5 -4 -5 -4 -5c-149 -41 -739 -44 -889 0c0 0 -5 0 -4 5l3 539c-11 119 -70 92 -61 117c11 33 75 74 133 74c75 0 143 -47 143 -161z" />
    <glyph glyph-name="uni0429" unicode="&#x429;" horiz-adv-x="1052" 
d="M272 582l-1 -453h124v581c-1 5 4 5 4 5h203s5 0 5 -5l1 -581h126v581c-1 5 4 5 4 5h207s5 0 5 -5l1 -579h91s4 0 4 -6l1 -136c0 -124 -69 -175 -179 -175c-12 0 -53 5 -53 16v156c-231 -23 -637 -13 -757 22c0 0 -5 0 -4 5l3 539c-11 119 -70 92 -61 117
c11 33 75 74 133 74c75 0 143 -47 143 -161z" />
    <glyph glyph-name="uni042A" unicode="&#x42a;" horiz-adv-x="818" 
d="M429 717l1 -237c240 37 378 -97 378 -239c0 -155 -103 -263 -311 -263c-213 0 -288 156 -288 283l-1 295c-63 1 -128 -3 -185 -14c-5 -1 -7 5 -7 5c-1 1 -46 113 61 169c77 40 168 11 334 10c19 0 17 -8 18 -9zM512 99c55 0 81 66 81 122c0 105 -70 162 -163 144v-164
c1 -47 30 -102 82 -102z" />
    <glyph glyph-name="uni042B" unicode="&#x42b;" horiz-adv-x="912" 
d="M248 714c0 0 5 0 4 -5v-229c240 37 359 -97 359 -239c0 -155 -103 -263 -292 -263c-213 0 -288 156 -288 283l-1 448c0 5 5 5 5 5h213zM325 99c45 0 71 66 71 122c0 105 -51 162 -144 144v-164c1 -47 21 -102 73 -102zM633 708c0 5 5 5 5 5h214s5 0 4 -5
c0 0 1 -428 1 -497c0 -159 68 -135 59 -162c-11 -32 -78 -71 -134 -71c-81 0 -149 58 -149 152v578z" />
    <glyph glyph-name="uni042C" unicode="&#x42c;" horiz-adv-x="640" 
d="M248 714c0 0 5 0 4 -5v-229c240 37 378 -97 378 -239c0 -155 -103 -263 -311 -263c-213 0 -288 156 -288 283l-1 448c0 5 5 5 5 5h213zM334 99c55 0 81 66 81 122c0 105 -70 162 -163 144v-164c1 -47 30 -102 82 -102z" />
    <glyph glyph-name="uni042D" unicode="&#x42d;" horiz-adv-x="637" 
d="M121 275c44 0 79 -16 77 -36c-9 -65 7 -135 74 -135c72 0 125 88 125 195h-158s-6 0 -6 5v109c-1 5 5 5 5 5h159c3 105 -52 193 -125 193c-67 0 -83 -70 -74 -135c2 -20 -33 -36 -77 -36c-72 0 -111 61 -111 114c0 108 110 185 267 183c209 -1 350 -177 350 -376
c0 -205 -146 -382 -350 -383c-157 -2 -267 75 -267 183c0 53 39 114 111 114z" />
    <glyph glyph-name="uni042E" unicode="&#x42e;" horiz-adv-x="1012" 
d="M1002 357c0 -205 -122 -378 -337 -378c-188 0 -321 137 -332 314h-64l1 -288c0 -5 -5 -5 -5 -5h-206s-5 0 -4 5c0 0 2 546 2 547c-11 119 -70 92 -61 117c11 33 75 74 133 74c75 0 143 -47 143 -161c0 -30 -1 -103 -1 -145h65c20 168 147 300 329 300
c211 0 337 -176 337 -380zM555 357c0 -114 35 -266 110 -266c78 0 111 147 111 266c0 118 -35 268 -111 268s-110 -150 -110 -268z" />
    <glyph glyph-name="uni042F" unicode="&#x42f;" horiz-adv-x="639" 
d="M-2 99c85 39 152 101 190 191c-89 36 -143 115 -143 214c0 147 132 224 286 229c151 5 273 -30 273 -30s5 0 5 -5v-692c0 -6 -5 -6 -5 -6h-210s-4 0 -4 6v268h-37c-14 -173 -91 -314 -248 -296c-95 11 -117 118 -107 121zM390 377v248c-75 12 -141 -43 -138 -120
c3 -73 65 -131 138 -128z" />
    <glyph glyph-name="afii10065" unicode="&#x430;" horiz-adv-x="617" 
d="M562 201c0 -159 68 -125 58 -152c-10 -32 -64 -71 -120 -71c-69 0 -123 43 -136 114c-34 -65 -88 -113 -158 -113c-126 0 -196 139 -196 273c0 137 70 271 201 271c69 0 118 -39 149 -95v69c0 5 5 6 5 6h200s4 -1 4 -5c0 0 -7 -228 -7 -297zM291 117c49 0 75 60 75 135
s-26 136 -75 136s-75 -61 -75 -136s26 -135 75 -135z" />
    <glyph glyph-name="afii10066" unicode="&#x431;" horiz-adv-x="549" 
d="M284 473c147 8 255 -94 255 -245c0 -150 -100 -249 -265 -249c-155 0 -250 133 -260 255c-11 155 -1 350 141 417c126 59 205 28 217 79c3 11 4 18 14 19c144 24 186 -145 71 -200c-101 -48 -320 33 -329 -194c20 66 87 114 156 118zM274 93c61 0 68 78 68 135
c0 61 -9 136 -68 136c-58 0 -67 -77 -67 -136c0 -54 10 -135 67 -135z" />
    <glyph glyph-name="afii10067" unicode="&#x432;" horiz-adv-x="544" 
d="M430 299c65 -20 104 -65 104 -128c0 -129 -124 -192 -257 -192c-185 0 -247 124 -247 217v0v2v4v296c0 4 3 5 4 5v0s95 23 228 23c105 0 233 -29 233 -133c0 -50 -34 -83 -65 -94zM314 368c0 43 -37 50 -60 50c-8 0 -17 -1 -22 -3v-100h19c40 0 63 18 63 53zM285 94
c38 0 60 29 60 73c0 38 -33 58 -77 58c-10 0 -26 0 -36 -1v-61c2 -33 13 -69 53 -69z" />
    <glyph glyph-name="afii10068" unicode="&#x433;" horiz-adv-x="422" 
d="M413 496c0 0 28 -99 -72 -128c-37 -11 -92 -4 -106 -2v-164c0 -159 69 -125 59 -152c-11 -31 -68 -71 -124 -71c-80 0 -139 58 -139 152l-1 367c0 2 4 5 5 5c24 4 100 15 186 15c90 0 157 -7 182 -12c7 -1 9 -5 10 -10z" />
    <glyph glyph-name="afii10069" unicode="&#x434;" horiz-adv-x="662" 
d="M656 8l1 -1c0 -112 -54 -160 -155 -160c-12 0 -47 4 -47 15v138h-251c0 -5 1 -11 1 -16c0 -84 -54 -137 -155 -137c-13 0 -45 4 -45 15v216v3c0 18 57 1 100 161c22 81 35 256 35 256c0 5 5 5 5 5c134 30 276 32 436 0v0c1 0 3 0 3 -4v-378h69s3 0 3 -6v-107zM383 411
h-75c-7 -83 -19 -203 -29 -260c-2 -10 -4 -21 -7 -30h111v290z" />
    <glyph glyph-name="afii10070" unicode="&#x435;" horiz-adv-x="535" 
d="M519 155c4 -3 6 -7 3 -16c-11 -42 -94 -160 -240 -160c-151 0 -272 122 -272 273c0 146 113 272 285 272c164 0 235 -103 235 -174c0 -157 -183 -176 -314 -154c35 -100 168 -110 290 -42c4 3 9 4 13 1zM260 401c-33 -20 -48 -68 -52 -117c89 -8 133 25 133 79
c0 27 -22 50 -53 48c0 0 0 -1 -1 -1v0h-3c-7 -1 -16 -4 -24 -9v0z" />
    <glyph glyph-name="afii10072" unicode="&#x436;" horiz-adv-x="893" 
d="M885 66c15 -8 17 -13 0 -33c-22 -26 -71 -55 -126 -55c-206 0 -150 228 -212 236v-208c0 -5 -4 -5 -4 -5h-193s-4 0 -4 5v208c-64 -4 -5 -236 -213 -236c-55 0 -104 29 -126 55c-17 20 -15 25 1 33c109 53 109 144 150 197c23 29 52 46 96 40h1c-8 37 -15 83 -56 84
c-37 1 -29 -42 -29 -57s-26 -23 -50 -23c-63 0 -109 39 -109 106c0 66 51 112 124 112c133 0 188 -139 203 -233c3 -1 6 -2 8 -3v210c0 4 4 4 4 4h194s3 1 3 -4v-210c3 1 5 2 7 3c6 71 71 233 203 233c73 0 125 -46 125 -112c0 -67 -46 -106 -110 -106c-24 0 -50 8 -50 23
s8 57 -29 57c-36 0 -47 -48 -55 -85c1 0 -9 1 -9 1c44 6 82 -11 105 -40c41 -53 41 -144 151 -197z" />
    <glyph glyph-name="afii10073" unicode="&#x437;" horiz-adv-x="500" 
d="M376 259c61 -17 114 -52 114 -118c0 -121 -141 -163 -251 -163c-86 0 -229 31 -229 130c0 49 38 91 94 91c33 0 69 -9 73 -17c6 -9 2 -22 2 -41c0 -40 23 -61 53 -61c37 0 57 28 57 56c0 25 -11 68 -69 68h-23s-4 0 -4 5v93c0 4 4 4 4 4h35c42 0 57 35 57 59
c0 29 -15 57 -52 57c-33 0 -58 -21 -58 -61c0 -20 4 -33 -2 -41c-4 -8 -40 -18 -73 -18c-56 0 -94 43 -94 91c0 100 143 131 229 131c110 0 245 -34 245 -155c0 -67 -50 -96 -108 -110z" />
    <glyph glyph-name="afii10074" unicode="&#x438;" 
d="M560 201c0 -159 68 -125 59 -152c-11 -32 -65 -71 -121 -71c-69 0 -122 43 -136 115c-42 -85 -109 -115 -162 -115c-74 0 -137 65 -137 165v156c0 159 -76 125 -67 152c11 32 65 71 121 71c81 0 148 -58 148 -152v-194c0 -98 90 -66 94 46v275c0 5 4 6 4 6h201s4 -1 4 -5
c0 0 -8 -228 -8 -297z" />
    <glyph glyph-name="afii10075" unicode="&#x439;" 
d="M521 642c-74 -131 -342 -136 -429 0c-32 50 -16 112 29 139c46 29 106 15 134 -32c23 -37 18 -77 -6 -109c-8 -10 -8 -22 11 -30c38 -17 77 -7 91 0c19 9 22 20 13 31c-24 32 -29 71 -6 108c28 47 88 61 134 32c45 -27 59 -85 29 -139zM560 201c0 -159 68 -125 59 -152
c-11 -32 -65 -71 -121 -71c-69 0 -122 43 -136 115c-42 -85 -109 -115 -162 -115c-74 0 -137 65 -137 165v156c0 159 -76 125 -67 152c11 32 65 71 121 71c81 0 148 -58 148 -152v-194c0 -98 90 -66 94 46v275c0 5 4 6 4 6h201s4 -1 4 -5c0 0 -8 -228 -8 -297z" />
    <glyph glyph-name="afii10076" unicode="&#x43a;" horiz-adv-x="602" 
d="M594 66c16 -8 17 -13 1 -33c-23 -26 -71 -55 -127 -55c-206 0 -149 230 -212 236v-208c0 -5 -4 -6 -4 -6h-201s-4 1 -4 5c0 0 8 228 8 297c0 159 -68 125 -59 152c11 32 65 71 121 71c80 0 139 -58 139 -152v-84c3 1 5 2 8 3c10 75 70 233 203 233c73 0 124 -46 124 -112
c0 -67 -46 -106 -109 -106c-25 0 -51 8 -51 23s8 52 -25 56c-39 5 -56 -49 -58 -84c45 6 73 -10 96 -39c40 -53 41 -144 150 -197z" />
    <glyph glyph-name="afii10077" unicode="&#x43b;" horiz-adv-x="601" 
d="M571 499v-493c0 -5 -4 -5 -4 -5h-193s-4 0 -4 5v405h-71c-5 -83 -13 -203 -24 -260c-23 -128 -85 -172 -166 -172c-65 0 -104 49 -104 70c0 19 43 9 87 170c22 80 35 279 35 279c0 4 3 5 4 5v0c134 30 278 32 438 0h-1c1 0 3 -1 3 -4z" />
    <glyph glyph-name="afii10078" unicode="&#x43c;" horiz-adv-x="769" 
d="M731 499c0 -23 8 -494 8 -494c0 -5 -4 -5 -4 -5h-194s-4 0 -4 5c0 0 1 89 1 191l10 108l-127 -295c-2 -6 -4 -8 -13 -8h-25c-6 0 -9 2 -12 8l-101 256c0 -42 -2 -80 -5 -105c-17 -129 -75 -179 -155 -179c-65 0 -105 47 -105 68c0 24 34 8 71 170c23 98 13 279 13 279
c0 5 4 5 4 5h210c3 0 5 -4 5 -4l90 -187h3l98 188s1 3 5 3h224s3 0 3 -4z" />
    <glyph glyph-name="afii10079" unicode="&#x43d;" horiz-adv-x="611" 
d="M556 202c0 -159 69 -125 59 -153c-10 -31 -64 -68 -120 -68c-81 0 -140 56 -140 150v67h-98v-192c0 -5 -5 -6 -5 -6h-200s-5 1 -4 5c0 0 7 228 7 297c0 159 -68 125 -59 152c11 32 65 71 121 71c81 0 140 -58 140 -152v-58h98v183c0 5 5 5 5 5h192s4 0 4 -5v-296z" />
    <glyph glyph-name="afii10080" unicode="&#x43e;" horiz-adv-x="580" 
d="M570 249c0 -151 -116 -272 -280 -272c-161 0 -280 121 -280 272c0 150 119 272 280 272s280 -122 280 -272zM207 249c0 -84 25 -159 83 -159c60 0 83 71 83 159c0 86 -25 159 -83 159c-59 0 -83 -73 -83 -159z" />
    <glyph glyph-name="afii10081" unicode="&#x43f;" horiz-adv-x="575" 
d="M542 503c0 0 3 1 3 -4v-493c0 -5 -4 -5 -4 -5h-193s-4 0 -4 5v405h-112v-405c0 -5 -5 -5 -5 -5h-193s-4 0 -4 5v493c0 4 4 4 4 4c144 29 362 32 508 0z" />
    <glyph glyph-name="afii10082" unicode="&#x440;" horiz-adv-x="616" 
d="M411 525c126 0 195 -139 195 -273c0 -137 -69 -271 -200 -271c-69 0 -118 39 -149 95v-290c0 -5 -5 -6 -5 -6h-200s-5 1 -4 5c0 0 -1 448 -1 517c0 159 -60 125 -51 152c11 32 65 71 121 71c69 0 122 -43 136 -114c34 66 88 114 158 114zM326 116c49 0 75 61 75 136
s-26 135 -75 135s-75 -60 -75 -135s26 -136 75 -136z" />
    <glyph glyph-name="afii10083" unicode="&#x441;" horiz-adv-x="521" 
d="M512 155c3 -3 5 -7 3 -16c-12 -42 -86 -160 -232 -160c-152 0 -273 122 -273 273c0 146 112 265 265 272v0c112 0 224 -45 224 -140c1 -48 -38 -100 -97 -100c-33 0 -66 11 -70 17c-5 9 -1 21 -1 41c0 41 -20 69 -48 69c-54 0 -80 -85 -73 -159c16 -179 186 -159 288 -98
c4 3 10 4 14 1z" />
    <glyph glyph-name="afii10084" unicode="&#x442;" horiz-adv-x="507" 
d="M501 467c2 -99 -104 -107 -158 -99h-1v-165c0 -159 68 -125 59 -152c-11 -32 -66 -71 -122 -71c-80 0 -139 58 -139 152v244l-130 1s-3 0 -3 4l-2 112v7c0 3 1 3 2 4c197 37 446 7 481 2c7 -1 9 -5 10 -10c0 0 3 -12 3 -29z" />
    <glyph glyph-name="afii10085" unicode="&#x443;" horiz-adv-x="595" 
d="M564 73c6 -173 -91 -297 -276 -297c-146 0 -213 98 -225 136c-16 49 -6 58 5 56c24 -4 53 -78 165 -78c80 0 126 64 129 124v100c-41 -86 -109 -116 -162 -116c-74 0 -137 65 -137 165v136c0 159 -76 125 -67 152c11 32 65 71 121 71c81 0 147 -58 147 -152v-174
c0 -100 94 -65 96 52v249c0 5 4 5 4 5h193s4 0 4 -5c0 0 3 -291 3 -424z" />
    <glyph glyph-name="afii10086" unicode="&#x444;" horiz-adv-x="892" 
d="M694 525c127 0 188 -139 188 -273c0 -137 -61 -271 -193 -271c-65 0 -111 36 -140 87v-282c0 -5 -1 -5 -1 -5h-193s-8 0 -7 5c0 0 -1 119 -2 289c-32 -58 -82 -95 -148 -95c-127 0 -188 138 -188 273c0 137 61 271 192 271c69 0 116 -40 146 -96v71c0 4 3 4 3 4h194
s4 1 4 -4v-73c32 58 81 99 145 99zM282 117c49 0 68 61 68 136s-19 135 -68 135c-48 0 -67 -60 -67 -135s19 -136 67 -136zM609 116c49 0 68 61 68 136s-19 135 -68 135c-48 0 -67 -60 -67 -135s19 -136 67 -136z" />
    <glyph glyph-name="afii10087" unicode="&#x445;" horiz-adv-x="577" 
d="M406 248l170 -242c2 -3 1 -6 -3 -6h-221c-4 0 -7 3 -8 5l-112 173c-86 -23 11 -120 11 -129c1 -33 -48 -71 -104 -71c-80 0 -131 48 -134 117c-4 88 50 143 169 170l-163 233c-2 3 1 5 3 5h217c3 0 6 -2 8 -5l112 -170c80 23 -16 115 -16 122c-1 33 48 70 104 70
c80 0 133 -55 133 -123c0 -76 -76 -129 -166 -149z" />
    <glyph glyph-name="afii10088" unicode="&#x446;" horiz-adv-x="651" 
d="M645 97v-90c0 -112 -53 -160 -154 -160c-13 0 -47 4 -47 15v127c-119 -19 -246 -17 -384 11c0 0 -5 0 -4 5c0 0 -1 227 -1 296c0 159 -68 125 -59 152c11 32 65 71 121 71c81 0 140 -58 140 -152v-271h105v396c0 5 4 5 4 5h193s4 -1 4 -5v-396h79s3 0 3 -4z" />
    <glyph glyph-name="afii10089" unicode="&#x447;" horiz-adv-x="599" 
d="M544 201c0 -159 69 -125 59 -152c-10 -32 -64 -71 -120 -71c-81 0 -140 58 -140 152v68c-35 -49 -89 -63 -135 -63c-88 0 -145 61 -145 164c0 159 -76 125 -67 152c11 32 65 71 121 71c81 0 147 -58 147 -152v-60c0 -101 79 -79 79 21v166c0 5 5 6 5 6h200s4 -1 4 -5
c0 0 -8 -228 -8 -297z" />
    <glyph glyph-name="afii10090" unicode="&#x448;" horiz-adv-x="862" 
d="M832 497v-493c0 -4 -2 -4 -3 -4v0c-134 -30 -610 -32 -770 0v0s-4 0 -4 5v296c0 159 -68 125 -59 152c11 32 65 71 121 71c81 0 139 -58 139 -152v-272h90v397c0 5 4 5 4 5h185s4 -1 4 -5v-397h92v397c0 5 5 5 5 5h192s4 -1 4 -5z" />
    <glyph glyph-name="afii10091" unicode="&#x449;" horiz-adv-x="920" 
d="M914 8l1 -1c0 -112 -54 -160 -155 -160c-13 0 -48 4 -48 15v123c-195 -15 -527 -11 -655 15h1c-1 1 -3 2 -2 5c0 0 -1 227 -1 296c0 159 -68 125 -59 152c11 32 65 71 121 71c81 0 140 -58 140 -152v-272h89v397c0 5 4 5 4 5h185s4 -1 4 -5v-396h92v396c0 5 5 5 5 5h192
s5 -1 5 -5v-396h77s4 0 4 -4v-89z" />
    <glyph glyph-name="afii10092" unicode="&#x44a;" horiz-adv-x="628" 
d="M411 394c107 0 207 -79 207 -196c0 -129 -116 -219 -249 -219c-185 0 -239 124 -239 217v187h-121s-4 1 -4 5v111c0 4 3 4 3 4c82 29 222 30 319 0c0 0 4 0 4 -5v-110c24 3 52 6 80 6zM377 94c41 0 52 55 52 108c0 58 -34 97 -78 97c-7 0 -15 -1 -20 -2v-132
c2 -36 10 -71 46 -71z" />
    <glyph glyph-name="afii10093" unicode="&#x44b;" horiz-adv-x="793" 
d="M731 201c0 -159 76 -125 66 -152c-11 -32 -65 -71 -121 -71c-80 0 -147 58 -147 152v194c0 81 -50 74 -70 7c31 -34 51 -80 51 -134c0 -129 -108 -219 -241 -219c-185 0 -239 125 -239 217c0 68 0 304 0 303c0 4 4 5 4 5h193s4 -1 4 -6v-110c24 4 52 7 80 7
c37 0 73 -10 104 -28c38 116 118 156 178 156c75 0 138 -65 138 -165v-156zM274 94c41 0 47 54 47 108c0 58 -26 96 -70 96c-7 0 -15 -1 -20 -2v-122c1 -39 8 -80 43 -80z" />
    <glyph glyph-name="afii10094" unicode="&#x44c;" horiz-adv-x="528" 
d="M311 394c107 0 207 -79 207 -197c0 -129 -116 -219 -249 -219c-185 0 -239 125 -239 217c0 68 0 304 0 303c0 4 4 5 4 5h193s4 -1 4 -6v-110c25 4 52 7 80 7zM277 94c42 0 52 54 52 108c0 58 -33 96 -78 96c-7 0 -14 -1 -20 -2v-132c2 -35 11 -70 46 -70z" />
    <glyph glyph-name="afii10095" unicode="&#x44d;" horiz-adv-x="529" 
d="M516 231c-11 -149 -132 -253 -284 -250c-88 2 -222 37 -222 135c0 49 35 96 96 96c31 0 69 -8 67 -29c-3 -29 1 -49 9 -62c14 -22 35 -29 57 -29c40 0 76 22 81 100h-124s-4 0 -4 5v99c0 4 4 4 4 4h124c-5 78 -38 111 -89 111c-19 -2 -37 -10 -48 -28
c-8 -14 -12 -34 -9 -63c2 -21 -36 -29 -67 -29c-61 0 -97 48 -96 96c3 104 134 135 222 137h1h1c172 0 303 -141 281 -293z" />
    <glyph glyph-name="afii10096" unicode="&#x44e;" horiz-adv-x="837" 
d="M562 524c161 0 265 -122 265 -272c0 -151 -100 -273 -265 -273c-142 0 -239 94 -260 219h-42v-192c0 -5 -4 -6 -4 -6h-197s-4 1 -4 5v297c0 159 -68 125 -59 152c11 32 73 71 129 71c80 0 135 -58 135 -152v-58h44c24 120 120 209 258 209zM562 93c61 0 67 71 67 159
c0 86 -8 159 -67 159c-58 0 -67 -72 -67 -159c0 -84 9 -159 67 -159z" />
    <glyph glyph-name="afii10097" unicode="&#x44f;" horiz-adv-x="560" 
d="M530 499v-493c0 -5 -4 -5 -4 -5h-193s-4 0 -4 5v189c-32 -14 -10 -217 -200 -217c-56 0 -89 29 -113 55c-17 20 -11 26 4 35c59 37 118 118 136 143c-69 23 -122 71 -122 143c0 115 126 172 249 172c133 0 243 -23 243 -23s4 0 4 -4zM295 418c-35 0 -65 -22 -65 -68
c0 -44 23 -65 67 -65h32v131c-11 1 -23 2 -34 2z" />
    <glyph glyph-name="afii10071" unicode="&#x451;" horiz-adv-x="535" 
d="M255 638c0 -48 -44 -86 -99 -86s-99 38 -99 86s44 86 99 86s99 -38 99 -86zM488 638c0 -48 -44 -86 -99 -86s-99 38 -99 86s44 86 99 86s99 -38 99 -86zM519 155c4 -3 6 -7 3 -16c-11 -42 -94 -160 -240 -160c-151 0 -272 122 -272 273c0 146 113 272 285 272
c164 0 235 -103 235 -174c0 -157 -183 -176 -314 -154c35 -100 168 -110 290 -42c4 3 9 4 13 1zM260 401c-33 -20 -48 -68 -52 -117c89 -8 133 25 133 79c0 27 -22 50 -53 48c0 0 0 -1 -1 -1v0h-3c-7 -1 -16 -4 -24 -9v0z" />
    <glyph glyph-name="afii10100" unicode="&#x453;" horiz-adv-x="422" 
d="M413 496c0 0 28 -99 -72 -128c-37 -11 -92 -4 -106 -2v-164c0 -159 69 -125 59 -152c-11 -31 -68 -71 -124 -71c-80 0 -139 58 -139 152l-1 367c0 2 4 5 5 5c24 4 100 15 186 15c90 0 157 -7 182 -12c7 -1 9 -5 10 -10zM355 735c-44 -86 -112 -147 -215 -183
c-3 -1 -6 -2 -8 -1c-18 14 -30 30 -41 49c-2 2 -1 5 1 7c70 70 103 120 126 213c1 2 3 3 6 2c53 -13 97 -41 129 -79c3 -2 3 -6 2 -8z" />
    <glyph glyph-name="afii10101" unicode="&#x454;" horiz-adv-x="525" 
d="M13 231c-22 152 109 293 281 293h1h1c88 -2 219 -33 222 -137c1 -48 -35 -96 -96 -96c-31 0 -69 8 -67 29c3 29 -1 49 -9 63c-11 18 -29 26 -48 28c-51 0 -84 -33 -89 -111h124s4 0 4 -4v-99c0 -5 -4 -5 -4 -5h-124c5 -78 41 -100 81 -100c22 0 43 7 57 29
c8 13 12 33 9 62c-2 21 36 29 67 29c61 0 96 -47 96 -96c0 -98 -134 -133 -222 -135c-152 -3 -273 101 -284 250z" />
    <glyph glyph-name="afii10102" unicode="&#x455;" horiz-adv-x="513" 
d="M339 294c80 -23 164 -63 164 -154c0 -121 -144 -163 -258 -163c-89 0 -235 31 -235 130c0 49 39 91 97 91c33 0 71 -9 75 -17c6 -9 2 -22 2 -41c0 -40 25 -61 59 -61c37 0 53 18 54 45c-2 48 -69 59 -143 83c-68 24 -135 72 -136 151v3c0 104 123 163 225 163
c117 0 236 -41 236 -130c1 -48 -35 -87 -97 -87c-35 0 -68 11 -72 18c-5 8 -1 21 -1 41c0 40 -17 58 -51 57c-31 -1 -47 -28 -47 -47v0v0c0 -49 59 -62 128 -82z" />
    <glyph glyph-name="afii10103" unicode="&#x456;" horiz-adv-x="296" 
d="M266 6c0 -5 -4 -6 -4 -6h-200s-5 1 -5 5c0 0 8 228 8 297c0 159 -68 125 -59 152c11 32 65 71 121 71c81 0 139 -58 139 -152v-367zM259 645c0 -52 -53 -93 -117 -93s-116 41 -116 93c0 51 52 93 116 93s117 -42 117 -93z" />
    <glyph glyph-name="afii10104" unicode="&#x457;" horiz-adv-x="296" 
d="M264 6c0 -5 -5 -6 -5 -6h-200s-4 1 -4 5c0 0 7 228 7 297c0 159 -68 125 -58 152c10 32 64 71 120 71c81 0 140 -58 140 -152v-367zM124 638c0 -48 -45 -86 -100 -86c-54 0 -99 38 -99 86s45 86 99 86c55 0 100 -38 100 -86zM356 638c0 -48 -44 -86 -99 -86
s-99 38 -99 86s44 86 99 86s99 -38 99 -86z" />
    <glyph glyph-name="afii10105" unicode="&#x458;" horiz-adv-x="306" 
d="M270 498v-466v0c0 -214 -85 -296 -221 -296c-119 0 -179 64 -179 126c0 48 38 99 93 99c33 0 68 -11 71 -18c5 -8 -7 -30 -7 -65c0 -26 7 -60 36 -60c25 0 39 20 39 57c0 64 -33 91 -33 165v0v457c0 5 4 6 4 6h193s4 -1 4 -5zM169 552c-64 0 -116 41 -116 93
c0 51 52 93 116 93c65 0 117 -42 117 -93c0 -52 -52 -93 -117 -93z" />
    <glyph glyph-name="afii10106" unicode="&#x459;" horiz-adv-x="850" 
d="M633 394c108 0 207 -79 207 -197c0 -129 -115 -219 -249 -219c-184 0 -238 125 -238 217v0v2v4v210h-63c-5 -83 -14 -203 -24 -260c-24 -128 -86 -172 -166 -172c-65 0 -105 49 -105 70c0 19 44 9 88 170c22 80 34 279 34 279c1 4 4 5 5 5v0c134 30 268 31 427 0
c0 0 5 -1 5 -6v-110c24 4 52 7 79 7zM601 94c41 0 51 54 51 108c0 58 -34 96 -78 96c-8 0 -15 -1 -20 -2v-128c2 -37 10 -74 47 -74z" />
    <glyph glyph-name="afii10107" unicode="&#x45a;" horiz-adv-x="845" 
d="M628 394c107 0 207 -79 207 -197c0 -129 -116 -219 -249 -219c-185 0 -239 125 -239 217v0v2v1h-91v-192c0 -5 -4 -6 -4 -6h-201s-4 1 -4 5c0 0 8 228 8 297c0 159 -68 125 -59 152c11 32 65 71 121 71c80 0 139 -58 139 -152v-58h91v183c0 4 4 5 4 5h193s4 -1 4 -6v-110
c25 4 52 7 80 7zM594 94c41 0 52 54 52 108c0 58 -34 96 -78 96c-7 0 -14 -1 -20 -2v-132c2 -36 11 -70 46 -70z" />
    <glyph glyph-name="afii10110" unicode="&#x45e;" horiz-adv-x="595" 
d="M521 642c-74 -131 -342 -136 -429 0c-32 50 -16 112 29 139c46 29 106 15 134 -32c23 -37 18 -77 -6 -109c-8 -10 -8 -22 11 -30c38 -17 77 -7 91 0c19 9 22 20 13 31c-24 32 -29 71 -6 108c28 47 88 61 134 32c45 -27 59 -85 29 -139zM564 73c6 -173 -91 -297 -276 -297
c-146 0 -213 98 -225 136c-16 49 -6 58 5 56c24 -4 53 -78 165 -78c80 0 126 64 129 124v100c-41 -86 -109 -116 -162 -116c-74 0 -137 65 -137 165v136c0 159 -76 125 -67 152c11 32 65 71 121 71c81 0 147 -58 147 -152v-174c0 -100 94 -65 96 52v249c0 5 4 5 4 5h193
s4 0 4 -5c0 0 3 -291 3 -424z" />
    <glyph glyph-name="afii10050" unicode="&#x490;" horiz-adv-x="508" 
d="M34 715c71 6 130 2 201 3c53 0 72 30 72 75v36c0 10 10 10 17 10c83 0 170 -65 165 -155c-7 -137 -150 -154 -244 -132c0 -22 0 -118 3 -341c5 -158 76 -124 66 -152c-12 -36 -74 -81 -134 -81c-81 0 -152 51 -152 175c0 126 1 557 1 557c0 5 5 5 5 5z" />
    <glyph glyph-name="afii10098" unicode="&#x491;" horiz-adv-x="449" 
d="M435 493c0 -70 -63 -150 -200 -125l1 -163c0 -164 66 -125 58 -156c-7 -31 -70 -70 -124 -70c-79 0 -141 62 -141 156v358c0 8 8 8 8 8l179 4c47 0 63 20 63 59v54c0 8 8 8 15 8c71 0 141 -55 141 -133z" />
    <glyph glyph-name="endash" unicode="&#x2013;" horiz-adv-x="500" 
d="M466 289v-88s0 -3 -4 -3c-108 -1 -428 0 -428 0c-4 0 -5 4 -5 4v86s1 5 6 5h427c5 0 4 -4 4 -4z" />
    <glyph glyph-name="emdash" unicode="&#x2014;" horiz-adv-x="813" 
d="M779 289v-88s0 -3 -4 -3c-108 -1 -741 0 -741 0c-4 0 -5 4 -5 4v86s1 5 6 5h740c5 0 4 -4 4 -4z" />
    <glyph glyph-name="quoteleft" unicode="&#x2018;" horiz-adv-x="206" 
d="M15 553c0 98 77 149 108 160c39 14 45 6 45 -2s-6 -15 -15 -23c-36 -34 -38 -51 -20 -57c34 -14 58 -45 58 -84c0 -48 -40 -88 -88 -88s-88 40 -88 94z" />
    <glyph glyph-name="quoteright" unicode="&#x2019;" horiz-adv-x="206" 
d="M191 628c0 -98 -77 -149 -108 -160c-39 -14 -46 -6 -46 2s7 15 16 23c36 34 38 51 20 57c-34 14 -58 45 -58 84c0 48 39 88 88 88c47 0 88 -40 88 -94z" />
    <glyph glyph-name="quotesinglbase" unicode="&#x201a;" horiz-adv-x="205" 
d="M191 74c0 -98 -77 -149 -108 -160c-39 -14 -46 -6 -46 2s7 15 16 23c36 34 38 51 20 57c-34 14 -58 45 -58 84c0 48 39 88 88 88c47 0 88 -40 88 -94z" />
    <glyph glyph-name="quotedblleft" unicode="&#x201c;" horiz-adv-x="396" 
d="M205 553c0 98 77 149 108 160c39 14 46 6 46 -2s-7 -15 -16 -23c-36 -34 -38 -51 -20 -57c34 -14 58 -45 58 -84c0 -48 -39 -88 -88 -88c-47 0 -88 40 -88 94zM15 553c0 98 77 149 108 160c39 14 45 6 45 -2s-6 -15 -15 -23c-36 -34 -38 -51 -20 -57
c34 -14 58 -45 58 -84c0 -48 -40 -88 -88 -88s-88 40 -88 94z" />
    <glyph glyph-name="quotedblright" unicode="&#x201d;" horiz-adv-x="396" 
d="M191 628c0 -98 -77 -149 -108 -160c-39 -14 -46 -6 -46 2s7 15 16 23c36 34 38 51 20 57c-34 14 -58 45 -58 84c0 48 39 88 88 88c47 0 88 -40 88 -94zM381 628c0 -98 -77 -149 -108 -160c-39 -14 -45 -6 -45 2s6 15 15 23c36 34 38 51 20 57c-34 14 -58 45 -58 84
c0 48 40 88 88 88s88 -40 88 -94z" />
    <glyph glyph-name="quotedblbase" unicode="&#x201e;" horiz-adv-x="396" 
d="M191 69c0 -98 -77 -149 -108 -160c-39 -14 -46 -6 -46 2s7 15 16 23c36 34 38 51 20 57c-34 14 -58 45 -58 84c0 48 39 88 88 88c47 0 88 -40 88 -94zM381 69c0 -98 -77 -149 -108 -160c-39 -14 -45 -6 -45 2s6 15 15 23c36 34 38 51 20 57c-34 14 -58 45 -58 84
c0 48 40 88 88 88s88 -40 88 -94z" />
    <glyph glyph-name="dagger" unicode="&#x2020;" horiz-adv-x="440" 
d="M360 523c105 0 105 -139 0 -139c-40 0 -79 15 -108 32c30 -30 45 -103 45 -169c0 -115 -48 -359 -76 -359s-77 242 -77 359c0 52 12 138 46 169c-29 -17 -69 -32 -108 -32c-105 0 -105 139 0 139c43 0 80 -17 108 -37c-21 29 -41 81 -41 127c0 109 144 109 144 0
c0 -47 -20 -98 -41 -127c28 20 65 37 108 37z" />
    <glyph glyph-name="bullet" unicode="&#x2022;" horiz-adv-x="338" 
d="M318 249c0 -82 -67 -149 -149 -149c-83 0 -149 67 -149 149c0 83 66 150 149 150c82 0 149 -67 149 -150z" />
    <glyph glyph-name="ellipsis" unicode="&#x2026;" horiz-adv-x="736" 
d="M211 80c0 -54 -44 -98 -98 -98s-98 44 -98 98s44 98 98 98s98 -44 98 -98zM466 80c0 -54 -44 -98 -98 -98s-98 44 -98 98s44 98 98 98s98 -44 98 -98zM721 80c0 -54 -44 -98 -98 -98s-98 44 -98 98s44 98 98 98s98 -44 98 -98z" />
    <glyph glyph-name="Euro" unicode="&#x20ac;" horiz-adv-x="564" 
d="M558 116c0 -87 -103 -127 -187 -135c-11 -2 -23 -2 -34 -2h-1h-1h-1c-137 1 -237 83 -270 190c-17 -1 -34 -3 -54 -3c-5 0 -5 4 -5 4v61s0 3 4 3c14 0 28 -1 43 -2c-1 6 -1 13 -1 19s0 12 1 18c-13 -1 -27 -2 -42 -2c-5 0 -5 4 -5 4v61s0 3 4 3c17 0 35 -1 54 -3
c33 108 133 190 270 191h1h2v0c12 0 23 0 35 -2c83 -8 187 -48 187 -135c0 -48 -35 -95 -96 -95c-31 0 -69 8 -67 28c2 29 -1 49 -9 63c-12 19 -30 26 -48 28h-9c-6 0 -12 0 -17 -2c-23 -6 -46 -26 -57 -78c60 2 107 5 107 5c5 0 5 -4 5 -4v-59s0 -5 -5 -5c0 0 -46 4 -113 6
c0 -3 -1 -6 -1 -9c1 -4 1 -9 1 -13v-23c63 3 113 6 113 6c5 0 5 -4 5 -4v-59s0 -5 -5 -5c0 0 -43 4 -106 6c11 -52 34 -72 57 -78c5 -2 11 -2 17 -2h8c19 2 37 10 48 28c8 14 12 34 9 63c-1 20 36 29 67 29c61 0 97 -48 96 -96z" />
    <glyph glyph-name="afii61352" unicode="&#x2116;" horiz-adv-x="784" 
d="M759 211c5 0 5 -3 5 -3v-100s0 -4 -4 -4h-290c-5 0 -5 4 -5 4v99s0 4 5 4h289zM764 375c0 -88 -60 -149 -156 -149c-94 0 -156 61 -156 149s62 149 156 149s156 -61 156 -149zM576 375c0 -49 -2 -83 32 -83c36 0 32 31 32 83c0 50 2 83 -32 83s-32 -33 -32 -83zM430 503
c0 0 4 0 4 -4v-393c0 -3 -3 -3 -3 -3h-160c-4 0 -5 4 -5 4c-1 1 -1 1 -1 2l-70 137l-11 41c-2 7 -9 4 -8 -2c0 0 7 -28 8 -37v-141c0 -4 -3 -4 -3 -4h-148s-3 0 -3 4v393c0 3 3 3 3 3h160c3 0 5 -4 5 -4c0 -1 0 -1 1 -2l70 -137l11 -42c2 -7 10 -3 8 3c0 0 -7 28 -9 37v141
c0 4 4 4 4 4h147z" />
    <glyph glyph-name="trademark" unicode="&#x2122;" horiz-adv-x="553" 
d="M234 518c3 0 2 -2 2 -2v-57s0 -1 -1 -1v0c-15 -3 -42 -4 -71 -5v-148c0 -2 -2 -2 -2 -2h-82s-1 0 -1 2c0 0 -1 83 -1 148c-29 1 -58 3 -71 5v0c-2 0 -2 2 -2 2v56s0 2 3 2h226zM539 516c0 -10 3 -211 3 -211c1 -1 -1 -2 -1 -2h-82s-2 0 -2 3v100c1 6 3 19 3 19
c0 2 -6 2 -6 0l-6 -21l-44 -97c-1 -3 -2 -4 -6 -4h-7c-4 0 -5 1 -6 4l-44 96l-6 22c-1 2 -7 2 -6 0c0 -1 2 -16 3 -21v-98c0 -3 -2 -3 -2 -3h-82s-2 1 -2 2c0 0 4 201 4 211c0 1 1 1 1 1h99c2 0 3 -2 3 -2l41 -79h1l41 79s1 2 3 2h99s1 0 1 -1z" />
    <glyph glyph-name=".null" horiz-adv-x="0" 
 />
    <glyph glyph-name="CR" horiz-adv-x="249" 
 />
    <glyph glyph-name="u.salt" horiz-adv-x="584" 
d="M563 498c-1 -99 -3 -198 -2 -298c0 -153 -124 -222 -242 -222c-138 0 -253 78 -256 219v1v101c0 159 -76 125 -67 152c11 32 65 71 121 71c81 0 148 -58 148 -152v-194v-2c2 -60 22 -81 48 -81c24 0 42 21 46 72v332c0 5 4 6 4 6h196s4 -1 4 -5z" />
    <glyph glyph-name="afii10078.salt" horiz-adv-x="746" 
d="M38 499c0 4 3 4 3 4h224c4 0 5 -3 5 -3l102 -208h6l98 208s1 3 5 3h224s3 0 3 -4c0 -23 8 -494 8 -494c0 -5 -4 -5 -4 -5h-194s-4 0 -4 5c0 0 1 89 1 191l10 108l-127 -295c-2 -6 -4 -8 -13 -8h-25c-6 0 -9 2 -12 8l-127 295l10 -108c0 -102 1 -191 1 -191
c0 -5 -4 -5 -4 -5h-194s-4 0 -4 5c0 0 8 471 8 494z" />
    <glyph glyph-name="afii10068.salt" horiz-adv-x="420" 
d="M411 496c0 0 28 -99 -72 -128c-37 -11 -90 -4 -104 -2l-1 -361c0 -5 -4 -5 -4 -5h-196s-4 0 -4 4v494c0 2 4 5 5 5c24 4 98 15 184 15c90 0 157 -7 182 -12c7 -1 9 -5 10 -10z" />
    <glyph glyph-name="a.salt" horiz-adv-x="577" 
d="M556 499c1 -23 0 -493 0 -493c1 -5 -4 -5 -4 -5h-192s-5 0 -5 5v80c-34 -62 -87 -107 -154 -107c-126 0 -196 139 -196 273c0 137 69 271 201 271c69 0 118 -39 149 -96v72c0 5 4 4 4 4h194s3 0 3 -4zM286 117c48 0 75 60 75 135s-27 136 -75 136c-49 0 -76 -61 -76 -136
s27 -135 76 -135z" />
    <glyph glyph-name="afii10081.salt" horiz-adv-x="593" 
d="M538 202c0 -159 68 -125 59 -153c-11 -31 -65 -70 -121 -70c-81 0 -140 58 -140 152c0 4 4 172 6 280h-111v-405c0 -5 -4 -5 -4 -5h-193s-4 0 -4 5v493c0 3 2 4 3 4v0c144 29 354 32 500 0c0 0 5 0 5 -5v-296z" />
    <glyph glyph-name="exclamdown.salt" horiz-adv-x="254" 
d="M29 433c0 55 44 99 98 99s98 -44 98 -99c0 -54 -44 -98 -98 -98s-98 44 -98 98zM10 -99c0 146 46 391 117 391s117 -245 117 -391c0 -186 -234 -186 -234 0z" />
    <glyph glyph-name="afii10084.salt" horiz-adv-x="502" 
d="M496 467c2 -99 -101 -107 -155 -99h-1v-363c0 -4 -5 -5 -5 -5h-190s-5 1 -4 5l-1 371l-130 1s-3 0 -3 4l-2 112v7c0 3 1 3 2 4c197 37 441 7 476 2c7 -1 9 -5 10 -10c0 0 3 -12 3 -29z" />
    <glyph glyph-name="exclam.salt" horiz-adv-x="254" 
d="M225 80c0 -55 -44 -99 -98 -99s-98 44 -98 99c0 54 44 98 98 98s98 -44 98 -98zM244 612c0 -146 -46 -391 -117 -391s-117 245 -117 391c0 186 234 186 234 0z" />
    <glyph glyph-name="i.salt" horiz-adv-x="265" 
d="M249 645c0 -52 -53 -93 -117 -93s-116 41 -116 93c0 51 52 93 116 93s117 -42 117 -93zM233 6c0 -5 -4 -6 -4 -6h-195s-5 1 -5 5c0 0 3 228 3 493c0 5 5 5 5 5h192s4 0 4 -5v-492z" />
    <glyph glyph-name="afii10093.salt2" horiz-adv-x="795" 
d="M740 201c0 -159 69 -125 59 -152c-11 -32 -72 -71 -128 -71c-81 0 -140 58 -140 152v367c0 5 5 6 5 6h200s4 -1 4 -5v-297zM311 394c107 0 199 -79 199 -197c0 -129 -108 -219 -241 -219c-185 0 -239 125 -239 217c0 68 0 304 0 303c0 4 4 5 4 5h193s4 -1 4 -6v-110
c24 4 52 7 80 7zM274 94c41 0 47 54 47 108c0 58 -26 96 -70 96c-7 0 -15 -1 -20 -2v-122c1 -38 8 -80 43 -80z" />
    <glyph glyph-name="f_s" horiz-adv-x="738" 
d="M586 349c80 -65 145 -112 151 -197c6 -87 -77 -174 -236 -175c-110 -1 -214 41 -214 130c0 49 37 95 95 95c33 0 73 -13 77 -21c6 -9 -3 -31 -3 -50c0 -100 152 -43 53 48c-84 77 -214 143 -207 243c5 81 97 107 96 173c-2 108 -145 100 -153 4c-4 -50 9 -42 18 -179
v-414c0 -5 -4 -6 -4 -6h-193s-4 1 -4 5l-1 404h-55s-5 0 -4 5v85c0 4 3 4 3 4h57c-19 139 93 242 271 242c91 1 206 -24 260 -95c103 -136 -175 -164 -7 -301z" />
    <glyph glyph-name="l.salt" horiz-adv-x="244" 
d="M224 6c0 -5 -4 -6 -4 -6h-195s-5 1 -5 5c0 0 3 443 3 708c0 5 5 5 5 5h192s4 0 4 -5v-707z" />
    <glyph glyph-name="o_o" horiz-adv-x="960" 
d="M955 249c0 -151 -116 -272 -280 -272c-78 0 -158 33 -195 83c-39 -49 -117 -83 -195 -83c-161 0 -280 121 -280 272c0 150 119 272 280 272c77 0 149 -30 195 -85c39 51 117 85 195 85c161 0 280 -122 280 -272zM202 249c0 -84 25 -159 83 -159c60 0 83 71 83 159
c0 86 -25 159 -83 159c-59 0 -83 -73 -83 -159zM592 249c0 -84 25 -159 83 -159c60 0 83 71 83 159c0 86 -25 159 -83 159c-59 0 -83 -73 -83 -159z" />
    <glyph glyph-name="i.salt1" horiz-adv-x="296" 
d="M239 201c0 -159 70 -125 61 -152c-11 -32 -73 -71 -129 -71c-73 0 -139 45 -139 155v364c0 5 4 6 4 6h201s4 -1 4 -5c0 0 -2 -228 -2 -297zM253 645c0 -52 -53 -93 -117 -93s-116 41 -116 93c0 51 52 93 116 93s117 -42 117 -93z" />
    <glyph glyph-name="afii10065.salt" horiz-adv-x="592" 
d="M561 499c1 -23 0 -493 0 -493c1 -5 -4 -5 -4 -5h-192s-5 0 -5 5v80c-34 -62 -87 -107 -154 -107c-126 0 -196 139 -196 273c0 137 69 271 201 271c69 0 118 -39 149 -96v72c0 5 4 4 4 4h194s3 0 3 -4zM291 117c48 0 75 60 75 135s-27 136 -75 136c-49 0 -76 -61 -76 -136
s27 -135 76 -135z" />
    <glyph glyph-name="I.salt" horiz-adv-x="265" 
d="M244 708l-1 -703c0 -5 -5 -5 -5 -5h-213s-5 0 -4 5l1 703c0 5 5 5 5 5h213s5 0 4 -5z" />
    <glyph glyph-name="P.salt" horiz-adv-x="581" 
d="M30 698c0 5 5 5 5 5s112 35 263 30c154 -5 282 -81 282 -228c0 -107 -62 -272 -331 -247v-252c0 -6 -4 -6 -4 -6h-210s-5 0 -5 6v692zM372 507c0 75 -48 130 -123 118v-264c80 0 123 73 123 146z" />
    <glyph glyph-name="f_o" horiz-adv-x="868" 
d="M563 526c170 -7 300 -122 300 -272c0 -151 -116 -272 -280 -272c-161 0 -269 111 -269 262c0 68 45 146 135 146c53 0 89 -20 91 -36c2 -14 -25 -58 -29 -120c-5 -69 14 -139 72 -139c60 0 83 71 83 159c0 86 -32 146 -132 160c-48 7 -150 -3 -271 -5v-403
c0 -5 -4 -6 -4 -6h-193s-4 1 -4 5v404h-56s-4 0 -4 5v85c0 4 4 4 4 4h57c-19 182 106 240 220 240c119 0 186 -64 186 -127c1 -48 -37 -83 -92 -83c-34 0 -68 12 -72 18c-5 9 7 23 7 58c0 25 -8 55 -38 52c-75 -8 -30 -125 -16 -158c133 4 203 26 305 23z" />
    <glyph glyph-name="t_o" horiz-adv-x="893" 
d="M583 526c170 -7 300 -122 300 -272c0 -151 -116 -272 -280 -272c-161 0 -269 111 -269 262c0 68 45 146 135 146c53 0 89 -20 91 -36c2 -14 -25 -58 -29 -120c-5 -69 14 -139 72 -139c60 0 83 71 83 159c0 86 -32 146 -132 160c-44 6 -132 -2 -302 -5v-221
c0 -12 1 -22 2 -32c13 -81 55 -66 94 -66c18 0 20 -13 13 -26c-27 -54 -82 -83 -154 -83c-90 3 -157 50 -157 152v276h-51s-4 0 -4 5v85c0 4 4 4 4 4h51v76c0 5 5 5 5 5l192 79s5 -1 4 -5c0 0 1 -70 1 -155c120 4 190 23 331 23z" />
    <glyph glyph-name="t.salt" horiz-adv-x="350" 
d="M338 90c18 0 20 -13 13 -26c-27 -54 -102 -91 -174 -91c-32 1 -63 8 -89 23c-41 25 -68 71 -68 134v449c0 5 5 5 5 5l192 79s5 -1 4 -5c0 0 1 -70 1 -155h122s3 0 3 -5v-84c0 -5 -4 -5 -4 -5h-121c0 -104 0 -181 2 -256c13 -81 75 -63 114 -63z" />
    <glyph glyph-name="f.salt" horiz-adv-x="364" 
d="M263 555c-5 9 7 21 7 56c0 25 -8 52 -38 52c-78 0 -30 -127 -16 -160h138s4 0 4 -5v-84c0 -5 -4 -5 -4 -5h-133v-403c0 -5 -4 -6 -4 -6h-193s-4 1 -4 5c0 0 0 279 1 498c-9 182 106 240 220 240c119 0 186 -54 186 -117c1 -48 -37 -89 -92 -89c-34 0 -68 12 -72 18z" />
    <glyph glyph-name="uni042E.salt" horiz-adv-x="1018" 
d="M54 139l3 413c-11 119 -70 92 -61 117c11 33 75 74 133 74c75 0 143 -47 143 -161v-145h70c17 168 147 300 329 300c211 0 337 -176 337 -380c0 -205 -122 -378 -337 -378c-188 0 -321 135 -332 314h-66c-1 -56 -2 -124 -2 -124c3 -117 70 -92 61 -117
c-11 -33 -75 -74 -133 -74c-75 0 -145 47 -145 161zM561 357c0 -114 35 -266 110 -266c78 0 111 147 111 266c0 118 -35 268 -111 268s-110 -150 -110 -268z" />
    <glyph glyph-name="uni042E.salt1" horiz-adv-x="1018" 
d="M57 139v410c-11 119 -70 92 -61 117c11 33 75 74 133 74c75 0 143 -47 143 -161v-379c0 -87 63 -78 85 17c-15 44 -22 89 -22 140c0 204 126 380 336 380c211 0 337 -176 337 -380c0 -205 -122 -378 -337 -378c-127 0 -223 63 -279 158c-42 -119 -125 -156 -192 -156
c-76 0 -139 67 -143 158zM561 357c0 -114 35 -266 110 -266c78 0 111 147 111 266c0 118 -35 268 -111 268s-110 -150 -110 -268z" />
    <glyph glyph-name="Y.salt" horiz-adv-x="652" 
d="M624 708c0 -141 0 -290 -7 -399c-12 -198 -114 -323 -279 -336c-138 -11 -250 34 -256 149c-4 71 45 113 116 113c43 0 89 -28 86 -48c-28 -71 4 -115 43 -115c95 0 79 183 77 247c-98 -131 -316 -72 -326 119l-3 50c-6 175 -88 139 -79 169c11 33 69 77 131 77
c89 0 164 -64 168 -167l4 -93c3 -89 85 -88 101 -5c7 50 -6 239 -6 239c0 5 5 5 5 5h220s5 0 5 -5z" />
    <glyph glyph-name="afii10079.salt" horiz-adv-x="587" 
d="M556 498l1 -492c0 -5 -5 -6 -5 -6h-190s-5 1 -4 5c0 0 -1 104 -1 193h-100v-192c0 -5 -5 -6 -5 -6h-200s-5 1 -4 5c0 0 7 228 7 297c0 159 -68 125 -59 152c11 32 65 71 121 71c81 0 140 -58 140 -152v-58h100v183c0 5 5 5 5 5h190s4 0 4 -5z" />
    <glyph glyph-name="afii10074.salt" horiz-adv-x="592" 
d="M562 498c0 0 -2 -127 -1 -492c0 -5 -4 -6 -4 -6h-189s-4 1 -4 5c0 0 0 38 1 88c-42 -85 -112 -115 -165 -115c-74 0 -137 65 -137 165v156c0 159 -76 125 -67 152c11 32 65 71 121 71c81 0 148 -58 148 -152v-194c0 -98 90 -66 94 46v275c0 5 4 6 4 6h195s4 -1 4 -5z" />
    <glyph glyph-name="afii10075.salt" horiz-adv-x="592" 
d="M516 642c-74 -131 -342 -136 -429 0c-32 50 -16 112 29 139c46 29 106 15 134 -32c23 -37 18 -77 -6 -109c-8 -10 -8 -22 11 -30c38 -17 77 -7 91 0c19 9 22 20 13 31c-24 32 -29 71 -6 108c28 47 88 61 134 32c45 -27 59 -85 29 -139zM562 498c0 0 -2 -127 -1 -492
c0 -5 -4 -6 -4 -6h-189s-4 1 -4 5c0 0 0 38 1 88c-42 -85 -112 -115 -165 -115c-74 0 -137 65 -137 165v156c0 159 -76 125 -67 152c11 32 65 71 121 71c81 0 148 -58 148 -152v-194c0 -98 90 -66 94 46v275c0 5 4 6 4 6h195s4 -1 4 -5z" />
    <glyph glyph-name="afii10089.salt" horiz-adv-x="580" 
d="M550 498c0 0 -1 -77 -3 -492c0 -5 -5 -6 -5 -6h-194s-4 1 -4 5c0 0 -1 60 -1 193c-35 -49 -89 -63 -135 -63c-72 0 -141 46 -145 140v24c0 159 -76 125 -67 152c11 32 65 71 121 71c81 0 147 -58 147 -152v-60c0 -101 79 -79 79 21v166c0 5 5 6 5 6h198s4 -1 4 -5z" />
    <glyph glyph-name="afii10093.salt1" horiz-adv-x="777" 
d="M311 394c107 0 199 -79 199 -197c0 -129 -108 -219 -241 -219c-185 0 -239 125 -239 217v0v2v4v297c0 4 4 5 4 5h193s4 -1 4 -6v-110c24 4 52 7 80 7zM274 94c41 0 47 54 47 108c0 58 -26 96 -70 96c-7 0 -15 -1 -20 -2v-122c1 -38 8 -80 43 -80zM542 5v488c0 5 5 6 5 6
h196s4 -1 4 -5v-488c0 -5 -5 -6 -5 -6h-196s-4 1 -4 5z" />
    <glyph glyph-name="u.salt1" horiz-adv-x="592" 
d="M562 498c0 0 -2 -127 -1 -492c0 -5 -4 -6 -4 -6h-189s-4 1 -4 5c0 0 0 38 1 88c-42 -85 -112 -115 -165 -115c-74 0 -137 65 -137 165v156c0 159 -76 125 -67 152c11 32 65 71 121 71c81 0 148 -58 148 -152v-194c0 -98 90 -66 94 46v275c0 5 4 6 4 6h195s4 -1 4 -5z" />
    <glyph glyph-name="uni0422.salt" horiz-adv-x="636" 
d="M421 6c0 -5 -4 -6 -4 -6h-215s-5 1 -5 5c0 0 1 39 4 548c-63 1 -121 -3 -178 -14c-5 -1 -7 5 -7 5c-1 1 -46 116 61 172c97 51 195 8 473 4c39 0 65 1 65 1s6 0 8 -5c0 0 43 -140 -75 -175c-46 -14 -133 -2 -133 -2z" />
    <glyph glyph-name="afii10089.salt1" horiz-adv-x="557" 
d="M502 201c0 -159 69 -125 59 -152c-10 -32 -64 -71 -120 -71c-81 0 -140 58 -140 152v68c-35 -49 -89 -63 -135 -63c-88 0 -144 61 -146 156v206c0 5 5 6 5 6h192s4 -1 4 -5v-188c0 -101 80 -79 80 21v166c0 5 5 6 5 6h200s4 -1 4 -5c0 0 -8 -228 -8 -297z" />
    <glyph glyph-name="uni0413.salt" horiz-adv-x="502" 
d="M253 6c0 -5 -4 -6 -4 -6h-218s-3 0 -4 2c0 28 1 111 4 708c0 5 5 5 5 5c148 13 290 14 446 0c0 0 6 0 8 -5c0 0 40 -113 -76 -162c-75 -31 -167 -2 -167 -2c0 -22 0 -112 6 -540z" />
    <glyph glyph-name="afii10082.salt" horiz-adv-x="601" 
d="M396 525c126 0 195 -139 195 -273c0 -137 -69 -271 -200 -271c-69 0 -118 39 -149 95v-290c0 -5 -5 -6 -5 -6h-200s-5 1 -4 5c0 0 -1 446 -1 712c0 5 5 6 5 6h197s5 -1 4 -5c0 0 0 -38 1 -85c34 65 87 112 157 112zM311 116c49 0 75 61 75 136s-26 135 -75 135
s-75 -60 -75 -135s26 -136 75 -136z" />
    <glyph glyph-name="afii10076.salt" horiz-adv-x="579" 
d="M571 66c16 -8 17 -13 1 -33c-23 -26 -71 -55 -127 -55c-206 0 -149 230 -212 236v-208c0 -5 -4 -6 -4 -6h-198s-4 1 -4 5c0 0 4 200 3 491c0 5 4 6 4 6h201s4 -1 4 -5c1 1 -5 -119 -6 -208l8 3c11 82 70 233 203 233c73 0 124 -46 124 -112c0 -67 -46 -106 -109 -106
c-25 0 -51 8 -51 23s11 59 -27 59c-36 0 -55 -56 -58 -86c45 6 75 -11 98 -40c40 -53 41 -144 150 -197z" />
    </font>
</defs>
</svg>
