<?xml version="1.0"?>
<svg xmlns="http://www.w3.org/2000/svg" xmlns:xlink="http://www.w3.org/1999/xlink" aria-hidden="true" width="1em" height="1em" viewBox="0 0 24 24" data-icon="typcn:archive" data-width="1em" data-height="1em" data-inline="false" class="iconify"><path d="M13 12h-3a.5.5 0 0 0 0 1h3a.5.5 0 0 0 0-1zm7-7H3a1 1 0 1 0 0 2h17a1 1 0 1 0 0-2zm-2 3H5a1 1 0 0 0-1 1v8c0 1.654 1.346 3 3 3h9c1.654 0 3-1.346 3-3V9a1 1 0 0 0-1-1zm-2 10H7c-.552 0-1-.449-1-1v-7h11v7c0 .551-.448 1-1 1z" fill="#646464"/></svg>
