<?xml version="1.0"?>
<svg xmlns="http://www.w3.org/2000/svg" xmlns:xlink="http://www.w3.org/1999/xlink" aria-hidden="true" width="1em" height="1em" viewBox="0 0 24 24" data-icon="typcn:briefcase" data-width="1em" data-height="1em" data-inline="false" class="iconify"><path d="M18 7c0-1.654-1.346-3-3-3H9C7.346 4 6 5.346 6 7c-1.654 0-3 1.346-3 3v7c0 1.654 1.346 3 3 3h12c1.654 0 3-1.346 3-3v-7c0-1.654-1.346-3-3-3zM9 6h6c.551 0 1 .449 1 1H8c0-.551.449-1 1-1zm10 11c0 .551-.449 1-1 1H6c-.551 0-1-.449-1-1v-1h14v1zM5 15v-5c0-.551.449-1 1-1h12c.551 0 1 .449 1 1v5H5zm8-3h-2c-.55 0-1 .45-1 1s.45 1 1 1h2c.55 0 1-.45 1-1s-.45-1-1-1z" fill="#646464"/></svg>
