<?xml version="1.0"?>
<svg xmlns="http://www.w3.org/2000/svg" xmlns:xlink="http://www.w3.org/1999/xlink" aria-hidden="true" width="1em" height="1em" viewBox="0 0 24 24" data-icon="typcn:code" data-width="1em" data-height="1em" data-inline="false" class="iconify"><path d="M8.171 18a1.992 1.992 0 0 1-1.414-.586L2.343 13l4.414-4.414a2 2 0 1 1 2.828 2.828L8 13l1.585 1.586A2 2 0 0 1 8.171 18zm7.658 0a2 2 0 0 1-1.414-3.414L16 13l-1.585-1.586a2 2 0 1 1 2.828-2.828L21.657 13l-4.414 4.414a1.99 1.99 0 0 1-1.414.586z" fill="#646464"/></svg>
