<?xml version="1.0"?>
<svg xmlns="http://www.w3.org/2000/svg" xmlns:xlink="http://www.w3.org/1999/xlink" aria-hidden="true" width="1em" height="1em" viewBox="0 0 24 24" data-icon="typcn:delete-outline" data-width="1em" data-height="1em" data-inline="false" class="iconify"><path d="M12 3c-4.963 0-9 4.038-9 9s4.037 9 9 9 9-4.038 9-9-4.037-9-9-9zm0 16c-3.859 0-7-3.14-7-7s3.141-7 7-7 7 3.14 7 7-3.141 7-7 7zm.707-7l2.646-2.646a.502.502 0 0 0 0-.707.502.502 0 0 0-.707 0L12 11.293 9.354 8.646a.5.5 0 0 0-.707.707L11.293 12l-2.646 2.646a.5.5 0 0 0 .707.708L12 12.707l2.646 2.646a.5.5 0 1 0 .708-.706L12.707 12z" fill="#646464"/></svg>
