<?xml version="1.0"?>
<svg xmlns="http://www.w3.org/2000/svg" xmlns:xlink="http://www.w3.org/1999/xlink" aria-hidden="true" width="1em" height="1em" viewBox="0 0 24 24" data-icon="typcn:delete" data-width="1em" data-height="1em" data-inline="false" class="iconify"><path d="M12 4c-4.419 0-8 3.582-8 8s3.581 8 8 8 8-3.582 8-8-3.581-8-8-8zm3.707 10.293a.999.999 0 1 1-1.414 1.414L12 13.414l-2.293 2.293a.997.997 0 0 1-1.414 0 .999.999 0 0 1 0-1.414L10.586 12 8.293 9.707a.999.999 0 1 1 1.414-1.414L12 10.586l2.293-2.293a.999.999 0 1 1 1.414 1.414L13.414 12l2.293 2.293z" fill="#646464"/></svg>
