<?xml version="1.0"?>
<svg xmlns="http://www.w3.org/2000/svg" xmlns:xlink="http://www.w3.org/1999/xlink" aria-hidden="true" width="1em" height="1em" viewBox="0 0 24 24" data-icon="typcn:document-text" data-width="1em" data-height="1em" data-inline="false" class="iconify"><path d="M17 21H7c-1.654 0-3-1.346-3-3V6c0-1.654 1.346-3 3-3h10c1.654 0 3 1.346 3 3v12c0 1.654-1.346 3-3 3zM7 5c-.551 0-1 .449-1 1v12c0 .551.449 1 1 1h10c.551 0 1-.449 1-1V6c0-.551-.449-1-1-1H7zm9 6H8a.5.5 0 0 1 0-1h8a.5.5 0 0 1 0 1zm0-3H8a.5.5 0 0 1 0-1h8a.5.5 0 0 1 0 1zm0 6H8a.5.5 0 0 1 0-1h8a.5.5 0 0 1 0 1zm0 3H8a.5.5 0 0 1 0-1h8a.5.5 0 0 1 0 1z" fill="#646464"/></svg>
