<?xml version="1.0"?>
<svg xmlns="http://www.w3.org/2000/svg" xmlns:xlink="http://www.w3.org/1999/xlink" aria-hidden="true" width="1em" height="1em" viewBox="0 0 24 24" data-icon="typcn:equals-outline" data-width="1em" data-height="1em" data-inline="false" class="iconify"><path d="M18 12H6c-1.654 0-3-1.346-3-3s1.346-3 3-3h12c1.654 0 3 1.346 3 3s-1.346 3-3 3zM6 8a1.001 1.001 0 0 0 0 2h12a1.001 1.001 0 0 0 0-2H6zm12 11H6c-1.654 0-3-1.346-3-3s1.346-3 3-3h12c1.654 0 3 1.346 3 3s-1.346 3-3 3zM6 15a1.001 1.001 0 0 0 0 2h12a1.001 1.001 0 0 0 0-2H6z" fill="#646464"/></svg>
