<?xml version="1.0"?>
<svg xmlns="http://www.w3.org/2000/svg" xmlns:xlink="http://www.w3.org/1999/xlink" aria-hidden="true" width="1em" height="1em" viewBox="0 0 24 24" data-icon="typcn:flag" data-width="1em" data-height="1em" data-inline="false" class="iconify"><path d="M18.383 4.318a1 1 0 0 0-1.09.217 3.248 3.248 0 0 1-4.586 0 5.25 5.25 0 0 0-7.414 0A.997.997 0 0 0 5 5.242v13a1 1 0 1 0 2 0v-4.553a3.248 3.248 0 0 1 4.293.26 5.25 5.25 0 0 0 7.414 0 1 1 0 0 0 .293-.707v-8a1 1 0 0 0-.617-.924z" fill="#646464"/></svg>
