<?xml version="1.0"?>
<svg xmlns="http://www.w3.org/2000/svg" xmlns:xlink="http://www.w3.org/1999/xlink" aria-hidden="true" width="1em" height="1em" viewBox="0 0 24 24" data-icon="typcn:flow-children" data-width="1em" data-height="1em" data-inline="false" class="iconify"><path d="M17 16a2.99 2.99 0 0 0-2.816 2H11c-1.654 0-3-1.346-3-3v-3.025A4.954 4.954 0 0 0 11 13h3.184A2.99 2.99 0 0 0 17 15a3 3 0 1 0 0-6 2.99 2.99 0 0 0-2.816 2H11c-1.654 0-3-1.346-3-3v-.184A2.99 2.99 0 0 0 10 5a3 3 0 1 0-6 0 2.99 2.99 0 0 0 2 2.816V15c0 2.757 2.243 5 5 5h3.184A2.99 2.99 0 0 0 17 22a3 3 0 1 0 0-6zm0-5a1.001 1.001 0 1 1-1 1c0-.551.448-1 1-1zM7 4a1.001 1.001 0 1 1-1 1c0-.551.448-1 1-1zm10 16a1.001 1.001 0 0 1 0-2 1.001 1.001 0 0 1 0 2z" fill="#646464"/></svg>
