<?xml version="1.0"?>
<svg xmlns="http://www.w3.org/2000/svg" xmlns:xlink="http://www.w3.org/1999/xlink" aria-hidden="true" width="1em" height="1em" viewBox="0 0 24 24" data-icon="typcn:folder-add" data-width="1em" data-height="1em" data-inline="false" class="iconify"><path d="M18 6h-6a2 2 0 0 0-2-2H6C4.346 4 3 5.346 3 7v10c0 1.654 1.346 3 3 3h12c1.654 0 3-1.346 3-3V9c0-1.654-1.346-3-3-3zm0 12H6a1 1 0 0 1-1-1v-7h4c.275 0 .5-.225.5-.5S9.275 9 9 9H5V7a1 1 0 0 1 1-1h4a2 2 0 0 0 2 2h6a1 1 0 0 1 1 1h-4c-.275 0-.5.225-.5.5s.225.5.5.5h4v7a1 1 0 0 1-1 1zm-3-6h-2v-2a1 1 0 1 0-2 0v2H9a1 1 0 1 0 0 2h2v2a1 1 0 1 0 2 0v-2h2a1 1 0 1 0 0-2z" fill="#646464"/></svg>
