<?xml version="1.0"?>
<svg xmlns="http://www.w3.org/2000/svg" xmlns:xlink="http://www.w3.org/1999/xlink" aria-hidden="true" width="1em" height="1em" viewBox="0 0 24 24" data-icon="typcn:lock-open" data-width="1em" data-height="1em" data-inline="false" class="iconify"><path d="M18 4c-2.206 0-4 1.795-4 4v3h-4v-1H7c-1.103 0-2 .896-2 2v7c0 1.104.897 2 2 2h10c1.103 0 2-.896 2-2v-7c0-1.104-.897-2-2-2h-1V8c0-1.104.897-2 2-2s2 .896 2 2v3a1 1 0 1 0 2 0V8c0-2.205-1.794-4-4-4zm-6 14.299a1.3 1.3 0 1 1 0-2.6 1.3 1.3 0 0 1 0 2.6z" fill="#646464"/></svg>
