<?xml version="1.0"?>
<svg xmlns="http://www.w3.org/2000/svg" xmlns:xlink="http://www.w3.org/1999/xlink" aria-hidden="true" width="1em" height="1em" viewBox="0 0 24 24" data-icon="typcn:lock-open-outline" data-width="1em" data-height="1em" data-inline="false" class="iconify"><circle cx="12" cy="17" r="1.3" fill="#646464"/><path d="M18 4c-2.206 0-4 1.794-4 4v3h-4v-1H7a2 2 0 0 0-2 2v7a2 2 0 0 0 2 2h10a2 2 0 0 0 2-2v-7a2 2 0 0 0-2-2h-1V8a2 2 0 0 1 4 0v3a1 1 0 0 0 2 0V8c0-2.206-1.794-4-4-4zm-1 15H7v-7h10.003L17 19z" fill="#646464"/></svg>
