<?xml version="1.0"?>
<svg xmlns="http://www.w3.org/2000/svg" xmlns:xlink="http://www.w3.org/1999/xlink" aria-hidden="true" width="1em" height="1em" viewBox="0 0 24 24" data-icon="typcn:media-pause-outline" data-width="1em" data-height="1em" data-inline="false" class="iconify"><path d="M8 20c-1.654 0-3-1.346-3-3V8c0-1.654 1.346-3 3-3s3 1.346 3 3v9c0 1.654-1.346 3-3 3zM8 7c-.552 0-1 .449-1 1v9a1.001 1.001 0 0 0 2 0V8c0-.551-.448-1-1-1zm7 13c-1.654 0-3-1.346-3-3V8c0-1.654 1.346-3 3-3s3 1.346 3 3v9c0 1.654-1.346 3-3 3zm0-13c-.552 0-1 .449-1 1v9a1.001 1.001 0 0 0 2 0V8c0-.551-.448-1-1-1z" fill="#646464"/></svg>
