<?xml version="1.0"?>
<svg xmlns="http://www.w3.org/2000/svg" xmlns:xlink="http://www.w3.org/1999/xlink" aria-hidden="true" width="1em" height="1em" viewBox="0 0 24 24" data-icon="typcn:media-fast-forward-outline" data-width="1em" data-height="1em" data-inline="false" class="iconify"><path d="M14 8.676l4.133 4.025L14 16.727V8.676M13.8 6.4c-.994 0-1.8.807-1.8 1.801v9a1.8 1.8 0 0 0 3.053 1.287C17.434 16.174 21 12.701 21 12.701s-3.566-3.475-5.944-5.789A1.81 1.81 0 0 0 13.8 6.4zM5 8.676l4.133 4.025L5 16.727V8.676M4.8 6.4c-.994 0-1.8.807-1.8 1.801v9a1.8 1.8 0 0 0 3.053 1.287C8.434 16.174 12 12.701 12 12.701L6.056 6.912A1.81 1.81 0 0 0 4.8 6.4z" fill="#646464"/></svg>
