<?xml version="1.0"?>
<svg xmlns="http://www.w3.org/2000/svg" xmlns:xlink="http://www.w3.org/1999/xlink" aria-hidden="true" width="1em" height="1em" viewBox="0 0 24 24" data-icon="typcn:notes" data-width="1em" data-height="1em" data-inline="false" class="iconify"><path d="M18.831 4.059a.49.49 0 0 0-.394-.121l-11 1.25A.5.5 0 0 0 7 5.684V16c-1.654 0-3 1.122-3 2.5S5.346 21 7 21s3-1.122 3-2.5v-7.609l6-.625V14c-1.654 0-3 1.122-3 2.5s1.346 2.5 3 2.5 3-1.122 3-2.5V4.434a.501.501 0 0 0-.169-.375z" fill="#646464"/></svg>
