<?xml version="1.0"?>
<svg xmlns="http://www.w3.org/2000/svg" xmlns:xlink="http://www.w3.org/1999/xlink" aria-hidden="true" width="1em" height="1em" viewBox="0 0 24 24" data-icon="typcn:pi" data-width="1em" data-height="1em" data-inline="false" class="iconify"><path d="M18.707 8.535a.999.999 0 0 0-1.414 0 3.247 3.247 0 0 1-4.586 0 5.25 5.25 0 0 0-7.414 0 .999.999 0 1 0 1.414 1.414c.374-.374.82-.624 1.293-.776V17a1 1 0 1 0 2 0V9.174a3.19 3.19 0 0 1 1.293.775A5.222 5.222 0 0 0 14 11.386V17a1 1 0 1 0 2 0v-5.614a5.215 5.215 0 0 0 2.707-1.437.999.999 0 0 0 0-1.414z" fill="#646464"/></svg>
