<?xml version="1.0"?>
<svg xmlns="http://www.w3.org/2000/svg" xmlns:xlink="http://www.w3.org/1999/xlink" aria-hidden="true" width="1em" height="1em" viewBox="0 0 24 24" data-icon="typcn:plane" data-width="1em" data-height="1em" data-inline="false" class="iconify"><path d="M19.996 13.507L14 10.081V4.125c0-.827-.673-1.5-1.5-1.5s-1.5.673-1.5 1.5v5.956l-5.996 3.426a1 1 0 0 0 .77 1.829L11 13.844v4.451l-1.625 1.3a1 1 0 0 0 .996 1.709l2.129-.852 2.129.852a.998.998 0 0 0 1.235-.426 1.001 1.001 0 0 0-.239-1.284L14 18.294v-4.451l5.226 1.493.274.039a1 1 0 0 0 .496-1.868zM12.5 4.375a.5.5 0 1 1 0-1 .5.5 0 0 1 0 1z" fill="#646464"/></svg>
