<?xml version="1.0"?>
<svg xmlns="http://www.w3.org/2000/svg" xmlns:xlink="http://www.w3.org/1999/xlink" aria-hidden="true" width="1em" height="1em" viewBox="0 0 24 24" data-icon="typcn:th-large" data-width="1em" data-height="1em" data-inline="false" class="iconify"><path d="M8 3H6a2.99 2.99 0 0 0-2.119.881A2.99 2.99 0 0 0 3 6v2c0 .825.337 1.575.881 2.119A2.99 2.99 0 0 0 6 11h2a2.99 2.99 0 0 0 2.119-.881A2.99 2.99 0 0 0 11 8V6a2.99 2.99 0 0 0-.881-2.119A2.99 2.99 0 0 0 8 3zm10 0h-2a2.99 2.99 0 0 0-2.119.881A2.99 2.99 0 0 0 13 6v2c0 .825.337 1.575.881 2.119A2.99 2.99 0 0 0 16 11h2a2.99 2.99 0 0 0 2.119-.881A2.99 2.99 0 0 0 21 8V6a2.99 2.99 0 0 0-.881-2.119A2.99 2.99 0 0 0 18 3zM8 13H6a2.99 2.99 0 0 0-2.119.881A2.99 2.99 0 0 0 3 16v2c0 .825.337 1.575.881 2.119A2.99 2.99 0 0 0 6 21h2a2.99 2.99 0 0 0 2.119-.881A2.99 2.99 0 0 0 11 18v-2a2.99 2.99 0 0 0-.881-2.119A2.99 2.99 0 0 0 8 13zm10 0h-2a2.99 2.99 0 0 0-2.119.881A2.99 2.99 0 0 0 13 16v2c0 .825.337 1.575.881 2.119A2.99 2.99 0 0 0 16 21h2a2.99 2.99 0 0 0 2.119-.881A2.99 2.99 0 0 0 21 18v-2a2.99 2.99 0 0 0-.881-2.119A2.99 2.99 0 0 0 18 13z" fill="#646464"/></svg>
