<?xml version="1.0"?>
<svg xmlns="http://www.w3.org/2000/svg" xmlns:xlink="http://www.w3.org/1999/xlink" aria-hidden="true" width="1em" height="1em" viewBox="0 0 24 24" data-icon="typcn:th-list" data-width="1em" data-height="1em" data-inline="false" class="iconify"><path d="M19 17h-7c-1.103 0-2 .897-2 2s.897 2 2 2h7c1.103 0 2-.897 2-2s-.897-2-2-2zm0-7h-7c-1.103 0-2 .897-2 2s.897 2 2 2h7c1.103 0 2-.897 2-2s-.897-2-2-2zm0-7h-7c-1.103 0-2 .897-2 2s.897 2 2 2h7c1.103 0 2-.897 2-2s-.897-2-2-2z" fill="#646464"/><circle cx="5" cy="19" r="2.5" fill="#646464"/><circle cx="5" cy="12" r="2.5" fill="#646464"/><circle cx="5" cy="5" r="2.5" fill="#646464"/></svg>
