<?xml version="1.0"?>
<svg xmlns="http://www.w3.org/2000/svg" xmlns:xlink="http://www.w3.org/1999/xlink" aria-hidden="true" width="1em" height="1em" viewBox="0 0 24 24" data-icon="typcn:times" data-width="1em" data-height="1em" data-inline="false" class="iconify"><path d="M17.414 6.586a2 2 0 0 0-2.828 0L12 9.172 9.414 6.586a2 2 0 1 0-2.828 2.828L9.171 12l-2.585 2.586a2 2 0 1 0 2.828 2.828L12 14.828l2.586 2.586c.39.391.902.586 1.414.586s1.024-.195 1.414-.586a2 2 0 0 0 0-2.828L14.829 12l2.585-2.586a2 2 0 0 0 0-2.828z" fill="#646464"/></svg>
