<?xml version="1.0"?>
<svg xmlns="http://www.w3.org/2000/svg" xmlns:xlink="http://www.w3.org/1999/xlink" aria-hidden="true" width="1em" height="1em" viewBox="0 0 24 24" data-icon="typcn:vendor-microsoft" data-width="1em" data-height="1em" data-inline="false" class="iconify"><path d="M10 12.5c0-.3-.2-.5-.5-.5h-6c-.3 0-.5.2-.5.5v5c0 .3.2.5.5.6l6 .7c.3 0 .5-.2.5-.4v-5.9zm1.5-.5c-.3 0-.5.2-.5.5v5.9c0 .3.2.5.5.6l9 1c.3 0 .5-.2.5-.4v-7c0-.3-.2-.5-.5-.5l-9-.1zM10 4.7c0-.3-.2-.5-.5-.4l-6 .7c-.3 0-.5.2-.5.5v5c0 .3.2.5.5.5h6c.3 0 .5-.2.5-.5V4.7zm1.5-.6c-.3 0-.5.3-.5.6v5.9c0 .3.2.5.5.5h9c.3 0 .5-.2.5-.5v-7c0-.3-.2-.5-.5-.4l-9 .9z" fill="#646464"/></svg>
