<?xml version="1.0"?>
<svg xmlns="http://www.w3.org/2000/svg" xmlns:xlink="http://www.w3.org/1999/xlink" aria-hidden="true" width="1em" height="1em" viewBox="0 0 1024 896" data-icon="simple-line-icons:action-undo" data-width="1em" data-height="1em" data-inline="false" class="iconify"><path d="M990 878h-1q-12 0-19.5-8t-8.5-21q-1-14-6.5-36.5t-35-72.5-76.5-89-142.5-70T479 550v184q0 5-1.5 9t-3.5 8-5.5 7-7.5 5q-19 9-34-4L12 415q-6-5-9-11.5T0 390q0-15 12-25L427 25q15-13 33.5-4.5T479 50v179q40 2 77 6.5t72 12 67 18.5 61 25.5 55 31.5 49 37.5 43 43.5q43 50 70.5 114.5T1011 635t12 106 .5 76-3.5 34-10 19.5-20 7.5zM447 486q78 0 144 8t116 23.5 89.5 34 70.5 43 52 46.5 40 49q-19-145-105-244-131-153-407-153-13 0-22.5-9.5T415 261V117L82 390l333 276V518q0-13 9-23 3-3 7-5t8-3 8-1z" fill="#646464"/></svg>
