<?xml version="1.0"?>
<svg xmlns="http://www.w3.org/2000/svg" xmlns:xlink="http://www.w3.org/1999/xlink" aria-hidden="true" width="1em" height="1em" viewBox="0 0 1024 896" data-icon="simple-line-icons:action-redo" data-width="1em" data-height="1em" data-inline="false" class="iconify"><path d="M34 878h1q12 0 19.5-8t8.5-21q1-8 3-20.5T80.5 785t31-59 55.5-61.5 85.5-57.5 124-40.5T544 550l1 184q0 20 18.5 29t33.5-4l415-344q6-5 9-11.5t3-13.5q0-15-12-25L597 25q-15-13-33.5-4.5T545 50l-1 179q-281 9-423 175-43 50-70.5 114.5T13 635 1 741t-.5 76T4 851t10 19.5 20 7.5zm543-392q-92 0-169.5 12.5T278 530t-95.5 47.5-69 54T65 690q19-145 105-244 43-50 103-84.5T409.5 310 577 293q13 0 22.5-9.5T609 261V117l333 273-333 276V518q0-4-1-8.5t-3-8-5-6.5q-10-9-23-9z" fill="#646464"/></svg>
