<?xml version="1.0"?>
<svg xmlns="http://www.w3.org/2000/svg" xmlns:xlink="http://www.w3.org/1999/xlink" aria-hidden="true" width="1em" height="1em" viewBox="0 0 1024 1056" data-icon="simple-line-icons:anchor" data-width="1em" data-height="1em" data-inline="false" class="iconify"><path d="M1021 747l-82-151-6-11q-5-8-15-10-4-1-8.5-.5T901 578l-10 6v1l-146 98q-5 3-8 9t-3 12 3 12l7 7q4 8 14 9t18-4l87-60q-15 124-105 210.5T544 977V335h128q13 0 22.5-9.5T704 303t-9.5-22.5T672 271H543l-1-1v-1q43-11 71-46t28-80q0-53-37.5-91t-91-38T421 52t-38 91q0 45 28 80t71 45v2l-1 1H352q-13 0-22.5 9.5T320 303t9.5 22.5T352 335h128v642q-124-12-213.5-98T161 668l87 60q8 5 18 4t14-9l7-7q2-4 2.5-9t-.5-9.5-3.5-8.5-6.5-6l-146-99-10-6q-8-6-17-3-5 1-8.5 3.5T91 585l-6 11L3 747q-5 9-2.5 18.5T11 780l9 4q8 5 17 1.5T51 773l48-89q22 154 139.5 256T512 1042t273.5-102T925 684l48 89q5 9 14 12.5t17-1.5l9-4q8-5 10.5-14.5T1021 747zM448 143q0-27 19-46t45.5-19 46 19 19.5 46q0 11-3.5 20.5T565 181t-14 14-18 9.5-21 3.5q-5 0-10-1t-10-2.5-9.5-4-8.5-5.5-7.5-6.5-6.5-7.5-5.5-8.5-4-9-2-10-.5-10.5z" fill="#646464"/></svg>
