<?xml version="1.0"?>
<svg xmlns="http://www.w3.org/2000/svg" xmlns:xlink="http://www.w3.org/1999/xlink" aria-hidden="true" width="1em" height="1em" viewBox="0 0 1024 1024" data-icon="simple-line-icons:arrow-right-circle" data-width="1em" data-height="1em" data-inline="false" class="iconify"><path d="M512 0Q373 0 255 68.5T68.5 255 0 512t68.5 257T255 955.5t257 68.5 257-68.5T955.5 769t68.5-257-68.5-257T769 68.5 512 0zm0 961q-73 0-141.5-22.5T247 874t-96.5-97-64-123.5T64 512q0-91 35.5-174T195 195t143-95.5T512 64t174 35.5T829 195t95.5 143T960 512t-35.5 174T829 829.5t-143 96T512 961zm20.5-642.5q-9.5 9.5-9.5 23t9 22.5l116 116H288q-14 0-23 9t-9 22.5 9 23 23 9.5h362L532 661q-4 5-6.5 11t-2.5 12 2.5 12 7 10.5 10.5 7 12 2.5q13 0 23-9l189-194-189-194q-10-10-23-10t-22.5 9.5z" fill="#646464"/></svg>
