<?xml version="1.0"?>
<svg xmlns="http://www.w3.org/2000/svg" xmlns:xlink="http://www.w3.org/1999/xlink" aria-hidden="true" width="1em" height="1em" viewBox="0 0 1024 1024" data-icon="simple-line-icons:arrow-left-circle" data-width="1em" data-height="1em" data-inline="false" class="iconify"><path d="M512 0Q373 0 255 68.5T68.5 255 0 512t68.5 257T255 955.5t257 68.5 257-68.5T955.5 769t68.5-257-68.5-257T769 68.5 512 0zm0 961q-73 0-141.5-22.5T247 874t-96.5-97-64-123.5T64 512q0-91 35.5-174T195 195t143-95.5T512 64t174 35.5T829 195t95.5 143T960 512t-35.5 174T829 829.5t-143 96T512 961zm224-481H376l116-116q9-9 9-22.5t-9.5-23T469 309t-23 10L257 513l189 194q3 2 5.5 4t5.5 3 6 1.5 6 .5q13 0 23-9 4-5 6.5-11t2.5-12-2.5-12-6.5-11L374 544h362q14 0 23-9.5t9-23-9-22.5-23-9z" fill="#646464"/></svg>
