<?xml version="1.0"?>
<svg xmlns="http://www.w3.org/2000/svg" xmlns:xlink="http://www.w3.org/1999/xlink" aria-hidden="true" width="1em" height="1em" viewBox="0 0 1024 1024" data-icon="simple-line-icons:arrow-up-circle" data-width="1em" data-height="1em" data-inline="false" class="iconify"><path d="M1024 512q0-139-68.5-257T769 68.5 512 0 255 68.5 68.5 255 0 512t68.5 257T255 955.5t257 68.5 257-68.5T955.5 769t68.5-257zm-961 0q0-91 35.5-174t96-143T338 99.5 512 64t174 35.5T829 195t95.5 143T960 512t-35.5 174T829 829t-143 95.5T512 960t-174-35.5T194.5 829t-96-143T63 512zm481 224V376l116 116q9 9 22.5 9t23-9.5T715 469t-10-23L511 257 317 446q-9 10-9 23t9 23q5 4 11 6.5t12 2.5 12-2.5 11-6.5l117-118v362q0 9 4.5 16.5t12 11.5 15.5 4q14 0 23-9t9-23z" fill="#646464"/></svg>
