<?xml version="1.0"?>
<svg xmlns="http://www.w3.org/2000/svg" xmlns:xlink="http://www.w3.org/1999/xlink" aria-hidden="true" width="1em" height="1em" viewBox="0 0 832 1024" data-icon="simple-line-icons:bag" data-width="1em" data-height="1em" data-inline="false" class="iconify"><path d="M768 159H577V97q0-26-13-48t-35-35-48-13H353q-15 0-30 5t-26.5 14T276 40.5 262 67t-5 30v62H64q-27 0-45.5 18.5T0 223v736q0 26 18.5 45t45.5 19h704q27 0 45.5-19t18.5-45V223q0-27-18.5-45.5T768 159zM321 97q0-13 9.5-22.5T353 65h128q13 0 22.5 9.5T513 97v62H321V97zm447 862H64V223h193v66q0 3 1 8.5t8.5 14.5 22.5 9q16 0 24-8t8-16v-74h192v69l1.5 7.5 4.5 10 9.5 8L545 321q9 0 15.5-3.5t9.5-8 4.5-9.5 2.5-8v-69h191v736z" fill="#646464"/></svg>
