<?xml version="1.0"?>
<svg xmlns="http://www.w3.org/2000/svg" xmlns:xlink="http://www.w3.org/1999/xlink" aria-hidden="true" width="1em" height="1em" viewBox="0 0 1024 1024" data-icon="simple-line-icons:ban" data-width="1em" data-height="1em" data-inline="false" class="iconify"><path d="M512 0Q373 0 255 68.5T68.5 255 0 512t68.5 257T255 955.5t257 68.5 257-68.5T955.5 769t68.5-257-68.5-257T769 68.5 512 0zM64 512q0-167 110-294l632 632Q679 961 512 961q-73 0-141.5-22.5T247 874t-96.5-97-64-123.5T64 512zm787 293L219 173q61-52 136-80.5T512 64q73 0 141.5 22.5t123.5 64 96.5 96.5 64 123.5T960 512q0 166-109 293z" fill="#646464"/></svg>
