<?xml version="1.0"?>
<svg xmlns="http://www.w3.org/2000/svg" xmlns:xlink="http://www.w3.org/1999/xlink" aria-hidden="true" width="1em" height="1em" viewBox="0 0 1024 992" data-icon="simple-line-icons:basket" data-width="1em" data-height="1em" data-inline="false" class="iconify"><path d="M1015.5 267.5Q1006 254 990 254H311L259 77q-7-24-19-41t-25.5-24T191 2.5 171 0H34Q21 0 12 9T3 32q0 8 4 15.5T18.5 59 34 63h137q4 0 7.5 1t9.5 8.5T198 95l177 650q2 6 6.5 11.5T392 765t13 3h432q10 0 18.5-6t11.5-15l153-450q5-16-4.5-29.5zM815 704H430L328 318h616zm-63 128q-33 0-56.5 23.5T672 912t23.5 56.5T752 992t56.5-23.5T832 912t-23.5-56.5T752 832zm-288 0q-22 0-40.5 11t-29 29-10.5 40q0 33 23.5 56.5T464 992t56.5-23.5T544 912q0-8-1.5-16t-4.5-15-7.5-13.5-10-12-12-10T495 838t-15-4.5-16-1.5z" fill="#646464"/></svg>
