<?xml version="1.0"?>
<svg xmlns="http://www.w3.org/2000/svg" xmlns:xlink="http://www.w3.org/1999/xlink" aria-hidden="true" width="1em" height="1em" viewBox="0 0 896 1024" data-icon="simple-line-icons:bell" data-width="1em" data-height="1em" data-inline="false" class="iconify"><path d="M842 712l-20-25-19.5-26-19-29.5-15-30-11.5-33-4-31.5V328q0-67-24-127.5t-64.5-104T567 27 446 1q-84 0-154.5 44T181 164t-40 164v209q0 18-5 36.5t-18 40-20 32T72 681t-22 28l-18 25.5-14 22-10.5 22L5 798l5 21q17 33 83 33h183q0 71 50 121t121 50 121-50 50-121h187q66 0 81-33 4-7 4.5-14.5t0-13.5-4.5-14.5-7-14.5-10.5-16-12.5-16-14-18zM447 956q-21 0-40-8.5t-33-22-22.5-33T343 852h208q0 43-30.5 73.5T447 956zm358-172H81q6-10 24-34 1-2 20-27t25-33 21-32.5 20.5-39.5 11.5-38 6-43V328q0-108 68.5-183.5T446 69q29 0 56 7t50.5 19.5 44 30.5 37 40.5 28 47.5 17.5 54 6 60v209q0 31 9 62.5t27.5 61.5 32 48.5T789 755l4.5 6 4.5 5.5 5 6 4.5 5.5 4.5 6h-7z" fill="#646464"/></svg>
