<?xml version="1.0"?>
<svg xmlns="http://www.w3.org/2000/svg" xmlns:xlink="http://www.w3.org/1999/xlink" aria-hidden="true" width="1em" height="1em" viewBox="0 0 1024 1040" data-icon="simple-line-icons:book-open" data-width="1em" data-height="1em" data-inline="false" class="iconify"><path d="M952 2L529 116q-4 1-10 1.5t-12.5.5-12.5-.5-10-1.5L72 2q-28-8-50 9T0 56v778q0 24 16 44.5T55 906l412 114q17 5 40 5 9 0 19.5-1t19.5-4l423-115q23-6 39-26.5t16-44.5V56q0-28-22-45t-50-9zM480 957L71 844q-2-1-4.5-4t-2.5-6V66l403 112q3 0 6 1t7 1v777zm480-123q0 2-3 5.5t-5 4.5L544 954V178h2L960 66v768zM642 366q5 0 9-1l224-63q12-4 18.5-15.5T897 263q-3-9-9-15t-14-8-17 0l-224 63q-12 4-18.5 15.5T611 343q8 22 31 23zm0 192q5 0 9-1l224-63q12-4 18.5-15.5t3-24-15-19T857 432l-224 63q-12 4-18.5 15.5T611 535q8 22 31 23zm0 192h4.5l4.5-1 224-63q12-4 18.5-15.5t3-24-15-19T857 624l-224 63q-12 4-18.5 15.5T611 727q8 22 31 23zM395 303l-224-63q-7-1-13 0t-11.5 3.5-9.5 7.5-6 12q-3 12 3.5 23.5T153 302l224 63q2 1 4.5 1h4.5q7 0 13.5-2.5t11-8T417 343q6-23-14-36-5-2-8-4zm0 192l-224-63q-9-2-17 0t-14 8-9 15q-1 5-1 10t2 9.5 5 8.5 7 7 9 4l224 63q4 1 9 1 11 0 19.5-6.5T417 535q6-23-14-36-5-2-8-4zm0 192l-224-63q-13-3-24.5 3.5T131 647q-1 5-1 10t2 9.5 5 8.5 7 7 9 4l224 63q5 1 9 1 11 0 19.5-6.5T417 727q7-24-15-36-4-2-7-4z" fill="#646464"/></svg>
