<?xml version="1.0"?>
<svg xmlns="http://www.w3.org/2000/svg" xmlns:xlink="http://www.w3.org/1999/xlink" aria-hidden="true" width="1em" height="1em" viewBox="0 0 1024 960" data-icon="simple-line-icons:bubbles" data-width="1em" data-height="1em" data-inline="false" class="iconify"><path d="M425 647q115 0 208-40.5T779.5 491 832 320q0-32-8.5-63t-24-59-38-53-50-46-61-38T580 32.5t-78-18T418 8Q304 8 208 49.5T56 163 0 320t42 162 121 117v2q0 44-55 138h1q-2 4-2 9 0 3 .5 5.5t1.5 5 2.5 4.5 3.5 3.5 4.5 2.5l5 2 5.5 1q1 0 3.5-.5l2.5-.5h1q28-4 65.5-21.5t69-38.5 55-39.5T357 644q7 1 13 2t11.5 1H425zm-94-69l-41 34q-8 10-35 31.5T203 680q10-27 15-47.5t6-26.5v-7l3-39-35-18q-63-32-95.5-93.5T64 320q0-68 47.5-125t129-90T418 72t176.5 33 127 90T768 320q0 56-26 105.5t-71 84T562.5 564 427 584q-30 1-61-3zm693 0q0-133-118-202-3 29-16 69 40 28 55 58.5t15 74.5q0 26-6 48.5t-19 42-33.5 36T853 736l-31 15q3 82 8 103-18-13-33-26t-24-23-15.5-18-9.5-13l-2-4-34 5q-6 1-18 1.5t-22 .5h-9q-125 0-206-63h-91l-1 1q19 23 43 42.5t52 35 60 26.5 68 16.5 75 5.5h19q21 0 39-2 22 25 75 65t98 48h6q9 0 15-6t6-15q0-4-2-8-5-8-11-24t-11-34-8.5-37.5T885 793v-2q139-72 139-213z" fill="#646464"/></svg>
