<?xml version="1.0"?>
<svg xmlns="http://www.w3.org/2000/svg" xmlns:xlink="http://www.w3.org/1999/xlink" aria-hidden="true" width="1em" height="1em" viewBox="0 0 1024 896" data-icon="simple-line-icons:bubble" data-width="1em" data-height="1em" data-inline="false" class="iconify"><path d="M512 64q121 0 224.5 43T900 223.5 960 384t-60 160.5T736.5 661 512 704h-27q-14 0-24-.5t-23-2.5l-35-5-23 28q-5 5-16.5 14.5T336 760t-38 25.5-43 23.5q10-25 16-51t6-50l1-2v-45l-35-18q-85-43-132-111T64 384q0-87 60-160.5T287.5 107 512 64zm0-64Q373 0 255 51.5t-186.5 140T0 384q0 99 56 181.5T214 700q0 1-.5 1.5t-.5 1.5q0 65-51 153-2 5-2 11 0 12 8.5 20.5T189 896h8q46-8 99-36t86.5-54 46.5-42q26 4 56 4h27q139 0 257-51.5t186.5-140T1024 384q0-141-122-249Q775 24 583 4q-36-4-71-4z" fill="#646464"/></svg>
