<?xml version="1.0"?>
<svg xmlns="http://www.w3.org/2000/svg" xmlns:xlink="http://www.w3.org/1999/xlink" aria-hidden="true" width="1em" height="1em" viewBox="0 0 736 1024" data-icon="simple-line-icons:bulb" data-width="1em" data-height="1em" data-inline="false" class="iconify"><path d="M368 0q-97 0-178.5 48t-128 130.5T15 359q0 36 5.5 68t16 58 22 46.5 28.5 40 29 31.5 30 28q3 3 9 8 20 18 29 27t16.5 21 7.5 23v54q0 1 1 4h-1v93q0 48 20 85t56.5 57.5T369 1024q71 0 115-45t44-118v-93h-1v-1q1-2 1-3v-54q0-18 10.5-35.5t21-27.5 38.5-35q18-16 29.5-27t27.5-29.5 26.5-37T702 476t14.5-53.5T721 359q0-49-12.5-95.5t-35-85.5-55-72.5-71-56.5T463 13 368 0zm-1 960q-45 0-70-26.5T272 861v-43q41 14 96 14 29 0 53-4t43-11v44q0 47-25.5 73T367 960zm189-396q-2 1-6 5-21 18-32 29t-26 29.5-21.5 38.5-6.5 44v40q-34 19-97 19-16 0-29.5-1.5t-23.5-3-18.5-4T282 756t-10-5v-41q0-49-55-101-7-6-21-19l-7-6q-17-15-27.5-26t-25-27.5-23.5-33T95.5 460 83 413.5 79 359q0-123 84-209t205-86q80 0 146.5 39.5T619 211t38 148q0 27-3.5 50.5t-11 42.5-16 33.5T605 515t-23 25-26 24z" fill="#646464"/></svg>
