<?xml version="1.0"?>
<svg xmlns="http://www.w3.org/2000/svg" xmlns:xlink="http://www.w3.org/1999/xlink" aria-hidden="true" width="1em" height="1em" viewBox="0 0 1024 1024" data-icon="simple-line-icons:calculator" data-width="1em" data-height="1em" data-inline="false" class="iconify"><path d="M960 0H64Q38 0 19 19T0 64v896q0 26 19 45t45 19h896q26 0 45-19t19-45V64q0-17-8.5-32T992 8.5 960 0zm0 960H64V64h896v896zM224 352h64v64q0 14 9.5 23t22.5 9 22.5-9 9.5-23v-64h64q13 0 22.5-9t9.5-22.5-9.5-23T416 288h-64v-64q0-13-9.5-22.5T320 192t-22.5 9.5T288 224v64h-64q-13 0-22.5 9.5t-9.5 23 9.5 22.5 22.5 9zm209.5 239.5q-9.5-9.5-23-9.5t-22.5 9l-68 68-68-68q-9-9-22.5-9t-23 9.5T197 614t10 22l68 68-68 68q-6 6-8.5 14.5t0 16.5 8.5 14q4 5 10 7.5t12.5 2.5 12.5-2.5 10-7.5l68-67 68 67q4 5 10 7.5t12.5 2.5 12.5-2.5 10-7.5q23-22 0-45l-68-68 68-68q10-9 10-22t-9.5-22.5zM608 352h192q13 0 22.5-9t9.5-22.5-9.5-23T800 288H608q-13 0-22.5 9.5t-9.5 23 9.5 22.5 22.5 9zm0 320h192q13 0 22.5-9t9.5-22.5-9.5-23T800 608H608q-13 0-22.5 9.5t-9.5 23 9.5 22.5 22.5 9zm0 128h192q13 0 22.5-9t9.5-22.5-9.5-23T800 736H608q-13 0-22.5 9.5t-9.5 23 9.5 22.5 22.5 9z" fill="#646464"/></svg>
