<?xml version="1.0"?>
<svg xmlns="http://www.w3.org/2000/svg" xmlns:xlink="http://www.w3.org/1999/xlink" aria-hidden="true" width="1em" height="1em" viewBox="0 0 1056 1056" data-icon="simple-line-icons:call-in" data-width="1em" data-height="1em" data-inline="false" class="iconify"><path d="M1016 788q-4-4-25-18t-49-32.5l-56-37-50-33-28-17.5q-4-3-9.5-5t-11-3-11.5-1q-4 0-7 .5t-6.5 1-7.5 1.5-7.5 2-7 2.5-7.5 3-7 3.5q-19 10-91 51-61-43-152-134-90-90-133-151 41-73 51-91 26-50 5-83-11-17-70.5-107T268 39q-17-24-52-24-9 0-17.5 2t-17 5.5T165 31q-5 4-16.5 13t-37 30.5-45.5 42-36 45T15 204q1 42 15 88.5T68 385t53.5 91 66.5 90 71 82.5 72 75.5q59 59 118 109.5t128.5 99 141 77.5 134.5 31h1q17 0 41-16t44.5-36.5 42-45T1012 907l12-16q31-44 9-84-7-12-17-19zm-44 65q-30 42-67 79.5T851 977q-90-5-212.5-81.5T376.5 679 160 416.5 79 205q6-17 43.5-54T202 84q2-2 4-3t4.5-1.5 5.5-.5q1 0 2 1 60 86 132 199 0 8-6 21-2 3-5 9t-7.5 14-10.5 18-12.5 22-14.5 26l-20 35 23 33q47 67 141 161t160 140l33 24 36-20q29-17 54-31.5t35-18.5q11-7 20-7h1q81 51 200 133 1 7-5 15zM660 393q7 6 16 6h13l229 1q6 0 11.5-3.5t9-9T942 376v-17q-1-11-9-17.5t-18-6.5H764l262-262q9-9 9-22t-9.5-22.5T1003 19t-23 9L718 291l1-155q0-10-7-17t-16-7h-17q-6 0-11.5 2.5t-9 7T655 133v231h1l-2 12q1 11 6 17z" fill="#646464"/></svg>
