<?xml version="1.0"?>
<svg xmlns="http://www.w3.org/2000/svg" xmlns:xlink="http://www.w3.org/1999/xlink" aria-hidden="true" width="1em" height="1em" viewBox="0 0 1024 1040" data-icon="simple-line-icons:call-end" data-width="1em" data-height="1em" data-inline="false" class="iconify"><path d="M962 216v1l-1 1q-86 60-199 132-8 1-21-6-18-9-89-50l-35-20-33 23q-67 47-161 141T283 598l-24 33 20 36q41 71 50 89 4 7 5.5 12t1.5 8v1q-50 79-133 200-7 1-15-5-42-30-79.5-67T64 851q5-90 81.5-212.5T362 376q70-69 136-123.5T624 160t114-58.5T836 79q17 6 54 43.5t67 79.5q4 7 5 14zm62 0q0-6-1-11l-2-10-3-10-4.5-10-5.5-10q-4-6-12.5-17t-30-36.5-42-45.5T879 30t-42-15q-62 2-133 31t-140.5 77.5T435 222 317 331 207.5 449t-99 128.5-77.5 141T0 853v1q0 17 16 41t36.5 44.5 45 42T134 1012l16 12q32 20 60.5 16.5T253 1016q3-3 13.5-19t24.5-37 30.5-45.5T352 868t25-38.5 14-21.5q4-6 6.5-14.5T400 776q0-6-1-12t-3-12.5-4.5-13T386 726q-10-19-51-91 43-61 134-152 52-52 90-84.5t61-48.5q73 41 91 51 50 26 83 5 16-10 105.5-70t100.5-68q24-17 24-52z" fill="#646464"/></svg>
