<?xml version="1.0"?>
<svg xmlns="http://www.w3.org/2000/svg" xmlns:xlink="http://www.w3.org/1999/xlink" aria-hidden="true" width="1em" height="1em" viewBox="0 0 1024 896" data-icon="simple-line-icons:camera" data-width="1em" data-height="1em" data-inline="false" class="iconify"><path d="M928 160H781L704 32H320l-77 128H96q-30 0-63 26T0 255v513q0 38 28.5 67T89 864h841q21 0 43-13t36.5-35.5T1024 769V256q0-18-10-39t-33-39-53-18zm32 609q0 9-11 19.5T930 800H90q-7-1-16.5-10.5T64 768V255q0-13 12.5-21.5T96 224h183l77-128h314l57 97 18 31h183q10 0 18 8t11 14.5 3 9.5v513zM512 256q-93 0-158.5 65.5T288 480t65.5 158.5T512 704t158.5-65.5T736 480t-65.5-158.5T512 256zm0 384q-66 0-113-47t-47-113 47-113 113-47 113 47 47 113-47 113-113 47z" fill="#646464"/></svg>
