<?xml version="1.0"?>
<svg xmlns="http://www.w3.org/2000/svg" xmlns:xlink="http://www.w3.org/1999/xlink" aria-hidden="true" width="1em" height="1em" viewBox="0 0 1024 896" data-icon="simple-line-icons:camrecorder" data-width="1em" data-height="1em" data-inline="false" class="iconify"><path d="M638 159q2 0 2 3v127q0 39 34 57 3 1 5.5 2l5 2 5 1.5 5 1 5 .5h4.5q10 0 20-2.5t18-8.5l218-123v457L741 556q-16-11-37-11h-6l-6 .5-6 1.5-5.5 2-5.5 3q-6 3-11.5 7.5t-10 10-7 12-4.5 13-2 14.5v125q0 1-.5 2t-1.5 1H66l-2-3V162q0-1 .5-2t1.5-1h572zm352-32q-4 0-8.5 1t-10 3-9.5 6L704 289V162q0-14-5-26t-14-21-21-14.5-26-5.5H66q-27 0-46.5 19.5T0 162v572q0 28 19.5 47.5T66 801h572q27 0 46.5-19.5T704 734V609l263 153q7 7 24 7 7 0 13-3 20-8 20-30V161q0-23-20-31-6-3-14-3z" fill="#646464"/></svg>
