<?xml version="1.0"?>
<svg xmlns="http://www.w3.org/2000/svg" xmlns:xlink="http://www.w3.org/1999/xlink" aria-hidden="true" width="1em" height="1em" viewBox="0 0 640 1024" data-icon="simple-line-icons:chemistry" data-width="1em" data-height="1em" data-inline="false" class="iconify"><path d="M618 971L448 769V416h21q14 0 23-9.5t9-23-9-22.5-23-9h-53q-13 0-22.5 9t-9.5 23v397q0 13 8 22l131 157H117l131-157q8-9 8-22V384q0-14-9.5-23t-22.5-9h-53q-14 0-23 9t-9 22.5 9 23 23 9.5h21v353L22 971q-14 15-6 34 4 9 12 14t17 5h550q20 0 28.5-19t-5.5-34zM288 320q26 0 45-19t19-45.5-19-45-45-18.5q-13 0-25 5t-20.5 13.5T229 231t-5 25q0 6 1 11.5t3 10.5 5 10 6.5 9 7.5 7.5 9 6.5 10 5 10.5 3 11.5 1zm208.5-95q46.5 0 79.5-33t33-79.5T576 33 496.5 0 417 33t-33 79.5 33 79.5 79.5 33zM496 64q10 0 19 3.5t15.5 10 10 15.5 3.5 19q0 20-14 34t-34 14q-13 0-24-6.5T454.5 136t-6.5-24q0-20 14-34t34-14z" fill="#646464"/></svg>
