<?xml version="1.0"?>
<svg xmlns="http://www.w3.org/2000/svg" xmlns:xlink="http://www.w3.org/1999/xlink" aria-hidden="true" width="1em" height="1em" viewBox="0 0 1024 896" data-icon="simple-line-icons:cloud-upload" data-width="1em" data-height="1em" data-inline="false" class="iconify"><path d="M763 196q-34-91-106.5-142T478 3q-91 0-163.5 41.5t-114 113T153 318q-67 22-110 83.5T0 540q0 94 64 163t152 69h92q14 0 23-9.5t9-22.5q0-7-2.5-12.5t-6.5-10-10-7-13-2.5h-92q-62 0-107.5-50T63 540q0-60 37-108t90-57l29-5-2-30h-1q0-78 32-140t92-97.5T478 67q179 0 231 169l7 22 23 1q90 1 156.5 65T962 477q0 56-22 108.5T875.5 673 780 708h-73q-13 0-22.5 9.5T675 740t9.5 22.5T707 772h73q58-2 105.5-28.5t77-69T1008 581t16-104q0-109-75.5-189T763 196zM536 451v-1l-8-8q-7-7-16.5-7t-16.5 7l-8 8v1L371 579q-7 7-7 16.5t7 17.5l8 5q7 7 16 5.5t17-8.5l68-76v322q0 14 9 23t22.5 9 23-9 9.5-23V539l70 78q7 7 16 8.5t16-5.5l8-5q7-8 7-17.5t-7-16.5z" fill="#646464"/></svg>
