<?xml version="1.0"?>
<svg xmlns="http://www.w3.org/2000/svg" xmlns:xlink="http://www.w3.org/1999/xlink" aria-hidden="true" width="1em" height="1em" viewBox="0 0 1024 896" data-icon="simple-line-icons:cloud-download" data-width="1em" data-height="1em" data-inline="false" class="iconify"><path d="M763 196q-34-91-106.5-142T478 3Q341 3 251.5 92.5T153 318q-67 22-110 83.5T0 540q0 94 64 163t152 69h28q7 0 13-2.5t10-7 6.5-10.5 2.5-12q0-13-9-22.5t-23-9.5h-28q-62 0-107.5-50T63 540q0-60 37-108t90-57l29-5-2-30h-1q0-119 72-196t190-77q179 0 231 169l7 22 23 1q59 1 110 30t82 79.5T962 477q0 28-6 55.5t-16.5 53-27 48-36 39-44.5 26-52 9.5h-9q-6 0-12 2.5t-10.5 7-7 10T739 740q0 13 9.5 22.5T771 772q58-2 107-28.5t80-69 48.5-93.5 17.5-104q0-109-75.5-189T763 196zM646 711q-6-7-15.5-7t-16.5 7l-70 78V467q0-3-1-6.5t-2-6-3-5.5-4-5-4.5-3.5-5.5-3-6-2-6-.5q-14 0-23 9.5t-9 22.5v322l-68-76q-7-7-16.5-7.5T379 711l-8 5q-7 7-7 17t7 17l116 127v1l8 8q7 7 16.5 7t16.5-7l8-8v-1l118-129q15-15 0-30z" fill="#646464"/></svg>
