<?xml version="1.0"?>
<svg xmlns="http://www.w3.org/2000/svg" xmlns:xlink="http://www.w3.org/1999/xlink" aria-hidden="true" width="1em" height="1em" viewBox="0 0 1024 1024" data-icon="simple-line-icons:compass" data-width="1em" data-height="1em" data-inline="false" class="iconify"><path d="M733 280L420 415q-9 4-13 13L263 717q-9 20 6 35 2 2 4.5 4t5 3 5.5 1.5 6 .5q7 0 13-3l306-127q2-1 3.5-2l3-2 2.5-2.5 2-3 2-2.5 151-297q11-20-4.5-36t-35.5-6zM358 665l87-178 88 110zm227-105l-89-112 177-69zM512 0Q408 0 313 40.5t-163.5 109T40.5 313 0 512t40.5 199 109 163.5 163.5 109 199 40.5 199-40.5 163.5-109 109-163.5 40.5-199-40.5-199-109-163.5T711 40.5 512 0zm0 961q-73 0-141.5-22.5T247 874t-96.5-97-64-123.5T64 512q0-91 35.5-174T195 195t143-95.5T512 64t174 35.5T829 195t95.5 143T960 512t-35.5 174T829 829.5t-143 96T512 961z" fill="#646464"/></svg>
