<?xml version="1.0"?>
<svg xmlns="http://www.w3.org/2000/svg" xmlns:xlink="http://www.w3.org/1999/xlink" aria-hidden="true" width="1em" height="1em" viewBox="0 0 1024 896" data-icon="simple-line-icons:control-rewind" data-width="1em" data-height="1em" data-inline="false" class="iconify"><path d="M574 134L69 448l505 314V515l384 247V134L574 381V125v9zm-3-64q18 0 33 8 34 19 34 56v132L936 80q5-4 10.5-6t11-3 11.5-1q11 0 25.5 8t21 22.5 6.5 33.5v628q0 12-2.5 22.5t-9 19.5-16.5 14q-7 4-13.5 6t-14.5 2q-9 0-16-2.5t-15-7.5L638 630v132q0 37-34 56-15 8-32 8-19 0-34-10L32 502q-7-4-12.5-10T10 479t-6-15-2-16q0-17 8-31.5T32 394L538 80q15-10 33-10z" fill="#646464"/></svg>
