<?xml version="1.0"?>
<svg xmlns="http://www.w3.org/2000/svg" xmlns:xlink="http://www.w3.org/1999/xlink" aria-hidden="true" width="1em" height="1em" viewBox="0 0 864 1024" data-icon="simple-line-icons:control-play" data-width="1em" data-height="1em" data-inline="false" class="iconify"><path d="M65 65l735 447L64 959zm0-64Q48 1 34 9 1 28 1 65L0 959q0 37 33 56 7 4 15 6t16 2q9 0 17.5-2.5T97 1013l737-447q30-18 30-54 0-11-3.5-21.5t-10.5-19-16-13.5L98 11q-5-3-10.5-5t-11-3.5T65 1z" fill="#646464"/></svg>
