<?xml version="1.0"?>
<svg xmlns="http://www.w3.org/2000/svg" xmlns:xlink="http://www.w3.org/1999/xlink" aria-hidden="true" width="1em" height="1em" viewBox="0 0 1024 896" data-icon="simple-line-icons:control-forward" data-width="1em" data-height="1em" data-inline="false" class="iconify"><path d="M450 134l505 314-505 314V515L66 762V134l384 247V125v9zm3-64q-18 0-33 8-15 9-24.5 24t-9.5 32v132L88 80q-4-3-8-4.5l-8-3-8.5-2L55 70q-11 0-26 8Q2 93 2 134v628q0 41 28 56 14 8 28 8 16 0 31-10l297-186v132q0 9 2.5 17t7 15.5 11 13.5 13.5 10 15.5 6 16.5 2q19 0 34-10l506-314q9-5 16-13.5t10.5-19 3.5-21.5-3.5-21.5-10.5-19-16-13.5L486 80q-7-5-15.5-7.5T453 70z" fill="#646464"/></svg>
