<?xml version="1.0"?>
<svg xmlns="http://www.w3.org/2000/svg" xmlns:xlink="http://www.w3.org/1999/xlink" aria-hidden="true" width="1em" height="1em" viewBox="0 0 928 1024" data-icon="simple-line-icons:control-start" data-width="1em" data-height="1em" data-inline="false" class="iconify"><path d="M927 65q0-37-33-56-14-8-31-8-18 0-34 10L93 458q-24 15-29 44V32q0-13-9.5-22.5T32 0 9.5 9.5 0 32v960q0 9 4.5 16t11.5 11.5 16 4.5q13 0 22.5-9.5T64 992V522q5 29 29 44l737 447q8 5 16.5 7.5t17.5 2.5q17 0 31-8 33-19 33-56zM127 512L863 65l1 894z" fill="#646464"/></svg>
