<?xml version="1.0"?>
<svg xmlns="http://www.w3.org/2000/svg" xmlns:xlink="http://www.w3.org/1999/xlink" aria-hidden="true" width="1em" height="1em" viewBox="0 0 704 1024" data-icon="simple-line-icons:control-pause" data-width="1em" data-height="1em" data-inline="false" class="iconify"><path d="M256 0H32q-6 0-12 2.5t-10.5 7-7 10T0 32v960q0 13 9.5 22.5T32 1024h224q14 0 23-9.5t9-22.5V32q0-13-9-22.5T256 0zm-32 960H64V64h160v896zM672 0H449q-13 0-22.5 9.5T417 32v960q0 13 9.5 22.5t22.5 9.5h223q6 0 12-2.5t10.5-7 7-10T704 992V32q0-9-4.5-16T688 4.5 672 0zm-32 960H481V64h159v896z" fill="#646464"/></svg>
