<?xml version="1.0"?>
<svg xmlns="http://www.w3.org/2000/svg" xmlns:xlink="http://www.w3.org/1999/xlink" aria-hidden="true" width="1em" height="1em" viewBox="0 0 928 1024" data-icon="simple-line-icons:control-end" data-width="1em" data-height="1em" data-inline="false" class="iconify"><path d="M896 0q-13 0-22.5 9.5T864 32v470q-5-29-29-44L99 11Q83 1 65 1 48 1 34 9q-15 9-24 24T1 65L0 959q0 37 33 56 7 4 15 6t16 2q9 0 17.5-2.5T98 1013l737-447q24-15 29-44v470q0 13 9.5 22.5t22.5 9.5 22.5-9.5T928 992V32q0-24-23-31-5-1-9-1zM64 959l1-894 736 447z" fill="#646464"/></svg>
