<?xml version="1.0"?>
<svg xmlns="http://www.w3.org/2000/svg" xmlns:xlink="http://www.w3.org/1999/xlink" aria-hidden="true" width="1em" height="1em" viewBox="0 0 1024 1024" data-icon="simple-line-icons:crop" data-width="1em" data-height="1em" data-inline="false" class="iconify"><path d="M992 800H864V206L983 87q7-6 9-14.5t0-16.5-9-14q-9-10-22-10t-23 10L820 160H224V32q0-13-9.5-22.5T192 0t-22.5 9.5T160 32v128H32q-13 0-22.5 9.5T0 192t9.5 22.5T32 224h128v608q0 2 1 7l1 1v4q3 6 7.5 10.5T180 862h4q6 2 8 2h608v128q0 13 9.5 22.5t22.5 9.5 22.5-9.5T864 992V864h128q13 0 22.5-9.5t9.5-22.5-9.5-22.5T992 800zM755 224L224 755V224h531zM269 800l531-530v530H269z" fill="#646464"/></svg>
