<?xml version="1.0"?>
<svg xmlns="http://www.w3.org/2000/svg" xmlns:xlink="http://www.w3.org/1999/xlink" aria-hidden="true" width="1em" height="1em" viewBox="0 0 1024 1024" data-icon="simple-line-icons:cup" data-width="1em" data-height="1em" data-inline="false" class="iconify"><path d="M833 416q-13 0-65-1v-64q0-26-18.5-45T704 287H64q-27 0-45.5 19T0 351v481q0 80 56 136t136 56h385q79 0 135-56t56-136v-33q21 1 40.5 1H833q79 0 135-56t56-135q0-89-68-147-54-46-123-46zM704 832q0 35-17 64.5T640.5 943 577 960H192q-53 0-90.5-37.5T64 832V351h640v481zm129-95q-10 0-65-1V480h65q54 0 91 36.5t37 91.5-37 92-91 37zM576 224q13 0 22.5-9.5T608 192V32q0-13-9.5-22.5T576 0t-22.5 9.5T544 32v160q0 13 9.5 22.5T576 224zm-384 0q13 0 22.5-9.5T224 192V32q0-13-9.5-22.5T192 0t-22.5 9.5T160 32v160q0 13 9.5 22.5T192 224zm192 0q13 0 22.5-9.5T416 192V32q0-13-9.5-22.5T384 0t-22.5 9.5T352 32v160q0 13 9.5 22.5T384 224z" fill="#646464"/></svg>
