<?xml version="1.0"?>
<svg xmlns="http://www.w3.org/2000/svg" xmlns:xlink="http://www.w3.org/1999/xlink" aria-hidden="true" width="1em" height="1em" viewBox="0 0 928 1024" data-icon="simple-line-icons:direction" data-width="1em" data-height="1em" data-inline="false" class="iconify"><path d="M919 298L740 106q-10-10-24-10H449l-1-66q0-3-.5-6.5T445 17t-4-5.5-5-4.5-6-3.5-6.5-2.5-7.5-1q-5 0-9.5 1.5T398 6t-6.5 6.5-4 8T386 30l-1 66H32q-8 0-15.5 4.5T4.5 112 0 128v384q0 13 9.5 22.5T32 544h353v450q0 12 9.5 21t22.5 9 22.5-9 9.5-21V544h267q7 0 13-2.5t11-7.5l179-192q8-9 8.5-22t-8.5-22zM702 480H64V160h638l150 160z" fill="#646464"/></svg>
