<?xml version="1.0"?>
<svg xmlns="http://www.w3.org/2000/svg" xmlns:xlink="http://www.w3.org/1999/xlink" aria-hidden="true" width="1em" height="1em" viewBox="0 0 1024 1024" data-icon="simple-line-icons:directions" data-width="1em" data-height="1em" data-inline="false" class="iconify"><path d="M1017 186L917 75q-9-11-24-11H543V30q0-4-1-8t-3-7-5-6-6.5-5-7.5-3-9-1q-13 0-22.5 9T479 30v34H223q-13 0-22.5 9.5T191 96v224q0 13 9.5 22.5T223 352h256v64H131q-15 0-24 10L7 540q-8 9-8 21t8 21l100 113q4 5 10 7t14 2h348v290q0 12 9.5 21t22.5 9 22.5-9 9.5-21V704h257q13 0 22.5-9t9.5-23V448q0-14-9.5-23t-22.5-9H543v-64h350q15 0 24-11l100-112q5-6 7-14t0-15.5-7-13.5zM768 640H145l-71-79 71-81h623v160zm111-352H255V128h624l71 79z" fill="#646464"/></svg>
