<?xml version="1.0"?>
<svg xmlns="http://www.w3.org/2000/svg" xmlns:xlink="http://www.w3.org/1999/xlink" aria-hidden="true" width="1em" height="1em" viewBox="0 0 1024 1024" data-icon="simple-line-icons:disc" data-width="1em" data-height="1em" data-inline="false" class="iconify"><path d="M512 0Q373 0 255 68.5T68.5 255 0 512t68.5 257T255 955.5t257 68.5 257-68.5T955.5 769t68.5-257-68.5-257T769 68.5 512 0zm448 512q0 97-41 186L636 546l2-8 1.5-8.5 1-9 .5-8.5q0-18-4.5-34.5t-13-30.5-20.5-26-26-20.5-30.5-13T512 383q-21 0-42 7L301 117q99-53 211-53 170 0 298 113 123 110 146 272 4 32 4 63zm-448-65q27 0 46 19t19 46-19 46-46 19-46-19-19-46 19-46 46-19zM247 151l170 274-1 1-2 2-283-152q47-74 116-125zM64 512q0-94 38-179l284 152q-3 14-3 27 0 35 17.5 64.5t47 47T512 641q18 0 36-5l170 274q-97 50-206 50-73 0-141.5-22.5t-123.5-64-96.5-96.5-64-123.5T64 512zm708 364L603 603h1v-1l285 152q-47 72-117 122z" fill="#646464"/></svg>
