<?xml version="1.0"?>
<svg xmlns="http://www.w3.org/2000/svg" xmlns:xlink="http://www.w3.org/1999/xlink" aria-hidden="true" width="1em" height="1em" viewBox="0 0 1056 1024" data-icon="simple-line-icons:dislike" data-width="1em" data-height="1em" data-inline="false" class="iconify"><path d="M431 0q249 0 296 18 13 6 34 21 15 12 54.5 19.5T947 72q8 1 14.5 4t10.5 8q2 3 8 13t17 33.5 20.5 51.5 16.5 70 7 85q0 145-49 224-3 4-7.5 7.5T975 574t-11 2q-84 0-184.5 102T606 955q-18 41-25 49-19 19-60 20-27 0-54.5-17T423 964q-19-31-22-89t3.5-108 17.5-96q-180 1-242 1-59 0-95.5-32T47 556q-1-44 9-67-40-39-41-77-1-47 46-96-1-2-4-9.5T52.5 294 50 281.5 49 267q2-55 64-98-5-33 1-59Q138 0 431 0zm499 137q-164-13-208-46l-3-3q-9-6-14.5-9t-22-6.5-45.5-5-79-2.5-127-1q-242 0-255 60-4 22 19 45 5 12 0 24.5T179 211h-1q-5 2-12 5t-20.5 11-22.5 19.5-10 23.5q0 3 .5 6.5t1 6.5 2 6l2.5 5 2.5 4 2.5 3.5 2 2.5 1.5 2 .5 1q7 10 4.5 23T120 351q-6 3-13 8.5T89.5 380 79 410q1 25 38 47 13 7 16 22 1 7-.5 13.5T127 505q-2 2-4.5 7t-7 18.5T111 555q0 7 2 13.5t5 11.5 6.5 9 8 7 9 5 9.5 3.5 9 2 8.5 1 7 .5h4.5q153 0 288-1 17 0 27 15 9 13 3 30-25 72-32.5 155T478 931q1 2 4.5 8.5t5.5 8.5 6.5 5.5 11 5T521 960q13 0 26-30 77-186 186-296.5T944 513q33-74 33-176 0-45-9-89.5t-18.5-70T930 137z" fill="#646464"/></svg>
