<?xml version="1.0"?>
<svg xmlns="http://www.w3.org/2000/svg" xmlns:xlink="http://www.w3.org/1999/xlink" aria-hidden="true" width="1em" height="1em" viewBox="0 0 1024 896" data-icon="simple-line-icons:drawer" data-width="1em" data-height="1em" data-inline="false" class="iconify"><path d="M1023 446L905 39q-1-7-6-12.5T888 18t-13-3H139q-7 0-13.5 3t-11 8.5T108 39L1 426q-1 5-.5 10.5T3 447q-3 10-3 18v352q0 26 18.5 45T64 881h896q27 0 45.5-19t18.5-45V460q0-8-1-14zM164 79h686l93 322H645q0 23-6.5 43T620 480t-28 27.5-36.5 17.5-43.5 6q-29 0-53-9.5T417.5 495 390 454t-10-53H74zm796 738H64V465h263q21 61 70 95.5T512 595q44 0 81.5-15.5t64-45T698 465h262v352z" fill="#646464"/></svg>
