<?xml version="1.0"?>
<svg xmlns="http://www.w3.org/2000/svg" xmlns:xlink="http://www.w3.org/1999/xlink" aria-hidden="true" width="1em" height="1em" viewBox="0 0 704 1024" data-icon="simple-line-icons:drop" data-width="1em" data-height="1em" data-inline="false" class="iconify"><path d="M350 1023q-95 0-175.5-46.5T47 850.5 0 677q0-174 234-531 50-77 91-132 9-13 25-13t26 13q7 9 18 24.5T432.5 92t53.5 79 58.5 94T604 371t50.5 106.5T691 583t13 94q0 56-18 109t-50.5 95.5-76 74.5-97.5 49.5-112 17.5zm1-935q-39 55-78 116t-91.5 151.5-85 177T64 677q0 116 84 199t202 83q120 0 205-83t85-199q0-41-15.5-95.5t-43-112-57.5-112-65.5-110-60-91T351 88z" fill="#646464"/></svg>
