<?xml version="1.0"?>
<svg xmlns="http://www.w3.org/2000/svg" xmlns:xlink="http://www.w3.org/1999/xlink" aria-hidden="true" width="1em" height="1em" viewBox="0 0 1024 1056" data-icon="simple-line-icons:earphones-alt" data-width="1em" data-height="1em" data-inline="false" class="iconify"><path d="M1024 589q0-69-6-124-11-96-54.5-179.5T854 142.5 700 49 515 15q-135 0-249 64T82 255.5 5 505q-2 49-3 75v15q0 3-.5 6l-1 6-.5 6v215q0 35 25 60t60 25h86q36 0 60.5-25t24.5-60V613q0-23-11-42.5t-30.5-31T171 528H85q-9 0-17 2v-7.5l.5-6 .5-5V509q6-121 67-219.5T297 135t218-56q172 0 296 111.5T954 472q1 7 2 23t2 35q-10-2-19-2h-85q-36 0-60.5 25T769 613v214q0 23 12 43t33 31l-206 81v-5q0-9-4-16.5T592.5 949t-16.5-4h-96q-13 0-22.5 9t-9.5 23v32q0 13 9.5 22.5t22.5 9.5h97l57-1 330-129 4-2 3.5-2.5 3.5-3.5q22-10 35.5-30.5T1024 827V613q0-7-2-15 2-5 2-9zm-939 3h86q5 0 8.5 1.5t6.5 4.5 4.5 7 1.5 8v215q0 8-6 14.5t-15 6.5H85q-9 0-15-6.5T64 828V613q0-4 1.5-8t4.5-7 7-4.5 8-1.5zm748 21q0-3 1-6.5t3-6 4.5-4.5 5.5-3 7-1h85q6 0 10.5 3t7.5 7.5 3 10.5v214q0 5-3 10t-7.5 8-10.5 3h-85q-9 0-15-6.5t-6-14.5V613z" fill="#646464"/></svg>
