<?xml version="1.0"?>
<svg xmlns="http://www.w3.org/2000/svg" xmlns:xlink="http://www.w3.org/1999/xlink" aria-hidden="true" width="1em" height="1em" viewBox="0 0 1024 992" data-icon="simple-line-icons:earphones" data-width="1em" data-height="1em" data-inline="false" class="iconify"><path d="M1024 589q0-69-6-124-14-128-84-231T754 73 515 15q-135 0-249 64T82 255.5 5 505q-2 49-3 75v15q0 3-.5 6l-1 6-.5 6v279q0 35 25 60t60 25h86q36 0 60.5-25t24.5-60V613q0-23-11-42.5t-30.5-31T171 528H85q-4 0-8.5.5T68 530q0-6 .5-13.5l.5-7.5q5-91 42-170.5T207 202t139.5-90T515 79q85 0 161.5 30T811 190.5 907 315t47 157q2 14 4 58-3 0-6-.5t-6.5-1-6.5-.5h-85q-36 0-60.5 25T769 613v278q0 14 4 26.5t12 23 18.5 18.5 23.5 12.5 27 4.5h85q35 0 60-25t25-60V613q0-7-2-15 2-5 2-9zm-939 3h86q6 0 11 3t7.5 7.5T192 613v279q0 8-6 14.5t-15 6.5H85q-6 0-10.5-3t-7.5-8-3-10V613q0-9 6-15t15-6zm875 299q0 8-6 14.5t-15 6.5h-85q-3 0-5.5-.5t-4.5-2-3.5-2.5-3-3-2.5-4-1.5-4.5-.5-4.5V613q0-9 6-15t15-6h85q9 0 15 6t6 15v278z" fill="#646464"/></svg>
