<?xml version="1.0"?>
<svg xmlns="http://www.w3.org/2000/svg" xmlns:xlink="http://www.w3.org/1999/xlink" aria-hidden="true" width="1em" height="1em" viewBox="0 0 1024 1024" data-icon="simple-line-icons:emotsmile" data-width="1em" data-height="1em" data-inline="false" class="iconify"><path d="M781 607q-12-5-24.5-.5T739 623l-4.5 9-12.5 20-22 29-32 30.5-42 28.5-52.5 20.5L510 769q-1 0-2 .5l-1 .5q-28 0-54-6t-46-16.5-37.5-22.5-31-26.5T315 672t-17-24-10-17-4-8q-6-12-18-16.5t-24.5 1-17 17.5 1.5 25q1 3 3.5 8t10.5 17.5 16.5 25 23 28.5 30.5 30 37.5 28 45 24 53 16.5T506 834q1 0 4-1 57 0 108-19.5t81-43 54.5-54.5 32-44.5T797 649q3-4 3.5-9.5t-1-10-3.5-9-6-8-9-5.5zM512 0Q408 0 313 40.5t-163.5 109T40.5 313 0 512t40.5 199 109 163.5 163.5 109 199 40.5 199-40.5 163.5-109 109-163.5 40.5-199-40.5-199-109-163.5T711 40.5 512 0zm0 960q-73 0-141.5-22.5t-123.5-64-96.5-96.5-64-123.5T64 512q0-91 35.5-174T195 195t143-95.5T512 64t174 35.5T829 195t95.5 143T960 512t-35.5 174T829 829t-143 95.5T512 960zM352 480q26 0 44.5-19t18.5-45q0-17-8.5-32t-23-23.5T352 352q-27 0-45.5 19T288 416q0 39 34 57 15 7 30 7zm320 0q7 0 14-2t13.5-5 12-7.5 10-10T729 444t4.5-13.5T735 416q0-26-18.5-45t-45-19-45 19-18.5 45 18.5 45 45.5 19z" fill="#646464"/></svg>
