<?xml version="1.0"?>
<svg xmlns="http://www.w3.org/2000/svg" xmlns:xlink="http://www.w3.org/1999/xlink" aria-hidden="true" width="1em" height="1em" viewBox="0 0 704 1024" data-icon="simple-line-icons:energy" data-width="1em" data-height="1em" data-inline="false" class="iconify"><path d="M435 65h1-1zm0 0l-72 379 262 1-356 514 72-417-262-1zm0-64h-5q-8 1-14 3.5T402.5 12 389 24q-1 1-1.5 2t-1.5 2L27 502q-23 32-5 67 3 6 7.5 11.5t10 10 12 7.5 13.5 4.5 14 1.5l185 1-59 343q-4 22 7 41.5t31 28.5q6 3 12.5 4t13.5 1q29 0 49-26l359-514q23-32 5-67t-57-35H440l58-301q1-4 1.5-7.5t.5-7.5q0-9-2.5-17T491 33t-9.5-13T469 10t-15-6.5T438 1h-3z" fill="#646464"/></svg>
