<?xml version="1.0"?>
<svg xmlns="http://www.w3.org/2000/svg" xmlns:xlink="http://www.w3.org/1999/xlink" aria-hidden="true" width="1em" height="1em" viewBox="0 0 1024 1024" data-icon="simple-line-icons:envelope-letter" data-width="1em" data-height="1em" data-inline="false" class="iconify"><path d="M1023 473q0-4-1-8t-2.5-8-3.5-7.5-5-6.5l-1-1q-2-3-5-6l-6-6-167-168V159q0-13-9.5-22.5T800 127H699L582 27q-11-11-24.5-17.5T529 1t-30 0-28.5 8.5T446 27L330 127H224q-13 0-22.5 9.5T192 159v105L29 427Q0 446 0 481v479q0 27 19 45.5t45 18.5h896q17 0 32-8.5t23.5-23.5 8.5-32V478l-1-5zM269 726L64 916V545zm62 30q6-3 11-9 1-1 2-2.5t2-3.5l138-128q11-9 25-9t24 8l384 348H110zm427-26l202-179v361zm140-313h-1l55 55-120 107V351zM491 72q10-9 23-9 6 0 12 2.5t11 6.5l64 55H427zm277 119v445l-57 51-137-124q-6-5-13-9t-14-6.5-14.5-4.5-15.5-2.5-15.5 0T486 543t-15 5-14.5 7-13.5 9L316 682l-60-53V191h512zM104 443l88-88v217L75 469l27-26h2z" fill="#646464"/></svg>
