<?xml version="1.0"?>
<svg xmlns="http://www.w3.org/2000/svg" xmlns:xlink="http://www.w3.org/1999/xlink" aria-hidden="true" width="1em" height="1em" viewBox="0 0 1024 896" data-icon="simple-line-icons:envelope" data-width="1em" data-height="1em" data-inline="false" class="iconify"><path d="M1023 168q1-3 1-6t-1-6l-2-6q-12-54-77-54H112q-30 0-57.5 11T13 137l-5 5q-10 11-7 26-1 2-1 4v516q0 40 36 76t76 36h832q37 0 58.5-34t21.5-78V170.5l-1-2.5zm-911-8h832L512 505 81 161q8-1 31-1zm832 576H112q-9 0-20.5-8T72 708.5 64 688V230l427 341q9 8 21 8 12-1 21-8l427-341v462q0 44-16 44z" fill="#646464"/></svg>
