<?xml version="1.0"?>
<svg xmlns="http://www.w3.org/2000/svg" xmlns:xlink="http://www.w3.org/1999/xlink" aria-hidden="true" width="1em" height="1em" viewBox="0 0 1024 1024" data-icon="simple-line-icons:envelope-open" data-width="1em" data-height="1em" data-inline="false" class="iconify"><path d="M1023 473q0-4-1-8t-2.5-8-3.5-7.5-5-6.5l-1-1q-2-3-5-6l-6-6L582 27Q555 0 514 0t-68 27L29 427q-6 6-12 13T5.5 458.5 0 481v479q0 27 19 45.5t45 18.5h896q17 0 32-8.5t23.5-23.5 8.5-32V478l-1-5zM270 726L64 916V545zm66 27l6-6 1-1 141-130q11-9 25-9t24 8l384 345H110zm421-22l203-180v362zM104 443L491 72q10-9 23-9t23 9l361 345h-1l55 55-242 215-136-121q-18-15-41-20t-47 0-43 21L317 683 75 469l27-26h2z" fill="#646464"/></svg>
