<?xml version="1.0"?>
<svg xmlns="http://www.w3.org/2000/svg" xmlns:xlink="http://www.w3.org/1999/xlink" aria-hidden="true" width="1em" height="1em" viewBox="0 0 1024 1024" data-icon="simple-line-icons:equalizer" data-width="1em" data-height="1em" data-inline="false" class="iconify"><path d="M160 388V32q0-13-9.5-22.5T128 0t-22.5 9.5T96 32v356q-42 11-69 45.5T0 512t27 78.5T96 636v356q0 13 9.5 22.5t22.5 9.5 22.5-9.5T160 992V636q42-11 69-45.5t27-78.5q0-11-1.5-22t-5-20.5-9-19T229 433t-14-15-16.5-13-18.5-10-20-7zm-32 188q-27 0-45.5-19T64 512t18.5-45 45.5-19q27 0 45.5 19t18.5 45q0 39-35 57-14 7-29 7zm416 4V32q0-13-9.5-22.5T512 0t-22.5 9.5T480 32v548q-42 11-69 45.5T384 704t27 78.5 69 45.5v164q0 13 9.5 22.5t22.5 9.5 22.5-9.5T544 992V828q16-4 31-12.5t27-20 20.5-26 13-31T640 704q0-44-27-78.5T544 580zm-32 188q-9 0-17.5-2.5T479 759t-12.5-10-9.5-13-6.5-15-2.5-17q0-26 18.5-45t45.5-19q27 0 45.5 19t18.5 45q0 39-35 57-14 7-29 7zm416-572V32q0-13-9.5-22.5T896 0q-6 0-12 2.5t-10.5 7-7 10T864 32v164q-42 11-69 45.5T768 320t27 78.5 69 45.5v548q0 13 9.5 22.5t22.5 9.5 22.5-9.5T928 992V444q21-5 38.5-17t30.5-28 20-36.5 7-42.5q0-44-27-78.5T928 196zm-32 188q-13 0-25-5t-20.5-13.5T837 345t-5-25q0-26 18.5-45t45.5-19q27 0 45.5 19t18.5 45q0 39-35 57-14 7-29 7z" fill="#646464"/></svg>
