<?xml version="1.0"?>
<svg xmlns="http://www.w3.org/2000/svg" xmlns:xlink="http://www.w3.org/1999/xlink" aria-hidden="true" width="1em" height="1em" viewBox="0 0 1024 1024" data-icon="simple-line-icons:event" data-width="1em" data-height="1em" data-inline="false" class="iconify"><path d="M676 862q-12 0-20-8.5t-8-20.5V691q0-12 8-20t20-8h142q12 0 20.5 8t8.5 20v142q0 12-8.5 20.5T818 862H676zm142-171H676v142h142V691zM960 96q26 0 45 19t19 45v800q0 26-19 45t-45 19H64q-26 0-45-19T0 960V160q0-26 19-45t45-19h256V32q0-14 9-23t23-9 23 9 9 23v64h256V32q0-14 9-23t23-9 23 9 9 23v64h256zM64 960h896V160H704v32q0 14-9 23t-23 9-23-9-9-23v-32H384v32q0 14-9 23t-23 9-23-9-9-23v-32H64v800z" fill="#646464"/></svg>
