<?xml version="1.0"?>
<svg xmlns="http://www.w3.org/2000/svg" xmlns:xlink="http://www.w3.org/1999/xlink" aria-hidden="true" width="1em" height="1em" viewBox="0 0 1024 1024" data-icon="simple-line-icons:exclamation" data-width="1em" data-height="1em" data-inline="false" class="iconify"><path d="M480 674V192q0-14 9-23t23-9 23 9 9 23v482h-64zm0 63h64v60h-64v-60zM0 512q0-212 150-362T512 0t362 150 150 362-150 362-362 150-362-150T0 512zm961 0q0-185-132-316.5T512 64 195.5 195.5 64 512t131.5 316.5T512 960t317-131.5T961 512z" fill="#646464"/></svg>
