<?xml version="1.0"?>
<svg xmlns="http://www.w3.org/2000/svg" xmlns:xlink="http://www.w3.org/1999/xlink" aria-hidden="true" width="1em" height="1em" viewBox="0 0 1056 896" data-icon="simple-line-icons:eyeglass" data-width="1em" data-height="1em" data-inline="false" class="iconify"><path d="M1041 588q0-2-61-368 0-5-2-13v-2q-2-13-3-20.5t-4.5-22-8.5-24-13.5-22.5T928 95t-28-15.5T861.5 68 813 64q-14 0-23 9.5T781 96t9 22.5 23 9.5q26 0 44.5 5t28.5 11 16.5 19 8 22 4.5 28q1 12 2 17 0 2 13.5 75T952 431q-11-9-23-16t-25.5-12.5T876 393t-29-6-30-2q-60 0-111.5 30T623 495q-18-7-42-12t-53-5q-52 0-94 17-20-33-49-57.5T319 399t-78-14q-79 0-141 50 8-53 21.5-127.5T136 230l2-17q2-16 3.5-23.5T147 170t10.5-18 17-12.5 27-9T240 128q13 0 22.5-9.5T272 96t-9.5-22.5T240 64q-30 0-55 5.5T144 83t-28.5 21.5-19.5 24-11.5 27-6 25.5-3.5 24l-1 2-1 13-58 366q-1 4 0 9v14q0 92 67 157.5T241 832q93 0 158.5-65.5T465 609q0-27-7-54 8-3 16.5-5.5t23-5T528 542q21 0 39 3.5t31 8.5q-4 13-5.5 27t-1.5 28q0 92 66.5 157.5T817 832t158.5-65.5T1041 609q0-2-.5-5.5t-.5-4.5q2-6 1-11zM241 768q-66 0-114-47.5t-48-112 48-112T241 449q44 0 80.5 21.5t58 58T401 609q0 66-47 112.5T241 768zm576 0q-66 0-114-47.5t-48-112 48-112T817 449q38 0 70.5 16.5t55 45T973 574v5l.5 4.5.5 4.5v4l2 8q1 8 1 9 0 32-13 61.5t-34 51-50.5 34T817 768z" fill="#646464"/></svg>
