<?xml version="1.0"?>
<svg xmlns="http://www.w3.org/2000/svg" xmlns:xlink="http://www.w3.org/1999/xlink" aria-hidden="true" width="1em" height="1em" viewBox="0 0 1024 1024" data-icon="simple-line-icons:feed" data-width="1em" data-height="1em" data-inline="false" class="iconify"><path d="M102 330q-14 0-23.5 9.5T69 363q0 9 4.5 16.5t12 12T102 396q89 0 170.5 25.5t145.5 73 111.5 112T602 752t25 171q0 14 9.5 23.5T660 956q7 0 13-2.5t10.5-7 7-10.5 2.5-13q0-126-45-236T525 498.5 337.5 375 102 330zm0-327q-7 0-13 2.5t-10 7T72 23t-3 12q0 14 10 23.5t23 9.5q87 0 171.5 17.5t160 49.5 145 79T705 318t104 126.5 79 145 49.5 160T955 921q0 13 9.5 23t23.5 10q6 0 12-3t10.5-7 7-10.5 2.5-12.5q0-125-33-244t-92-219.5T751 272 565.5 128 346 36 102 3zm82 657q-75 0-127.5 53T4 840.5 56.5 968t127.5 53 127.5-53T364 840.5 311.5 713 184 660zm0 298q-48 0-82.5-34.5t-34.5-83 34.5-83T184 723q32 0 59 15.5t42.5 43T301 840q0 49-34.5 83.5T184 958z" fill="#646464"/></svg>
