<?xml version="1.0"?>
<svg xmlns="http://www.w3.org/2000/svg" xmlns:xlink="http://www.w3.org/1999/xlink" aria-hidden="true" width="1em" height="1em" viewBox="0 0 1024 992" data-icon="simple-line-icons:film" data-width="1em" data-height="1em" data-inline="false" class="iconify"><path d="M800 256h64q13 0 22.5-9t9.5-23v-32q0-13-9.5-22.5T864 160h-64q-13 0-22.5 9.5T768 192v32q0 14 9.5 23t22.5 9zm0 192h64q13 0 22.5-9t9.5-23v-32q0-13-9.5-22.5T864 352h-64q-13 0-22.5 9.5T768 384v32q0 14 9.5 23t22.5 9zm0 192h64q13 0 22.5-9t9.5-23v-32q0-13-9.5-22.5T864 544h-64q-13 0-22.5 9.5T768 576v32q0 14 9.5 23t22.5 9zm0 192h64q13 0 22.5-9t9.5-23v-32q0-13-9.5-22.5T864 736h-64q-13 0-22.5 9.5T768 768v32q0 14 9.5 23t22.5 9zM160 256h64q13 0 22.5-9t9.5-23v-32q0-13-9.5-22.5T224 160h-64q-13 0-22.5 9.5T128 192v32q0 14 9.5 23t22.5 9zm0 192h64q13 0 22.5-9t9.5-23v-32q0-13-9.5-22.5T224 352h-64q-13 0-22.5 9.5T128 384v32q0 14 9.5 23t22.5 9zm0 192h64q13 0 22.5-9t9.5-23v-32q0-13-9.5-22.5T224 544h-64q-13 0-22.5 9.5T128 576v32q0 14 9.5 23t22.5 9zm0 192h64q13 0 22.5-9t9.5-23v-32q0-13-9.5-22.5T224 736h-64q-13 0-22.5 9.5T128 768v32q0 14 9.5 23t22.5 9zM960 0H64Q38 0 19 19T0 64v864q0 26 19 45t45 19h896q26 0 45-19t19-45V64q0-17-8.5-32T992 8.5 960 0zm0 928H64V64h896v864z" fill="#646464"/></svg>
