<?xml version="1.0"?>
<svg xmlns="http://www.w3.org/2000/svg" xmlns:xlink="http://www.w3.org/1999/xlink" aria-hidden="true" width="1em" height="1em" viewBox="0 0 832 1024" data-icon="simple-line-icons:fire" data-width="1em" data-height="1em" data-inline="false" class="iconify"><path d="M412 1023q-180 0-296-112T0 626q0-35 8-74.5T26 483t22.5-58.5 18.5-41T77 366q10-19 31-16 10 1 17.5 7.5T135 373q19 73 46 116 26 41 56 61-29-123-7-238 13-69 43.5-126.5t61.5-89T402.5 41t52-30T480 2q8-2 16-.5T511 9q13 12 9 30-1 8-3 20.5t-4 51 .5 75.5 13 86 29.5 91q5 9 11 20.5t14 24.5q4-37 13-67 22-79 85-115 5-3 8-4 8-4 16.5-3t15.5 6.5 10.5 14T731 257q0 3-.5 8t.5 20 4.5 31 13 40 24.5 48q34 57 46.5 103.5T832 626q0 68-20 129.5t-57.5 110-89 84T549 1004t-137 19zM100 468q-36 90-36 157 0 146 98 240t250 94q155 0 255.5-94T768 625q0-42-4.5-71.5t-15-56T718 437q-35-58-46-116-11 17-17 38-8 30-12 68.5t-3.5 55.5 1.5 24q0 11-5.5 20T619 540q-5 1-10 1.5t-10-1.5-9-5-7-7q-60-85-85-138-59-128-46-305-23 14-44 32t-45 46-42.5 70-27.5 91q-7 38-7 80.5t4 74 11 61 10.5 41.5 5.5 16 2 8.5-.5 8.5-2.5 8-5 8q-13 14-31 10-5-1-12.5-3.5T241 625t-36.5-21-39-33.5T127 523q-7-11-14-25.5T100 468z" fill="#646464"/></svg>
