<?xml version="1.0"?>
<svg xmlns="http://www.w3.org/2000/svg" xmlns:xlink="http://www.w3.org/1999/xlink" aria-hidden="true" width="1em" height="1em" viewBox="0 0 896 1040" data-icon="simple-line-icons:flag" data-width="1em" data-height="1em" data-inline="false" class="iconify"><path d="M616 111q-37 0-71.5-7T485 86.5t-55.5-23-59-23-70.5-18-89-7.5q-37 0-72 10.5t-59 25-43 29T9 104l-9 10v895q0 8 4.5 15.5t11.5 12 16 4.5q13 0 22.5-9.5T64 1009V601q64-42 139-42 68 0 128.5 15t98 33 89.5 33 105 15q45 0 89.5-9.5t76-24T846 593t38-24l12-10V15q-5 4-14 10.5t-38.5 23-60 29.5-76.5 23-91 10zm216 416q-99 64-208 64-15 0-29.5-1t-28.5-4-25-6-26-8.5-24-9L464 552q-34-13-54-20.5T355 514t-72.5-14.5T203 495q-73 0-139 32V140q67-61 147-61 33 0 61.5 3.5T328 94t42.5 14 43.5 18q37 16 59 24.5t62 16.5 81 8q108 0 216-49v401z" fill="#646464"/></svg>
