<?xml version="1.0"?>
<svg xmlns="http://www.w3.org/2000/svg" xmlns:xlink="http://www.w3.org/1999/xlink" aria-hidden="true" width="1em" height="1em" viewBox="0 0 1024 896" data-icon="simple-line-icons:frame" data-width="1em" data-height="1em" data-inline="false" class="iconify"><path d="M224 48H32q-13 0-22.5 9.5T0 80v192q0 13 9.5 22.5T32 304t22.5-9.5T64 272V112h160q13 0 22.5-9.5T256 80t-9.5-22.5T224 48zm768 544q-13 0-22.5 9.5T960 624v160H800q-13 0-22.5 9.5T768 816t9.5 22.5T800 848h192q13 0 22.5-9.5t9.5-22.5V624q0-13-9.5-22.5T992 592zM224 784H64V624q0-13-9.5-22.5T32 592t-22.5 9.5T0 624v192q0 13 9.5 22.5T32 848h192q13 0 22.5-9.5T256 816t-9.5-22.5T224 784zM992 48H800q-13 0-22.5 9.5T768 80t9.5 22.5T800 112h160v160q0 13 9.5 22.5T992 304t22.5-9.5 9.5-22.5V80q0-13-9.5-22.5T992 48z" fill="#646464"/></svg>
