<?xml version="1.0"?>
<svg xmlns="http://www.w3.org/2000/svg" xmlns:xlink="http://www.w3.org/1999/xlink" aria-hidden="true" width="1em" height="1em" viewBox="0 0 1024 1056" data-icon="simple-line-icons:game-controller" data-width="1em" data-height="1em" data-inline="false" class="iconify"><path d="M743 92q-51-25-72-35-42-21-80.5-31.5T515 15q-110 0-209 99L99 322Q16 405 2.5 493T42 687q11 23 34 72 19 40 28.5 60.5t28 55.5 31.5 54 32.5 44 37 37.5 39 21.5 44.5 9h9q19-2 35.5-8.5t29-15.5 24.5-25.5 20.5-30T453 925t14.5-38.5T480 844t10-42 10-44q9-42 13-57 5-22 18-40t45-50l6-6 4-4 9-9q16-16 27-26t21.5-18 20-12 21.5-7q18-5 57-13 37-9 56-13.5t53.5-14T905 471t44-21.5 38.5-28.5 24-35 12.5-44-6-47-20-41-36.5-38-44-33.5T862 150t-57-29-62-29zm215 244q-1 19-16.5 35.5T905 399t-55.5 22-60 17-65 15-57.5 13q-14 4-26.5 9.5t-23 11.5-22.5 16-22 19.5-24 23.5l-3.5 3.5-3 3-3.5 2.5q-1 1-4 4.5t-5 4.5q-24 25-37.5 40.5t-25 36T451 683q-5 18-12 49.5T427 787t-13 53-17 51.5-20 41-25.5 30T321 975h-5q-20 0-41-16t-38.5-38-38-59-34.5-66-34.5-72.5T98 657q-31-62-34-114.5T80.5 449t62.5-84q7-6 59-59 47-46 88-88 8-8 29.5-29t30.5-30q80-81 163-81 58 0 128 35 23 12 73 35 154 72 201 113 46 39 43 75zm-479 31h64v-64h-64v64zm0-96h64v-64h-64v64zm96 0h64v-64h-64v64zm0 96h64v-64h-64v64zM330 559l24-24q9-9 9-21.5t-9-21.5-21.5-9-21.5 9l-25 24-24-24q-9-9-21.5-9t-21.5 9q-4 3-6 7.5t-3 9 0 9.5 3 9.5 6 7.5l24 24-24 25q-9 9-9 21.5t9 21.5 21.5 9 21.5-9l24-24 25 25q9 9 22 9t22-9q2-2 4-4.5t3-5.5 1.5-6 .5-6-.5-6-1.5-5.5-3-5-4-5.5z" fill="#646464"/></svg>
