<?xml version="1.0"?>
<svg xmlns="http://www.w3.org/2000/svg" xmlns:xlink="http://www.w3.org/1999/xlink" aria-hidden="true" width="1em" height="1em" viewBox="0 0 832 1024" data-icon="simple-line-icons:ghost" data-width="1em" data-height="1em" data-inline="false" class="iconify"><path d="M416 0Q303 0 207.5 59.5T56 222 0 445v547q0 10 6 18t15 12q5 2 11 2 15 0 24-10l121-134 94 131q10 13 26 13 8 0 14.5-3.5t11.5-9.5l94-127 94 127q9 13 25 13 5 0 10-1.5t9-4.5 7-7l96-130 118 132q6 8 16 10.5t19-1.5 15-12 6-18V445q0-171-108-299Q621 25 470 4q-27-4-54-4zm352 908l-89-99q-10-12-25-11-7 0-13.5 3.5T630 811l-94 127-93-127q-9-13-25-13t-26 13l-95 127-92-127q-1-2-3.5-4t-4.5-3.5-4.5-3-5.5-2-6-.5h-2q-14 0-23 10L64 909V445q0-103 47.5-191T240 115t176-51 176 51 128.5 139T768 445v463zM576 352q-17 0-32 8.5T520.5 384t-8.5 32q0 13 5 25t13.5 20.5T551 475t25 5q26 0 45-19t19-45q0-13-5-25t-13.5-20.5T601 357t-25-5zm-320 0q-26 0-45 19t-19 45 19 45 45 19 45-19 19-45q0-7-1.5-13t-4-12-6-11-7.5-9-9-7.5-11-6-12-4-13-1.5z" fill="#646464"/></svg>
