<?xml version="1.0"?>
<svg xmlns="http://www.w3.org/2000/svg" xmlns:xlink="http://www.w3.org/1999/xlink" aria-hidden="true" width="1em" height="1em" viewBox="0 0 1056 1024" data-icon="simple-line-icons:globe" data-width="1em" data-height="1em" data-inline="false" class="iconify"><path d="M1041 512q0-67-17-131t-48-119-75.5-101.5T803 80 687.5 25.5 559 1q-5-1-9-1h-22Q424 0 329 40.5t-164 109T55.5 313 15 512q0 83 26 161.5t73.5 141 110.5 110T366.5 998t161.5 26h20l5.5-.5 5.5-.5q99-6 188-48.5T900.5 864 1003 704t38-192zm-95 165q-52-15-140-26 10-68 10-139 0-56-7-111 44-5 81-12t48-10.5 17-5.5l-12-33q34 82 34 172 0 43-8 84.5T946 677zM301 512q0-18 1-35.5t2.5-34.5 3.5-34q27 2 55.5 3.5T426 414t69 1v222q-97 1-183 8-10-66-11-133zM559 68q39 11 73.5 49.5t61 96.5T735 344q-25 2-52 3.5t-58.5 2.5-65.5 2V68zm-64 1v283q-94-1-176-8 35-163 117-239 29-26 59-36zm0 632v254q-78-25-134-145-21-48-35-102 79-6 169-7zm64 255V701q47 1 89.5 2.5T728 708q-25 99-70 165.5T559 956zm0-319V415q101-1 186-8 7 52 7 105 0 68-11 133-83-7-182-8zm372-323q-3 1-7.5 2t-12.5 3-19 4.5-24.5 5-31 5T800 338q-6-29-13-56t-15.5-52-19-48-22-43-23.5-38q73 32 131 87t93 126zM375 91q-40 45-70.5 108.5T257 339q-82-9-134-22 67-136 202-205 25-12 50-21zM100 377q52 14 145 25-4 27-5.5 54.5T238 512q0 70 12 139-85 9-141 22-30-78-30-161 0-69 21-135zm37 355q53-11 127-19 18 67 46.5 123t64.5 97q-76-27-137-79T137 732zm570 191q28-40 50.5-93T794 714q29 4 55.5 8t41 7 26.5 6q-74 129-210 188z" fill="#646464"/></svg>
