<?xml version="1.0"?>
<svg xmlns="http://www.w3.org/2000/svg" xmlns:xlink="http://www.w3.org/1999/xlink" aria-hidden="true" width="1em" height="1em" viewBox="0 0 864 1024" data-icon="simple-line-icons:globe-alt" data-width="1em" data-height="1em" data-inline="false" class="iconify"><path d="M850 414q0-36-5.5-71t-16-68.5T803 210t-35-60-44-55-52.5-48.5T612 5q-8-5-16.5-5t-16 4.5T568 16q-7 12-3.5 24.5T579 60q97 57 152 151t55 203q0 90-31.5 168t-87 133-133 86.5T367 833q-13 0-26.5-1t-27-2.5-26.5-4-25.5-6T236 812t-25-9-24.5 0-17.5 17 .5 24.5T187 862q86 35 180 35h1v63h-93q-14 0-24 9t-10 22.5 10 23 24 9.5h253q14 0 23.5-9.5t9.5-23-9.5-22.5-23.5-9h-97v-67q186-22 302.5-154T850 414zm-131 3q0-57-17.5-111t-50-97.5-76-76T478 82 367 64q-72 0-137 28t-112.5 75.5-75 113T15 417q0 96 47 177t128 128 177 47q72 0 137-28t112.5-75 75-112T719 417zm-641 0q0-78 39-144.5T222.5 167 367 128q119 0 203.5 85T655 417q0 59-22.5 112T571 620.5 479 682t-112 23q-119 0-204-84.5T78 417z" fill="#646464"/></svg>
