<?xml version="1.0"?>
<svg xmlns="http://www.w3.org/2000/svg" xmlns:xlink="http://www.w3.org/1999/xlink" aria-hidden="true" width="1em" height="1em" viewBox="0 0 1024 896" data-icon="simple-line-icons:graph" data-width="1em" data-height="1em" data-inline="false" class="iconify"><path d="M944 160q-33 0-56.5 23.5T864 240q0 12 5 26L674 434q-23-18-50-18-32 0-56 23l-153-77q-2-31-24.5-52.5T336 288q-22 0-40.5 10.5t-29 29T256 368q0 17 8 34L108 581q-14-5-28-5-33 0-56.5 23.5T0 656t23.5 56.5T80 736t56.5-23.5T160 656q0-15-6-30l158-182q13 4 24 4 17 0 32-7t27-19l149 75q0 16 6.5 30.5t17 25 25.5 17 31 6.5q9 0 18-2t17-6 15-9.5 12.5-12.5 9.5-15 6-17 2-18v-4l208-179q15 7 32 7 33 0 56.5-23.5T1024 240t-23.5-56.5T944 160z" fill="#646464"/></svg>
