<?xml version="1.0"?>
<svg xmlns="http://www.w3.org/2000/svg" xmlns:xlink="http://www.w3.org/1999/xlink" aria-hidden="true" width="1em" height="1em" viewBox="0 0 1024 1024" data-icon="simple-line-icons:grid" data-width="1em" data-height="1em" data-inline="false" class="iconify"><path d="M960 1024H640q-27 0-45.5-18.5T576 960V640q0-27 18.5-45.5T640 576h320q27 0 45.5 18.5T1024 640v320q0 27-18.5 45.5T960 1024zm0-384H640v320h320V640zm0-192H640q-27 0-45.5-18.5T576 384V64q0-27 18.5-45.5T640 0h320q27 0 45.5 18.5T1024 64v320q0 27-18.5 45.5T960 448zm0-384H640v320h320V64zm-576 960H64q-27 0-45.5-18.5T0 960V640q0-27 18.5-45.5T64 576h320q27 0 45.5 18.5T448 640v320q0 27-18.5 45.5T384 1024zm0-384H64v320h320V640zm0-192H64q-27 0-45.5-18.5T0 384V64q0-27 18.5-45.5T64 0h320q27 0 45.5 18.5T448 64v320q0 27-18.5 45.5T384 448zm0-384H64v320h320V64z" fill="#646464"/></svg>
