<?xml version="1.0"?>
<svg xmlns="http://www.w3.org/2000/svg" xmlns:xlink="http://www.w3.org/1999/xlink" aria-hidden="true" width="1em" height="1em" viewBox="0 0 736 1024" data-icon="simple-line-icons:hourglass" data-width="1em" data-height="1em" data-inline="false" class="iconify"><path d="M689 65h-64v215q0 78-44 138.5T446 525q64 32 103 70t58 84 19 105q0 94-1 175h64q13 0 22.5 9.5t9.5 23-9.5 22.5-22.5 9H47q-13 0-22.5-9T15 991.5t9.5-23T47 959h66q-1-86-1-175 0-88 42.5-149.5T290 525q-90-46-133.5-106T113 280V65H47q-13 0-22.5-9.5t-9.5-23T24.5 10 47 1h642q5 0 10 1.5t9 4.5 7 7 4.5 8.5T721 33q0 13-9.5 22.5T689 65zM176 784q0 89 1 175h384q1-92 1-175 0-36-8-63.5t-28.5-56T466 610t-98-50q-47 19-81 40t-55.5 41.5-34 44.5-17 47-4.5 51zM561 65H177v215q0 27 6.5 50t25 51.5 59 56.5T368 491q61-25 102-53t59-56.5 25-51.5 7-50V65z" fill="#646464"/></svg>
