<?xml version="1.0"?>
<svg xmlns="http://www.w3.org/2000/svg" xmlns:xlink="http://www.w3.org/1999/xlink" aria-hidden="true" width="1em" height="1em" viewBox="0 0 864 1024" data-icon="simple-line-icons:key" data-width="1em" data-height="1em" data-inline="false" class="iconify"><path d="M576 0q-34 0-66.5 7.5t-60.5 22-53 34-45 44.5-34 53.5-21.5 61T288 288q0 107 69 187-7 0-13.5 2.5T332 485L10 809q-10 9-10 22.5T10 854v1h1l157 160q9 9 22 9t22.5-9 9.5-22.5-9-22.5L77 832l83-83 136 138q9 9 22 9t23-9q6-6 8-14.5t0-16.5-8-14L205 703l172-173q5-5 7.5-11.5T387 506q81 71 189 71 119 0 203.5-84.5T864 288q0-122-88-207Q691 0 576 0zm0 512q-61 0-112.5-30T382 400.5 352 288q0-93 65.5-158.5t158-65.5T734 129.5 800 288t-66 158.5T576 512z" fill="#646464"/></svg>
