<?xml version="1.0"?>
<svg xmlns="http://www.w3.org/2000/svg" xmlns:xlink="http://www.w3.org/1999/xlink" aria-hidden="true" width="1em" height="1em" viewBox="0 0 1024 1024" data-icon="simple-line-icons:layers" data-width="1em" data-height="1em" data-inline="false" class="iconify"><path d="M22 302l475 259q7 3 15 3 4 0 8-1t7-2l481-259q17-9 16-29 0-9-4.5-16.5T1007 245L532 4q-15-7-29 0L23 245q-8 4-13 11.5T5 273q0 20 17 29zM517 68l406 207-411 221-406-221zm484 412l-95-48-68 37 80 41-411 221-406-221 85-43-68-37-101 50Q0 489-.5 508.5T16 537l475 259q8 4 16 4 4 0 7.5-1t7.5-3l480-259q17-9 17-28.5t-18-28.5zm0 224l-90-44-68 37 75 37-411 221-406-221 79-36-68-37-95 43Q0 713-.5 732.5T16 761l475 259q3 1 5.5 2t5 1.5 5.5.5q4 0 7.5-1t7.5-3l480-259q17-9 17-28.5t-18-28.5z" fill="#646464"/></svg>
