<?xml version="1.0"?>
<svg xmlns="http://www.w3.org/2000/svg" xmlns:xlink="http://www.w3.org/1999/xlink" aria-hidden="true" width="1em" height="1em" viewBox="0 0 1056 1024" data-icon="simple-line-icons:like" data-width="1em" data-height="1em" data-inline="false" class="iconify"><path d="M625 1024q-108 0-168.5-2t-93-8.5-41-11T295 985q-15-12-54.5-19.5T109 952q-16-1-25-12-2-3-8-13t-17-33.5T38.5 842 22 772t-7-85q0-146 49-224 10-15 28-15 84 0 184.5-102T450 69q2-3 6.5-14t5.5-14 5.5-11.5 8-11T485 11t12.5-6.5 16-3T535 0q18 0 37 8t35 21.5T633 60q19 31 22 89t-3.5 108-17.5 96q178-1 242-1 59 0 95.5 32t37.5 84q1 44-9 67 17 17 28.5 35.5T1041 612q1 47-46 96 1 2 4 9.5t4.5 12.5 2.5 12.5 1 14.5q-2 55-64 98 5 33-1 59-24 110-317 110zM126 887q164 13 208 46 16 12 28 16t72 7.5 191 3.5q41 0 74.5-2t77.5-7 71-18 32-33q4-21-19-45-5-12 0-24.5t16-17.5h1q5-2 12-5t20.5-11 22.5-19.5 10-22.5q0-4-.5-7.5t-1-6.5-2-6l-2.5-5-2.5-4-2.5-3.5-2-2.5-1.5-2-.5-1q-4-5-5-11t0-12 4.5-11.5 8.5-9.5q6-3 13-8.5t17.5-20.5 10.5-30q-1-25-38-47-6-4-10-9.5t-6-12.5q-1-4-.5-8.5t2-9 4.5-8.5q1-1 2-2.5t4-7.5 5-11.5 3.5-13.5 1.5-15q-1-18-9.5-30t-22-16.5T892 417t-16-1H642l-54 1q-4 0-8-1t-7.5-3-6.5-4.5-5-6.5q-9-13-3-30 16-46 25.5-101t9-105T578 93q-1-2-4-7t-4-7-4.5-5.5-7-5-9.5-3-14-1.5q-3 0-6 2t-9 9-11 19q-77 186-186 296.5T112 511q-8 18-14 36t-12.5 57-6.5 83q0 45 9 89.5t18.5 70T126 887z" fill="#646464"/></svg>
