<?xml version="1.0"?>
<svg xmlns="http://www.w3.org/2000/svg" xmlns:xlink="http://www.w3.org/1999/xlink" aria-hidden="true" width="1em" height="1em" viewBox="0 0 1024 1024" data-icon="simple-line-icons:link" data-width="1em" data-height="1em" data-inline="false" class="iconify"><path d="M295.5 732.5Q305 742 318 742q7 0 12.5-2.5T341 732l388-390q9-10 9-23t-9.5-22.5T706 287t-23 10L296 687q-10 10-10 23t9.5 22.5zM476 664q8 36-1 69t-36 60L310 918q-42 42-102 42t-102-42-42-102 42-101l126-131q42-42 102-42 17 0 38 6l50-50q-42-20-88-20-86 0-147 61L61 669Q0 730 0 816t61 147 147 61 147-61l129-125q46-46 57-107t-14-117zM963 61q-30-30-68-45.5T816 0q-86 1-147 61L540 186q-48 47-58.5 113.5T500 424l50-50q-12-36-2.5-75t37.5-68l129-125q10-10 22-18t25-13.5 27-8 28-2.5q60 0 102 42t42 102-42 101L789 439q-20 20-46.5 31T687 481q-23 0-28-1l-51 51q13 5 26.5 8t26 4.5T687 545q41 0 79-15.5t68-45.5l129-129q68-68 60-165-7-76-60-129z" fill="#646464"/></svg>
