<?xml version="1.0"?>
<svg xmlns="http://www.w3.org/2000/svg" xmlns:xlink="http://www.w3.org/1999/xlink" aria-hidden="true" width="1em" height="1em" viewBox="0 0 1024 896" data-icon="simple-line-icons:list" data-width="1em" data-height="1em" data-inline="false" class="iconify"><path d="M96 384H32q-13 0-22.5 9.5T0 416v64q0 13 9.5 22.5T32 512h64q13 0 22.5-9.5T128 480v-64q0-13-9.5-22.5T96 384zm896 32H320q-13 0-22.5 9.5T288 448t9.5 22.5T320 480h672q13 0 22.5-9.5t9.5-22.5-9.5-22.5T992 416zM96 640H32q-13 0-22.5 9.5T0 672v64q0 13 9.5 22.5T32 768h64q13 0 22.5-9.5T128 736v-64q0-13-9.5-22.5T96 640zm896 32H320q-13 0-22.5 9.5T288 704t9.5 22.5T320 736h672q13 0 22.5-9.5t9.5-22.5-9.5-22.5T992 672zM96 128H32q-13 0-22.5 9.5T0 160v64q0 13 9.5 22.5T32 256h64q13 0 22.5-9.5T128 224v-64q0-13-9.5-22.5T96 128zm224 96h672q13 0 22.5-9.5t9.5-22.5-9.5-22.5T992 160H320q-13 0-22.5 9.5T288 192t9.5 22.5T320 224z" fill="#646464"/></svg>
