<?xml version="1.0"?>
<svg xmlns="http://www.w3.org/2000/svg" xmlns:xlink="http://www.w3.org/1999/xlink" aria-hidden="true" width="1em" height="1em" viewBox="0 0 768 1024" data-icon="simple-line-icons:location-pin" data-width="1em" data-height="1em" data-inline="false" class="iconify"><path d="M388 0q-78 0-149.5 31.5t-123.5 84T31.5 240 0 390q0 44 12 92t28 89 46 91 53.5 84.5 63.5 84 62 75.5 62 72q12 14 18 20 2 3 7 7.5t18 11.5 25 7h3q28 0 50-26 320-368 320-608 0-167-102-277Q560 0 388 0zm12 955q-1 2-4 4l-4-4-17-19q-38-44-59-68.5T257 796t-60-79.5-51-79-44.5-84-26.5-81T64 390q0-87 44-162.5T226.5 108 388 64q79 0 141 27.5t99.5 74.5T685 270t19 120q0 216-304 565zm-15-762q-31 0-60.5 10t-53 27.5T230 272t-27.5 53-9.5 60q0 80 56.5 136t136 56T521 521t56-136q0-39-15-74.5t-41-61-61.5-41T385 193zm0 320q-53 0-91-38t-38-91 37.5-90.5T384 256t90.5 37.5T512 384q0 66-53 105-33 24-74 24z" fill="#646464"/></svg>
