<?xml version="1.0"?>
<svg xmlns="http://www.w3.org/2000/svg" xmlns:xlink="http://www.w3.org/1999/xlink" aria-hidden="true" width="1em" height="1em" viewBox="0 0 832 1056" data-icon="simple-line-icons:lock-open" data-width="1em" data-height="1em" data-inline="false" class="iconify"><path d="M704 401H247l-17-74q-21-81 15-150t118.5-91T513 105t88 122l14 54q3 13 14.5 19.5T654 304t19.5-14.5T677 265l-14-54Q634 103 544.5 49.5T347 24Q239 53 189.5 145T169 343l13 58h-54q-53 0-90.5 37.5T0 529v384q0 53 37.5 90.5T128 1041h576q53 0 90.5-37.5T832 913V529q0-53-37.5-90.5T704 401zm64 512q0 17-8.5 32T736 968.5t-32 8.5H128q-26 0-45-18.5T64 913V529q0-26 19-45t45-19h576q26 0 45 19t19 45v384zM416 593q-27 0-45.5 19T352 657q0 37 32 55v105q0 13 9.5 22.5T416 849t22.5-9.5T448 817V712q32-18 32-55 0-26-18.5-45T416 593z" fill="#646464"/></svg>
