<?xml version="1.0"?>
<svg xmlns="http://www.w3.org/2000/svg" xmlns:xlink="http://www.w3.org/1999/xlink" aria-hidden="true" width="1em" height="1em" viewBox="0 0 832 1024" data-icon="simple-line-icons:lock" data-width="1em" data-height="1em" data-inline="false" class="iconify"><path d="M704 384h-32V262q0-111-72.5-186.5T415 0q-74 0-133 35.5t-90.5 95T160 262v122h-32q-53 0-90.5 37.5T0 512v384q0 53 37.5 90.5T128 1024h576q53 0 90.5-37.5T832 896V512q0-53-37.5-90.5T704 384zM224 262q0-84 53-141t138-57 139 56.5T608 262v122H224V262zm544 634q0 17-8.5 32T736 951.5t-32 8.5H128q-26 0-45-19t-19-45V512q0-26 19-45t45-19h576q26 0 45 19t19 45v384zM416 576q-27 0-45.5 18.5T352 640q0 36 32 55v105q0 13 9.5 22.5T416 832t22.5-9.5T448 800V695q32-19 32-55 0-27-18.5-45.5T416 576z" fill="#646464"/></svg>
