<?xml version="1.0"?>
<svg xmlns="http://www.w3.org/2000/svg" xmlns:xlink="http://www.w3.org/1999/xlink" aria-hidden="true" width="1em" height="1em" viewBox="0 0 1024 1024" data-icon="simple-line-icons:login" data-width="1em" data-height="1em" data-inline="false" class="iconify"><path d="M533 661q-7 7-9 15t0 16.5 9 14.5q4 4 10 6.5t12 2.5q13 0 23-9l189-194-189-194q-10-10-23-10t-22 10q-4 3-6 6.5t-3 7.5-1 8 1 8 3 8 6 7l115 116H32q-13 0-22.5 9T0 511.5t9.5 23T32 544h618zM960 0H384q-17 0-32 8.5T328.5 32 320 64v288h65V103q0-10 5-19t14-14.5 19-5.5h497q16 0 27.5 11.5T959 103l1 818q0 16-11.5 27.5T921 960H423q-16 0-27-11.5T385 921V671h-65v289q0 27 19 45.5t45 18.5h576q27 0 45.5-18.5T1024 960V64q0-39-35-57-14-7-29-7z" fill="#646464"/></svg>
