<?xml version="1.0"?>
<svg xmlns="http://www.w3.org/2000/svg" xmlns:xlink="http://www.w3.org/1999/xlink" aria-hidden="true" width="1em" height="1em" viewBox="0 0 1024 1024" data-icon="simple-line-icons:logout" data-width="1em" data-height="1em" data-inline="false" class="iconify"><path d="M117 544h554q14 0 23-9.5t9-23-9-22.5-23-9H119l116-116q9-9 9-22.5t-9-22.5q-7-6-15-8.5t-16.5 0T189 319L0 513l189 194q5 4 11 6.5t12 2.5q13 0 23-9 3-3 5-7t3-8 1-8-1-8-3-8-5-7zM960 0H416q-27 0-45.5 18.5T352 64v288h64V103q0-10 5-19t14-14.5 20-5.5h465q16 0 27 11.5t11 27.5l1 818q0 16-11 27.5T921 960H455q-16 0-27.5-11.5T416 921V671h-64v289q0 27 18.5 45.5T416 1024h544q6 0 12.5-1.5t12-3.5 11-5.5 9.5-8 7.5-9.5 6-11 4-12 1.5-13V64q0-39-35-57-14-7-29-7z" fill="#646464"/></svg>
