<?xml version="1.0"?>
<svg xmlns="http://www.w3.org/2000/svg" xmlns:xlink="http://www.w3.org/1999/xlink" aria-hidden="true" width="1em" height="1em" viewBox="0 0 1024 896" data-icon="simple-line-icons:loop" data-width="1em" data-height="1em" data-inline="false" class="iconify"><path d="M960 38H64q-27 0-45.5 18.5T0 102v576q0 26 18.5 45T64 742h160q9 0 17-7t11.5-14.5 3.5-11-3.5-10.5-11-14.5T224 677H103q-16 0-27.5-11T64 639V142q0-8 3-15t8.5-12.5T88 106t15-3l818-1q11 0 20 5.5t14 14 5 19.5v498q0 16-11.5 27T921 677H518l76-69q7-7 8.5-16t-5.5-16l-5-8q-5-4-11-5.5t-12.5 0T558 568L428 687l-9 8q-3 3-5 7.5t-2 9 2 8.5 5 8l9 8 128 115q7 7 17 7t17-7l5-8q7-7 5.5-16t-8.5-16l-77-69h445q17 0 32-8.5t23.5-23.5 8.5-32V102q0-39-35-57-14-7-29-7z" fill="#646464"/></svg>
