<?xml version="1.0"?>
<svg xmlns="http://www.w3.org/2000/svg" xmlns:xlink="http://www.w3.org/1999/xlink" aria-hidden="true" width="1em" height="1em" viewBox="0 0 1056 1024" data-icon="simple-line-icons:magic-wand" data-width="1em" data-height="1em" data-inline="false" class="iconify"><path d="M1037 429L934 276l51-179q5-18-8.5-31.5T945 57l-178 52L612 6q-15-11-32-2.5T562 31l-5 186-147 115q-6 5-9.5 13t-1.5 17q0 3 1.5 6.5t3 6 4 5 5.5 4.5 6 3l138 49q-3 2-3 3L23 969q-6 6-8 14.5t0 16.5 8 15q10 9 23 9t23-9l530-531q3-3 5-7l54 148q7 17 25 20 3 1 5 1 16 0 26-13l113-147 184-7q9 0 16.5-4.5T1039 462q8-17-2-33zm-227-6q-15 0-24 12l-88 113-49-134q-5-14-19-19l-134-49 112-88q4-3 6.5-6.5t4-8 1.5-9.5l5-143 118 80q13 8 27 4l137-40-39 137q-1 3-1 6v5.5l.5 5.5 2 5.5 2.5 4.5 81 118z" fill="#646464"/></svg>
