<?xml version="1.0"?>
<svg xmlns="http://www.w3.org/2000/svg" xmlns:xlink="http://www.w3.org/1999/xlink" aria-hidden="true" width="1em" height="1em" viewBox="0 0 896 1056" data-icon="simple-line-icons:magnet" data-width="1em" data-height="1em" data-inline="false" class="iconify"><path d="M896 76V47q0-13-9-22.5T864 15H640q-14 0-23 9.5T608 47v528q0 76-40.5 125.5T457 750q-72 0-120.5-51T288 575V47q0-13-9-22.5T256 15H32q-14 0-23 9.5T0 47v543q0 61 16 119.5t44.5 108 70 91T221 979t107 45.5 120 16.5q91 0 174.5-36T766 909t95-143.5T896 590V76zm-64 3v129H672V79h160zm-608 0v129H64V79h160zm224 898q-105 0-193.5-52T115 784 64 590V272h160v303q0 100 67.5 169.5T457 814q64 0 113.5-32t75.5-86 26-121V272h160v318q0 79-30 150.5T720.5 864t-123 82.5T448 977z" fill="#646464"/></svg>
