<?xml version="1.0"?>
<svg xmlns="http://www.w3.org/2000/svg" xmlns:xlink="http://www.w3.org/1999/xlink" aria-hidden="true" width="1em" height="1em" viewBox="0 0 1040 1024" data-icon="simple-line-icons:magnifier-remove" data-width="1em" data-height="1em" data-inline="false" class="iconify"><path d="M1031 969L748 684q97-116 97-267 0-85-33-162t-88.5-133T591 33 429 0Q316 0 220 55.5T68.5 207 13 416.5 68.5 626 220 777.5 429 833q156 0 274-103l282 284q4 4 8.5 6.5t9.5 3 10 0 9.5-3 8.5-6.5q9-9 9-22.5t-9-22.5zM429 768q-96 0-177-47.5T124 592 77 416t47-176 128-128.5T428.5 64 605 111.5 733.5 240 781 416q0 141-98 243-97 101-236 109h-18zm160-384H269q-14 0-23 9.5t-9 22.5 9 22.5 23 9.5h320q13 0 22.5-9.5T621 416t-9.5-22.5T589 384z" fill="#646464"/></svg>
