<?xml version="1.0"?>
<svg xmlns="http://www.w3.org/2000/svg" xmlns:xlink="http://www.w3.org/1999/xlink" aria-hidden="true" width="1em" height="1em" viewBox="0 0 1040 1024" data-icon="simple-line-icons:magnifier" data-width="1em" data-height="1em" data-inline="false" class="iconify"><path d="M1031 969L720 656q93-111 93-256 0-109-53.5-201t-146-145.5T412.5 0 212 53.5 66.5 199 13 400t53.5 201T212 746.5 413 800q149 0 262-98l310 312q10 10 23 10t22.5-9.5 9.5-23-9-22.5zM413 737q-92 0-169.5-45.5T121 568.5 76 400t45-168.5 122.5-123 169-45.5 169 45.5 122.5 123T749 400q0 39-9 77t-25.5 71-39.5 62.5-52 52.5-62 39.5-71 25.5-77 9z" fill="#646464"/></svg>
