<?xml version="1.0"?>
<svg xmlns="http://www.w3.org/2000/svg" xmlns:xlink="http://www.w3.org/1999/xlink" aria-hidden="true" width="1em" height="1em" viewBox="0 0 1024 1024" data-icon="simple-line-icons:map" data-width="1em" data-height="1em" data-inline="false" class="iconify"><path d="M993 135L672 2 353 128 31 2q-4-1-8-1t-7.5 1T9 5t-5 5-3 7-1 8v830q0 14 9 25.5T31 896l322 127 319-129 321 126q4 1 8 1 10 0 16.5-7t6.5-18V176q0-9-4-17.5t-11-15-16-8.5zm-609 46L640 81v761L384 944V181zM64 87l256 94v762L64 839V87zm896 851l-256-96V82l256 110v746z" fill="#646464"/></svg>
