<?xml version="1.0"?>
<svg xmlns="http://www.w3.org/2000/svg" xmlns:xlink="http://www.w3.org/1999/xlink" aria-hidden="true" width="1em" height="1em" viewBox="0 0 1024 896" data-icon="simple-line-icons:menu" data-width="1em" data-height="1em" data-inline="false" class="iconify"><path d="M27 130q-4-4-7-9t-4-10.5T15 98q0-19 12-31t31-12h913q19 0 31 12t12 31-12 31.5-31 12.5H58q-19 0-31-12zm975 285q12 12 12 31t-12 31-31 12H58q-19 0-31-12-2-2-4-5t-3.5-6-2.5-6-1.5-6.5-.5-7.5q0-19 12-31t31-12h913q19 0 31 12zm0 347q12 12 12 31t-12 31.5-31 12.5H58q-19 0-31-12-2-2-3.5-4.5l-3-5-2.5-5-2-5.5-1-5.5V793q0-19 12-31t31-12h913q18 0 31 12z" fill="#646464"/></svg>
