<?xml version="1.0"?>
<svg xmlns="http://www.w3.org/2000/svg" xmlns:xlink="http://www.w3.org/1999/xlink" aria-hidden="true" width="1em" height="1em" viewBox="0 0 640 1024" data-icon="simple-line-icons:microphone" data-width="1em" data-height="1em" data-inline="false" class="iconify"><path d="M319 704h7q67 0 110.5-44T480 548V167q0-70-44.5-118.5T326 0h-7q-32 0-61.5 13t-51 35.5-34 53.5-12.5 65v381q0 67 45.5 111.5T319 704zm-95-537q0-43 28-73t67-30h7q39 0 64.5 29.5T416 167v381q0 41-24.5 66.5T326 640h-7q-28 0-49.5-11.5T236 596t-12-48V167zm384 185q-13 0-22.5 9.5T576 384v133q0 143-51.5 213T368 800h-95q-38 0-69-9t-52.5-24-37.5-37.5T88.5 683t-15-53.5-7.5-56-2-56.5V384q0-13-9.5-22.5T32 352t-22.5 9.5T0 384v133q0 167 69.5 257T273 864h15v96H128q-13 0-22.5 9.5T96 992t9.5 22.5 22.5 9.5h384q13 0 22.5-9.5T544 992t-9.5-22.5T512 960H352v-96h16q41 0 76.5-8t72.5-31.5 63.5-61 43-100.5T640 517V384q0-7-2.5-12.5t-7-10-10-7T608 352z" fill="#646464"/></svg>
