<?xml version="1.0"?>
<svg xmlns="http://www.w3.org/2000/svg" xmlns:xlink="http://www.w3.org/1999/xlink" aria-hidden="true" width="1em" height="1em" viewBox="0 0 1024 1024" data-icon="simple-line-icons:minus" data-width="1em" data-height="1em" data-inline="false" class="iconify"><path d="M512 0q212 0 362 150t150 362-150 362-362 150-362-150T0 512t150-362T512 0zm0 961q185 0 316.5-132T960 512 828.5 195.5 512 64 195.5 195.5 64 512t131.5 317T512 961zm-35-417H288q-14 0-23-9t-9-23 9-23 23-9h448q14 0 23 9t9 23-9 23-23 9H477z" fill="#646464"/></svg>
