<?xml version="1.0"?>
<svg xmlns="http://www.w3.org/2000/svg" xmlns:xlink="http://www.w3.org/1999/xlink" aria-hidden="true" width="1em" height="1em" viewBox="0 0 576 1024" data-icon="simple-line-icons:mouse" data-width="1em" data-height="1em" data-inline="false" class="iconify"><path d="M290 0Q171 0 85.5 84T0 286v452q0 118 85.5 202t204.5 84q118 0 202-84t84-202V286q0-118-84-202T290 0zm222 738q0 92-65 157t-157 65q-93 0-159.5-65.5T64 738V286q0-91 66.5-156.5T290 64q92 0 157 65t65 157v452zM288.5 192q-13.5 0-23 9.5T256 224v160q0 13 9.5 22.5t23 9.5 22.5-9.5 9-22.5V224q0-13-9-22.5t-22.5-9.5z" fill="#646464"/></svg>
