<?xml version="1.0"?>
<svg xmlns="http://www.w3.org/2000/svg" xmlns:xlink="http://www.w3.org/1999/xlink" aria-hidden="true" width="1em" height="1em" viewBox="0 0 992 1024" data-icon="simple-line-icons:music-tone-alt" data-width="1em" data-height="1em" data-inline="false" class="iconify"><path d="M976 705V37q0-6-1-11-2-11-10.5-18.5T944 0q-4 0-8.5 1T928 4L330 160q-17 4-22 21-4 7-4 15v572q-23-15-52-23.5t-60-8.5q-73 0-125 42T15 880t52 102 125 42q48 0 88.5-19t64.5-52.5 24-72.5q0-5-1-12V216L912 75v533q-49-32-112-32-73 0-125 42t-52 102q0 29 14 56t38 46 56.5 30.5T800 864q73 0 125-42t52-102q-1-8-1-15zM193 960q-24 0-45.5-7t-36-18.5-23-26T80 880q0-19 14-37.5t40.5-30.5 58.5-12q28 0 52.5 10t39 25 19.5 32v1q0 2 .5 4.5t.5 4.5l1 1v2q0 14-8.5 28.5t-23 26-36 18.5-45.5 7zm607-160q-19 0-37-4.5T731.5 783 708 764.5t-15-22-5-22.5q0-19 14-37.5t40-30.5 58-12q47 0 79.5 25t32.5 55-32.5 55-79.5 25z" fill="#646464"/></svg>
