<?xml version="1.0"?>
<svg xmlns="http://www.w3.org/2000/svg" xmlns:xlink="http://www.w3.org/1999/xlink" aria-hidden="true" width="1em" height="1em" viewBox="0 0 704 1024" data-icon="simple-line-icons:music-tone" data-width="1em" data-height="1em" data-inline="false" class="iconify"><path d="M693 323L380 10q-16-16-37-6-22 8-22 30v709q-54-41-127-41-31 0-60.5 8.5t-53 23T39 768t-27.5 44.5T2 863q0 66 56.5 113t136 47T330 976t56-113v-8l-1-4V107l262 262q5 4 11 6.5t12 2.5 12-2.5 11-6.5q17-18 5-39-3-4-5-7zM193 959q-36 0-66-15t-46-36.5T65 863q0-36 37-66t91-30q22 0 42 5.5t35 14.5 26.5 21 18 25.5T322 860v6q-2 35-39 64t-90 29z" fill="#646464"/></svg>
