<?xml version="1.0"?>
<svg xmlns="http://www.w3.org/2000/svg" xmlns:xlink="http://www.w3.org/1999/xlink" aria-hidden="true" width="1em" height="1em" viewBox="0 0 1056 896" data-icon="simple-line-icons:mustache" data-width="1em" data-height="1em" data-inline="false" class="iconify"><path d="M809 673q-36 0-67-7t-56.5-21.5T646 620t-34-26q-13-11-37-32-6-5-9-8t-8.5-7.5-9-7.5-7.5-6-7-4.5-4-2.5h-8l-1 1q-5 2-37 30-7 5-11 8.5t-10 9-12 10-12 9.5l-3 2q-23 18-37 27.5t-39 23-54.5 19.5-63.5 6q-53 0-102-22.5T60 589q-61-76-39-186 4-18 20.5-24t30.5 6q24 17 59 17 28 0 57-13 15-6 28.5-19.5t30-35.5 23.5-29q17-19 27.5-29.5T326 251t38-21 43-7q33 0 62.5 12.5T526 272q26-24 55.5-36t61.5-12q24 0 44 6.5t38.5 20.5 29 24.5T783 306q7 7 23.5 28.5t30.5 35 29 19.5q29 13 57 13 40 0 62-18 15-10 31-4 16 7 20 24 5 35 4.5 61.5t-8.5 51-17 40.5-21 31q-32 39-81.5 62T809 673zM526.5 462h9.5l1.5.5 1.5.5q11 1 24 9t23 16 31 26q21 19 35 30 18 15 29 23t31.5 19.5 44.5 17 52 5.5q26 0 52-7.5t47.5-21.5 37-33 23.5-41 8-48q-6 2-12 3.5t-12.5 2.5-14 1.5-15.5.5q-42 0-83-18-13-6-25.5-15t-23-20.5T772 391t-19-22.5-17-19.5q-30-33-49-47t-43-14q-51 0-94 50-2 3-4 4.5t-4.5 3-5 2.5-5 1.5-5.5.5q-15 0-24-12-19-21-41.5-36T408 287q-24 0-43 14t-48 47q-6 7-20.5 25T272 402.5t-26.5 25T214 448q-42 18-83 18-27 0-52-8 0 52 30 90 22 28 58 44t75 16q18 0 34.5-2t30.5-7 25-10 24-13.5 20.5-14T397 546l3-3q7-6 16-13t13.5-11 13.5-11q13-12 20-17.5t16.5-12.5 16.5-10 14-5h4.5l5.5-.5 6.5-.5z" fill="#646464"/></svg>
