<?xml version="1.0"?>
<svg xmlns="http://www.w3.org/2000/svg" xmlns:xlink="http://www.w3.org/1999/xlink" aria-hidden="true" width="1em" height="1em" viewBox="0 0 272 1024" data-icon="simple-line-icons:options-vertical" data-width="1em" data-height="1em" data-inline="false" class="iconify"><path d="M5 896v-27q0-1 1-2l1-4q6-43 38-73.5t74-32.5q47-4 83 20.5t49 68.5q1 1 1.5 3t1 3.5.5 3 .5 3.5 1 3.5 1 3.5.5 3v27l-.5 2.5-1.5 3.5q-6 39-32.5 67.5T157 1006q-3 1-8 2-3 1-4 1h-29q-3-1-4-2-39-6-66.5-32T9 911q-1-3-2.5-8T5 896zm252-768v27l-.5 2.5-1.5 3.5q-6 43-38.5 73.5T142 267q-31 2-58-8.5T38 227t-28-50q0-3-5-22v-27q0-1 1-3l1-3Q21 45 97 20q4-1 11.5-3t8.5-2h28l1 1q3 1 4 1 39 6 67 32t37 65q1 4 3 13v1zm0 370v28l-1 2.5-1 3.5q-7 43-39.5 73.5T141 638q-48 2-84.5-24T9 544q-1-6-4-18v-28l1-2.5 1-3.5q6-43 39-73.5t75-32.5q48-2 84.5 24t47.5 70q1 6 4 18z" fill="#646464"/></svg>
