<?xml version="1.0"?>
<svg xmlns="http://www.w3.org/2000/svg" xmlns:xlink="http://www.w3.org/1999/xlink" aria-hidden="true" width="1em" height="1em" viewBox="0 0 1008 896" data-icon="simple-line-icons:options" data-width="1em" data-height="1em" data-inline="false" class="iconify"><path d="M883 574h-27q-1 0-2-1-3-1-4-1-21-3-40-13t-33-25-23-34-10-40q-4-47 20.5-83t68.5-49q3-1 7-2t8.5-2 7.5-2h29l4 2q39 6 67.5 32.5T993 422l3 12v29q-1 3-2 4-6 39-32 66.5T898 570l-9 3q-4 1-6 1zM115 322h27q1 0 2 1l4 1q29 4 52.5 20t38 40.5T254 437q3 46-21.5 82.5T164 569q-3 0-22 5h-27q-1 0-3-1t-3-1Q32 558 7 482q-1-3-2-6.5T3.5 468 2 462v-28l1-1q1-3 1-4 4-26 17-47.5t33.5-36T101 325q4-1 14-3zm370 0h28l2.5 1 3.5 1q43 7 73.5 39.5T625 438q2 48-24 84.5T531 570q-6 1-18 4h-28q-1 0-2-1l-4-1q-43-6-73.5-39T373 458q-1-19 3-36.5t12-33 19.5-28 26.5-21 33-13.5q6-1 18-4z" fill="#646464"/></svg>
