<?xml version="1.0"?>
<svg xmlns="http://www.w3.org/2000/svg" xmlns:xlink="http://www.w3.org/1999/xlink" aria-hidden="true" width="1em" height="1em" viewBox="0 0 1024 1024" data-icon="simple-line-icons:paper-plane" data-width="1em" data-height="1em" data-inline="false" class="iconify"><path d="M1004 0q-9 0-22 5L27 410q-17 8-23.5 18.5T2 451t20 22l270 168q16 10 34 26t34 34 25 34l162 265q7 11 15 16.5t16 5.5q20 0 31-27l409-954q15-36-9-41h-5zM326 584L107 448l734-312-473 481q-23-21-42-33zm247 331L442 702q-3-6-8-13t-10-13.5-11-13.5l474-482z" fill="#646464"/></svg>
