<?xml version="1.0"?>
<svg xmlns="http://www.w3.org/2000/svg" xmlns:xlink="http://www.w3.org/1999/xlink" aria-hidden="true" width="1em" height="1em" viewBox="0 0 896 1024" data-icon="simple-line-icons:paypal" data-width="1em" data-height="1em" data-inline="false" class="iconify"><path d="M255 855H39q-6 0-12-2.5T16 845q-8-11-6-25L148 68q6-31 29.5-49.5T233 0h332q100 0 161.5 58.5T788 212q0 33-8 71.5t-23 80-40 80-57 69-77 48.5-96 18H342l-58 254q-2 6-6 11.5t-10 8-13 2.5zM75 796h156l59-253q2-10 10-16.5t18-6.5h169q31 0 59-9t50-24.5 41.5-36.5 33.5-45 25.5-49.5T715 304t10.5-49 3.5-43q0-35-11.5-63.5t-33-48-52-30.5T565 59H233q-23 0-27 21zm282 228H141q-13 0-22-10.5t-7-23.5l28-158q2-12 12-19t22-5q8 1 14 6.5t9 12.5 1 15l-21 123h156l56-256q2-7 6-12t10-8 13-3h169q35 0 66.5-12t55-31.5 44-45.5 34-54.5 23-58 14-56.5 4.5-50q0-102-84-139-12-5-16.5-16.5t.5-22.5 16.5-15.5 22.5.5q39 17 66 44.5t40.5 65.5 13.5 83q0 40-10.5 87T842 562t-57.5 90.5-85 66.5T587 745H442l-56 256q-2 10-10 16.5t-19 6.5zm39-611h-58q-14 0-23-11-2-2-3.5-5t-2.5-6-1-6.5V378l39-215q1-6 4-10.5t6.5-7.5 8.5-5 10-2h94q55 0 82 33 30 35 19 99-7 50-27.5 81.5T487 398t-91 15zm-23-59h23q62 0 86-21.5t31-72.5q6-37-6-51-4-4-10.5-7t-12.5-4-14-1h-69z" fill="#646464"/></svg>
