<?xml version="1.0"?>
<svg xmlns="http://www.w3.org/2000/svg" xmlns:xlink="http://www.w3.org/1999/xlink" aria-hidden="true" width="1em" height="1em" viewBox="0 0 1040 1056" data-icon="simple-line-icons:pencil" data-width="1em" data-height="1em" data-inline="false" class="iconify"><path d="M964 66q-26-25-54.5-38T850 15q-69 0-124 55-18 17-633 633-6 6-9 14-4 17-84 281-5 19 9 33 1 2 3 3t3.5 2 3.5 2 4 1.5l4 1 4 .5q6 0 10-2 211-69 276-88 4-1 7.5-3t6.5-5q114-113 363-359.5T967 312q59-61 58-126-2-64-61-120zM716 172q50 12 94 56 18 18 30.5 41t16 34.5T862 325Q727 459 333 849q-20-46-55-82-42-42-94-63l1-1 1-1 1-1v-1h1l1-1 1-1v-1h1l1-1 1-1v-1h1l1-1 1-1v-1h1l1-1 1-1 1-1v-1h1l1-1 1-1v-1h1l1-1 1-1 1-1v-1h1l1-1 1-1 1-1v-1l1-1h1l1-1 1-1 1-1v-1l1-1h1l1-1 1-1 1-1v-1l1-1h1l1-1 1-1 1-1 1-1v-1l1-1h1l1-1 1-1 1-1 1-1 1-1v-1h1l1-1 1-1 1-1 1-1 1-1 1-1v-1l1-1h1l1-1 1-1 1-1 1-1 1-1 1-1 1-1v-1l1-1h1l1-1 1-1 1-1 1-1 1-1 1-1 1-1 1-1 1-1v-1l1-1 1-1h1l1-1 1-1 1-1 1-1 1-1 1-1 1-1 1-1 1-1 1-1 1-1v-1l1-1 1-1 1-1h1l1-1 1-1 1-1 1-1 1-1 1-1 1-1 1-1 1-1 1-1 1-1 1-1 1-1 1-1 1-1 1-1 1-1 1-1 1-1v-1l1-1 1-1 1-1 1-1 1-1 1-1 1-1 1-1 1-1h1l1-1 1-1 1-1 1-1 1-1 1-1 1-1 1-1 1-1 1-1 1-1 1-1 1-1 1-1 1-1 1-1 1-1 1-1 1-1 1-1 1-1 1-1 1-1 1-1 2-2 1-1 1-1 1-1 1-1 1-1 1-1 1-1 1-1 1-1 1-1 1-1 1-1 1-2 1-1 1-1 1-1 1-1 2-1 1-1 1-1 1-1 1-1 1-1 1-1 1-1 1-1 1-1 1-1 1-2 1-1 1-1 2-1 1-1 1-1 1-1 1-1 1-1 1-1 1-1 1-1 1-2 1-1 1-1 2-1 1-1 1-1 1-1 1-1 1-1 1-1 1-2 1-1 1-1 2-1 1-1 1-1 1-1 1-1 1-1 1-1 1-2 1-1 2-1 1-1 1-1 1-1 1-1 1-1 1-2 1-1 1-1 2-1 1-1 1-1 1-1 1-1 1-2 1-1 1-1 2-1 1-1 1-1 1-1 1-1 1-2 1-1 2-1 1-1 1-1 1-1 1-1 1-2 1-1 2-1 1-1 1-1 1-1 1-1 1-2 1-1 2-1 1-1 1-1 1-1 1-1 1-2 1-1 2-1 1-1 1-1 1-1 1-1 1-2 1-1 2-1 1-1 1-1 1-1 1-2 1-1 2-1 1-1 1-1 1-1 1-2 1-1 2-1 1-1 1-1 1-1 1-2 1-1 2-1 1-1 1-1 1-1 1-2 1-1 2-1 1-1 1-1 1-1 1-2 1-1 2-1 1-1 1-1 1-1 1-2 1-1 2-1 1-1 1-1 1-1 1-2 2-1 1-1 1-1 1-1 1-2 1-1 2-1 1-1 1-1 1-1 1-2 2-1 1-1 1-1 1-1 1-2 1-1 2-1 1-1 1-1 1-1 1-2 2-1 1-1 1-1 1-1 1-2 1-1 2-1 1-1 1-1 1-1 1-2 2-1 1-1 1-1 1-1 1-2 1-1 2-1 1-1 1-1 1-1 1-2 2-1 1-1 1-1 1-1 1-2 1-1 2-1 1-1 1-1 1-1 1-2 2-1 1-1 1-1 1-1 1-2 1-1 2-1 1-1 1-1 1-1 1-2 2-1 1-1 1-1 1-1 1-2 1-1 2-1 1-1 1-1 1-1 1-2 1-1 2-1 1-1 1-1 1-1 1-2 2-1 1-1 1-1 1-1 1-2 1-1 2-1 1-1 1-1 1-1 1-2 1-1 2-1 1-1 1-1 1-1 1-1 1-2 1-1 2-1 1-1 1-1 1-1 1-2 1-1 2-1 1-1 1-1 1-1 1-1 1-2 1-1 2-1 1-1 1-1 1-1 1-1 1-2 1-1 2-1 1-1 1-1 1-1 1-1 1-2 1-1 1-1 2-1 1-1 1-1 1-1 1-1 1-2 1-1 1-1 2-1 1-1 1-1 1-1 1-1 1-1 1-2 1-1 1-1 1-1 2-1 1-1 1-1 1-1 1-1 1-1 1-1 1-1 1-2 1-1 1-1 1-1 2-1 1-1 1-1 1-1 1-1 1-1 1-1 1-1 1-1 1-1 1-1 1-1 1-1 1-1 1-1 1-1 1-2 1-1 1-1 1-1 1-1zM140 758q49 13 92 56 34 34 48 80-20 7-95.5 32T76 962q9-30 33-104.5t31-99.5zm780-492q0 1-1 2l-2 2-3 3q-20-52-58-91-40-40-89-61l3-3 2-2q5-5 12.5-11t27-15 38.5-9q18 0 35.5 8t33.5 24q20 19 30.5 38t10.5 37q0 37-40 78z" fill="#646464"/></svg>
