<?xml version="1.0"?>
<svg xmlns="http://www.w3.org/2000/svg" xmlns:xlink="http://www.w3.org/1999/xlink" aria-hidden="true" width="1em" height="1em" viewBox="0 0 1008 1008" data-icon="simple-line-icons:phone" data-width="1em" data-height="1em" data-inline="false" class="iconify"><path d="M246 37q57 78 134 200 19 32-6 79-8 16-48 89 8 12 18.5 25t22.5 27.5 26 29.5 29.5 31.5T455 552q88 88 146 130 65-38 89-50 25-14 48-14 18 0 31 8 89 54 202 134 20 16 24 42 3 27-17 58-8 12-31 40-21 26-63.5 66t-69.5 40h-2q-103-4-229-81T307 699Q8 399 0 194q0-27 40-71 39-42 65-63 26-20 42-31 21-15 49-15 32 0 50 23zm-64 41q-39 28-76 65-36 36-42 53 8 180 287.5 459T812 944q15-6 51-43t65-77q3-4 4-7.5t0-6.5q-115-80-194-130-8 0-20 6-4 2-32 18t-55 30l-33 20-33-22q-63-43-155-137-90-91-135-155l-24-31 20-35q37-67 48-87 6-12 6-20-34-54-66-102.5T198 74h-2q-8 0-14 4z" fill="#646464"/></svg>
