<?xml version="1.0"?>
<svg xmlns="http://www.w3.org/2000/svg" xmlns:xlink="http://www.w3.org/1999/xlink" aria-hidden="true" width="1em" height="1em" viewBox="0 0 1024 896" data-icon="simple-line-icons:picture" data-width="1em" data-height="1em" data-inline="false" class="iconify"><path d="M960 16H64q-26 0-45 19T0 80v736q0 26 19 45t45 19h896q26 0 45-19t19-45V80q0-17-8.5-32T992 24.5 960 16zm0 800H64V628l257-249 265 264q8 10 20.5 9.5T630 644l117-106 210 217q1 0 3 2v59zm0-150L772 473q-9-8-20.5-9t-21.5 7L609 576 345 314q-9-11-23-12t-24 9L64 538V80h896v586zM736 336q17 0 32-8.5t23.5-23T800 272q0-26-19-45t-45-19-45 19-19 45.5 19 45 45 18.5z" fill="#646464"/></svg>
