<?xml version="1.0"?>
<svg xmlns="http://www.w3.org/2000/svg" xmlns:xlink="http://www.w3.org/1999/xlink" aria-hidden="true" width="1em" height="1em" viewBox="0 0 1024 1024" data-icon="simple-line-icons:pie-chart" data-width="1em" data-height="1em" data-inline="false" class="iconify"><path d="M576 93q-14 0-23 9.5t-9 23 9 22.5 23 9q83 0 155 30t122 81.5 78.5 124T960 549t-32.5 160T840 840t-131 87.5T549 960q-170 0-281-110T157 570q0-13-9-22.5t-22.5-9.5-23 9.5T93 570q0 129 59 233t163.5 162.5T549 1024q49 0 96-9.5t89-27.5 80.5-44 70.5-58 58-70.5 44-80.5 27.5-89 9.5-96q0-129-57-233T807 152.5 576 93zm-96 355V32q0-13-9-22.5T448 0q-92 0-175 35.5t-142.5 95-95 142.5T0 448q0 14 9.5 23t22.5 9h416q24 0 31-22 1-5 1-10zm-64-32H65q12-141 111-240T416 65v351z" fill="#646464"/></svg>
