<?xml version="1.0"?>
<svg xmlns="http://www.w3.org/2000/svg" xmlns:xlink="http://www.w3.org/1999/xlink" aria-hidden="true" width="1em" height="1em" viewBox="0 0 1024 1024" data-icon="simple-line-icons:pin" data-width="1em" data-height="1em" data-inline="false" class="iconify"><path d="M1015 380L647 10q-13-13-31-9-5 1-9.5 4.5t-8 7.5-5.5 10q-33 106-7 194-2 1-3 2l-2 2-171 171q-85-39-174-39-56 0-109 16-17 6-22 23-2 8 .5 16t8.5 14l219 221L26 954l-26 70 64-25 314-311 221 223q10 10 23 10 4 0 8-1 5-2 9.5-5t8-7.5 5.5-9.5q44-142-21-283l175-175 .5-1 1.5-1q20 6 40.5 9t41.5 3q27 0 55-4.5t56-12.5q17-6 21-23 2-8 0-16t-8-14zM603 824L200 419q52-6 105 5t102 38 89 67q97 98 108 230 3 34-1 65zm-3-267q-6-10-13-19.5T573 519t-15-18-17-17q-16-17-34.5-32T468 424l144-144q22 39 57 74 36 35 76 58zm115-249q-92-91-73-212l287 288q-122 16-214-76z" fill="#646464"/></svg>
