<?xml version="1.0"?>
<svg xmlns="http://www.w3.org/2000/svg" xmlns:xlink="http://www.w3.org/1999/xlink" aria-hidden="true" width="1em" height="1em" viewBox="0 0 1024 1024" data-icon="simple-line-icons:playlist" data-width="1em" data-height="1em" data-inline="false" class="iconify"><path d="M34 64h448q13 0 22.5-9.5T514 32t-9.5-22.5T482 0H34Q21 0 11.5 9.5T2 32q0 23 22 30 5 2 10 2zm0 192h448q13 0 22.5-9.5T514 224t-9.5-22.5T482 192H34q-13 0-22.5 9.5T2 224q0 23 22 30 5 2 10 2zm480 160q0-13-9.5-22.5T482 384H34q-13 0-22.5 9.5T2 416t9.5 22.5T34 448h448q13 0 22.5-9.5T514 416zm499-91L700 12q-7-8-17.5-9.5T663 6q-9 3-15 11t-6 19v708q-55-40-128-40-79 0-135.5 47T322 864t56.5 113 136 47T650 977t56-113V108l262 262q6 6 14 8t16.5 0 14.5-8q9-10 9-23t-9-22zM642 867q-2 35-38.5 64T514 960q-55 0-92-30t-37-66 37-66 92-30q35 0 64.5 14t46 35 17.5 44v6z" fill="#646464"/></svg>
