<?xml version="1.0"?>
<svg xmlns="http://www.w3.org/2000/svg" xmlns:xlink="http://www.w3.org/1999/xlink" aria-hidden="true" width="1em" height="1em" viewBox="0 0 912 1024" data-icon="simple-line-icons:power" data-width="1em" data-height="1em" data-inline="false" class="iconify"><path d="M654 164q-9-3-17-2.5t-15 5.5-11 13-3 16 6 15 12 11q122 57 182 176.5T841 650q-21 103-90 179.5T584.5 939 384 951q-152-31-241-166-42-65-56.5-140t.5-151q9-44 28-85t46.5-76 63-63 76.5-48q12-5 16.5-17.5t-1-24.5-18-16.5T274 165q-98 46-163 128.5T25 481q-19 89-2 176.5T90 820q103 157 281 194 23 4 45.5 6.5t45.5 2.5q104 0 197-45t158-128 86-187q32-154-38-293T654 164zM464 416q13 0 22.5-9.5T496 384V32q0-13-9.5-22.5T464 0t-22.5 9.5T432 32v352q0 13 9.5 22.5T464 416z" fill="#646464"/></svg>
