<?xml version="1.0"?>
<svg xmlns="http://www.w3.org/2000/svg" xmlns:xlink="http://www.w3.org/1999/xlink" aria-hidden="true" width="1em" height="1em" viewBox="0 0 1024 992" data-icon="simple-line-icons:present" data-width="1em" data-height="1em" data-inline="false" class="iconify"><path d="M1024 304q0-6-1.5-12.5t-3.5-12-5.5-10.5-8-9.5-9.5-8-11-6-12-4-13-1.5H851q46-45 46-109 0-30-11-55t-39.5-43T776 15q-17 0-34.5 3.5T708 29t-31.5 15.5-30 19.5-28 22.5-26 25-23.5 26-21.5 26T529 188t-15 23q-21-32-45.5-61.5t-59.5-62T332 35t-83-20q-42 0-70.5 18T139 76t-11 55q0 64 47 110H64q-27 0-45.5 18.5T0 305v191h65v417q0 26 18.5 45t45.5 19h767q27 0 45.5-19t18.5-45V496h64V304zM776 79q57 0 57 52 0 34-23 59.5T752.5 228 679 240H571q19-28 40.5-53.5t48.5-51 57.5-41T776 79zm-527 0q54 0 109.5 49T457 240H349q-61 0-109-30t-48-80q0-48 51-50 3-1 6-1zm711 353H544V304h416v128zM64 304h416v128H64V304zm65 192h351v417H129V496zm767 417H544V496h352v417z" fill="#646464"/></svg>
