<?xml version="1.0"?>
<svg xmlns="http://www.w3.org/2000/svg" xmlns:xlink="http://www.w3.org/1999/xlink" aria-hidden="true" width="1em" height="1em" viewBox="0 0 1024 1024" data-icon="simple-line-icons:printer" data-width="1em" data-height="1em" data-inline="false" class="iconify"><path d="M953 255H832V0H192v255H71q-29 0-50 21T0 326v434q0 30 21 51t50 21h121v192h640V832h121q19 0 35.5-10t26-26 9.5-36V326q0-29-21-50t-50-21zM256 63h512v192H256V63zm512 897H256V607h512v353zm192-200q0 8-7 8H832V543H192v224H71q-7 0-7-7V326q0-7 7-7h882q7 0 7 7v434zM832 383h-32q-13 0-22.5 9.5t-9.5 23 9.5 22.5 22.5 9h32q13 0 22.5-9t9.5-22.5-9.5-23T832 383z" fill="#646464"/></svg>
