<?xml version="1.0"?>
<svg xmlns="http://www.w3.org/2000/svg" xmlns:xlink="http://www.w3.org/1999/xlink" aria-hidden="true" width="1em" height="1em" viewBox="0 0 1024 1024" data-icon="simple-line-icons:puzzle" data-width="1em" data-height="1em" data-inline="false" class="iconify"><path d="M512 1024q-4 0-7.5-.5t-7.5-1-7.5-1.5-6.5-2.5-6.5-3-6.5-4-6-4.5-6-5L22 565Q0 543 0 511.5T22 458l160-160q7-7 17.5-9t19.5 3 14 14.5 3 19.5q-2 7-2.5 12.5T233 349q0 35 17 64.5t46.5 47T360 478q52 0 87-37.5t35-91.5q0-26-9.5-49T447 259.5 408.5 232 360 222q-9 0-23 3-23 4-34-17t6-37L458 21q11-10 25-15.5T512 0t29 5.5T566 21l109 110q17-54 63-88.5T842 8q36 0 68.5 14t56 37.5T1004 116t14 68q0 23-5.5 45.5T996 271t-26 34.5-34 27.5-40 19l106 106q22 22 22 53.5t-22 53.5l-436 437q-23 22-54 22zM175 395L67 503q-9 9 0 17l436 437q9 8 18 0l436-437q2-2 3-5t0-6.5-3-5.5L803 349q-16-16-6-36.5t32-17.5h5l1 1h7q47 0 79.5-32.5t32.5-79-32.5-79.5T842 72q-22 0-43 9t-36 24-24 36-9 43q0 3 1 8l1 6q1 6-1 12.5t-6.5 11.5-10.5 8q-20 10-36-6L521 67q-2-2-4-3t-3.5-1.5-3 0T507 64t-4 3l-97 97q63 15 101.5 66.5T546 349q0 26-6.5 51T521 446t-28.5 39-37 30.5-45 19.5-50.5 7q-13 0-26-2t-25.5-5.5-24-9-22-12-20.5-14-18.5-16.5-16-19.5-14-21.5-11-22.5T175 395z" fill="#646464"/></svg>
