<?xml version="1.0"?>
<svg xmlns="http://www.w3.org/2000/svg" xmlns:xlink="http://www.w3.org/1999/xlink" aria-hidden="true" width="1em" height="1em" viewBox="0 0 1024 1024" data-icon="simple-line-icons:question" data-width="1em" data-height="1em" data-inline="false" class="iconify"><path d="M512 0Q373 0 255 68.5T68.5 255 0 512t68.5 257T255 955.5t257 68.5q104 0 199-40.5t163.5-109 109-163.5 40.5-199-40.5-199-109-163.5T711 40.5 512 0zm0 961q-73 0-141.5-22.5T247 874t-96.5-97-64-123.5T64 512q0-91 35.5-174T195 195t143-95.5T512 64t174 35.5T829 195t95.5 143T960 512t-35.5 174T829 829.5t-143 96T512 961zm-47-161h80v-81h-80v81zm46-576q-14 0-27 1.5t-25 4.5-23 7.5-21.5 10.5-19.5 13q-21 18-33 51.5T351 379l1 3h74q0-21 6.5-43t18.5-31q12-10 27-15t33-5q21 0 36.5 6t26.5 17q22 22 22 63 0 18-4 32.5T580 434q-17 24-55 70-40 36-49.5 58t-9.5 78h77q0-35 4-52 2-8 8.5-17.5T573 550q22-22 40.5-43.5T646 465q27-42 27-93 0-70-42.5-109T511 224z" fill="#646464"/></svg>
