<?xml version="1.0"?>
<svg xmlns="http://www.w3.org/2000/svg" xmlns:xlink="http://www.w3.org/1999/xlink" aria-hidden="true" width="1em" height="1em" viewBox="0 0 928 1024" data-icon="simple-line-icons:refresh" data-width="1em" data-height="1em" data-inline="false" class="iconify"><path d="M449 899v-1l-92-144q-5-8-14-10.5t-18 2.5l-8 5q-8 4-8.5 14t4.5 18l59 92q-2-1-5-1.5t-5.5-1-4.5-1.5q-52-13-97.5-40T178 765.5 117 680Q45 541 93 392q11-36 29.5-68.5T165 263t53.5-51 63.5-41q11-6 15-18t-2-23.5-18-15.5-23 2q-79 41-136.5 107.5T34 373Q7 457 14.5 543.5T62 708q43 83 116 141.5T341 931q1 1 2 1h2l-81 42q-8 4-10.5 13t2.5 17l3 8q11 18 29 9l149-77 10-5q8-5 10.5-14t-2.5-17zm417-578q-43-83-114.5-141.5T590 98q-9-3-26-6l80-40q9-5 12-14t-1-17l-3-8q-3-5-8.5-8T632 2t-12 2L471 81l-10 5q-9 5-11 14t3 17l5 10h1l92 144q5 8 14 10.5t17-2.5l8-5q8-4 9-14t-4-18l-59-92q22 3 38 8 22 6 43 14t40.5 19 37.5 24 34.5 28 31 32 27 35.5T811 349q72 139 24 288-23 72-71 129t-115 92q-11 6-15 18t2 24q8 17 27 17 8 0 15-4 78-40 134-106.5T894 656q54-167-23-325z" fill="#646464"/></svg>
