<?xml version="1.0"?>
<svg xmlns="http://www.w3.org/2000/svg" xmlns:xlink="http://www.w3.org/1999/xlink" aria-hidden="true" width="1em" height="1em" viewBox="0 0 944 1024" data-icon="simple-line-icons:reload" data-width="1em" data-height="1em" data-inline="false" class="iconify"><path d="M479 0q-94 0-180 37t-148 99-99 148-37 180q0 118 56 220.5t153 167T439 926l-92 47q-9 4-12.5 13t1.5 18l3 8q5 9 14.5 11.5t18.5-2.5l153-78v-1h1l10-5q3-2 5-4t3.5-4.5 2.5-5.5q2-9-3-18l-6-10-95-148q-5-8-14.5-11t-18.5 2l-7 5q-8 5-9.5 15t4.5 18l55 87q-103-7-189-62T128.5 656.5 79 464q0-81 32-155t85.5-128T324 95.5 479 64q109 0 201.5 53.5t146 146T880 464q0 95-42 179T720 784q-7 5-10 13t-2 16.5 6 15.5q8 10 21 12t24-6q88-66 136.5-163.5T944 464q0-175-116-306Q717 32 552 6q-37-6-73-6z" fill="#646464"/></svg>
