<?xml version="1.0"?>
<svg xmlns="http://www.w3.org/2000/svg" xmlns:xlink="http://www.w3.org/1999/xlink" aria-hidden="true" width="1em" height="1em" viewBox="0 0 1040 1056" data-icon="simple-line-icons:rocket" data-width="1em" data-height="1em" data-inline="false" class="iconify"><path d="M210 899q-10 21-16 30t-21.5 20.5-41 17T65 973q1-32 4.5-54.5T77 883t13.5-23 17-14.5T130 833q39-19 62-37l-39-50q-15 11-52 30-38 19-57.5 39T12 880.5 0 1004l1 33 31-1q62 0 103-6t66-21.5 38-31.5 27-45q15-31 22-44l-47-43q-7 9-13.5 19.5t-9.5 17-8 17.5zm495-694q-53 0-90.5 37.5T577 333q0 35 17 64.5t46.5 46.5 64.5 17 64.5-17 46.5-46.5 17-64.5q0-21-6.5-40.5t-18-35.5-27.5-27.5-35.5-18T705 205zm-.5 192q-26.5 0-45-19T641 333t18.5-45 45.5-19q17 0 32 8.5t23.5 23.5 8.5 32q0 26-19 45t-45.5 19zM1024 45q-1-12-9.5-20.5T994 15q-4 0-10.5-.5T955 14t-45 1-56.5 4.5-66 9-71 15.5T643 67q-92 34-163 117-9 10-17.5 21.5T445 233t-16 27.5-17.5 32T396 323t-17 33.5-15 29.5l-7 14-6 12.5-7 13.5-6 11.5-6 12-6 10.5H148q-14 0-24 10L7 598q-12 13-6.5 30.5T24 650l191 44q12 15 69 78l72 80 39 165q4 18 22 23 1 1 2.5 1t3.5.5 3 .5q12 0 21-8l119-118q2-2 4.5-5t4-6 2-6.5.5-6.5V727q7-5 17.5-11t29-16 24.5-13q18-11 75-40.5t93.5-51T873 556q45-40 68-74.5t41-83.5q15-41 25-92t13.5-92 4.5-83 0-59-1-27zM922 375q-16 43-34.5 71T831 508q-18 16-54 37t-89 48-71 38q-81 45-92 54-3 2-5 5t-3.5 6-2.5 6.5-1 7.5v167l-68 74-28-121q-3-9-8-14-145-162-154-172-4-4-8.5-7t-9.5-4L91 600l72-76h182q2 0 5-.5t5.5-1.5 5-2.5 4.5-3 3.5-3.5 3.5-5q14-22 49-93 3-5 16.5-32t18.5-37.5 17-33 19.5-35T510 250t18-25q60-70 137-98 133-50 296-49 3 184-39 297z" fill="#646464"/></svg>
