<?xml version="1.0"?>
<svg xmlns="http://www.w3.org/2000/svg" xmlns:xlink="http://www.w3.org/1999/xlink" aria-hidden="true" width="1em" height="1em" viewBox="0 0 1024 896" data-icon="simple-line-icons:screen-desktop" data-width="1em" data-height="1em" data-inline="false" class="iconify"><path d="M960 32H64q-26 0-45 18.5T0 96v544q0 26 19 45t45 19h416v96H320q-13 0-22.5 9.5T288 832t9.5 22.5T320 864h384q13 0 22.5-9.5T736 832t-9.5-22.5T704 800H544v-96h416q26 0 45-19t19-45V96q0-27-19-45.5T960 32zm0 608H64V96h896v544z" fill="#646464"/></svg>
