<?xml version="1.0"?>
<svg xmlns="http://www.w3.org/2000/svg" xmlns:xlink="http://www.w3.org/1999/xlink" aria-hidden="true" width="1em" height="1em" viewBox="0 0 832 1024" data-icon="simple-line-icons:screen-tablet" data-width="1em" data-height="1em" data-inline="false" class="iconify"><path d="M736 0H96Q70 0 48 13T13 48 0 96v832q0 40 28 68t68 28h640q40 0 68-28t28-68V96q0-26-13-48t-35-35-48-13zm32 928q0 13-9.5 22.5T736 960H96q-13 0-22.5-9.5T64 928V96q0-13 9.5-22.5T96 64h640q13 0 22.5 9.5T768 96v832zM416 800q-26 0-45 19t-19 45 19 45 45 19 45-19 19-45q0-17-8.5-32T448 808.5t-32-8.5zm64-704H352q-13 0-22.5 9.5T320 128t9.5 22.5T352 160h128q13 0 22.5-9.5T512 128t-9.5-22.5T480 96z" fill="#646464"/></svg>
