<?xml version="1.0"?>
<svg xmlns="http://www.w3.org/2000/svg" xmlns:xlink="http://www.w3.org/1999/xlink" aria-hidden="true" width="1em" height="1em" viewBox="0 0 576 1024" data-icon="simple-line-icons:screen-smartphone" data-width="1em" data-height="1em" data-inline="false" class="iconify"><path d="M480 0H96Q70 0 48 13T13 48 0 96v832q0 40 28 68t68 28h384q40 0 68-28t28-68V96q0-26-13-48t-35-35-48-13zm32 928q0 13-9.5 22.5T480 960H96q-13 0-22.5-9.5T64 928V96q0-13 9.5-22.5T96 64h384q13 0 22.5 9.5T512 96v832zM288.5 800q-26.5 0-45.5 19t-19 45q0 17 8.5 32t23.5 23.5 32 8.5 32-8.5 23.5-23.5 8.5-32q0-26-18.5-45t-45-19zM352 96H224q-13 0-22.5 9.5T192 128t9.5 22.5T224 160h128q13 0 22.5-9.5T384 128t-9.5-22.5T352 96z" fill="#646464"/></svg>
