<?xml version="1.0"?>
<svg xmlns="http://www.w3.org/2000/svg" xmlns:xlink="http://www.w3.org/1999/xlink" aria-hidden="true" width="1em" height="1em" viewBox="0 0 1024 1024" data-icon="simple-line-icons:settings" data-width="1em" data-height="1em" data-inline="false" class="iconify"><path d="M960 415l-82-18q-9-29-24-59l44-74q9-14 13.5-29.5T913 202t-15-29l-45-45q-9-9-21.5-13.5t-25-4T782 115t-22 10l-72 46-8-4-8-4-8-3.5-8.5-3.5-8.5-3.5-8.5-3-8.5-2.5-18-84q-5-24-24-43.5T544 0h-64q-25 0-41.5 19T416 64l-21 82q-16 5-31.5 11.5T333 172l-74-47q-13-9-29.5-12.5t-33.5 0-29 15.5l-46 45q-17 22-15.5 45t15.5 46l47 78q-14 29-22 55l-82 18q-25 5-44.5 23.5T0 483v64q0 24 19 41t45 23l83 20q8 25 21 51l-47 78q-14 23-15.5 46t15.5 45l46 45q20 18 46 17.5t46-14.5l74-47 12 6 12.5 5.5 13 5 13 5L396 878l20 82q6 26 23 45t41 19h64q17 0 32-9.5t24-24 12-30.5l18-83q30-9 58-24l72 46q21 14 47 14.5t46-17.5l45-45q17-22 15.5-45T898 760l-44-74q14-27 23-55l83-20q26-6 45-23t19-41v-64q0-39-41-60-11-6-23-8zm0 127q-1 1-3 2t-5 2l-6 2-119 30-11 33q-4 12-8.5 23.5T797 657l-16 32 63 104q5 9 6 16l-42 42q-4-1-7-2.5t-4-2.5l-105-67-33 17q-8 4-16 7.5l-16 7-16 5.5-35 12-26 119q-1 4-3 7.5t-4 5.5h-58q-4-6-6-14l-30-118-34-11q-3-1-5.5-2t-5.5-2l-6-2-6-2.5-6-2.5-6-2.5-5.5-2.5-5.5-2.5-6-3.5-33-17-105 67q-7 5-13 5l-42-41q1-7 6-15l65-109-15-31q-11-22-18-42l-11-34-117-30q-10-2-16-6v-59q1 0 2.5-1t4-2.5T75 478l121-27 11-35q6-21 18-46l16-31-65-108q-2-4-4-8.5t-2-7.5l42-42 11 5 107 68 33-17q25-13 52-22l34-11 29-116q2-10 7-16h59l1 3q1 1 1.5 2t1 3 1.5 3l26 121 35 12q25 8 49 20l33 17 103-66q7-4 13-4l42 41q-1 2-2 6t-4 8l-63 105 16 32q7 13 12 25t8 24l11 35 119 27q11 2 14 7zM512.5 320q-79.5 0-136 56T320 512t56.5 136T512 704q40 0 75.5-15t61.5-41 41-61.5 15-74.5q0-80-56.5-136t-136-56zm-.5 320q-53 0-90.5-37.5T384 512t37.5-90.5T512 384t90.5 37.5T640 512t-37.5 90.5T512 640z" fill="#646464"/></svg>
