<?xml version="1.0"?>
<svg xmlns="http://www.w3.org/2000/svg" xmlns:xlink="http://www.w3.org/1999/xlink" aria-hidden="true" width="1em" height="1em" viewBox="0 0 1024 1024" data-icon="simple-line-icons:share" data-width="1em" data-height="1em" data-inline="false" class="iconify"><path d="M864 704q-39 0-72.5 17.5T736 769L314 554q6-21 6-42 0-13-2.5-26.5T311 460l424-206q22 31 56 48.5t73 17.5q66 0 113-47t47-113q0-43-21.5-80T944 21.5 864 0t-80 21.5T725.5 80 704 160v6l.5 6 .5 6 .5 6 1.5 6 1 6-430 209q-22-25-52.5-39T160 352q-66 0-113 47T0 512t47 113 113 47q77 0 125-61l424 216q-2 6-3 12t-1.5 12.5-.5 12.5q0 43 21.5 80t58.5 58.5 80 21.5q66 0 113-47t47-113-47-113-113-47zm0-640q40 0 68 28t28 68-28 68-68 28-68-28-28-68 28-68 68-28zM160 608q-40 0-68-28t-28-68 28-68 68-28 68 28 28 68-28 68-68 28zm704 352q-40 0-68-28t-28-68 28-68 68-28 68 28 28 68-28 68-68 28z" fill="#646464"/></svg>
