<?xml version="1.0"?>
<svg xmlns="http://www.w3.org/2000/svg" xmlns:xlink="http://www.w3.org/1999/xlink" aria-hidden="true" width="1em" height="1em" viewBox="0 0 1024 1024" data-icon="simple-line-icons:share-alt" data-width="1em" data-height="1em" data-inline="false" class="iconify"><path d="M902 949H70V309h257l65-62-2-2H70q-27 0-45.5 19T6 309v640q0 18 8.5 32.5t23 23T70 1013h832q26 0 45-18.5t19-45.5V449l-64 61v439zM270 693h65q22-126 97.5-228t190-161T868 245q9 0 33 1L784 363q-3 3-5 6.5t-3 7.5-1 8.5 1 8 3 7.5 5 7q4 5 10 7t13 2q4 0 8-1t7.5-3 6.5-5l189-194L829 20q-9-9-22.5-9T784 20q-6 6-8.5 14.5t0 16.5 8.5 14l116 116h-30q-149 0-278.5 67.5T377.5 433 270 693z" fill="#646464"/></svg>
