<?xml version="1.0"?>
<svg xmlns="http://www.w3.org/2000/svg" xmlns:xlink="http://www.w3.org/1999/xlink" aria-hidden="true" width="1em" height="1em" viewBox="0 0 1024 960" data-icon="simple-line-icons:shuffle" data-width="1em" data-height="1em" data-inline="false" class="iconify"><path d="M402 442l40-55-135-184H3v64h271zm517-175l-78 70q-7 7-8 16t5 16l6 8q7 7 17 7t17-7l127-115h.5l.5-1 8-8q7-6 7-15.5t-7-16.5l-8-8h-1v-1L876 94q-4-3-8.5-5t-9-2-9 2-7.5 5l-6 8q-6 7-5 16t8 16l76 69H684L274 779H3v64h304l410-576h202zm87 522h-1v-1L876 670q-5-4-11-6t-12.5 0-10.5 6l-6 8q-4 4-5 10t1.5 12 6.5 10l77 70-199-1-115-177-39 56 121 185 234 1-77 69q-7 7-8 16t5 16l6 8q3 4 7.5 5.5t9 1.5 9-1.5 8.5-5.5l127-115h.5l.5-1 8-8q7-6 7-15.5t-7-16.5z" fill="#646464"/></svg>
