<?xml version="1.0"?>
<svg xmlns="http://www.w3.org/2000/svg" xmlns:xlink="http://www.w3.org/1999/xlink" aria-hidden="true" width="1em" height="1em" viewBox="0 0 1056 1024" data-icon="simple-line-icons:size-fullscreen" data-width="1em" data-height="1em" data-inline="false" class="iconify"><path d="M702 383l275-273-1 155q0 9 7 16.5t16 7.5h17q10-1 16.5-6.5t7.5-14.5V37l-.5-.5-.5-.5 2-12q0-10-6-16-7-7-16-7l-12 1h-1L777 1q-5 0-9.5 2T760 8t-5 7.5-2 9.5v16q1 11 9 17.5t18 6.5h151L657 338q-10 9-10 22.5t10 22.5q17 18 39 5 3-3 6-5zM355 641L80 914l1-155q0-9-7-16.5T58 735H40q-4 1-8.5 2.5t-8 4-5 6.5-2.5 8v231l.5.5.5.5-2 12q0 5 1.5 9t4.5 7q7 7 16 7l12-1h1l230 1q10 0 17-7t7-17v-16q-1-11-9-17.5t-18-6.5H126l274-273q5-5 7.5-10.5t2.5-12-2.5-12.5-7.5-10q-6-6-14-8.5t-16.5 0T355 641zm685 346V756q-1-9-7.5-14.5T1016 735h-17q-9 0-16 7t-7 17l1 155-275-273q-6-6-14.5-8.5t-16.5 0-14 8.5q-10 9-10 22.5t10 22.5l274 273H780q-7 0-12.5 2.5T758 970t-5 13v16q0 7 3.5 12.5t8.5 8.5 12 3l229-1h1l12 1q9 0 16-7 6-6 6-16l-2-12h1v-1zM126 65h151q10 0 18-6.5t9-17.5V25q0-10-7-17t-17-7L50 2h-1L37 1q-9 0-16 7-3 3-4.5 7T15 24l2 12h-.5l-.5 1v231q1 9 7.5 14.5T40 289h18q6 0 11.5-3.5t8.5-9 3-11.5l-1-155 275 273q9 10 22.5 10t23-9.5 9.5-23-10-22.5z" fill="#646464"/></svg>
