<?xml version="1.0"?>
<svg xmlns="http://www.w3.org/2000/svg" xmlns:xlink="http://www.w3.org/1999/xlink" aria-hidden="true" width="1em" height="1em" viewBox="0 0 1024 1024" data-icon="simple-line-icons:size-actual" data-width="1em" data-height="1em" data-inline="false" class="iconify"><path d="M383 347V116q-1-10-7.5-15.5T359 95h-17q-9 0-16 7t-7 17l1 155L54 10q-9-9-22.5-9t-23 9.5T-1 33 9 56l265 262-151 1q-10-1-18 5.5T96 342v17q0 10 7 17t17 7l229-1h13q9 0 16-6 3-3 4.5-7.5t1.5-9.5l-2-12h1zm263 29q7 6 16 6h13l229 1q7 0 12-3.5t8.5-9T928 359v-17q-1-11-9-17.5t-18-5.5l-151-1 265-262q10-10 10-23t-9.5-22.5-23-9.5-22.5 9L704 274l1-155q0-10-7-17t-16-7h-17q-10 0-16.5 5.5T641 116v231h1l-2 12q0 5 1.5 9.5t4.5 7.5zM378 647q-7-6-16-6h-13l-229-1q-10 1-17 7.5T96 664v17q1 11 9 17.5t18 5.5l151 1L9 968q-6 7-8.5 15t0 16.5T9 1014t14 8 16.5 0 14.5-8l266-265-1 156q0 10 7 17t16 7h17q10 0 16.5-5.5T383 908V677h-1l2-13q0-11-6-17zm372 58l151-1q22 1 27-20v-20q0-10-7-16.5t-17-7.5H660q-7 0-16 8-6 6-6 17l2 12h-1v231q1 10 7.5 15.5T663 929h18q9 0 16-7t7-17l-1-154 267 263q4 3 8.5 5.5t9.5 3 9.5 0 9.5-3 8-5.5q10-10 10-23t-10-23z" fill="#646464"/></svg>
