<?xml version="1.0"?>
<svg xmlns="http://www.w3.org/2000/svg" xmlns:xlink="http://www.w3.org/1999/xlink" aria-hidden="true" width="1em" height="1em" viewBox="0 0 1056 896" data-icon="simple-line-icons:social-behance" data-width="1em" data-height="1em" data-inline="false" class="iconify"><path d="M393 351q12-7 18-20t6-32q0-41-32-54-27-9-68-9H164v129h167q38 0 62-14zm-17-52q0 14-4 17-14 9-41 9H205v-49h112q33 0 54 7l.5.5 1.5 1.5 1.5 2.5 1 4.5.5 7zm15 168q-3-2-7-3t-8.5-2.5-9.5-2l-10-1-11-1-12-.5H164v156h167q19 0 33.5-2.5T390 603q38-19 38-73 0-23-9-39t-28-24zm-186 30h128q16 1 26 2.5t15 4.5q14 6 14 26 0 28-16 36-1 1-2.5 1.5t-4 1-6 1.5-7.5 1.5-9.5.5H205v-75zm659-108q-9-8-19.5-13t-22-7.5T798 366q-22 0-39 6t-29 18q-24 25-30 67v2h195l-1-2q-4-45-30-68zm-104 29q12-12 38-12 23 0 38 12h-76zm283 22q-9-58-40-104-10-14-21-26t-23.5-22-26.5-18V109H663v162q-24 15-45 36-47 47-62 122-6-8-12.5-15.5T529 399q1-1 2-1.5t2-2.5q35-42 35-109 0-63-33-110-55-75-179-77H12v651h324q48 0 89-9 23-5 43-14t37-22q15-11 27.5-25t22.5-31q8-13 14-26 10 25 24.5 45t33.5 35q76 61 174 61 120 0 188-75 45-47 51-98l3-22h3v-39q1-28 0-50.5t-3-39.5zm-585-38l-3 1 4 2q43 15 65 49.5t22 83.5q0 16-2.5 32t-8.5 30.5-14 27.5q-16 27-40 45-27 21-64 29-37 7-81 7H53V139h302q104 2 147 61l8 12 6.5 13 5 14.5 4 15 2 15.5.5 16q0 52-26 84-15 17-44 32zm340-165q-17 0-30 1h-64v-89h188v89h-64q-18-1-30-1zM698 530q0 16 3.5 30t9 25.5 13.5 20 19 15.5q26 16 62 16 9 0 18-1t16.5-3.5T854 626t13-9q4-3 8-7.5t8-9.5 7-12h110q-5 37-40 74-57 62-159 62-12 0-23.5-1t-22.5-3.5-22-5.5-21.5-7-20.5-9.5-19.5-12T653 672q-64-52-64-169 0-109 58-167 49-50 123-58h55q20 2 37.5 7t33.5 12q22 10 40.5 25.5T969 359q26 37 33 87 5 29 4 83H698v1zm144 56q-13 11-37 11-9 0-16-1.5t-13-3.5-12-5q-11-8-17-18h107q-6 11-12 17z" fill="#646464"/></svg>
