<?xml version="1.0"?>
<svg xmlns="http://www.w3.org/2000/svg" xmlns:xlink="http://www.w3.org/1999/xlink" aria-hidden="true" width="1em" height="1em" viewBox="0 0 1024 896" data-icon="simple-line-icons:social-reddit" data-width="1em" data-height="1em" data-inline="false" class="iconify"><path d="M665 666q-15-4-36 10l-1 1q-17 17-48.5 26t-75.5 9q-90 0-125-35-2-2-5-3.5t-6.5-2.5-7.5-1-7 1-6.5 2.5-5.5 3.5q-5 5-7 12.5t0 14.5 7 12q32 27 73.5 40t95.5 13q116 0 169-53 7-8 7-19t-6-18q-6-11-15-13zM438 515q0-21-11-40.5T398 443t-38-12q-31 0-54.5 25.5T282 515q0 45 39 68 18 11 39 11 32 0 55-23.5t23-55.5zm222-78q-45 0-68 39-11 19-11 39 0 16 6.5 30.5t17 25 25 17T660 594q44 0 67-40 11-18 11-39 0-15-6.5-29.5t-17-25-25-17T660 437zm237-125q-42 0-76 29-104-66-267-78l50-167 140 34q3 39 33 67t70 28q41 0 72-31t31-72-31-72-72-31q-14 0-28.5 4T792 34.5 770 52t-16 22L587 32h-2q-10 0-19 7.5T556 58l-66 204q-163 2-292 80-37-23-75-23-50 0-86 35.5T1 441q0 31 14.5 57.5T57 540v25q0 133 135 220 129 89 318 89 92 0 175.5-23T831 785q26-18 47.5-38t38.5-42 28.5-44.5T963 614t6-49v-26q10-8 19.5-19.5t17-25.5 12-29.5 4.5-30.5q0-62-54-99-33-22-71-23zm65 129q0 20-17 39-18-49-75-99 13-6 27-6 45 0 60 40 5 12 5 26zm-56 124q0 95-108 173-130 80-288 80-81 0-156-21t-132-59q-114-76-114-173t114-173q58-38 130.5-58.5T504 313q80 0 155.5 20.5T792 392q113 77 114 173zM150 378q-49 40-78 99-14-23-14-36 0-19 8-34t23-23.5 34-8.5q20 0 27 3zm650-256q0-9 3.5-18t10-15 15-9.5T847 76q13 0 23.5 6T887 98.5t6 23.5q0 10-3.5 18.5t-9.5 15-15 10-18 3.5q-20 0-33.5-13.5T800 122z" fill="#646464"/></svg>
