<?xml version="1.0"?>
<svg xmlns="http://www.w3.org/2000/svg" xmlns:xlink="http://www.w3.org/1999/xlink" aria-hidden="true" width="1em" height="1em" viewBox="0 0 672 1024" data-icon="simple-line-icons:social-tumblr" data-width="1em" data-height="1em" data-inline="false" class="iconify"><path d="M352 64v224h224v96H353v278q0 26 .5 45.5t2.5 33 5 21.5q2 5 5 10t8 10.5 10.5 10T398 801t17 7 20 5 23 2q87 0 150-47v149q-33 16-103 32-46 11-99 11-153 0-201-120-12-32-12-94V384H64v-98q13 0 28-3t35.5-11 38.5-24 34-39 25.5-61 9.5-84h117zm0-64H235q-26 0-45 18.5T171 64q0 30-4.5 54.5t-12 40.5-17.5 28-20 18.5T96 216t-18 5-14 1q-17 0-31.5 8.5T9 253.5 0 285v98q0 13 4.5 25T18 429t21 14 25 5h65v298q0 74 17 117 9 24 22 45t35 43 49 37.5 67 25.5 87 10q61 0 114-12l7-2q69-16 109-35 16-8 26-24t10-34V768q0-40-35-58-14-6-29-6-21 0-38 12-46 35-112 35-27 0-37-12-1-4-2-10t-1.5-24.5-.5-42.5V448h159q27 0 45.5-19t18.5-45v-96q0-27-18.5-45.5T576 224H416V64q0-27-18.5-45.5T352 0z" fill="#646464"/></svg>
