<?xml version="1.0"?>
<svg xmlns="http://www.w3.org/2000/svg" xmlns:xlink="http://www.w3.org/1999/xlink" aria-hidden="true" width="1em" height="1em" viewBox="0 0 1024 1024" data-icon="simple-line-icons:social-spotify" data-width="1em" data-height="1em" data-inline="false" class="iconify"><path d="M418 311q123 3 214 20.5T802 389q15 7 26 15.5t15 18.5 2 26.5-10 21.5q-5 4-12.5 6.5t-15 4-15 .5-13.5-3q-156-81-360-73-53 2-151 21-56 11-68-31-5-16 .5-29t17-19.5T245 338q18-4 173-27zm23 152q87 6 164 25.5T750 547q4 2 9 6t9 9 7.5 10.5 5.5 11 2 10.5q2 22-19 28.5t-48-7.5q-176-93-390-57-3 0-20 5.5t-25 3.5q-3-1-6.5-2t-6.5-2.5l-6-3-6-3.5-6.5-4-6-3.5-6-3.5-6.5-3q3-5 9-17.5t11.5-20T263 496q26-7 54-12t68.5-11.5T441 463zm-21 153q170 3 278 64 10 5 15.5 9.5t11.5 11 5 14.5-8 16q-5 8-24 9t-29-5q-131-70-317-47-7 1-17.5 3.5T315 696t-17 1-15.5-4-18-8.5T250 677q2-4 6-9t6.5-9.5 6-9 7.5-7.5 7-4q24-5 49.5-9.5t54.5-8 33-4.5zm604-104q0 212-150 362t-362 150-362-150T0 512t150-362q25-25 51.5-46t55-37.5 59-29 62-21T443 4t69-4q212 0 362 150t150 362zm-64 0q0-186-131-317T512 64 195 195 64 512t131 318 317 132 317-132 131-318z" fill="#646464"/></svg>
