<?xml version="1.0"?>
<svg xmlns="http://www.w3.org/2000/svg" xmlns:xlink="http://www.w3.org/1999/xlink" aria-hidden="true" width="1em" height="1em" viewBox="0 0 1024 896" data-icon="simple-line-icons:social-vkontakte" data-width="1em" data-height="1em" data-inline="false" class="iconify"><path d="M3 184q0-51 58-55l149 1q15 0 20 15 23 75 51.5 129.5T356 400q4 9 13 9 7 0 11-7l3-11 1-173q0-18-8.5-24t-31.5-9q-18-3-18-22 0-4 1-6 21-65 120-65l56-1q38 0 63 19t25 60v227q7 5 13 5 15 0 26-18 110-154 119-206 0-1 2-5 7-15 23-26t28-15q4-2 9-2h155l10 1q20 0 31 19 4 6 5.5 13t2 14 .5 8v7q-7 41-35.5 87.5T907 380t-55 71q-9 12-9 22 0 8 8 18l146 184q12 16 12 35 0 23-18 38t-43 17l-17 1H779q-1 0-4 .5t-4 .5q-22 0-41-19-7-8-94-118-5-7-14-13-4 16-10.5 46t-9.5 43l-3 17q-10 35-42 42l-14 1h-98q-83 0-165.5-76T131 493.5 8 213q-5-13-5-29zm601 259q-21 0-38-11.5T549 400V170q0-20-10-28.5t-35-8.5l-57 2q-43 0-65 15 44 21 44 68v176q-2 25-20 41.5T366 452q-30 0-46-29-78-118-116-224l-9-26-133-1q-13 0-14.5 1.5T46 182q0 9 2 19l21 56q84 217 182.5 342T445 724h100q6 0 9-3.5t5-13.5l2-10 19-88q8-18 14-24 11-11 26-11 24 0 49 29l85 108q8 13 17 13h165q30 0 30-15 0-5-3-10L818 518q-17-21-17-45t16-46q13-20 50.5-66.5t65.5-87 37-73.5l3-13q-1-2-1-6.5t-1-7.5H814q-15 6-24 18l-6 19q-25 69-131 213-21 20-49 20z" fill="#646464"/></svg>
