<?xml version="1.0"?>
<svg xmlns="http://www.w3.org/2000/svg" xmlns:xlink="http://www.w3.org/1999/xlink" aria-hidden="true" width="1em" height="1em" viewBox="0 0 1024 1024" data-icon="simple-line-icons:social-google" data-width="1em" data-height="1em" data-inline="false" class="iconify"><path d="M707 360q-48-51-91-69t-93-19h-2q-97 0-171 71.5T276 520q0 106 77.5 172.5T520 759h1q57 0 105.5-20.5T718 656H472V401l523 2q14 73 14 125 0 219-135.5 357T516 1023q-105 0-200-40T152 875 42 713 1 515q0-139 69-255.5t187.5-184T516 8q110 0 212.5 45T898 188zm-187 93v154h263q-4 22-14 45.5t-31.5 51-49.5 49-72 35.5-96 14q-119 0-203-84t-84-201 85-202 202-85q111 0 185 72l126-119Q703 63 520 63q-192 0-328 132.5T56 517q0 188 136 320.5T520 970q201 0 323-123.5T965 528q0-41-6-75H520z" fill="#646464"/></svg>
