<?xml version="1.0"?>
<svg xmlns="http://www.w3.org/2000/svg" xmlns:xlink="http://www.w3.org/1999/xlink" aria-hidden="true" width="1em" height="1em" viewBox="0 0 1056 896" data-icon="simple-line-icons:social-youtube" data-width="1em" data-height="1em" data-inline="false" class="iconify"><path d="M957 126q-13-9-35-16t-67-14.5-128.5-12T528 79q-348 0-415 41-79 47-95 277-2 30-3 57 1 34 4.5 71.5t12.5 92 30 98 50 61.5q67 40 416 40 364 0 429-46 26-19 44-60t26-92 10.5-89.5 3.5-76.5q-1-34-3.5-71.5t-10-92.5-25.5-99.5-45-63.5zm-38 593q-9 6-34 12.5t-119.5 14T528 753q-139 0-231-7t-117-12.5-35-11.5q-25-15-44.5-88T79 454q2-108 22-186.5t45-93.5q9-5 34-11t117-13 231-7q143 0 237.5 7.5t119.5 14 34 13.5q11 7 21 30t18 57.5 13 83.5 6 104q-1 108-18 178.5T919 719zM736 423L448 246q-16-10-32-.5T400 274v353q0 19 16 28 8 4 16 4 4 0 8.5-1t7.5-4l288-176q16-10 16-28-1-18-16-27zM464 570V330l194 120z" fill="#646464"/></svg>
