<?xml version="1.0"?>
<svg xmlns="http://www.w3.org/2000/svg" xmlns:xlink="http://www.w3.org/1999/xlink" aria-hidden="true" width="1em" height="1em" viewBox="0 0 1024 992" data-icon="simple-line-icons:social-dropbox" data-width="1em" data-height="1em" data-inline="false" class="iconify"><path d="M1023.5 208.5Q1022 192 1008 184L723 6q-19-12-37 2L512 149 338 8q-18-14-37-2L16 184Q2 193 .5 209T12 236l165 138L36 486q-13 10-12.5 26T38 537l131 88q-11 9-11 23v129q0 17 15 27l322 182q8 5 17 5 4 0 8.5-1t8.5-4l318-182q15-10 15-27V620l124-83q13-9 14-25 0-8-3-15t-9-11L847 374l165-138q13-11 11.5-27.5zM737 375L512 515 287 375l225-147zM87 215L315 72l143 115-228 148zm143 199l226 142-128 98-218-145zm-8 246l89 60q9 5 19 5t19-6l129-99v282L222 759v-99zm576 99L542 904V617l133 102q4 3 9 4.5t10 1.5 9.5-1.5 8.5-3.5l86-58v97zm115-251L695 654l-127-98 226-142zM794 335L566 187 709 72l228 143z" fill="#646464"/></svg>
