<?xml version="1.0"?>
<svg xmlns="http://www.w3.org/2000/svg" xmlns:xlink="http://www.w3.org/1999/xlink" aria-hidden="true" width="1em" height="1em" viewBox="0 0 1024 1024" data-icon="simple-line-icons:social-instagram" data-width="1em" data-height="1em" data-inline="false" class="iconify"><path d="M511 4q128 0 209 3 69 3 123 24 52 20 90 58t58 90q21 54 24 123 3 81 3 209t-3 209q-3 69-24 123-20 52-58 90t-90 58q-54 21-123 24-81 3-209 3t-209-3q-69-3-123-24-52-20-90-58t-58-90Q10 789 7 720q-3-81-3-209t3-209q3-69 24-123 20-52 58-90t90-58q54-21 123-24 81-3 209-3zm0 66q-133 0-217 3-54 2-100 19-72 30-102 102-17 46-19 100-3 84-3 217t3 217q2 54 19 100 30 72 102 102 46 17 100 19 84 3 217 3t217-3q54-2 100-19 72-30 102-102 17-46 19-100 3-84 3-217t-3-217q-2-54-19-100-30-72-102-102-46-17-100-19-84-3-217-3zm0 644q84 0 143.5-59.5T714 511t-59.5-143.5T511 308t-143.5 59.5T308 511t59.5 143.5T511 714zm0-463q108 0 184 76t76 184-76 184-184 76-184-76-76-184 76-184 184-76zm332-10q0 25-18 42.5T781 301q-25 0-42.5-17.5T721 241q0-26 17.5-44t42.5-18 43.5 18.5T843 241z" fill="#646464"/></svg>
