<?xml version="1.0"?>
<svg xmlns="http://www.w3.org/2000/svg" xmlns:xlink="http://www.w3.org/1999/xlink" aria-hidden="true" width="1em" height="1em" viewBox="0 0 1024 896" data-icon="simple-line-icons:social-stumbleupon" data-width="1em" data-height="1em" data-inline="false" class="iconify"><path d="M777 837q-97 0-166.5-69T540 601V467q0-12 10.5-19t21.5-1l58 27 90-27q11-3 20 3 9 7 9 19v135q0 11 8 19.5t20 8.5 20-8.5 8-19.5V466q0-9 7-16 6-7 16-7h164q9 0 16 7t7 16v133q0 98-70 168t-168 70zM585 503v98q1 79 57.5 134.5T777 791q52 0 96.5-25.5t70-70T969 599V489H850v115q0 30-21.5 51.5t-52 21.5-52-21.5T703 604V499l-68 21q-9 2-17-1zM246 837q-98 0-167.5-70T9 599V466q0-9 6.5-16t16.5-7h164q6 0 11 3t8.5 8.5T219 466v132q0 11 8 19.5t20 8.5q7 0 13.5-4t10.5-10.5 4-13.5V288q1-39 13.5-74t34.5-63 51-49 64.5-32.5T512 58q63 0 117 30.5t86 83T749 288v69q0 17-17 22l-98 29q-8 2-16-1l-65-31q-14-6-14-21v-59q0-7-3.5-13.5t-10-10.5-14.5-4q-11 0-19.5 8.5T483 296v306q-1 97-70.5 166T246 837zM55 489v110q0 80 56 136t135 56q31 0 60-9.5t52.5-27 41.5-41 27.5-52T438 602V296q0-6 1-13t3.5-12.5 5.5-11 7-10.5 9-9 10.5-7.5T486 227t12.5-3 13.5-1q30 0 51.5 21.5T585 296v45l45 20 73-21v-51q-2-78-57.5-131.5T512 104t-133.5 53.5T321 288v310q0 30-22 51.5T247 671q-20 0-37-10t-27-26.5-10-36.5V489H55z" fill="#646464"/></svg>
