<?xml version="1.0"?>
<svg xmlns="http://www.w3.org/2000/svg" xmlns:xlink="http://www.w3.org/1999/xlink" aria-hidden="true" width="1em" height="1em" viewBox="0 0 1024 928" data-icon="simple-line-icons:social-steam" data-width="1em" data-height="1em" data-inline="false" class="iconify"><path d="M760 8q40 0 88.5 19.5T923 73l30 30q27 28 44 72t20 88v37q-6 84-57.5 147.5T834 536q-29 10-54.5 12.5T747 556L547 703q-5 4-10 7t-7 5q-10 81-71.5 128.5T319 891q-56 0-103-26.5T142 787q-6-11-9.5-19.5T127 752t-4-11l-99-40q-18-7-20-21l-2-12V455q2-32 29-32 3 0 13 2 18 7 83 33t100 41l16-7q38-16 88-16 10-14 16-23l89-127q24-31 39-57 4-64 24.5-105T564 78q33-31 86-50.5T760 8zM326 520q-35 0-84 21-7 3-14 3-6 0-34-11-24-10-74-30t-74-30v189l99 40q11 5 16 14t9.5 24.5T181 767q41 80 139 80 60 0 108-35.5t57-96.5l2-11q1-7 4.5-12.5t6-8 11-8.5 11.5-8l201-147q16-12 48-15.5t51-10.5q61-21 104.5-74T973 297v-32q-5-76-52-131l-29-29q-58-53-150-53-49 0-88 19-127 63-139 216-13 23-44 65l-88 126q-5 5-10.5 16.5t-12 18T343 520h-17zm-9 283q-29 0-58-20-32-23-37-40 3 1 37.5 15t56.5 14q33 0 64-28 29-27 29-70-3-44-30.5-68.5T305 568q3-4 6-4h11q53 0 87 35.5t34 83.5q0 49-33.5 84.5T317 803zm303-530q0-55 38.5-94t93.5-39 94 39 39 94-39 93.5-94 38.5-93.5-38.5T620 273zm44 0q0 37 25.5 62.5T752 361t63-25.5 26-62.5-26-63-63-26-62.5 26-25.5 63z" fill="#646464"/></svg>
