<?xml version="1.0"?>
<svg xmlns="http://www.w3.org/2000/svg" xmlns:xlink="http://www.w3.org/1999/xlink" aria-hidden="true" width="1em" height="1em" viewBox="0 0 768 976" data-icon="simple-line-icons:social-pinterest" data-width="1em" data-height="1em" data-inline="false" class="iconify"><path d="M759 335q-3-139-105.5-230T396 14q-33 0-68 5-124 17-211 99T12 315q-8 58 1.5 113t44 100 90.5 59l17 4 10-14q4-7 10-17t13-31.5 5-37.5q-1-8-5-16t-7-11.5-8-8.5l-3-3q-14-22-19-55t0-64q14-75 71.5-125T370 152q10-1 22-1 83 0 134.5 45.5T582 318q1 16 .5 32t-2 31.5-4.5 30-7 28.5-9 27-11 25-12.5 22.5T522 534t-17 17l-3 3q-22 19-42 22-3 1-5.5 1t-5 .5-5.5.5q-28 0-45-16t-18-37q-1-30 24-96 10-28 15-44t9-41 1-46q-5-35-33-59t-64-24q-9 0-18.5 2t-18.5 5q-25 10-43.5 29T225 294.5t-12 53 1 57.5 14 57q-3 17-8.5 37.5t-9 34.5-10.5 38q-12 46-18.5 70.5T166 711t-11.5 76.5T153 862t8 82l6 31 28-12q13-5 24.5-16.5t17-19.5 14.5-23q5-8 7-12 28-44 47-97t34-118q62 47 154 37 64-7 116.5-43.5t84.5-90 49-117T759 335zM279 465l1-7-3-7q-14-37-15.5-74t11.5-67 41-41q5-2 9.5-2.5t9.5-.5q12 0 22 5t17 14 8 20q2 16-1.5 35.5T371 373t-14 39q-27 76-26 115t32 70 81 31q11 0 23-2t23-5.5 19.5-9.5 13.5-9.5 12-10.5l3-3q48-41 73-114.5T632 315q-5-103-79-162.5T367 101q-22 2-42.5 6.5T285 119t-36.5 17-33.5 22-30 25.5-25.5 30-20.5 34-16 36.5-11 40q-7 40 0 82.5t26 71.5q3 6 9 12t6 7q1 4 0 9.5t-4 12-6 13.5q-51-22-71-82.5T62 322q15-99 90.5-169T335 68q31-4 61-4 134 0 222 77t91 195q1 76-23 146.5t-76 122T487 664q-7 1-14.5 1.5t-13.5.5q-38 0-63.5-12.5T342 613l-32-32-10 44q-11 52-20.5 86.5t-26.5 78-37 75.5q-2 3-3 5t-2.5 4.5-3.5 5.5-3 5q-4-50 3-107.5t15.5-93.5 26.5-99q8-29 11-41.5t9-36 10-42.5z" fill="#646464"/></svg>
