<?xml version="1.0"?>
<svg xmlns="http://www.w3.org/2000/svg" xmlns:xlink="http://www.w3.org/1999/xlink" aria-hidden="true" width="1em" height="1em" viewBox="0 0 1024 896" data-icon="simple-line-icons:social-soundcloud" data-width="1em" data-height="1em" data-inline="false" class="iconify"><path d="M1022 514q0 66-47 112.5T862 673h-63q-14 0-23-9t-9-23q0-3 .5-5.5t1.5-5 2.5-5 3-4.5 3.5-4 4.5-3l5-2 5.5-1.5 6-.5h63q26 0 48-13t35-35 13-48q0-16-5-30.5t-13.5-26T919 437t-26.5-14-30.5-5q-20 0-38.5-8T792 388t-20-33v-1q-13-34-37-62t-57.5-44.5T606 228q-9 0-15.5 4.5T580 244t-4 15v382q0 7-2.5 12.5t-7 10-10.5 7-12 2.5q-13 0-22.5-9.5T512 641V259q0-15 5-29.5t13.5-26 20-20.5 26-14 30.5-5q77 4 138 50.5T831 332l1 1q7 22 30 22h7q64 2 108.5 48.5T1022 514zM416.5 673q-13.5 0-22.5-9t-9-23V291q0-13 9-22.5t22.5-9.5 22.5 9.5 9 22.5v350q0 13-9 22.5t-22.5 9.5zM289 673q-13 0-22.5-9t-9.5-23V275q0-13 9.5-22.5T289 243q8 0 15.5 4t12 11.5T321 275v366q0 13-9.5 22.5T289 673zm-128 0q-5 0-10-1.5t-8.5-4.5-6.5-7-4.5-8.5T130 641V386q0-4 1-8t3-7.5 5-6.5 6.5-5 7.5-3 8-1q14 0 23 9t9 22v255q0 13-9 22.5t-23 9.5zM34 609q-13 0-22.5-9T2 578V450q0-13 9.5-22.5T34 418q9 0 16 4.5t11.5 12T66 450v128q0 13-9.5 22T34 609zm637 0q13 0 22.5 9.5T703 641t-9.5 22.5T671 673q-8 0-15.5-4.5t-12-11.5-4.5-15.5 4.5-16 12-12T671 609z" fill="#646464"/></svg>
