<?xml version="1.0"?>
<svg xmlns="http://www.w3.org/2000/svg" xmlns:xlink="http://www.w3.org/1999/xlink" aria-hidden="true" width="1em" height="1em" viewBox="0 0 736 1024" data-icon="simple-line-icons:social-foursqare" data-width="1em" data-height="1em" data-inline="false" class="iconify"><path d="M1 76l2-6Q25 0 98 0h543q24 0 42 6 45 12 50 60 4 29-11 99-17 86-50 244.5T631 605q-6 30-15 47-23 43-82 44H382q-14 0-22 9-41 48-108 126-140 162-151 175-22 25-60 17-29-7-38-40 0-1-1-3t-1-3V76zm86 848q1-1 1-2l2-3q39-49 97-121 73-92 109-137 24-30 61-29h173q20 0 30-8.5t15-28.5q2-14 11.5-59t14.5-69q4-22-5.5-33.5T564 422q-171 0-186 1-40 1-58.5-17T304 348q3-62 62-62h237q19 0 28.5-7.5T645 253q10-50 26-128 10-47-38-47H125q-23 0-32 9.5T84 120v789q0 10 3 15z" fill="#646464"/></svg>
