<?xml version="1.0"?>
<svg xmlns="http://www.w3.org/2000/svg" xmlns:xlink="http://www.w3.org/1999/xlink" aria-hidden="true" width="1em" height="1em" viewBox="0 0 1024 1024" data-icon="simple-line-icons:social-dribbble" data-width="1em" data-height="1em" data-inline="false" class="iconify"><path d="M512 0q-52 0-101.5 10T315 40l-6 3Q171 103 85.5 230T0 512q0 104 40.5 198.5T150 874t163.5 109.5T512 1024t198.5-40.5T874 874t109.5-163.5T1024 512q0-83-26-161t-73.5-141T814 99.5 673 26 512 0zm448 512q0 2-.5 6t-.5 5q-155-42-326-4-5-12-10.5-23.5t-11-23.5-11.5-24-13-24q0-1-1.5-3.5T583 416q110-42 172.5-96T846 214q113 128 114 298zM798 167q-6 14-14.5 28t-28 36-44.5 42.5-66.5 44T553 359Q459 188 378 85q65-21 134-21 53 0 104.5 12.5T713 112t85 55zm-482-57q18 21 39 50t59 89.5T491 380q-70 21-140 33.5t-125.5 15-90 2T72 428q20-105 85-188.5T316 110zM64 512q0-9 1-21 40 5 88 5 183 0 369-59 2 4 4.5 8.5t4.5 8.5q10 20 20 40.5t19 41.5q-8 2-16.5 5l-17 6-16.5 6.5-16.5 7L486 568q-64 29-118 65.5t-89.5 73-56 62.5-34.5 51q-59-61-91.5-140.5T64 512zm172 352q10-18 25.5-39.5T309 767t85.5-74T513 626q13-6 27-11.5t27.5-10.5 27.5-9q67 172 88 331-40 16-83 25t-88 9q-154 0-276-96zm508 31q-23-154-86-316 51-10 102.5-12t91 2.5 62 9T953 587q-11 65-40 123t-72 105-97 80z" fill="#646464"/></svg>
