<?xml version="1.0"?>
<svg xmlns="http://www.w3.org/2000/svg" xmlns:xlink="http://www.w3.org/1999/xlink" aria-hidden="true" width="1em" height="1em" viewBox="0 0 1024 896" data-icon="simple-line-icons:speech" data-width="1em" data-height="1em" data-inline="false" class="iconify"><path d="M960 0H64Q37 0 18.5 18.5T0 64v577q0 27 18.5 45.5T64 705h128v159q0 5 1 9.5t3.5 8.5 6.5 7 8 5q3 1 6 1.5t7 .5q13 0 22-9l185-182h529q27 0 45.5-18.5T1024 641V64q0-11-3-20.5t-9-17.5-14-14-18-9-20-3zm0 641H405L256 788V641H64V64h896v577zM224 385h576q13 0 22.5-9.5T832 353t-9.5-22.5T800 321H224q-13 0-22.5 9.5T192 353t9.5 22.5T224 385zm0-128h576q13 0 22.5-9.5T832 225t-9.5-22.5T800 193H224q-13 0-22.5 9.5T192 225t9.5 22.5T224 257zm0 256h384q13 0 22.5-9.5T640 481t-9.5-22.5T608 449H224q-13 0-22.5 9.5T192 481t9.5 22.5T224 513z" fill="#646464"/></svg>
