<?xml version="1.0"?>
<svg xmlns="http://www.w3.org/2000/svg" xmlns:xlink="http://www.w3.org/1999/xlink" aria-hidden="true" width="1em" height="1em" viewBox="0 0 1024 992" data-icon="simple-line-icons:star" data-width="1em" data-height="1em" data-inline="false" class="iconify"><path d="M512 61l137 286 313 46-226 226 7 45 46 270-277-148-277 148 46-270 7-45L62 393l312-46 21-43zm0-61q-22 0-40 11t-27 30L329 282 62 321q-20 3-36 16T3 370q-14 41 18 73l195 195-45 271q-4 20 4.5 39t25.5 31q3 2 6.5 4t7 3.5 7 2.5l7 2 7.5 1h8q19 0 35-9l233-125 232 125q9 5 18 7t18 2q24 0 43-13 17-12 25.5-31t4.5-39l-45-271 195-195q32-32 18-73-7-20-23-33t-36-16l-267-39L579 41q-2-5-5-9t-6.5-8-7.5-7.5-8.5-6-9-4.5-9.5-3.5-10.5-2T512 0z" fill="#646464"/></svg>
