<?xml version="1.0"?>
<svg xmlns="http://www.w3.org/2000/svg" xmlns:xlink="http://www.w3.org/1999/xlink" aria-hidden="true" width="1em" height="1em" viewBox="0 0 1024 1024" data-icon="simple-line-icons:support" data-width="1em" data-height="1em" data-inline="false" class="iconify"><path d="M512 0Q373 0 255 68.5T68.5 255 0 512t68.5 257T255 955.5t257 68.5 257-68.5T955.5 769t68.5-257-68.5-257T769 68.5 512 0zm128 83q54 16 102 45t86.5 67.5T896 282t45 102H733q-34-59-93-93V83zm64 429q0 80-56.5 136T512 704q-52 0-96-25.5t-70-70-26-96.5q0-79 56.5-135.5T512 320q52 0 96 26t70 70 26 96zM448 69q32-5 64-5t64 5v196q-32-9-63.5-9t-64.5 9V69zm-64 14v208q-29 17-52.5 40.5T291 384H83q45-151 175-240 59-41 126-61zM64 512q0-8 .5-16l1-16 1.5-16 2-16h196q-9 32-9 64t8 64H69q-5-34-5-64zm320 429q-108-32-188.5-112.5T83 640h208q34 59 93 93v208zm192 14q-32 5-64 5t-64-5V760q33 8 64.5 8t63.5-8v195zm64-14V733q59-34 93-93h208q-22 72-65 132.5t-103.5 104T640 941zm120-365q4-16 6-32t2-32q0-32-9-64h196q5 34 5 64t-5 64H760z" fill="#646464"/></svg>
