<?xml version="1.0"?>
<svg xmlns="http://www.w3.org/2000/svg" xmlns:xlink="http://www.w3.org/1999/xlink" aria-hidden="true" width="1em" height="1em" viewBox="0 0 1024 1056" data-icon="simple-line-icons:symbol-male" data-width="1em" data-height="1em" data-inline="false" class="iconify"><path d="M1023 39q0-5-1-9.5t-4-7.5q-7-7-17-6h-12l-294-1q-9 0-16 7t-7 17v16q1 12 8.5 18.5T698 79l216 1-257 254q-111-93-256-93-109 0-201 53.5T54.5 440 1 641q0 81 31.5 155t85 128 127.5 85.5 156 31.5q108 0 200.5-53.5t146-145.5T801 641q0-149-98-262l257-255-1 219q0 6 3 12t8.5 9 11.5 3h16q5 0 9.5-1.5t7.5-4 5-6.5 2-9l1-295-.5-.5-.5-.5zM737 641q0 91-45 168.5T569.5 932 401 977q-69 0-131-26.5T162.5 879t-72-107.5T64 641q0-91 45-169t122.5-123T401 304q55 0 106 17t92.5 48.5T672 442t48 92.5T737 641z" fill="#646464"/></svg>
