<?xml version="1.0"?>
<svg xmlns="http://www.w3.org/2000/svg" xmlns:xlink="http://www.w3.org/1999/xlink" aria-hidden="true" width="1em" height="1em" viewBox="0 0 1024 1024" data-icon="simple-line-icons:tag" data-width="1em" data-height="1em" data-inline="false" class="iconify"><path d="M1024 416V78q0-32-23-55T946 0H601q-55 0-76 21L19 527Q0 546 0 573q0 13 5 24.5T19 618l387 387q18 19 45 19t46-19l506-506q21-21 21-78v-5zm-67 38L451 960 64 573 570 67q1-1 3-1.5t5-.5 6-.5 6.5-.5H946q6 0 10 4t4 10v339q0 32-3 37zM768 128q-53 0-90.5 37.5T640 256q0 35 17 64.5t46.5 46.5 64.5 17q53 0 90.5-37.5T896 256q0-35-17-64.5T832.5 145 768 128zm.5 192q-26.5 0-45.5-18.5T704 256t19-45.5 45.5-18.5 45 18.5T832 256t-18.5 45.5-45 18.5z" fill="#646464"/></svg>
