<?xml version="1.0"?>
<svg xmlns="http://www.w3.org/2000/svg" xmlns:xlink="http://www.w3.org/1999/xlink" aria-hidden="true" width="1em" height="1em" viewBox="0 0 1024 1024" data-icon="simple-line-icons:target" data-width="1em" data-height="1em" data-inline="false" class="iconify"><path d="M992 480h-97q-12-140-111.5-239.5T544 130V32q0-13-9.5-22.5T512 0t-22.5 9.5T480 32v98q-92 7-169.5 55T185 310.5 129 480H32q-13 0-22.5 9.5T0 512t9.5 22.5T32 544h97q12 140 111.5 239.5T480 894v98q0 13 9.5 22.5t22.5 9.5 22.5-9.5T544 992v-98q140-11 239.5-110.5T895 544h97q13 0 22.5-9.5t9.5-22.5-9.5-22.5T992 480zM480 194v286H194q7-75 46.5-137.5t102-102T480 194zM194 544h286v286q-113-11-194-92t-92-194zm350 286V544h286q-11 113-92 194t-194 92zm0-350V194q37 3 72.5 15.5T682 241t56 45 45 56 31.5 65.5T830 480H544z" fill="#646464"/></svg>
