<?xml version="1.0"?>
<svg xmlns="http://www.w3.org/2000/svg" xmlns:xlink="http://www.w3.org/1999/xlink" aria-hidden="true" width="1em" height="1em" viewBox="0 0 1024 1024" data-icon="simple-line-icons:umbrella" data-width="1em" data-height="1em" data-inline="false" class="iconify"><path d="M1024 510q0 13-9 22.5t-23 9.5H543v324q0 43-21 79t-57.5 57.5T385 1024q-65 0-111.5-46.5T227 866q0-13 9.5-22.5T259 834q9 0 16.5 4t11.5 11.5 4 16.5q0 39 27.5 66.5T385 960t67-27.5 28-66.5V542H32q-9 0-16.5-4.5T4 525.5 0 510q0-123 57.5-215T223 151.5 480 95V32q0-6 2.5-12T489 9.5t10-7T512 0q13 0 22 9.5t9 22.5v63q259 9 387 152 94 106 94 263zm-65-32q-6-75-39-134.5T830 243t-137.5-63T512 158q-201 0-318 84.5T65 478h894z" fill="#646464"/></svg>
