<?xml version="1.0"?>
<svg xmlns="http://www.w3.org/2000/svg" xmlns:xlink="http://www.w3.org/1999/xlink" aria-hidden="true" width="1em" height="1em" viewBox="0 0 1024 1024" data-icon="simple-line-icons:user" data-width="1em" data-height="1em" data-inline="false" class="iconify"><path d="M512 64q39 0 80.5 15.5t72.5 39 51 52 20 53.5v160q0 57-24 127t-71 106q-8 7-14 16.5t-8.5 20T617 675q5 36 37 51l279 132 2 .5 4 1.5 5 3 5.5 4.5 5 6.5 3.5 10 1 13v62l-895 1v-65q0-25 27-37l281-133q32-15 36.5-50.5T385 617q-46-37-71.5-107.5T288 384V224q0-33 33-70.5T407 90t105-26zm0-64q-69 0-136.5 33.5t-109.5 86T224 224v160q0 65 30.5 149.5T345 667L64 800q-3 1-7 3t-15 9-19.5 14T7 843.5 0 863v97q0 26 18.5 44.5T64 1023h896q26 0 44.5-18.5T1023 960v-97q0-10-6.5-20.5t-16-18T982 811t-16-9l-6-2-279-133q60-47 89.5-130T800 384V224q0-39-25.5-79.5T709 72t-93-52T512 0z" fill="#646464"/></svg>
