<?xml version="1.0"?>
<svg xmlns="http://www.w3.org/2000/svg" xmlns:xlink="http://www.w3.org/1999/xlink" aria-hidden="true" width="1em" height="1em" viewBox="0 0 1024 1024" data-icon="simple-line-icons:user-follow" data-width="1em" data-height="1em" data-inline="false" class="iconify"><path d="M64 895q0-25 27-37l281-133q15-7 25-20.5t12-29.5q4-36-24-58-45-37-71-107.5T288 384V224q0-16 9-35t24.5-36.5T359 119t46.5-28T458 71.5t54-7.5 54 7 52.5 19 46 28.5 37 34 25 36T736 224v160q0 57-24 127t-71 106q-8 7-14 16.5t-8.5 20T617 675q2 17 12 30.5t25 20.5l96 45 16-64-85-39q60-48 89.5-130.5T800 384V224q0-31-16.5-64t-45-61T674 48.5 595.5 13 512 0q-69 0-136.5 33.5t-109.5 86T224 224v160q0 66 30.5 150.5T345 667L64 800l-32 18Q1 842 0 864v96q0 26 19 45t45 19h704v-64H64v-65zm928-63h-96v-96q0-13-9.5-22.5T864 704q-9 0-16 4t-11.5 11.5T832 736v96h-96q-9 0-16 4t-11.5 11.5T704 864q0 13 9.5 22.5T736 896h96v96q0 13 9.5 22.5t22.5 9.5 22.5-9.5T896 992v-96h96q13 0 22.5-9.5t9.5-22.5-9.5-22.5T992 832z" fill="#646464"/></svg>
