<?xml version="1.0"?>
<svg xmlns="http://www.w3.org/2000/svg" xmlns:xlink="http://www.w3.org/1999/xlink" aria-hidden="true" width="1em" height="1em" viewBox="0 0 1040 1024" data-icon="simple-line-icons:user-unfollow" data-width="1em" data-height="1em" data-inline="false" class="iconify"><path d="M815 384V224q0-52-42-104.5t-109.5-86T527.5 0 391 33.5t-110 86T239 224v160q0 66 30.5 150T360 667L79 800q-2 1-6.5 3T57 812t-19.5 14T22 843.5 15 864v96q0 26 19 45t45 19h608v-64H79v-65q0-25 27-37l281-133q15-7 25-20.5t12-29.5q1-8 0-16.5t-4-16-8-14-11-11.5q-46-37-72-107.5T303 384V224q0-33 33-70.5T422.5 90 527 64q52 0 105.5 25.5t86 63T751 224v160q0 57-24 127t-70 106q-28 22-24 58 2 17 12 30.5t25 20.5l18 8 28-52-20-15q61-47 90-129.5T815 384zm126 495l90-91q9-9 9-22.5t-9-22.5-22.5-9-22.5 9l-91 91-90-91q-9-9-22.5-9t-23 9-9.5 22.5 10 22.5l90 91-90 90q-10 10-10 23t9.5 22.5 23 9.5 22.5-9l90-91 91 91q9 9 22.5 9t22.5-9.5 9-22.5-9-23z" fill="#646464"/></svg>
