<?xml version="1.0"?>
<svg xmlns="http://www.w3.org/2000/svg" xmlns:xlink="http://www.w3.org/1999/xlink" aria-hidden="true" width="1em" height="1em" viewBox="0 0 1024 1024" data-icon="simple-line-icons:user-female" data-width="1em" data-height="1em" data-inline="false" class="iconify"><path d="M960 803L682 671q11-6 43.5-12.5t63-11.5 57-13.5T876 613q-3-3-6.5-9.5t-14.5-28-19.5-44-18-55.5-13.5-65q-1-11-9.5-74T780 226q-11-99-86.5-162.5T512 0q-70 0-128.5 28.5T288 109t-44 117q-4 36-9 72t-9 66.5-6 46.5q-7 51-24.5 101.5T163 588l-15 25q4 12 30.5 20.5t57 13.5 63 11.5T342 671L64 803q-3 1-7 2.5T42 814t-19.5 15T7 850t-7 28v85q0 13 5 24.5t13.5 19.5 20.5 12.5 25 4.5h896q27 0 45.5-17.5T1024 963v-85q0-47-57-73-6-2-7-2zM64 960v-82q0-2 7-7t15-8l5-3 279-132q16-7 26-22.5t10-34.5q1-4 .5-8t-1.5-7.5-2.5-7.5-3.5-7.5-4-6.5-5-6-6-5.5l-6-5-7-4.5q-23-11-95-24-23-4-39-7 36-82 46-164 2-17 7-54 5-33 9-64t8-66q9-75 66-122.5T512 64q82 0 139 47.5T717 234q6 57 17 130 1 9 2 15t2 13.5 1.5 14T741 418q10 82 46 164-16 3-39 7-72 13-95 24-11 6-19 15t-12.5 20-3.5 23q0 6 1 12t3 11.5 5.5 10.5 7.5 9.5 9 8 10 5.5l279 133 5 2q7 3 14 7.5t8 7.5v82H64z" fill="#646464"/></svg>
