<?xml version="1.0"?>
<svg xmlns="http://www.w3.org/2000/svg" xmlns:xlink="http://www.w3.org/1999/xlink" aria-hidden="true" width="1em" height="1em" viewBox="0 0 1024 896" data-icon="simple-line-icons:vector" data-width="1em" data-height="1em" data-inline="false" class="iconify"><path d="M992 608h-32v-2q0-48-10-94t-29-87.5-45.5-78.5-59.5-67.5-72-54.5h161q8 15 23 23.5t32 8.5q27 0 45.5-18.5T1024 192t-18.5-45.5T960 128q-36 0-55 32H608v-32q0-13-9.5-22.5T576 96H448q-13 0-22.5 9.5T416 128v32H119q-19-32-55-32-27 0-45.5 18.5T0 192t18.5 45.5T64 256q36 0 55-32h161q-99 60-157.5 161.5T64 606v2H32q-13 0-22.5 9.5T0 640v128q0 13 9.5 22.5T32 800h128q13 0 22.5-9.5T192 768V640q0-13-9.5-22.5T160 608h-32v-2q0-132 81.5-235.5T416 235v21q0 13 9.5 22.5T448 288h128q13 0 22.5-9.5T608 256v-21q61 16 114.5 51t91.5 83.5 60 110T896 606v2h-32q-13 0-22.5 9.5T832 640v128q0 13 9.5 22.5T864 800h128q13 0 22.5-9.5t9.5-22.5V640q0-9-4.5-16t-11.5-11.5-16-4.5zM128 736H64v-64h64v64zm416-512h-64v-64h64v64zm416 512h-64v-64h64v64z" fill="#646464"/></svg>
