<?xml version="1.0"?>
<svg xmlns="http://www.w3.org/2000/svg" xmlns:xlink="http://www.w3.org/1999/xlink" aria-hidden="true" width="1em" height="1em" viewBox="0 0 992 928" data-icon="simple-line-icons:volume-off" data-width="1em" data-height="1em" data-inline="false" class="iconify"><path d="M559.5 18Q543 9 527 20L206 272H99q-41 0-70 25T0 358l2 211q0 36 29 61.5t70 25.5h106l320 252q4 3 8.5 4.5t8.5 1.5q8 0 15-4 17-9 17-28V46q0-19-16.5-28zM512 822L235 597q-8-5-18-5H101q-15 0-25-7t-10-16l-2-211q0-8 10-15t25-7h116q10 0 18-6l279-224v716zm366-357l105-106q9-10 9-23t-9.5-22.5T960 304t-23 9L833 419 729 313q-10-9-23-9t-22.5 9.5T674 336t9 23l105 106-104 104-4 6-3 6.5-1.5 7v7l1.5 7 3 6.5 4 6q10 9 23 9t23-9l103-105 103 105q10 9 23 9t22.5-9.5T991 592t-9-23z" fill="#646464"/></svg>
