<?xml version="1.0"?>
<svg xmlns="http://www.w3.org/2000/svg" xmlns:xlink="http://www.w3.org/1999/xlink" aria-hidden="true" width="1em" height="1em" viewBox="0 0 1024 928" data-icon="simple-line-icons:volume-2" data-width="1em" data-height="1em" data-inline="false" class="iconify"><path d="M574 18q-16-9-32 2L220 272H114q-41 0-70 25t-29 61l2 211q0 36 29 61.5t70 25.5h106l320 252q8 6 17 6 3 0 5.5-.5t5-1.5 4.5-2q8-4 12.5-11.5T591 882V46q-1-19-17-28zm-47 804L250 597q-8-5-18-5H116q-10 0-18.5-3.5T85 580t-4-11l-2-211q0-4 2.5-8t7-7 11-5 14.5-2h116q10 0 18-6l279-224v716zm321-352q0-42-17.5-78.5t-49.5-61-71-30.5q-14-3-24.5 5T673 326t5.5 24 20.5 13q38 6 61.5 36t23.5 71q0 38-24 68.5T698 576q-6 1-11.5 5t-9 9-4.5 11 0 13q2 11 11 18.5t20 7.5q3 0 6-1 60-12 99-60t39-109zm-42-294q-12-5-24.5.5t-17 18 1 24.5 18.5 17q35 13 65.5 37t51.5 54.5 32.5 67T945 470q0 77-44.5 141.5T784 704q-13 4-18.5 16t-.5 25q4 9 12 14.5t18 5.5q3 0 5.5-.5t5.5-1.5q91-34 147-115t56-178.5T953 291 806 176z" fill="#646464"/></svg>
