<?xml version="1.0"?>
<svg xmlns="http://www.w3.org/2000/svg" xmlns:xlink="http://www.w3.org/1999/xlink" aria-hidden="true" width="1em" height="1em" viewBox="0 0 1024 928" data-icon="simple-line-icons:wallet" data-width="1em" data-height="1em" data-inline="false" class="iconify"><path d="M1024 242q0-11-2.5-22.5t-9.5-27-24-28.5-42-20L223 0q-26 0-48 13t-35 35-13 48v128H95q-39 1-67 29T0 320v512q0 40 28 68t68 28h832q40 0 68-28t28-68V242zM191 96q0-13 8.5-22T221 64l706 143-2.5 4.5-10 9L896 224H191V96zm769 736q0 13-9.5 22.5T928 864H96q-13 0-22.5-9.5T64 832V320q0-13 9.5-22.5T96 288h800q26 0 45-8.5t19-23.5v576zM191.5 512q-26.5 0-45 19T128 576.5t18.5 45 45 18.5 45.5-18.5 19-45-19-45.5-45.5-19z" fill="#646464"/></svg>
