<svg width="321" height="124" viewBox="0 0 321 124" fill="none" xmlns="http://www.w3.org/2000/svg">
<path d="M133.542 24.5928H128.478V33.2143H133.542C136.765 33.2143 139.486 32.3355 139.486 28.9037C139.486 25.4288 136.765 24.5928 133.542 24.5928ZM133.249 19.0675C140.323 19.0675 145.89 21.3277 145.89 28.9037C145.89 36.4794 140.323 38.7395 133.249 38.7395H128.478V48.3664H122.199V19.0675H133.249Z" fill="#2B2B2A"/>
<path d="M155.641 48.9514C154.218 48.9514 152.669 48.6596 151.203 48.2394V42.925C152.209 43.2595 153.422 43.4688 154.594 43.4688C156.519 43.4688 158.069 43.0089 159.114 40.8315L159.617 39.785L147.939 19.0675H154.887L162.589 34.1357L168.993 19.0675H175.898L165.267 41.669C162.589 47.361 159.366 48.9514 155.641 48.9514Z" fill="#2B2B2A"/>
<path d="M192.473 18.481C195.402 18.481 198.333 19.1091 200.844 20.365V26.3503C198.96 24.885 196.24 24.0474 193.52 24.0474C188.371 24.0474 183.181 26.9785 183.181 34.0514C183.139 40.497 188.413 43.3434 193.52 43.3434C196.533 43.3434 199.296 42.5062 201.053 40.9154V47.0689C198.542 48.2821 195.654 48.9515 192.557 48.9515C184.729 48.9515 176.736 44.2637 176.736 34.0514C176.777 23.3369 184.646 18.481 192.473 18.481Z" fill="#2B2B2A"/>
<path d="M220.141 18.481C223.07 18.481 226 19.1091 228.511 20.365V26.3503C226.627 24.885 223.908 24.0474 221.186 24.0474C216.038 24.0474 210.849 26.9785 210.849 34.0514C210.806 40.497 216.081 43.3434 221.186 43.3434C224.199 43.3434 226.962 42.5062 228.721 40.9154V47.0689C226.209 48.2821 223.321 48.9515 220.224 48.9515C212.397 48.9515 204.403 44.2637 204.403 34.0514C204.445 23.3369 212.313 18.481 220.141 18.481Z" fill="#2B2B2A"/>
<path d="M234.454 48.3664V19.0675H240.733V30.7024H245.462L252.87 19.0675H259.859L250.359 33.3397L260.403 48.3664H253.457L245.462 36.3955H240.733V48.3664H234.454Z" fill="#2B2B2A"/>
<path d="M272.039 37.693H281.498L277.397 27.1874C277.187 26.6008 276.978 26.0154 276.769 24.8849C276.559 26.0154 276.35 26.6008 276.099 27.1874L272.039 37.693ZM261.409 48.3664L273.378 19.0675H280.159L292.087 48.3664H285.601L283.466 42.8823H270.071L267.896 48.3664H261.409Z" fill="#2B2B2A"/>
<path d="M307.322 33.1731H312.931V24.5928H307.322C304.142 24.5928 301.964 25.9315 301.964 28.861C301.964 31.7916 304.142 33.1731 307.322 33.1731ZM293.887 48.3664L302.049 37.6091C298.282 36.3528 295.519 33.633 295.519 28.861C295.519 21.8303 301.086 19.0675 307.281 19.0675H319.21V48.3664H312.931V38.405H308.537L301.129 48.3664H293.887Z" fill="#2B2B2A"/>
<path d="M145.101 62.845V68.4954H136.101V92.1434H129.865V68.4954H120.866V62.845H145.101Z" fill="#2B2B2A"/>
<path d="M161.173 68.3703H156.108V76.9928H161.173C164.396 76.9928 167.116 76.1141 167.116 72.6808C167.116 69.2074 164.396 68.3703 161.173 68.3703ZM160.88 62.845C167.953 62.845 173.52 65.1047 173.52 72.6808C173.52 80.2568 167.953 82.517 160.88 82.517H156.108V92.1434H149.83V62.845H160.88Z" fill="#2B2B2A"/>
<path d="M182.357 81.4716H191.816L187.714 70.9649C187.505 70.3794 187.296 69.7929 187.086 68.6635C186.877 69.7929 186.668 70.3794 186.417 70.9649L182.357 81.4716ZM171.726 92.1434L183.697 62.845H190.477L202.405 92.1434H195.918L193.784 86.6609H180.39L178.213 92.1434H171.726Z" fill="#2B2B2A"/>
<path d="M206.049 92.1434V62.845H231.539V92.1434H225.302V68.4954H212.327V92.1434H206.049Z" fill="#2B2B2A"/>
<path d="M260.053 62.845V68.3703H245.697V74.6061H258.797V80.0902H245.697V86.6197H260.304V92.1434H239.418V62.845H260.053Z" fill="#2B2B2A"/>
<path d="M277.066 92.73C273.593 92.73 270.118 92.2273 266.226 90.8463V84.8195C270.077 86.7021 273.509 87.1208 276.606 87.0796C279.787 87.0796 282.842 86.2848 282.842 83.2703C282.842 80.5501 280.416 79.8381 277.569 79.8381H270.955L270.998 74.3143H277.15C279.913 74.3143 281.713 73.3089 281.713 71.2582C281.713 68.9141 279.619 67.9103 275.894 67.9103C273.258 67.8687 270.286 68.4541 266.729 70.1701V64.1848C270.118 62.7611 273.383 62.2595 276.439 62.2595C283.303 62.2595 287.99 64.8542 287.99 70.2543C287.99 73.4768 286.149 75.6942 283.304 76.6568C286.358 77.494 289.163 79.7969 289.163 84.1913C289.163 90.7208 282.885 92.73 277.066 92.73Z" fill="#2B2B2A"/>
<path d="M301.191 81.4716H310.65L306.549 70.9649C306.339 70.3794 306.13 69.7929 305.92 68.6635C305.711 69.7929 305.502 70.3794 305.25 70.9649L301.191 81.4716ZM290.559 92.1434L302.53 62.845H309.31L321.239 92.1434H314.751L312.617 86.6609H299.223L297.047 92.1434H290.559Z" fill="#2B2B2A"/>
<path d="M86.64 69.526C86.1078 71.7488 84.3598 72.4329 84.3598 72.4329C84.3598 72.4329 83.1102 71.0314 83.6439 68.8091C84.1757 66.5875 85.9237 65.9022 85.9237 65.9022C85.9237 65.9022 87.1717 67.3048 86.64 69.526ZM82.8438 84.6861C82.8438 84.6861 81.1596 83.8822 80.7983 81.6303C80.4396 79.3781 81.7863 78.0674 81.7863 78.0674C81.7863 78.0674 83.4704 78.8717 83.8302 81.125C84.1904 83.3768 82.8438 84.6861 82.8438 84.6861ZM78.9426 60.3717C78.6066 57.701 80.256 56.2115 80.256 56.2115C80.256 56.2115 82.2209 57.2301 82.5569 59.8996C82.8944 62.5702 81.2439 64.0597 81.2439 64.0597C81.2439 64.0597 79.2786 63.0423 78.9426 60.3717ZM77.5865 75.0729C77.3786 77.6422 75.5436 78.7156 75.5436 78.7156C75.5436 78.7156 73.9037 77.3753 74.1119 74.806C74.3198 72.2367 76.1544 71.1637 76.1544 71.1637C76.1544 71.1637 77.7932 72.5035 77.5865 75.0729ZM72.2143 94.6447C69.9439 94.4633 68.993 92.8396 68.993 92.8396C68.993 92.8396 70.176 91.386 72.4479 91.5675C74.7186 91.7489 75.6691 93.3729 75.6691 93.3729C75.6691 93.3729 74.4865 94.8262 72.2143 94.6447ZM65.1371 80.9088C62.5477 81.3635 61.0197 79.8249 61.0197 79.8249C61.0197 79.8249 61.9211 77.861 64.5105 77.4075C67.0983 76.9543 68.6279 78.4914 68.6279 78.4914C68.6279 78.4914 67.7249 80.4557 65.1371 80.9088ZM63.9866 90.5836C61.7012 92.5543 59.2917 91.945 59.2917 91.945C59.2917 91.945 59.0279 89.4849 61.3118 87.5143C63.5969 85.5437 66.0064 86.154 66.0064 86.154C66.0064 86.154 66.2717 88.613 63.9866 90.5836ZM54.4959 98.5769C52.3812 97.7273 51.9572 95.8954 51.9572 95.8954C51.9572 95.8954 53.5185 94.8583 55.6331 95.7075C57.7478 96.5557 58.1718 98.3887 58.1718 98.3887C58.1718 98.3887 56.6105 99.4247 54.4959 98.5769ZM48.768 88.3182C48.768 88.3182 49.612 86.2209 52.2905 85.6155C54.9691 85.0115 56.64 86.5422 56.64 86.5422C56.64 86.5422 55.7956 88.6395 53.1171 89.2434C50.4397 89.8474 48.768 88.3182 48.768 88.3182ZM44.5758 78.6729C44.5758 78.6729 46.3185 76.633 49.573 76.9569C52.8264 77.2824 54.1383 79.6276 54.1383 79.6276C54.1383 79.6276 52.396 81.6674 49.1426 81.3423C45.8892 81.0169 44.5758 78.6729 44.5758 78.6729ZM42.8493 94.5408C40.7346 93.6927 40.3106 91.8596 40.3106 91.8596C40.3106 91.8596 41.8704 90.8236 43.985 91.6714C46.0997 92.5195 46.5252 94.353 46.5252 94.353C46.5252 94.353 44.9639 95.3889 42.8493 94.5408ZM36.4706 81.9289C34.5959 79.7969 35.1224 77.5303 35.1224 77.5303C35.1224 77.5303 37.409 77.2635 39.2826 79.3955C41.1572 81.5275 40.6303 83.7956 40.6303 83.7956C40.6303 83.7956 38.3437 84.0609 36.4706 81.9289ZM30.4997 90.7288C27.4439 89.7355 26.6733 87.1968 26.6733 87.1968C26.6733 87.1968 28.7706 85.5916 31.8267 86.5834C34.8824 87.577 35.6531 90.1142 35.6531 90.1142C35.6531 90.1142 33.5558 91.7209 30.4997 90.7288ZM35.2373 101.31C35.2373 101.31 33.3638 101.356 32.0251 99.5033C30.6864 97.6513 31.3025 95.8689 31.3025 95.8689C31.3025 95.8689 33.1745 95.8247 34.5132 97.6767C35.8519 99.5275 35.2373 101.31 35.2373 101.31ZM25.9344 82.6062C25.9344 82.6062 23.3477 82.4048 21.7546 79.674C20.1627 76.9433 21.2546 74.5808 21.2546 74.5808C21.2546 74.5808 23.8413 74.7822 25.4344 77.5141C27.0267 80.2448 25.9344 82.6062 25.9344 82.6062ZM26.3452 45.4637C26.3452 45.4637 27.885 46.5356 27.885 48.8211C27.885 51.1062 26.3452 52.1784 26.3452 52.1784C26.3452 52.1784 24.804 51.1062 24.804 48.8211C24.804 46.5356 26.3452 45.4637 26.3452 45.4637ZM29.7559 69.3114C29.5317 72.0783 27.5573 73.233 27.5573 73.233C27.5573 73.233 25.793 71.7915 26.0172 69.0264C26.2398 66.2594 28.2146 65.1047 28.2146 65.1047C28.2146 65.1047 29.98 66.5463 29.7559 69.3114ZM29.0786 27.7049C29.5265 27.4543 30.093 27.6115 30.3466 28.0598C31.0813 29.3637 32.7946 30.205 34.7146 30.205C36.4479 30.205 38.0414 29.5077 38.8717 28.3848C39.1786 27.9717 39.7625 27.8863 40.1745 28.1902C40.588 28.4956 40.6746 29.0795 40.3692 29.493C39.1945 31.0811 37.0277 32.0676 34.7146 32.0676C32.1332 32.0676 29.7812 30.8528 28.7237 28.9729C28.472 28.525 28.6303 27.957 29.0786 27.7049ZM60.1663 68.4209C61.2744 66.4314 63.1438 66.2462 63.1438 66.2462C63.1438 66.2462 63.973 67.9262 62.8653 69.9157C61.756 71.9049 59.8866 72.0901 59.8866 72.0901C59.8866 72.0901 59.057 70.4089 60.1663 68.4209ZM69.7636 63.0196C70.4492 60.4476 72.5038 59.7023 72.5038 59.7023C72.5038 59.7023 73.9169 61.3717 73.2317 63.9437C72.5465 66.5156 70.4919 67.261 70.4919 67.261C70.4919 67.261 69.0784 65.5916 69.7636 63.0196ZM73.7412 46.065C73.7412 46.065 75.3226 47.0757 75.4133 49.3581C75.5051 51.6421 74.0076 52.7741 74.0076 52.7741C74.0076 52.7741 72.4252 51.7634 72.3345 49.481C72.2438 47.197 73.7412 46.065 73.7412 46.065ZM82.0225 48.4235C82.6106 46.2155 84.3756 45.5756 84.3756 45.5756C84.3756 45.5756 85.5877 47.0088 84.9996 49.2156C84.4119 51.4248 82.6465 52.065 82.6465 52.065C82.6465 52.065 81.4344 50.6315 82.0225 48.4235ZM16.6867 60.022C16.6867 60.022 14.628 58.5904 14.628 55.5369C14.628 52.4834 16.6867 51.0502 16.6867 51.0502C16.6867 51.0502 18.7454 52.4834 18.7454 55.5369C18.7454 58.5904 16.6867 60.022 16.6867 60.022ZM14.764 65.8289C14.764 65.8289 16.4078 66.7356 16.6451 69.009C16.884 71.2809 15.4625 72.5088 15.4625 72.5088C15.4625 72.5088 13.8184 71.6021 13.581 69.3287C13.3441 67.0569 14.764 65.8289 14.764 65.8289ZM16.6387 82.681C16.3227 84.9408 14.648 85.7916 14.648 85.7916C14.648 85.7916 13.2703 84.5209 13.5878 82.2608C13.9053 80.0021 15.5785 79.1502 15.5785 79.1502C15.5785 79.1502 16.9558 80.4209 16.6387 82.681ZM12.748 44.1397C12.748 44.1397 12.412 42.3021 14.0214 40.6822C15.6307 39.0623 17.4785 39.3794 17.4785 39.3794C17.4785 39.3794 17.8145 41.2182 16.2051 42.8381C14.5958 44.4584 12.748 44.1397 12.748 44.1397ZM8.57996 60.2409C8.41971 62.5211 6.80776 63.4822 6.80776 63.4822C6.80776 63.4822 5.34661 62.3049 5.50648 60.0251C5.66673 57.7449 7.27983 56.7834 7.27983 56.7834C7.27983 56.7834 8.74135 57.9611 8.57996 60.2409ZM83.4784 38.2048C84.7184 35.3395 85.7238 30.3944 85.6826 27.5023C85.6543 25.4795 84.3276 23.7715 82.4424 23.6729C80.5545 23.5916 79.073 25.165 78.8519 27.1757C78.4743 30.6049 79.3012 37.0864 80.6316 39.4996L75.2904 41.9302C76.1903 39.0941 76.3116 33.2063 75.6506 30.0595C75.2345 28.0809 73.6062 26.6583 71.7358 26.9236C69.8679 27.2064 68.7159 29.0357 68.8837 31.0501C69.1759 34.5594 71.3091 40.9449 73.0998 42.9276L67.5583 45.449C67.9464 42.3997 67.3171 36.981 66.3091 34.1021C65.6413 32.1931 63.8426 30.9931 62.0224 31.4995C60.2052 32.0211 59.2985 33.9849 59.7252 35.9609C60.4052 39.1077 62.9212 44.441 64.9012 46.6584L60.7453 48.5501C60.7453 48.5501 66.6357 64.7914 55.3599 68.2421C44.2999 71.6263 36.8466 67.4567 34.2663 60.1634C31.6853 52.8701 34.8734 42.8623 41.5586 39.6304C46.9557 37.021 52.6666 37.6102 52.6666 37.6102C52.6666 37.6102 48.3798 29.6971 46.9451 27.0635C45.7051 24.7901 43.9279 22.3357 40.8612 20.5877C43.9839 18.9251 48.6864 14.6757 50.7239 11.7852C52.069 9.87839 51.9904 7.38504 50.2957 6.0142C48.5892 4.65698 46.1386 5.1211 44.5678 6.84759C41.9637 9.7102 38.465 16.0398 37.909 19.2875C37.3119 19.0902 36.6784 18.9156 36.0064 18.769C38.0051 16.1369 40.2505 9.29029 40.5759 5.44236C40.7717 3.11682 39.4439 1.00483 37.2892 0.679786C35.1304 0.370244 33.2504 2.01018 32.7678 4.29301C31.9718 8.05817 32.1453 15.2317 33.2905 18.3422C32.3679 18.2504 31.3879 18.1998 30.3387 18.1998C30.3387 18.1998 30.2173 18.1998 29.997 18.2088C31.0984 15.2718 30.8383 7.63146 29.76 3.76085C29.1345 1.51317 27.1533 -0.00316964 25.0198 0.442436C22.8893 0.905049 21.6972 3.09717 22.0411 5.40494C22.6118 9.24229 25.3104 15.977 27.4772 18.4477C26.2772 18.6182 24.7798 18.9077 23.133 19.3956C23.2959 16.0636 21.3797 9.21168 19.5304 5.86227C18.4037 3.8183 16.1265 2.79972 14.1517 3.72646C12.1864 4.66643 11.5318 7.07436 12.3984 9.24116C13.7719 12.6771 17.6372 18.233 20.3158 20.393C16.2479 22.081 11.8451 25.0728 8.99309 30.3744C2.42919 42.5754 -4.21862 59.6596 6.21588 84.0636C11.6705 96.8168 23.2827 102.398 33.1291 104.821L40.2463 122.393C40.396 122.762 40.9383 122.685 40.9799 122.29L42.6399 106.393C46.8491 106.77 49.6373 106.614 49.6373 106.614C49.6373 106.614 49.88 106.627 50.3172 106.638L53.2944 122.911C53.365 123.302 53.9131 123.337 54.0332 122.958L59.4172 106.034C69.6037 104.566 84.7759 99.6915 89.8612 83.8928C97.7718 59.321 88.8517 35.7594 88.8517 35.7594L83.4784 38.2048Z" fill="#96C22C"/>
<path d="M128.939 117L125.658 112.648L127.392 111.577L131.438 117H128.939ZM122.428 117V107.922H124.553V117H122.428ZM123.924 113.362V111.594H127.001V113.362H123.924ZM127.596 112.716L125.607 112.478L128.939 107.922H131.217L127.596 112.716ZM133.238 120.417C132.796 120.417 132.354 120.343 131.912 120.196C131.47 120.049 131.102 119.845 130.807 119.584L131.657 118.02C131.872 118.213 132.116 118.366 132.388 118.479C132.66 118.592 132.938 118.649 133.221 118.649C133.606 118.649 133.918 118.553 134.156 118.36C134.394 118.167 134.615 117.844 134.819 117.391L135.346 116.201L135.516 115.946L138.95 107.922H140.99L136.74 117.731C136.457 118.411 136.139 118.949 135.788 119.346C135.448 119.743 135.063 120.02 134.632 120.179C134.213 120.338 133.748 120.417 133.238 120.417ZM135.108 117.323L131.011 107.922H133.221L136.553 115.759L135.108 117.323ZM140.592 116.983L140.694 115.198C140.774 115.209 140.847 115.221 140.915 115.232C140.983 115.243 141.046 115.249 141.102 115.249C141.454 115.249 141.726 115.141 141.918 114.926C142.111 114.711 142.253 114.422 142.343 114.059C142.445 113.685 142.513 113.271 142.547 112.818C142.593 112.353 142.627 111.889 142.649 111.424L142.802 107.922H150.146V117H148.021V109.146L148.514 109.724H144.196L144.655 109.129L144.536 111.526C144.502 112.331 144.434 113.079 144.332 113.77C144.242 114.45 144.094 115.045 143.89 115.555C143.698 116.065 143.426 116.462 143.074 116.745C142.734 117.028 142.298 117.17 141.765 117.17C141.595 117.17 141.408 117.153 141.204 117.119C141.012 117.085 140.808 117.04 140.592 116.983ZM153.008 117V107.922H155.133V113.906L160.148 107.922H162.086V117H159.961V111.016L154.963 117H153.008ZM164.945 117V107.922H167.07V111.611H171.643V107.922H173.768V117H171.643V113.413H167.07V117H164.945ZM182.124 117V115.164L182.005 114.773V111.56C182.005 110.937 181.818 110.455 181.444 110.115C181.07 109.764 180.503 109.588 179.744 109.588C179.234 109.588 178.729 109.667 178.231 109.826C177.743 109.985 177.33 110.206 176.99 110.489L176.157 108.942C176.644 108.568 177.222 108.29 177.891 108.109C178.571 107.916 179.273 107.82 179.999 107.82C181.313 107.82 182.328 108.137 183.042 108.772C183.767 109.395 184.13 110.364 184.13 111.679V117H182.124ZM179.268 117.119C178.588 117.119 177.993 117.006 177.483 116.779C176.973 116.541 176.576 116.218 176.293 115.81C176.021 115.391 175.885 114.92 175.885 114.399C175.885 113.889 176.004 113.43 176.242 113.022C176.491 112.614 176.893 112.291 177.449 112.053C178.004 111.815 178.741 111.696 179.659 111.696H182.294V113.107H179.812C179.086 113.107 178.599 113.226 178.35 113.464C178.1 113.691 177.976 113.974 177.976 114.314C177.976 114.699 178.129 115.005 178.435 115.232C178.741 115.459 179.166 115.572 179.71 115.572C180.231 115.572 180.696 115.453 181.104 115.215C181.523 114.977 181.823 114.626 182.005 114.161L182.362 115.436C182.158 115.969 181.789 116.382 181.257 116.677C180.735 116.972 180.072 117.119 179.268 117.119ZM191.791 117.119C191.054 117.119 190.38 116.949 189.768 116.609C189.167 116.269 188.686 115.759 188.323 115.079C187.972 114.388 187.796 113.515 187.796 112.461C187.796 111.396 187.966 110.523 188.306 109.843C188.657 109.163 189.133 108.659 189.734 108.33C190.335 107.99 191.02 107.82 191.791 107.82C192.686 107.82 193.474 108.013 194.154 108.398C194.845 108.783 195.389 109.322 195.786 110.013C196.194 110.704 196.398 111.52 196.398 112.461C196.398 113.402 196.194 114.223 195.786 114.926C195.389 115.617 194.845 116.156 194.154 116.541C193.474 116.926 192.686 117.119 191.791 117.119ZM186.759 120.298V107.922H188.782V110.064L188.714 112.478L188.884 114.892V120.298H186.759ZM191.553 115.3C192.063 115.3 192.516 115.187 192.913 114.96C193.321 114.733 193.644 114.405 193.882 113.974C194.12 113.543 194.239 113.039 194.239 112.461C194.239 111.872 194.12 111.367 193.882 110.948C193.644 110.517 193.321 110.189 192.913 109.962C192.516 109.735 192.063 109.622 191.553 109.622C191.043 109.622 190.584 109.735 190.176 109.962C189.768 110.189 189.445 110.517 189.207 110.948C188.969 111.367 188.85 111.872 188.85 112.461C188.85 113.039 188.969 113.543 189.207 113.974C189.445 114.405 189.768 114.733 190.176 114.96C190.584 115.187 191.043 115.3 191.553 115.3ZM198.513 117V107.922H200.638V111.611H205.211V107.922H207.336V117H205.211V113.413H200.638V117H198.513ZM215.692 117V115.164L215.573 114.773V111.56C215.573 110.937 215.386 110.455 215.012 110.115C214.638 109.764 214.071 109.588 213.312 109.588C212.802 109.588 212.298 109.667 211.799 109.826C211.312 109.985 210.898 110.206 210.558 110.489L209.725 108.942C210.212 108.568 210.79 108.29 211.459 108.109C212.139 107.916 212.842 107.82 213.567 107.82C214.882 107.82 215.896 108.137 216.61 108.772C217.335 109.395 217.698 110.364 217.698 111.679V117H215.692ZM212.836 117.119C212.156 117.119 211.561 117.006 211.051 116.779C210.541 116.541 210.144 116.218 209.861 115.81C209.589 115.391 209.453 114.92 209.453 114.399C209.453 113.889 209.572 113.43 209.81 113.022C210.059 112.614 210.462 112.291 211.017 112.053C211.572 111.815 212.309 111.696 213.227 111.696H215.862V113.107H213.38C212.655 113.107 212.167 113.226 211.918 113.464C211.669 113.691 211.544 113.974 211.544 114.314C211.544 114.699 211.697 115.005 212.003 115.232C212.309 115.459 212.734 115.572 213.278 115.572C213.799 115.572 214.264 115.453 214.672 115.215C215.091 114.977 215.392 114.626 215.573 114.161L215.93 115.436C215.726 115.969 215.358 116.382 214.825 116.677C214.304 116.972 213.641 117.119 212.836 117.119ZM226.09 117V113.906L226.396 114.263H223.676C222.43 114.263 221.449 114.002 220.735 113.481C220.033 112.948 219.681 112.183 219.681 111.186C219.681 110.121 220.055 109.31 220.803 108.755C221.563 108.2 222.571 107.922 223.829 107.922H227.994V117H226.09ZM219.562 117L222.01 113.532H224.186L221.84 117H219.562ZM226.09 113.226V109.146L226.396 109.707H223.897C223.24 109.707 222.73 109.832 222.367 110.081C222.016 110.319 221.84 110.71 221.84 111.254C221.84 112.274 222.503 112.784 223.829 112.784H226.396L226.09 113.226ZM241.314 117V113.906L241.62 114.263H238.9C237.653 114.263 236.673 114.002 235.959 113.481C235.256 112.948 234.905 112.183 234.905 111.186C234.905 110.121 235.279 109.31 236.027 108.755C236.786 108.2 237.795 107.922 239.053 107.922H243.218V117H241.314ZM234.786 117L237.234 113.532H239.41L237.064 117H234.786ZM241.314 113.226V109.146L241.62 109.707H239.121C238.464 109.707 237.954 109.832 237.591 110.081C237.24 110.319 237.064 110.71 237.064 111.254C237.064 112.274 237.727 112.784 239.053 112.784H241.62L241.314 113.226ZM251.108 117.119C250.372 117.119 249.697 116.949 249.085 116.609C248.485 116.269 248.003 115.759 247.64 115.079C247.289 114.388 247.113 113.515 247.113 112.461C247.113 111.396 247.283 110.523 247.623 109.843C247.975 109.163 248.451 108.659 249.051 108.33C249.652 107.99 250.338 107.82 251.108 107.82C252.004 107.82 252.791 108.013 253.471 108.398C254.163 108.783 254.707 109.322 255.103 110.013C255.511 110.704 255.715 111.52 255.715 112.461C255.715 113.402 255.511 114.223 255.103 114.926C254.707 115.617 254.163 116.156 253.471 116.541C252.791 116.926 252.004 117.119 251.108 117.119ZM246.076 120.298V107.922H248.099V110.064L248.031 112.478L248.201 114.892V120.298H246.076ZM250.87 115.3C251.38 115.3 251.834 115.187 252.23 114.96C252.638 114.733 252.961 114.405 253.199 113.974C253.437 113.543 253.556 113.039 253.556 112.461C253.556 111.872 253.437 111.367 253.199 110.948C252.961 110.517 252.638 110.189 252.23 109.962C251.834 109.735 251.38 109.622 250.87 109.622C250.36 109.622 249.901 109.735 249.493 109.962C249.085 110.189 248.762 110.517 248.524 110.948C248.286 111.367 248.167 111.872 248.167 112.461C248.167 113.039 248.286 113.543 248.524 113.974C248.762 114.405 249.085 114.733 249.493 114.96C249.901 115.187 250.36 115.3 250.87 115.3ZM257.83 117V107.922H260.057L263.712 114.365H262.828L266.67 107.922H268.659L268.676 117H266.755V110.2L267.095 110.421L263.695 116.048H262.777L259.36 110.268L259.768 110.166V117H257.83ZM277.035 117V115.164L276.916 114.773V111.56C276.916 110.937 276.729 110.455 276.355 110.115C275.981 109.764 275.414 109.588 274.655 109.588C274.145 109.588 273.64 109.667 273.142 109.826C272.654 109.985 272.241 110.206 271.901 110.489L271.068 108.942C271.555 108.568 272.133 108.29 272.802 108.109C273.482 107.916 274.184 107.82 274.91 107.82C276.224 107.82 277.239 108.137 277.953 108.772C278.678 109.395 279.041 110.364 279.041 111.679V117H277.035ZM274.179 117.119C273.499 117.119 272.904 117.006 272.394 116.779C271.884 116.541 271.487 116.218 271.204 115.81C270.932 115.391 270.796 114.92 270.796 114.399C270.796 113.889 270.915 113.43 271.153 113.022C271.402 112.614 271.804 112.291 272.36 112.053C272.915 111.815 273.652 111.696 274.57 111.696H277.205V113.107H274.723C273.997 113.107 273.51 113.226 273.261 113.464C273.011 113.691 272.887 113.974 272.887 114.314C272.887 114.699 273.04 115.005 273.346 115.232C273.652 115.459 274.077 115.572 274.621 115.572C275.142 115.572 275.607 115.453 276.015 115.215C276.434 114.977 276.734 114.626 276.916 114.161L277.273 115.436C277.069 115.969 276.7 116.382 276.168 116.677C275.646 116.972 274.983 117.119 274.179 117.119ZM286.702 117.119C285.966 117.119 285.291 116.949 284.679 116.609C284.079 116.269 283.597 115.759 283.234 115.079C282.883 114.388 282.707 113.515 282.707 112.461C282.707 111.396 282.877 110.523 283.217 109.843C283.569 109.163 284.045 108.659 284.645 108.33C285.246 107.99 285.932 107.82 286.702 107.82C287.598 107.82 288.385 108.013 289.065 108.398C289.757 108.783 290.301 109.322 290.697 110.013C291.105 110.704 291.309 111.52 291.309 112.461C291.309 113.402 291.105 114.223 290.697 114.926C290.301 115.617 289.757 116.156 289.065 116.541C288.385 116.926 287.598 117.119 286.702 117.119ZM281.67 120.298V107.922H283.693V110.064L283.625 112.478L283.795 114.892V120.298H281.67ZM286.464 115.3C286.974 115.3 287.428 115.187 287.824 114.96C288.232 114.733 288.555 114.405 288.793 113.974C289.031 113.543 289.15 113.039 289.15 112.461C289.15 111.872 289.031 111.367 288.793 110.948C288.555 110.517 288.232 110.189 287.824 109.962C287.428 109.735 286.974 109.622 286.464 109.622C285.954 109.622 285.495 109.735 285.087 109.962C284.679 110.189 284.356 110.517 284.118 110.948C283.88 111.367 283.761 111.872 283.761 112.461C283.761 113.039 283.88 113.543 284.118 113.974C284.356 114.405 284.679 114.733 285.087 114.96C285.495 115.187 285.954 115.3 286.464 115.3ZM299.935 117L296.654 112.648L298.388 111.577L302.434 117H299.935ZM293.424 117V107.922H295.549V117H293.424ZM294.92 113.362V111.594H297.997V113.362H294.92ZM298.592 112.716L296.603 112.478L299.935 107.922H302.213L298.592 112.716ZM309.275 117V115.164L309.156 114.773V111.56C309.156 110.937 308.969 110.455 308.595 110.115C308.221 109.764 307.654 109.588 306.895 109.588C306.385 109.588 305.881 109.667 305.382 109.826C304.895 109.985 304.481 110.206 304.141 110.489L303.308 108.942C303.795 108.568 304.373 108.29 305.042 108.109C305.722 107.916 306.425 107.82 307.15 107.82C308.465 107.82 309.479 108.137 310.193 108.772C310.918 109.395 311.281 110.364 311.281 111.679V117H309.275ZM306.419 117.119C305.739 117.119 305.144 117.006 304.634 116.779C304.124 116.541 303.727 116.218 303.444 115.81C303.172 115.391 303.036 114.92 303.036 114.399C303.036 113.889 303.155 113.43 303.393 113.022C303.642 112.614 304.045 112.291 304.6 112.053C305.155 111.815 305.892 111.696 306.81 111.696H309.445V113.107H306.963C306.238 113.107 305.75 113.226 305.501 113.464C305.252 113.691 305.127 113.974 305.127 114.314C305.127 114.699 305.28 115.005 305.586 115.232C305.892 115.459 306.317 115.572 306.861 115.572C307.382 115.572 307.847 115.453 308.255 115.215C308.674 114.977 308.975 114.626 309.156 114.161L309.513 115.436C309.309 115.969 308.941 116.382 308.408 116.677C307.887 116.972 307.224 117.119 306.419 117.119Z" fill="#2B2B2A"/>
</svg>
