<?xml version="1.0"?>
<svg xmlns="http://www.w3.org/2000/svg" xmlns:xlink="http://www.w3.org/1999/xlink" aria-hidden="true" width="1em" height="1em" viewBox="0 0 24 24" data-icon="mdi:access-point-network" data-width="1em" data-height="1em" data-inline="false" class="iconify"><path d="M4.93 2.93A9.969 9.969 0 0 0 2 10c0 2.76 1.12 5.26 2.93 7.07l1.41-1.41A7.938 7.938 0 0 1 4 10c0-2.21.89-4.22 2.34-5.66L4.93 2.93m14.14 0l-1.41 1.41A7.955 7.955 0 0 1 20 10c0 2.22-.89 4.22-2.34 5.66l1.41 1.41A9.969 9.969 0 0 0 22 10c0-2.76-1.12-5.26-2.93-7.07M7.76 5.76A5.98 5.98 0 0 0 6 10c0 1.65.67 3.15 1.76 4.24l1.41-1.41A3.99 3.99 0 0 1 8 10c0-1.11.45-2.11 1.17-2.83L7.76 5.76m8.48 0l-1.41 1.41A3.99 3.99 0 0 1 16 10c0 1.11-.45 2.11-1.17 2.83l1.41 1.41A5.98 5.98 0 0 0 18 10c0-1.65-.67-3.15-1.76-4.24M12 8c-1.1 0-2 .9-2 2s.9 2 2 2 2-.9 2-2-.9-2-2-2m-1 6v4h-1c-.55 0-1 .45-1 1H2v2h7c0 .55.45 1 1 1h4c.55 0 1-.45 1-1h7v-2h-7c0-.55-.45-1-1-1h-1v-4h-2z" fill="#646464"/></svg>
