<?xml version="1.0"?>
<svg xmlns="http://www.w3.org/2000/svg" xmlns:xlink="http://www.w3.org/1999/xlink" aria-hidden="true" width="1em" height="1em" viewBox="0 0 24 24" data-icon="mdi:account-multiple-check" data-width="1em" data-height="1em" data-inline="false" class="iconify"><path d="M22.59 7.92l1.16 1.41L19 14.08l-2.75-3 1.16-1.16L19 11.5l3.59-3.58M6 5c1.66 0 3 1.34 3 3s-1.34 3-3 3-3-1.34-3-3 1.34-3 3-3m5 0c1.66 0 3 1.34 3 3s-1.34 3-3 3c-.32 0-.63-.05-.92-.15.57-.81.92-1.79.92-2.85s-.35-2.05-.92-2.86c.29-.09.6-.14.92-.14m-5 8c2 0 6 1 6 3v2H0v-2c0-2 4-3 6-3m6.62.16C14.63 13.5 17 14.46 17 16v2h-3v-2c0-1.18-.55-2.12-1.38-2.84z" fill="#646464"/></svg>
