<?xml version="1.0"?>
<svg xmlns="http://www.w3.org/2000/svg" xmlns:xlink="http://www.w3.org/1999/xlink" aria-hidden="true" width="1em" height="1em" viewBox="0 0 24 24" data-icon="mdi:account-key" data-width="1em" data-height="1em" data-inline="false" class="iconify"><path d="M11 10v2h-1v2H8v-2H5.83A2.99 2.99 0 0 1 3 14c-1.66 0-3-1.34-3-3s1.34-3 3-3c1.31 0 2.42.83 2.83 2H11m-8 0c-.55 0-1 .45-1 1s.45 1 1 1 1-.45 1-1-.45-1-1-1m13 4c2.67 0 8 1.34 8 4v2H8v-2c0-2.66 5.33-4 8-4m0-2c-2.21 0-4-1.79-4-4s1.79-4 4-4 4 1.79 4 4-1.79 4-4 4z" fill="#646464"/></svg>
