<?xml version="1.0"?>
<svg xmlns="http://www.w3.org/2000/svg" xmlns:xlink="http://www.w3.org/1999/xlink" aria-hidden="true" width="1em" height="1em" viewBox="0 0 24 24" data-icon="mdi:account-network" data-width="1em" data-height="1em" data-inline="false" class="iconify"><path d="M13 16v2h1c.55 0 1 .45 1 1h7v2h-7c0 .55-.45 1-1 1h-4c-.55 0-1-.45-1-1H2v-2h7c0-.55.45-1 1-1h1v-2H5v-1.5c0-1.93 3.13-3.5 7-3.5s7 1.57 7 3.5V16h-6M12 2c1.93 0 3.5 1.57 3.5 3.5S13.93 9 12 9 8.5 7.43 8.5 5.5 10.07 2 12 2z" fill="#646464"/></svg>
