<?xml version="1.0"?>
<svg xmlns="http://www.w3.org/2000/svg" xmlns:xlink="http://www.w3.org/1999/xlink" aria-hidden="true" width="1em" height="1em" viewBox="0 0 24 24" data-icon="mdi:account-card-details" data-width="1em" data-height="1em" data-inline="false" class="iconify"><path d="M2 3h20c1.05 0 2 .95 2 2v14c0 1.05-.95 2-2 2H2c-1.05 0-2-.95-2-2V5c0-1.05.95-2 2-2m12 3v1h8V6h-8m0 2v1h8V8h-8m0 2v1h7v-1h-7m-6 3.91C6 13.91 2 15 2 17v1h12v-1c0-2-4-3.09-6-3.09M8 6C6.34 6 5 7.34 5 9s1.34 3 3 3 3-1.34 3-3-1.34-3-3-3z" fill="#646464"/></svg>
