<?xml version="1.0"?>
<svg xmlns="http://www.w3.org/2000/svg" xmlns:xlink="http://www.w3.org/1999/xlink" aria-hidden="true" width="1em" height="1em" viewBox="0 0 24 24" data-icon="mdi:account-clock-outline" data-width="1em" data-height="1em" data-inline="false" class="iconify"><path d="M16 14h1.5v2.82l2.44 1.41-.75 1.3L16 17.69V14m1-2c-2.76 0-5 2.24-5 5s2.24 5 5 5 5-2.24 5-5-2.24-5-5-5m0-2c3.87 0 7 3.13 7 7s-3.13 7-7 7c-2.79 0-5.2-1.64-6.33-4H1v-3c0-2.66 5.33-4 8-4 .6 0 1.34.07 2.12.2A6.992 6.992 0 0 1 17 10m-7 7c0-.7.1-1.38.29-2-.42-.07-.86-.1-1.29-.1-2.97 0-6.1 1.46-6.1 2.1v1.1h7.19A6.71 6.71 0 0 1 10 17M9 4c2.21 0 4 1.79 4 4s-1.79 4-4 4-4-1.79-4-4 1.79-4 4-4m0 1.9a2.1 2.1 0 1 0 0 4.2 2.1 2.1 0 0 0 0-4.2z" fill="#646464"/></svg>
