<?xml version="1.0"?>
<svg xmlns="http://www.w3.org/2000/svg" xmlns:xlink="http://www.w3.org/1999/xlink" aria-hidden="true" width="1em" height="1em" viewBox="0 0 24 24" data-icon="mdi:account-alert-outline" data-width="1em" data-height="1em" data-inline="false" class="iconify"><path d="M20 12V7h2v5h-2m0 4v-2h2v2h-2m-10-3c2.67 0 8 1.34 8 4v3H2v-3c0-2.66 5.33-4 8-4m0-9c2.21 0 4 1.79 4 4s-1.79 4-4 4-4-1.79-4-4 1.79-4 4-4m0 10.9c-2.97 0-6.1 1.46-6.1 2.1v1.1h12.2V17c0-.64-3.13-2.1-6.1-2.1m0-9a2.1 2.1 0 1 0 0 4.2 2.1 2.1 0 0 0 0-4.2z" fill="#646464"/></svg>
