<?xml version="1.0"?>
<svg xmlns="http://www.w3.org/2000/svg" xmlns:xlink="http://www.w3.org/1999/xlink" aria-hidden="true" width="1em" height="1em" viewBox="0 0 24 24" data-icon="mdi:account-details" data-width="1em" data-height="1em" data-inline="false" class="iconify"><path d="M7.5 15c1.13 0 2.32.26 3.59.77 1.26.52 1.91 1.18 1.91 2V20H2v-2.23c0-.82.65-1.48 1.91-2C5.18 15.26 6.38 15 7.5 15m5.5-2h9v2h-9v-2m0-4h9v2h-9V9m0-4h9v2h-9V5M7.5 8a2.5 2.5 0 0 1 0 5 2.5 2.5 0 0 1 0-5z" fill="#646464"/></svg>
