<?xml version="1.0"?>
<svg xmlns="http://www.w3.org/2000/svg" xmlns:xlink="http://www.w3.org/1999/xlink" aria-hidden="true" width="1em" height="1em" viewBox="0 0 24 24" data-icon="mdi:account-switch" data-width="1em" data-height="1em" data-inline="false" class="iconify"><path d="M16 9c2.33 0 7 1.17 7 3.5V15h-6v-2.5c0-1.5-.81-2.61-1.96-3.45L16 9M8 9c2.33 0 7 1.17 7 3.5V15H1v-2.5C1 10.17 5.67 9 8 9m0-2C6.34 7 5 5.66 5 4s1.34-3 3-3 3 1.34 3 3-1.34 3-3 3m8 0c-1.66 0-3-1.34-3-3s1.34-3 3-3 3 1.34 3 3-1.34 3-3 3m-7 9.75V19h6v-2.25L18.25 20 15 23.25V21H9v2.25L5.75 20 9 16.75z" fill="#646464"/></svg>
