<?xml version="1.0"?>
<svg xmlns="http://www.w3.org/2000/svg" xmlns:xlink="http://www.w3.org/1999/xlink" aria-hidden="true" width="1em" height="1em" viewBox="0 0 24 24" data-icon="mdi:account-child-circle" data-width="1em" data-height="1em" data-inline="false" class="iconify"><path d="M12 12c.83 0 1.5.67 1.5 1.5S12.83 15 12 15s-1.5-.67-1.5-1.5.67-1.5 1.5-1.5m0-10c5.52 0 10 4.48 10 10s-4.48 10-10 10S2 17.52 2 12 6.48 2 12 2m0 14c.72 0 1.4.15 2.04.5.64.3.96.7.96 1.17v1.74c1.34-.6 2-1.33 2-2.21v-4.4c0-.8-.5-1.45-1.55-2-1.05-.54-2.2-.8-3.45-.8s-2.4.26-3.45.8C7.5 11.35 7 12 7 12.8v4.4c0 .8.53 1.49 1.63 2.02 1.09.53 2.21.78 3.37.78l1-.08v-2.01L12 18c-1 0-2-.2-2.95-.61.12-.39.48-.7 1.08-.98.59-.28 1.21-.41 1.87-.41m0-12a2.5 2.5 0 0 0 0 5 2.5 2.5 0 0 0 0-5z" fill="#646464"/></svg>
