<?xml version="1.0"?>
<svg xmlns="http://www.w3.org/2000/svg" xmlns:xlink="http://www.w3.org/1999/xlink" aria-hidden="true" width="1em" height="1em" viewBox="0 0 24 24" data-icon="mdi:account-convert" data-width="1em" data-height="1em" data-inline="false" class="iconify"><path d="M7.5 21.5l1.35-1.34 3.81 3.81L12 24C5.71 24 .56 19.16.05 13h1.5c.36 3.76 2.7 6.94 5.95 8.5m9-19l-1.35 1.34L11.34.03 12 0c6.29 0 11.44 4.84 11.95 11h-1.5c-.36-3.76-2.7-6.93-5.95-8.5M6 17c0-2 4-3.1 6-3.1s6 1.1 6 3.1v1H6v-1m9-8c0 1.66-1.34 3-3 3s-3-1.34-3-3 1.34-3 3-3 3 1.34 3 3z" fill="#646464"/></svg>
