<?xml version="1.0"?>
<svg xmlns="http://www.w3.org/2000/svg" xmlns:xlink="http://www.w3.org/1999/xlink" aria-hidden="true" width="1em" height="1em" viewBox="0 0 24 24" data-icon="mdi:account-box-multiple" data-width="1em" data-height="1em" data-inline="false" class="iconify"><path d="M4 6H2v14c0 1.1.9 2 2 2h14v-2H4V6m16-4c1.1 0 2 .9 2 2v12c0 1.1-.9 2-2 2H8c-1.1 0-2-.9-2-2V4c0-1.1.9-2 2-2h12m-3 5c0-1.66-1.34-3-3-3s-3 1.34-3 3 1.34 3 3 3 3-1.34 3-3m-9 8v1h12v-1c0-2-4-3.1-6-3.1S8 13 8 15z" fill="#646464"/></svg>
