<?xml version="1.0"?>
<svg xmlns="http://www.w3.org/2000/svg" xmlns:xlink="http://www.w3.org/1999/xlink" aria-hidden="true" width="1em" height="1em" viewBox="0 0 24 24" data-icon="mdi:account-arrow-left-outline" data-width="1em" data-height="1em" data-inline="false" class="iconify"><path d="M18 21l-3-3 3-3v2h4v2h-4v2m-5-3c0 .71.15 1.39.42 2H2v-3c0-2.21 3.58-4 8-4 1 0 1.96.09 2.85.26.83.16 1.59.38 2.26.66-1.28.91-2.11 2.4-2.11 4.08m-9-1v1h7c0-1.04.23-2.03.64-2.92L10 15c-3.31 0-6 .9-6 2m6-13c2.21 0 4 1.79 4 4s-1.79 4-4 4-4-1.79-4-4 1.79-4 4-4m0 2c-1.1 0-2 .9-2 2s.9 2 2 2 2-.9 2-2-.9-2-2-2z" fill="#646464"/></svg>
