<?xml version="1.0"?>
<svg xmlns="http://www.w3.org/2000/svg" xmlns:xlink="http://www.w3.org/1999/xlink" aria-hidden="true" width="1em" height="1em" viewBox="0 0 24 24" data-icon="mdi:account-edit" data-width="1em" data-height="1em" data-inline="false" class="iconify"><path d="M21.7 13.35l-1 1-2.05-2.05 1-1a.55.55 0 0 1 .77 0l1.28 1.28c.21.21.21.56 0 .77M12 18.94l6.06-6.06 2.05 2.05L14.06 21H12v-2.06M12 14c-4.42 0-8 1.79-8 4v2h6v-1.89l4-4c-.66-.08-1.33-.11-2-.11m0-10C9.79 4 8 5.79 8 8s1.79 4 4 4 4-1.79 4-4-1.79-4-4-4z" fill="#646464"/></svg>
