<?xml version="1.0"?>
<svg xmlns="http://www.w3.org/2000/svg" xmlns:xlink="http://www.w3.org/1999/xlink" aria-hidden="true" width="1em" height="1em" viewBox="0 0 24 24" data-icon="mdi:account-multiple" data-width="1em" data-height="1em" data-inline="false" class="iconify"><path d="M16 13c-.29 0-.62 0-.97.05C16.19 13.89 17 15 17 16.5V19h6v-2.5c0-2.33-4.67-3.5-7-3.5m-8 0c-2.33 0-7 1.17-7 3.5V19h14v-2.5c0-2.33-4.67-3.5-7-3.5m0-2c1.66 0 3-1.34 3-3S9.66 5 8 5 5 6.34 5 8s1.34 3 3 3m8 0c1.66 0 3-1.34 3-3s-1.34-3-3-3-3 1.34-3 3 1.34 3 3 3z" fill="#646464"/></svg>
