<?xml version="1.0"?>
<svg xmlns="http://www.w3.org/2000/svg" xmlns:xlink="http://www.w3.org/1999/xlink" aria-hidden="true" width="1em" height="1em" viewBox="0 0 24 24" data-icon="mdi:account-star" data-width="1em" data-height="1em" data-inline="false" class="iconify"><path d="M15 14c-2.67 0-8 1.33-8 4v2h16v-2c0-2.67-5.33-4-8-4m0-2c2.21 0 4-1.79 4-4s-1.79-4-4-4-4 1.79-4 4 1.79 4 4 4M5 13.28l2.45 1.49-.65-2.81L9 10.08l-2.89-.25L5 7.19 3.87 9.83 1 10.08l2.18 1.88-.68 2.81L5 13.28z" fill="#646464"/></svg>
