<?xml version="1.0"?>
<svg xmlns="http://www.w3.org/2000/svg" xmlns:xlink="http://www.w3.org/1999/xlink" aria-hidden="true" width="1em" height="1em" viewBox="0 0 24 24" data-icon="mdi:account-multiple-plus" data-width="1em" data-height="1em" data-inline="false" class="iconify"><path d="M13 13c-2 0-6 1-6 3v2h12v-2c0-2-4-3-6-3m6.62.16c.83.72 1.38 1.66 1.38 2.84v2h3v-2c0-1.54-2.37-2.5-4.38-2.84M13 11c1.66 0 3-1.34 3-3s-1.34-3-3-3-3 1.34-3 3 1.34 3 3 3m5 0c1.66 0 3-1.34 3-3s-1.34-3-3-3c-.32 0-.63.05-.92.14.57.81.92 1.8.92 2.86 0 1.06-.35 2.04-.92 2.85.29.1.6.15.92.15M8 10H5V7H3v3H0v2h3v3h2v-3h3v-2z" fill="#646464"/></svg>
