<?xml version="1.0"?>
<svg xmlns="http://www.w3.org/2000/svg" xmlns:xlink="http://www.w3.org/1999/xlink" aria-hidden="true" width="1em" height="1em" viewBox="0 0 24 24" data-icon="mdi:account-circle" data-width="1em" data-height="1em" data-inline="false" class="iconify"><path d="M12 19.2c-2.5 0-4.71-1.28-6-3.2.03-2 4-3.1 6-3.1s5.97 1.1 6 3.1a7.232 7.232 0 0 1-6 3.2M12 5c1.66 0 3 1.34 3 3s-1.34 3-3 3-3-1.34-3-3 1.34-3 3-3m0-3C6.48 2 2 6.48 2 12s4.48 10 10 10 10-4.48 10-10c0-5.53-4.5-10-10-10z" fill="#646464"/></svg>
