<?xml version="1.0"?>
<svg xmlns="http://www.w3.org/2000/svg" xmlns:xlink="http://www.w3.org/1999/xlink" aria-hidden="true" width="1em" height="1em" viewBox="0 0 24 24" data-icon="mdi:account-box-outline" data-width="1em" data-height="1em" data-inline="false" class="iconify"><path d="M19 19H5V5h14m0-2H5c-1.1 0-2 .9-2 2v14c0 1.1.9 2 2 2h14c1.1 0 2-.9 2-2V5a2 2 0 0 0-2-2m-2.5 13.25c0-1.5-3-2.25-4.5-2.25s-4.5.75-4.5 2.25V17h9M12 12.25c1.24 0 2.25-1.01 2.25-2.25S13.24 7.75 12 7.75 9.75 8.76 9.75 10s1.01 2.25 2.25 2.25z" fill="#646464"/></svg>
