<?xml version="1.0"?>
<svg xmlns="http://www.w3.org/2000/svg" xmlns:xlink="http://www.w3.org/1999/xlink" aria-hidden="true" width="1em" height="1em" viewBox="0 0 24 24" data-icon="mdi:account-location" data-width="1em" data-height="1em" data-inline="false" class="iconify"><path d="M18 16H6v-.9c0-2 4-3.1 6-3.1s6 1.1 6 3.1m-6-9.8c1.5 0 2.7 1.2 2.7 2.7 0 1.5-1.2 2.7-2.7 2.7-1.5 0-2.7-1.2-2.7-2.7 0-1.5 1.2-2.7 2.7-2.7M19 2H5c-1.11 0-2 .89-2 2v14c0 1.1.9 2 2 2h4l3 3 3-3h4c1.1 0 2-.9 2-2V4a2 2 0 0 0-2-2z" fill="#646464"/></svg>
