<?xml version="1.0"?>
<svg xmlns="http://www.w3.org/2000/svg" xmlns:xlink="http://www.w3.org/1999/xlink" aria-hidden="true" width="1em" height="1em" viewBox="0 0 24 24" data-icon="mdi:account-remove-outline" data-width="1em" data-height="1em" data-inline="false" class="iconify"><path d="M1.46 8.88l1.42-1.42L5 9.59l2.12-2.13 1.42 1.42L6.41 11l2.13 2.12-1.42 1.42L5 12.41l-2.12 2.13-1.42-1.42L3.59 11 1.46 8.88M15 4c2.21 0 4 1.79 4 4s-1.79 4-4 4-4-1.79-4-4 1.79-4 4-4m0 1.9a2.1 2.1 0 1 0 0 4.2 2.1 2.1 0 0 0 0-4.2m0 7.1c2.67 0 8 1.33 8 4v3H7v-3c0-2.67 5.33-4 8-4m0 1.9c-3 0-6.1 1.46-6.1 2.1v1.1h12.2V17c0-.64-3.13-2.1-6.1-2.1z" fill="#646464"/></svg>
