<?xml version="1.0"?>
<svg xmlns="http://www.w3.org/2000/svg" xmlns:xlink="http://www.w3.org/1999/xlink" aria-hidden="true" width="1em" height="1em" viewBox="0 0 24 24" data-icon="mdi:account-search-outline" data-width="1em" data-height="1em" data-inline="false" class="iconify"><path d="M10 13c-.35.59-.64 1.24-.81 1.93C6.5 15.16 3.9 16.42 3.9 17v1.1h5.3c.17.68.45 1.32.8 1.9H2v-3c0-2.66 5.33-4 8-4m0-9c2.21 0 4 1.79 4 4 0 .91-.31 1.75-.82 2.43-.86.32-1.63.83-2.27 1.47L10 12c-2.21 0-4-1.79-4-4s1.79-4 4-4m0 1.9a2.1 2.1 0 1 0 0 4.2 2.1 2.1 0 0 0 0-4.2m5.5 6.1c2.5 0 4.5 2 4.5 4.5 0 .88-.25 1.71-.69 2.4l3.08 3.1L21 23.39l-3.12-3.07c-.69.43-1.51.68-2.38.68-2.5 0-4.5-2-4.5-4.5s2-4.5 4.5-4.5m0 2a2.5 2.5 0 0 0 0 5 2.5 2.5 0 0 0 0-5z" fill="#646464"/></svg>
