<?xml version="1.0"?>
<svg xmlns="http://www.w3.org/2000/svg" xmlns:xlink="http://www.w3.org/1999/xlink" aria-hidden="true" width="1em" height="1em" viewBox="0 0 24 24" data-icon="mdi:account-multiple-plus-outline" data-width="1em" data-height="1em" data-inline="false" class="iconify"><path d="M13.5 5C11.57 5 10 6.57 10 8.5s1.57 3.5 3.5 3.5c.75 0 1.44-.24 2-.64.57.4 1.26.64 2 .64 1.93 0 3.5-1.57 3.5-3.5S19.43 5 17.5 5c-.74 0-1.42.25-2 .65-.55-.41-1.25-.65-2-.65m0 1.5c1.1 0 2 .9 2 2s-.9 2-2 2-2-.9-2-2 .9-2 2-2m4 0c1.1 0 2 .9 2 2s-.9 2-2 2c-.36 0-.69-.1-1-.27a3.236 3.236 0 0 0 0-3.46c.31-.17.64-.27 1-.27M3 8v3H0v2h3v3h2v-3h3v-2H5V8H3m10.5 5C11.33 13 7 14.08 7 16.25V19h17v-2.75c0-2.17-4.33-3.25-6.5-3.25-.55 0-1.25.08-2 .22-.72-.14-1.43-.22-2-.22m0 1.5c2.44 0 5 1.21 5 1.75v1.25h-10v-1.25c0-.54 2.56-1.75 5-1.75m5.58.16c1.85.34 3.42 1.17 3.42 1.59v1.25H20v-1.25c0-.62-.36-1.15-.92-1.59z" fill="#646464"/></svg>
