<?xml version="1.0"?>
<svg xmlns="http://www.w3.org/2000/svg" xmlns:xlink="http://www.w3.org/1999/xlink" aria-hidden="true" width="1em" height="1em" viewBox="0 0 24 24" data-icon="mdi:alarm-light" data-width="1em" data-height="1em" data-inline="false" class="iconify"><path d="M6 6.9L3.87 4.78l1.41-1.41L7.4 5.5 6 6.9M13 1v3h-2V1h2m7.13 3.78L18 6.9l-1.4-1.4 2.12-2.13 1.41 1.41M4.5 10.5v2h-3v-2h3m15 0h3v2h-3v-2M6 20h12c1.1 0 2 .9 2 2H4c0-1.1.9-2 2-2m6-15c3.31 0 6 2.69 6 6v8H6v-8c0-3.31 2.69-6 6-6z" fill="#646464"/></svg>
