<?xml version="1.0"?>
<svg xmlns="http://www.w3.org/2000/svg" xmlns:xlink="http://www.w3.org/1999/xlink" aria-hidden="true" width="1em" height="1em" viewBox="0 0 24 24" data-icon="mdi:alarm-bell" data-width="1em" data-height="1em" data-inline="false" class="iconify"><path d="M15 18.66V22H5v-3.34a9.982 9.982 0 0 0 10 0M22 4c0-1.1-.9-2-2-2-.31 0-.61.07-.88.21-.3.15-.56.37-.76.64A1.997 1.997 0 0 0 20 6h.24c1.73 4.43.42 9.46-3.24 12.5-.32.25-.65.5-1 .72V21h1v-1.26c3.14-2.24 5-5.88 5-9.74 0-1.5-.28-3-.83-4.38.52-.38.83-.98.83-1.62m-4 6c0 4.42-3.58 8-8 8s-8-3.58-8-8 3.58-8 8-8 8 3.58 8 8z" fill="#646464"/></svg>
