<?xml version="1.0"?>
<svg xmlns="http://www.w3.org/2000/svg" xmlns:xlink="http://www.w3.org/1999/xlink" aria-hidden="true" width="1em" height="1em" viewBox="0 0 24 24" data-icon="mdi:alarm-snooze" data-width="1em" data-height="1em" data-inline="false" class="iconify"><path d="M7.88 3.39L6.6 1.86 2 5.71l1.29 1.53 4.59-3.85M22 5.72l-4.6-3.86-1.29 1.53 4.6 3.86L22 5.72M12 4a9 9 0 1 0 .001 18.001A9 9 0 0 0 12 4m0 16c-3.87 0-7-3.13-7-7s3.13-7 7-7 7 3.13 7 7-3.13 7-7 7m-3-9h3.63L9 15.2V17h6v-2h-3.63L15 10.8V9H9v2z" fill="#646464"/></svg>
