<?xml version="1.0"?>
<svg xmlns="http://www.w3.org/2000/svg" xmlns:xlink="http://www.w3.org/1999/xlink" aria-hidden="true" width="1em" height="1em" viewBox="0 0 24 24" data-icon="mdi:alarm-multiple" data-width="1em" data-height="1em" data-inline="false" class="iconify"><path d="M9.29 3.25L5.16 6.72 4 5.34l4.14-3.47 1.15 1.38M22 5.35l-1.16 1.38-4.14-3.48 1.16-1.38L22 5.35M13 4c4.42 0 8 3.58 8 8s-3.58 8-8 8-8-3.58-8-8 3.58-8 8-8m0 2c-3.31 0-6 2.69-6 6s2.69 6 6 6 6-2.69 6-6-2.69-6-6-6m-1 1.5h1.5v4.53l3.22 1.47-.62 1.36L12 13V7.5M1 14c0-2.5 1.13-4.7 2.91-6.17A9.975 9.975 0 0 0 3 12l.06 1.13L3 14c0 2.28 1.27 4.26 3.14 5.28 1.3 1.22 2.93 2.11 4.75 2.5-.61.14-1.24.22-1.89.22-4.42 0-8-3.58-8-8z" fill="#646464"/></svg>
