<?xml version="1.0"?>
<svg xmlns="http://www.w3.org/2000/svg" xmlns:xlink="http://www.w3.org/1999/xlink" aria-hidden="true" width="1em" height="1em" viewBox="0 0 24 24" data-icon="mdi:alien" data-width="1em" data-height="1em" data-inline="false" class="iconify"><path d="M12 3c4.97 0 9 3.58 9 8s-6 10-9 10-9-5.58-9-10 4.03-8 9-8m-1.69 7.93C9.29 9.29 7.47 8.58 6.25 9.34c-1.22.76-1.38 2.71-.36 4.35 1.03 1.64 2.85 2.35 4.07 1.59 1.22-.78 1.37-2.71.35-4.35m3.38 0c-1.02 1.64-.87 3.57.35 4.35 1.22.76 3.04.05 4.07-1.59 1.02-1.64.86-3.59-.36-4.35-1.22-.76-3.04-.05-4.06 1.59M12 17.75c-2 0-2.5-.75-2.5-.75 0 .03.5 2 2.5 2s2.5-2 2.5-2-.5.75-2.5.75z" fill="#646464"/></svg>
