<?xml version="1.0"?>
<svg xmlns="http://www.w3.org/2000/svg" xmlns:xlink="http://www.w3.org/1999/xlink" aria-hidden="true" width="1em" height="1em" viewBox="0 0 24 24" data-icon="mdi:alphabetical" data-width="1em" data-height="1em" data-inline="false" class="iconify"><path d="M6 11c1.1 0 2 .9 2 2v4H4c-1.1 0-2-.9-2-2v-2c0-1.1.9-2 2-2h2m-2 2v2h2v-2H4m16 0v2h2v2h-2c-1.1 0-2-.9-2-2v-2c0-1.1.9-2 2-2h2v2h-2m-8-6v4h2c1.1 0 2 .9 2 2v2c0 1.1-.9 2-2 2h-2c-1.1 0-2-.9-2-2V7h2m0 8h2v-2h-2v2z" fill="#646464"/></svg>
