<?xml version="1.0"?>
<svg xmlns="http://www.w3.org/2000/svg" xmlns:xlink="http://www.w3.org/1999/xlink" aria-hidden="true" width="1em" height="1em" viewBox="0 0 24 24" data-icon="mdi:amazon-drive" data-width="1em" data-height="1em" data-inline="false" class="iconify"><path d="M4.94 11.12c.29 0 .56.04.82.11a3.892 3.892 0 0 1 3.89-3.88c1.62 0 3.02 1 3.59 2.42a3.15 3.15 0 0 1 2.52-1.24 3.188 3.188 0 0 1 3.1 3.9c.24-.09.51-.14.79-.14a2.356 2.356 0 0 1 0 4.71H4.94C3.32 17 2 15.68 2 14.06c0-1.63 1.32-2.94 2.94-2.94z" fill="#646464"/></svg>
