<?xml version="1.0"?>
<svg xmlns="http://www.w3.org/2000/svg" xmlns:xlink="http://www.w3.org/1999/xlink" aria-hidden="true" width="1em" height="1em" viewBox="0 0 24 24" data-icon="mdi:amplifier" data-width="1em" data-height="1em" data-inline="false" class="iconify"><path d="M10 2h4c.55 0 1 .45 1 1h6v18h-2c0 .55-.45 1-1 1s-1-.45-1-1H7c0 .55-.45 1-1 1s-1-.45-1-1H3V3h6c0-.55.45-1 1-1M5 5v4h14V5H5m2 1c.55 0 1 .45 1 1s-.45 1-1 1-1-.45-1-1 .45-1 1-1m5 0h2v1h-2V6m3 0h1v2h-1V6m2 0h1v2h-1V6m-5 5c-2.21 0-4 1.79-4 4s1.79 4 4 4 4-1.79 4-4-1.79-4-4-4m-2-5c.55 0 1 .45 1 1s-.45 1-1 1-1-.45-1-1 .45-1 1-1z" fill="#646464"/></svg>
