<?xml version="1.0"?>
<svg xmlns="http://www.w3.org/2000/svg" xmlns:xlink="http://www.w3.org/1999/xlink" aria-hidden="true" width="1em" height="1em" viewBox="0 0 24 24" data-icon="mdi:anchor" data-width="1em" data-height="1em" data-inline="false" class="iconify"><path d="M12 2c-1.66 0-3 1.34-3 3 0 1.27.8 2.4 2 2.83V10H8v2h3v6.92A6.494 6.494 0 0 1 6.53 16H8v-2H3v5h2v-1.7c1.58 2.31 4.2 3.7 7 3.7s5.42-1.39 7-3.69V19h2v-5h-5v2h1.46c-1 1.56-2.63 2.63-4.46 2.92V12h3v-2h-3V7.82A2.996 2.996 0 0 0 12 2m0 2c.55 0 1 .45 1 1s-.45 1-1 1-1-.45-1-1 .45-1 1-1z" fill="#646464"/></svg>
