<?xml version="1.0"?>
<svg xmlns="http://www.w3.org/2000/svg" xmlns:xlink="http://www.w3.org/1999/xlink" aria-hidden="true" width="1em" height="1em" viewBox="0 0 24 24" data-icon="mdi:android-head" data-width="1em" data-height="1em" data-inline="false" class="iconify"><path d="M8 11.5A1.25 1.25 0 1 0 8 14a1.25 1.25 0 0 0 0-2.5m8 0a1.25 1.25 0 1 0 0 2.5 1.25 1.25 0 0 0 0-2.5M12 7c1.5 0 2.9.33 4.18.91l2.16-2.16a.996.996 0 1 1 1.41 1.41l-1.8 1.8A9.999 9.999 0 0 1 22 17H2c0-3.29 1.59-6.21 4.05-8.04l-1.8-1.8a.996.996 0 1 1 1.41-1.41l2.16 2.16C9.1 7.33 10.5 7 12 7z" fill="#646464"/></svg>
