<?xml version="1.0"?>
<svg xmlns="http://www.w3.org/2000/svg" xmlns:xlink="http://www.w3.org/1999/xlink" aria-hidden="true" width="1em" height="1em" viewBox="0 0 24 24" data-icon="mdi:android-debug-bridge" data-width="1em" data-height="1em" data-inline="false" class="iconify"><path d="M15 9c-.55 0-1-.45-1-1s.45-1 1-1 1 .45 1 1-.45 1-1 1M9 9c-.55 0-1-.45-1-1s.45-1 1-1 1 .45 1 1-.45 1-1 1m7.12-4.63l2.1-2.1-.82-.83-2.31 2.31C14.16 3.28 13.11 3 12 3c-1.12 0-2.16.28-3.09.75L6.6 1.44l-.82.83 2.1 2.1C6.14 5.64 5 7.68 5 10v1h14v-1c0-2.32-1.14-4.36-2.88-5.63M5 16c0 3.86 3.13 7 7 7s7-3.13 7-7v-4H5v4z" fill="#646464"/></svg>
