<?xml version="1.0"?>
<svg xmlns="http://www.w3.org/2000/svg" xmlns:xlink="http://www.w3.org/1999/xlink" aria-hidden="true" width="1em" height="1em" viewBox="0 0 24 24" data-icon="mdi:android-auto" data-width="1em" data-height="1em" data-inline="false" class="iconify"><path d="M22.78 17.91c.16.25.22.51.22.79 0 .38-.13.69-.43.94s-.63.36-1.01.36h-2.48L12.42 8h-.84L4.92 20H2.39c-.47 0-.86-.2-1.17-.62-.31-.42-.33-.88-.05-1.38l9.61-16.31C11.09 1.22 11.5 1 12 1c.53 0 .92.22 1.17.69l9.61 16.22m-18 4.4L12 9.38l7.22 12.93-.72.69-6.5-2.66L5.44 23l-.66-.69z" fill="#646464"/></svg>
