<?xml version="1.0"?>
<svg xmlns="http://www.w3.org/2000/svg" xmlns:xlink="http://www.w3.org/1999/xlink" aria-hidden="true" width="1em" height="1em" viewBox="0 0 24 24" data-icon="mdi:apple-keyboard-command" data-width="1em" data-height="1em" data-inline="false" class="iconify"><path d="M6 2c2.21 0 4 1.79 4 4v2h4V6c0-2.21 1.79-4 4-4s4 1.79 4 4-1.79 4-4 4h-2v4h2c2.21 0 4 1.79 4 4s-1.79 4-4 4-4-1.79-4-4v-2h-4v2c0 2.21-1.79 4-4 4s-4-1.79-4-4 1.79-4 4-4h2v-4H6c-2.21 0-4-1.79-4-4s1.79-4 4-4m10 16c0 1.1.9 2 2 2s2-.9 2-2-.9-2-2-2h-2v2m-2-8h-4v4h4v-4m-8 6c-1.1 0-2 .9-2 2s.9 2 2 2 2-.9 2-2v-2H6M8 6c0-1.1-.9-2-2-2s-2 .9-2 2 .9 2 2 2h2V6m10 2c1.1 0 2-.9 2-2s-.9-2-2-2-2 .9-2 2v2h2z" fill="#646464"/></svg>
