<?xml version="1.0"?>
<svg xmlns="http://www.w3.org/2000/svg" xmlns:xlink="http://www.w3.org/1999/xlink" aria-hidden="true" width="1em" height="1em" viewBox="0 0 24 24" data-icon="mdi:apple-finder" data-width="1em" data-height="1em" data-inline="false" class="iconify"><path d="M4 4h7.89c.57-1.09 1.24-2.12 2.04-3l1.11 1.11c-.43.59-.81 1.23-1.15 1.89H20c1.1 0 2 .9 2 2v13c0 1.1-.9 2-2 2h-5.07l.33 1.23-1.83.72-.5-1.95H4c-1.1 0-2-.9-2-2V6c0-1.1.9-2 2-2m0 2v13h8.54c-.04-.33-.1-.66-.14-1H12c-2.75 0-5.22-.5-6.87-1.24l.91-1.64C7 15.64 9.17 16 12 16h.24c-.03-.67-.02-1.34.03-2H9s.4-4.03 2-8H4m16 13V6h-7c-.9 2.22-1.42 4.46-1.7 6h2.87c-.17 1.28-.2 2.62-.11 3.93 1.81-.13 3.19-.43 3.9-.81l.91 1.64c-1.18.54-2.77.94-4.58 1.13.06.38.12.75.21 1.11H20M6 8h2v3H6V8m10 0h2v3h-2V8z" fill="#646464"/></svg>
