<?xml version="1.0"?>
<svg xmlns="http://www.w3.org/2000/svg" xmlns:xlink="http://www.w3.org/1999/xlink" aria-hidden="true" width="1em" height="1em" viewBox="0 0 24 24" data-icon="mdi:apple-safari" data-width="1em" data-height="1em" data-inline="false" class="iconify"><path d="M12 2c5.52 0 10 4.48 10 10s-4.48 10-10 10S2 17.52 2 12 6.48 2 12 2m0 2c-4.42 0-8 3.58-8 8 0 2.09.8 4 2.11 5.41l3.77-7.53 7.53-3.77A7.931 7.931 0 0 0 12 4m0 16c4.42 0 8-3.58 8-8 0-2.09-.8-4-2.11-5.41l-3.77 7.53-7.53 3.77A7.931 7.931 0 0 0 12 20m0-8l-.77-.77L9.7 14.3l3.07-1.53L12 12m0 5.5h1V19h-1v-1.5m3.88-1.61l.71-.71 1.06 1.06-.71.71-1.06-1.06M17.5 12v-1H19v1h-1.5M12 6.5h-1V5h1v1.5M8.12 8.11l-.71.71-1.06-1.06.71-.71 1.06 1.06M6.5 12v1H5v-1h1.5z" fill="#646464"/></svg>
