<?xml version="1.0"?>
<svg xmlns="http://www.w3.org/2000/svg" xmlns:xlink="http://www.w3.org/1999/xlink" aria-hidden="true" width="1em" height="1em" viewBox="0 0 24 24" data-icon="mdi:arrow-decision-outline" data-width="1em" data-height="1em" data-inline="false" class="iconify"><path d="M9.64 13.4C8.63 12.5 7.34 12.03 6 12v3l-4-4 4-4v3c1.67 0 3.3.57 4.63 1.59a7.97 7.97 0 0 0-.99 1.81M18 15v-3c-.5 0-4.5.16-4.95 4.2 1.56.55 2.38 2.27 1.83 3.83a3.006 3.006 0 0 1-3.83 1.83c-1.55-.56-2.38-2.27-1.83-3.83.28-.86.98-1.53 1.83-1.83A6.748 6.748 0 0 1 18 10V7l4 4-4 4m-5 4c0-.55-.45-1-1-1s-1 .45-1 1 .45 1 1 1 1-.45 1-1m-2-7.88c.58-.66 1.25-1.23 2-1.69V5h3l-4-4-4 4h3v6.12z" fill="#646464"/></svg>
