<?xml version="1.0"?>
<svg xmlns="http://www.w3.org/2000/svg" xmlns:xlink="http://www.w3.org/1999/xlink" aria-hidden="true" width="1em" height="1em" viewBox="0 0 24 24" data-icon="mdi:arrow-all" data-width="1em" data-height="1em" data-inline="false" class="iconify"><path d="M13 11h5l-1.5-1.5 1.42-1.42L21.84 12l-3.92 3.92-1.42-1.42L18 13h-5v5l1.5-1.5 1.42 1.42L12 21.84l-3.92-3.92L9.5 16.5 11 18v-5H6l1.5 1.5-1.42 1.42L2.16 12l3.92-3.92L7.5 9.5 6 11h5V6L9.5 7.5 8.08 6.08 12 2.16l3.92 3.92L14.5 7.5 13 6v5z" fill="#646464"/></svg>
