<?xml version="1.0"?>
<svg xmlns="http://www.w3.org/2000/svg" xmlns:xlink="http://www.w3.org/1999/xlink" aria-hidden="true" width="1em" height="1em" viewBox="0 0 24 24" data-icon="mdi:artist" data-width="1em" data-height="1em" data-inline="false" class="iconify"><path d="M11 14c1 0 2.05.16 3.2.44-.81.87-1.2 1.89-1.2 3.06 0 .89.25 1.73.78 2.5H3v-2c0-1.19.91-2.15 2.74-2.88C7.57 14.38 9.33 14 11 14m7.5-4H22v2h-2v5.5c0 .67-.23 1.27-.73 1.77s-1.1.73-1.77.73c-.7 0-1.29-.23-1.77-.73-.49-.5-.73-1.1-.73-1.77 0-.7.24-1.29.73-1.77.48-.49 1.07-.73 1.77-.73.3 0 .64.08 1 .23V10M11 12c-1.08 0-2-.39-2.82-1.17C7.38 10.05 7 9.11 7 8c0-1.08.38-2 1.18-2.82C9 4.38 9.92 4 11 4c1.11 0 2.05.38 2.83 1.18C14.61 6 15 6.92 15 8c0 1.11-.39 2.05-1.17 2.83-.78.78-1.72 1.17-2.83 1.17z" fill="#646464"/></svg>
