<?xml version="1.0"?>
<svg xmlns="http://www.w3.org/2000/svg" xmlns:xlink="http://www.w3.org/1999/xlink" aria-hidden="true" width="1em" height="1em" viewBox="0 0 24 24" data-icon="mdi:attachment" data-width="1em" data-height="1em" data-inline="false" class="iconify"><path d="M7.5 18C4.46 18 2 15.54 2 12.5S4.46 7 7.5 7H18c2.21 0 4 1.79 4 4s-1.79 4-4 4H9.5a2.5 2.5 0 0 1 0-5H17v1.5H9.5c-.55 0-1 .45-1 1s.45 1 1 1H18a2.5 2.5 0 0 0 0-5H7.5c-2.21 0-4 1.79-4 4s1.79 4 4 4H17V18H7.5z" fill="#646464"/></svg>
