<?xml version="1.0"?>
<svg xmlns="http://www.w3.org/2000/svg" xmlns:xlink="http://www.w3.org/1999/xlink" aria-hidden="true" width="1em" height="1em" viewBox="0 0 24 24" data-icon="mdi:audio-video" data-width="1em" data-height="1em" data-inline="false" class="iconify"><path d="M20 7H4c-1.1 0-2 .9-2 2v6c0 1.1.9 2 2 2h1v1c0 .6.4 1 1 1h2c.6 0 1-.4 1-1v-1h6v1c0 .6.4 1 1 1h2c.6 0 1-.4 1-1v-1h1c1.1 0 2-.9 2-2V9c0-1.1-.9-2-2-2m-6 5H4v-2h10v2m4 1c-1.1 0-2-.9-2-2s.9-2 2-2 2 .9 2 2-.9 2-2 2M6 15H4v-1h2v1m4 0H8v-1h2v1m4 0h-2v-1h2v1z" fill="#646464"/></svg>
