<?xml version="1.0"?>
<svg xmlns="http://www.w3.org/2000/svg" xmlns:xlink="http://www.w3.org/1999/xlink" aria-hidden="true" width="1em" height="1em" viewBox="0 0 24 24" data-icon="mdi:auto-fix" data-width="1em" data-height="1em" data-inline="false" class="iconify"><path d="M7.5 5.6L5 7l1.4-2.5L5 2l2.5 1.4L10 2 8.6 4.5 10 7 7.5 5.6m12 9.8L22 14l-1.4 2.5L22 19l-2.5-1.4L17 19l1.4-2.5L17 14l2.5 1.4M22 2l-1.4 2.5L22 7l-2.5-1.4L17 7l1.4-2.5L17 2l2.5 1.4L22 2m-8.66 10.78l2.44-2.44-2.12-2.12-2.44 2.44 2.12 2.12m1.03-5.49l2.34 2.34c.39.37.39 1.02 0 1.41L5.04 22.71c-.39.39-1.04.39-1.41 0l-2.34-2.34c-.39-.37-.39-1.02 0-1.41L12.96 7.29c.39-.39 1.04-.39 1.41 0z" fill="#646464"/></svg>
