<?xml version="1.0"?>
<svg xmlns="http://www.w3.org/2000/svg" xmlns:xlink="http://www.w3.org/1999/xlink" aria-hidden="true" width="1em" height="1em" viewBox="0 0 24 24" data-icon="mdi:av-timer" data-width="1em" data-height="1em" data-inline="false" class="iconify"><path d="M11 17c0 .55.45 1 1 1s1-.45 1-1-.45-1-1-1-1 .45-1 1m0-14v4h2V5.08c3.39.49 6 3.39 6 6.92 0 3.87-3.13 7-7 7s-7-3.13-7-7c0-1.68.59-3.22 1.58-4.42L12 13l1.41-1.41-6.8-6.8v.02C4.42 6.45 3 9.05 3 12a9 9 0 1 0 9-9m6 9c0-.55-.45-1-1-1s-1 .45-1 1 .45 1 1 1 1-.45 1-1M6 12c0 .55.45 1 1 1s1-.45 1-1-.45-1-1-1-1 .45-1 1z" fill="#646464"/></svg>
