<?xml version="1.0"?>
<svg xmlns="http://www.w3.org/2000/svg" xmlns:xlink="http://www.w3.org/1999/xlink" aria-hidden="true" width="1em" height="1em" viewBox="0 0 24 24" data-icon="mdi:baby" data-width="1em" data-height="1em" data-inline="false" class="iconify"><path d="M18.5 4a2.5 2.5 0 0 1 0 5 2.5 2.5 0 0 1 0-5m-14 16c-.83 0-1.5-.67-1.5-1.5S3.67 17 4.5 17h7c.83 0 1.5.67 1.5 1.5s-.67 1.5-1.5 1.5h-7m11.59-1l-1.4-4H11l-4.25-4.25S9 8.25 12.5 8.25c3 0 3.35 1 3.56 1.62L18.92 18c.28.78-.14 1.64-.92 1.92-.78.27-1.64-.14-1.91-.92z" fill="#646464"/></svg>
