<?xml version="1.0"?>
<svg xmlns="http://www.w3.org/2000/svg" xmlns:xlink="http://www.w3.org/1999/xlink" aria-hidden="true" width="1em" height="1em" viewBox="0 0 24 24" data-icon="mdi:backspace-outline" data-width="1em" data-height="1em" data-inline="false" class="iconify"><path d="M19 15.59L17.59 17 14 13.41 10.41 17 9 15.59 12.59 12 9 8.41 10.41 7 14 10.59 17.59 7 19 8.41 15.41 12 19 15.59M22 3c1.1 0 2 .9 2 2v14c0 1.1-.9 2-2 2H7c-.69 0-1.23-.36-1.59-.89L0 12l5.41-8.12C5.77 3.35 6.31 3 7 3h15m0 2H7l-4.72 7L7 19h15V5z" fill="#646464"/></svg>
