<?xml version="1.0"?>
<svg xmlns="http://www.w3.org/2000/svg" xmlns:xlink="http://www.w3.org/1999/xlink" aria-hidden="true" width="1em" height="1em" viewBox="0 0 24 24" data-icon="mdi:barcode-scan" data-width="1em" data-height="1em" data-inline="false" class="iconify"><path d="M4 6h2v12H4V6m3 0h1v12H7V6m2 0h3v12H9V6m4 0h1v12h-1V6m3 0h2v12h-2V6m3 0h1v12h-1V6M2 4v4H0V4c0-1.1.9-2 2-2h4v2H2m20-2c1.1 0 2 .9 2 2v4h-2V4h-4V2h4M2 16v4h4v2H2c-1.1 0-2-.9-2-2v-4h2m20 4v-4h2v4c0 1.1-.9 2-2 2h-4v-2h4z" fill="#646464"/></svg>
