<?xml version="1.0"?>
<svg xmlns="http://www.w3.org/2000/svg" xmlns:xlink="http://www.w3.org/1999/xlink" aria-hidden="true" width="1em" height="1em" viewBox="0 0 24 24" data-icon="mdi:basket" data-width="1em" data-height="1em" data-inline="false" class="iconify"><path d="M5.5 21c-.78 0-1.46-.45-1.79-1.1L1.1 10.44 1 10c0-.55.45-1 1-1h4.58l4.6-6.57a.997.997 0 0 1 1.65.01L17.42 9H22c.55 0 1 .45 1 1l-.04.29-2.67 9.61c-.33.65-1.01 1.1-1.79 1.1h-13M12 4.74L9 9h6l-3-4.26M12 13c-1.1 0-2 .9-2 2s.9 2 2 2 2-.9 2-2-.9-2-2-2z" fill="#646464"/></svg>
