<?xml version="1.0"?>
<svg xmlns="http://www.w3.org/2000/svg" xmlns:xlink="http://www.w3.org/1999/xlink" aria-hidden="true" width="1em" height="1em" viewBox="0 0 24 24" data-icon="mdi:basket-unfill" data-width="1em" data-height="1em" data-inline="false" class="iconify"><path d="M3 10h3V7H3v3m2-5h3V2H5v3m3 5h3V7H8v3m9-9l-5 5h3v4h4V6h3l-5-5M7.5 22c-.78 0-1.46-.45-1.79-1.1L3.1 13.44 3 13c0-.55.45-1 1-1h16c.55 0 1 .45 1 1l-.04.29-2.67 7.61c-.33.65-1.01 1.1-1.79 1.1h-9m.11-2h8.78l2.18-6H5.42l2.19 6z" fill="#646464"/></svg>
