<?xml version="1.0"?>
<svg xmlns="http://www.w3.org/2000/svg" xmlns:xlink="http://www.w3.org/1999/xlink" aria-hidden="true" width="1em" height="1em" viewBox="0 0 24 24" data-icon="mdi:bat" data-width="1em" data-height="1em" data-inline="false" class="iconify"><path d="M.75 8S5 7 8 9c0 0 .5 3.75 2.5 3.75V11s.5 1 1.5 1 1.5-1 1.5-1v1.75C15.5 12.75 16 9 16 9c3-2 7.25-1 7.25-1-2 1-2.25 4.5-2.25 4.5-4 0-4 3.25-4 3.25-5-1-5 2.75-5 2.75s0-3.75-5-2.75c0 0 0-3.25-4-3.25C3 12.5 2.75 9 .75 8z" fill="#646464"/></svg>
