<?xml version="1.0"?>
<svg xmlns="http://www.w3.org/2000/svg" xmlns:xlink="http://www.w3.org/1999/xlink" aria-hidden="true" width="1em" height="1em" viewBox="0 0 24 24" data-icon="mdi:battery-30-bluetooth" data-width="1em" data-height="1em" data-inline="false" class="iconify"><path d="M5 2v2H3.33C2.6 4 2 4.6 2 5.33v15.34C2 21.4 2.6 22 3.33 22h9.34c.73 0 1.33-.6 1.33-1.33V5.33C14 4.6 13.4 4 12.67 4H11V2H5M4 6h8v9H4V6m15 2v3.79L16.71 9.5l-.71.71L18.79 13 16 15.79l.71.71L19 14.21V18h.5l2.85-2.86L20.21 13l2.14-2.15L19.5 8H19m1 1.91l.94.94-.94.94V9.91m0 4.3l.94.93-.94.94v-1.87z" fill="#646464"/></svg>
