<?xml version="1.0"?>
<svg xmlns="http://www.w3.org/2000/svg" xmlns:xlink="http://www.w3.org/1999/xlink" aria-hidden="true" width="1em" height="1em" viewBox="0 0 24 24" data-icon="mdi:battery-charging-wireless-10" data-width="1em" data-height="1em" data-inline="false" class="iconify"><path d="M20.07 4.93l-1.41 1.41c3.13 3.12 3.13 8.19 0 11.32l1.41 1.41c3.9-3.9 3.9-10.23 0-14.14m-2.83 2.83l-1.41 1.41a4.008 4.008 0 0 1 0 5.66l1.41 1.41a6 6 0 0 0 0-8.48M13 4h-2V2H5v2H3c-.55 0-1 .45-1 1v16c0 .55.45 1 1 1h10c.55 0 1-.45 1-1V5c0-.55-.45-1-1-1m-1 14.5H4V6h8v12.5z" fill="#646464"/></svg>
