<?xml version="1.0"?>
<svg xmlns="http://www.w3.org/2000/svg" xmlns:xlink="http://www.w3.org/1999/xlink" aria-hidden="true" width="1em" height="1em" viewBox="0 0 24 24" data-icon="mdi:battery-unknown" data-width="1em" data-height="1em" data-inline="false" class="iconify"><path d="M15.07 12.25l-.9.92c-.54.54-.92 1.01-1.08 1.83h-2.04c.11-.9.51-1.72 1.12-2.33l1.24-1.26c.37-.36.59-.86.59-1.41a2 2 0 1 0-4 0H8c0-2.21 1.79-4 4-4s4 1.79 4 4c0 .88-.36 1.68-.93 2.25M13 19h-2v-2h2m3.67-13H15V2H9v2H7.33C6.6 4 6 4.6 6 5.33v15.33C6 21.4 6.6 22 7.33 22h9.34c.73 0 1.33-.6 1.33-1.34V5.33C18 4.59 17.4 4 16.67 4z" fill="#646464"/></svg>
