<?xml version="1.0"?>
<svg xmlns="http://www.w3.org/2000/svg" xmlns:xlink="http://www.w3.org/1999/xlink" aria-hidden="true" width="1em" height="1em" viewBox="0 0 24 24" data-icon="mdi:beach" data-width="1em" data-height="1em" data-inline="false" class="iconify"><path d="M15 18.54c2.13-.33 4.5-.54 7-.54v4H5c0-.65 3.2-2.14 8-3.1v-6.5c-.84.25-1.55.81-2 1.55a3.495 3.495 0 0 0-6 0c.03-3.58 3.5-6.52 8-6.91V7c0-.55.45-1 1-1s1 .45 1 1v.04c4.5.39 7.96 3.33 8 6.91a3.495 3.495 0 0 0-6 0c-.45-.74-1.16-1.3-2-1.56v6.15M7 2c0 2.76-2.24 5-5 5V2h5z" fill="#646464"/></svg>
