<?xml version="1.0"?>
<svg xmlns="http://www.w3.org/2000/svg" xmlns:xlink="http://www.w3.org/1999/xlink" aria-hidden="true" width="1em" height="1em" viewBox="0 0 24 24" data-icon="mdi:beats" data-width="1em" data-height="1em" data-inline="false" class="iconify"><path d="M7 12c0 2.76 2.24 5 5 5s5-2.24 5-5a5.002 5.002 0 0 0-8-4V2.46c.95-.3 1.95-.46 3-.46 5.52 0 10 4.48 10 10s-4.48 10-10 10S2 17.52 2 12c0-3.7 2-6.93 5-8.66V12m5-3c1.66 0 3 1.34 3 3s-1.34 3-3 3-3-1.34-3-3 1.34-3 3-3z" fill="#646464"/></svg>
