<?xml version="1.0"?>
<svg xmlns="http://www.w3.org/2000/svg" xmlns:xlink="http://www.w3.org/1999/xlink" aria-hidden="true" width="1em" height="1em" viewBox="0 0 24 24" data-icon="mdi:bell-off-outline" data-width="1em" data-height="1em" data-inline="false" class="iconify"><path d="M22.11 21.46L2.39 1.73 1.11 3l4.72 4.72A6.975 6.975 0 0 0 5 11v6l-2 2v1h15.11l2.73 2.73 1.27-1.27M7 18v-7c0-.61.11-1.21.34-1.77L16.11 18H7m3 3h4c0 1.1-.9 2-2 2s-2-.9-2-2M8.29 5.09c.53-.34 1.11-.59 1.71-.8V4c0-1.1.9-2 2-2s2 .9 2 2v.29c2.97.88 5 3.61 5 6.71v4.8l-2-2V11c0-2.76-2.24-5-5-5-.78 0-1.55.2-2.24.56L8.29 5.09z" fill="#646464"/></svg>
