<?xml version="1.0"?>
<svg xmlns="http://www.w3.org/2000/svg" xmlns:xlink="http://www.w3.org/1999/xlink" aria-hidden="true" width="1em" height="1em" viewBox="0 0 24 24" data-icon="mdi:bell-off" data-width="1em" data-height="1em" data-inline="false" class="iconify"><path d="M20.84 22.73L18.11 20H3v-1l2-2v-6c0-1.14.29-2.27.83-3.28L1.11 3l1.28-1.27 19.72 19.73-1.27 1.27M19 15.8V11c0-3.1-2.03-5.83-5-6.71V4c0-1.1-.9-2-2-2s-2 .9-2 2v.29c-.61.18-1.2.45-1.74.8L19 15.8M12 23c1.1 0 2-.9 2-2h-4c0 1.1.9 2 2 2z" fill="#646464"/></svg>
