<?xml version="1.0"?>
<svg xmlns="http://www.w3.org/2000/svg" xmlns:xlink="http://www.w3.org/1999/xlink" aria-hidden="true" width="1em" height="1em" viewBox="0 0 24 24" data-icon="mdi:bell-outline" data-width="1em" data-height="1em" data-inline="false" class="iconify"><path d="M16 17H7v-6.5C7 8 9 6 11.5 6S16 8 16 10.5m2 5.5v-5.5c0-3.07-2.14-5.64-5-6.32V3.5c0-.83-.67-1.5-1.5-1.5S10 2.67 10 3.5v.68c-2.87.68-5 3.25-5 6.32V16l-2 2v1h17v-1m-8.5 4c1.1 0 2-.9 2-2h-4c0 1.1.9 2 2 2z" fill="#646464"/></svg>
