<?xml version="1.0"?>
<svg xmlns="http://www.w3.org/2000/svg" xmlns:xlink="http://www.w3.org/1999/xlink" aria-hidden="true" width="1em" height="1em" viewBox="0 0 24 24" data-icon="mdi:bike" data-width="1em" data-height="1em" data-inline="false" class="iconify"><path d="M5 20.5c-1.93 0-3.5-1.57-3.5-3.5s1.57-3.5 3.5-3.5 3.5 1.57 3.5 3.5-1.57 3.5-3.5 3.5M5 12c-2.76 0-5 2.24-5 5s2.24 5 5 5 5-2.24 5-5-2.24-5-5-5m9.8-2H19V8.2h-3.2l-1.94-3.27c-.29-.5-.86-.83-1.46-.83-.47 0-.9.19-1.2.5L7.5 8.29C7.19 8.6 7 9 7 9.5c0 .63.33 1.16.85 1.47L11.2 13v5H13v-6.5l-2.25-1.65 2.32-2.35m5.93 13c-1.93 0-3.5-1.57-3.5-3.5s1.57-3.5 3.5-3.5 3.5 1.57 3.5 3.5-1.57 3.5-3.5 3.5m0-8.5c-2.76 0-5 2.24-5 5s2.24 5 5 5 5-2.24 5-5-2.24-5-5-5m-3-7.2c1 0 1.8-.8 1.8-1.8S17 1.2 16 1.2 14.2 2 14.2 3 15 4.8 16 4.8z" fill="#646464"/></svg>
