<?xml version="1.0"?>
<svg xmlns="http://www.w3.org/2000/svg" xmlns:xlink="http://www.w3.org/1999/xlink" aria-hidden="true" width="1em" height="1em" viewBox="0 0 24 24" data-icon="mdi:billiards-rack" data-width="1em" data-height="1em" data-inline="false" class="iconify"><path d="M20.31 16.44l-5.77-9.97a2.978 2.978 0 0 0-4.08-1.09c-.46.26-.83.62-1.1 1.09L3.6 16.44a2.953 2.953 0 0 0 1.09 4.06c.45.28.96.42 1.49.42h11.55a2.992 2.992 0 0 0 2.98-3c0-.52-.14-1.03-.4-1.48m-14.94.99l5.74-9.96c.27-.47.89-.65 1.35-.37.16.08.29.21.38.37l5.74 9.96c.27.48.11 1.07-.37 1.36-.15.09-.32.14-.49.14H6.21c-.55-.01-1-.46-.99-1.01 0-.17.04-.34.13-.49h.02m6.6-3.98c-1.1 0-1.97-.89-1.97-1.99 0-1.11.87-2 1.97-2s2 .9 2 2-.9 1.99-2.02 1.99h.02m-2.51 4.48c-1.1 0-1.99-.89-1.99-1.99s.89-1.99 1.99-1.99 2 .89 2 1.99-.9 1.99-2 1.99m4.98 0c-1.1 0-1.99-.89-1.99-1.99s.89-1.99 1.99-1.99 2 .89 2 1.99-.9 1.99-2 1.99z" fill="#646464"/></svg>
