<?xml version="1.0"?>
<svg xmlns="http://www.w3.org/2000/svg" xmlns:xlink="http://www.w3.org/1999/xlink" aria-hidden="true" width="1em" height="1em" viewBox="0 0 24 24" data-icon="mdi:bio" data-width="1em" data-height="1em" data-inline="false" class="iconify"><path d="M17 12h3c1.1 0 2 .9 2 2v3c0 1.1-.9 2-2 2h-3c-1.1 0-2-.9-2-2v-3c0-1.1.9-2 2-2m0 2v3h3v-3h-3M2 7h5c1.1 0 2 .9 2 2v2c0 1.1-.9 2-2 2 1.1 0 2 .9 2 2v2c0 1.1-.9 2-2 2H2V7m2 2v3h3V9H4m0 8h3v-3H4v3m7-4h2v6h-2v-6m0-4h2v2h-2V9z" fill="#646464"/></svg>
