<?xml version="1.0"?>
<svg xmlns="http://www.w3.org/2000/svg" xmlns:xlink="http://www.w3.org/1999/xlink" aria-hidden="true" width="1em" height="1em" viewBox="0 0 24 24" data-icon="mdi:bitcoin" data-width="1em" data-height="1em" data-inline="false" class="iconify"><path d="M4.5 5H8V2h2v3h1.5V2h2v3C19 5 19 11 16 11.25 20 11 21 19 13.5 19v3h-2v-3H10v3H8v-3H4.5l.5-2h1c.55 0 1-.45 1-1V8c0-.55-.45-1-1-1H4.5V5M10 7v4s4.5.25 4.5-2S10 7 10 7m0 5.5V17s5.5 0 5.5-2.25S10 12.5 10 12.5z" fill="#646464"/></svg>
