<?xml version="1.0"?>
<svg xmlns="http://www.w3.org/2000/svg" xmlns:xlink="http://www.w3.org/1999/xlink" aria-hidden="true" width="1em" height="1em" viewBox="0 0 24 24" data-icon="mdi:blackberry" data-width="1em" data-height="1em" data-inline="false" class="iconify"><path d="M5.45 10.28c.95 0 2.05.77 2.05 1.72s-1.1 1.72-2.05 1.72H2l.69-3.44h2.76m.69-5.52c.95 0 2.07.77 2.07 1.74 0 .93-1.12 1.71-2.07 1.71H2.69l.69-3.45h2.76m6.89 0c.97 0 2.07.77 2.07 1.74 0 .93-1.1 1.71-2.07 1.71H9.41l.69-3.45h2.93m-.69 5.52c.96 0 2.07.77 2.07 1.72s-1.11 1.72-2.07 1.72H8.72l.69-3.44h2.93m-1.37 5.51c.95 0 2.06.78 2.06 1.71 0 .97-1.11 1.74-2.06 1.74H7.5l.71-3.45h2.76m7.58-2.07c.95 0 2.07.78 2.07 1.73s-1.12 1.72-2.07 1.72H15.1l.69-3.45h2.76m1.38-5.51c.95 0 2.07.79 2.07 1.72 0 .95-1.12 1.73-2.07 1.73H16.5l.67-3.45h2.76z" fill="#646464"/></svg>
