<?xml version="1.0"?>
<svg xmlns="http://www.w3.org/2000/svg" xmlns:xlink="http://www.w3.org/1999/xlink" aria-hidden="true" width="1em" height="1em" viewBox="0 0 24 24" data-icon="mdi:blender" data-width="1em" data-height="1em" data-inline="false" class="iconify"><path d="M8 3c0 .34.17.69.5.88L12 6H2.5C1.67 6 1 6.67 1 7.5S1.67 9 2.5 9h5.91L2 13c-.84.5-1 1.22-1 2 0 1 .77 2 2 2 .69 0 1.39-.5 2-1l2-1.62c.2 4.24 3.71 7.62 8 7.62 4.42 0 8-3.58 8-8 0-2.92-1.57-5.5-3.91-6.87-.03-.02-.06-.05-.09-.07 0 0-.08-.06-.14-.09-3.1-2.09-5.83-3.25-9.31-4.84C9.34 2.04 9.16 2 9 2c-.6 0-1 .46-1 1m7 6c2.76 0 5 2.24 5 5s-2.24 5-5 5-5-2.24-5-5 2.24-5 5-5m0 1.5c-1.93 0-3.5 1.57-3.5 3.5s1.57 3.5 3.5 3.5 3.5-1.57 3.5-3.5-1.57-3.5-3.5-3.5z" fill="#646464"/></svg>
