<?xml version="1.0"?>
<svg xmlns="http://www.w3.org/2000/svg" xmlns:xlink="http://www.w3.org/1999/xlink" aria-hidden="true" width="1em" height="1em" viewBox="0 0 24 24" data-icon="mdi:blinds" data-width="1em" data-height="1em" data-inline="false" class="iconify"><path d="M3 2h18c.55 0 1 .45 1 1v2c0 .55-.45 1-1 1h-1v7c0 .55-.45 1-1 1h-6v2.17c1.17.41 2 1.52 2 2.83 0 1.66-1.34 3-3 3s-3-1.34-3-3c0-1.31.83-2.42 2-2.83V14H5c-.55 0-1-.45-1-1V6H3c-.55 0-1-.45-1-1V3c0-.55.45-1 1-1m9 16c-.55 0-1 .45-1 1s.45 1 1 1 1-.45 1-1-.45-1-1-1z" fill="#646464"/></svg>
