<?xml version="1.0"?>
<svg xmlns="http://www.w3.org/2000/svg" xmlns:xlink="http://www.w3.org/1999/xlink" aria-hidden="true" width="1em" height="1em" viewBox="0 0 24 24" data-icon="mdi:block-helper" data-width="1em" data-height="1em" data-inline="false" class="iconify"><path d="M12 0c6.63 0 12 5.37 12 12s-5.37 12-12 12S0 18.63 0 12 5.37 0 12 0m0 2C6.48 2 2 6.48 2 12c0 2.4.85 4.6 2.26 6.33L18.33 4.26A9.984 9.984 0 0 0 12 2m0 20c5.52 0 10-4.48 10-10 0-2.4-.85-4.6-2.26-6.33L5.67 19.74A9.984 9.984 0 0 0 12 22z" fill="#646464"/></svg>
