<?xml version="1.0"?>
<svg xmlns="http://www.w3.org/2000/svg" xmlns:xlink="http://www.w3.org/1999/xlink" aria-hidden="true" width="1em" height="1em" viewBox="0 0 24 24" data-icon="mdi:blogger" data-width="1em" data-height="1em" data-inline="false" class="iconify"><path d="M14 13H9.95c-.55 0-1 .45-1 1s.45 1 1 1H14c.55 0 1-.45 1-1s-.45-1-1-1m-4.05-3h2.6c.55 0 1-.45 1-1s-.45-1-1-1h-2.6c-.55 0-1 .45-1 1s.45 1 1 1M16 9v1c0 .55.45 1 1 1s1 .45 1 1v3c0 1.66-1.34 3-3 3H9c-1.66 0-3-1.34-3-3V8c0-1.66 1.34-3 3-3h4c1.66 0 3 1.34 3 3m4-6H4c-1.11 0-2 .89-2 2v16c0 1.1.9 2 2 2h16c1.1 0 2-.9 2-2V4a2 2 0 0 0-2-2z" fill="#646464"/></svg>
