<?xml version="1.0"?>
<svg xmlns="http://www.w3.org/2000/svg" xmlns:xlink="http://www.w3.org/1999/xlink" aria-hidden="true" width="1em" height="1em" viewBox="0 0 24 24" data-icon="mdi:bomb" data-width="1em" data-height="1em" data-inline="false" class="iconify"><path d="M11.25 6c0-1.79 1.46-3.25 3.25-3.25S17.75 4.21 17.75 6c0 .42.33.75.75.75s.75-.33.75-.75v-.75h1.5V6c0 1.24-1.01 2.25-2.25 2.25S16.25 7.24 16.25 6c0-.97-.78-1.75-1.75-1.75s-1.75.78-1.75 1.75H14v1.29c2.89.86 5 3.54 5 6.71 0 3.87-3.13 7-7 7s-7-3.13-7-7c0-3.17 2.11-5.85 5-6.71V6h1.25M22 6h2v1h-2V6m-3-2V2h1v2h-1m1.91.38l1.42-1.42.71.71-1.42 1.42-.71-.71z" fill="#646464"/></svg>
