<?xml version="1.0"?>
<svg xmlns="http://www.w3.org/2000/svg" xmlns:xlink="http://www.w3.org/1999/xlink" aria-hidden="true" width="1em" height="1em" viewBox="0 0 24 24" data-icon="mdi:bomb-off" data-width="1em" data-height="1em" data-inline="false" class="iconify"><path d="M14.5 2.75c-1.8 0-3.25 1.45-3.25 3.25H10v1.29c-.69.21-1.33.52-1.92.91l9.71 9.71A6.918 6.918 0 0 0 19 14c0-3.17-2.11-5.85-5-6.71V6h-1.25c0-.97.78-1.75 1.75-1.75s1.75.78 1.75 1.75c0 1.24 1.01 2.25 2.25 2.25S20.74 7.24 20.74 6v-.75h-1.49V6c0 .42-.34.75-.75.75-.42 0-.75-.33-.75-.75 0-1.8-1.46-3.25-3.25-3.25M3.41 6.36L2 7.77l3.55 3.55C5.2 12.14 5 13.04 5 14c0 3.86 3.13 7 7 7 .92 0 1.83-.19 2.68-.55L18.23 24l1.41-1.41L3.41 6.36z" fill="#646464"/></svg>
