<?xml version="1.0"?>
<svg xmlns="http://www.w3.org/2000/svg" xmlns:xlink="http://www.w3.org/1999/xlink" aria-hidden="true" width="1em" height="1em" viewBox="0 0 24 24" data-icon="mdi:bone" data-width="1em" data-height="1em" data-inline="false" class="iconify"><path d="M8 14c0 1.66-1.34 3-3 3s-3-1.34-3-3c0-.77.29-1.47.76-2-.47-.53-.76-1.23-.76-2 0-1.66 1.34-3 3-3s3 1.34 3 3c1.33.08 2.67.17 4 .17s2.67-.09 4-.17c0-1.66 1.34-3 3-3s3 1.34 3 3c0 .77-.29 1.47-.76 2 .47.53.76 1.23.76 2 0 1.66-1.34 3-3 3s-3-1.34-3-3c-1.33-.08-2.67-.17-4-.17s-2.67.09-4 .17z" fill="#646464"/></svg>
