<?xml version="1.0"?>
<svg xmlns="http://www.w3.org/2000/svg" xmlns:xlink="http://www.w3.org/1999/xlink" aria-hidden="true" width="1em" height="1em" viewBox="0 0 24 24" data-icon="mdi:book-remove" data-width="1em" data-height="1em" data-inline="false" class="iconify"><path d="M18 22H6c-1.1 0-2-.9-2-2V4a2 2 0 0 1 2-2h1v7l2.5-1.5L12 9V2h6c1.1 0 2 .9 2 2v16c0 1.1-.9 2-2 2m-1.59-2.17l1.42-1.42L16.41 17l1.42-1.41-1.42-1.42L15 15.59l-1.41-1.42-1.42 1.42L13.59 17l-1.42 1.41 1.42 1.42L15 18.41l1.41 1.42z" fill="#646464"/></svg>
