<?xml version="1.0"?>
<svg xmlns="http://www.w3.org/2000/svg" xmlns:xlink="http://www.w3.org/1999/xlink" aria-hidden="true" width="1em" height="1em" viewBox="0 0 24 24" data-icon="mdi:book-multiple-remove" data-width="1em" data-height="1em" data-inline="false" class="iconify"><path d="M9 2c-1.1 0-2 .9-2 2v12c0 1.1.9 2 2 2h10c1.1 0 2-.9 2-2V4c0-1.1-.9-2-2-2h-5v5l-2-1.5L10 7V2H9M3 6v14c0 1.1.9 2 2 2h12v-2H5V6H3m11.59 4.17L16 11.59l1.41-1.42 1.42 1.42L17.41 13l1.42 1.41-1.42 1.42L16 14.41l-1.41 1.42-1.42-1.42L14.59 13l-1.42-1.41 1.42-1.42z" fill="#646464"/></svg>
