<?xml version="1.0"?>
<svg xmlns="http://www.w3.org/2000/svg" xmlns:xlink="http://www.w3.org/1999/xlink" aria-hidden="true" width="1em" height="1em" viewBox="0 0 24 24" data-icon="mdi:boombox" data-width="1em" data-height="1em" data-inline="false" class="iconify"><path d="M7 5L5 7v1H3c-.55 0-1 .45-1 1v8c0 .55.45 1 1 1h18c.55 0 1-.45 1-1V9c0-.55-.45-1-1-1h-2V7l-2-2H7m0 2h10v1H7V7m4 2h2c.28 0 .5.22.5.5s-.22.5-.5.5h-2c-.28 0-.5-.22-.5-.5s.22-.5.5-.5m-3.5 1.5c1.66 0 3 1.34 3 3s-1.34 3-3 3-3-1.34-3-3 1.34-3 3-3m9 0c1.66 0 3 1.34 3 3s-1.34 3-3 3-3-1.34-3-3 1.34-3 3-3m-9 1.5c-.83 0-1.5.67-1.5 1.5S6.67 15 7.5 15 9 14.33 9 13.5 8.33 12 7.5 12m9 0c-.83 0-1.5.67-1.5 1.5s.67 1.5 1.5 1.5 1.5-.67 1.5-1.5-.67-1.5-1.5-1.5z" fill="#646464"/></svg>
