<?xml version="1.0"?>
<svg xmlns="http://www.w3.org/2000/svg" xmlns:xlink="http://www.w3.org/1999/xlink" aria-hidden="true" width="1em" height="1em" viewBox="0 0 24 24" data-icon="mdi:bootstrap" data-width="1em" data-height="1em" data-inline="false" class="iconify"><path d="M3 5c0-1.1.9-2 2-2h14c1.1 0 2 .9 2 2v14c0 1.1-.9 2-2 2H5a2 2 0 0 1-2-2V5m4.5 1v12h5c2.25 0 4-1.25 4-3.5 0-2-1.73-3-3.25-3 1.52 0 2.75-1.23 2.75-2.75S14.27 6 12.75 6H7.5m2.5 5V8h1.5c.83 0 1.5.67 1.5 1.5s-.67 1.5-1.5 1.5H10m0 2h2c.83 0 1.5.67 1.5 1.5S12.83 16 12 16h-2v-3z" fill="#646464"/></svg>
