<?xml version="1.0"?>
<svg xmlns="http://www.w3.org/2000/svg" xmlns:xlink="http://www.w3.org/1999/xlink" aria-hidden="true" width="1em" height="1em" viewBox="0 0 24 24" data-icon="mdi:border-horizontal" data-width="1em" data-height="1em" data-inline="false" class="iconify"><path d="M19 21h2v-2h-2m-4 2h2v-2h-2m-4-2h2v-2h-2m8-6h2V7h-2m0-2h2V3h-2M3 13h18v-2H3m8 10h2v-2h-2m8-2h2v-2h-2M13 3h-2v2h2m0 2h-2v2h2m4-6h-2v2h2M9 3H7v2h2M5 3H3v2h2m2 16h2v-2H7m-4-2h2v-2H3m2-8H3v2h2M3 21h2v-2H3v2z" fill="#646464"/></svg>
