<?xml version="1.0"?>
<svg xmlns="http://www.w3.org/2000/svg" xmlns:xlink="http://www.w3.org/1999/xlink" aria-hidden="true" width="1em" height="1em" viewBox="0 0 24 24" data-icon="mdi:border-top" data-width="1em" data-height="1em" data-inline="false" class="iconify"><path d="M15 13h2v-2h-2m4 10h2v-2h-2M11 9h2V7h-2m4 14h2v-2h-2m4-2h2v-2h-2M3 5h18V3H3m16 10h2v-2h-2m0-2h2V7h-2m-8 10h2v-2h-2M3 9h2V7H3m0 6h2v-2H3m0 10h2v-2H3m0-2h2v-2H3m8 6h2v-2h-2m0-6h2v-2h-2m-4 2h2v-2H7m0 10h2v-2H7v2z" fill="#646464"/></svg>
