<?xml version="1.0"?>
<svg xmlns="http://www.w3.org/2000/svg" xmlns:xlink="http://www.w3.org/1999/xlink" aria-hidden="true" width="1em" height="1em" viewBox="0 0 24 24" data-icon="mdi:bowling" data-width="1em" data-height="1em" data-inline="false" class="iconify"><path d="M12 2c5.52 0 10 4.48 10 10s-4.48 10-10 10S2 17.52 2 12 6.48 2 12 2m.5 9c-.83 0-1.5.67-1.5 1.5s.67 1.5 1.5 1.5 1.5-.67 1.5-1.5-.67-1.5-1.5-1.5M12 5c-1.1 0-2 .9-2 2s.9 2 2 2 2-.9 2-2-.9-2-2-2M5.93 8.5c-.55.95-.22 2.17.73 2.72.96.56 2.18.23 2.74-.72.55-.97.22-2.19-.74-2.74-.95-.55-2.16-.23-2.73.74z" fill="#646464"/></svg>
