<?xml version="1.0"?>
<svg xmlns="http://www.w3.org/2000/svg" xmlns:xlink="http://www.w3.org/1999/xlink" aria-hidden="true" width="1em" height="1em" viewBox="0 0 24 24" data-icon="mdi:box-cutter" data-width="1em" data-height="1em" data-inline="false" class="iconify"><path d="M7.22 11.91c-.33.33-.51.74-.56 1.17l5.51 2.36 8.49-8.48c.78-.79.78-2.05 0-2.83l-1.42-1.42c-.78-.78-2.04-.78-2.83 0l-9.19 9.2M5 16v5.75l5.81-5.22-5-2L5 16M17.12 4.83c.38-.39 1.03-.39 1.42 0 .39.4.39 1.03 0 1.42-.39.39-1.04.39-1.42 0-.39-.39-.39-1.02 0-1.42z" fill="#646464"/></svg>
