<?xml version="1.0"?>
<svg xmlns="http://www.w3.org/2000/svg" xmlns:xlink="http://www.w3.org/1999/xlink" aria-hidden="true" width="1em" height="1em" viewBox="0 0 24 24" data-icon="mdi:braille" data-width="1em" data-height="1em" data-inline="false" class="iconify"><path d="M7 8c0-.55.45-1 1-1s1 .45 1 1v4.47l1.21.13 4.94 2.19c.52.24.85.77.85 1.35v4.36c-.03.82-.68 1.47-1.5 1.5H8c-.38 0-.74-.15-1-.43l-4.9-4.2.74-.77c.19-.21.46-.32.74-.32h.22L7 18V8m12.5-6c-.83 0-1.5.67-1.5 1.5S18.67 5 19.5 5 21 4.33 21 3.5 20.33 2 19.5 2m0 5c-.83 0-1.5.67-1.5 1.5s.67 1.5 1.5 1.5S21 9.33 21 8.5 20.33 7 19.5 7m-5 0c-.83 0-1.5.67-1.5 1.5s.67 1.5 1.5 1.5S16 9.33 16 8.5 15.33 7 14.5 7m5 5c-.83 0-1.5.67-1.5 1.5s.67 1.5 1.5 1.5 1.5-.67 1.5-1.5-.67-1.5-1.5-1.5z" fill="#646464"/></svg>
