<?xml version="1.0"?>
<svg xmlns="http://www.w3.org/2000/svg" xmlns:xlink="http://www.w3.org/1999/xlink" aria-hidden="true" width="1em" height="1em" viewBox="0 0 24 24" data-icon="mdi:briefcase-edit" data-width="1em" data-height="1em" data-inline="false" class="iconify"><path d="M14 2c1.1 0 2 .9 2 2v2h4c1.1 0 2 .9 2 2L10.85 19v2H4a2 2 0 0 1-2-2V8c0-1.11.89-2 2-2h4V4c0-1.11.89-2 2-2h4m0 4V4h-4v2h4m7.04 6.13c-.14 0-.28.06-.39.17l-1 1 2.05 2.05 1-1c.22-.21.22-.56 0-.77l-1.28-1.28a.533.533 0 0 0-.38-.17m-1.97 1.75L13 19.94V22h2.06l6.06-6.07-2.05-2.05z" fill="#646464"/></svg>
