<?xml version="1.0"?>
<svg xmlns="http://www.w3.org/2000/svg" xmlns:xlink="http://www.w3.org/1999/xlink" aria-hidden="true" width="1em" height="1em" viewBox="0 0 24 24" data-icon="mdi:briefcase-remove" data-width="1em" data-height="1em" data-inline="false" class="iconify"><path d="M14.46 15.88l1.42-1.42L18 16.59l2.12-2.13 1.42 1.42L19.41 18l2.13 2.12-1.42 1.42L18 19.41l-2.12 2.13-1.42-1.42L16.59 18l-2.13-2.12M10 2h4c1.1 0 2 .9 2 2v2h4c1.1 0 2 .9 2 2v5.53A5.97 5.97 0 0 0 18 12a6.005 6.005 0 0 0-5.2 9H4a2 2 0 0 1-2-2V8c0-1.11.89-2 2-2h4V4c0-1.11.89-2 2-2m4 4V4h-4v2h4z" fill="#646464"/></svg>
