<?xml version="1.0"?>
<svg xmlns="http://www.w3.org/2000/svg" xmlns:xlink="http://www.w3.org/1999/xlink" aria-hidden="true" width="1em" height="1em" viewBox="0 0 24 24" data-icon="mdi:bug-outline" data-width="1em" data-height="1em" data-inline="false" class="iconify"><path d="M20 8h-2.81c-.45-.8-1.07-1.5-1.82-2L17 4.41 15.59 3l-2.17 2.17a6.002 6.002 0 0 0-2.83 0L8.41 3 7 4.41 8.62 6c-.75.5-1.36 1.21-1.81 2H4v2h2.09c-.06.33-.09.66-.09 1v1H4v2h2v1c0 .34.03.67.09 1H4v2h2.81A5.988 5.988 0 0 0 15 20.18c.91-.52 1.67-1.28 2.19-2.18H20v-2h-2.09c.06-.33.09-.66.09-1v-1h2v-2h-2v-1c0-.34-.03-.67-.09-1H20V8m-4 7c0 2.21-1.79 4-4 4s-4-1.79-4-4v-4c0-2.21 1.79-4 4-4s4 1.79 4 4v4m-2-5v2h-4v-2h4m-4 4h4v2h-4v-2z" fill="#646464"/></svg>
