<?xml version="1.0"?>
<svg xmlns="http://www.w3.org/2000/svg" xmlns:xlink="http://www.w3.org/1999/xlink" aria-hidden="true" width="1em" height="1em" viewBox="0 0 24 24" data-icon="mdi:bulldozer" data-width="1em" data-height="1em" data-inline="false" class="iconify"><path d="M4 4c-.55 0-1 .45-1 1v5c-.46 0-.86.31-.97.76v3.21h.26C2.65 13.37 3.3 13 4 13h9c.7 0 1.35.37 1.71.97h1.32L16 11c0-.55-.45-1-1-1h-2V8c0-.55-.45-1-1-1s-1 .45-1 1v2H9V5c0-.55-.45-1-1-1H4m1 2h2v5H5V6m12 5v8h5v-1l-3-1-1-6h-1M4 15c-1.1 0-2 .9-2 2s.9 2 2 2h9c1.1 0 2-.9 2-2s-.9-2-2-2H4z" fill="#646464"/></svg>
