<?xml version="1.0"?>
<svg xmlns="http://www.w3.org/2000/svg" xmlns:xlink="http://www.w3.org/1999/xlink" aria-hidden="true" width="1em" height="1em" viewBox="0 0 24 24" data-icon="mdi:bus-double-decker" data-width="1em" data-height="1em" data-inline="false" class="iconify"><path d="M3 4c-1.11 0-2 .89-2 2v11h2c0 1.66 1.34 3 3 3s3-1.34 3-3h6c0 1.66 1.34 3 3 3s3-1.34 3-3h2v-3c0-1.11-.89-2-2-2h-2V9.5h4V6c0-1.11-.89-2-2-2H3m-.5 1.5h4V8h-4V5.5m5.5 0h4V8H8V5.5m5.5 0h4V8h-4V5.5m5.5 0h2.5V8H19V5.5m-5.5 4h4V12h-4V9.5m-11 0h4V12h-4V9.5m5.5 0h4V12H8V9.5m-2 6c.83 0 1.5.67 1.5 1.5s-.67 1.5-1.5 1.5-1.5-.67-1.5-1.5.67-1.5 1.5-1.5m12 0c.83 0 1.5.67 1.5 1.5s-.67 1.5-1.5 1.5-1.5-.67-1.5-1.5.67-1.5 1.5-1.5z" fill="#646464"/></svg>
