<?xml version="1.0"?>
<svg xmlns="http://www.w3.org/2000/svg" xmlns:xlink="http://www.w3.org/1999/xlink" aria-hidden="true" width="1em" height="1em" viewBox="0 0 24 24" data-icon="mdi:bus-articulated-front" data-width="1em" data-height="1em" data-inline="false" class="iconify"><path d="M1 6l1.5 1.5L1 9l1.5 1.5L1 12l1.5 1.5L1 15h2c0 1.66 1.34 3 3 3s3-1.34 3-3h6c0 1.66 1.34 3 3 3s3-1.34 3-3h2V8c0-1.11-.89-2-2-2H1m3 1.5h2.5V10H4V7.5m4 0h4V10H8V7.5m5.5 0h4V10h-4V7.5m5.5 0h2.5V13L19 11V7.5m-13 6c.83 0 1.5.67 1.5 1.5s-.67 1.5-1.5 1.5-1.5-.67-1.5-1.5.67-1.5 1.5-1.5m12 0c.83 0 1.5.67 1.5 1.5s-.67 1.5-1.5 1.5-1.5-.67-1.5-1.5.67-1.5 1.5-1.5z" fill="#646464"/></svg>
