<?xml version="1.0"?>
<svg xmlns="http://www.w3.org/2000/svg" xmlns:xlink="http://www.w3.org/1999/xlink" aria-hidden="true" width="1em" height="1em" viewBox="0 0 24 24" data-icon="mdi:bus-articulated-end" data-width="1em" data-height="1em" data-inline="false" class="iconify"><path d="M21.5 6L20 7.5 21.5 9 20 10.5l1.5 1.5-1.5 1.5 1.5 1.5h-9c0 1.66-1.34 3-3 3s-3-1.34-3-3h-4V8c0-1.11.89-2 2-2h17m-3 1.5H15V10h3.5V7.5m-5 0h-4V10h4V7.5M8 7.5H4V10h4V7.5m1.5 6c-.83 0-1.5.67-1.5 1.5s.67 1.5 1.5 1.5S11 15.83 11 15s-.67-1.5-1.5-1.5z" fill="#646464"/></svg>
