<?xml version="1.0"?>
<svg xmlns="http://www.w3.org/2000/svg" xmlns:xlink="http://www.w3.org/1999/xlink" aria-hidden="true" width="1em" height="1em" viewBox="0 0 24 24" data-icon="mdi:cached" data-width="1em" data-height="1em" data-inline="false" class="iconify"><path d="M19 8l-4 4h3c0 3.31-2.69 6-6 6-1 0-1.97-.25-2.8-.7l-1.46 1.46A7.93 7.93 0 0 0 12 20c4.42 0 8-3.58 8-8h3M6 12c0-3.31 2.69-6 6-6 1 0 1.97.25 2.8.7l1.46-1.46A7.93 7.93 0 0 0 12 4c-4.42 0-8 3.58-8 8H1l4 4 4-4" fill="#646464"/></svg>
