<?xml version="1.0"?>
<svg xmlns="http://www.w3.org/2000/svg" xmlns:xlink="http://www.w3.org/1999/xlink" aria-hidden="true" width="1em" height="1em" viewBox="0 0 24 24" data-icon="mdi:calculator" data-width="1em" data-height="1em" data-inline="false" class="iconify"><path d="M7 2h10c1.1 0 2 .9 2 2v16c0 1.1-.9 2-2 2H7c-1.1 0-2-.9-2-2V4c0-1.1.9-2 2-2m0 2v4h10V4H7m0 6v2h2v-2H7m4 0v2h2v-2h-2m4 0v2h2v-2h-2m-8 4v2h2v-2H7m4 0v2h2v-2h-2m4 0v2h2v-2h-2m-8 4v2h2v-2H7m4 0v2h2v-2h-2m4 0v2h2v-2h-2z" fill="#646464"/></svg>
