<?xml version="1.0"?>
<svg xmlns="http://www.w3.org/2000/svg" xmlns:xlink="http://www.w3.org/1999/xlink" aria-hidden="true" width="1em" height="1em" viewBox="0 0 24 24" data-icon="mdi:calendar-heart" data-width="1em" data-height="1em" data-inline="false" class="iconify"><path d="M19 20V9H5v11h14M16 2h2v2h1c1.1 0 2 .9 2 2v14c0 1.1-.9 2-2 2H5c-1.1 0-2-.9-2-2V6c0-1.1.9-2 2-2h1V2h2v2h8V2m-4 16.17l-.58-.53C9.36 15.77 8 14.54 8 13.03c0-1.23.97-2.2 2.2-2.2.7 0 1.36.32 1.8.83.44-.51 1.1-.83 1.8-.83 1.23 0 2.2.97 2.2 2.2 0 1.51-1.36 2.74-3.42 4.61l-.58.53z" fill="#646464"/></svg>
