<?xml version="1.0"?>
<svg xmlns="http://www.w3.org/2000/svg" xmlns:xlink="http://www.w3.org/1999/xlink" aria-hidden="true" width="1em" height="1em" viewBox="0 0 24 24" data-icon="mdi:calendar-edit" data-width="1em" data-height="1em" data-inline="false" class="iconify"><path d="M19 3h-1V1h-2v2H8V1H6v2H5c-1.1 0-2 .9-2 2v14c0 1.1.9 2 2 2h5v-2H5V8h14v1h2V5c0-1.1-.9-2-2-2m2.7 10.35l-1 1-2.05-2 1-1c.2-.21.54-.22.77 0l1.28 1.28c.19.2.19.52 0 .72M12 18.94l6.07-6.06 2.05 2L14.06 21H12v-2.06z" fill="#646464"/></svg>
