<?xml version="1.0"?>
<svg xmlns="http://www.w3.org/2000/svg" xmlns:xlink="http://www.w3.org/1999/xlink" aria-hidden="true" width="1em" height="1em" viewBox="0 0 24 24" data-icon="mdi:calendar-star" data-width="1em" data-height="1em" data-inline="false" class="iconify"><path d="M19 20H5V9h14m-3-7v2H8V2H6v2H5c-1.1 0-2 .9-2 2v14c0 1.1.9 2 2 2h14c1.1 0 2-.9 2-2V6c0-1.1-.9-2-2-2h-1V2m-7.12 11H7.27l2.92 2.11-1.11 3.45L12 16.43l2.92 2.13-1.12-3.44L16.72 13h-3.6L12 9.56 10.88 13z" fill="#646464"/></svg>
