<?xml version="1.0"?>
<svg xmlns="http://www.w3.org/2000/svg" xmlns:xlink="http://www.w3.org/1999/xlink" aria-hidden="true" width="1em" height="1em" viewBox="0 0 24 24" data-icon="mdi:calendar-clock" data-width="1em" data-height="1em" data-inline="false" class="iconify"><path d="M15 13h1.5v2.82l2.44 1.41-.75 1.3L15 16.69V13m4-5H5v11h4.67c-.43-.91-.67-1.93-.67-3 0-3.87 3.13-7 7-7 1.07 0 2.09.24 3 .67V8M5 21a2 2 0 0 1-2-2V5c0-1.11.89-2 2-2h1V1h2v2h8V1h2v2h1c1.1 0 2 .9 2 2v6.1c1.24 1.26 2 2.99 2 4.9 0 3.87-3.13 7-7 7-1.91 0-3.64-.76-4.9-2H5m11-9.85c-2.68 0-4.85 2.17-4.85 4.85 0 2.68 2.17 4.85 4.85 4.85 2.68 0 4.85-2.17 4.85-4.85 0-2.68-2.17-4.85-4.85-4.85z" fill="#646464"/></svg>
