<?xml version="1.0"?>
<svg xmlns="http://www.w3.org/2000/svg" xmlns:xlink="http://www.w3.org/1999/xlink" aria-hidden="true" width="1em" height="1em" viewBox="0 0 24 24" data-icon="mdi:calendar-multiple-check" data-width="1em" data-height="1em" data-inline="false" class="iconify"><path d="M21 17V8H7v9h14m0-14c1.1 0 2 .9 2 2v12c0 1.1-.9 2-2 2H7a2 2 0 0 1-2-2V5c0-1.1.9-2 2-2h1V1h2v2h8V1h2v2h1m-3.47 8.06l-4.44 4.44-2.68-2.68 1.06-1.06 1.62 1.62L16.47 10l1.06 1.06M3 21h14v2H3a2 2 0 0 1-2-2V9h2v12z" fill="#646464"/></svg>
