<?xml version="1.0"?>
<svg xmlns="http://www.w3.org/2000/svg" xmlns:xlink="http://www.w3.org/1999/xlink" aria-hidden="true" width="1em" height="1em" viewBox="0 0 24 24" data-icon="mdi:camera-metering-center" data-width="1em" data-height="1em" data-inline="false" class="iconify"><path d="M4 4h16c1.1 0 2 .9 2 2v12c0 1.1-.9 2-2 2H4c-1.1 0-2-.9-2-2V6c0-1.1.9-2 2-2m0 2v12h16V6H4m8 4.5c.83 0 1.5.67 1.5 1.5s-.67 1.5-1.5 1.5-1.5-.67-1.5-1.5.67-1.5 1.5-1.5m0-3c2.14 0 3.93 1.5 4.39 3.5h-1.56A2.99 2.99 0 0 0 12 9c-1.31 0-2.42.83-2.83 2H7.61C8.07 9 9.86 7.5 12 7.5m0 9c-2.14 0-3.93-1.5-4.39-3.5h1.56c.41 1.17 1.52 2 2.83 2s2.42-.83 2.83-2h1.56c-.46 2-2.25 3.5-4.39 3.5z" fill="#646464"/></svg>
