<?xml version="1.0"?>
<svg xmlns="http://www.w3.org/2000/svg" xmlns:xlink="http://www.w3.org/1999/xlink" aria-hidden="true" width="1em" height="1em" viewBox="0 0 24 24" data-icon="mdi:camera-timer" data-width="1em" data-height="1em" data-inline="false" class="iconify"><path d="M4.94 6.35c-.39-.39-.39-1.03 0-1.42a.996.996 0 0 1 1.41 0l6.72 5.38.35.28c.78.78.78 2.05 0 2.83-.78.78-2.05.78-2.83 0l-.28-.35-5.37-6.72M12 20c4.42 0 8-3.58 8-8 0-2.21-.9-4.21-2.34-5.66l1.41-1.41A9.969 9.969 0 0 1 22 12c0 5.52-4.48 10-10 10S2 17.52 2 12h2c0 4.42 3.58 8 8 8m0-19c1.1 0 2 .9 2 2s-.9 2-2 2-2-.9-2-2 .9-2 2-2z" fill="#646464"/></svg>
