<?xml version="1.0"?>
<svg xmlns="http://www.w3.org/2000/svg" xmlns:xlink="http://www.w3.org/1999/xlink" aria-hidden="true" width="1em" height="1em" viewBox="0 0 24 24" data-icon="mdi:camera-party-mode" data-width="1em" data-height="1em" data-inline="false" class="iconify"><path d="M12 17c-1.63 0-3.06-.79-4-2h4c1.66 0 3-1.34 3-3 0-.35-.07-.69-.18-1h2.08a5.002 5.002 0 0 1-4.9 6m0-10c1.63 0 3.06.79 4 2h-4c-1.66 0-3 1.34-3 3 0 .35.07.68.18 1H7.1A5.002 5.002 0 0 1 12 7m8-3h-3.17L15 2H9L7.17 4H4c-1.1 0-2 .9-2 2v12c0 1.1.9 2 2 2h16c1.1 0 2-.9 2-2V6a2 2 0 0 0-2-2z" fill="#646464"/></svg>
