<?xml version="1.0"?>
<svg xmlns="http://www.w3.org/2000/svg" xmlns:xlink="http://www.w3.org/1999/xlink" aria-hidden="true" width="1em" height="1em" viewBox="0 0 24 24" data-icon="mdi:camera-enhance-outline" data-width="1em" data-height="1em" data-inline="false" class="iconify"><path d="M12 10l-.94 2.06L9 13l2.06.94L12 16l.94-2.06L15 13l-2.06-.94L12 10m8-5h-3.17L15 3H9L7.17 5H4c-1.1 0-2 .9-2 2v12c0 1.1.9 2 2 2h16c1.1 0 2-.9 2-2V7c0-1.1-.9-2-2-2m0 14H4V7h4.05l.59-.65L9.88 5h4.24l1.24 1.35.59.65H20v12M12 8c-2.76 0-5 2.24-5 5s2.24 5 5 5 5-2.24 5-5-2.24-5-5-5m0 8c-1.66 0-3-1.34-3-3s1.34-3 3-3 3 1.34 3 3-1.34 3-3 3z" fill="#646464"/></svg>
