<?xml version="1.0"?>
<svg xmlns="http://www.w3.org/2000/svg" xmlns:xlink="http://www.w3.org/1999/xlink" aria-hidden="true" width="1em" height="1em" viewBox="0 0 24 24" data-icon="mdi:camera-metering-matrix" data-width="1em" data-height="1em" data-inline="false" class="iconify"><path d="M4 4h16c1.1 0 2 .9 2 2v12c0 1.1-.9 2-2 2H4c-1.1 0-2-.9-2-2V6c0-1.1.9-2 2-2m0 2v12h16V6H4m1.5 1.5H11v1.67c-.85.3-1.53.98-1.83 1.83H5.5V7.5m13 0V11h-3.67c-.3-.85-.98-1.53-1.83-1.83V7.5h5.5m0 9H13v-1.67c.85-.3 1.53-.98 1.83-1.83h3.67v3.5m-13 0V13h3.67c.3.85.98 1.53 1.83 1.83v1.67H5.5m6.5-6c.83 0 1.5.67 1.5 1.5s-.67 1.5-1.5 1.5-1.5-.67-1.5-1.5.67-1.5 1.5-1.5z" fill="#646464"/></svg>
