<?xml version="1.0"?>
<svg xmlns="http://www.w3.org/2000/svg" xmlns:xlink="http://www.w3.org/1999/xlink" aria-hidden="true" width="1em" height="1em" viewBox="0 0 24 24" data-icon="mdi:camera-front-variant" data-width="1em" data-height="1em" data-inline="false" class="iconify"><path d="M6 0h12c1.1 0 2 .9 2 2v20c0 1.1-.9 2-2 2H6c-1.1 0-2-.9-2-2V2c0-1.1.9-2 2-2m6 6c1.66 0 3 1.34 3 3s-1.34 3-3 3-3-1.34-3-3 1.34-3 3-3m-1-5v2h2V1h-2M6 4v12.5c0-1.38 2.69-2.5 6-2.5s6 1.12 6 2.5V4H6m7 14H9v2h4v2l3-3-3-3v2z" fill="#646464"/></svg>
