<?xml version="1.0"?>
<svg xmlns="http://www.w3.org/2000/svg" xmlns:xlink="http://www.w3.org/1999/xlink" aria-hidden="true" width="1em" height="1em" viewBox="0 0 24 24" data-icon="mdi:camera-gopro" data-width="1em" data-height="1em" data-inline="false" class="iconify"><path d="M20 5h-5c-1.1 0-2 .9-2 2v5c0 1.1.9 2 2 2h5c1.1 0 2-.9 2-2V7c0-1.1-.9-2-2-2m-2.5 7.5c-1.66 0-3-1.34-3-3s1.34-3 3-3 3 1.34 3 3-1.34 3-3 3m0-1.5c-.83 0-1.5-.67-1.5-1.5S16.67 8 17.5 8s1.5.67 1.5 1.5-.67 1.5-1.5 1.5M12 15V5H4c-1.1 0-2 .9-2 2v10c0 1.1.9 2 2 2h16c1.1 0 2-.9 2-2v-2H12m-2-3H4V7h6v5z" fill="#646464"/></svg>
