<?xml version="1.0"?>
<svg xmlns="http://www.w3.org/2000/svg" xmlns:xlink="http://www.w3.org/1999/xlink" aria-hidden="true" width="1em" height="1em" viewBox="0 0 24 24" data-icon="mdi:cancel" data-width="1em" data-height="1em" data-inline="false" class="iconify"><path d="M12 2c5.52 0 10 4.48 10 10s-4.48 10-10 10S2 17.52 2 12 6.48 2 12 2m0 2c-4.42 0-8 3.58-8 8 0 1.85.63 3.55 1.68 4.91L16.91 5.68A8.005 8.005 0 0 0 12 4m0 16c4.42 0 8-3.58 8-8 0-1.85-.63-3.55-1.68-4.91L7.09 18.32A8.005 8.005 0 0 0 12 20z" fill="#646464"/></svg>
