<?xml version="1.0"?>
<svg xmlns="http://www.w3.org/2000/svg" xmlns:xlink="http://www.w3.org/1999/xlink" aria-hidden="true" width="1em" height="1em" viewBox="0 0 24 24" data-icon="mdi:car-key" data-width="1em" data-height="1em" data-inline="false" class="iconify"><path d="M9.5 0c-1.66 0-3 1.34-3 3s1.34 3 3 3c1.31 0 2.42-.83 2.83-2h2.17v2h2V4h1V2h-5.17A2.99 2.99 0 0 0 9.5 0m0 2c.55 0 1 .45 1 1s-.45 1-1 1-1-.45-1-1 .45-1 1-1m-3 6c-.66 0-1.22.42-1.42 1L3 15v8c0 .55.45 1 1 1h1c.55 0 1-.45 1-1v-1h12v1c0 .55.45 1 1 1h1c.55 0 1-.45 1-1v-8l-2.08-6c-.2-.58-.76-1-1.42-1h-11m0 1.5h11L19 14H5l1.5-4.5m0 6.5c.83 0 1.5.67 1.5 1.5S7.33 19 6.5 19 5 18.33 5 17.5 5.67 16 6.5 16m11 0c.83 0 1.5.67 1.5 1.5s-.67 1.5-1.5 1.5-1.5-.67-1.5-1.5.67-1.5 1.5-1.5z" fill="#646464"/></svg>
