<?xml version="1.0"?>
<svg xmlns="http://www.w3.org/2000/svg" xmlns:xlink="http://www.w3.org/1999/xlink" aria-hidden="true" width="1em" height="1em" viewBox="0 0 24 24" data-icon="mdi:car-connected" data-width="1em" data-height="1em" data-inline="false" class="iconify"><path d="M5 14h14l-1.5-4.5h-11L5 14m12.5 5c.83 0 1.5-.67 1.5-1.5s-.67-1.5-1.5-1.5-1.5.67-1.5 1.5.67 1.5 1.5 1.5m-11 0c.83 0 1.5-.67 1.5-1.5S7.33 16 6.5 16 5 16.67 5 17.5 5.67 19 6.5 19M18.92 9L21 15v8c0 .55-.45 1-1 1h-1c-.55 0-1-.45-1-1v-1H6v1c0 .55-.45 1-1 1H4c-.55 0-1-.45-1-1v-8l2.08-6c.2-.58.77-1 1.42-1h11c.65 0 1.22.42 1.42 1M12 0c2.12 0 4.15.86 5.65 2.35l-1.42 1.42A6.016 6.016 0 0 0 12 2c-1.58 0-3.11.65-4.23 1.77L6.36 2.35A7.996 7.996 0 0 1 12 0m0 4c1.06 0 2.07.44 2.82 1.18L13.4 6.6c-.37-.37-.87-.6-1.4-.6-.5 0-1.03.23-1.4.6L9.18 5.18C9.93 4.44 10.94 4 12 4z" fill="#646464"/></svg>
