<?xml version="1.0"?>
<svg xmlns="http://www.w3.org/2000/svg" xmlns:xlink="http://www.w3.org/1999/xlink" aria-hidden="true" width="1em" height="1em" viewBox="0 0 24 24" data-icon="mdi:car-multiple" data-width="1em" data-height="1em" data-inline="false" class="iconify"><path d="M8 11l1.5-4.5h9L20 11m-1.5 5c-.83 0-1.5-.67-1.5-1.5s.67-1.5 1.5-1.5 1.5.67 1.5 1.5-.67 1.5-1.5 1.5m-9 0c-.83 0-1.5-.67-1.5-1.5S8.67 13 9.5 13s1.5.67 1.5 1.5-.67 1.5-1.5 1.5M19.92 6c-.21-.6-.78-1-1.42-1h-9c-.64 0-1.21.4-1.42 1L6 12v8c0 .55.45 1 1 1h1c.55 0 1-.45 1-1v-1h10v1c0 .55.45 1 1 1h1c.55 0 1-.45 1-1v-8l-2.08-6m-5-3c-.21-.6-.78-1-1.42-1h-9c-.64 0-1.21.4-1.42 1L1 9v8c0 .55.45 1 1 1h1c.55 0 1-.45 1-1v-4.09A1.492 1.492 0 0 1 3.1 11c.22-.6.77-1 1.4-1h.07l.7-2H3l1.5-4.5h10.59l-.17-.5z" fill="#646464"/></svg>
