<?xml version="1.0"?>
<svg xmlns="http://www.w3.org/2000/svg" xmlns:xlink="http://www.w3.org/1999/xlink" aria-hidden="true" width="1em" height="1em" viewBox="0 0 24 24" data-icon="mdi:car-limousine" data-width="1em" data-height="1em" data-inline="false" class="iconify"><path d="M1 6l1.5 1.5L1 9l1.5 1.5L1 12l1.5 1.5L1 15h14c0 1.66 1.34 3 3 3s3-1.34 3-3h2v-3c0-1.11-.89-2-2-2h-2l-3-4H1m3.62 1.5h5.88V10H4.12l-1-1 1.5-1.5m7.38 0h3.5l1.96 2.5H12V7.5m6 6c.83 0 1.5.67 1.5 1.5s-.67 1.5-1.5 1.5-1.5-.67-1.5-1.5.67-1.5 1.5-1.5z" fill="#646464"/></svg>
