<?xml version="1.0"?>
<svg xmlns="http://www.w3.org/2000/svg" xmlns:xlink="http://www.w3.org/1999/xlink" aria-hidden="true" width="1em" height="1em" viewBox="0 0 24 24" data-icon="mdi:car-electric" data-width="1em" data-height="1em" data-inline="false" class="iconify"><path d="M5 13l1.5-4.5h11L19 13m-1.5 5c-.83 0-1.5-.67-1.5-1.5s.67-1.5 1.5-1.5 1.5.67 1.5 1.5-.67 1.5-1.5 1.5m-11 0c-.83 0-1.5-.67-1.5-1.5S5.67 15 6.5 15s1.5.67 1.5 1.5S7.33 18 6.5 18M18.92 8c-.21-.6-.78-1-1.42-1h-11c-.64 0-1.21.4-1.42 1L3 14v8c0 .55.45 1 1 1h1c.55 0 1-.45 1-1v-1h12v1c0 .55.45 1 1 1h1c.55 0 1-.45 1-1v-8M11 6V4H7l6-3v2h4l-6 3z" fill="#646464"/></svg>
