<?xml version="1.0"?>
<svg xmlns="http://www.w3.org/2000/svg" xmlns:xlink="http://www.w3.org/1999/xlink" aria-hidden="true" width="1em" height="1em" viewBox="0 0 24 24" data-icon="mdi:car-hatchback" data-width="1em" data-height="1em" data-inline="false" class="iconify"><path d="M16 6H6l-5 6v3h2c0 1.66 1.34 3 3 3s3-1.34 3-3h6c0 1.66 1.34 3 3 3s3-1.34 3-3h2v-3c0-1.11-.89-2-2-2h-2l-3-4M6.5 7.5h4V10h-6l2-2.5m5.5 0h3.5l1.96 2.5H12V7.5m-6 6c.83 0 1.5.67 1.5 1.5s-.67 1.5-1.5 1.5-1.5-.67-1.5-1.5.67-1.5 1.5-1.5m12 0c.83 0 1.5.67 1.5 1.5s-.67 1.5-1.5 1.5-1.5-.67-1.5-1.5.67-1.5 1.5-1.5z" fill="#646464"/></svg>
