<?xml version="1.0"?>
<svg xmlns="http://www.w3.org/2000/svg" xmlns:xlink="http://www.w3.org/1999/xlink" aria-hidden="true" width="1em" height="1em" viewBox="0 0 24 24" data-icon="mdi:card-bulleted-off-outline" data-width="1em" data-height="1em" data-inline="false" class="iconify"><path d="M20.59 20.87l-1.42 1.42L16.88 20H4c-1.1 0-2-.9-2-2V6c0-.26.05-.5.14-.74l-.97-.97 1.42-1.42L3.73 4l16.86 16.87M6.54 4H20c1.1 0 2 .9 2 2v12c0 .41-.13.8-.34 1.12L20 17.46V6H8.54l-2-2M4 18h10.88l-3-3H10v-1.88L7.88 11H6V9.12l-2-2V18m14-3h-.46l-2-2H18v2m0-4h-4.46l-2-2H18v2z" fill="#646464"/></svg>
