<?xml version="1.0"?>
<svg xmlns="http://www.w3.org/2000/svg" xmlns:xlink="http://www.w3.org/1999/xlink" aria-hidden="true" width="1em" height="1em" viewBox="0 0 24 24" data-icon="mdi:card-bulleted-settings-outline" data-width="1em" data-height="1em" data-inline="false" class="iconify"><path d="M9 22v2H7v-2h2m4 0v2h-2v-2h2m4 0v2h-2v-2h2m-5-7h-2v-2h2v2m6 0h-4v-2h4v2M8 11H6V9h2v2m10 0h-8V9h8v2m2 9H4c-1.1 0-2-.9-2-2V6c0-1.1.9-2 2-2h16c1.1 0 2 .9 2 2v12c0 1.1-.9 2-2 2M4 6v12h16V6H4z" fill="#646464"/></svg>
