<?xml version="1.0"?>
<svg xmlns="http://www.w3.org/2000/svg" xmlns:xlink="http://www.w3.org/1999/xlink" aria-hidden="true" width="1em" height="1em" viewBox="0 0 24 24" data-icon="mdi:cards-outline" data-width="1em" data-height="1em" data-inline="false" class="iconify"><path d="M11.19 2.25c-.26 0-.52.06-.77.15L3.06 5.45a1.994 1.994 0 0 0-1.09 2.6L6.93 20a2 2 0 0 0 1.81 1.25c.26 0 .53-.03.79-.15l7.37-3.05a2.02 2.02 0 0 0 1.23-1.8c.01-.25-.04-.54-.13-.8L13 3.5a1.954 1.954 0 0 0-1.81-1.25m3.48 0l3.45 8.35V4.25c0-1.1-.9-2-2-2m4.01 1.54v9.03l2.43-5.86a1.99 1.99 0 0 0-1.09-2.6m-10.28-.14l4.98 12.02-7.39 3.06L3.8 7.29" fill="#646464"/></svg>
