<?xml version="1.0"?>
<svg xmlns="http://www.w3.org/2000/svg" xmlns:xlink="http://www.w3.org/1999/xlink" aria-hidden="true" width="1em" height="1em" viewBox="0 0 24 24" data-icon="mdi:cards-club" data-width="1em" data-height="1em" data-inline="false" class="iconify"><path d="M12 2c2.3 0 4.3 2 4.3 4.2a4.445 4.445 0 0 1-2.26 3.8c1-.5 2.46-.5 2.46-.5 2.5 0 4.5 1.8 4.5 4.3S19 18 16.5 18c0 0-1.5 0-3.5-1 0 0-.3 2 2 5H9c2.3-3 2-5 2-5-2 1-3.5 1-3.5 1C5 18 3 16.3 3 13.8s2-4.3 4.5-4.3c0 0 1.46 0 2.46.5-.3-.17-2.17-1.23-2.26-3.8C7.7 4 9.7 2 12 2z" fill="#646464"/></svg>
