<?xml version="1.0"?>
<svg xmlns="http://www.w3.org/2000/svg" xmlns:xlink="http://www.w3.org/1999/xlink" aria-hidden="true" width="1em" height="1em" viewBox="0 0 24 24" data-icon="mdi:card-bulleted-off" data-width="1em" data-height="1em" data-inline="false" class="iconify"><path d="M3.35 3.58l17.3 17.29-1.42 1.42L16.94 20H4c-1.1 0-2-.9-2-2V6c0-.28.06-.54.16-.78l-.93-.93 1.42-1.42.7.71M6.6 4H20c1.1 0 2 .9 2 2v12c0 .4-.12.77-.32 1.08L17.6 15H20v-2h-4.4l-2-2H20V9h-8.4l-5-5m3.34 9H9v2h2v-.94L9.94 13m-4-4H5v2h2v-.94L5.94 9z" fill="#646464"/></svg>
