<?xml version="1.0"?>
<svg xmlns="http://www.w3.org/2000/svg" xmlns:xlink="http://www.w3.org/1999/xlink" aria-hidden="true" width="1em" height="1em" viewBox="0 0 24 24" data-icon="mdi:carrot" data-width="1em" data-height="1em" data-inline="false" class="iconify"><path d="M16 10l-.2 1h-2.3c-.28 0-.5.22-.5.5s.22.5.5.5h2.1l-1 5h-2.1c-.28 0-.5.22-.5.5s.22.5.5.5h1.9l-.4 2c0 1.1-.9 2-2 2s-2-.9-2-2l-1-5h1.5c.28 0 .5-.22.5-.5s-.22-.5-.5-.5H8.8L8 10c0-1.2.93-2.23 2.29-2.71L8.9 5.28a.997.997 0 0 1 .26-1.39.998.998 0 0 1 1.39.25l.45.66V3c0-.55.45-1 1-1s1 .45 1 1v2.28l1.5-1.74c.33-.42.97-.47 1.39-.11.42.35.47.98.11 1.41l-2.13 2.51C15.14 7.85 16 8.85 16 10z" fill="#646464"/></svg>
