<?xml version="1.0"?>
<svg xmlns="http://www.w3.org/2000/svg" xmlns:xlink="http://www.w3.org/1999/xlink" aria-hidden="true" width="1em" height="1em" viewBox="0 0 24 24" data-icon="mdi:cart-outline" data-width="1em" data-height="1em" data-inline="false" class="iconify"><path d="M17 18c1.1 0 2 .9 2 2s-.9 2-2 2a2 2 0 0 1-2-2c0-1.11.89-2 2-2M1 2h3.27l.94 2H20c.55 0 1 .45 1 1 0 .17-.05.34-.12.5l-3.58 6.47c-.34.61-1 1.03-1.75 1.03H8.1l-.9 1.63-.03.12c0 .14.11.25.25.25H19v2H7a2 2 0 0 1-2-2c0-.35.09-.68.24-.96l1.36-2.45L3 4H1V2m6 16c1.1 0 2 .9 2 2s-.9 2-2 2a2 2 0 0 1-2-2c0-1.11.89-2 2-2m9-7l2.78-5H6.14l2.36 5H16z" fill="#646464"/></svg>
