<?xml version="1.0"?>
<svg xmlns="http://www.w3.org/2000/svg" xmlns:xlink="http://www.w3.org/1999/xlink" aria-hidden="true" width="1em" height="1em" viewBox="0 0 24 24" data-icon="mdi:cart" data-width="1em" data-height="1em" data-inline="false" class="iconify"><path d="M17 18c-1.11 0-2 .89-2 2 0 1.1.9 2 2 2s2-.9 2-2a2 2 0 0 0-2-2M1 2v2h2l3.6 7.59-1.36 2.45A2.006 2.006 0 0 0 7 17h12v-2H7.42c-.14 0-.25-.11-.25-.25 0-.05.01-.09.03-.12L8.1 13h7.45c.75 0 1.41-.42 1.75-1.03l3.58-6.47c.07-.16.12-.33.12-.5 0-.55-.45-1-1-1H5.21l-.94-2M7 18c-1.11 0-2 .89-2 2 0 1.1.9 2 2 2s2-.9 2-2a2 2 0 0 0-2-2z" fill="#646464"/></svg>
