<?xml version="1.0"?>
<svg xmlns="http://www.w3.org/2000/svg" xmlns:xlink="http://www.w3.org/1999/xlink" aria-hidden="true" width="1em" height="1em" viewBox="0 0 24 24" data-icon="mdi:cart-off" data-width="1em" data-height="1em" data-inline="false" class="iconify"><path d="M22.73 22.73L1.27 1.27 0 2.54l4.39 4.39 2.21 4.66-1.35 2.45c-.16.28-.25.61-.25.96 0 1.1.9 2 2 2h7.46l1.38 1.38c-.5.36-.84.95-.84 1.62 0 1.1.9 2 2 2 .67 0 1.26-.33 1.62-.84L21.46 24l1.27-1.27M7.42 15c-.14 0-.25-.11-.25-.25l.03-.12.9-1.63h2.36l2 2H7.42m8.13-2c.75 0 1.41-.41 1.75-1.03l3.58-6.47c.08-.16.12-.33.12-.5 0-.55-.45-1-1-1H6.54l9.01 9M7 18c-1.1 0-2 .9-2 2s.9 2 2 2 2-.9 2-2-.9-2-2-2z" fill="#646464"/></svg>
