<?xml version="1.0"?>
<svg xmlns="http://www.w3.org/2000/svg" xmlns:xlink="http://www.w3.org/1999/xlink" aria-hidden="true" width="1em" height="1em" viewBox="0 0 24 24" data-icon="mdi:case-sensitive-alt" data-width="1em" data-height="1em" data-inline="false" class="iconify"><path d="M20 14c0-1.5-.5-2-2-2h-2v-1c0-1 0-1-2-1v9h4c1.5 0 2-.53 2-2v-3m-8-2c0-1.5-.53-2-2-2H6c-1.5 0-2 .5-2 2v7h2v-3h4v3h2v-7m-2-5h4V5h-4v2m12 2v11c0 1.11-.89 2-2 2H4c-1.1 0-2-.9-2-2V9c0-1.11.89-2 2-2h4V5l2-2h4l2 2v2h4c1.1 0 2 .9 2 2m-6 8h2v-3h-2v3M6 12h4v2H6v-2z" fill="#646464"/></svg>
