<?xml version="1.0"?>
<svg xmlns="http://www.w3.org/2000/svg" xmlns:xlink="http://www.w3.org/1999/xlink" aria-hidden="true" width="1em" height="1em" viewBox="0 0 24 24" data-icon="mdi:cash-refund" data-width="1em" data-height="1em" data-inline="false" class="iconify"><path d="M3 11h18v12H3V11m9 4c1.1 0 2 .9 2 2s-.9 2-2 2-2-.9-2-2 .9-2 2-2m-5-2c0 1.1-.9 2-2 2v4c1.1 0 2 .9 2 2h10c0-1.1.9-2 2-2v-4c-1.1 0-2-.9-2-2H7m10-8v5h-1.5V6.5H9.88l2.42 2.43L11.24 10 7 5.75l4.24-4.25 1.06 1.07L9.88 5H17z" fill="#646464"/></svg>
