<?xml version="1.0"?>
<svg xmlns="http://www.w3.org/2000/svg" xmlns:xlink="http://www.w3.org/1999/xlink" aria-hidden="true" width="1em" height="1em" viewBox="0 0 24 24" data-icon="mdi:cash-100" data-width="1em" data-height="1em" data-inline="false" class="iconify"><path d="M2 5h20v15H2V5m18 13V7H4v11h16M17 8c0 1.1.9 2 2 2v5c-1.1 0-2 .9-2 2H7c0-1.1-.9-2-2-2v-5c1.1 0 2-.9 2-2h10m0 5v-1c0-1.1-.67-2-1.5-2s-1.5.9-1.5 2v1c0 1.1.67 2 1.5 2s1.5-.9 1.5-2m-1.5-2c.28 0 .5.22.5.5v2c0 .28-.22.5-.5.5s-.5-.22-.5-.5v-2c0-.28.22-.5.5-.5M13 13v-1c0-1.1-.67-2-1.5-2s-1.5.9-1.5 2v1c0 1.1.67 2 1.5 2s1.5-.9 1.5-2m-1.5-2c.28 0 .5.22.5.5v2c0 .28-.22.5-.5.5s-.5-.22-.5-.5v-2c0-.28.22-.5.5-.5M8 15h1v-5H8l-1 .5v1l1-.5v4z" fill="#646464"/></svg>
