<?xml version="1.0"?>
<svg xmlns="http://www.w3.org/2000/svg" xmlns:xlink="http://www.w3.org/1999/xlink" aria-hidden="true" width="1em" height="1em" viewBox="0 0 24 24" data-icon="mdi:cassette" data-width="1em" data-height="1em" data-inline="false" class="iconify"><path d="M4 5c-1.1 0-2 .9-2 2v10c0 1.1.9 2 2 2h2l1-2h10l1 2h2c1.1 0 2-.9 2-2V7c0-1.1-.9-2-2-2H4m2.5 5c.83 0 1.5.67 1.5 1.5S7.33 13 6.5 13 5 12.33 5 11.5 5.67 10 6.5 10M9 10h6v3H9v-3m8.5 0c.83 0 1.5.67 1.5 1.5s-.67 1.5-1.5 1.5-1.5-.67-1.5-1.5.67-1.5 1.5-1.5z" fill="#646464"/></svg>
