<?xml version="1.0"?>
<svg xmlns="http://www.w3.org/2000/svg" xmlns:xlink="http://www.w3.org/1999/xlink" aria-hidden="true" width="1em" height="1em" viewBox="0 0 24 24" data-icon="mdi:cat" data-width="1em" data-height="1em" data-inline="false" class="iconify"><path d="M12 8l-1.33.09C9.81 7.07 7.4 4.5 5 4.5c0 0-1.97 2.96-.04 6.91-.55.83-.89 1.26-.96 2.25l-1.93.29.21.98 1.76-.26.14.71-1.57.94.47.89 1.45-.89C5.68 18.76 8.59 20 12 20s6.32-1.24 7.47-3.68l1.45.89.47-.89-1.57-.94.14-.71 1.76.26.21-.98-1.93-.29c-.07-.99-.41-1.42-.96-2.25C20.97 7.46 19 4.5 19 4.5c-2.4 0-4.81 2.57-5.67 3.59L12 8m-3 3c.55 0 1 .45 1 1s-.45 1-1 1-1-.45-1-1 .45-1 1-1m6 0c.55 0 1 .45 1 1s-.45 1-1 1-1-.45-1-1 .45-1 1-1m-4 3h2l-.7 1.39c.2.64.76 1.11 1.45 1.11.83 0 1.5-.67 1.5-1.5h.5c0 1.1-.9 2-2 2-.75 0-1.4-.41-1.75-1-.35.59-1 1-1.75 1-1.1 0-2-.9-2-2h.5c0 .83.67 1.5 1.5 1.5.69 0 1.25-.47 1.45-1.11L11 14z" fill="#646464"/></svg>
