<?xml version="1.0"?>
<svg xmlns="http://www.w3.org/2000/svg" xmlns:xlink="http://www.w3.org/1999/xlink" aria-hidden="true" width="1em" height="1em" viewBox="0 0 24 24" data-icon="mdi:cellphone-link-off" data-width="1em" data-height="1em" data-inline="false" class="iconify"><path d="M23 8h-6c-.55 0-1 .45-1 1v4.18l2 2V10h4v7h-2.18l3 3H23c.55 0 1-.45 1-1V9c0-.55-.45-1-1-1M4 6.27L14.73 17H4V6.27M1.92 1.65L.65 2.92l1.82 1.82A1.9 1.9 0 0 0 2 6v11H0v3h17.73l2.35 2.35 1.27-1.27L3.89 3.62 1.92 1.65M22 6V4H6.82l2 2H22z" fill="#646464"/></svg>
