<?xml version="1.0"?>
<svg xmlns="http://www.w3.org/2000/svg" xmlns:xlink="http://www.w3.org/1999/xlink" aria-hidden="true" width="1em" height="1em" viewBox="0 0 24 24" data-icon="mdi:cellphone-key" data-width="1em" data-height="1em" data-inline="false" class="iconify"><path d="M7 1c-1.1 0-2 .9-2 2v4h2V4h10v16H7v-3H5v4c0 1.1.9 2 2 2h10c1.1 0 2-.9 2-2V3c0-1.1-.9-2-2-2H7M6 9c-1.66 0-3 1.34-3 3s1.34 3 3 3c1.31 0 2.42-.83 2.83-2H11v2h2v-2h1v-2H8.83A2.99 2.99 0 0 0 6 9m0 2c.55 0 1 .45 1 1s-.45 1-1 1-1-.45-1-1 .45-1 1-1z" fill="#646464"/></svg>
