<?xml version="1.0"?>
<svg xmlns="http://www.w3.org/2000/svg" xmlns:xlink="http://www.w3.org/1999/xlink" aria-hidden="true" width="1em" height="1em" viewBox="0 0 24 24" data-icon="mdi:cellphone-basic" data-width="1em" data-height="1em" data-inline="false" class="iconify"><path d="M15 2c-.55 0-1 .45-1 1v3h-4c-1.11 0-2 .89-2 2v12c0 1.11.89 2 2 2h5c1.11 0 2-.89 2-2V8c0-.74-.4-1.38-1-1.72V3c0-.55-.45-1-1-1m-5 6h5v5h-5V8m0 7h1v1h-1v-1m2 0h1v1h-1v-1m2 0h1v1h-1v-1m-4 2h1v1h-1v-1m2 0h1v1h-1v-1m2 0h1v1h-1v-1m-4 2h1v1h-1v-1m2 0h1v1h-1v-1m2 0h1v1h-1v-1z" fill="#646464"/></svg>
