<?xml version="1.0"?>
<svg xmlns="http://www.w3.org/2000/svg" xmlns:xlink="http://www.w3.org/1999/xlink" aria-hidden="true" width="1em" height="1em" viewBox="0 0 24 24" data-icon="mdi:chart-pie" data-width="1em" data-height="1em" data-inline="false" class="iconify"><path d="M21 11h-8V3c4.42 0 8 3.58 8 8m-2 2a8.02 8.02 0 0 1-3.57 6.67L11.58 13H19m-8 8a8.02 8.02 0 0 1-6.67-3.57l6.49-3.75 3.74 6.49c-1.06.53-2.28.83-3.56.83m-8-8c0-4.42 3.58-8 8-8v7.42l-7.17 4.14A7.971 7.971 0 0 1 3 13z" fill="#646464"/></svg>
