<?xml version="1.0"?>
<svg xmlns="http://www.w3.org/2000/svg" xmlns:xlink="http://www.w3.org/1999/xlink" aria-hidden="true" width="1em" height="1em" viewBox="0 0 24 24" data-icon="mdi:chart-donut" data-width="1em" data-height="1em" data-inline="false" class="iconify"><path d="M13 2.05v3.03c3.39.49 6 3.39 6 6.92 0 .9-.18 1.75-.5 2.54l2.62 1.53c.56-1.24.88-2.62.88-4.07 0-5.18-3.95-9.45-9-9.95M12 19c-3.87 0-7-3.13-7-7 0-3.53 2.61-6.43 6-6.92V2.05c-5.06.5-9 4.76-9 9.95 0 5.52 4.48 10 10 10 3.3 0 6.23-1.61 8.05-4.09l-2.6-1.53A6.89 6.89 0 0 1 12 19z" fill="#646464"/></svg>
