<?xml version="1.0"?>
<svg xmlns="http://www.w3.org/2000/svg" xmlns:xlink="http://www.w3.org/1999/xlink" aria-hidden="true" width="1em" height="1em" viewBox="0 0 24 24" data-icon="mdi:chart-bubble" data-width="1em" data-height="1em" data-inline="false" class="iconify"><path d="M7.2 11.2c1.77 0 3.2 1.43 3.2 3.2 0 1.77-1.43 3.2-3.2 3.2-1.77 0-3.2-1.43-3.2-3.2 0-1.77 1.43-3.2 3.2-3.2m7.6 4.8c1.1 0 2 .9 2 2s-.9 2-2 2-2-.9-2-2 .9-2 2-2m.4-12a4.801 4.801 0 0 1 0 9.6 4.801 4.801 0 0 1 0-9.6z" fill="#646464"/></svg>
