<?xml version="1.0"?>
<svg xmlns="http://www.w3.org/2000/svg" xmlns:xlink="http://www.w3.org/1999/xlink" aria-hidden="true" width="1em" height="1em" viewBox="0 0 24 24" data-icon="mdi:chart-donut-variant" data-width="1em" data-height="1em" data-inline="false" class="iconify"><path d="M13 2.05c5.05.5 9 4.77 9 9.95 0 1.45-.32 2.83-.88 4.07l-2.62-1.53c.32-.79.5-1.64.5-2.54 0-3.53-2.61-6.43-6-6.92V2.05M12 19c2.21 0 4.17-1 5.45-2.62l2.6 1.53A9.97 9.97 0 0 1 12 22C6.47 22 2 17.5 2 12a9.99 9.99 0 0 1 9-9.95v3.03C7.61 5.57 5 8.47 5 12c0 3.87 3.13 7 7 7m0-13c3.31 0 6 2.69 6 6 0 2.97-2.16 5.44-5 5.92v-3.09c1.17-.41 2-1.52 2-2.83 0-1.66-1.34-3-3-3l-.55.05-1.54-2.67C10.56 6.13 11.26 6 12 6m-6 6c0-1.86.85-3.5 2.18-4.62l1.54 2.67C9.27 10.57 9 11.26 9 12c0 1.31.83 2.42 2 2.83v3.09c-2.84-.48-5-2.95-5-5.92z" fill="#646464"/></svg>
