<?xml version="1.0"?>
<svg xmlns="http://www.w3.org/2000/svg" xmlns:xlink="http://www.w3.org/1999/xlink" aria-hidden="true" width="1em" height="1em" viewBox="0 0 24 24" data-icon="mdi:checkbox-multiple-marked-circle-outline" data-width="1em" data-height="1em" data-inline="false" class="iconify"><path d="M14 2c-4.42 0-8 3.58-8 8s3.58 8 8 8 8-3.58 8-8h-2c0 3.32-2.68 6-6 6-3.31 0-6-2.69-6-6s2.69-6 6-6c.43 0 .86.05 1.27.14l1.61-1.6C15.96 2.18 15 2 14 2m6.59 1.58L14 10.17l-2.38-2.38-1.41 1.42L14 13l8-8m-17.07.82A8.01 8.01 0 0 0 2 12c0 4.42 3.58 8 8 8 .64 0 1.27-.08 1.88-.23-1.76-.39-3.38-1.27-4.71-2.48A6.001 6.001 0 0 1 4 12c0-.3.03-.59.07-.89C4.03 10.74 4 10.37 4 10c0-1.44.32-2.87.93-4.18z" fill="#646464"/></svg>
