<?xml version="1.0"?>
<svg xmlns="http://www.w3.org/2000/svg" xmlns:xlink="http://www.w3.org/1999/xlink" aria-hidden="true" width="1em" height="1em" viewBox="0 0 24 24" data-icon="mdi:chef-hat" data-width="1em" data-height="1em" data-inline="false" class="iconify"><path d="M12.5 1.5c-1.77 0-3.33 1.17-3.83 2.87C8.14 4.13 7.58 4 7 4 4.79 4 3 5.79 3 8a4.01 4.01 0 0 0 3 3.87V19h13v-7.13c1.76-.46 3-2.05 3-3.87 0-2.21-1.79-4-4-4-.58 0-1.14.13-1.67.37-.5-1.7-2.06-2.87-3.83-2.87m-.5 9h1v7h-1v-7m-3 2h1v5H9v-5m6 0h1v5h-1v-5M6 20v1c0 .55.45 1 1 1h11c.55 0 1-.45 1-1v-1H6z" fill="#646464"/></svg>
