<?xml version="1.0"?>
<svg xmlns="http://www.w3.org/2000/svg" xmlns:xlink="http://www.w3.org/1999/xlink" aria-hidden="true" width="1em" height="1em" viewBox="0 0 24 24" data-icon="mdi:chess-bishop" data-width="1em" data-height="1em" data-inline="false" class="iconify"><path d="M19 22H5v-2h14v2M17.16 8.26A8.94 8.94 0 0 1 19 13c0 2.76-3.13 5-7 5s-7-2.24-7-5c0-2.38 2.33-6.61 5.46-7.73-.3-.36-.46-.81-.46-1.27 0-1.1.9-2 2-2s2 .9 2 2c0 .46-.16.91-.46 1.27.86.33 1.64.83 2.3 1.47l-4.55 4.55 1.42 1.42 4.45-4.45z" fill="#646464"/></svg>
