<?xml version="1.0"?>
<svg xmlns="http://www.w3.org/2000/svg" xmlns:xlink="http://www.w3.org/1999/xlink" aria-hidden="true" width="1em" height="1em" viewBox="0 0 24 24" data-icon="mdi:chess-queen" data-width="1em" data-height="1em" data-inline="false" class="iconify"><path d="M18 3c1.1 0 2 .9 2 2 0 .81-.5 1.5-1.17 1.82L17 13.15V18H7v-4.85L5.17 6.82C4.5 6.5 4 5.81 4 5c0-1.1.9-2 2-2s2 .9 2 2c0 .5-.18.95-.5 1.3l2.8 3.05.53-3.73C10.33 5.26 10 4.67 10 4c0-1.1.9-2 2-2s2 .9 2 2c0 .67-.33 1.26-.83 1.62l.53 3.73 2.77-3.06A2 2 0 0 1 18 3M5 20h14v2H5v-2z" fill="#646464"/></svg>
