<?xml version="1.0"?>
<svg xmlns="http://www.w3.org/2000/svg" xmlns:xlink="http://www.w3.org/1999/xlink" aria-hidden="true" width="1em" height="1em" viewBox="0 0 24 24" data-icon="mdi:chili-mild" data-width="1em" data-height="1em" data-inline="false" class="iconify"><path d="M13.75 9l1.2-.76c.63.34 1.05 1 1.05 1.76v11.75S8 20 8 11v-1c0-.73.39-1.37.97-1.72l1.46.72L12 8l1.75 1M10 2c1.53 0 2.8 1.15 3 2.64 1 .29 1.81 1.03 2.22 1.99l-1.47.87-1.75-1-1.57 1-1.67-.83c.39-.95 1.19-1.67 2.18-2.01A1.01 1.01 0 0 0 10 4V2z" fill="#646464"/></svg>
