<?xml version="1.0"?>
<svg xmlns="http://www.w3.org/2000/svg" xmlns:xlink="http://www.w3.org/1999/xlink" aria-hidden="true" width="1em" height="1em" viewBox="0 0 24 24" data-icon="mdi:circle-slice-8" data-width="1em" data-height="1em" data-inline="false" class="iconify"><path d="M12 2c5.52 0 10 4.48 10 10s-4.48 10-10 10S2 17.52 2 12 6.48 2 12 2m0 2c-4.42 0-8 3.58-8 8s3.58 8 8 8 8-3.58 8-8-3.58-8-8-8m0 15c-1.9 0-3.7-.8-4.9-2.1C5.9 15.6 5 13.9 5 12c0-1.9.8-3.7 2.1-4.9C8.4 5.9 10.1 5 12 5c1.9 0 3.7.8 4.9 2.1 1.2 1.3 2.1 3 2.1 4.9 0 1.9-.8 3.7-2.1 4.9-1.3 1.2-3 2.1-4.9 2.1z" fill="#646464"/></svg>
