<?xml version="1.0"?>
<svg xmlns="http://www.w3.org/2000/svg" xmlns:xlink="http://www.w3.org/1999/xlink" aria-hidden="true" width="1em" height="1em" viewBox="0 0 24 24" data-icon="mdi:circle-edit-outline" data-width="1em" data-height="1em" data-inline="false" class="iconify"><path d="M12 2C6.48 2 2 6.48 2 12s4.48 10 10 10 10-4.48 10-10h-2c0 4.42-3.58 8-8 8s-8-3.58-8-8 3.58-8 8-8V2m6.78 1a.69.69 0 0 0-.48.2l-1.22 1.21 2.5 2.5L20.8 5.7c.26-.26.26-.7 0-.95L19.25 3.2c-.13-.13-.3-.2-.47-.2m-2.41 2.12L9 12.5V15h2.5l7.37-7.38-2.5-2.5z" fill="#646464"/></svg>
