<?xml version="1.0"?>
<svg xmlns="http://www.w3.org/2000/svg" xmlns:xlink="http://www.w3.org/1999/xlink" aria-hidden="true" width="1em" height="1em" viewBox="0 0 24 24" data-icon="mdi:city-variant" data-width="1em" data-height="1em" data-inline="false" class="iconify"><path d="M19 9V7c0-1.1-.9-2-2-2h-1V2h-2v3h-1c-1.1 0-2 .9-2 2v2c-1.1 0-2 .9-2 2v1H5c-1.1 0-2 .9-2 2v8h3v-2h2v2h4v-2h2v2h2v-2h2v2h3V11c0-1.1-.9-2-2-2M8 18H6v-2h2v2m6 0h-2v-2h2v2m0-4h-2v-2h2v2m-1-5V7h4v2h-4m5 9h-2v-2h2v2m0-4h-2v-2h2v2z" fill="#646464"/></svg>
