<?xml version="1.0"?>
<svg xmlns="http://www.w3.org/2000/svg" xmlns:xlink="http://www.w3.org/1999/xlink" aria-hidden="true" width="1em" height="1em" viewBox="0 0 24 24" data-icon="mdi:city-variant-outline" data-width="1em" data-height="1em" data-inline="false" class="iconify"><path d="M15 23h-2v-2h2v2m4-2h-2v2h2v-2m-4-4h-2v2h2v-2m-8 4H5v2h2v-2m0-4H5v2h2v-2m12 0h-2v2h2v-2m-4-4h-2v2h2v-2m4 0h-2v2h2v-2m2-4c1.1 0 2 .9 2 2v12h-2V11H11v12H9v-8H3v8H1v-8c0-1.1.9-2 2-2h6v-2c0-1.1.9-2 2-2V7c0-1.1.9-2 2-2h2V1h2v4h2c1.1 0 2 .9 2 2v2m-2 0V7h-6v2h6z" fill="#646464"/></svg>
