<?xml version="1.0"?>
<svg xmlns="http://www.w3.org/2000/svg" xmlns:xlink="http://www.w3.org/1999/xlink" aria-hidden="true" width="1em" height="1em" viewBox="0 0 24 24" data-icon="mdi:clipboard-pulse" data-width="1em" data-height="1em" data-inline="false" class="iconify"><path d="M19 3h-4.18C14.4 1.84 13.3 1 12 1c-1.3 0-2.4.84-2.82 2H5c-1.1 0-2 .9-2 2v14c0 1.1.9 2 2 2h14c1.1 0 2-.9 2-2V5c0-1.1-.9-2-2-2m-7 0c.55 0 1 .45 1 1s-.45 1-1 1-1-.45-1-1 .45-1 1-1M5 13.46h2.17l3.33-6.38.94 6.97 2.49-3.19 2.6 2.6H19V15h-3.11l-1.82-1.79-3.69 4.71-.76-5.77L8.11 15H5v-1.54z" fill="#646464"/></svg>
