<?xml version="1.0"?>
<svg xmlns="http://www.w3.org/2000/svg" xmlns:xlink="http://www.w3.org/1999/xlink" aria-hidden="true" width="1em" height="1em" viewBox="0 0 24 24" data-icon="mdi:clipboard-text-outline" data-width="1em" data-height="1em" data-inline="false" class="iconify"><path d="M19 4h-4.18c-.57-1.56-2.29-2.36-3.82-1.8-.86.3-1.5.96-1.82 1.8H5c-1.1 0-2 .9-2 2v14c0 1.1.9 2 2 2h14c1.1 0 2-.9 2-2V6c0-1.1-.9-2-2-2m-7 0c.55 0 1 .45 1 1s-.45 1-1 1-1-.45-1-1 .45-1 1-1M7 8h10V6h2v14H5V6h2v2m10 4H7v-2h10v2m-2 4H7v-2h8v2z" fill="#646464"/></svg>
