<?xml version="1.0"?>
<svg xmlns="http://www.w3.org/2000/svg" xmlns:xlink="http://www.w3.org/1999/xlink" aria-hidden="true" width="1em" height="1em" viewBox="0 0 24 24" data-icon="mdi:clipboard-arrow-left" data-width="1em" data-height="1em" data-inline="false" class="iconify"><path d="M16 15h-4v3l-5-5 5-5v3h4m-4-8c.55 0 1 .45 1 1s-.45 1-1 1-1-.45-1-1 .45-1 1-1m7 0h-4.18C14.4 1.84 13.3 1 12 1c-1.3 0-2.4.84-2.82 2H5c-1.1 0-2 .9-2 2v14c0 1.1.9 2 2 2h14c1.1 0 2-.9 2-2V5c0-1.1-.9-2-2-2z" fill="#646464"/></svg>
