<?xml version="1.0"?>
<svg xmlns="http://www.w3.org/2000/svg" xmlns:xlink="http://www.w3.org/1999/xlink" aria-hidden="true" width="1em" height="1em" viewBox="0 0 24 24" data-icon="mdi:clock-out" data-width="1em" data-height="1em" data-inline="false" class="iconify"><path d="M18 1l1.8 1.79-4.01 4 1.42 1.42 4-4L23 6V1M12 8c-3.86 0-7 3.13-7 7s3.13 7 7 7c3.86 0 7-3.13 7-7s-3.13-7-7-7m0 2.15c2.67 0 4.85 2.17 4.85 4.85 0 2.68-2.17 4.85-4.85 4.85-2.68 0-4.85-2.17-4.85-4.85 0-2.68 2.17-4.85 4.85-4.85M11 12v3.69l3.19 1.84.75-1.3-2.44-1.41V12" fill="#646464"/></svg>
