<?xml version="1.0"?>
<svg xmlns="http://www.w3.org/2000/svg" xmlns:xlink="http://www.w3.org/1999/xlink" aria-hidden="true" width="1em" height="1em" viewBox="0 0 24 24" data-icon="mdi:clock-end" data-width="1em" data-height="1em" data-inline="false" class="iconify"><path d="M12 1C8.14 1 5 4.14 5 8c0 3.87 3.13 7 7 7 3.86 0 7-3.13 7-7 0-3.86-3.14-7-7-7m0 2.15c2.67 0 4.85 2.17 4.85 4.85 0 2.68-2.18 4.85-4.85 4.85-2.68 0-4.85-2.17-4.85-4.85 0-2.68 2.17-4.85 4.85-4.85M11 5v3.69l3.19 1.84.75-1.3-2.44-1.41V5M15 16v3H3v2h12v3l4-4m0 0v4h2v-8h-2" fill="#646464"/></svg>
