<?xml version="1.0"?>
<svg xmlns="http://www.w3.org/2000/svg" xmlns:xlink="http://www.w3.org/1999/xlink" aria-hidden="true" width="1em" height="1em" viewBox="0 0 24 24" data-icon="mdi:clock-fast" data-width="1em" data-height="1em" data-inline="false" class="iconify"><path d="M15 4c4.42 0 8 3.58 8 8s-3.58 8-8 8-8-3.58-8-8 3.58-8 8-8m0 2c-3.31 0-6 2.69-6 6s2.69 6 6 6 6-2.69 6-6-2.69-6-6-6m-1 2h1.5v3.78l2.33 2.33-1.06 1.06L14 12.4V8M2 18c-.55 0-1-.45-1-1s.45-1 1-1h3.83c.31.71.71 1.38 1.17 2H2m1-5c-.55 0-1-.45-1-1s.45-1 1-1h2.05L5 12l.05 1H3m1-5c-.55 0-1-.45-1-1s.45-1 1-1h3c-.46.62-.86 1.29-1.17 2H4z" fill="#646464"/></svg>
