<?xml version="1.0"?>
<svg xmlns="http://www.w3.org/2000/svg" xmlns:xlink="http://www.w3.org/1999/xlink" aria-hidden="true" width="1em" height="1em" viewBox="0 0 24 24" data-icon="mdi:clock-alert-outline" data-width="1em" data-height="1em" data-inline="false" class="iconify"><path d="M12 2C6.47 2 2 6.5 2 12c0 5.52 4.48 10 10 10 2.25 0 4.33-.76 6-2v-2.72C16.53 18.94 14.39 20 12 20c-4.42 0-8-3.58-8-8s3.58-8 8-8c3.36 0 6.23 2.07 7.41 5h2.13C20.27 4.94 16.5 2 12 2m-1 5v6l5.25 3.15.75-1.23-4.5-2.67V7H11m9 4v7h2v-7h-2m0 9v2h2v-2h-2z" fill="#646464"/></svg>
