<?xml version="1.0"?>
<svg xmlns="http://www.w3.org/2000/svg" xmlns:xlink="http://www.w3.org/1999/xlink" aria-hidden="true" width="1em" height="1em" viewBox="0 0 24 24" data-icon="mdi:cloud-search" data-width="1em" data-height="1em" data-inline="false" class="iconify"><path d="M15.5 12c2.5 0 4.5 2 4.5 4.5 0 .88-.25 1.71-.69 2.4l3.08 3.1L21 23.39l-3.12-3.07c-.69.43-1.51.68-2.38.68-2.5 0-4.5-2-4.5-4.5s2-4.5 4.5-4.5m0 2a2.5 2.5 0 0 0 0 5 2.5 2.5 0 0 0 0-5m3.85-5.97C21.95 8.22 24 10.36 24 13c0 1.64-.79 3.1-2 4v-.5a6.5 6.5 0 1 0-13 0c0 .5.06 1 .17 1.5H6a6.004 6.004 0 1 1-.65-11.97A7.506 7.506 0 0 1 12 2a7.49 7.49 0 0 1 7.35 6.03z" fill="#646464"/></svg>
