<?xml version="1.0"?>
<svg xmlns="http://www.w3.org/2000/svg" xmlns:xlink="http://www.w3.org/1999/xlink" aria-hidden="true" width="1em" height="1em" viewBox="0 0 24 24" data-icon="mdi:cloud-braces" data-width="1em" data-height="1em" data-inline="false" class="iconify"><path d="M6 20c-3.31 0-6-2.69-6-6 0-3.09 2.34-5.64 5.35-5.96A7.496 7.496 0 0 1 12 4a7.5 7.5 0 0 1 7.35 6A5.02 5.02 0 0 1 24 15c0 2.76-2.24 5-5 5H6m12.5-8H18c-.55 0-1-.45-1-1v-1c0-1.1-.9-2-2-2h-1.5v2H15v1c0 1.1.9 2 2 2-1.1 0-2 .9-2 2v1h-1.5v2H15c1.1 0 2-.9 2-2v-1c0-.55.45-1 1-1h.5v-2m-13 0v2H6c.55 0 1 .45 1 1v1c0 1.1.9 2 2 2h1.5v-2H9v-1c0-1.1-.9-2-2-2 1.1 0 2-.9 2-2v-1h1.5V8H9c-1.1 0-2 .9-2 2v1c0 .55-.45 1-1 1h-.5z" fill="#646464"/></svg>
