<?xml version="1.0"?>
<svg xmlns="http://www.w3.org/2000/svg" xmlns:xlink="http://www.w3.org/1999/xlink" aria-hidden="true" width="1em" height="1em" viewBox="0 0 24 24" data-icon="mdi:cloud-tags" data-width="1em" data-height="1em" data-inline="false" class="iconify"><path d="M6 20c-3.31 0-6-2.69-6-6 0-3.09 2.34-5.64 5.35-5.96A7.496 7.496 0 0 1 12 4a7.5 7.5 0 0 1 7.35 6A5.02 5.02 0 0 1 24 15c0 2.76-2.24 5-5 5H6M9.09 8.4L4.5 13l4.59 4.6 1.41-1.42L7.32 13l3.18-3.18L9.09 8.4m5.82 0L13.5 9.82 16.68 13l-3.18 3.18 1.41 1.42L19.5 13l-4.59-4.6z" fill="#646464"/></svg>
