<?xml version="1.0"?>
<svg xmlns="http://www.w3.org/2000/svg" xmlns:xlink="http://www.w3.org/1999/xlink" aria-hidden="true" width="1em" height="1em" viewBox="0 0 24 24" data-icon="mdi:cloud-download-outline" data-width="1em" data-height="1em" data-inline="false" class="iconify"><path d="M8 13h2.55v-3h2.9v3H16l-4 4-4-4m11.35-2.96c2.6.18 4.65 2.32 4.65 4.96 0 2.76-2.24 5-5 5H6c-3.31 0-6-2.69-6-6 0-3.09 2.34-5.64 5.35-5.96A7.496 7.496 0 0 1 12 4a7.49 7.49 0 0 1 7.35 6.04M19 18c1.66 0 3-1.34 3-3a2.98 2.98 0 0 0-2.78-2.96l-1.53-.11-.3-1.5A5.503 5.503 0 0 0 12 6C9.94 6 8.08 7.14 7.13 8.97l-.5.95-1.07.11A3.973 3.973 0 0 0 2 14c0 2.21 1.79 4 4 4h13z" fill="#646464"/></svg>
