<?xml version="1.0"?>
<svg xmlns="http://www.w3.org/2000/svg" xmlns:xlink="http://www.w3.org/1999/xlink" aria-hidden="true" width="1em" height="1em" viewBox="0 0 24 24" data-icon="mdi:cloud-print" data-width="1em" data-height="1em" data-inline="false" class="iconify"><path d="M12 2C9.11 2 6.6 3.64 5.35 6.04A5.994 5.994 0 0 0 0 12c0 3.31 2.69 6 6 6v4h12v-4h1c2.76 0 5-2.24 5-5 0-2.64-2.05-4.78-4.65-4.96A7.49 7.49 0 0 0 12 2M8 13h8v7H8v-7m1 1v1h6v-1H9m0 2v1h6v-1H9m0 2v1h6v-1H9z" fill="#646464"/></svg>
