<?xml version="1.0"?>
<svg xmlns="http://www.w3.org/2000/svg" xmlns:xlink="http://www.w3.org/1999/xlink" aria-hidden="true" width="1em" height="1em" viewBox="0 0 24 24" data-icon="mdi:cloud-off-outline" data-width="1em" data-height="1em" data-inline="false" class="iconify"><path d="M7.73 10l8 8H6c-2.21 0-4-1.79-4-4s1.79-4 4-4M3 5.27L5.75 8C2.56 8.15 0 10.77 0 14c0 3.31 2.69 6 6 6h11.73l2 2L21 20.73 4.27 4m15.08 6.03A7.49 7.49 0 0 0 12 4c-1.5 0-2.85.43-4 1.17l1.45 1.46a5.497 5.497 0 0 1 8.05 4.87v.5H19c1.66 0 3 1.34 3 3 0 1.13-.64 2.11-1.56 2.62l1.45 1.45C23.16 18.16 24 16.68 24 15c0-2.64-2.05-4.78-4.65-4.97z" fill="#646464"/></svg>
