<?xml version="1.0"?>
<svg xmlns="http://www.w3.org/2000/svg" xmlns:xlink="http://www.w3.org/1999/xlink" aria-hidden="true" width="1em" height="1em" viewBox="0 0 24 24" data-icon="mdi:cloud-search-outline" data-width="1em" data-height="1em" data-inline="false" class="iconify"><path d="M15.5 12c2.5 0 4.5 2 4.5 4.5 0 .88-.25 1.71-.69 2.4l3.08 3.1L21 23.39l-3.12-3.07c-.69.43-1.51.68-2.38.68-2.5 0-4.5-2-4.5-4.5s2-4.5 4.5-4.5m0 2a2.5 2.5 0 0 0 0 5 2.5 2.5 0 0 0 0-5m6.5-1c0-1.66-1.34-3-3-3h-1.5v-.5C17.5 6.46 15.04 4 12 4 9.5 4 7.37 5.69 6.71 8H6c-2.21 0-4 1.79-4 4s1.79 4 4 4h3v.5c0 .5.06 1 .17 1.5H6c-3.31 0-6-2.69-6-6 0-3.1 2.34-5.64 5.35-5.96A7.496 7.496 0 0 1 12 2c3.64 0 6.67 2.59 7.36 6.04C21.95 8.22 24 10.36 24 13c0 1.65-.79 3.1-2 4v-.5c0-.73-.12-1.44-.35-2.1.22-.4.35-.9.35-1.4z" fill="#646464"/></svg>
