<?xml version="1.0"?>
<svg xmlns="http://www.w3.org/2000/svg" xmlns:xlink="http://www.w3.org/1999/xlink" aria-hidden="true" width="1em" height="1em" viewBox="0 0 24 24" data-icon="mdi:code-string" data-width="1em" data-height="1em" data-inline="false" class="iconify"><path d="M3 5c0-1.1.9-2 2-2h14c1.1 0 2 .9 2 2v14c0 1.1-.9 2-2 2H5a2 2 0 0 1-2-2V5m9.5 6h-1c-.83 0-1.5-.67-1.5-1.5S10.67 8 11.5 8h1c.83 0 1.5.67 1.5 1.5h2C16 7.57 14.43 6 12.5 6h-1C9.57 6 8 7.57 8 9.5S9.57 13 11.5 13h1c.83 0 1.5.67 1.5 1.5s-.67 1.5-1.5 1.5h-1c-.83 0-1.5-.67-1.5-1.5H8c0 1.93 1.57 3.5 3.5 3.5h1c1.93 0 3.5-1.57 3.5-3.5S14.43 11 12.5 11z" fill="#646464"/></svg>
