<?xml version="1.0"?>
<svg xmlns="http://www.w3.org/2000/svg" xmlns:xlink="http://www.w3.org/1999/xlink" aria-hidden="true" width="1em" height="1em" viewBox="0 0 24 24" data-icon="mdi:code-braces" data-width="1em" data-height="1em" data-inline="false" class="iconify"><path d="M8 3c-1.1 0-2 .9-2 2v4c0 1.1-.9 2-2 2H3v2h1c1.1 0 2 .9 2 2v4c0 1.1.9 2 2 2h2v-2H8v-5c0-1.1-.9-2-2-2 1.1 0 2-.9 2-2V5h2V3m6 0c1.1 0 2 .9 2 2v4c0 1.1.9 2 2 2h1v2h-1c-1.1 0-2 .9-2 2v4c0 1.1-.9 2-2 2h-2v-2h2v-5c0-1.1.9-2 2-2-1.1 0-2-.9-2-2V5h-2V3h2z" fill="#646464"/></svg>
