<?xml version="1.0"?>
<svg xmlns="http://www.w3.org/2000/svg" xmlns:xlink="http://www.w3.org/1999/xlink" aria-hidden="true" width="1em" height="1em" viewBox="0 0 24 24" data-icon="mdi:coin" data-width="1em" data-height="1em" data-inline="false" class="iconify"><path d="M12 2c5.52 0 10 4.48 10 10s-4.48 10-10 10S2 17.52 2 12 6.48 2 12 2m0 2c-4.42 0-8 3.58-8 8s3.58 8 8 8 8-3.58 8-8-3.58-8-8-8m-1 13v-1H9v-2h4v-1h-3c-.55 0-1-.45-1-1V9c0-.55.45-1 1-1h1V7h2v1h2v2h-4v1h3c.55 0 1 .45 1 1v3c0 .55-.45 1-1 1h-1v1h-2z" fill="#646464"/></svg>
