<?xml version="1.0"?>
<svg xmlns="http://www.w3.org/2000/svg" xmlns:xlink="http://www.w3.org/1999/xlink" aria-hidden="true" width="1em" height="1em" viewBox="0 0 24 24" data-icon="mdi:comment-eye-outline" data-width="1em" data-height="1em" data-inline="false" class="iconify"><path d="M16 6c.56 0 1 .44 1 1s-.44 1-1 1-1-.44-1-1 .44-1 1-1m0-3c2.73 0 5.06 1.66 6 4-.94 2.34-3.27 4-6 4s-5.06-1.66-6-4c.94-2.34 3.27-4 6-4m0 1.5a2.5 2.5 0 0 0 0 5 2.5 2.5 0 0 0 0-5m2 8.25V16h-4.92L10 19.08V16H4V6h4.27c.32-.73.73-1.4 1.23-2H4c-1.1 0-2 .9-2 2v10a2 2 0 0 0 2 2h4v3c0 .55.45 1 1 1h.5c.25 0 .5-.1.7-.29L13.9 18H18c1.11 0 2-.89 2-2v-4c-.63.33-1.3.58-2 .75z" fill="#646464"/></svg>
