<?xml version="1.0"?>
<svg xmlns="http://www.w3.org/2000/svg" xmlns:xlink="http://www.w3.org/1999/xlink" aria-hidden="true" width="1em" height="1em" viewBox="0 0 24 24" data-icon="mdi:comment-eye" data-width="1em" data-height="1em" data-inline="false" class="iconify"><path d="M20 12v4c0 1.11-.89 2-2 2h-4.1l-3.7 3.71c-.2.18-.44.29-.7.29H9c-.55 0-1-.45-1-1v-3H4c-1.1 0-2-.9-2-2V6a2 2 0 0 1 2-2h5.5c-.55.67-1 1.42-1.36 2.25L7.85 7l.29.75C9.43 10.94 12.5 13 16 13c1.44 0 2.8-.37 4-1m-4-6c.56 0 1 .44 1 1s-.44 1-1 1-1-.44-1-1 .44-1 1-1m0-3c2.73 0 5.06 1.66 6 4-.94 2.34-3.27 4-6 4s-5.06-1.66-6-4c.94-2.34 3.27-4 6-4m0 1.5a2.5 2.5 0 0 0 0 5 2.5 2.5 0 0 0 0-5" fill="#646464"/></svg>
