<?xml version="1.0"?>
<svg xmlns="http://www.w3.org/2000/svg" xmlns:xlink="http://www.w3.org/1999/xlink" aria-hidden="true" width="1em" height="1em" viewBox="0 0 24 24" data-icon="mdi:comment-check-outline" data-width="1em" data-height="1em" data-inline="false" class="iconify"><path d="M9 22c-.55 0-1-.45-1-1v-3H4c-1.1 0-2-.9-2-2V4a2 2 0 0 1 2-2h16c1.1 0 2 .9 2 2v12c0 1.1-.9 2-2 2h-6.1l-3.7 3.71c-.2.19-.45.29-.7.29H9m1-6v3.08L13.08 16H20V4H4v12h6m6.5-8L11 13.5 7.5 10l1.41-1.41L11 10.67l4.09-4.08L16.5 8z" fill="#646464"/></svg>
