<?xml version="1.0"?>
<svg xmlns="http://www.w3.org/2000/svg" xmlns:xlink="http://www.w3.org/1999/xlink" aria-hidden="true" width="1em" height="1em" viewBox="0 0 24 24" data-icon="mdi:comment-search-outline" data-width="1em" data-height="1em" data-inline="false" class="iconify"><path d="M4 4h5.5a6.85 6.85 0 0 0-.46 2H4v10h6v3.08L13.08 16H18v-2.77l2 2V16c0 1.1-.9 2-2 2h-4.1l-3.7 3.71c-.2.19-.45.29-.7.29H9c-.55 0-1-.45-1-1v-3H4c-1.1 0-2-.9-2-2V6a2 2 0 0 1 2-2m11.5-2C18 2 20 4 20 6.5c0 .88-.25 1.7-.69 2.39l3.1 3.11L21 13.39l-3.11-3.08c-.69.44-1.51.69-2.39.69C13 11 11 9 11 6.5S13 2 15.5 2m0 2a2.5 2.5 0 0 0 0 5 2.5 2.5 0 0 0 0-5z" fill="#646464"/></svg>
