<?xml version="1.0"?>
<svg xmlns="http://www.w3.org/2000/svg" xmlns:xlink="http://www.w3.org/1999/xlink" aria-hidden="true" width="1em" height="1em" viewBox="0 0 24 24" data-icon="mdi:comment-remove" data-width="1em" data-height="1em" data-inline="false" class="iconify"><path d="M9 22c-.55 0-1-.45-1-1v-3H4c-1.1 0-2-.9-2-2V4a2 2 0 0 1 2-2h16c1.1 0 2 .9 2 2v12c0 1.1-.9 2-2 2h-6.1l-3.7 3.71c-.2.19-.45.29-.7.29H9m.41-16L8 7.41 10.59 10 8 12.59 9.41 14 12 11.41 14.59 14 16 12.59 13.41 10 16 7.41 14.59 6 12 8.59 9.41 6z" fill="#646464"/></svg>
