<?xml version="1.0"?>
<svg xmlns="http://www.w3.org/2000/svg" xmlns:xlink="http://www.w3.org/1999/xlink" aria-hidden="true" width="1em" height="1em" viewBox="0 0 24 24" data-icon="mdi:comment-arrow-right" data-width="1em" data-height="1em" data-inline="false" class="iconify"><path d="M9 22c-.55 0-1-.45-1-1v-3H4c-1.1 0-2-.9-2-2V4a2 2 0 0 1 2-2h16a2 2 0 0 1 2 2v12c0 1.11-.89 2-2 2h-6.1l-3.7 3.71c-.2.19-.45.29-.7.29H9M8 9.05v2.07h4.64l-1.8 1.8 1.25 1.25 4.08-4.09L12.09 6l-1.25 1.25 1.8 1.8H8z" fill="#646464"/></svg>
