<?xml version="1.0"?>
<svg xmlns="http://www.w3.org/2000/svg" xmlns:xlink="http://www.w3.org/1999/xlink" aria-hidden="true" width="1em" height="1em" viewBox="0 0 24 24" data-icon="mdi:comment-arrow-left-outline" data-width="1em" data-height="1em" data-inline="false" class="iconify"><path d="M4 2c-1.1 0-2 .9-2 2v12a2 2 0 0 0 2 2h4v3c0 .55.45 1 1 1h.5c.25 0 .5-.1.7-.29L13.9 18H20c1.11 0 2-.89 2-2V4a2 2 0 0 0-2-2H4m0 2h16v12h-6.92L10 19.08V16H4V4m12.17 7.12V9.05h-4.64l1.8-1.8L12.09 6 8 10.09l4.09 4.08 1.24-1.25-1.8-1.8h4.64z" fill="#646464"/></svg>
