<?xml version="1.0"?>
<svg xmlns="http://www.w3.org/2000/svg" xmlns:xlink="http://www.w3.org/1999/xlink" aria-hidden="true" width="1em" height="1em" viewBox="0 0 24 24" data-icon="mdi:compass-off-outline" data-width="1em" data-height="1em" data-inline="false" class="iconify"><path d="M1 3.5l1.28-1.25 19.47 19.47L20.5 23l-2.8-2.78A9.983 9.983 0 0 1 12 22C6.48 22 2 17.52 2 12c0-2.12.66-4.08 1.78-5.7L1 3.5M7 17l2.39-5.09-4.16-4.17A8.026 8.026 0 0 0 4 12c0 4.42 3.58 8 8 8 1.56 0 3-.45 4.26-1.23l-4.17-4.16L7 17M17 7l-2.38 5.05-2.67-2.67L17 7m-5-5c5.52 0 10 4.48 10 10 0 2.1-.65 4.06-1.76 5.67l-1.44-1.45C19.56 15 20 13.55 20 12c0-4.42-3.58-8-8-8-1.55 0-3 .44-4.22 1.2L6.33 3.76A9.97 9.97 0 0 1 12 2z" fill="#646464"/></svg>
