<?xml version="1.0"?>
<svg xmlns="http://www.w3.org/2000/svg" xmlns:xlink="http://www.w3.org/1999/xlink" aria-hidden="true" width="1em" height="1em" viewBox="0 0 24 24" data-icon="mdi:compass-off" data-width="1em" data-height="1em" data-inline="false" class="iconify"><path d="M1 3.5l1.28-1.25 19.47 19.47L20.5 23l-2.8-2.78A9.983 9.983 0 0 1 12 22C6.48 22 2 17.52 2 12c0-2.12.66-4.08 1.78-5.7L1 3.5M6 18l6.47-3L9 11.53 6 18M18 6l-6.44 3-5.23-5.24A9.97 9.97 0 0 1 12 2c5.52 0 10 4.48 10 10 0 2.1-.65 4.06-1.76 5.67L15 12.44 18 6z" fill="#646464"/></svg>
