<?xml version="1.0"?>
<svg xmlns="http://www.w3.org/2000/svg" xmlns:xlink="http://www.w3.org/1999/xlink" aria-hidden="true" width="1em" height="1em" viewBox="0 0 24 24" data-icon="mdi:console-network" data-width="1em" data-height="1em" data-inline="false" class="iconify"><path d="M17 2c1.1 0 2 .9 2 2v10c0 1.1-.9 2-2 2h-4v2h1c.55 0 1 .45 1 1h7v2h-7c0 .55-.45 1-1 1h-4c-.55 0-1-.45-1-1H2v-2h7c0-.55.45-1 1-1h1v-2H7c-1.1 0-2-.9-2-2V4c0-1.1.9-2 2-2h10M7 6l4 4-4 4h2.85l3.28-3.28c.37-.39.37-1.02 0-1.42L9.83 6H7m10 6h-3v2h3v-2z" fill="#646464"/></svg>
