<?xml version="1.0"?>
<svg xmlns="http://www.w3.org/2000/svg" xmlns:xlink="http://www.w3.org/1999/xlink" aria-hidden="true" width="1em" height="1em" viewBox="0 0 24 24" data-icon="mdi:contrast-circle" data-width="1em" data-height="1em" data-inline="false" class="iconify"><path d="M12 20c-2.21 0-4.21-.9-5.66-2.34L17.66 6.34A8.014 8.014 0 0 1 20 12c0 4.42-3.58 8-8 8M6 8h2V6h1.5v2h2v1.5h-2v2H8v-2H6M12 2C6.48 2 2 6.48 2 12s4.48 10 10 10 10-4.48 10-10S17.52 2 12 2m0 14h5v-1.5h-5V16z" fill="#646464"/></svg>
