<?xml version="1.0"?>
<svg xmlns="http://www.w3.org/2000/svg" xmlns:xlink="http://www.w3.org/1999/xlink" aria-hidden="true" width="1em" height="1em" viewBox="0 0 24 24" data-icon="mdi:content-save-outline" data-width="1em" data-height="1em" data-inline="false" class="iconify"><path d="M15 5v4H5v10h4.35C8.5 18.27 8 17.19 8 16c0-2.21 1.79-4 4-4s4 1.79 4 4c0 1.19-.5 2.27-1.35 3H19V7.83L16.17 5H15M5 7h8V5H5v2m12-4l4 4v12c0 1.1-.9 2-2 2H5a2 2 0 0 1-2-2V5c0-1.1.9-2 2-2h12m-5 11c-1.1 0-2 .9-2 2s.9 2 2 2 2-.9 2-2-.9-2-2-2z" fill="#646464"/></svg>
