<?xml version="1.0"?>
<svg xmlns="http://www.w3.org/2000/svg" xmlns:xlink="http://www.w3.org/1999/xlink" aria-hidden="true" width="1em" height="1em" viewBox="0 0 24 24" data-icon="mdi:controller-classic-outline" data-width="1em" data-height="1em" data-inline="false" class="iconify"><path d="M17.5 7c3.04 0 5.5 2.46 5.5 5.5a5.497 5.497 0 0 1-9.74 3.5h-2.52A5.497 5.497 0 0 1 1 12.5C1 9.46 3.46 7 6.5 7h11m-11 2C4.57 9 3 10.57 3 12.5S4.57 16 6.5 16c1.4 0 2.6-.82 3.16-2h4.68c.56 1.18 1.76 2 3.16 2 1.93 0 3.5-1.57 3.5-3.5S19.43 9 17.5 9h-11m-.75 1.25h1.5v1.5h1.5v1.5h-1.5v1.5h-1.5v-1.5h-1.5v-1.5h1.5v-1.5m11 2.25c.55 0 1 .45 1 1s-.45 1-1 1-1-.45-1-1 .45-1 1-1m2-2c.55 0 1 .45 1 1s-.45 1-1 1-1-.45-1-1 .45-1 1-1z" fill="#646464"/></svg>
