<?xml version="1.0"?>
<svg xmlns="http://www.w3.org/2000/svg" xmlns:xlink="http://www.w3.org/1999/xlink" aria-hidden="true" width="1em" height="1em" viewBox="0 0 24 24" data-icon="mdi:controller-classic" data-width="1em" data-height="1em" data-inline="false" class="iconify"><path d="M6 7h12c2.76 0 5 2.24 5 5a5.002 5.002 0 0 1-9 3h-4a5.002 5.002 0 0 1-9-3c0-2.76 2.24-5 5-5m13.75 2.5a1.25 1.25 0 1 0 0 2.5 1.25 1.25 0 0 0 0-2.5m-2.5 2.5a1.25 1.25 0 1 0 0 2.5 1.25 1.25 0 0 0 0-2.5M5 9v2H3v2h2v2h2v-2h2v-2H7V9H5z" fill="#646464"/></svg>
