<?xml version="1.0"?>
<svg xmlns="http://www.w3.org/2000/svg" xmlns:xlink="http://www.w3.org/1999/xlink" aria-hidden="true" width="1em" height="1em" viewBox="0 0 24 24" data-icon="mdi:contacts" data-width="1em" data-height="1em" data-inline="false" class="iconify"><path d="M20 0H4v2h16V0M4 24h16v-2H4v2M20 4H4c-1.1 0-2 .9-2 2v12c0 1.1.9 2 2 2h16c1.1 0 2-.9 2-2V6c0-1.1-.9-2-2-2m-8 2.75c1.24 0 2.25 1.01 2.25 2.25s-1.01 2.25-2.25 2.25S9.75 10.24 9.75 9 10.76 6.75 12 6.75M17 17H7v-1.5c0-1.67 3.33-2.5 5-2.5s5 .83 5 2.5V17z" fill="#646464"/></svg>
