<?xml version="1.0"?>
<svg xmlns="http://www.w3.org/2000/svg" xmlns:xlink="http://www.w3.org/1999/xlink" aria-hidden="true" width="1em" height="1em" viewBox="0 0 24 24" data-icon="mdi:contact-mail" data-width="1em" data-height="1em" data-inline="false" class="iconify"><path d="M21 8V7l-3 2-3-2v1l3 2m4-7H2C.9 3 0 3.9 0 5v14c0 1.1.9 2 2 2h20c1.1 0 2-.9 2-2V5c0-1.1-.9-2-2-2M8 6c1.66 0 3 1.34 3 3s-1.34 3-3 3-3-1.34-3-3 1.34-3 3-3m6 12H2v-1c0-2 4-3.1 6-3.1s6 1.1 6 3.1m8-5h-8V6h8" fill="#646464"/></svg>
