<?xml version="1.0"?>
<svg xmlns="http://www.w3.org/2000/svg" xmlns:xlink="http://www.w3.org/1999/xlink" aria-hidden="true" width="1em" height="1em" viewBox="0 0 24 24" data-icon="mdi:cookie" data-width="1em" data-height="1em" data-inline="false" class="iconify"><path d="M12 3a9 9 0 1 0 9 9c0-.5-.04-1-.13-1.5C20.6 10 20 10 20 10h-2V9c0-1-1-1-1-1h-2V7c0-1-1-1-1-1h-1V4c0-1-1-1-1-1M9.5 6c.83 0 1.5.67 1.5 1.5S10.33 9 9.5 9 8 8.33 8 7.5 8.67 6 9.5 6m-3 4c.83 0 1.5.67 1.5 1.5S7.33 13 6.5 13 5 12.33 5 11.5 5.67 10 6.5 10m5 1c.83 0 1.5.67 1.5 1.5s-.67 1.5-1.5 1.5-1.5-.67-1.5-1.5.67-1.5 1.5-1.5m5 2c.83 0 1.5.67 1.5 1.5s-.67 1.5-1.5 1.5-1.5-.67-1.5-1.5.67-1.5 1.5-1.5M11 16c.83 0 1.5.67 1.5 1.5S11.83 19 11 19s-1.5-.67-1.5-1.5.67-1.5 1.5-1.5z" fill="#646464"/></svg>
