<?xml version="1.0"?>
<svg xmlns="http://www.w3.org/2000/svg" xmlns:xlink="http://www.w3.org/1999/xlink" aria-hidden="true" width="1em" height="1em" viewBox="0 0 24 24" data-icon="mdi:credit-card-scan" data-width="1em" data-height="1em" data-inline="false" class="iconify"><path d="M2 4h4V2H2C.9 2 0 2.9 0 4v4h2V4m20-2h-4v2h4v4h2V4c0-1.1-.9-2-2-2M2 16H0v4c0 1.1.9 2 2 2h4v-2H2v-4m20 4h-4v2h4c1.1 0 2-.9 2-2v-4h-2v4M4 8v8c0 1.1.9 2 2 2h12c1.1 0 2-.9 2-2V8c0-1.1-.9-2-2-2H6c-1.1 0-2 .9-2 2m2 8v-4h12v4H6m12-8v2H6V8h12z" fill="#646464"/></svg>
