<?xml version="1.0"?>
<svg xmlns="http://www.w3.org/2000/svg" xmlns:xlink="http://www.w3.org/1999/xlink" aria-hidden="true" width="1em" height="1em" viewBox="0 0 24 24" data-icon="mdi:crystal-ball" data-width="1em" data-height="1em" data-inline="false" class="iconify"><path d="M9.38 8.38l2.12.96 2.12-.96-.96 2.12.96 2.12-2.12-.96-2.12.96.96-2.12-.96-2.12M16.5 2.5l1.09 2.91L20.5 6.5l-2.91 1.09-1.09 2.91-1.09-2.91L12.5 6.5l2.91-1.09L16.5 2.5M6 19h1v-1c0-.55.45-1 1-1h.26a7.473 7.473 0 0 1-3.76-6.5 7.503 7.503 0 0 1 10.46-6.89l-.37.98-1.42.53C12.79 5.04 12.4 5 12 5c-3.04 0-5.5 2.46-5.5 5.5S8.96 16 12 16c2.91 0 5.3-2.27 5.5-5.13l.91-2.46.71-.27c.25.74.38 1.54.38 2.36 0 2.78-1.5 5.2-3.76 6.5H16c.55 0 1 .45 1 1v1h1c1.1 0 2 .9 2 2v1H4v-1c0-1.1.9-2 2-2z" fill="#646464"/></svg>
