<?xml version="1.0"?>
<svg xmlns="http://www.w3.org/2000/svg" xmlns:xlink="http://www.w3.org/1999/xlink" aria-hidden="true" width="1em" height="1em" viewBox="0 0 24 24" data-icon="mdi:cupcake" data-width="1em" data-height="1em" data-inline="false" class="iconify"><path d="M12 1.5a2.5 2.5 0 0 1 0 5 2.5 2.5 0 0 1 0-5M15.87 5C18 5 20 7 20 9c2.7 0 2.7 4 0 4H4c-2.7 0-2.7-4 0-4 0-2 2-4 4.13-4 .44 1.73 2.01 3 3.87 3 1.86 0 3.43-1.27 3.87-3M5 15h3l1 7H7l-2-7m5 0h4l-1 7h-2l-1-7m6 0h3l-2 7h-2l1-7z" fill="#646464"/></svg>
