<?xml version="1.0"?>
<svg xmlns="http://www.w3.org/2000/svg" xmlns:xlink="http://www.w3.org/1999/xlink" aria-hidden="true" width="1em" height="1em" viewBox="0 0 24 24" data-icon="mdi:currency-bdt" data-width="1em" data-height="1em" data-inline="false" class="iconify"><path d="M18.09 10.5V9h-8.5V4.5c0-.83-.67-1.5-1.5-1.5s-1.5.67-1.5 1.5S7.26 6 8.09 6v3h-3v1.5h3v6.2c0 2.36 1.91 4.27 4.25 4.3 2.34-.04 4.2-1.96 4.16-4.3 0-1.59-.75-3.09-2-4.08a4.08 4.08 0 0 0-.7-.47c-.22-.1-.46-.15-.7-.15-.71 0-1.36.39-1.71 1-.19.3-.29.65-.29 1 .01 1.1.9 2 2.01 2 .62 0 1.2-.31 1.58-.8.21.47.31.98.31 1.5.04 1.5-1.14 2.75-2.66 2.8-1.53 0-2.76-1.27-2.75-2.8v-6.2h8.5z" fill="#646464"/></svg>
