<?xml version="1.0"?>
<svg xmlns="http://www.w3.org/2000/svg" xmlns:xlink="http://www.w3.org/1999/xlink" aria-hidden="true" width="1em" height="1em" viewBox="0 0 24 24" data-icon="mdi:currency-btc" data-width="1em" data-height="1em" data-inline="false" class="iconify"><path d="M6 4h2V2h2v2h2V2h2v2.03c2.25.25 4 2.15 4 4.47 0 1.3-.55 2.5-1.44 3.3a4.5 4.5 0 0 1 1.94 3.7c0 2.5-2 4.5-4.5 4.5v2h-2v-2h-2v2H8v-2H6l.5-2H8V6H6V4m4 9v5h4a2.5 2.5 0 0 0 0-5h-4m0-7v5h3.5a2.5 2.5 0 0 0 0-5H10z" fill="#646464"/></svg>
