<?xml version="1.0"?>
<svg xmlns="http://www.w3.org/2000/svg" xmlns:xlink="http://www.w3.org/1999/xlink" aria-hidden="true" width="1em" height="1em" viewBox="0 0 24 24" data-icon="mdi:database-plus" data-width="1em" data-height="1em" data-inline="false" class="iconify"><path d="M9 3C4.58 3 1 4.79 1 7s3.58 4 8 4 8-1.79 8-4-3.58-4-8-4M1 9v3c0 2.21 3.58 4 8 4s8-1.79 8-4V9c0 2.21-3.58 4-8 4s-8-1.79-8-4m0 5v3c0 2.21 3.58 4 8 4 1.41 0 2.79-.19 4-.54v-3c-1.21.35-2.59.54-4 .54-4.42 0-8-1.79-8-4m17 0v3h-3v2h3v3h2v-3h3v-2h-3v-3" fill="#646464"/></svg>
