<?xml version="1.0"?>
<svg xmlns="http://www.w3.org/2000/svg" xmlns:xlink="http://www.w3.org/1999/xlink" aria-hidden="true" width="1em" height="1em" viewBox="0 0 24 24" data-icon="mdi:database-lock" data-width="1em" data-height="1em" data-inline="false" class="iconify"><path d="M11 3c4.42 0 8 1.79 8 4s-3.58 4-8 4-8-1.79-8-4 3.58-4 8-4m8 9.03a4.502 4.502 0 0 0-3.87 3.4c-1.21.36-2.63.57-4.13.57-4.42 0-8-1.79-8-4V9c0 2.21 3.58 4 8 4s8-1.79 8-4v3.03m-5 5.68v3c-.93.19-1.94.29-3 .29-4.42 0-8-1.79-8-4v-3c0 2.21 3.58 4 8 4 1.06 0 2.07-.1 3-.29M19.5 14a2.5 2.5 0 0 1 2.5 2.5v.5c.55 0 1 .45 1 1v4c0 .55-.45 1-1 1h-5c-.55 0-1-.45-1-1v-4c0-.55.45-1 1-1v-.5a2.5 2.5 0 0 1 2.5-2.5m0 1c-.83 0-1.5.67-1.5 1.5v.5h3v-.5c0-.83-.67-1.5-1.5-1.5z" fill="#646464"/></svg>
