<?xml version="1.0"?>
<svg xmlns="http://www.w3.org/2000/svg" xmlns:xlink="http://www.w3.org/1999/xlink" aria-hidden="true" width="1em" height="1em" viewBox="0 0 24 24" data-icon="mdi:database-export" data-width="1em" data-height="1em" data-inline="false" class="iconify"><path d="M14.22 19l2.83-2.83L14.93 14H22v7.07L19.88 19l-2.83 2.83L14.22 19m-2.83 0l1-1H12c-4.42 0-8-1.79-8-4v3c0 2.21 3.58 4 8 4 .47 0 .93 0 1.38-.06L11.39 19m5.9-7H20V9c0 1.2-1 2.27-2.71 3M4 9v3c0 2.21 3.58 4 8 4 .67 0 1.34-.04 2-.13L11.07 13C7.09 12.74 4 11.05 4 9m8-6C7.58 3 4 4.79 4 7s3.58 4 8 4 8-1.79 8-4-3.58-4-8-4z" fill="#646464"/></svg>
