<?xml version="1.0"?>
<svg xmlns="http://www.w3.org/2000/svg" xmlns:xlink="http://www.w3.org/1999/xlink" aria-hidden="true" width="1em" height="1em" viewBox="0 0 24 24" data-icon="mdi:database-check" data-width="1em" data-height="1em" data-inline="false" class="iconify"><path d="M13 17.7v3.01c-.95.19-1.97.29-3 .29-4.42 0-8-1.79-8-4v-3c0 2.21 3.58 4 8 4 1.03 0 2.05-.1 3-.3M2 9c0 2.21 3.58 4 8 4s8-1.79 8-4v3c0 2.21-3.58 4-8 4s-8-1.79-8-4V9m8-6c4.42 0 8 1.79 8 4s-3.58 4-8 4-8-1.79-8-4 3.58-4 8-4m13.5 14l-5 5-3.5-3.5 1.5-1.5 2 2 3.5-3.5 1.5 1.5z" fill="#646464"/></svg>
