<?xml version="1.0"?>
<svg xmlns="http://www.w3.org/2000/svg" xmlns:xlink="http://www.w3.org/1999/xlink" aria-hidden="true" width="1em" height="1em" viewBox="0 0 24 24" data-icon="mdi:death-star-variant" data-width="1em" data-height="1em" data-inline="false" class="iconify"><path d="M2.05 13h19.89c-.06.69-.2 1.36-.4 2H14v2h3v2h-2v2h-2.5v1H12c-5.18 0-9.45-3.95-9.95-9m19.89-2H2.05c.5-5.05 4.77-9 9.95-9 1.62 0 3.15.39 4.5 1.08V5h2v2H20v2h1.54c.2.64.34 1.31.4 2M12 6.75a2.5 2.5 0 0 0-5 0 2.5 2.5 0 0 0 5 0z" fill="#646464"/></svg>
