<?xml version="1.0"?>
<svg xmlns="http://www.w3.org/2000/svg" xmlns:xlink="http://www.w3.org/1999/xlink" aria-hidden="true" width="1em" height="1em" viewBox="0 0 24 24" data-icon="mdi:decimal-increase" data-width="1em" data-height="1em" data-inline="false" class="iconify"><path d="M22 17l-3 3v-2h-6v-2h6v-2l3 3M9 5c1.66 0 3 1.34 3 3v3c0 1.66-1.34 3-3 3s-3-1.34-3-3V8c0-1.66 1.34-3 3-3m0 2c-.55 0-1 .45-1 1v3c0 .55.45 1 1 1s1-.45 1-1V8c0-.55-.45-1-1-1m7-2c1.66 0 3 1.34 3 3v3c0 1.66-1.34 3-3 3s-3-1.34-3-3V8c0-1.66 1.34-3 3-3m0 2c-.55 0-1 .45-1 1v3c0 .55.45 1 1 1s1-.45 1-1V8c0-.55-.45-1-1-1M4 12c.55 0 1 .45 1 1s-.45 1-1 1-1-.45-1-1 .45-1 1-1z" fill="#646464"/></svg>
