<?xml version="1.0"?>
<svg xmlns="http://www.w3.org/2000/svg" xmlns:xlink="http://www.w3.org/1999/xlink" aria-hidden="true" width="1em" height="1em" viewBox="0 0 24 24" data-icon="mdi:deskphone" data-width="1em" data-height="1em" data-inline="false" class="iconify"><path d="M5 3h14c1.1 0 2 .9 2 2v14c0 1.1-.9 2-2 2H5c-1.1 0-2-.9-2-2V5c0-1.1.9-2 2-2m10 2v14h4V5h-4M5 5v4h8V5H5m0 6v2h2v-2H5m3 0v2h2v-2H8m3 0v2h2v-2h-2m-6 3v2h2v-2H5m3 0v2h2v-2H8m3 0v2h2v-2h-2m0 3v2h2v-2h-2m-3 0v2h2v-2H8m-3 0v2h2v-2H5z" fill="#646464"/></svg>
