<?xml version="1.0"?>
<svg xmlns="http://www.w3.org/2000/svg" xmlns:xlink="http://www.w3.org/1999/xlink" aria-hidden="true" width="1em" height="1em" viewBox="0 0 24 24" data-icon="mdi:desktop-classic" data-width="1em" data-height="1em" data-inline="false" class="iconify"><path d="M6 2c-1.11 0-2 .89-2 2v8c0 1.11.89 2 2 2h12c1.11 0 2-.89 2-2V4c0-1.11-.89-2-2-2H6m0 2h12v8H6V4M4 15c-1.11 0-2 .89-2 2v3c0 1.11.89 2 2 2h16c1.11 0 2-.89 2-2v-3c0-1.11-.89-2-2-2H4m4 2h12v3H8v-3m1 .75v1.5h4v-1.5H9m6 0v1.5h4v-1.5h-4z" fill="#646464"/></svg>
