<?xml version="1.0"?>
<svg xmlns="http://www.w3.org/2000/svg" xmlns:xlink="http://www.w3.org/1999/xlink" aria-hidden="true" width="1em" height="1em" viewBox="0 0 24 24" data-icon="mdi:desktop-tower-monitor" data-width="1em" data-height="1em" data-inline="false" class="iconify"><path d="M22 18h-5c-.55 0-1-.45-1-1V7c0-.55.45-1 1-1h5c.55 0 1 .45 1 1v10c0 .55-.45 1-1 1m0-10h-5v1h5V8m0 2h-5v1h5v-1M9 15v2h1v1H5v-1h1v-2H2c-.55 0-1-.45-1-1V7c0-.55.45-1 1-1h11c.55 0 1 .45 1 1v7c0 .55-.45 1-1 1H9m3-7H3v5h9V8z" fill="#646464"/></svg>
