<?xml version="1.0"?>
<svg xmlns="http://www.w3.org/2000/svg" xmlns:xlink="http://www.w3.org/1999/xlink" aria-hidden="true" width="1em" height="1em" viewBox="0 0 24 24" data-icon="mdi:dice-d10" data-width="1em" data-height="1em" data-inline="false" class="iconify"><path d="M21.5 10.8c.6.7.6 1.7 0 2.4l-8.3 8.3c-.7.7-1.7.7-2.4 0l-8.3-8.3c-.7-.7-.7-1.7 0-2.4l8.3-8.3c.7-.7 1.7-.7 2.4 0l8.3 8.3M20.3 12L12 3.7 3.7 12l8.3 8.3 8.3-8.3m-9.92 3.79h-1.5V10l-1.8.55V9.32l3.14-1.12h.16v7.59M13.93 8a2.57 2.57 0 0 1 2.57 2.57v2.64a2.57 2.57 0 0 1-2.57 2.57c-1.43 0-2.57-1.15-2.57-2.57v-2.64A2.57 2.57 0 0 1 13.93 8m-.01 1.44c-.59 0-1.06.47-1.06 1.06v2.77c0 .59.47 1.06 1.06 1.06.58 0 1.08-.48 1.08-1.06V10.5c0-.59-.5-1.06-1.08-1.06z" fill="#646464"/></svg>
