<?xml version="1.0"?>
<svg xmlns="http://www.w3.org/2000/svg" xmlns:xlink="http://www.w3.org/1999/xlink" aria-hidden="true" width="1em" height="1em" viewBox="0 0 24 24" data-icon="mdi:dictionary" data-width="1em" data-height="1em" data-inline="false" class="iconify"><path d="M5.81 2C4.83 2.09 4 3 4 4v16c0 1.05.95 2 2 2h12c1.05 0 2-.95 2-2V4a2 2 0 0 0-2-2h-6v7L9.5 7.5 7 9V2H5.81M12 13h1c.55 0 1 .45 1 1v4h-1v-2h-1v2h-1v-4c0-.55.45-1 1-1m0 1v1h1v-1h-1m3 1h3v1l-2 3h2v1h-3v-1l2-3h-2v-1z" fill="#646464"/></svg>
