<?xml version="1.0"?>
<svg xmlns="http://www.w3.org/2000/svg" xmlns:xlink="http://www.w3.org/1999/xlink" aria-hidden="true" width="1em" height="1em" viewBox="0 0 24 24" data-icon="mdi:dip-switch" data-width="1em" data-height="1em" data-inline="false" class="iconify"><path d="M3 4h4c.55 0 1 .45 1 1v14c0 .55-.45 1-1 1H3c-.55 0-1-.45-1-1V5c0-.55.45-1 1-1m7 0h4c.55 0 1 .45 1 1v14c0 .55-.45 1-1 1h-4c-.55 0-1-.45-1-1V5c0-.55.45-1 1-1m7 0h4c.55 0 1 .45 1 1v14c0 .55-.45 1-1 1h-4c-.55 0-1-.45-1-1V5c0-.55.45-1 1-1M4 18h2v-5H4v5m7-7h2V6h-2v5m7 7h2v-5h-2v5z" fill="#646464"/></svg>
