<?xml version="1.0"?>
<svg xmlns="http://www.w3.org/2000/svg" xmlns:xlink="http://www.w3.org/1999/xlink" aria-hidden="true" width="1em" height="1em" viewBox="0 0 24 24" data-icon="mdi:dishwasher" data-width="1em" data-height="1em" data-inline="false" class="iconify"><path d="M14 16c0 .55-.18 1-.57 1.41-.39.39-.87.59-1.43.59-.56 0-1.04-.2-1.43-.59A1.94 1.94 0 0 1 10 16c0-.33.15-.82.5-1.5.3-.66.64-1.25 1-1.75L12 12c1.34 1.94 2 3.27 2 4m3-10c.55 0 1 .45 1 1s-.45 1-1 1-1-.45-1-1 .45-1 1-1M5 3h14c1.1 0 2 .9 2 2v14c0 1.1-.9 2-2 2H5c-1.1 0-2-.9-2-2V5c0-1.1.9-2 2-2m0 2v4h14V5H5m0 6v8h14v-8H5z" fill="#646464"/></svg>
