<?xml version="1.0"?>
<svg xmlns="http://www.w3.org/2000/svg" xmlns:xlink="http://www.w3.org/1999/xlink" aria-hidden="true" width="1em" height="1em" viewBox="0 0 24 24" data-icon="mdi:dns-outline" data-width="1em" data-height="1em" data-inline="false" class="iconify"><path d="M19 15v4H5v-4h14m1-2H4c-.55 0-1 .45-1 1v6c0 .55.45 1 1 1h16c.55 0 1-.45 1-1v-6c0-.55-.45-1-1-1M7 18.5c-.83 0-1.5-.67-1.5-1.5s.67-1.5 1.5-1.5 1.5.67 1.5 1.5-.67 1.5-1.5 1.5M19 5v4H5V5h14m1-2H4c-.55 0-1 .45-1 1v6c0 .55.45 1 1 1h16c.55 0 1-.45 1-1V4c0-.55-.45-1-1-1M7 8.5c-.83 0-1.5-.67-1.5-1.5S6.17 5.5 7 5.5s1.5.67 1.5 1.5S7.83 8.5 7 8.5z" fill="#646464"/></svg>
