<?xml version="1.0"?>
<svg xmlns="http://www.w3.org/2000/svg" xmlns:xlink="http://www.w3.org/1999/xlink" aria-hidden="true" width="1em" height="1em" viewBox="0 0 24 24" data-icon="mdi:do-not-disturb-off" data-width="1em" data-height="1em" data-inline="false" class="iconify"><path d="M17 11v2h-1.46l4.68 4.68A9.92 9.92 0 0 0 22 12c0-5.52-4.48-10-10-10-2.11 0-4.07.66-5.68 1.78L13.54 11H17M2.27 2.27L1 3.54l2.78 2.78A9.92 9.92 0 0 0 2 12c0 5.52 4.48 10 10 10 2.11 0 4.07-.66 5.68-1.78L20.46 23l1.27-1.27L2.27 2.27M7 13v-2h1.46l2 2H7z" fill="#646464"/></svg>
