<?xml version="1.0"?>
<svg xmlns="http://www.w3.org/2000/svg" xmlns:xlink="http://www.w3.org/1999/xlink" aria-hidden="true" width="1em" height="1em" viewBox="0 0 24 24" data-icon="mdi:doctor" data-width="1em" data-height="1em" data-inline="false" class="iconify"><path d="M14.84 16.26C17.86 16.83 20 18.29 20 20v2H4v-2c0-1.71 2.14-3.17 5.16-3.74L12 21l2.84-4.74M8 8h8v2c0 2.21-1.79 4-4 4s-4-1.79-4-4V8m0-1l.41-4.1a1 1 0 0 1 1-.9h5.19c.51 0 .94.39.99.9L16 7H8m4-4h-1v1h-1v1h1v1h1V5h1V4h-1V3z" fill="#646464"/></svg>
