<?xml version="1.0"?>
<svg xmlns="http://www.w3.org/2000/svg" xmlns:xlink="http://www.w3.org/1999/xlink" aria-hidden="true" width="1em" height="1em" viewBox="0 0 24 24" data-icon="mdi:dog-service" data-width="1em" data-height="1em" data-inline="false" class="iconify"><path d="M14 8l3 3v10h-2v-6H8l-2 3v3H4v-6l1-1v-3L2 8l1-1 2 2h2v3c0 .55.45 1 1 1h4c.55 0 1-.45 1-1V9l1-1m5-3V3l-4 4 3 3 1-1 1 1 2-2-3-3m-7.5 4.5l-7-7c-.27-.28-.71-.28-1 0-.28.27-.28.71 0 1l7 7c.27.28.71.28 1 0 .28-.27.28-.71 0-1z" fill="#646464"/></svg>
