<?xml version="1.0"?>
<svg xmlns="http://www.w3.org/2000/svg" xmlns:xlink="http://www.w3.org/1999/xlink" aria-hidden="true" width="1em" height="1em" viewBox="0 0 24 24" data-icon="mdi:donkey" data-width="1em" data-height="1em" data-inline="false" class="iconify"><path d="M21.34 10.35l-.07-.07-.09-.09L18 7V6c0-.28-.22-.5-.5-.5-.14 0-.28.06-.37.16L13.46 9H7c-.68 0-1.31.35-1.68.92l-2.7 2.67c-.33.45-.23 1.07.22 1.41.34.24.81.25 1.16 0l1-.93V19h3v-4h5v4h3v-5.17c0-.53.21-1.04.59-1.41L18 11l2 1c.15.08.32.13.5.13.6-.02 1.09-.52 1.08-1.13-.01-.24-.08-.47-.24-.65z" fill="#646464"/></svg>
