<?xml version="1.0"?>
<svg xmlns="http://www.w3.org/2000/svg" xmlns:xlink="http://www.w3.org/1999/xlink" aria-hidden="true" width="1em" height="1em" viewBox="0 0 24 24" data-icon="mdi:doorbell-video" data-width="1em" data-height="1em" data-inline="false" class="iconify"><path d="M7.97 2C6.86 2 6 2.88 6 4v15.92c0 1.11.86 1.99 1.97 1.99h7.97c1.1 0 1.99-.88 1.99-1.99V4c0-1.12-.89-2-1.99-2H7.97m3.98 3.5c.83 0 1.5.65 1.5 1.47a1.496 1.496 0 0 1-2.99 0c0-.82.67-1.47 1.49-1.47M7.97 9.96h7.97v9.96H7.97V9.96M12 13c-1.1 0-2 .87-2 1.97s.9 2 2 2 2-.9 2-2S13.1 13 12 13z" fill="#646464"/></svg>
