<?xml version="1.0"?>
<svg xmlns="http://www.w3.org/2000/svg" xmlns:xlink="http://www.w3.org/1999/xlink" aria-hidden="true" width="1em" height="1em" viewBox="0 0 24 24" data-icon="mdi:dots-vertical-circle" data-width="1em" data-height="1em" data-inline="false" class="iconify"><path d="M2 12C2 6.48 6.48 2 12 2s10 4.48 10 10-4.48 10-10 10S2 17.52 2 12m8.5 0c0 .83.67 1.5 1.5 1.5s1.5-.67 1.5-1.5-.67-1.5-1.5-1.5-1.5.67-1.5 1.5m0 5.5c0 .83.67 1.5 1.5 1.5s1.5-.67 1.5-1.5S12.83 16 12 16s-1.5.67-1.5 1.5m0-11c0 .83.67 1.5 1.5 1.5s1.5-.67 1.5-1.5S12.83 5 12 5s-1.5.67-1.5 1.5z" fill="#646464"/></svg>
