<?xml version="1.0"?>
<svg xmlns="http://www.w3.org/2000/svg" xmlns:xlink="http://www.w3.org/1999/xlink" aria-hidden="true" width="1em" height="1em" viewBox="0 0 24 24" data-icon="mdi:dots-horizontal-circle-outline" data-width="1em" data-height="1em" data-inline="false" class="iconify"><path d="M12 2c5.52 0 10 4.48 10 10s-4.48 10-10 10S2 17.52 2 12 6.48 2 12 2m0 2c-4.42 0-8 3.58-8 8s3.58 8 8 8 8-3.58 8-8-3.58-8-8-8m0 6.5c.83 0 1.5.67 1.5 1.5s-.67 1.5-1.5 1.5-1.5-.67-1.5-1.5.67-1.5 1.5-1.5m-4.5 0c.83 0 1.5.67 1.5 1.5s-.67 1.5-1.5 1.5S6 12.83 6 12s.67-1.5 1.5-1.5m9 0c.83 0 1.5.67 1.5 1.5s-.67 1.5-1.5 1.5S15 12.83 15 12s.67-1.5 1.5-1.5z" fill="#646464"/></svg>
