<?xml version="1.0"?>
<svg xmlns="http://www.w3.org/2000/svg" xmlns:xlink="http://www.w3.org/1999/xlink" aria-hidden="true" width="1em" height="1em" viewBox="0 0 24 24" data-icon="mdi:drag-variant" data-width="1em" data-height="1em" data-inline="false" class="iconify"><path d="M22.67 12l-4.49 4.5-2.51-2.5 1.98-2-1.98-1.96 2.51-2.51L22.67 12M12 1.33l4.47 4.49-2.51 2.51L12 6.35l-2 1.98-2.5-2.51L12 1.33m0 21.34l-4.47-4.49 2.51-2.51L12 17.65l2-1.98 2.5 2.51-4.5 4.49M1.33 12l4.49-4.5L8.33 10l-1.98 2 1.98 1.96-2.51 2.51L1.33 12M12 10c1.1 0 2 .9 2 2s-.9 2-2 2-2-.9-2-2 .9-2 2-2z" fill="#646464"/></svg>
