<?xml version="1.0"?>
<svg xmlns="http://www.w3.org/2000/svg" xmlns:xlink="http://www.w3.org/1999/xlink" aria-hidden="true" width="1em" height="1em" viewBox="0 0 24 24" data-icon="mdi:drawing-box" data-width="1em" data-height="1em" data-inline="false" class="iconify"><path d="M18 18h-6v-5.79c-.66.61-1.53.99-2.5.99-2.04 0-3.7-1.66-3.7-3.7s1.66-3.7 3.7-3.7 3.7 1.66 3.7 3.7c0 .97-.38 1.84-.99 2.5H18m1-9H5c-1.11 0-2 .89-2 2v14c0 1.1.9 2 2 2h14c1.1 0 2-.9 2-2V5a2 2 0 0 0-2-2z" fill="#646464"/></svg>
