<?xml version="1.0"?>
<svg xmlns="http://www.w3.org/2000/svg" xmlns:xlink="http://www.w3.org/1999/xlink" aria-hidden="true" width="1em" height="1em" viewBox="0 0 24 24" data-icon="mdi:drone" data-width="1em" data-height="1em" data-inline="false" class="iconify"><path d="M22 11h-1l-1-2h-6.25L16 12.5h-2L10.75 9H4c-.55 0-2-.45-2-1s1.5-2.5 3.5-2.5S7.67 6.5 9 7h12c.55 0 1 .45 1 1v3M10.75 6.5L14 3h2l-2.25 3.5h-3M18 11V9.5h1.75L19 11h-1M3 19c-.55 0-1-.45-1-1s.45-1 1-1c2.21 0 4 1.79 4 4 0 .55-.45 1-1 1s-1-.45-1-1c0-1.1-.9-2-2-2m8 2c0 .55-.45 1-1 1s-1-.45-1-1c0-3.31-2.69-6-6-6-.55 0-1-.45-1-1s.45-1 1-1c4.42 0 8 3.58 8 8z" fill="#646464"/></svg>
