<?xml version="1.0"?>
<svg xmlns="http://www.w3.org/2000/svg" xmlns:xlink="http://www.w3.org/1999/xlink" aria-hidden="true" width="1em" height="1em" viewBox="0 0 24 24" data-icon="mdi:duck" data-width="1em" data-height="1em" data-inline="false" class="iconify"><path d="M8.5 5C7.67 5 7 5.67 7 6.5S7.67 8 8.5 8 10 7.33 10 6.5 9.33 5 8.5 5M10 2c2.76 0 5 2.24 5 5 0 1.7-.85 3.2-2.14 4.1 1.58.15 3.36.51 5.14 1.4 3 1.5 4-.5 4-.5s-1 9-7 9H9s-5 0-5-5c0-3 3-4 2-6-4 0-4-3.5-4-3.5 1 .5 2.24.5 3 .15A5.02 5.02 0 0 1 10 2z" fill="#646464"/></svg>
