<?xml version="1.0"?>
<svg xmlns="http://www.w3.org/2000/svg" xmlns:xlink="http://www.w3.org/1999/xlink" aria-hidden="true" width="1em" height="1em" viewBox="0 0 24 24" data-icon="mdi:dumbbell" data-width="1em" data-height="1em" data-inline="false" class="iconify"><path d="M4.22 14.12l-.72-.71a2.01 2.01 0 0 1 0-2.82c.8-.79 2.06-.79 2.84 0l2.58 2.57 4.24-4.24-2.57-2.58c-.79-.78-.79-2.04 0-2.84a2.01 2.01 0 0 1 2.82 0l.71.72 5.66 5.66.72.71c.77.78.77 2.04 0 2.82-.8.79-2.06.79-2.84 0l-2.58-2.57-4.24 4.24 2.57 2.58c.79.78.79 2.04 0 2.84-.78.77-2.04.77-2.82 0l-.71-.72-5.66-5.66m-1.06 5.3l1.06-1.06-1.41-1.41a.996.996 0 1 1 1.41-1.41l4.24 4.24a.996.996 0 1 1-1.41 1.41l-1.41-1.41-1.06 1.06-1.42-1.42M19.42 3.16l1.42 1.42-1.06 1.06 1.41 1.41c.39.39.39 1.02 0 1.41-.39.4-1.02.4-1.41 0l-4.24-4.24a.996.996 0 1 1 1.41-1.41l1.41 1.41 1.06-1.06z" fill="#646464"/></svg>
