<?xml version="1.0"?>
<svg xmlns="http://www.w3.org/2000/svg" xmlns:xlink="http://www.w3.org/1999/xlink" aria-hidden="true" width="1em" height="1em" viewBox="0 0 24 24" data-icon="mdi:earth-box-off" data-width="1em" data-height="1em" data-inline="false" class="iconify"><path d="M23 4.27l-2 2V19c0 1.1-.9 2-2 2H6.27l-2 2L3 21.72 21.72 3 23 4.27M5 3h14.18l-2 2h-1.4c-.11 1-.95 1.79-1.98 1.79h-2v2c0 .56-.45 1-1 1h-2v2h1.58l-1.83 1.83L5 10.29v6.89l-2 2V5c0-1.11.89-2 2-2m6.8 16v-1.21c-.63 0-1.2-.29-1.57-.75L8.27 19h3.53m4-6.21v3h1c.89 0 1.94.59 2.2 1.39V8.27l-3.67 3.67c.28.18.47.49.47.85z" fill="#646464"/></svg>
