<?xml version="1.0"?>
<svg xmlns="http://www.w3.org/2000/svg" xmlns:xlink="http://www.w3.org/1999/xlink" aria-hidden="true" width="1em" height="1em" viewBox="0 0 24 24" data-icon="mdi:earth-box" data-width="1em" data-height="1em" data-inline="false" class="iconify"><path d="M5 3c-1.11 0-2 .89-2 2v14c0 1.1.9 2 2 2h14c1.1 0 2-.9 2-2V5a2 2 0 0 0-2-2H5m10.78 2H19v12.18c-.26-.8-1.31-1.39-2.2-1.39h-1v-3c0-.55-.45-1-1-1h-6v-2h2c.55 0 1-.45 1-1v-2h2c1.03 0 1.87-.79 1.98-1.79M5 10.29l4.8 4.5v1a2 2 0 0 0 2 2V19H5v-8.71z" fill="#646464"/></svg>
