<?xml version="1.0"?>
<svg xmlns="http://www.w3.org/2000/svg" xmlns:xlink="http://www.w3.org/1999/xlink" aria-hidden="true" width="1em" height="1em" viewBox="0 0 24 24" data-icon="mdi:earth" data-width="1em" data-height="1em" data-inline="false" class="iconify"><path d="M17.9 17.39c-.26-.8-1.01-1.39-1.9-1.39h-1v-3c0-.55-.45-1-1-1H8v-2h2c.55 0 1-.45 1-1V7h2c1.1 0 2-.9 2-2v-.41a7.984 7.984 0 0 1 2.9 12.8M11 19.93c-3.95-.49-7-3.85-7-7.93 0-.62.08-1.22.21-1.79L9 15v1c0 1.1.9 2 2 2m1-16C6.48 2 2 6.48 2 12s4.48 10 10 10 10-4.48 10-10S17.52 2 12 2z" fill="#646464"/></svg>
