<?xml version="1.0"?>
<svg xmlns="http://www.w3.org/2000/svg" xmlns:xlink="http://www.w3.org/1999/xlink" aria-hidden="true" width="1em" height="1em" viewBox="0 0 24 24" data-icon="mdi:email-search" data-width="1em" data-height="1em" data-inline="false" class="iconify"><path d="M3 4h16c1.1 0 2 .9 2 2v4.82c-1-.97-2.3-1.59-3.69-1.76L19 8V6l-8 5-8-5v2l7.62 4.76c-.41.86-.62 1.79-.62 2.74a6.5 6.5 0 0 0 1.81 4.5H3c-1.1 0-2-.9-2-2V6c0-1.11.89-2 2-2m13.5 7c2.5 0 4.5 2 4.5 4.5 0 .88-.25 1.71-.69 2.4l3.08 3.1L22 22.39l-3.12-3.07c-.69.43-1.51.68-2.38.68-2.5 0-4.5-2-4.5-4.5s2-4.5 4.5-4.5m0 2a2.5 2.5 0 0 0 0 5 2.5 2.5 0 0 0 0-5z" fill="#646464"/></svg>
