<?xml version="1.0"?>
<svg xmlns="http://www.w3.org/2000/svg" xmlns:xlink="http://www.w3.org/1999/xlink" aria-hidden="true" width="1em" height="1em" viewBox="0 0 24 24" data-icon="mdi:email-lock" data-width="1em" data-height="1em" data-inline="false" class="iconify"><path d="M20.5 0A2.5 2.5 0 0 1 23 2.5V3c.55 0 1 .45 1 1v4c0 .55-.45 1-1 1h-5c-.55 0-1-.45-1-1V4c0-.55.45-1 1-1v-.5A2.5 2.5 0 0 1 20.5 0M12 11L4 6v2l8 5 4.18-2.61c.51.38 1.14.61 1.82.61h4v7c0 1.1-.9 2-2 2H4c-1.1 0-2-.9-2-2V6c0-1.1.9-2 2-2h11v4c0 .36.06.7.18 1L12 11m8.5-10c-.83 0-1.5.67-1.5 1.5V3h3v-.5c0-.83-.67-1.5-1.5-1.5z" fill="#646464"/></svg>
