<?xml version="1.0"?>
<svg xmlns="http://www.w3.org/2000/svg" xmlns:xlink="http://www.w3.org/1999/xlink" aria-hidden="true" width="1em" height="1em" viewBox="0 0 24 24" data-icon="mdi:email-search-outline" data-width="1em" data-height="1em" data-inline="false" class="iconify"><path d="M3 4h16c1.1 0 2 .9 2 2v4.82a6.505 6.505 0 0 0-2-1.32V8.37l-1.22.76A6.11 6.11 0 0 0 16.5 9c-2.64 0-5 1.6-6 4.04L3 8.37V18h7.5c.31.74.76 1.42 1.31 2H3a2 2 0 0 1-2-2V6c0-1.11.89-2 2-2m0 2l8 5 8-5H3m13.5 5c2.5 0 4.5 2 4.5 4.5 0 .88-.25 1.71-.69 2.4l3.08 3.1L22 22.39l-3.12-3.07c-.69.43-1.51.68-2.38.68-2.5 0-4.5-2-4.5-4.5s2-4.5 4.5-4.5m0 2a2.5 2.5 0 0 0 0 5 2.5 2.5 0 0 0 0-5z" fill="#646464"/></svg>
