<?xml version="1.0"?>
<svg xmlns="http://www.w3.org/2000/svg" xmlns:xlink="http://www.w3.org/1999/xlink" aria-hidden="true" width="1em" height="1em" viewBox="0 0 24 24" data-icon="mdi:email-mark-as-unread" data-width="1em" data-height="1em" data-inline="false" class="iconify"><path d="M18.84 7h-2.62L10.5 4 4 7.41V17c-1.1 0-2-.9-2-2V7.17c0-.67.28-1.11.81-1.36L10.5 2l7.55 3.81c.45.28.73.69.79 1.19M7 8h13c1.1 0 2 .9 2 2v9c0 1.1-.9 2-2 2H7c-1.1 0-2-.9-2-2v-9c0-1.1.9-2 2-2m13 3.67V10l-6.5 3.31L7 10v1.67L13.5 15l6.5-3.33z" fill="#646464"/></svg>
