<?xml version="1.0"?>
<svg xmlns="http://www.w3.org/2000/svg" xmlns:xlink="http://www.w3.org/1999/xlink" aria-hidden="true" width="1em" height="1em" viewBox="0 0 24 24" data-icon="mdi:ember" data-width="1em" data-height="1em" data-inline="false" class="iconify"><path d="M22 14.22s-4.39 3.13-7.28 3.17c-2.88.05-2.59-1.83-2.59-1.83s10.58-3.62 7.7-10.77c-1.3-1.84-2.83-2.42-4.94-2.37-2.13.04-4.72 1.34-6.43 5.18-.82 1.84-1.05 3.58-1.22 4.9 0 0-1.92.38-2.92-.46-1-.84-1.55 0-1.55 0s-1.74 2.16-.02 2.83c1.71.67 4.37.95 4.37.95.24 1.18.96 3.18 3.05 4.78 3.13 2.4 9.15-.2 9.15-.2m-7.69-8.07c.13-4.97 3.37-7.15 4.52-6.06 1.12 1.09.71 3.43-1.43 4.89-2.13 1.47-3.09 1.17-3.09 1.17z" fill="#646464"/></svg>
