<?xml version="1.0"?>
<svg xmlns="http://www.w3.org/2000/svg" xmlns:xlink="http://www.w3.org/1999/xlink" aria-hidden="true" width="1em" height="1em" viewBox="0 0 24 24" data-icon="mdi:emoticon" data-width="1em" data-height="1em" data-inline="false" class="iconify"><path d="M12 17.5c2.33 0 4.3-1.46 5.11-3.5H6.89c.8 2.04 2.78 3.5 5.11 3.5M8.5 11c.83 0 1.5-.67 1.5-1.5S9.33 8 8.5 8 7 8.67 7 9.5 7.67 11 8.5 11m7 0c.83 0 1.5-.67 1.5-1.5S16.33 8 15.5 8 14 8.67 14 9.5s.67 1.5 1.5 1.5M12 20c-4.42 0-8-3.58-8-8s3.58-8 8-8 8 3.58 8 8-3.58 8-8 8m0-18C6.47 2 2 6.5 2 12c0 5.52 4.48 10 10 10s10-4.48 10-10S17.52 2 12 2z" fill="#646464"/></svg>
