<?xml version="1.0"?>
<svg xmlns="http://www.w3.org/2000/svg" xmlns:xlink="http://www.w3.org/1999/xlink" aria-hidden="true" width="1em" height="1em" viewBox="0 0 24 24" data-icon="mdi:emoticon-neutral" data-width="1em" data-height="1em" data-inline="false" class="iconify"><path d="M8.5 11C7.67 11 7 10.33 7 9.5S7.67 8 8.5 8s1.5.67 1.5 1.5S9.33 11 8.5 11m7 0c-.83 0-1.5-.67-1.5-1.5S14.67 8 15.5 8s1.5.67 1.5 1.5-.67 1.5-1.5 1.5M12 20c4.42 0 8-3.58 8-8s-3.58-8-8-8-8 3.58-8 8 3.58 8 8 8m0-18c5.52 0 10 4.48 10 10s-4.48 10-10 10C6.47 22 2 17.5 2 12 2 6.48 6.48 2 12 2M9 14h6c.55 0 1 .45 1 1s-.45 1-1 1H9c-.55 0-1-.45-1-1s.45-1 1-1z" fill="#646464"/></svg>
