<?xml version="1.0"?>
<svg xmlns="http://www.w3.org/2000/svg" xmlns:xlink="http://www.w3.org/1999/xlink" aria-hidden="true" width="1em" height="1em" viewBox="0 0 24 24" data-icon="mdi:emoticon-sad" data-width="1em" data-height="1em" data-inline="false" class="iconify"><path d="M20 12c0-4.42-3.58-8-8-8s-8 3.58-8 8 3.58 8 8 8 8-3.58 8-8m2 0c0 5.52-4.48 10-10 10S2 17.52 2 12 6.48 2 12 2s10 4.48 10 10m-6.5-4c.8 0 1.5.7 1.5 1.5s-.7 1.5-1.5 1.5-1.5-.7-1.5-1.5.7-1.5 1.5-1.5M10 9.5c0 .8-.7 1.5-1.5 1.5S7 10.3 7 9.5 7.7 8 8.5 8s1.5.7 1.5 1.5m2 4.5c1.75 0 3.29.72 4.19 1.81l-1.42 1.42C14.32 16.5 13.25 16 12 16s-2.32.5-2.77 1.23l-1.42-1.42C8.71 14.72 10.25 14 12 14z" fill="#646464"/></svg>
