<?xml version="1.0"?>
<svg xmlns="http://www.w3.org/2000/svg" xmlns:xlink="http://www.w3.org/1999/xlink" aria-hidden="true" width="1em" height="1em" viewBox="0 0 24 24" data-icon="mdi:emoticon-tongue" data-width="1em" data-height="1em" data-inline="false" class="iconify"><path d="M9 8c1.1 0 2 .9 2 2 0 .36-.1.71-.27 1-.34-.6-.99-1-1.73-1s-1.39.4-1.73 1c-.17-.29-.27-.64-.27-1 0-1.1.9-2 2-2m6 0c1.1 0 2 .9 2 2 0 .36-.1.71-.27 1-.34-.6-.99-1-1.73-1s-1.39.4-1.73 1c-.17-.29-.27-.64-.27-1 0-1.1.9-2 2-2m-3 12c4.42 0 8-3.58 8-8s-3.58-8-8-8-8 3.58-8 8 3.58 8 8 8m0-18c5.52 0 10 4.48 10 10s-4.48 10-10 10C6.47 22 2 17.5 2 12 2 6.48 6.48 2 12 2M9 13h6c.55 0 1 .45 1 1s-.45 1-1 1c0 2-.9 3-2 3s-2-1-2-3H9c-.55 0-1-.45-1-1s.45-1 1-1z" fill="#646464"/></svg>
