<?xml version="1.0"?>
<svg xmlns="http://www.w3.org/2000/svg" xmlns:xlink="http://www.w3.org/1999/xlink" aria-hidden="true" width="1em" height="1em" viewBox="0 0 24 24" data-icon="mdi:emoticon-excited" data-width="1em" data-height="1em" data-inline="false" class="iconify"><path d="M12 2C6.47 2 2 6.47 2 12s4.47 10 10 10c5.52 0 10-4.48 10-10 0-5.53-4.5-10-10-10m0 18c-4.42 0-8-3.58-8-8s3.58-8 8-8 8 3.58 8 8-3.58 8-8 8m1-10.06L14.06 11l1.06-1.06L16.18 11l1.06-1.06-2.12-2.12L13 9.94m-4.12 0L9.94 11 11 9.94 8.88 7.82 6.76 9.94 7.82 11l1.06-1.06M12 17.5c2.33 0 4.31-1.46 5.11-3.5H6.89c.8 2.04 2.78 3.5 5.11 3.5z" fill="#646464"/></svg>
