<?xml version="1.0"?>
<svg xmlns="http://www.w3.org/2000/svg" xmlns:xlink="http://www.w3.org/1999/xlink" aria-hidden="true" width="1em" height="1em" viewBox="0 0 24 24" data-icon="mdi:escalator" data-width="1em" data-height="1em" data-inline="false" class="iconify"><path d="M20 8h-1.05l-12 12H4c-1.1 0-2-.9-2-2s.9-2 2-2h1.29L7 14.29V10c0-.55.45-1 1-1h1c.55 0 1 .45 1 1v1.29L17.29 4H20c1.1 0 2 .9 2 2s-.9 2-2 2M8.5 5c.83 0 1.5.67 1.5 1.5S9.33 8 8.5 8 7 7.33 7 6.5 7.67 5 8.5 5z" fill="#646464"/></svg>
