<?xml version="1.0"?>
<svg xmlns="http://www.w3.org/2000/svg" xmlns:xlink="http://www.w3.org/1999/xlink" aria-hidden="true" width="1em" height="1em" viewBox="0 0 24 24" data-icon="mdi:eye-off" data-width="1em" data-height="1em" data-inline="false" class="iconify"><path d="M11.83 9L15 12.16V12c0-1.66-1.34-3-3-3h-.17m-4.3.8l1.55 1.55c-.05.21-.08.42-.08.65 0 1.66 1.34 3 3 3 .22 0 .44-.03.65-.08l1.55 1.55c-.67.33-1.41.53-2.2.53-2.76 0-5-2.24-5-5 0-.79.2-1.53.53-2.2M2 4.27l2.28 2.28.45.45C3.08 8.3 1.78 10 1 12c1.73 4.39 6 7.5 11 7.5 1.55 0 3.03-.3 4.38-.84l.43.42L19.73 22 21 20.73 3.27 3M12 7c2.76 0 5 2.24 5 5 0 .64-.13 1.26-.36 1.82l2.93 2.93c1.5-1.25 2.7-2.89 3.43-4.75-1.73-4.39-6-7.5-11-7.5-1.4 0-2.74.25-4 .7l2.17 2.15C10.74 7.13 11.35 7 12 7z" fill="#646464"/></svg>
