<?xml version="1.0"?>
<svg xmlns="http://www.w3.org/2000/svg" xmlns:xlink="http://www.w3.org/1999/xlink" aria-hidden="true" width="1em" height="1em" viewBox="0 0 24 24" data-icon="mdi:eye-settings" data-width="1em" data-height="1em" data-inline="false" class="iconify"><path d="M12 9c-1.66 0-3 1.34-3 3s1.34 3 3 3 3-1.34 3-3-1.34-3-3-3m0 8c-2.76 0-5-2.24-5-5s2.24-5 5-5 5 2.24 5 5-2.24 5-5 5m0-12.5c-4.86 0-9.22 3-11 7.5 2.39 6.08 9.25 9.06 15.33 6.67 3.05-1.2 5.47-3.61 6.67-6.67-1.78-4.5-6.14-7.5-11-7.5M7 22h2v2H7v-2m4 0h2v2h-2v-2m4 0h2v2h-2v-2z" fill="#646464"/></svg>
