<?xml version="1.0"?>
<svg xmlns="http://www.w3.org/2000/svg" xmlns:xlink="http://www.w3.org/1999/xlink" aria-hidden="true" width="1em" height="1em" viewBox="0 0 24 24" data-icon="mdi:eye-outline" data-width="1em" data-height="1em" data-inline="false" class="iconify"><path d="M12 9c1.66 0 3 1.34 3 3s-1.34 3-3 3-3-1.34-3-3 1.34-3 3-3m0-4.5c5 0 9.27 3.11 11 7.5-1.73 4.39-6 7.5-11 7.5S2.73 16.39 1 12c1.73-4.39 6-7.5 11-7.5M3.18 12a9.821 9.821 0 0 0 17.64 0 9.821 9.821 0 0 0-17.64 0z" fill="#646464"/></svg>
