<?xml version="1.0"?>
<svg xmlns="http://www.w3.org/2000/svg" xmlns:xlink="http://www.w3.org/1999/xlink" aria-hidden="true" width="1em" height="1em" viewBox="0 0 24 24" data-icon="mdi:eye-circle" data-width="1em" data-height="1em" data-inline="false" class="iconify"><path d="M12 9.5a2.5 2.5 0 0 0 0 5 2.5 2.5 0 0 0 0-5m0 3.5c-.55 0-1-.45-1-1s.45-1 1-1 1 .45 1 1-.45 1-1 1m0-3.5a2.5 2.5 0 0 0 0 5 2.5 2.5 0 0 0 0-5m0 3.5c-.55 0-1-.45-1-1s.45-1 1-1 1 .45 1 1-.45 1-1 1m0-11C6.48 2 2 6.48 2 12s4.48 10 10 10 10-4.48 10-10S17.52 2 12 2m0 14c-2.63 0-5-1.57-6-4a6.505 6.505 0 0 1 8.5-3.5A6.52 6.52 0 0 1 18 12c-1 2.43-3.37 4-6 4m0-6.5a2.5 2.5 0 0 0 0 5 2.5 2.5 0 0 0 0-5m0 3.5c-.55 0-1-.45-1-1s.45-1 1-1 1 .45 1 1-.45 1-1 1z" fill="#646464"/></svg>
