<?xml version="1.0"?>
<svg xmlns="http://www.w3.org/2000/svg" xmlns:xlink="http://www.w3.org/1999/xlink" aria-hidden="true" width="1em" height="1em" viewBox="0 0 24 24" data-icon="mdi:eye-settings-outline" data-width="1em" data-height="1em" data-inline="false" class="iconify"><path d="M12 9c1.66 0 3 1.34 3 3s-1.34 3-3 3-3-1.34-3-3 1.34-3 3-3m0-4.5c4.86 0 9.22 3 11 7.5-2.39 6.08-9.25 9.06-15.33 6.67C4.62 17.47 2.2 15.06 1 12c1.78-4.5 6.14-7.5 11-7.5M3.18 12c2.38 4.87 8.27 6.89 13.14 4.5a9.811 9.811 0 0 0 4.5-4.5c-2.38-4.87-8.27-6.89-13.14-4.5a9.811 9.811 0 0 0-4.5 4.5M9 22H7v2h2v-2m4 0h-2v2h2v-2m4 0h-2v2h2v-2z" fill="#646464"/></svg>
