<?xml version="1.0"?>
<svg xmlns="http://www.w3.org/2000/svg" xmlns:xlink="http://www.w3.org/1999/xlink" aria-hidden="true" width="1em" height="1em" viewBox="0 0 24 24" data-icon="mdi:face-profile" data-width="1em" data-height="1em" data-inline="false" class="iconify"><path d="M12 2C6.48 2 2 6.48 2 12s4.48 10 10 10 10-4.48 10-10S17.52 2 12 2m0 6.39A9.973 9.973 0 0 0 17.42 10c.78 0 1.53-.09 2.25-.26.21.71.33 1.47.33 2.26 0 4.41-3.59 8-8 8-3 0-5.61-1.66-7-4.11L6.75 14v-1a1.25 1.25 0 0 1 2.5 0v1H12m4-2.25a1.25 1.25 0 1 0 0 2.5 1.25 1.25 0 0 0 0-2.5z" fill="#646464"/></svg>
