<?xml version="1.0"?>
<svg xmlns="http://www.w3.org/2000/svg" xmlns:xlink="http://www.w3.org/1999/xlink" aria-hidden="true" width="1em" height="1em" viewBox="0 0 24 24" data-icon="mdi:face-outline" data-width="1em" data-height="1em" data-inline="false" class="iconify"><path d="M10.25 13a1.25 1.25 0 1 1-2.5 0 1.25 1.25 0 0 1 2.5 0M15 11.75a1.25 1.25 0 1 0 0 2.5 1.25 1.25 0 0 0 0-2.5m7 .25c0 5.52-4.48 10-10 10S2 17.52 2 12 6.48 2 12 2s10 4.48 10 10M10.66 4.12C12.06 6.44 14.6 8 17.5 8c.46 0 .91-.05 1.34-.12C17.44 5.56 14.9 4 12 4c-.46 0-.91.05-1.34.12M4.42 9.47a8.046 8.046 0 0 0 3.66-4.44 8.046 8.046 0 0 0-3.66 4.44M20 12c0-.78-.12-1.53-.33-2.24-.7.15-1.42.24-2.17.24a10 10 0 0 1-7.76-3.69A10.016 10.016 0 0 1 4 11.86V12c0 4.41 3.59 8 8 8s8-3.59 8-8z" fill="#646464"/></svg>
