<?xml version="1.0"?>
<svg xmlns="http://www.w3.org/2000/svg" xmlns:xlink="http://www.w3.org/1999/xlink" aria-hidden="true" width="1em" height="1em" viewBox="0 0 24 24" data-icon="mdi:fax" data-width="1em" data-height="1em" data-inline="false" class="iconify"><path d="M11 6h5v2h-5V6M8 9V3h11v6c1.66 0 3 1.34 3 3v6h-3v3H8v-3H7V9h1m2-4v4h7V5h-7m0 10v4h7v-4h-7m9-4c-.55 0-1 .45-1 1s.45 1 1 1 1-.45 1-1-.45-1-1-1M4 9h1c.55 0 1 .45 1 1v7c0 .55-.45 1-1 1H4c-1.1 0-2-.9-2-2v-5c0-1.1.9-2 2-2z" fill="#646464"/></svg>
