<?xml version="1.0"?>
<svg xmlns="http://www.w3.org/2000/svg" xmlns:xlink="http://www.w3.org/1999/xlink" aria-hidden="true" width="1em" height="1em" viewBox="0 0 24 24" data-icon="mdi:ferry" data-width="1em" data-height="1em" data-inline="false" class="iconify"><path d="M6 6h12v3.96L12 8 6 9.96M3.94 19H4c1.6 0 3-.88 4-2 1 1.12 2.4 2 4 2s3-.88 4-2c1 1.12 2.4 2 4 2h.05l1.9-6.69c.08-.25.05-.53-.06-.77-.13-.24-.34-.42-.6-.5L20 10.62V6a2 2 0 0 0-2-2h-3V1H9v3H6c-1.1 0-2 .9-2 2v4.62l-1.29.42c-.26.08-.47.26-.6.5-.11.24-.14.52-.06.77M20 21c-1.39 0-2.78-.47-4-1.33-2.44 1.71-5.56 1.71-8 0C6.78 20.53 5.39 21 4 21H2v2h2c1.37 0 2.74-.35 4-1 2.5 1.3 5.5 1.3 8 0 1.26.65 2.62 1 4 1h2v-2h-2z" fill="#646464"/></svg>
