<?xml version="1.0"?>
<svg xmlns="http://www.w3.org/2000/svg" xmlns:xlink="http://www.w3.org/1999/xlink" aria-hidden="true" width="1em" height="1em" viewBox="0 0 24 24" data-icon="mdi:file-question" data-width="1em" data-height="1em" data-inline="false" class="iconify"><path d="M6 2c-1.11 0-2 .89-2 2v16c0 1.1.9 2 2 2h12c1.1 0 2-.9 2-2V8l-6-6H6m7 1.5L18.5 9H13V3.5M12 11c1.66 0 3 1.34 3 3 0 1.88-2.25 2.06-2.25 3.75h-1.5c0-2.44 2.25-2.25 2.25-3.75 0-.83-.67-1.5-1.5-1.5s-1.5.67-1.5 1.5H9c0-1.66 1.34-3 3-3m-.75 7.5h1.5V20h-1.5v-1.5z" fill="#646464"/></svg>
