<?xml version="1.0"?>
<svg xmlns="http://www.w3.org/2000/svg" xmlns:xlink="http://www.w3.org/1999/xlink" aria-hidden="true" width="1em" height="1em" viewBox="0 0 24 24" data-icon="mdi:file-powerpoint-box" data-width="1em" data-height="1em" data-inline="false" class="iconify"><path d="M9.8 13.4h2.5c1.5 0 2.16-.28 2.8-.82.64-.55.9-1.33.9-2.35 0-.97-.25-1.73-.9-2.35-.65-.59-1.27-.88-2.8-.88H8v10h1.8v-3.6M19 3c1.1 0 2 .9 2 2v14c0 1.1-.9 2-2 2H5c-1.1 0-2-.9-2-2V5a2 2 0 0 1 2-2h14m-9.2 9V8.4h2.3c.66 0 1.17.25 1.5.6.33.35.5.72.5 1.24 0 .56-.18.95-.5 1.26-.32.31-.7.5-1.38.5H9.8z" fill="#646464"/></svg>
