<?xml version="1.0"?>
<svg xmlns="http://www.w3.org/2000/svg" xmlns:xlink="http://www.w3.org/1999/xlink" aria-hidden="true" width="1em" height="1em" viewBox="0 0 24 24" data-icon="mdi:file-cloud" data-width="1em" data-height="1em" data-inline="false" class="iconify"><path d="M13 9h5.5L13 3.5V9M6 2h8l6 6v12c0 1.1-.9 2-2 2H6a2 2 0 0 1-2-2V4c0-1.11.89-2 2-2m9.68 13a3.758 3.758 0 0 0-7-1A3.028 3.028 0 0 0 6 17c0 1.66 1.34 3 3 3h6.5a2.5 2.5 0 0 0 2.5-2.5c0-1.32-1.03-2.39-2.32-2.5z" fill="#646464"/></svg>
