<?xml version="1.0"?>
<svg xmlns="http://www.w3.org/2000/svg" xmlns:xlink="http://www.w3.org/1999/xlink" aria-hidden="true" width="1em" height="1em" viewBox="0 0 24 24" data-icon="mdi:file-find" data-width="1em" data-height="1em" data-inline="false" class="iconify"><path d="M9 13c0 1.66 1.34 3 3 3s3-1.34 3-3-1.34-3-3-3-3 1.34-3 3m11 6.59V8l-6-6H6c-1.1 0-2 .9-2 2v16c0 1.1.9 2 2 2h12c.45 0 .85-.15 1.19-.4l-4.43-4.43c-.8.52-1.76.83-2.76.83-2.76 0-5-2.24-5-5s2.24-5 5-5 5 2.24 5 5c0 1-.31 1.96-.83 2.75L20 19.59z" fill="#646464"/></svg>
