<?xml version="1.0"?>
<svg xmlns="http://www.w3.org/2000/svg" xmlns:xlink="http://www.w3.org/1999/xlink" aria-hidden="true" width="1em" height="1em" viewBox="0 0 24 24" data-icon="mdi:file-percent" data-width="1em" data-height="1em" data-inline="false" class="iconify"><path d="M14 2l6 6v12c0 1.1-.9 2-2 2H6c-1.1 0-2-.9-2-2V4c0-1.1.9-2 2-2h8M7.37 20L15 12.35 13.65 11 6 18.65 7.37 20M13 9h5.5L13 3.5V9m-5.5 2c-.83 0-1.5.67-1.5 1.5S6.67 14 7.5 14 9 13.33 9 12.5 8.33 11 7.5 11m6 6c-.83 0-1.5.67-1.5 1.5s.67 1.5 1.5 1.5 1.5-.67 1.5-1.5-.67-1.5-1.5-1.5z" fill="#646464"/></svg>
