<?xml version="1.0"?>
<svg xmlns="http://www.w3.org/2000/svg" xmlns:xlink="http://www.w3.org/1999/xlink" aria-hidden="true" width="1em" height="1em" viewBox="0 0 24 24" data-icon="mdi:film" data-width="1em" data-height="1em" data-inline="false" class="iconify"><path d="M3.5 3H5V1.8c0-.44.36-.8.8-.8h4.4c.44 0 .8.36.8.8V3h1.5c.83 0 1.5.67 1.5 1.5V5h8v15h-8v.5c0 .83-.67 1.5-1.5 1.5h-9c-.83 0-1.5-.67-1.5-1.5v-16C2 3.67 2.67 3 3.5 3M18 7v2h2V7h-2m-4 0v2h2V7h-2m-4 0v2h2V7h-2m4 9v2h2v-2h-2m4 0v2h2v-2h-2m-8 0v2h2v-2h-2z" fill="#646464"/></svg>
