<?xml version="1.0"?>
<svg xmlns="http://www.w3.org/2000/svg" xmlns:xlink="http://www.w3.org/1999/xlink" aria-hidden="true" width="1em" height="1em" viewBox="0 0 24 24" data-icon="mdi:fire" data-width="1em" data-height="1em" data-inline="false" class="iconify"><path d="M11.71 19c-1.78 0-3.21-1.41-3.21-3.14 0-1.62 1.03-2.76 2.8-3.12 1.77-.36 3.6-1.21 4.62-2.58.39 1.29.58 2.65.58 4.04 0 2.64-2.14 4.8-4.79 4.8M13.5.67s.74 2.65.74 4.8c0 2.06-1.35 3.73-3.41 3.73-2.07 0-3.63-1.67-3.63-3.73l.03-.37C5.21 7.5 4 10.61 4 14c0 4.42 3.58 8 8 8s8-3.58 8-8C20 8.6 17.41 3.8 13.5.67z" fill="#646464"/></svg>
