<?xml version="1.0"?>
<svg xmlns="http://www.w3.org/2000/svg" xmlns:xlink="http://www.w3.org/1999/xlink" aria-hidden="true" width="1em" height="1em" viewBox="0 0 24 24" data-icon="mdi:firebase" data-width="1em" data-height="1em" data-inline="false" class="iconify"><path d="M20 18.69l-7.3 4.05c-.5.26-1 .26-1.5 0L4 18.69 17.05 5.54l.35-.1c.3 0 .47.13.5.4L20 18.69M9.35 5.74L4.8 13.29 6.7 1.34c.03-.27.2-.4.5-.4.2 0 .33.06.4.25l2.15 3.95-.4.6M13.85 7L4.3 16.59l7.25-12.3c.1-.2.25-.29.45-.29s.33.09.4.29L13.85 7z" fill="#646464"/></svg>
