<?xml version="1.0"?>
<svg xmlns="http://www.w3.org/2000/svg" xmlns:xlink="http://www.w3.org/1999/xlink" aria-hidden="true" width="1em" height="1em" viewBox="0 0 24 24" data-icon="mdi:flag-variant-outline" data-width="1em" data-height="1em" data-inline="false" class="iconify"><path d="M6 3c.55 0 1 .45 1 1v.88C8.06 4.44 9.5 4 11 4c3 0 3 2 5 2 3 0 4-2 4-2v8s-1 2-4 2-3-2-5-2c-3 0-4 2-4 2v7H5V4c0-.55.45-1 1-1m1 4.25v4.25S9 10 11 10s3 2 5 2 2-1 2-1V7.5S17 8 16 8c-2 0-3-2-5-2S7 7.25 7 7.25z" fill="#646464"/></svg>
