<?xml version="1.0"?>
<svg xmlns="http://www.w3.org/2000/svg" xmlns:xlink="http://www.w3.org/1999/xlink" aria-hidden="true" width="1em" height="1em" viewBox="0 0 24 24" data-icon="mdi:flask" data-width="1em" data-height="1em" data-inline="false" class="iconify"><path d="M6 22c-1.66 0-3-1.34-3-3 0-.6.18-1.16.5-1.63L9 7.81V6c-.55 0-1-.45-1-1V4c0-1.1.9-2 2-2h4c1.1 0 2 .9 2 2v1c0 .55-.45 1-1 1v1.81l5.5 9.56c.32.47.5 1.03.5 1.63 0 1.66-1.34 3-3 3H6m-1-3c0 .55.45 1 1 1h12c.55 0 1-.45 1-1 0-.21-.07-.41-.18-.57l-2.29-3.96L14 17l-5.07-5.07-3.75 6.5c-.11.16-.18.36-.18.57m8-9c-.55 0-1 .45-1 1s.45 1 1 1 1-.45 1-1-.45-1-1-1z" fill="#646464"/></svg>
