<?xml version="1.0"?>
<svg xmlns="http://www.w3.org/2000/svg" xmlns:xlink="http://www.w3.org/1999/xlink" aria-hidden="true" width="1em" height="1em" viewBox="0 0 24 24" data-icon="mdi:flask-outline" data-width="1em" data-height="1em" data-inline="false" class="iconify"><path d="M5 19c0 .55.45 1 1 1h12c.55 0 1-.45 1-1 0-.21-.07-.41-.18-.57L13 8.35V4h-2v4.35L5.18 18.43c-.11.16-.18.36-.18.57m1 3c-1.66 0-3-1.34-3-3 0-.6.18-1.16.5-1.63L9 7.81V6c-.55 0-1-.45-1-1V4c0-1.1.9-2 2-2h4c1.1 0 2 .9 2 2v1c0 .55-.45 1-1 1v1.81l5.5 9.56c.32.47.5 1.03.5 1.63 0 1.66-1.34 3-3 3H6m7-6l1.34-1.34L16.27 18H7.73l2.66-4.61L13 16m-.5-4c.28 0 .5.22.5.5s-.22.5-.5.5-.5-.22-.5-.5.22-.5.5-.5z" fill="#646464"/></svg>
