<?xml version="1.0"?>
<svg xmlns="http://www.w3.org/2000/svg" xmlns:xlink="http://www.w3.org/1999/xlink" aria-hidden="true" width="1em" height="1em" viewBox="0 0 24 24" data-icon="mdi:flip-to-back" data-width="1em" data-height="1em" data-inline="false" class="iconify"><path d="M15 17h2v-2h-2m0-10h2V3h-2M5 7H3v12c0 1.1.9 2 2 2h12v-2H5m14-2c1.1 0 2-.9 2-2h-2m0-6h2V7h-2m0 6h2v-2h-2M9 17v-2H7c0 1.1.9 2 2 2m4-14h-2v2h2m6-2v2h2a2 2 0 0 0-2-2m-6 12h-2v2h2M9 3c-1.11 0-2 .89-2 2h2m0 6H7v2h2m0-6H7v2h2V7z" fill="#646464"/></svg>
