<?xml version="1.0"?>
<svg xmlns="http://www.w3.org/2000/svg" xmlns:xlink="http://www.w3.org/1999/xlink" aria-hidden="true" width="1em" height="1em" viewBox="0 0 24 24" data-icon="mdi:flower-tulip" data-width="1em" data-height="1em" data-inline="false" class="iconify"><path d="M3 13a9 9 0 0 0 9 9 9 9 0 0 0-9-9m9 9a9 9 0 0 0 9-9 9 9 0 0 0-9 9m6-19v5c0 3.31-2.69 6-6 6s-6-2.69-6-6V3c.74 0 1.47.12 2.16.39.55.23 1.04.57 1.45 1L12 2l2.39 2.39c.41-.43.9-.77 1.45-1A5.9 5.9 0 0 1 18 3z" fill="#646464"/></svg>
