<?xml version="1.0"?>
<svg xmlns="http://www.w3.org/2000/svg" xmlns:xlink="http://www.w3.org/1999/xlink" aria-hidden="true" width="1em" height="1em" viewBox="0 0 24 24" data-icon="mdi:flower-tulip-outline" data-width="1em" data-height="1em" data-inline="false" class="iconify"><path d="M3 13a9 9 0 0 0 9 9 9 9 0 0 0-9-9m2.44 2.44c1.91.71 3.41 2.21 4.12 4.12a6.986 6.986 0 0 1-4.12-4.12M12 22a9 9 0 0 0 9-9 9 9 0 0 0-9 9m2.42-2.43a6.876 6.876 0 0 1 4.15-4.15 7.03 7.03 0 0 1-4.15 4.15M12 14c3.31 0 6-2.69 6-6V3a5.9 5.9 0 0 0-2.16.39c-.55.23-1.04.57-1.45 1L12 2 9.61 4.39c-.41-.43-.9-.77-1.45-1A5.9 5.9 0 0 0 6 3v5c0 3.31 2.69 6 6 6M8 5.61l1.57 1.65L12 4.83l2.43 2.43L16 5.61V8c0 2.21-1.79 4-4 4s-4-1.79-4-4V5.61z" fill="#646464"/></svg>
