<?xml version="1.0"?>
<svg xmlns="http://www.w3.org/2000/svg" xmlns:xlink="http://www.w3.org/1999/xlink" aria-hidden="true" width="1em" height="1em" viewBox="0 0 24 24" data-icon="mdi:flower" data-width="1em" data-height="1em" data-inline="false" class="iconify"><path d="M3 13a9 9 0 0 0 9 9c0-5-4.03-9-9-9m9-7.5a2.5 2.5 0 0 1 0 5 2.5 2.5 0 0 1 0-5m-6.4 4.75a2.5 2.5 0 0 0 2.5 2.5c.53 0 1.02-.17 1.4-.44v.19a2.5 2.5 0 0 0 5 0v-.19c.38.27.87.44 1.4.44a2.5 2.5 0 0 0 2.5-2.5c0-1-.59-1.85-1.43-2.25.84-.4 1.43-1.26 1.43-2.25a2.5 2.5 0 0 0-2.5-2.5c-.53 0-1.02.16-1.4.44V3.5a2.5 2.5 0 0 0-5 0v.19c-.38-.28-.87-.44-1.4-.44a2.5 2.5 0 0 0-2.5 2.5c0 .99.59 1.85 1.43 2.25-.84.4-1.43 1.25-1.43 2.25M12 22a9 9 0 0 0 9-9c-5 0-9 4-9 9z" fill="#646464"/></svg>
