<?xml version="1.0"?>
<svg xmlns="http://www.w3.org/2000/svg" xmlns:xlink="http://www.w3.org/1999/xlink" aria-hidden="true" width="1em" height="1em" viewBox="0 0 24 24" data-icon="mdi:folder-remove-outline" data-width="1em" data-height="1em" data-inline="false" class="iconify"><path d="M11.46 10.88l1.42-1.42L15 11.59l2.12-2.13 1.42 1.42L16.41 13l2.13 2.12-1.42 1.42L15 14.41l-2.12 2.13-1.42-1.42L13.59 13l-2.13-2.12M20 6c1.1 0 2 .9 2 2v10c0 1.1-.9 2-2 2H4c-1.1 0-2-.9-2-2V6c0-1.1.9-2 2-2h6l2 2h8m0 12V8h-8.83l-2-2H4v12h16z" fill="#646464"/></svg>
