<?xml version="1.0"?>
<svg xmlns="http://www.w3.org/2000/svg" xmlns:xlink="http://www.w3.org/1999/xlink" aria-hidden="true" width="1em" height="1em" viewBox="0 0 24 24" data-icon="mdi:folder-key" data-width="1em" data-height="1em" data-inline="false" class="iconify"><path d="M4 4c-1.1 0-2 .9-2 2v12c0 1.1.9 2 2 2h16c1.1 0 2-.9 2-2V8c0-1.1-.9-2-2-2h-8l-2-2m1 6c1.31 0 2.42.84 2.83 2H19v2h-1v2h-2v-2h-2.17A2.99 2.99 0 0 1 11 16c-1.66 0-3-1.34-3-3s1.34-3 3-3m0 2c-.55 0-1 .45-1 1 0 .56.45 1 1 1s1-.45 1-1-.45-1-1-1z" fill="#646464"/></svg>
