<?xml version="1.0"?>
<svg xmlns="http://www.w3.org/2000/svg" xmlns:xlink="http://www.w3.org/1999/xlink" aria-hidden="true" width="1em" height="1em" viewBox="0 0 24 24" data-icon="mdi:folder-clock" data-width="1em" data-height="1em" data-inline="false" class="iconify"><path d="M3 4c-1.11 0-2 .89-2 2v12c0 1.1.9 2 2 2h7.26c1.31 1.88 3.45 3 5.74 3a6.995 6.995 0 0 0 5-11.89V8a2 2 0 0 0-2-2h-8L9 4H3m13 7c2.76 0 5 2.24 5 5s-2.24 5-5 5-5-2.24-5-5 2.24-5 5-5m-1 1v5l3.61 2.16.75-1.22-2.86-1.69V12H15z" fill="#646464"/></svg>
