<?xml version="1.0"?>
<svg xmlns="http://www.w3.org/2000/svg" xmlns:xlink="http://www.w3.org/1999/xlink" aria-hidden="true" width="1em" height="1em" viewBox="0 0 24 24" data-icon="mdi:folder-search-outline" data-width="1em" data-height="1em" data-inline="false" class="iconify"><path d="M16.5 12c2.5 0 4.5 2 4.5 4.5 0 .88-.25 1.71-.69 2.4l3.08 3.1L22 23.39l-3.12-3.07c-.69.43-1.51.68-2.38.68-2.5 0-4.5-2-4.5-4.5s2-4.5 4.5-4.5m0 2a2.5 2.5 0 0 0 0 5 2.5 2.5 0 0 0 0-5M19 8H3v10h7.17c.17.72.46 1.39.83 2H3a2 2 0 0 1-2-2V6c0-1.11.89-2 2-2h6l2 2h8c1.1 0 2 .9 2 2v3.81c-.58-.55-1.25-1-2-1.31V8z" fill="#646464"/></svg>
