<?xml version="1.0"?>
<svg xmlns="http://www.w3.org/2000/svg" xmlns:xlink="http://www.w3.org/1999/xlink" aria-hidden="true" width="1em" height="1em" viewBox="0 0 24 24" data-icon="mdi:folder-account-outline" data-width="1em" data-height="1em" data-inline="false" class="iconify"><path d="M19 17h-8v-1c0-1.33 2.67-2 4-2s4 .67 4 2v1m-4-8c1.1 0 2 .9 2 2s-.9 2-2 2-2-.9-2-2a2 2 0 0 1 2-2m5-3c1.1 0 2 .9 2 2v10c0 1.1-.9 2-2 2H4c-1.1 0-2-.9-2-2V6c0-1.1.9-2 2-2h6l2 2h8m0 12V8h-8.83l-2-2H4v12h16z" fill="#646464"/></svg>
