<?xml version="1.0"?>
<svg xmlns="http://www.w3.org/2000/svg" xmlns:xlink="http://www.w3.org/1999/xlink" aria-hidden="true" width="1em" height="1em" viewBox="0 0 24 24" data-icon="mdi:folder-remove" data-width="1em" data-height="1em" data-inline="false" class="iconify"><path d="M10 4l2 2h8c1.1 0 2 .9 2 2v10c0 1.1-.9 2-2 2H4a2 2 0 0 1-2-2V6c0-1.11.89-2 2-2h6m2.46 6.88L14.59 13l-2.13 2.12 1.42 1.42L16 14.41l2.12 2.13 1.42-1.42L17.41 13l2.13-2.12-1.42-1.42L16 11.59l-2.12-2.13-1.42 1.42z" fill="#646464"/></svg>
