<?xml version="1.0"?>
<svg xmlns="http://www.w3.org/2000/svg" xmlns:xlink="http://www.w3.org/1999/xlink" aria-hidden="true" width="1em" height="1em" viewBox="0 0 24 24" data-icon="mdi:folder-edit" data-width="1em" data-height="1em" data-inline="false" class="iconify"><path d="M3 4c-1.11 0-2 .89-2 2v12c0 1.1.9 2 2 2h8v-1.89l10-10V8a2 2 0 0 0-2-2h-8L9 4H3m18.04 7.13c-.14 0-.28.06-.39.17l-1 1 2.05 2.05 1-1c.22-.21.22-.56 0-.77l-1.28-1.28a.533.533 0 0 0-.38-.17m-1.97 1.75L13 18.94V21h2.06l6.06-6.07-2.05-2.05z" fill="#646464"/></svg>
