<?xml version="1.0"?>
<svg xmlns="http://www.w3.org/2000/svg" xmlns:xlink="http://www.w3.org/1999/xlink" aria-hidden="true" width="1em" height="1em" viewBox="0 0 24 24" data-icon="mdi:folder-google-drive" data-width="1em" data-height="1em" data-inline="false" class="iconify"><path d="M13.75 9h2.39L19 14h-2.95L13.5 9.46M18.3 17h-5.55l1.4-2.5h5.12l.26.46M11.5 17l-1.1-2.14 2.84-4.96 1.5 2.66L12.25 17M20 6h-8l-2-2H4c-1.11 0-2 .89-2 2v12c0 1.1.9 2 2 2h16c1.1 0 2-.9 2-2V8a2 2 0 0 0-2-2z" fill="#646464"/></svg>
