<?xml version="1.0"?>
<svg xmlns="http://www.w3.org/2000/svg" xmlns:xlink="http://www.w3.org/1999/xlink" aria-hidden="true" width="1em" height="1em" viewBox="0 0 24 24" data-icon="mdi:folder-clock-outline" data-width="1em" data-height="1em" data-inline="false" class="iconify"><path d="M15 12h1.5v4.25l2.86 1.69-.75 1.22L15 17v-5m4-4H3v10h6.29C9.1 17.37 9 16.7 9 16c0-3.87 3.13-7 7-7 1.07 0 2.09.24 3 .67V8M3 20a2 2 0 0 1-2-2V6c0-1.1.9-2 2-2h6l2 2h8c1.1 0 2 .9 2 2v3.1c1.24 1.26 2 2.99 2 4.9 0 3.87-3.13 7-7 7-2.38 0-4.5-1.19-5.75-3H3m13-9c-2.76 0-5 2.24-5 5s2.24 5 5 5 5-2.24 5-5-2.24-5-5-5z" fill="#646464"/></svg>
