<?xml version="1.0"?>
<svg xmlns="http://www.w3.org/2000/svg" xmlns:xlink="http://www.w3.org/1999/xlink" aria-hidden="true" width="1em" height="1em" viewBox="0 0 24 24" data-icon="mdi:font-awesome" data-width="1em" data-height="1em" data-inline="false" class="iconify"><path d="M6 3a2.5 2.5 0 0 1 2.5 2.5c0 1.03-.62 1.91-1.5 2.29v.87C8.11 8.36 9.72 8 11 8c1.15 0 1.89.22 2.54.42.59.18 1.11.33 1.96.33 1.63 0 2.9-.57 3.04-.64A1.003 1.003 0 0 1 20 9v8c0 .38-.21.72-.55.89-.07.04-1.74.86-3.95.86-1.11 0-2.05-.2-2.96-.4-.85-.18-1.65-.35-2.54-.35-1.15 0-2.33.39-3 .66V22H5V7.79c-.88-.38-1.5-1.26-1.5-2.29A2.5 2.5 0 0 1 6 3z" fill="#646464"/></svg>
