<?xml version="1.0"?>
<svg xmlns="http://www.w3.org/2000/svg" xmlns:xlink="http://www.w3.org/1999/xlink" aria-hidden="true" width="1em" height="1em" viewBox="0 0 24 24" data-icon="mdi:food-fork-drink" data-width="1em" data-height="1em" data-inline="false" class="iconify"><path d="M3 3c-.55 0-1 .45-1 1v5.5c0 1.69 1.03 3.13 2.5 3.72v6.28c0 .83.67 1.5 1.5 1.5s1.5-.67 1.5-1.5v-6.28c1.47-.59 2.5-2.03 2.5-3.72V4c0-.55-.45-1-1-1s-1 .45-1 1v4c0 .28-.22.5-.5.5S7 8.28 7 8V4c0-.55-.45-1-1-1s-1 .45-1 1v4c0 .28-.22.5-.5.5S4 8.28 4 8V4c0-.55-.45-1-1-1m16.88 0c-.13 0-.26.09-.38.16L16 5.25V9h-4v2h1l1 10h6l1-10h1V9h-4V6.34l2.5-1.5c.5-.28.63-.84.34-1.34-.21-.36-.58-.55-.96-.5z" fill="#646464"/></svg>
