<?xml version="1.0"?>
<svg xmlns="http://www.w3.org/2000/svg" xmlns:xlink="http://www.w3.org/1999/xlink" aria-hidden="true" width="1em" height="1em" viewBox="0 0 24 24" data-icon="mdi:food-off" data-width="1em" data-height="1em" data-inline="false" class="iconify"><path d="M2 5.27L3.28 4 21 21.72 19.73 23l-2-2H15.5l-.29-2.5-2.24-2.26c-.11.44-.5.76-.97.76H3c-.55 0-1-.45-1-1s.45-1 1-1h5l1.5 1.5L11 15h.73l-1-1H2c0-1.66 1.34-3 3-3h2.73L2 5.27M14 8h2.23L15.1 3.46 16.84 3l1.25 5H22l-1.26 10.92-6.2-6.2L14 8m-1 10c0 1.66-1.34 3-3 3H5c-1.66 0-3-1.34-3-3h11z" fill="#646464"/></svg>
