<?xml version="1.0"?>
<svg xmlns="http://www.w3.org/2000/svg" xmlns:xlink="http://www.w3.org/1999/xlink" aria-hidden="true" width="1em" height="1em" viewBox="0 0 24 24" data-icon="mdi:food" data-width="1em" data-height="1em" data-inline="false" class="iconify"><path d="M15.5 21L14 8h2.23L15.1 3.46 16.84 3l1.25 5H22l-1.5 13h-5M5 11h5c1.66 0 3 1.34 3 3H2c0-1.66 1.34-3 3-3m8 7c0 1.66-1.34 3-3 3H5c-1.66 0-3-1.34-3-3h11M3 15h5l1.5 1.5L11 15h1c.55 0 1 .45 1 1s-.45 1-1 1H3c-.55 0-1-.45-1-1s.45-1 1-1z" fill="#646464"/></svg>
