<?xml version="1.0"?>
<svg xmlns="http://www.w3.org/2000/svg" xmlns:xlink="http://www.w3.org/1999/xlink" aria-hidden="true" width="1em" height="1em" viewBox="0 0 24 24" data-icon="mdi:football-helmet" data-width="1em" data-height="1em" data-inline="false" class="iconify"><path d="M13.5 12c-.83 0-1.5.67-1.5 1.5s.67 1.5 1.5 1.5 1.5-.67 1.5-1.5-.67-1.5-1.5-1.5m0-9c4.69 0 8.5 3.58 8.5 8 0 1.62 0 3-.91 5C17 16 16 20 12.5 20c-2.18 0-3.23-1.72-3.45-4h-.81l-1.28 4.3a1 1 0 0 1-1.12.7H3c-.55 0-1-.45-1-1s.45-1 1-1v-3c-.55 0-1-.45-1-1s.45-1 1-1h3.75l.48-1.61c-.51-.25-1.1-.39-1.73-.39h-.43L5 11c0-4.42 3.81-8 8.5-8M5 16v3h.26l.89-3H5z" fill="#646464"/></svg>
