<?xml version="1.0"?>
<svg xmlns="http://www.w3.org/2000/svg" xmlns:xlink="http://www.w3.org/1999/xlink" aria-hidden="true" width="1em" height="1em" viewBox="0 0 24 24" data-icon="mdi:forklift" data-width="1em" data-height="1em" data-inline="false" class="iconify"><path d="M6 4v7H4c-1.11 0-2 .89-2 2v4c0 1.66 1.34 3 3 3s3-1.34 3-3h2c0 1.66 1.34 3 3 3s3-1.34 3-3v-4l-4-9H6m11 1v14h5v-1.5h-3.5V5H17m-9.5.5h3.7l3.3 7.5h-7V5.5M5 15.5c.83 0 1.5.67 1.5 1.5s-.67 1.5-1.5 1.5-1.5-.67-1.5-1.5.67-1.5 1.5-1.5m8 0c.83 0 1.5.67 1.5 1.5s-.67 1.5-1.5 1.5-1.5-.67-1.5-1.5.67-1.5 1.5-1.5z" fill="#646464"/></svg>
