<?xml version="1.0"?>
<svg xmlns="http://www.w3.org/2000/svg" xmlns:xlink="http://www.w3.org/1999/xlink" aria-hidden="true" width="1em" height="1em" viewBox="0 0 24 24" data-icon="mdi:format-bold" data-width="1em" data-height="1em" data-inline="false" class="iconify"><path d="M13.5 15.5H10v-3h3.5c.83 0 1.5.67 1.5 1.5s-.67 1.5-1.5 1.5m-3.5-9h3c.83 0 1.5.67 1.5 1.5s-.67 1.5-1.5 1.5h-3m5.6 1.29c.97-.68 1.65-1.79 1.65-2.79 0-2.26-1.75-4-4-4H7v14h7.04c2.1 0 3.71-1.7 3.71-3.79 0-1.52-.86-2.82-2.15-3.42z" fill="#646464"/></svg>
