<?xml version="1.0"?>
<svg xmlns="http://www.w3.org/2000/svg" xmlns:xlink="http://www.w3.org/1999/xlink" aria-hidden="true" width="1em" height="1em" viewBox="0 0 24 24" data-icon="mdi:format-text" data-width="1em" data-height="1em" data-inline="false" class="iconify"><path d="M18.5 4l1.16 4.35-.96.26c-.45-.87-.91-1.74-1.44-2.18C16.73 6 16.11 6 15.5 6H13v10.5c0 .5 0 1 .33 1.25.34.25 1 .25 1.67.25v1H9v-1c.67 0 1.33 0 1.67-.25.33-.25.33-.75.33-1.25V6H8.5c-.61 0-1.23 0-1.76.43-.53.44-.99 1.31-1.44 2.18l-.96-.26L5.5 4h13z" fill="#646464"/></svg>
