<?xml version="1.0"?>
<svg xmlns="http://www.w3.org/2000/svg" xmlns:xlink="http://www.w3.org/1999/xlink" aria-hidden="true" width="1em" height="1em" viewBox="0 0 24 24" data-icon="mdi:format-list-bulleted" data-width="1em" data-height="1em" data-inline="false" class="iconify"><path d="M7 5h14v2H7V5m0 8v-2h14v2H7M4 4.5c.83 0 1.5.67 1.5 1.5S4.83 7.5 4 7.5 2.5 6.83 2.5 6 3.17 4.5 4 4.5m0 6c.83 0 1.5.67 1.5 1.5s-.67 1.5-1.5 1.5-1.5-.67-1.5-1.5.67-1.5 1.5-1.5M7 19v-2h14v2H7m-3-2.5c.83 0 1.5.67 1.5 1.5s-.67 1.5-1.5 1.5-1.5-.67-1.5-1.5.67-1.5 1.5-1.5z" fill="#646464"/></svg>
