<?xml version="1.0"?>
<svg xmlns="http://www.w3.org/2000/svg" xmlns:xlink="http://www.w3.org/1999/xlink" aria-hidden="true" width="1em" height="1em" viewBox="0 0 24 24" data-icon="mdi:format-header-2" data-width="1em" data-height="1em" data-inline="false" class="iconify"><path d="M3 4h2v6h4V4h2v14H9v-6H5v6H3V4m18 14h-6c-1.1 0-2-.9-2-2 0-.53.2-1 .54-1.36l4.87-5.23c.37-.36.59-.86.59-1.41 0-1.1-.9-2-2-2s-2 .9-2 2h-2c0-2.21 1.79-4 4-4s4 1.79 4 4c0 1.1-.45 2.1-1.17 2.83L15 16h6v2z" fill="#646464"/></svg>
