<?xml version="1.0"?>
<svg xmlns="http://www.w3.org/2000/svg" xmlns:xlink="http://www.w3.org/1999/xlink" aria-hidden="true" width="1em" height="1em" viewBox="0 0 24 24" data-icon="mdi:fountain" data-width="1em" data-height="1em" data-inline="false" class="iconify"><path d="M7.5 2C4.47 2 2 4.46 2 7.5V8h2v-.5C4 5.57 5.57 4 7.5 4c1.5 0 2.76.93 3.26 2.24C10.37 6.08 9.95 6 9.5 6c-1.39 0-2.6.82-3.16 2l1.74 1c.21-.58.77-1 1.42-1 .83 0 1.5.67 1.5 1.5V11h2V9.5c0-.83.67-1.5 1.5-1.5.66 0 1.21.42 1.42 1l1.74-1c-.56-1.18-1.76-2-3.16-2-.45 0-.87.08-1.26.24C13.74 4.93 15 4 16.5 4 18.43 4 20 5.57 20 7.5V8h2v-.5C22 4.46 19.54 2 16.5 2c-1.86 0-3.5.93-4.5 2.34C11 2.93 9.36 2 7.5 2M6 12v2h1.42c.5 1.15 1.43 2.07 2.58 2.57V19H2s.82 1.23 1.41 2.11c.37.56.99.89 1.66.89h13.86c.67 0 1.29-.33 1.66-.89L22 19h-8v-2.43c1.15-.5 2.08-1.42 2.58-2.57H18v-2H6z" fill="#646464"/></svg>
