<?xml version="1.0"?>
<svg xmlns="http://www.w3.org/2000/svg" xmlns:xlink="http://www.w3.org/1999/xlink" aria-hidden="true" width="1em" height="1em" viewBox="0 0 24 24" data-icon="mdi:gamepad-variant" data-width="1em" data-height="1em" data-inline="false" class="iconify"><path d="M7 6h10c3.31 0 6 2.69 6 6s-2.69 6-6 6c-1.78 0-3.37-.77-4.47-2h-1.06c-1.1 1.23-2.69 2-4.47 2-3.31 0-6-2.69-6-6s2.69-6 6-6M6 9v2H4v2h2v2h2v-2h2v-2H8V9H6m9.5 3c-.83 0-1.5.67-1.5 1.5s.67 1.5 1.5 1.5 1.5-.67 1.5-1.5-.67-1.5-1.5-1.5m3-3c-.83 0-1.5.67-1.5 1.5s.67 1.5 1.5 1.5 1.5-.67 1.5-1.5S19.33 9 18.5 9z" fill="#646464"/></svg>
