<?xml version="1.0"?>
<svg xmlns="http://www.w3.org/2000/svg" xmlns:xlink="http://www.w3.org/1999/xlink" aria-hidden="true" width="1em" height="1em" viewBox="0 0 24 24" data-icon="mdi:gas-station" data-width="1em" data-height="1em" data-inline="false" class="iconify"><path d="M18 10c-.55 0-1-.45-1-1s.45-1 1-1 1 .45 1 1-.45 1-1 1m-6 0H6V5h6m7.77 2.23l.01-.01-3.72-3.72L15 4.56l2.11 2.11C16.17 7 15.5 7.93 15.5 9a2.5 2.5 0 0 0 2.5 2.5c.36 0 .69-.08 1-.21v7.21c0 .55-.45 1-1 1s-1-.45-1-1V14a2 2 0 0 0-2-2h-1V5a2 2 0 0 0-2-2H6c-1.11 0-2 .89-2 2v16h10v-7.5h1.5v5a2.5 2.5 0 0 0 5 0V9c0-.69-.28-1.32-.73-1.77z" fill="#646464"/></svg>
