<?xml version="1.0"?>
<svg xmlns="http://www.w3.org/2000/svg" xmlns:xlink="http://www.w3.org/1999/xlink" aria-hidden="true" width="1em" height="1em" viewBox="0 0 24 24" data-icon="mdi:gate-xnor" data-width="1em" data-height="1em" data-inline="false" class="iconify"><path d="M2 4c3 6 3 10 0 16h2c3-6 3-10 .1-16H2m4 0c3 6 3 10 0 16h3c3.2 0 5.8-3.2 7.7-6 .58.65 1.42 1 2.3 1 1.66 0 3-1.34 3-3s-1.34-3-3-3c-.88 0-1.72.35-2.3 1-2-2.8-4.5-6-7.7-6H6m3 2c3 0 5 4 6.5 6C14 14 12 18 9 18c1.6-4 1.6-8 0-12m10 5c.5 0 1 .5 1 1s-.5 1-1 1c-.55 0-1-.45-1-1 0-.5.5-1 1-1z" fill="#646464"/></svg>
