<?xml version="1.0"?>
<svg xmlns="http://www.w3.org/2000/svg" xmlns:xlink="http://www.w3.org/1999/xlink" aria-hidden="true" width="1em" height="1em" viewBox="0 0 24 24" data-icon="mdi:gate-nand" data-width="1em" data-height="1em" data-inline="false" class="iconify"><path d="M2 4v16h8c3.43 0 6.5-2.16 7.6-5.4.4.2.9.4 1.4.4 1.66 0 3-1.34 3-3s-1.34-3-3-3c-.5 0-.97.15-1.4.4C16.5 6.16 13.43 4 10 4H2m2 2h6c3.31 0 6 2.69 6 6s-2.69 6-6 6H4V6m15 5c.5 0 1 .5 1 1s-.5 1-1 1c-.55 0-1-.45-1-1 0-.5.5-1 1-1z" fill="#646464"/></svg>
