<?xml version="1.0"?>
<svg xmlns="http://www.w3.org/2000/svg" xmlns:xlink="http://www.w3.org/1999/xlink" aria-hidden="true" width="1em" height="1em" viewBox="0 0 24 24" data-icon="mdi:gate-nor" data-width="1em" data-height="1em" data-inline="false" class="iconify"><path d="M2 4c3 6 3 10 0 16h3c4.4 0 8-2.3 11.6-6.3.55.8 1.44 1.3 2.4 1.3 1.66 0 3-1.34 3-3s-1.34-3-3-3c-.96 0-1.85.5-2.4 1.3C13 6.3 9.4 4 5 4H2m3 2c3.8 0 7 2.1 10.3 6C12 15.9 8.8 18 5 18c1.5-4 1.5-8 0-12m14 5c.5 0 1 .5 1 1s-.5 1-1 1c-.55 0-1-.45-1-1 0-.5.5-1 1-1z" fill="#646464"/></svg>
