<?xml version="1.0"?>
<svg xmlns="http://www.w3.org/2000/svg" xmlns:xlink="http://www.w3.org/1999/xlink" aria-hidden="true" width="1em" height="1em" viewBox="0 0 24 24" data-icon="mdi:gauge-low" data-width="1em" data-height="1em" data-inline="false" class="iconify"><path d="M12 2c5.52 0 10 4.48 10 10s-4.48 10-10 10S2 17.52 2 12 6.48 2 12 2m0 2c-4.42 0-8 3.58-8 8 0 2.4 1 4.5 2.7 6 1.4-1.3 3.3-2 5.3-2s3.8.7 5.3 2c1.7-1.5 2.7-3.6 2.7-6 0-4.42-3.58-8-8-8m-2 1.89c.38.01.74.26.9.65l1.29 3.23.1.23c.71.13 1.3.6 1.57 1.26.41 1.03-.09 2.19-1.12 2.6-1.03.41-2.19-.09-2.6-1.12-.26-.66-.14-1.42.29-1.98l-.1-.26-1.29-3.21-.01-.03c-.2-.51.05-1.09.56-1.3.13-.05.26-.07.41-.07M14 6c.55 0 1 .45 1 1s-.45 1-1 1-1-.45-1-1 .45-1 1-1m3 3c.55 0 1 .45 1 1s-.45 1-1 1-1-.45-1-1 .45-1 1-1M7 9c.55 0 1 .45 1 1s-.45 1-1 1-1-.45-1-1 .45-1 1-1z" fill="#646464"/></svg>
