<?xml version="1.0"?>
<svg xmlns="http://www.w3.org/2000/svg" xmlns:xlink="http://www.w3.org/1999/xlink" aria-hidden="true" width="1em" height="1em" viewBox="0 0 24 24" data-icon="mdi:gauge-full" data-width="1em" data-height="1em" data-inline="false" class="iconify"><path d="M12 2C6.48 2 2 6.48 2 12s4.48 10 10 10 10-4.48 10-10S17.52 2 12 2m0 2c4.42 0 8 3.58 8 8 0 2.4-1 4.5-2.7 6-1.4-1.3-3.3-2-5.3-2s-3.8.7-5.3 2C5 16.5 4 14.4 4 12c0-4.42 3.58-8 8-8m-2 2c-.55 0-1 .45-1 1s.45 1 1 1 1-.45 1-1-.45-1-1-1m4 0c-.55 0-1 .45-1 1s.45 1 1 1 1-.45 1-1-.45-1-1-1m3.09 2.94c-.13 0-.25.03-.39.06l-3.2 1.32-.27.11c-.56-.43-1.32-.55-1.98-.28a1.992 1.992 0 0 0-1.1 2.6 1.992 1.992 0 0 0 2.6 1.1c.66-.26 1.13-.85 1.25-1.57l.23-.1 3.22-1.3.02-.01c.53-.21.76-.79.56-1.31a1 1 0 0 0-.94-.62M7 9c-.55 0-1 .45-1 1s.45 1 1 1 1-.45 1-1-.45-1-1-1z" fill="#646464"/></svg>
