<?xml version="1.0"?>
<svg xmlns="http://www.w3.org/2000/svg" xmlns:xlink="http://www.w3.org/1999/xlink" aria-hidden="true" width="1em" height="1em" viewBox="0 0 24 24" data-icon="mdi:gesture-swipe-vertical" data-width="1em" data-height="1em" data-inline="false" class="iconify"><path d="M4 3L1 6h2v3H1l3 3 3-3H5V6h2L4 3m7 5c-.55 0-1 .45-1 1v10l-3.2-1.72h-.22c-.28 0-.55.11-.74.32l-.74.77 4.9 4.2c.26.28.62.43 1 .43h6.5c.83 0 1.5-.67 1.5-1.5v-4.36c0-.58-.32-1.11-.85-1.35l-4.94-2.19-1.21-.13V9c0-.55-.45-1-1-1z" fill="#646464"/></svg>
