<?xml version="1.0"?>
<svg xmlns="http://www.w3.org/2000/svg" xmlns:xlink="http://www.w3.org/1999/xlink" aria-hidden="true" width="1em" height="1em" viewBox="0 0 24 24" data-icon="mdi:gesture-two-tap" data-width="1em" data-height="1em" data-inline="false" class="iconify"><path d="M19 15.14v6.36c-.03.82-.68 1.47-1.5 1.5H11c-.38 0-.74-.15-1-.43l-4.9-4.2.74-.77c.19-.21.46-.32.74-.32h.22L10 19V9c0-.55.45-1 1-1s1 .45 1 1V7c0-.55.45-1 1-1s1 .45 1 1v5l4.15 1.84c.51.23.85.74.85 1.3m-4-4.69V9.23c.23-.2.42-.44.57-.69A2.996 2.996 0 0 0 13 4c-.79 0-1.5.31-2.05.81l-.14.14c-.13.14-.25.29-.35.45-.1.16-.19.34-.26.52-.03.08-.05.14-.07.21A3.003 3.003 0 0 0 8 9c0 .7.24 1.34.64 1.85.1.15.23.26.36.38v1.23C7.8 11.77 7 10.5 7 9c0-1.62.97-3 2.35-3.65C10 3.97 11.38 3 13 3c2.21 0 4 1.79 4 4 0 1.5-.8 2.77-2 3.46v-.01z" fill="#646464"/></svg>
