<?xml version="1.0"?>
<svg xmlns="http://www.w3.org/2000/svg" xmlns:xlink="http://www.w3.org/1999/xlink" aria-hidden="true" width="1em" height="1em" viewBox="0 0 24 24" data-icon="mdi:gesture-swipe-down" data-width="1em" data-height="1em" data-inline="false" class="iconify"><path d="M10 9c0-.55.45-1 1-1s1 .45 1 1v4.47l1.21.13 4.94 2.19c.53.24.85.77.85 1.35v4.36c-.03.82-.68 1.47-1.5 1.5H11c-.38 0-.74-.15-1-.43l-4.9-4.2.74-.77c.19-.21.46-.32.74-.32h.22L10 19V9M1 9l3 3 3-3H5V3H3v6H1z" fill="#646464"/></svg>
