<?xml version="1.0"?>
<svg xmlns="http://www.w3.org/2000/svg" xmlns:xlink="http://www.w3.org/1999/xlink" aria-hidden="true" width="1em" height="1em" viewBox="0 0 24 24" data-icon="mdi:ghost-off" data-width="1em" data-height="1em" data-inline="false" class="iconify"><path d="M2 3.27L3.28 2 22 20.72 20.73 22l-2.86-2.87L15 22l-3-3-3 3-3-3-3 3V11c0-1.91.59-3.67 1.6-5.13L2 3.27M12 2a9 9 0 0 1 9 9v6.18l-5.3-5.3c.76-.29 1.3-1.02 1.3-1.88 0-1.1-.9-2-2-2-.86 0-1.59.54-1.87 1.3L7.2 3.38A8.946 8.946 0 0 1 12 2m-5 8c0 1.1.9 2 2 2 .5 0 .93-.17 1.27-.46L7.46 8.73C7.17 9.07 7 9.5 7 10z" fill="#646464"/></svg>
