<?xml version="1.0"?>
<svg xmlns="http://www.w3.org/2000/svg" xmlns:xlink="http://www.w3.org/1999/xlink" aria-hidden="true" width="1em" height="1em" viewBox="0 0 24 24" data-icon="mdi:gift" data-width="1em" data-height="1em" data-inline="false" class="iconify"><path d="M22 12v8c0 1.1-.9 2-2 2H4c-1.1 0-2-.9-2-2v-8c-.55 0-1-.45-1-1V8c0-1.1.9-2 2-2h3.17A3 3 0 0 1 6 5c0-1.66 1.34-3 3-3 1 0 1.88.5 2.43 1.24v-.01L12 4l.57-.77v.01C13.12 2.5 14 2 15 2c1.66 0 3 1.34 3 3a3 3 0 0 1-.17 1H21c1.1 0 2 .9 2 2v3c0 .55-.45 1-1 1M4 20h7v-8H4v8m16 0v-8h-7v8h7M9 4c-.55 0-1 .45-1 1s.45 1 1 1 1-.45 1-1-.45-1-1-1m6 0c-.55 0-1 .45-1 1s.45 1 1 1 1-.45 1-1-.45-1-1-1M3 8v2h8V8H3m10 0v2h8V8h-8z" fill="#646464"/></svg>
