<?xml version="1.0"?>
<svg xmlns="http://www.w3.org/2000/svg" xmlns:xlink="http://www.w3.org/1999/xlink" aria-hidden="true" width="1em" height="1em" viewBox="0 0 24 24" data-icon="mdi:github-face" data-width="1em" data-height="1em" data-inline="false" class="iconify"><path d="M20.38 8.53c.16-.4.68-1.99-.17-4.14 0 0-1.31-.39-4.3 1.61-1.25-.33-2.58-.38-3.91-.38-1.32 0-2.66.05-3.91.38-2.99-2.03-4.3-1.61-4.3-1.61-.85 2.15-.33 3.74-.16 4.14C2.61 9.62 2 11 2 12.72c0 6.44 4.16 7.89 10 7.89 5.79 0 10-1.45 10-7.89 0-1.72-.61-3.1-1.62-4.19M12 19.38c-4.12 0-7.47-.19-7.47-4.19 0-.95.47-1.85 1.27-2.58 1.34-1.23 3.63-.58 6.2-.58 2.59 0 4.85-.65 6.2.58.8.73 1.3 1.62 1.3 2.58 0 3.99-3.37 4.19-7.5 4.19m-3.14-6.26c-.82 0-1.5 1-1.5 2.22 0 1.23.68 2.24 1.5 2.24.83 0 1.5-1 1.5-2.24 0-1.23-.67-2.22-1.5-2.22m6.28 0c-.83 0-1.5.99-1.5 2.22 0 1.24.67 2.24 1.5 2.24.82 0 1.5-1 1.5-2.24 0-1.23-.64-2.22-1.5-2.22z" fill="#646464"/></svg>
