<?xml version="1.0"?>
<svg xmlns="http://www.w3.org/2000/svg" xmlns:xlink="http://www.w3.org/1999/xlink" aria-hidden="true" width="1em" height="1em" viewBox="0 0 24 24" data-icon="mdi:gitlab" data-width="1em" data-height="1em" data-inline="false" class="iconify"><path d="M3.16 10L12 21.5l-9.68-7.2a.784.784 0 0 1-.28-.86L3.16 10m2.95-6.83c-.11-.34-.61-.34-.74 0L3.16 10h5.16L6.11 3.17M8.32 10L12 21.5 15.68 10H8.32m13.64 3.44L20.84 10 12 21.5l9.68-7.2c.27-.21.38-.55.28-.86M18.63 3.17c-.13-.34-.63-.34-.74 0L15.68 10h5.16l-2.21-6.83z" fill="#646464"/></svg>
