<?xml version="1.0"?>
<svg xmlns="http://www.w3.org/2000/svg" xmlns:xlink="http://www.w3.org/1999/xlink" aria-hidden="true" width="1em" height="1em" viewBox="0 0 24 24" data-icon="mdi:globe-model" data-width="1em" data-height="1em" data-inline="false" class="iconify"><path d="M17.36 2.64l-1.41 1.42a6.995 6.995 0 1 1-9.89 9.89l-1.42 1.41A8.945 8.945 0 0 0 10 17.93V20H6v2h10v-2h-4v-2.06c4.55-.51 8-4.36 8-8.94 0-2.38-.95-4.67-2.64-6.36M11 3.5C7.96 3.5 5.5 5.96 5.5 9s2.46 5.5 5.5 5.5 5.5-2.46 5.5-5.5-2.46-5.5-5.5-5.5m0 2c1.94 0 3.5 1.57 3.5 3.5s-1.57 3.5-3.5 3.5S7.5 10.93 7.5 9 9.07 5.5 11 5.5z" fill="#646464"/></svg>
