<?xml version="1.0"?>
<svg xmlns="http://www.w3.org/2000/svg" xmlns:xlink="http://www.w3.org/1999/xlink" aria-hidden="true" width="1em" height="1em" viewBox="0 0 24 24" data-icon="mdi:gog" data-width="1em" data-height="1em" data-inline="false" class="iconify"><path d="M4 3h16c1.1 0 2 .9 2 2v14c0 1.1-.9 2-2 2H4c-1.1 0-2-.9-2-2V5c0-1.1.9-2 2-2m6.46 2.54c-.51 0-.92.41-.92.92v3.08c0 .51.41.92.92.92h3.08c.51 0 .92-.41.92-.92V6.46c0-.51-.41-.92-.92-.92h-3.08m.62 1.23h1.84c.17 0 .31.14.31.31v1.84c0 .17-.14.31-.31.31h-1.84c-.17 0-.31-.14-.31-.31V7.08c0-.17.14-.31.31-.31M4.92 5.54c-.51 0-.92.41-.92.92v3.08c0 .51.41.92.92.92h2.16V9.23H5.54c-.17 0-.31-.14-.31-.31V7.08c0-.17.14-.31.31-.31h1.84c.17 0 .31.14.31.31v3.69c0 .17-.14.31-.31.31H4v1.23h4c.5 0 .92-.42.92-.93V6.46c0-.51-.41-.92-.92-.92H4.92m11.08 0c-.5 0-.92.41-.92.92v3.08c0 .51.42.92.92.92h2.15V9.23h-1.53c-.17 0-.31-.14-.31-.31V7.08c0-.17.14-.31.31-.31h1.84c.17 0 .31.14.31.31v3.69c0 .17-.14.31-.31.31h-3.38v1.23h4c.51 0 .92-.42.92-.93V6.46c0-.51-.41-.92-.92-.92H16m-6.15 8c-.51 0-.93.41-.93.92v3.08c0 .51.42.92.93.92h3.07c.51 0 .93-.41.93-.92v-3.08c0-.51-.42-.92-.93-.92H9.85m.61 1.23h1.85a.3.3 0 0 1 .31.31v1.84c0 .17-.14.31-.31.31h-1.85c-.17 0-.31-.14-.31-.31v-1.84c0-.17.14-.31.31-.31m-5.54-1.23c-.51 0-.92.41-.92.92v3.08c0 .51.41.92.92.92h3.39v-1.23H5.54c-.17 0-.31-.14-.31-.31v-1.84c0-.17.14-.31.31-.31h2.77v-1.23H4.92m10.46 0c-.51 0-.92.41-.92.92v4h1.23v-3.38c0-.17.14-.31.31-.31h.62v3.69h1.23v-3.69h.92v3.69H20v-4.92h-4.62z" fill="#646464"/></svg>
