<?xml version="1.0"?>
<svg xmlns="http://www.w3.org/2000/svg" xmlns:xlink="http://www.w3.org/1999/xlink" aria-hidden="true" width="1em" height="1em" viewBox="0 0 24 24" data-icon="mdi:gondola" data-width="1em" data-height="1em" data-inline="false" class="iconify"><path d="M18 10h-5V7.59l9.12-1.52-.24-1.48-5.47.91c.05-.15.09-.32.09-.5 0-.83-.67-1.5-1.5-1.5s-1.5.67-1.5 1.5c0 .35.13.68.34.93l-.84.14V5h-2v1.41l-.59.09c.05-.15.09-.32.09-.5 0-.83-.67-1.5-1.5-1.5S7.5 5.17 7.5 6c0 .36.13.68.33.93l-5.95 1 .24 1.48L11 7.93V10H6a2 2 0 0 0-2 2v6c0 1.1.9 2 2 2h12c1.1 0 2-.9 2-2v-6c0-1.1-.9-2-2-2M6 12h2.25v4H6v-4m3.75 4v-4h4.5v4h-4.5M18 16h-2.25v-4H18v4z" fill="#646464"/></svg>
