<?xml version="1.0"?>
<svg xmlns="http://www.w3.org/2000/svg" xmlns:xlink="http://www.w3.org/1999/xlink" aria-hidden="true" width="1em" height="1em" viewBox="0 0 24 24" data-icon="mdi:google-keep" data-width="1em" data-height="1em" data-inline="false" class="iconify"><path d="M4 2h16c1.1 0 2 .9 2 2v13.33L17.33 22H4c-1.1 0-2-.9-2-2V4c0-1.1.9-2 2-2m13 15v3.25L20.25 17H17m-7 2h4v-1h1v-5a5.002 5.002 0 0 0-3-9 5.002 5.002 0 0 0-3 9v5h1v1m4-2h-4v-1h4v1m0-2h-4v-1h4v1M12 5c2.21 0 4 1.79 4 4 0 1.5-.8 2.77-2 3.46V13h-4v-.54C8.8 11.77 8 10.5 8 9c0-2.21 1.79-4 4-4z" fill="#646464"/></svg>
