<?xml version="1.0"?>
<svg xmlns="http://www.w3.org/2000/svg" xmlns:xlink="http://www.w3.org/1999/xlink" aria-hidden="true" width="1em" height="1em" viewBox="0 0 24 24" data-icon="mdi:google-circles" data-width="1em" data-height="1em" data-inline="false" class="iconify"><path d="M16.66 15H17c1 0 2-.2 2.87-.54-.7 4.27-4.4 7.54-8.87 7.54-5 0-9-4.03-9-9 0-4.47 3.27-8.17 7.54-8.87C9.2 5 9 6 9 7v.34c-2.32.82-4 3.04-4 5.66 0 3.31 2.69 6 6 6 2.62 0 4.84-1.68 5.66-4m.34-5c1.66 0 3-1.34 3-3s-1.34-3-3-3-3 1.34-3 3 1.34 3 3 3m0-9c3.31 0 6 2.69 6 6s-2.69 6-6 6-6-2.69-6-6c0-3.32 2.69-6 6-6z" fill="#646464"/></svg>
