<?xml version="1.0"?>
<svg xmlns="http://www.w3.org/2000/svg" xmlns:xlink="http://www.w3.org/1999/xlink" aria-hidden="true" width="1em" height="1em" viewBox="0 0 24 24" data-icon="mdi:google-assistant" data-width="1em" data-height="1em" data-inline="false" class="iconify"><path d="M7 2C3.69 2 1 4.69 1 8s2.69 6 6 6 6-2.69 6-6-2.69-6-6-6m14.5 4c-.83 0-1.5.67-1.5 1.5S20.67 9 21.5 9 23 8.33 23 7.5 22.33 6 21.5 6M17 8c-1.66 0-3 1.34-3 3s1.34 3 3 3 3-1.34 3-3-1.34-3-3-3m0 7c-1.93 0-3.5 1.57-3.5 3.5S15.07 22 17 22s3.5-1.57 3.5-3.5S18.93 15 17 15z" fill="#646464"/></svg>
