<?xml version="1.0"?>
<svg xmlns="http://www.w3.org/2000/svg" xmlns:xlink="http://www.w3.org/1999/xlink" aria-hidden="true" width="1em" height="1em" viewBox="0 0 24 24" data-icon="mdi:google-circles-extended" data-width="1em" data-height="1em" data-inline="false" class="iconify"><path d="M18 19a2 2 0 0 1-2-2c0-1.11.89-2 2-2 1.1 0 2 .9 2 2s-.9 2-2 2m0-6c-2.21 0-4 1.79-4 4s1.79 4 4 4 4-1.79 4-4-1.79-4-4-4m-6-1.9a1.9 1.9 0 1 0 0 3.8 1.9 1.9 0 1 0 0-3.8M6 19a2 2 0 0 1-2-2c0-1.11.89-2 2-2 1.1 0 2 .9 2 2s-.9 2-2 2m0-6c-2.21 0-4 1.79-4 4s1.79 4 4 4 4-1.79 4-4-1.79-4-4-4m6-9c1.1 0 2 .9 2 2s-.9 2-2 2a2 2 0 0 1-2-2c0-1.11.89-2 2-2m0 6c2.21 0 4-1.79 4-4s-1.79-4-4-4-4 1.79-4 4 1.79 4 4 4z" fill="#646464"/></svg>
