<?xml version="1.0"?>
<svg xmlns="http://www.w3.org/2000/svg" xmlns:xlink="http://www.w3.org/1999/xlink" aria-hidden="true" width="1em" height="1em" viewBox="0 0 24 24" data-icon="mdi:google-physical-web" data-width="1em" data-height="1em" data-inline="false" class="iconify"><path d="M12 1.5a9 9 0 0 1 9 9c0 2.61-1.11 4.97-2.89 6.61l-1.06-1.06A7.503 7.503 0 0 0 12 3a7.503 7.503 0 0 0-5.05 13.05l-1.06 1.06C4.11 15.47 3 13.11 3 10.5a9 9 0 0 1 9-9m0 3c3.31 0 6 2.69 6 6 0 1.78-.78 3.39-2 4.5l-1.08-1.08c.97-.82 1.58-2.05 1.58-3.42C16.5 8 14.5 6 12 6s-4.5 2-4.5 4.5c0 1.37.61 2.6 1.58 3.42L8 15c-1.22-1.11-2-2.72-2-4.5 0-3.31 2.69-6 6-6M8.11 17.65l3.18-3.19c.39-.39 1.03-.39 1.42 0l3.18 3.19c.39.39.39 1.02 0 1.41l-3.18 3.18c-.39.39-1.03.39-1.42 0l-3.18-3.18a.996.996 0 0 1 0-1.41z" fill="#646464"/></svg>
