<?xml version="1.0"?>
<svg xmlns="http://www.w3.org/2000/svg" xmlns:xlink="http://www.w3.org/1999/xlink" aria-hidden="true" width="1em" height="1em" viewBox="0 0 24 24" data-icon="mdi:google-lens" data-width="1em" data-height="1em" data-inline="false" class="iconify"><path d="M6 2h12c2.21 0 4 1.79 4 4v6h-2V6c0-1.1-.9-2-2-2H6c-1.1 0-2 .9-2 2v12c0 1.1.9 2 2 2h6v2H6c-2.21 0-4-1.79-4-4V6c0-2.21 1.79-4 4-4m6 6c2.21 0 4 1.79 4 4s-1.79 4-4 4-4-1.79-4-4 1.79-4 4-4m6 8c1.1 0 2 .9 2 2s-.9 2-2 2-2-.9-2-2 .9-2 2-2z" fill="#646464"/></svg>
