<?xml version="1.0"?>
<svg xmlns="http://www.w3.org/2000/svg" xmlns:xlink="http://www.w3.org/1999/xlink" aria-hidden="true" width="1em" height="1em" viewBox="0 0 24 24" data-icon="mdi:google-circles-communities" data-width="1em" data-height="1em" data-inline="false" class="iconify"><path d="M15 12c-1.11 0-2 .89-2 2 0 1.1.9 2 2 2s2-.9 2-2a2 2 0 0 0-2-2m-3 8c-4.42 0-8-3.58-8-8s3.58-8 8-8 8 3.58 8 8-3.58 8-8 8m0-18C6.48 2 2 6.48 2 12s4.48 10 10 10 10-4.48 10-10S17.52 2 12 2m2 7a2 2 0 0 0-2-2c-1.11 0-2 .89-2 2 0 1.1.9 2 2 2s2-.9 2-2m-5 3c-1.1 0-2 .9-2 2s.9 2 2 2 2-.9 2-2a2 2 0 0 0-2-2z" fill="#646464"/></svg>
