<?xml version="1.0"?>
<svg xmlns="http://www.w3.org/2000/svg" xmlns:xlink="http://www.w3.org/1999/xlink" aria-hidden="true" width="1em" height="1em" viewBox="0 0 24 24" data-icon="mdi:google-controller-off" data-width="1em" data-height="1em" data-inline="false" class="iconify"><path d="M2 5.27L3.28 4 20 20.72 18.73 22l-6-6H7.97L5 19c-.33.3-.77.5-1.25.5-.97 0-1.75-.78-1.75-1.75v-.25l1-7.38c.1-1.03.53-1.95 1.19-2.66L2 5.27M5 10v1h2v2h1v-1.73L6.73 10H5m11.5-4c2.36 0 4.29 1.81 4.5 4.12l1 7.38v.25c0 .66-.36 1.25-.9 1.53L7.82 6h8.68m0 2c-.41 0-.75.34-.75.75s.34.75.75.75.75-.34.75-.75S16.91 8 16.5 8m-1.75 1.75c-.41 0-.75.34-.75.75s.34.75.75.75.75-.34.75-.75-.34-.75-.75-.75m3.5 0c-.41 0-.75.34-.75.75s.34.75.75.75.75-.34.75-.75-.34-.75-.75-.75M16.5 11.5c-.41 0-.75.34-.75.75s.34.75.75.75.75-.34.75-.75-.34-.75-.75-.75z" fill="#646464"/></svg>
