<?xml version="1.0"?>
<svg xmlns="http://www.w3.org/2000/svg" xmlns:xlink="http://www.w3.org/1999/xlink" aria-hidden="true" width="1em" height="1em" viewBox="0 0 24 24" data-icon="mdi:google-chrome" data-width="1em" data-height="1em" data-inline="false" class="iconify"><path d="M12 20l3.46-6h-.01c.34-.6.55-1.27.55-2 0-1.2-.54-2.27-1.38-3h4.79c.38.93.59 1.94.59 3 0 4.42-3.58 8-8 8m-8-8c0-1.46.39-2.82 1.07-4l3.47 6h.01c.69 1.19 1.95 2 3.45 2 .45 0 .88-.09 1.29-.23l-2.4 4.14C7 19.37 4 16.04 4 12m11 0c0 1.66-1.34 3-3 3s-3-1.34-3-3 1.34-3 3-3 3 1.34 3 3m-3-8a7.98 7.98 0 0 1 6.92 4H12c-1.94 0-3.55 1.38-3.92 3.21L5.7 7.08A7.981 7.981 0 0 1 12 4m0-2C6.48 2 2 6.48 2 12s4.48 10 10 10 10-4.48 10-10S17.52 2 12 2z" fill="#646464"/></svg>
