<?xml version="1.0"?>
<svg xmlns="http://www.w3.org/2000/svg" xmlns:xlink="http://www.w3.org/1999/xlink" aria-hidden="true" width="1em" height="1em" viewBox="0 0 24 24" data-icon="mdi:google-controller" data-width="1em" data-height="1em" data-inline="false" class="iconify"><path d="M7.97 16L5 19c-.33.3-.77.5-1.25.5-.97 0-1.75-.78-1.75-1.75v-.25l1-7.38A4.524 4.524 0 0 1 7.5 6h9c2.36 0 4.29 1.81 4.5 4.12l1 7.38v.25c0 .97-.78 1.75-1.75 1.75-.48 0-.92-.2-1.25-.5l-2.97-3H7.97M7 8v2H5v1h2v2h1v-2h2v-1H8V8H7m9.5 0c-.41 0-.75.34-.75.75s.34.75.75.75.75-.34.75-.75S16.91 8 16.5 8m-1.75 1.75c-.41 0-.75.34-.75.75s.34.75.75.75.75-.34.75-.75-.34-.75-.75-.75m3.5 0c-.41 0-.75.34-.75.75s.34.75.75.75.75-.34.75-.75-.34-.75-.75-.75M16.5 11.5c-.41 0-.75.34-.75.75s.34.75.75.75.75-.34.75-.75-.34-.75-.75-.75z" fill="#646464"/></svg>
