<?xml version="1.0"?>
<svg xmlns="http://www.w3.org/2000/svg" xmlns:xlink="http://www.w3.org/1999/xlink" aria-hidden="true" width="1em" height="1em" viewBox="0 0 24 24" data-icon="mdi:gradient" data-width="1em" data-height="1em" data-inline="false" class="iconify"><path d="M11 9h2v2h-2V9m-2 2h2v2H9v-2m4 0h2v2h-2v-2m2-2h2v2h-2V9M7 9h2v2H7V9m12-6H5c-1.1 0-2 .9-2 2v14c0 1.1.9 2 2 2h14c1.1 0 2-.9 2-2V5c0-1.1-.9-2-2-2M9 18H7v-2h2v2m4 0h-2v-2h2v2m4 0h-2v-2h2v2m2-7h-2v2h2v2h-2v-2h-2v2h-2v-2h-2v2H9v-2H7v2H5v-2h2v-2H5V5h14v6z" fill="#646464"/></svg>
