<?xml version="1.0"?>
<svg xmlns="http://www.w3.org/2000/svg" xmlns:xlink="http://www.w3.org/1999/xlink" aria-hidden="true" width="1em" height="1em" viewBox="0 0 24 24" data-icon="mdi:guitar-pick" data-width="1em" data-height="1em" data-inline="false" class="iconify"><path d="M19 4.1c-.9-.8-2-1.3-3.2-1.6-.3-.1-2.2-.5-3.6-.5H12h-.2c-1.4 0-3.4.4-3.7.5-1.1.3-2.2.8-3.1 1.6C3 5.9 3 8.7 4 11c1 2.5 2.1 4.7 3.6 6.9C8.8 19.6 10.1 22 12 22c1.9 0 3.2-2.4 4.5-4.1 1.5-2.1 2.6-4.4 3.6-6.9.9-2.3.9-5.1-1.1-6.9z" fill="#646464"/></svg>
