<?xml version="1.0"?>
<svg xmlns="http://www.w3.org/2000/svg" xmlns:xlink="http://www.w3.org/1999/xlink" aria-hidden="true" width="1em" height="1em" viewBox="0 0 24 24" data-icon="mdi:hand-pointing-left" data-width="1em" data-height="1em" data-inline="false" class="iconify"><path d="M3 9h10l-1.69-3.2-.03-.22c0-.29.12-.55.32-.74l.77-.74 4.2 4.9c.27.26.43.61.43 1v6.5c0 .77-.7 1.5-1.5 1.5h-4.36c-.61 0-1.14-.35-1.34-.85l-2.2-4.94L7.47 11H3c-.55 0-1-.45-1-1s.45-1 1-1m16 9v-8h3v8h-3z" fill="#646464"/></svg>
