<?xml version="1.0"?>
<svg xmlns="http://www.w3.org/2000/svg" xmlns:xlink="http://www.w3.org/1999/xlink" aria-hidden="true" width="1em" height="1em" viewBox="0 0 24 24" data-icon="mdi:hand-pointing-down" data-width="1em" data-height="1em" data-inline="false" class="iconify"><path d="M9.9 21V11l-3.2 1.69-.2.03c-.31 0-.57-.12-.76-.32L5 11.63l4.9-4.2c.26-.27.6-.43 1-.43h6.5c.77 0 1.5.7 1.5 1.5v4.36c0 .61-.35 1.14-.85 1.34l-4.94 2.2-1.21.13V21c0 .55-.45 1-1 1s-1-.45-1-1m9-16h-8V2h8v3z" fill="#646464"/></svg>
