<?xml version="1.0"?>
<svg xmlns="http://www.w3.org/2000/svg" xmlns:xlink="http://www.w3.org/1999/xlink" aria-hidden="true" width="1em" height="1em" viewBox="0 0 24 24" data-icon="mdi:hanger" data-width="1em" data-height="1em" data-inline="false" class="iconify"><path d="M20.76 16.34h-.01c.75.43 1.25 1.24 1.25 2.16a2.5 2.5 0 0 1-2.5 2.5h-15A2.5 2.5 0 0 1 2 18.5c0-.92.5-1.73 1.25-2.16h-.01L11 11.86S11 11 12 10c1 0 2-.9 2-2s-.9-2-2-2-2 .9-2 2H8c0-2.21 1.79-4 4-4a3.999 3.999 0 0 1 1 7.87l7.76 4.47M4.5 19h15c.17 0 .34-.09.43-.25.14-.25.07-.54-.18-.68L12 13.59l-7.75 4.48c-.25.14-.32.43-.18.68.09.16.26.25.43.25z" fill="#646464"/></svg>
