<?xml version="1.0"?>
<svg xmlns="http://www.w3.org/2000/svg" xmlns:xlink="http://www.w3.org/1999/xlink" aria-hidden="true" width="1em" height="1em" viewBox="0 0 24 24" data-icon="mdi:harddisk" data-width="1em" data-height="1em" data-inline="false" class="iconify"><path d="M6 2h12c1.1 0 2 .9 2 2v16c0 1.1-.9 2-2 2H6c-1.1 0-2-.9-2-2V4c0-1.1.9-2 2-2m6 2c-3.31 0-6 2.69-6 6s2.69 6 6.1 6l-.88-2.23a1.01 1.01 0 0 1 .37-1.37l.86-.5a1.01 1.01 0 0 1 1.37.37l1.92 2.42A5.977 5.977 0 0 0 18 10c0-3.31-2.69-6-6-6m0 5c.55 0 1 .45 1 1s-.45 1-1 1-1-.45-1-1 .45-1 1-1m-5 9c-.55 0-1 .45-1 1s.45 1 1 1 1-.45 1-1-.45-1-1-1m5.09-4.73l2.49 6.31 2.59-1.5-4.22-5.31-.86.5z" fill="#646464"/></svg>
