<?xml version="1.0"?>
<svg xmlns="http://www.w3.org/2000/svg" xmlns:xlink="http://www.w3.org/1999/xlink" aria-hidden="true" width="1em" height="1em" viewBox="0 0 24 24" data-icon="mdi:headphones-bluetooth" data-width="1em" data-height="1em" data-inline="false" class="iconify"><path d="M8 6c-3.31 0-6 2.69-6 6v4.8c0 .66.54 1.2 1.2 1.2H6v-4H4v-2c0-2.21 1.79-4 4-4s4 1.79 4 4v2h-2v4h2.8c.66 0 1.2-.54 1.2-1.2V12c0-3.31-2.69-6-6-6m11 1v3.79L16.71 8.5l-.71.71L18.79 12 16 14.79l.71.71L19 13.21V17h.5l2.85-2.86L20.21 12l2.14-2.15L19.5 7H19m1 1.91l.94.94-.94.94V8.91m0 4.3l.94.93-.94.94v-1.87z" fill="#646464"/></svg>
