<?xml version="1.0"?>
<svg xmlns="http://www.w3.org/2000/svg" xmlns:xlink="http://www.w3.org/1999/xlink" aria-hidden="true" width="1em" height="1em" viewBox="0 0 24 24" data-icon="mdi:headphones-box" data-width="1em" data-height="1em" data-inline="false" class="iconify"><path d="M7.2 18c-.66 0-1.2-.54-1.2-1.2V12c0-3.31 2.69-6 6-6s6 2.69 6 6v4.8c0 .66-.54 1.2-1.2 1.2H14v-4h2v-2c0-2.21-1.79-4-4-4s-4 1.79-4 4v2h2v4m9-15H5c-1.11 0-2 .89-2 2v14c0 1.1.9 2 2 2h14c1.1 0 2-.9 2-2V5a2 2 0 0 0-2-2z" fill="#646464"/></svg>
