<?xml version="1.0"?>
<svg xmlns="http://www.w3.org/2000/svg" xmlns:xlink="http://www.w3.org/1999/xlink" aria-hidden="true" width="1em" height="1em" viewBox="0 0 24 24" data-icon="mdi:headphones-off" data-width="1em" data-height="1em" data-inline="false" class="iconify"><path d="M12 1a9 9 0 0 1 9 9v7c0 .62-.19 1.19-.5 1.67L15 13.18V12h4v-2c0-3.87-3.13-7-7-7-2 0-3.77.82-5.04 2.14L5.55 3.72A8.96 8.96 0 0 1 12 1M2.78 3.5L20.5 21.22l-1.27 1.28-2.5-2.5H15v-1.73l-6-6V20H6c-1.66 0-3-1.34-3-3v-7c0-1.11.2-2.18.57-3.16L1.5 4.77 2.78 3.5m2.39 4.94C5.06 8.94 5 9.46 5 10v2h3.73L5.17 8.44z" fill="#646464"/></svg>
