<?xml version="1.0"?>
<svg xmlns="http://www.w3.org/2000/svg" xmlns:xlink="http://www.w3.org/1999/xlink" aria-hidden="true" width="1em" height="1em" viewBox="0 0 24 24" data-icon="mdi:heart-pulse" data-width="1em" data-height="1em" data-inline="false" class="iconify"><path d="M7.5 4C4.46 4 2 6.46 2 9.5c0 .5.09 1 .22 1.5H6.3l1.27-3.37c.3-.8 1.48-.88 1.86 0L11.5 13l.59-1.42c.13-.33.48-.58.91-.58h8.78c.13-.5.22-1 .22-1.5C22 6.46 19.54 4 16.5 4c-1.86 0-3.5.93-4.5 2.34C11 4.93 9.36 4 7.5 4M3 12.5c-.55 0-1 .45-1 1s.45 1 1 1h2.44L11 20c1 .9 1 .9 2 0l5.56-5.5H21c.55 0 1-.45 1-1s-.45-1-1-1h-7.6l-.93 2.3c-.4 1.01-1.55.87-1.92.03L8.5 9.5l-.96 2.33c-.15.38-.49.67-.94.67H3z" fill="#646464"/></svg>
