<?xml version="1.0"?>
<svg xmlns="http://www.w3.org/2000/svg" xmlns:xlink="http://www.w3.org/1999/xlink" aria-hidden="true" width="1em" height="1em" viewBox="0 0 24 24" data-icon="mdi:heart-multiple" data-width="1em" data-height="1em" data-inline="false" class="iconify"><path d="M13.5 20c-6.6-6.1-10-9.2-10-12.9C3.5 4 5.9 1.6 9 1.6c1.7 0 3.4.8 4.5 2.1 1.1-1.3 2.8-2.1 4.5-2.1 3.1 0 5.5 2.4 5.5 5.5 0 3.8-3.4 6.9-10 12.9M12 21.1C5.4 15.2 1.5 11.7 1.5 7v-.6c-.6.9-1 2-1 3.2 0 3.8 3.4 6.9 10 12.8l1.5-1.3z" fill="#646464"/></svg>
