<?xml version="1.0"?>
<svg xmlns="http://www.w3.org/2000/svg" xmlns:xlink="http://www.w3.org/1999/xlink" aria-hidden="true" width="1em" height="1em" viewBox="0 0 24 24" data-icon="mdi:helicopter" data-width="1em" data-height="1em" data-inline="false" class="iconify"><path d="M3 3h14v2H3V3m20 3v4.5l-8.25 1.7A3.499 3.499 0 0 1 13 16.66V19h3v2H4c-1.66 0-3-1.34-3-3v-1h2v1c0 .55.45 1 1 1h1v-2.26c-1.75-.61-3-2.28-3-4.24C2 10 4 8 6.5 8H9V6h2v2h10V6h2M11 19v-2H7v2h4m-3.5-9c-1.38 0-2.5.9-2.5 2s1.12 2 2.5 2 2.5-.9 2.5-2-1.12-2-2.5-2z" fill="#646464"/></svg>
