<?xml version="1.0"?>
<svg xmlns="http://www.w3.org/2000/svg" xmlns:xlink="http://www.w3.org/1999/xlink" aria-hidden="true" width="1em" height="1em" viewBox="0 0 24 24" data-icon="mdi:help-circle" data-width="1em" data-height="1em" data-inline="false" class="iconify"><path d="M15.07 11.25l-.9.92C13.45 12.89 13 13.5 13 15h-2v-.5c0-1.11.45-2.11 1.17-2.83l1.24-1.26c.37-.36.59-.86.59-1.41a2 2 0 1 0-4 0H8c0-2.21 1.79-4 4-4s4 1.79 4 4a3.2 3.2 0 0 1-.93 2.25M13 19h-2v-2h2M12 2C6.48 2 2 6.48 2 12s4.48 10 10 10 10-4.48 10-10c0-5.53-4.5-10-10-10z" fill="#646464"/></svg>
