<?xml version="1.0"?>
<svg xmlns="http://www.w3.org/2000/svg" xmlns:xlink="http://www.w3.org/1999/xlink" aria-hidden="true" width="1em" height="1em" viewBox="0 0 24 24" data-icon="mdi:help" data-width="1em" data-height="1em" data-inline="false" class="iconify"><path d="M10 19h3v3h-3v-3m2-17c5.35.22 7.68 5.62 4.5 9.67-.83 1-2.17 1.66-2.83 2.5C13 15 13 16 13 17h-3c0-1.67 0-3.08.67-4.08.66-1 2-1.59 2.83-2.25C15.92 8.43 15.32 5.26 12 5c-1.66 0-3 1.34-3 3H6c0-3.31 2.69-6 6-6z" fill="#646464"/></svg>
