<?xml version="1.0"?>
<svg xmlns="http://www.w3.org/2000/svg" xmlns:xlink="http://www.w3.org/1999/xlink" aria-hidden="true" width="1em" height="1em" viewBox="0 0 24 24" data-icon="mdi:hexagon-outline" data-width="1em" data-height="1em" data-inline="false" class="iconify"><path d="M21 16.5c0 .38-.21.71-.53.88l-7.9 4.44c-.16.12-.36.18-.57.18-.21 0-.41-.06-.57-.18l-7.9-4.44A.991.991 0 0 1 3 16.5v-9c0-.38.21-.71.53-.88l7.9-4.44c.16-.12.36-.18.57-.18.21 0 .41.06.57.18l7.9 4.44c.32.17.53.5.53.88v9M12 4.15L5 8.09v7.82l7 3.94 7-3.94V8.09l-7-3.94z" fill="#646464"/></svg>
