<?xml version="1.0"?>
<svg xmlns="http://www.w3.org/2000/svg" xmlns:xlink="http://www.w3.org/1999/xlink" aria-hidden="true" width="1em" height="1em" viewBox="0 0 24 24" data-icon="mdi:hexagon-multiple" data-width="1em" data-height="1em" data-inline="false" class="iconify"><path d="M10.25 2c.19 0 .36.11.44.26l2.22 3.96.09.28-.09.28-2.22 3.96c-.08.15-.25.26-.44.26h-4.5c-.19 0-.36-.11-.44-.26L3.09 6.78 3 6.5l.09-.28 2.22-3.96c.08-.15.25-.26.44-.26h4.5m0 11c.19 0 .36.11.44.26l2.22 3.96.09.28-.09.28-2.22 3.96c-.08.15-.25.26-.44.26h-4.5c-.19 0-.36-.11-.44-.26l-2.22-3.96L3 17.5l.09-.28 2.22-3.96c.08-.15.25-.26.44-.26h4.5m9.25-5.5c.19 0 .36.11.44.26l2.22 3.96.09.28-.09.28-2.22 3.96c-.08.15-.25.26-.44.26H15c-.19 0-.36-.11-.44-.26l-2.22-3.96-.09-.28.09-.28 2.22-3.96c.08-.15.25-.26.44-.26h4.5z" fill="#646464"/></svg>
