<?xml version="1.0"?>
<svg xmlns="http://www.w3.org/2000/svg" xmlns:xlink="http://www.w3.org/1999/xlink" aria-hidden="true" width="1em" height="1em" viewBox="0 0 24 24" data-icon="mdi:hook-off" data-width="1em" data-height="1em" data-inline="false" class="iconify"><path d="M13 9.86v1.32l2 2V9.86c2.14-.55 3.43-2.73 2.87-4.86A4 4 0 0 0 13 2.11 4.008 4.008 0 0 0 10.13 7c.37 1.4 1.46 2.5 2.87 2.86M14 4c1.1 0 2 .9 2 2s-.9 2-2 2-2-.9-2-2 .9-2 2-2m4.73 18l-3.87-3.87a5.015 5.015 0 0 1-6.03 3.69C6.6 21.28 5 19.29 5 17v-5l5 5H7c0 1.66 1.34 3 3 3s3-1.34 3-3v-.73l-11-11L3.28 4 13 13.72l2 2 5 5L18.73 22z" fill="#646464"/></svg>
