<?xml version="1.0"?>
<svg xmlns="http://www.w3.org/2000/svg" xmlns:xlink="http://www.w3.org/1999/xlink" aria-hidden="true" width="1em" height="1em" viewBox="0 0 24 24" data-icon="mdi:hook" data-width="1em" data-height="1em" data-inline="false" class="iconify"><path d="M18 6a3.99 3.99 0 0 1-3 3.86V17c0 2.76-2.24 5-5 5s-5-2.24-5-5v-5l5 5H7c0 1.66 1.34 3 3 3s3-1.34 3-3V9.86c-1.77-.46-3-2.06-3-3.89C10 3.76 11.8 2 14 2c2.22 0 4 1.79 4 4m-4 2c1.1 0 2-.9 2-2s-.9-2-2-2-2 .9-2 2 .9 2 2 2z" fill="#646464"/></svg>
