<?xml version="1.0"?>
<svg xmlns="http://www.w3.org/2000/svg" xmlns:xlink="http://www.w3.org/1999/xlink" aria-hidden="true" width="1em" height="1em" viewBox="0 0 24 24" data-icon="mdi:human-male-female" data-width="1em" data-height="1em" data-inline="false" class="iconify"><path d="M7.5 2c1.1 0 2 .9 2 2s-.9 2-2 2-2-.9-2-2 .9-2 2-2M6 7h3c1.1 0 2 .9 2 2v5.5H9.5V22h-4v-7.5H4V9c0-1.1.9-2 2-2m10.5-5c1.1 0 2 .9 2 2s-.9 2-2 2-2-.9-2-2 .9-2 2-2M15 22v-6h-3l2.59-7.59C14.84 7.59 15.6 7 16.5 7c.9 0 1.66.59 1.91 1.41L21 16h-3v6h-3z" fill="#646464"/></svg>
