<?xml version="1.0"?>
<svg xmlns="http://www.w3.org/2000/svg" xmlns:xlink="http://www.w3.org/1999/xlink" aria-hidden="true" width="1em" height="1em" viewBox="0 0 24 24" data-icon="mdi:human-female-boy" data-width="1em" data-height="1em" data-inline="false" class="iconify"><path d="M7.5 2c1.1 0 2 .9 2 2s-.9 2-2 2-2-.9-2-2 .9-2 2-2M6 22v-6H3l2.6-7.6c.3-.8 1-1.4 1.9-1.4.9 0 1.7.6 1.9 1.4L12 16H9v6H6m8.5-10c0-1.1.9-2 2-2s2 .9 2 2-.9 2-2 2-2-.9-2-2m-1 3h6v4H18v3h-3v-3h-1.5v-4z" fill="#646464"/></svg>
