<?xml version="1.0"?>
<svg xmlns="http://www.w3.org/2000/svg" xmlns:xlink="http://www.w3.org/1999/xlink" aria-hidden="true" width="1em" height="1em" viewBox="0 0 24 24" data-icon="mdi:human-female-female" data-width="1em" data-height="1em" data-inline="false" class="iconify"><path d="M7.5 2c1.1 0 2 .9 2 2s-.9 2-2 2-2-.9-2-2 .9-2 2-2M6 22v-6H3l2.6-7.6c.3-.8 1-1.4 1.9-1.4.9 0 1.7.6 1.9 1.4L12 16l2.6-7.6c.3-.8 1-1.4 1.9-1.4.9 0 1.7.6 1.9 1.4L21 16h-3v6h-3v-6H9v6H6M16.5 2c1.1 0 2 .9 2 2s-.9 2-2 2-2-.9-2-2 .9-2 2-2z" fill="#646464"/></svg>
