<?xml version="1.0"?>
<svg xmlns="http://www.w3.org/2000/svg" xmlns:xlink="http://www.w3.org/1999/xlink" aria-hidden="true" width="1em" height="1em" viewBox="0 0 24 24" data-icon="mdi:image-plus" data-width="1em" data-height="1em" data-inline="false" class="iconify"><path d="M5 3c-1.1 0-2 .9-2 2v14c0 1.1.9 2 2 2h9.09c-.06-.33-.09-.66-.09-1 0-.68.12-1.36.35-2H5l3.5-4.5 2.5 3 3.5-4.5 2.23 2.97c.97-.63 2.11-.97 3.27-.97.34 0 .67.03 1 .09V5a2 2 0 0 0-2-2H5m14 13v3h-3v2h3v3h2v-3h3v-2h-3v-3h-2z" fill="#646464"/></svg>
