<?xml version="1.0"?>
<svg xmlns="http://www.w3.org/2000/svg" xmlns:xlink="http://www.w3.org/1999/xlink" aria-hidden="true" width="1em" height="1em" viewBox="0 0 24 24" data-icon="mdi:image-broken" data-width="1em" data-height="1em" data-inline="false" class="iconify"><path d="M19 3c1.1 0 2 .9 2 2v6h-2v2h-2v2h-2v2h-2v2h-2v2H5a2 2 0 0 1-2-2V5c0-1.1.9-2 2-2h14m2 12v4c0 1.1-.9 2-2 2h-4v-2h2v-2h2v-2h2m-2-6.5c0-.28-.22-.5-.5-.5h-13c-.28 0-.5.22-.5.5v7c0 .28.22.5.5.5H11v-1h2v-2h2v-2h2V9h2v-.5z" fill="#646464"/></svg>
