<?xml version="1.0"?>
<svg xmlns="http://www.w3.org/2000/svg" xmlns:xlink="http://www.w3.org/1999/xlink" aria-hidden="true" width="1em" height="1em" viewBox="0 0 24 24" data-icon="mdi:image-filter-center-focus-weak" data-width="1em" data-height="1em" data-inline="false" class="iconify"><path d="M5 15H3v4c0 1.1.9 2 2 2h4v-2H5M5 5h4V3H5c-1.1 0-2 .9-2 2v4h2m14-6h-4v2h4v4h2V5c0-1.1-.9-2-2-2m0 16h-4v2h4c1.1 0 2-.9 2-2v-4h-2m-7-7c-2.21 0-4 1.79-4 4s1.79 4 4 4 4-1.79 4-4-1.79-4-4-4m0 6c-1.1 0-2-.9-2-2s.9-2 2-2 2 .9 2 2-.9 2-2 2z" fill="#646464"/></svg>
