<?xml version="1.0"?>
<svg xmlns="http://www.w3.org/2000/svg" xmlns:xlink="http://www.w3.org/1999/xlink" aria-hidden="true" width="1em" height="1em" viewBox="0 0 24 24" data-icon="mdi:image-filter-drama" data-width="1em" data-height="1em" data-inline="false" class="iconify"><path d="M19 18H6c-2.21 0-4-1.79-4-4s1.79-4 4-4 4 1.79 4 4h2c0-2.76-1.86-5.08-4.4-5.78C8.61 6.88 10.2 6 12 6c3.03 0 5.5 2.47 5.5 5.5v.5H19c1.66 0 3 1.34 3 3s-1.34 3-3 3m.35-7.96A7.49 7.49 0 0 0 12 4a7.48 7.48 0 0 0-6.64 4.04A5.996 5.996 0 0 0 0 14c0 3.31 2.69 6 6 6h13c2.76 0 5-2.24 5-5 0-2.64-2.05-4.78-4.65-4.96z" fill="#646464"/></svg>
