<?xml version="1.0"?>
<svg xmlns="http://www.w3.org/2000/svg" xmlns:xlink="http://www.w3.org/1999/xlink" aria-hidden="true" width="1em" height="1em" viewBox="0 0 24 24" data-icon="mdi:image-filter-center-focus" data-width="1em" data-height="1em" data-inline="false" class="iconify"><path d="M12 9c-1.66 0-3 1.34-3 3s1.34 3 3 3 3-1.34 3-3-1.34-3-3-3m7 10h-4v2h4c1.1 0 2-.9 2-2v-4h-2m0-12h-4v2h4v4h2V5c0-1.1-.9-2-2-2M5 5h4V3H5c-1.1 0-2 .9-2 2v4h2m0 6H3v4c0 1.1.9 2 2 2h4v-2H5v-4z" fill="#646464"/></svg>
