<?xml version="1.0"?>
<svg xmlns="http://www.w3.org/2000/svg" xmlns:xlink="http://www.w3.org/1999/xlink" aria-hidden="true" width="1em" height="1em" viewBox="0 0 24 24" data-icon="mdi:image-search" data-width="1em" data-height="1em" data-inline="false" class="iconify"><path d="M15.5 2C18 2 20 4 20 6.5c0 .88-.25 1.71-.69 2.4l3.08 3.1L21 13.39l-3.12-3.07c-.69.43-1.51.68-2.38.68C13 11 11 9 11 6.5S13 2 15.5 2m0 2a2.5 2.5 0 0 0 0 5 2.5 2.5 0 0 0 0-5m-8 10.5L4 19h14l-4.5-6-3.5 4.5-2.5-3M20 20c0 1.1-.9 2-2 2H4c-1.1 0-2-.9-2-2V6c0-1.1.9-2 2-2h5.5a6.5 6.5 0 0 0 7.96 8.7L20 15.24V20z" fill="#646464"/></svg>
