<?xml version="1.0"?>
<svg xmlns="http://www.w3.org/2000/svg" xmlns:xlink="http://www.w3.org/1999/xlink" aria-hidden="true" width="1em" height="1em" viewBox="0 0 24 24" data-icon="mdi:inbox-multiple-outline" data-width="1em" data-height="1em" data-inline="false" class="iconify"><path d="M19 3c1.1 0 2 .9 2 2v7c0 1.1-.9 2-2 2H5c-1.1 0-2-.9-2-2V5c0-1.1.9-2 2-2h14M5 10v2h4.4c-.6-.53-1.06-1.22-1.27-2H5m14 2v-2h-3.13c-.21.78-.67 1.47-1.27 2H19m0-4V5H5v3h5v1c0 1.07.93 2 2 2 1.07 0 2-.93 2-2V8h5m2 11c0 1.1-.9 2-2 2H5c-1.1 0-2-.9-2-2v-4h7v1c0 1.07.93 2 2 2 1.07 0 2-.93 2-2v-1h7v4M5 17v2h4.4c-.6-.53-1.06-1.22-1.27-2H5m14 2v-2h-3.13c-.21.78-.67 1.47-1.27 2H19z" fill="#646464"/></svg>
