<?xml version="1.0"?>
<svg xmlns="http://www.w3.org/2000/svg" xmlns:xlink="http://www.w3.org/1999/xlink" aria-hidden="true" width="1em" height="1em" viewBox="0 0 24 24" data-icon="mdi:incognito" data-width="1em" data-height="1em" data-inline="false" class="iconify"><path d="M12 3C9.31 3 7.41 4.22 7.41 4.22L6 9h12l-1.41-4.78S14.69 3 12 3m0 8c-2.73 0-6.61.54-6.87.59-1.04.28-1.88.56-2.54.82C1.58 12.75 1 13 1 13h22s-.58-.25-1.59-.59c-.66-.26-1.52-.54-2.57-.82 0 0-4.02-.59-6.84-.59m-4.5 3C5.57 14 4 15.57 4 17.5S5.57 21 7.5 21s3.5-1.57 3.5-3.5c0-.16 0-.32-.03-.47.32-.07.66-.13 1.03-.12.37 0 .71.05 1.03.12-.03.15-.03.31-.03.47 0 1.93 1.57 3.5 3.5 3.5s3.5-1.57 3.5-3.5a3.504 3.504 0 0 0-6.75-1.31c-.32-.1-.7-.19-1.25-.19s-.93.09-1.25.19A3.498 3.498 0 0 0 7.5 14m0 1a2.5 2.5 0 0 1 0 5 2.5 2.5 0 0 1 0-5m9 0a2.5 2.5 0 0 1 0 5 2.5 2.5 0 0 1 0-5z" fill="#646464"/></svg>
