<?xml version="1.0"?>
<svg xmlns="http://www.w3.org/2000/svg" xmlns:xlink="http://www.w3.org/1999/xlink" aria-hidden="true" width="1em" height="1em" viewBox="0 0 24 24" data-icon="mdi:information-variant" data-width="1em" data-height="1em" data-inline="false" class="iconify"><path d="M13.5 4c-.83 0-1.5.67-1.5 1.5S12.67 7 13.5 7 15 6.33 15 5.5 14.33 4 13.5 4m-.36 4.77c-1.19.1-4.44 2.69-4.44 2.69-.2.15-.14.14.02.42.16.27.14.29.33.16.2-.13.53-.34 1.08-.68 2.12-1.36.34 1.78-.57 7.07-.36 2.62 2 1.27 2.61.87.6-.39 2.21-1.5 2.37-1.61.22-.15.06-.27-.11-.52-.12-.17-.24-.05-.24-.05-.65.43-1.84 1.33-2 .76-.19-.57 1.03-4.48 1.7-7.17.11-.64.41-2.04-.75-1.94z" fill="#646464"/></svg>
