<?xml version="1.0"?>
<svg xmlns="http://www.w3.org/2000/svg" xmlns:xlink="http://www.w3.org/1999/xlink" aria-hidden="true" width="1em" height="1em" viewBox="0 0 24 24" data-icon="mdi:instagram" data-width="1em" data-height="1em" data-inline="false" class="iconify"><path d="M7.8 2h8.4C19.4 2 22 4.6 22 7.8v8.4c0 3.2-2.6 5.8-5.8 5.8H7.8C4.6 22 2 19.4 2 16.2V7.8C2 4.6 4.6 2 7.8 2m-.2 2C5.61 4 4 5.61 4 7.6v8.8C4 18.39 5.61 20 7.6 20h8.8c1.99 0 3.6-1.61 3.6-3.6V7.6C20 5.61 18.39 4 16.4 4H7.6m9.65 1.5a1.25 1.25 0 1 1 0 2.5 1.25 1.25 0 0 1 0-2.5M12 7c2.76 0 5 2.24 5 5s-2.24 5-5 5-5-2.24-5-5 2.24-5 5-5m0 2c-1.66 0-3 1.34-3 3s1.34 3 3 3 3-1.34 3-3-1.34-3-3-3z" fill="#646464"/></svg>
