<?xml version="1.0"?>
<svg xmlns="http://www.w3.org/2000/svg" xmlns:xlink="http://www.w3.org/1999/xlink" aria-hidden="true" width="1em" height="1em" viewBox="0 0 24 24" data-icon="mdi:ip-network" data-width="1em" data-height="1em" data-inline="false" class="iconify"><path d="M15 8h-2V6h2v2m7 11v2h-7c0 .55-.45 1-1 1h-4c-.55 0-1-.45-1-1H2v-2h7c0-.55.45-1 1-1h1v-2H7c-1.1 0-2-.9-2-2V4c0-1.1.9-2 2-2h10c1.1 0 2 .9 2 2v10c0 1.1-.9 2-2 2h-4v2h1c.55 0 1 .45 1 1h7M9 4H7v10h2V4m2 10h2v-4h2c1.1 0 2-.9 2-2V6c0-1.1-.9-2-2-2h-4v10z" fill="#646464"/></svg>
