<?xml version="1.0"?>
<svg xmlns="http://www.w3.org/2000/svg" xmlns:xlink="http://www.w3.org/1999/xlink" aria-hidden="true" width="1em" height="1em" viewBox="0 0 24 24" data-icon="mdi:itunes" data-width="1em" data-height="1em" data-inline="false" class="iconify"><path d="M7.85 17.07c-.82.1-4.35.6-3.79 3.19.63 3.04 5.81 2.33 5.77-1.26-.02-2.43 0-9.8 0-9.8s-.07-.67.6-.81l7.76-1.6s.64-.14.64.5v6.91s.07.63-.71.8c-.78.12-4.21.4-3.93 3 .31 3.07 5.81 2.65 5.81-.93V2.61s.04-.99-1.1-.74L9.5 3.78s-.84.18-.84.99v11.34s0 .85-.81.96z" fill="#646464"/></svg>
