<?xml version="1.0"?>
<svg xmlns="http://www.w3.org/2000/svg" xmlns:xlink="http://www.w3.org/1999/xlink" aria-hidden="true" width="1em" height="1em" viewBox="0 0 24 24" data-icon="mdi:jeepney" data-width="1em" data-height="1em" data-inline="false" class="iconify"><path d="M19 13V7h1V4H4v3h1v6H2c0 .93.5 1.71 1.5 1.93V20c0 .55.45 1 1 1h1c.55 0 1-.45 1-1v-1h11v1c0 .55.45 1 1 1h1c.55 0 1-.45 1-1v-5.07c1-.23 1.5-1 1.5-1.93h-3M8 15c-.83 0-1.5-.67-1.5-1.5S7.17 12 8 12s1.5.67 1.5 1.5S8.83 15 8 15m8 0c-.83 0-1.5-.67-1.5-1.5S15.17 12 16 12s1.5.67 1.5 1.5S16.83 15 16 15m1.5-4.5c-1.58-.32-3.47-.5-5.5-.5s-4 .18-5.5.5V7h11v3.5z" fill="#646464"/></svg>
