<?xml version="1.0"?>
<svg xmlns="http://www.w3.org/2000/svg" xmlns:xlink="http://www.w3.org/1999/xlink" aria-hidden="true" width="1em" height="1em" viewBox="0 0 24 24" data-icon="mdi:jira" data-width="1em" data-height="1em" data-inline="false" class="iconify"><path d="M11.53 2c0 2.4 1.97 4.35 4.35 4.35h1.78v1.7c0 2.4 1.94 4.34 4.34 4.35V2.84c0-.46-.38-.84-.84-.84h-9.63M6.77 6.8a4.362 4.362 0 0 0 4.34 4.34h1.8v1.72a4.362 4.362 0 0 0 4.34 4.34V7.63a.841.841 0 0 0-.83-.83H6.77M2 11.6c0 2.4 1.95 4.34 4.35 4.34h1.78v1.72c.01 2.39 1.95 4.34 4.34 4.34v-9.57c0-.46-.38-.84-.84-.84L2 11.6z" fill="#646464"/></svg>
