<?xml version="1.0"?>
<svg xmlns="http://www.w3.org/2000/svg" xmlns:xlink="http://www.w3.org/1999/xlink" aria-hidden="true" width="1em" height="1em" viewBox="0 0 24 24" data-icon="mdi:json" data-width="1em" data-height="1em" data-inline="false" class="iconify"><path d="M5 3h2v2H5v5c0 1.1-.9 2-2 2 1.1 0 2 .9 2 2v5h2v2H5c-1.07-.27-2-.9-2-2v-4c0-1.1-.9-2-2-2H0v-2h1c1.1 0 2-.9 2-2V5c0-1.1.9-2 2-2m14 0c1.1 0 2 .9 2 2v4c0 1.1.9 2 2 2h1v2h-1c-1.1 0-2 .9-2 2v4c0 1.1-.9 2-2 2h-2v-2h2v-5c0-1.1.9-2 2-2-1.1 0-2-.9-2-2V5h-2V3h2m-7 12c.55 0 1 .45 1 1s-.45 1-1 1-1-.45-1-1 .45-1 1-1m-4 0c.55 0 1 .45 1 1s-.45 1-1 1-1-.45-1-1 .45-1 1-1m8 0c.55 0 1 .45 1 1s-.45 1-1 1-1-.45-1-1 .45-1 1-1z" fill="#646464"/></svg>
