<?xml version="1.0"?>
<svg xmlns="http://www.w3.org/2000/svg" xmlns:xlink="http://www.w3.org/1999/xlink" aria-hidden="true" width="1em" height="1em" viewBox="0 0 24 24" data-icon="mdi:key-change" data-width="1em" data-height="1em" data-inline="false" class="iconify"><path d="M6.5 2c1.96 0 3.63 1.25 4.24 3H22v3h-4v3h-3V8h-4.26c-.61 1.75-2.28 3-4.24 3C4 11 2 9 2 6.5S4 2 6.5 2m0 3C5.67 5 5 5.67 5 6.5S5.67 8 6.5 8 8 7.33 8 6.5 7.33 5 6.5 5m0 8c1.96 0 3.63 1.25 4.24 3H22v3h-2v3h-2v-3h-2v3h-3v-3h-2.26c-.61 1.75-2.28 3-4.24 3C4 22 2 20 2 17.5S4 13 6.5 13m0 3c-.83 0-1.5.67-1.5 1.5S5.67 19 6.5 19 8 18.33 8 17.5 7.33 16 6.5 16z" fill="#646464"/></svg>
