<?xml version="1.0"?>
<svg xmlns="http://www.w3.org/2000/svg" xmlns:xlink="http://www.w3.org/1999/xlink" aria-hidden="true" width="1em" height="1em" viewBox="0 0 24 24" data-icon="mdi:key-remove" data-width="1em" data-height="1em" data-inline="false" class="iconify"><path d="M6.5 3c1.96 0 3.63 1.25 4.24 3H22v3h-4v3h-3V9h-4.26c-.61 1.75-2.28 3-4.24 3C4 12 2 10 2 7.5S4 3 6.5 3m0 3C5.67 6 5 6.67 5 7.5S5.67 9 6.5 9 8 8.33 8 7.5 7.33 6 6.5 6m8.09 8L16 15.41 13.41 18 16 20.59 14.59 22 12 19.41 9.41 22 8 20.59 10.59 18 8 15.41 9.41 14 12 16.59 14.59 14z" fill="#646464"/></svg>
