<?xml version="1.0"?>
<svg xmlns="http://www.w3.org/2000/svg" xmlns:xlink="http://www.w3.org/1999/xlink" aria-hidden="true" width="1em" height="1em" viewBox="0 0 24 24" data-icon="mdi:keyboard-settings" data-width="1em" data-height="1em" data-inline="false" class="iconify"><path d="M19 10h-2V8h2m0 5h-2v-2h2m-3-1h-2V8h2m0 5h-2v-2h2m0 6H8v-2h8m-9-5H5V8h2m0 5H5v-2h2m1 0h2v2H8m0-5h2v2H8m3 1h2v2h-2m0-5h2v2h-2m9-5H4c-1.1 0-2 .9-2 2v10c0 1.1.9 2 2 2h16c1.1 0 2-.9 2-2V7c0-1.1-.9-2-2-2M7 22h2v2H7v-2m4 0h2v2h-2v-2m4 0h2v2h-2v-2z" fill="#646464"/></svg>
