<?xml version="1.0"?>
<svg xmlns="http://www.w3.org/2000/svg" xmlns:xlink="http://www.w3.org/1999/xlink" aria-hidden="true" width="1em" height="1em" viewBox="0 0 24 24" data-icon="mdi:keyboard-close" data-width="1em" data-height="1em" data-inline="false" class="iconify"><path d="M12 23l4-4H8M19 8h-2V6h2m0 5h-2V9h2m-3-1h-2V6h2m0 5h-2V9h2m0 6H8v-2h8M7 8H5V6h2m0 5H5V9h2m1 0h2v2H8m0-5h2v2H8m3 1h2v2h-2m0-5h2v2h-2m9-5H4c-1.11 0-2 .89-2 2v10c0 1.1.9 2 2 2h16c1.1 0 2-.9 2-2V5a2 2 0 0 0-2-2z" fill="#646464"/></svg>
