<?xml version="1.0"?>
<svg xmlns="http://www.w3.org/2000/svg" xmlns:xlink="http://www.w3.org/1999/xlink" aria-hidden="true" width="1em" height="1em" viewBox="0 0 24 24" data-icon="mdi:keyboard-variant" data-width="1em" data-height="1em" data-inline="false" class="iconify"><path d="M6 16h12v2H6v-2m0-3v2H2v-2h4m1 2v-2h3v2H7m4 0v-2h2v2h-2m3 0v-2h3v2h-3m4 0v-2h4v2h-4M2 10h3v2H2v-2m17 2v-2h3v2h-3m-1 0h-2v-2h2v2M8 12H6v-2h2v2m4 0H9v-2h3v2m3 0h-2v-2h2v2M2 9V7h2v2H2m3 0V7h2v2H5m3 0V7h2v2H8m3 0V7h2v2h-2m3 0V7h2v2h-2m3 0V7h5v2h-5z" fill="#646464"/></svg>
