<?xml version="1.0"?>
<svg xmlns="http://www.w3.org/2000/svg" xmlns:xlink="http://www.w3.org/1999/xlink" aria-hidden="true" width="1em" height="1em" viewBox="0 0 24 24" data-icon="mdi:keyboard-outline" data-width="1em" data-height="1em" data-inline="false" class="iconify"><path d="M4 5c-1.1 0-2 .9-2 2v10c0 1.1.9 2 2 2h16c1.1 0 2-.9 2-2V7c0-1.1-.9-2-2-2H4m0 2h16v10H4V7m1 1v2h2V8H5m3 0v2h2V8H8m3 0v2h2V8h-2m3 0v2h2V8h-2m3 0v2h2V8h-2M5 11v2h2v-2H5m3 0v2h2v-2H8m3 0v2h2v-2h-2m3 0v2h2v-2h-2m3 0v2h2v-2h-2m-9 3v2h8v-2H8z" fill="#646464"/></svg>
