<?xml version="1.0"?>
<svg xmlns="http://www.w3.org/2000/svg" xmlns:xlink="http://www.w3.org/1999/xlink" aria-hidden="true" width="1em" height="1em" viewBox="0 0 24 24" data-icon="mdi:label-off-outline" data-width="1em" data-height="1em" data-inline="false" class="iconify"><path d="M2 4.27L3.28 3 20 19.72 18.73 21l-2.1-2.1c-.2.06-.41.1-.63.1H5c-1.1 0-2-.9-2-2V7c0-.5.17-.93.46-1.27L2 4.27M5 17h9.73L5 7.27V17m14.55-5L16 7H9.82L7.83 5H16c.67 0 1.27.33 1.63.84L22 12l-3 4.2-1.41-1.44L19.55 12z" fill="#646464"/></svg>
