<?xml version="1.0"?>
<svg xmlns="http://www.w3.org/2000/svg" xmlns:xlink="http://www.w3.org/1999/xlink" aria-hidden="true" width="1em" height="1em" viewBox="0 0 24 24" data-icon="mdi:lan" data-width="1em" data-height="1em" data-inline="false" class="iconify"><path d="M10 2c-1.11 0-2 .89-2 2v3c0 1.11.89 2 2 2h1v2H2v2h4v2H5c-1.11 0-2 .89-2 2v3c0 1.11.89 2 2 2h4c1.11 0 2-.89 2-2v-3c0-1.11-.89-2-2-2H8v-2h8v2h-1c-1.11 0-2 .89-2 2v3c0 1.11.89 2 2 2h4c1.11 0 2-.89 2-2v-3c0-1.11-.89-2-2-2h-1v-2h4v-2h-9V9h1c1.11 0 2-.89 2-2V4c0-1.11-.89-2-2-2h-4m0 2h4v3h-4V4M5 17h4v3H5v-3m10 0h4v3h-4v-3z" fill="#646464"/></svg>
