<?xml version="1.0"?>
<svg xmlns="http://www.w3.org/2000/svg" xmlns:xlink="http://www.w3.org/1999/xlink" aria-hidden="true" width="1em" height="1em" viewBox="0 0 24 24" data-icon="mdi:language-python-text" data-width="1em" data-height="1em" data-inline="false" class="iconify"><path d="M2 5.69c6.92-4.62 9.1 1.31 9.28 4.58.18 3.26-2.99 7.37-6.97 4.65v5.38L2 18.77V5.69M4.22 7.4v5.38c3.62 2.17 4.86.39 4.86-2.69 0-4.35-2.51-4.5-4.86-2.69m10.86-3.25s-.18 3.49 0 6.92c.36 3.43 4.61.77 4.61.77V4.92L22 5.2v9.24c0 6.16-6.15 5.86-6.15 5.86l-.77-2.3c5.38 0 4.7-3.57 4.7-3.57-6.51 2.54-7.01-1.82-7.01-1.82V5.69l2.31-1.54z" fill="#646464"/></svg>
