<?xml version="1.0"?>
<svg xmlns="http://www.w3.org/2000/svg" xmlns:xlink="http://www.w3.org/1999/xlink" aria-hidden="true" width="1em" height="1em" viewBox="0 0 24 24" data-icon="mdi:lastfm" data-width="1em" data-height="1em" data-inline="false" class="iconify"><path d="M18 17.93c-2.08-.01-3.19-1.03-3.96-2.84l-.22-.49-1.9-4.37c-.63-1.54-2.2-2.59-3.96-2.59-2.39 0-4.33 1.95-4.33 4.36s1.94 4.36 4.33 4.36c1.66 0 3.12-.95 3.84-2.36l.77 1.81A5.893 5.893 0 0 1 7.96 18C4.67 18 2 15.32 2 12c0-3.31 2.67-6 5.96-6 2.48 0 4.49 1.34 5.51 3.7.07.19 1.07 2.54 1.95 4.54.54 1.26 1 2.07 2.49 2.12 1.47.05 2.48-.86 2.48-1.99 0-1.11-.77-1.37-2.07-1.81-2.32-.77-3.53-1.56-3.53-3.41 0-1.82 1.21-3.03 3.21-3.03 1.31 0 2.24.58 2.89 1.74l-1.27.64c-.48-.66-1.01-.93-1.68-.93-.94 0-1.61.66-1.61 1.53 0 1.24 1.1 1.43 2.64 1.93 2.07.68 3.03 1.47 3.03 3.39 0 2.03-1.73 3.51-4 3.51z" fill="#646464"/></svg>
