<?xml version="1.0"?>
<svg xmlns="http://www.w3.org/2000/svg" xmlns:xlink="http://www.w3.org/1999/xlink" aria-hidden="true" width="1em" height="1em" viewBox="0 0 24 24" data-icon="mdi:lava-lamp" data-width="1em" data-height="1em" data-inline="false" class="iconify"><path d="M10 3L8 16h8L14 3h-4m1.5 2.75c.41 0 .75.34.75.75s-.34.75-.75.75-.75-.34-.75-.75.34-.75.75-.75m1 2.75c.55 0 1 .45 1 1s-.45 1-1 1-1-.45-1-1 .45-1 1-1m-1 3.5c.83 0 1.5.67 1.5 1.5s-.67 1.5-1.5 1.5-1.5-.67-1.5-1.5.67-1.5 1.5-1.5M8 17l2 2-2 2h8l-2-2 2-2H8z" fill="#646464"/></svg>
