<?xml version="1.0"?>
<svg xmlns="http://www.w3.org/2000/svg" xmlns:xlink="http://www.w3.org/1999/xlink" aria-hidden="true" width="1em" height="1em" viewBox="0 0 24 24" data-icon="mdi:led-strip" data-width="1em" data-height="1em" data-inline="false" class="iconify"><path d="M2.81 8.46L14.83 20.5l.71-.72 1.41 1.41 1.41-1.41-1.41-1.42 1.41-1.41 1.42 1.41 1.41-1.41-1.41-1.41.72-.71L8.46 2.81 2.81 8.46m2.83 0l2.82-2.82 9.2 9.19-2.83 2.83-9.19-9.2m1.41 0l1.41 1.42 1.42-1.42-1.42-1.41-1.41 1.41m2.12 2.13L10.59 12 12 10.59l-1.41-1.42-1.42 1.42m2.12 2.12l1.42 1.41 1.41-1.41-1.41-1.42-1.42 1.42m2.12 2.12l1.42 1.41 1.41-1.41-1.41-1.42-1.42 1.42z" fill="#646464"/></svg>
