<?xml version="1.0"?>
<svg xmlns="http://www.w3.org/2000/svg" xmlns:xlink="http://www.w3.org/1999/xlink" aria-hidden="true" width="1em" height="1em" viewBox="0 0 24 24" data-icon="mdi:lightbulb-outline" data-width="1em" data-height="1em" data-inline="false" class="iconify"><path d="M12 2c3.87 0 7 3.13 7 7 0 2.38-1.19 4.47-3 5.74V17c0 .55-.45 1-1 1H9c-.55 0-1-.45-1-1v-2.26C6.19 13.47 5 11.38 5 9c0-3.87 3.13-7 7-7M9 21v-1h6v1c0 .55-.45 1-1 1h-4c-.55 0-1-.45-1-1m3-17C9.24 4 7 6.24 7 9c0 2.05 1.23 3.81 3 4.58V16h4v-2.42c1.77-.77 3-2.53 3-4.58 0-2.76-2.24-5-5-5z" fill="#646464"/></svg>
