<?xml version="1.0"?>
<svg xmlns="http://www.w3.org/2000/svg" xmlns:xlink="http://www.w3.org/1999/xlink" aria-hidden="true" width="1em" height="1em" viewBox="0 0 24 24" data-icon="mdi:lightbulb-on" data-width="1em" data-height="1em" data-inline="false" class="iconify"><path d="M12 6c3.31 0 6 2.69 6 6 0 2.22-1.21 4.16-3 5.2V19c0 .55-.45 1-1 1h-4c-.55 0-1-.45-1-1v-1.8c-1.79-1.04-3-2.98-3-5.2 0-3.31 2.69-6 6-6m2 15v1c0 .55-.45 1-1 1h-2c-.55 0-1-.45-1-1v-1h4m6-10h3v2h-3v-2M1 11h3v2H1v-2M13 1v3h-2V1h2M4.92 3.5l2.13 2.14-1.42 1.41L3.5 4.93 4.92 3.5m12.03 2.13l2.12-2.13 1.43 1.43-2.13 2.12-1.42-1.42z" fill="#646464"/></svg>
