<?xml version="1.0"?>
<svg xmlns="http://www.w3.org/2000/svg" xmlns:xlink="http://www.w3.org/1999/xlink" aria-hidden="true" width="1em" height="1em" viewBox="0 0 24 24" data-icon="mdi:linkedin-box" data-width="1em" data-height="1em" data-inline="false" class="iconify"><path d="M19 3c1.1 0 2 .9 2 2v14c0 1.1-.9 2-2 2H5c-1.1 0-2-.9-2-2V5c0-1.1.9-2 2-2h14m-.5 15.5v-5.3c0-1.8-1.46-3.26-3.26-3.26-.85 0-1.84.52-2.32 1.3v-1.11h-2.79v8.37h2.79v-4.93c0-.77.62-1.4 1.39-1.4.77 0 1.4.63 1.4 1.4v4.93h2.79M6.88 8.56a1.686 1.686 0 0 0 0-3.37c-.93 0-1.69.76-1.69 1.69 0 .93.76 1.68 1.69 1.68m1.39 9.94v-8.37H5.5v8.37h2.77z" fill="#646464"/></svg>
