<?xml version="1.0"?>
<svg xmlns="http://www.w3.org/2000/svg" xmlns:xlink="http://www.w3.org/1999/xlink" aria-hidden="true" width="1em" height="1em" viewBox="0 0 24 24" data-icon="mdi:lock-clock" data-width="1em" data-height="1em" data-inline="false" class="iconify"><path d="M8.5 2C6 2 4 4 4 6.5V7c-1.11 0-2 .89-2 2v9c0 1.11.89 2 2 2h4.72c1.46 1.29 3.34 2 5.28 2 4.42 0 8-3.58 8-8s-3.58-8-8-8c-.34 0-.68.03-1 .08C12.76 3.77 10.82 2 8.5 2m0 2A2.5 2.5 0 0 1 11 6.5V7H6v-.5A2.5 2.5 0 0 1 8.5 4M14 8c3.31 0 6 2.69 6 6s-2.69 6-6 6-6-2.69-6-6 2.69-6 6-6m-1 2v5l3.64 2.19.78-1.29-2.92-1.75V10H13z" fill="#646464"/></svg>
