<?xml version="1.0"?>
<svg xmlns="http://www.w3.org/2000/svg" xmlns:xlink="http://www.w3.org/1999/xlink" aria-hidden="true" width="1em" height="1em" viewBox="0 0 24 24" data-icon="mdi:lock-pattern" data-width="1em" data-height="1em" data-inline="false" class="iconify"><path d="M7 3a3.999 3.999 0 0 1 1 7.87v2.26c.37.09.72.24 1.04.43l4.52-4.52C13.2 8.44 13 7.75 13 7c0-2.21 1.79-4 4-4s4 1.79 4 4-1.79 4-4 4c-.74 0-1.43-.2-2-.55L10.45 15c.35.57.55 1.26.55 2 0 2.21-1.79 4-4 4a3.999 3.999 0 0 1-1-7.87v-2.26A3.999 3.999 0 0 1 7 3m10 10c2.21 0 4 1.79 4 4s-1.79 4-4 4-4-1.79-4-4 1.79-4 4-4m0 2c-1.1 0-2 .9-2 2s.9 2 2 2 2-.9 2-2-.9-2-2-2z" fill="#646464"/></svg>
