<?xml version="1.0"?>
<svg xmlns="http://www.w3.org/2000/svg" xmlns:xlink="http://www.w3.org/1999/xlink" aria-hidden="true" width="1em" height="1em" viewBox="0 0 24 24" data-icon="mdi:lock-smart" data-width="1em" data-height="1em" data-inline="false" class="iconify"><path d="M12 2C8.69 2 6 4.69 6 8v8c0 3.31 2.69 6 6 6s6-2.69 6-6V8c0-3.31-2.69-6-6-6M8 6h2v2H8V6m3 0h2v2h-2V6m3 0h2v2h-2V6M8 9h2v2H8V9m3 0h2v2h-2V9m3 0h2v2h-2V9m-6 3h2v2H8v-2m3 0h2v2h-2v-2m3 0h2v2h-2v-2m-2 4c1.1 0 2 .9 2 2s-.9 2-2 2-2-.9-2-2 .9-2 2-2z" fill="#646464"/></svg>
