<?xml version="1.0"?>
<svg xmlns="http://www.w3.org/2000/svg" xmlns:xlink="http://www.w3.org/1999/xlink" aria-hidden="true" width="1em" height="1em" viewBox="0 0 24 24" data-icon="mdi:lock-alert" data-width="1em" data-height="1em" data-inline="false" class="iconify"><path d="M12 1C9.24 1 7 3.24 7 6v2H6c-1.1 0-2 .9-2 2v10c0 1.1.9 2 2 2h12c1.1 0 2-.9 2-2V10c0-1.1-.9-2-2-2h-1V6c0-2.76-2.24-5-5-5m0 1.9c1.71 0 3.1 1.39 3.1 3.1v2H8.9V6c0-1.71 1.39-3.1 3.1-3.1M11 11h2v4h-2v-4m0 6h2v2h-2v-2z" fill="#646464"/></svg>
