<?xml version="1.0"?>
<svg xmlns="http://www.w3.org/2000/svg" xmlns:xlink="http://www.w3.org/1999/xlink" aria-hidden="true" width="1em" height="1em" viewBox="0 0 24 24" data-icon="mdi:lock-outline" data-width="1em" data-height="1em" data-inline="false" class="iconify"><path d="M12 17a2 2 0 0 1-2-2c0-1.11.89-2 2-2 1.1 0 2 .9 2 2s-.9 2-2 2m6 3V10H6v10h12m0-12c1.1 0 2 .9 2 2v10c0 1.1-.9 2-2 2H6a2 2 0 0 1-2-2V10c0-1.11.89-2 2-2h1V6c0-2.76 2.24-5 5-5s5 2.24 5 5v2h1m-6-5c-1.66 0-3 1.34-3 3v2h6V6c0-1.66-1.34-3-3-3z" fill="#646464"/></svg>
