<?xml version="1.0"?>
<svg xmlns="http://www.w3.org/2000/svg" xmlns:xlink="http://www.w3.org/1999/xlink" aria-hidden="true" width="1em" height="1em" viewBox="0 0 24 24" data-icon="mdi:lyft" data-width="1em" data-height="1em" data-inline="false" class="iconify"><path d="M9.56 12.5c0 .1-.06.22-.16.29a.49.49 0 0 1-.81-.38V8.5H5.66v4.89c0 1.35 1.09 2.44 2.44 2.44.58 0 1.14-.21 1.58-.59-.04.36-.25.69-.57.87-.36.2-.76.31-1.17.3-.48 0-.94-.11-1.38-.32L6.39 16v2.6c.65.26 1.35.4 2.05.4 1.03 0 2.02-.34 2.81-1 .83-.75 1.29-1.82 1.25-2.94V8.5H9.56v4m-4.63.89v-7.8H2v7.31c-.16 1.45.88 2.75 2.33 2.91.08.01.17.02.23.02.37 0 .73-.09 1.07-.24l.12-.09-.1-.09c-.48-.56-.74-1.28-.72-2.02m17.07-2V8.5h-1c-.41-2.12-2.47-3.5-4.59-3.09-.24.04-.47.09-.7.2a4.102 4.102 0 0 0-2.45 3.57v6.65h.13c1.56-.07 2.8-1.36 2.8-2.93h1.22V10h-1.26v-.83c0-.31.17-.6.44-.76a.998.998 0 0 1 1.51.83v2.69a3.84 3.84 0 0 0 3.77 3.9H22V12.9c-.55 0-1-.45-1-1v-.49l1-.02z" fill="#646464"/></svg>
