<?xml version="1.0"?>
<svg xmlns="http://www.w3.org/2000/svg" xmlns:xlink="http://www.w3.org/1999/xlink" aria-hidden="true" width="1em" height="1em" viewBox="0 0 24 24" data-icon="mdi:magnify-plus-outline" data-width="1em" data-height="1em" data-inline="false" class="iconify"><path d="M15.5 14l5 5-1.5 1.5-5-5v-.79l-.27-.28A6.471 6.471 0 0 1 9.5 16 6.5 6.5 0 1 1 16 9.5c0 1.61-.59 3.09-1.57 4.23l.28.27h.79m-6 0C12 14 14 12 14 9.5S12 5 9.5 5 5 7 5 9.5 7 14 9.5 14m2.5-4h-2v2H9v-2H7V9h2V7h1v2h2v1z" fill="#646464"/></svg>
