<?xml version="1.0"?>
<svg xmlns="http://www.w3.org/2000/svg" xmlns:xlink="http://www.w3.org/1999/xlink" aria-hidden="true" width="1em" height="1em" viewBox="0 0 24 24" data-icon="mdi:magnify-minus-outline" data-width="1em" data-height="1em" data-inline="false" class="iconify"><path d="M15.5 14h-.79l-.28-.27A6.471 6.471 0 0 0 16 9.5 6.5 6.5 0 1 0 9.5 16c1.61 0 3.09-.59 4.23-1.57l.27.28v.79l5 5 1.5-1.5-5-5m-6 0C7 14 5 12 5 9.5S7 5 9.5 5 14 7 14 9.5 12 14 9.5 14M7 9h5v1H7V9z" fill="#646464"/></svg>
