<?xml version="1.0"?>
<svg xmlns="http://www.w3.org/2000/svg" xmlns:xlink="http://www.w3.org/1999/xlink" aria-hidden="true" width="1em" height="1em" viewBox="0 0 24 24" data-icon="mdi:magnify-close" data-width="1em" data-height="1em" data-inline="false" class="iconify"><path d="M9 2c3.87 0 7 3.13 7 7 0 1.5-.5 3-1.39 4.19l.8.81H16l6 6-2 2-6-6v-.59l-.81-.8A7.07 7.07 0 0 1 9 16c-3.87 0-7-3.13-7-7s3.13-7 7-7m2.12 3.46L9 7.59 6.88 5.46 5.46 6.88 7.59 9l-2.13 2.12 1.42 1.42L9 10.41l2.12 2.13 1.42-1.42L10.41 9l2.13-2.12-1.42-1.42z" fill="#646464"/></svg>
