<?xml version="1.0"?>
<svg xmlns="http://www.w3.org/2000/svg" xmlns:xlink="http://www.w3.org/1999/xlink" aria-hidden="true" width="1em" height="1em" viewBox="0 0 24 24" data-icon="mdi:map-marker-multiple" data-width="1em" data-height="1em" data-inline="false" class="iconify"><path d="M14 11.5a2.5 2.5 0 0 0 0-5 2.5 2.5 0 0 0 0 5M14 2c3.86 0 7 3.13 7 7 0 5.25-7 13-7 13S7 14.25 7 9c0-3.87 3.13-7 7-7M5 9c0 4.5 5.08 10.66 6 11.81L10 22S3 14.25 3 9c0-3.17 2.11-5.85 5-6.71C6.16 3.94 5 6.33 5 9z" fill="#646464"/></svg>
