<?xml version="1.0"?>
<svg xmlns="http://www.w3.org/2000/svg" xmlns:xlink="http://www.w3.org/1999/xlink" aria-hidden="true" width="1em" height="1em" viewBox="0 0 24 24" data-icon="mdi:map-marker-distance" data-width="1em" data-height="1em" data-inline="false" class="iconify"><path d="M6.5 8.11a1.609 1.609 0 1 1 0-3.22 1.609 1.609 0 1 1 0 3.22M6.5 2C4 2 2 4 2 6.5c0 3.37 4.5 8.36 4.5 8.36S11 9.87 11 6.5C11 4 9 2 6.5 2m11 6.11a1.609 1.609 0 1 1 0-3.22 1.609 1.609 0 1 1 0 3.22m0-6.11C15 2 13 4 13 6.5c0 3.37 4.5 8.36 4.5 8.36S22 9.87 22 6.5C22 4 20 2 17.5 2m0 14c-1.27 0-2.4.8-2.82 2H9.32a3 3 0 0 0-3.82-1.83A3.003 3.003 0 0 0 3.66 20a3.017 3.017 0 0 0 3.84 1.83c.85-.3 1.5-.98 1.82-1.83h5.37c.55 1.56 2.27 2.38 3.81 1.83A3 3 0 0 0 20.35 18c-.43-1.2-1.57-2-2.85-2m0 4.5c-.83 0-1.5-.67-1.5-1.5s.67-1.5 1.5-1.5 1.5.67 1.5 1.5-.67 1.5-1.5 1.5z" fill="#646464"/></svg>
