<?xml version="1.0"?>
<svg xmlns="http://www.w3.org/2000/svg" xmlns:xlink="http://www.w3.org/1999/xlink" aria-hidden="true" width="1em" height="1em" viewBox="0 0 24 24" data-icon="mdi:map-marker-circle" data-width="1em" data-height="1em" data-inline="false" class="iconify"><path d="M12 20c-4.42 0-8-3.58-8-8s3.58-8 8-8 8 3.58 8 8-3.58 8-8 8m0-18C6.48 2 2 6.48 2 12s4.48 10 10 10 10-4.48 10-10S17.52 2 12 2m0 10.5c-.83 0-1.5-.67-1.5-1.5s.67-1.5 1.5-1.5 1.5.67 1.5 1.5-.67 1.5-1.5 1.5m0-5.3c-2.1 0-3.8 1.7-3.8 3.8 0 3 3.8 6.5 3.8 6.5s3.8-3.5 3.8-6.5c0-2.1-1.7-3.8-3.8-3.8z" fill="#646464"/></svg>
