<?xml version="1.0"?>
<svg xmlns="http://www.w3.org/2000/svg" xmlns:xlink="http://www.w3.org/1999/xlink" aria-hidden="true" width="1em" height="1em" viewBox="0 0 24 24" data-icon="mdi:mapbox" data-width="1em" data-height="1em" data-inline="false" class="iconify"><path d="M12 2c5.52 0 10 4.48 10 10s-4.48 10-10 10S2 17.52 2 12 6.48 2 12 2m4.75 12.45c1.9-1.9 1.83-5.06-.16-7.04-1.99-1.98-5.14-2.06-7.04-.16-3.43 3.43-2.33 9.53-2.33 9.53s6.11 1.09 9.53-2.33m-3.6-6.59l.98 2.01 2.01.98-2.01.98-.98 2.01-.98-2.01-2.01-.98 2.01-.98.98-2.01z" fill="#646464"/></svg>
