<?xml version="1.0"?>
<svg xmlns="http://www.w3.org/2000/svg" xmlns:xlink="http://www.w3.org/1999/xlink" aria-hidden="true" width="1em" height="1em" viewBox="0 0 24 24" data-icon="mdi:margin" data-width="1em" data-height="1em" data-inline="false" class="iconify"><path d="M20 4v5l-1.5-1.5-13 13-2-2 13-13L15 4h5m-3 16c-1.66 0-3-1.34-3-3v-2c0-1.66 1.34-3 3-3s3 1.34 3 3v2c0 1.66-1.34 3-3 3m0-6c-.55 0-1 .45-1 1v2c0 .55.45 1 1 1s1-.45 1-1v-2c0-.55-.45-1-1-1M7 12c-1.66 0-3-1.34-3-3V7c0-1.66 1.34-3 3-3s3 1.34 3 3v2c0 1.66-1.34 3-3 3m0-6c-.55 0-1 .45-1 1v2c0 .55.45 1 1 1s1-.45 1-1V7c0-.55-.45-1-1-1z" fill="#646464"/></svg>
