<?xml version="1.0"?>
<svg xmlns="http://www.w3.org/2000/svg" xmlns:xlink="http://www.w3.org/1999/xlink" aria-hidden="true" width="1em" height="1em" viewBox="0 0 24 24" data-icon="mdi:math-compass" data-width="1em" data-height="1em" data-inline="false" class="iconify"><path d="M13 4.2V3c0-.6-.4-1-1-1v2.2C9.8 4.6 9 5.7 9 7c0 .8.3 1.5.8 2L4 19.9V22l2.2-2 5.4-10h.4c1.7 0 3-1.3 3-3 0-1.3-.8-2.4-2-2.8m-.1 3.3c-.2.3-.5.5-.9.5-.6 0-1-.4-1-1 0-.2.1-.3.1-.5.2-.3.5-.5.9-.5.6 0 1 .4 1 1 0 .2-.1.3-.1.5M20 19.9V22l-2.2-2-4.4-8.2c.7-.2 1.3-.5 1.8-.9l4.8 9z" fill="#646464"/></svg>
