<?xml version="1.0"?>
<svg xmlns="http://www.w3.org/2000/svg" xmlns:xlink="http://www.w3.org/1999/xlink" aria-hidden="true" width="1em" height="1em" viewBox="0 0 24 24" data-icon="mdi:microscope" data-width="1em" data-height="1em" data-inline="false" class="iconify"><path d="M9.46 6.28L11.05 9c-2.58.26-4.55 2.41-4.55 5 0 2.76 2.24 5 5 5 2.05 0 3.81-1.23 4.58-3H13.5v-2h8v2h-2.25a8.048 8.048 0 0 1-2.46 4h2.71v2h-16v-2h2.71a7.99 7.99 0 0 1-2.71-6c0-3.63 2.46-6.8 5.96-7.72m3.28-4.21l.76 1.3.86-.5 3.5 6.06-3.47 2-3.5-6.06.87-.5-.76-1.3 1.74-1z" fill="#646464"/></svg>
