<?xml version="1.0"?>
<svg xmlns="http://www.w3.org/2000/svg" xmlns:xlink="http://www.w3.org/1999/xlink" aria-hidden="true" width="1em" height="1em" viewBox="0 0 24 24" data-icon="mdi:microphone-variant" data-width="1em" data-height="1em" data-inline="false" class="iconify"><path d="M9 3c2.21 0 4 1.79 4 4H5c0-2.21 1.79-4 4-4m2.84 6.82L11 18h-1v1c0 1.1.9 2 2 2s2-.9 2-2v-5c0-2.21 1.79-4 4-4h2l-1 1 1 1h-2c-1.1 0-2 .9-2 2v5c0 2.21-1.79 4-4 4s-4-1.79-4-4v-1H7l-.84-8.18C5.67 9.32 5.31 8.7 5.13 8h7.74c-.18.7-.54 1.32-1.03 1.82M9 11c-.55 0-1 .45-1 1s.45 1 1 1 1-.45 1-1-.45-1-1-1z" fill="#646464"/></svg>
