<?xml version="1.0"?>
<svg xmlns="http://www.w3.org/2000/svg" xmlns:xlink="http://www.w3.org/1999/xlink" aria-hidden="true" width="1em" height="1em" viewBox="0 0 24 24" data-icon="mdi:microphone-outline" data-width="1em" data-height="1em" data-inline="false" class="iconify"><path d="M17.3 11c0 3-2.54 5.1-5.3 5.1S6.7 14 6.7 11H5c0 3.41 2.72 6.23 6 6.72V21h2v-3.28c3.28-.49 6-3.31 6-6.72m-8.2-6.1c0-.66.54-1.2 1.2-1.2.66 0 1.2.54 1.2 1.2l-.01 6.2c0 .66-.53 1.2-1.19 1.2-.66 0-1.2-.54-1.2-1.2M12 14c1.66 0 3-1.34 3-3V5c0-1.66-1.34-3-3-3S9 3.34 9 5v6c0 1.66 1.34 3 3 3z" fill="#646464"/></svg>
