<?xml version="1.0"?>
<svg xmlns="http://www.w3.org/2000/svg" xmlns:xlink="http://www.w3.org/1999/xlink" aria-hidden="true" width="1em" height="1em" viewBox="0 0 24 24" data-icon="mdi:microphone-settings" data-width="1em" data-height="1em" data-inline="false" class="iconify"><path d="M19 10h-1.7c0 3-2.54 5.1-5.3 5.1S6.7 13 6.7 10H5c0 3.41 2.72 6.23 6 6.72V20h2v-3.28c3.28-.49 6-3.31 6-6.72m-4 14h2v-2h-2m-4 2h2v-2h-2m1-9c1.66 0 3-1.34 3-3V4c0-1.66-1.34-3-3-3S9 2.34 9 4v6c0 1.66 1.34 3 3 3M7 24h2v-2H7v2z" fill="#646464"/></svg>
