<?xml version="1.0"?>
<svg xmlns="http://www.w3.org/2000/svg" xmlns:xlink="http://www.w3.org/1999/xlink" aria-hidden="true" width="1em" height="1em" viewBox="0 0 24 24" data-icon="mdi:minidisc" data-width="1em" data-height="1em" data-inline="false" class="iconify"><path d="M5 3c-1.11 0-2 .89-2 2v14c0 1.1.9 2 2 2h14c1.1 0 2-.9 2-2V5a2 2 0 0 0-2-2H5m7 2a7 7 0 0 1 6.7 5H16c-.55 0-1 .45-1 1v2c0 .55.45 1 1 1h2.71c-.89 2.97-3.62 5-6.71 5-3.87 0-7-3.13-7-7s3.13-7 7-7m0 5c-1.1 0-2 .9-2 2s.9 2 2 2 2-.9 2-2-.9-2-2-2z" fill="#646464"/></svg>
