<?xml version="1.0"?>
<svg xmlns="http://www.w3.org/2000/svg" xmlns:xlink="http://www.w3.org/1999/xlink" aria-hidden="true" width="1em" height="1em" viewBox="0 0 24 24" data-icon="mdi:mixed-reality" data-width="1em" data-height="1em" data-inline="false" class="iconify"><path d="M5 3h14c1.1 0 2 .9 2 2v14c0 1.1-.9 2-2 2H5a2 2 0 0 1-2-2V5c0-1.1.9-2 2-2m3.25 12h1.5l1-3.43V15h1.5V9H10l-1 3.43L8 9H5.75v6h1.5v-3.43l1 3.43m5.25-6v6H15v-2h1.15l.85 2h1.5l-.9-2.1c.5-.25.9-.8.9-1.4v-1c0-.85-.65-1.5-1.5-1.5h-3.5m1.5 1.5h2v1h-2v-1z" fill="#646464"/></svg>
