<?xml version="1.0"?>
<svg xmlns="http://www.w3.org/2000/svg" xmlns:xlink="http://www.w3.org/1999/xlink" aria-hidden="true" width="1em" height="1em" viewBox="0 0 24 24" data-icon="mdi:molecule" data-width="1em" data-height="1em" data-inline="false" class="iconify"><path d="M7.27 10L9 7h5.42l1.16-2-.08-.5c0-.83.67-1.5 1.5-1.5a1.498 1.498 0 0 1 .33 2.96l-.96 1.67L17.73 10l.86-1.5-.09-.5c0-.83.67-1.5 1.5-1.5s1.5.67 1.5 1.5c0 .71-.5 1.3-1.15 1.46L18.89 12l1.73 3c.77.07 1.38.71 1.38 1.5 0 .83-.67 1.5-1.5 1.5s-1.5-.67-1.5-1.5v-.26L17.73 14l-1.36 2.37.96 1.67A1.498 1.498 0 0 1 17 21c-.83 0-1.5-.67-1.5-1.5l.08-.5-1.16-2h-3.84l-1.16 2 .08.5c0 .83-.67 1.5-1.5 1.5a1.498 1.498 0 0 1-.33-2.96l.96-1.67L4.38 9C3.61 8.93 3 8.29 3 7.5 3 6.67 3.67 6 4.5 6S6 6.67 6 7.5v.26L7.27 10m2.88-1l-1.73 3 1.73 3h4.7l1.73-3-1.73-3h-4.7z" fill="#646464"/></svg>
