<?xml version="1.0"?>
<svg xmlns="http://www.w3.org/2000/svg" xmlns:xlink="http://www.w3.org/1999/xlink" aria-hidden="true" width="1em" height="1em" viewBox="0 0 24 24" data-icon="mdi:monitor-cellphone-star" data-width="1em" data-height="1em" data-inline="false" class="iconify"><path d="M23 11h-5c-.55 0-1 .45-1 1v9c0 .55.45 1 1 1h5c.55 0 1-.45 1-1v-9c0-.55-.45-1-1-1m0 9h-5v-7h5v7M20 2H2C.89 2 0 2.89 0 4v12c0 1.1.9 2 2 2h7v2H7v2h8v-2h-2v-2h2v-2H2V4h18v5h2V4a2 2 0 0 0-2-2m-8.03 7L11 6l-.97 3H7l2.47 1.76-.94 2.91 2.47-1.8 2.47 1.8-.94-2.91L15 9h-3.03z" fill="#646464"/></svg>
