<?xml version="1.0"?>
<svg xmlns="http://www.w3.org/2000/svg" xmlns:xlink="http://www.w3.org/1999/xlink" aria-hidden="true" width="1em" height="1em" viewBox="0 0 24 24" data-icon="mdi:mouse-bluetooth" data-width="1em" data-height="1em" data-inline="false" class="iconify"><path d="M20 7h.5l2.85 2.85L21.21 12l2.14 2.14L20.5 17H20v-3.79l-2.29 2.29-.71-.71L19.79 12 17 9.21l.71-.71L20 10.79V7m1 1.91v1.88l.94-.94-.94-.94m0 4.3v1.87l.94-.94-.94-.93M15 9v1H9V2.07c3.39.49 6 3.4 6 6.93M1 10V9c0-3.53 2.61-6.44 6-6.93V10H1m14 5c0 3.87-3.13 7-7 7s-7-3.13-7-7v-3h14v3z" fill="#646464"/></svg>
