<?xml version="1.0"?>
<svg xmlns="http://www.w3.org/2000/svg" xmlns:xlink="http://www.w3.org/1999/xlink" aria-hidden="true" width="1em" height="1em" viewBox="0 0 24 24" data-icon="mdi:mouse-variant" data-width="1em" data-height="1em" data-inline="false" class="iconify"><path d="M14 7h-4V2.1A5 5 0 0 1 14 7M4 7a5 5 0 0 1 4-4.9V7H4m10 5a5 5 0 0 1-4 4.9V18c0 1.66 1.34 3 3 3s3-1.34 3-3v-5c0-2.21 1.79-4 4-4h2l-1 1 1 1h-2c-1.1 0-2 .9-2 2v5c0 2.76-2.24 5-5 5s-5-2.24-5-5v-1.1A5 5 0 0 1 4 12V9h10v3z" fill="#646464"/></svg>
