<?xml version="1.0"?>
<svg xmlns="http://www.w3.org/2000/svg" xmlns:xlink="http://www.w3.org/1999/xlink" aria-hidden="true" width="1em" height="1em" viewBox="0 0 24 24" data-icon="mdi:mouse-off" data-width="1em" data-height="1em" data-inline="false" class="iconify"><path d="M2 5.27L3.28 4 20 20.72 18.73 22l-1.23-1.21A7.892 7.892 0 0 1 12 23c-4.42 0-8-3.58-8-8v-4h3.73l-2-2H4c0-.54.05-1.07.15-1.58L2 5.27m9-4.2V9h-.18L5.79 3.96A7.95 7.95 0 0 1 11 1.07M20 11v4c0 .95-.17 1.86-.47 2.71L12.82 11H20m-7-9.93c3.94.49 7 3.85 7 7.93h-7V1.07z" fill="#646464"/></svg>
