<?xml version="1.0"?>
<svg xmlns="http://www.w3.org/2000/svg" xmlns:xlink="http://www.w3.org/1999/xlink" aria-hidden="true" width="1em" height="1em" viewBox="0 0 24 24" data-icon="mdi:movie-roll" data-width="1em" data-height="1em" data-inline="false" class="iconify"><path d="M12 2c5.52 0 10 4.48 10 10s-4.48 10-10 10S2 17.52 2 12 6.48 2 12 2m0 2a2.5 2.5 0 0 0 0 5 2.5 2.5 0 0 0 0-5M4.4 9.53A2.5 2.5 0 0 0 6 12.68c1.32.42 2.73-.29 3.15-1.61a2.5 2.5 0 0 0-1.6-3.15c-1.31-.42-2.73.29-3.15 1.61m15.21-.03c-.43-1.29-1.84-2-3.15-1.58a2.489 2.489 0 0 0-1.61 3.15 2.5 2.5 0 0 0 3.15 1.6c1.31-.42 2.03-1.84 1.61-3.17m-12.3 8.96c1.11.82 2.69.57 3.49-.55.81-1.12.56-2.68-.56-3.49a2.506 2.506 0 0 0-3.49.55c-.81 1.12-.56 2.68.56 3.49m9.39 0c1.12-.81 1.37-2.37.56-3.49a2.488 2.488 0 0 0-3.49-.55 2.497 2.497 0 0 0-.56 3.49c.79 1.12 2.38 1.36 3.49.55M12 10.5c-.83 0-1.5.67-1.5 1.5s.67 1.5 1.5 1.5 1.5-.67 1.5-1.5-.67-1.5-1.5-1.5z" fill="#646464"/></svg>
