<?xml version="1.0"?>
<svg xmlns="http://www.w3.org/2000/svg" xmlns:xlink="http://www.w3.org/1999/xlink" aria-hidden="true" width="1em" height="1em" viewBox="0 0 24 24" data-icon="mdi:multiplication-box" data-width="1em" data-height="1em" data-inline="false" class="iconify"><path d="M19 3c1.1 0 2 .9 2 2v14c0 1.1-.9 2-2 2H5a2 2 0 0 1-2-2V5c0-1.11.89-2 2-2h14m-8 14h2v-3.27l2.83 1.63 1-1.73L14 12l2.83-1.64-1-1.73L13 10.27V7h-2v3.27L8.17 8.63l-1 1.73L10 12l-2.83 1.63 1 1.73L11 13.73V17z" fill="#646464"/></svg>
