<?xml version="1.0"?>
<svg xmlns="http://www.w3.org/2000/svg" xmlns:xlink="http://www.w3.org/1999/xlink" aria-hidden="true" width="1em" height="1em" viewBox="0 0 24 24" data-icon="mdi:mushroom" data-width="1em" data-height="1em" data-inline="false" class="iconify"><path d="M12 2c5.52 0 10 4.48 10 10 0 1.1-.9 2-2 2H4c-1.1 0-2-.9-2-2C2 6.48 6.48 2 12 2m0 6c1.1 0 2-.9 2-2s-.9-2-2-2-2 .9-2 2 .9 2 2 2m5 4c1.1 0 2-.9 2-2s-.9-2-2-2-2 .9-2 2 .9 2 2 2M7 12c1.1 0 2-.9 2-2s-.9-2-2-2-2 .9-2 2 .9 2 2 2m8 3l1.27 4.45.08.55c0 1.1-.9 2-2 2h-4.7c-1.1 0-2-.9-2-2l.08-.55L9 15h6z" fill="#646464"/></svg>
