<?xml version="1.0"?>
<svg xmlns="http://www.w3.org/2000/svg" xmlns:xlink="http://www.w3.org/1999/xlink" aria-hidden="true" width="1em" height="1em" viewBox="0 0 24 24" data-icon="mdi:music-note-bluetooth-off" data-width="1em" data-height="1em" data-inline="false" class="iconify"><path d="M10 3v5.68l3 3V6h4V3h-7M3.28 4.5L2 5.77l6.26 6.26A4.481 4.481 0 0 0 4 16.5C4 19 6 21 8.5 21c2.4 0 4.35-1.89 4.47-4.26l4.71 4.71 1.28-1.27L13 14.22l-3-3L3.28 4.5M20 7v3.79L17.71 8.5l-.71.71L19.79 12 17 14.79l.71.71L20 13.21V17h.5l2.85-2.85L21.21 12l2.15-2.15L20.5 7H20m1 1.91l.94.94-.94.94V8.91m0 4.3l.94.94-.94.94v-1.88z" fill="#646464"/></svg>
