<?xml version="1.0"?>
<svg xmlns="http://www.w3.org/2000/svg" xmlns:xlink="http://www.w3.org/1999/xlink" aria-hidden="true" width="1em" height="1em" viewBox="0 0 24 24" data-icon="mdi:music-note-bluetooth" data-width="1em" data-height="1em" data-inline="false" class="iconify"><path d="M10 3v9.26c-.5-.17-1-.26-1.5-.26C6 12 4 14 4 16.5S6 21 8.5 21s4.5-2 4.5-4.5V6h4V3h-7m10 4v3.79L17.71 8.5l-.71.71L19.79 12 17 14.79l.71.71L20 13.21V17h.5l2.85-2.85L21.21 12l2.15-2.15L20.5 7H20m1 1.91l.94.94-.94.94V8.91m0 4.3l.94.94-.94.94v-1.88z" fill="#646464"/></svg>
