<?xml version="1.0"?>
<svg xmlns="http://www.w3.org/2000/svg" xmlns:xlink="http://www.w3.org/1999/xlink" aria-hidden="true" width="1em" height="1em" viewBox="0 0 24 24" data-icon="mdi:music-off" data-width="1em" data-height="1em" data-inline="false" class="iconify"><path d="M2 5.27L3.28 4 20 20.72 18.73 22 9 12.27v5.23C9 19.43 7.43 21 5.5 21S2 19.43 2 17.5 3.57 14 5.5 14c.54 0 1.05.12 1.5.34v-4.07l-5-5M21 3v12.5c0 1-.43 1.92-1.12 2.56l-4.94-4.94c.64-.69 1.56-1.12 2.56-1.12.54 0 1.05.12 1.5.34V6.47l-8.83 1.88-2.51-2.51L21 3z" fill="#646464"/></svg>
