<?xml version="1.0"?>
<svg xmlns="http://www.w3.org/2000/svg" xmlns:xlink="http://www.w3.org/1999/xlink" aria-hidden="true" width="1em" height="1em" viewBox="0 0 24 24" data-icon="mdi:nas" data-width="1em" data-height="1em" data-inline="false" class="iconify"><path d="M4 5c-1.11 0-2 .89-2 2v10c0 1.11.89 2 2 2h16c1.11 0 2-.89 2-2V7c0-1.11-.89-2-2-2H4m.5 2c.55 0 1 .45 1 1s-.45 1-1 1-1-.45-1-1 .45-1 1-1M7 7h13v10H7V7m1 1v8h3V8H8m4 0v8h3V8h-3m4 0v8h3V8h-3M9 9h1v1H9V9m4 0h1v1h-1V9m4 0h1v1h-1V9z" fill="#646464"/></svg>
