<?xml version="1.0"?>
<svg xmlns="http://www.w3.org/2000/svg" xmlns:xlink="http://www.w3.org/1999/xlink" aria-hidden="true" width="1em" height="1em" viewBox="0 0 24 24" data-icon="mdi:nativescript" data-width="1em" data-height="1em" data-inline="false" class="iconify"><path d="M7.5 3h9C19 3 21 5 21 7.5v9c0 2.5-2 4.5-4.5 4.5h-9C5 21 3 19 3 16.5v-9C3 5 5 3 7.5 3M6 13.5v3c0 .83.67 1.5 1.5 1.5H9v-7.5l6 7.5h1.5c.83 0 1.5-.67 1.5-1.5v-3c0-.83.67-1.5 1.5-1.5-.83 0-1.5-.67-1.5-1.5v-3c0-.83-.67-1.5-1.5-1.5H15v7.5L9 6H7.5C6.67 6 6 6.67 6 7.5v3c0 .83-.67 1.5-1.5 1.5.83 0 1.5.67 1.5 1.5z" fill="#646464"/></svg>
