<?xml version="1.0"?>
<svg xmlns="http://www.w3.org/2000/svg" xmlns:xlink="http://www.w3.org/1999/xlink" aria-hidden="true" width="1em" height="1em" viewBox="0 0 24 24" data-icon="mdi:nature-people" data-width="1em" data-height="1em" data-inline="false" class="iconify"><path d="M4.5 11c.83 0 1.5-.67 1.5-1.5S5.33 8 4.5 8 3 8.67 3 9.5 3.67 11 4.5 11m17.67-1.83c0-3.87-3.13-7-7-7s-7 3.13-7 7c0 3.47 2.52 6.33 5.83 6.89V20H6v-3h1v-4c0-.55-.45-1-1-1H3c-.55 0-1 .45-1 1v4h1v5h16v-2h-3v-3.88a7 7 0 0 0 6.17-6.95z" fill="#646464"/></svg>
