<?xml version="1.0"?>
<svg xmlns="http://www.w3.org/2000/svg" xmlns:xlink="http://www.w3.org/1999/xlink" aria-hidden="true" width="1em" height="1em" viewBox="0 0 24 24" data-icon="mdi:new-box" data-width="1em" data-height="1em" data-inline="false" class="iconify"><path d="M20 4c1.11 0 2 .89 2 2v12c0 1.11-.89 2-2 2H4c-1.11 0-2-.89-2-2V6c0-1.11.89-2 2-2h16M8.5 15V9H7.25v3.5L4.75 9H3.5v6h1.25v-3.5L7.3 15h1.2m5-4.74V9h-4v6h4v-1.25H11v-1.11h2.5v-1.26H11v-1.12h2.5m7 3.74V9h-1.25v4.5h-1.12V10h-1.25v3.5h-1.13V9H14.5v5c0 .55.45 1 1 1h4c.55 0 1-.45 1-1z" fill="#646464"/></svg>
