<?xml version="1.0"?>
<svg xmlns="http://www.w3.org/2000/svg" xmlns:xlink="http://www.w3.org/1999/xlink" aria-hidden="true" width="1em" height="1em" viewBox="0 0 24 24" data-icon="mdi:nfc-tap" data-width="1em" data-height="1em" data-inline="false" class="iconify"><path d="M12 10c1.1 0 2 .9 2 2s-.9 2-2 2-2-.9-2-2 .9-2 2-2M4 4h7c1.1 0 2 .9 2 2v3h-2V6H4v5h2V9l3 3-3 3v-2H4c-1.1 0-2-.9-2-2V6c0-1.1.9-2 2-2m16 16h-7c-1.1 0-2-.9-2-2v-3h2v3h7v-5h-2v2l-3-3 3-3v2h2c1.1 0 2 .9 2 2v5c0 1.1-.9 2-2 2z" fill="#646464"/></svg>
