<?xml version="1.0"?>
<svg xmlns="http://www.w3.org/2000/svg" xmlns:xlink="http://www.w3.org/1999/xlink" aria-hidden="true" width="1em" height="1em" viewBox="0 0 24 24" data-icon="mdi:nuke" data-width="1em" data-height="1em" data-inline="false" class="iconify"><path d="M14.04 12H10v-1H5.5C3.57 11 2 9.43 2 7.5S3.57 4 5.5 4c1.03 0 1.95.44 2.59 1.15C8.5 3.35 10.08 2 12 2c1.92 0 3.5 1.35 3.91 3.15C16.55 4.44 17.47 4 18.5 4 20.43 4 22 5.57 22 7.5S20.43 11 18.5 11h-4.46v1M10 16.9v-1.14H5v-2h14v2h-4.96v1.16L20 19.08c.58.21 1 .76 1 1.42 0 .83-.67 1.5-1.5 1.5h-15c-.83 0-1.5-.67-1.5-1.5 0-.66.42-1.21 1-1.42l6-2.18z" fill="#646464"/></svg>
