<?xml version="1.0"?>
<svg xmlns="http://www.w3.org/2000/svg" xmlns:xlink="http://www.w3.org/1999/xlink" aria-hidden="true" width="1em" height="1em" viewBox="0 0 24 24" data-icon="mdi:numeric-9-box-multiple-outline" data-width="1em" data-height="1em" data-inline="false" class="iconify"><path d="M15 9h-2V7h2m0-2h-2c-1.1 0-2 .9-2 2v2a2 2 0 0 0 2 2h2v2h-4v2h4c1.1 0 2-.9 2-2V7a2 2 0 0 0-2-2m6 12H7V3h14m0-2H7c-1.1 0-2 .9-2 2v14c0 1.1.9 2 2 2h14c1.1 0 2-.9 2-2V3c0-1.1-.9-2-2-2M3 5H1v16c0 1.1.9 2 2 2h16v-2H3V5z" fill="#646464"/></svg>
