<?xml version="1.0"?>
<svg xmlns="http://www.w3.org/2000/svg" xmlns:xlink="http://www.w3.org/1999/xlink" aria-hidden="true" width="1em" height="1em" viewBox="0 0 24 24" data-icon="mdi:numeric-8-box" data-width="1em" data-height="1em" data-inline="false" class="iconify"><path d="M19 3c1.1 0 2 .9 2 2v14c0 1.1-.9 2-2 2H5c-1.1 0-2-.9-2-2V5c0-1.1.9-2 2-2h14m-8 14h2c1.1 0 2-.9 2-2v-1.5c0-.83-.67-1.5-1.5-1.5.83 0 1.5-.67 1.5-1.5V9a2 2 0 0 0-2-2h-2c-1.1 0-2 .9-2 2v1.5c0 .83.67 1.5 1.5 1.5-.83 0-1.5.67-1.5 1.5V15a2 2 0 0 0 2 2m0-4h2v2h-2v-2m0-4h2v2h-2V9z" fill="#646464"/></svg>
