<?xml version="1.0"?>
<svg xmlns="http://www.w3.org/2000/svg" xmlns:xlink="http://www.w3.org/1999/xlink" aria-hidden="true" width="1em" height="1em" viewBox="0 0 24 24" data-icon="mdi:numeric-0-box-multiple-outline" data-width="1em" data-height="1em" data-inline="false" class="iconify"><path d="M21 17V3H7v14h14m0-16c1.1 0 2 .9 2 2v14c0 1.1-.9 2-2 2H7c-1.1 0-2-.9-2-2V3c0-1.1.9-2 2-2h14M3 5v16h16v2H3c-1.1 0-2-.9-2-2V5h2m10 0h2c1.1 0 2 .9 2 2v6c0 1.1-.9 2-2 2h-2c-1.1 0-2-.9-2-2V7c0-1.1.9-2 2-2m0 2v6h2V7h-2z" fill="#646464"/></svg>
