<?xml version="1.0"?>
<svg xmlns="http://www.w3.org/2000/svg" xmlns:xlink="http://www.w3.org/1999/xlink" aria-hidden="true" width="1em" height="1em" viewBox="0 0 24 24" data-icon="mdi:numeric-5-box-multiple-outline" data-width="1em" data-height="1em" data-inline="false" class="iconify"><path d="M17 13v-2a2 2 0 0 0-2-2h-2V7h4V5h-6v6h4v2h-4v2h4c1.1 0 2-.9 2-2M3 5H1v16c0 1.1.9 2 2 2h16v-2H3m18-4H7V3h14m0-2H7c-1.1 0-2 .9-2 2v14c0 1.1.9 2 2 2h14c1.1 0 2-.9 2-2V3c0-1.1-.9-2-2-2z" fill="#646464"/></svg>
