<?xml version="1.0"?>
<svg xmlns="http://www.w3.org/2000/svg" xmlns:xlink="http://www.w3.org/1999/xlink" aria-hidden="true" width="1em" height="1em" viewBox="0 0 24 24" data-icon="mdi:numeric-9-plus-box" data-width="1em" data-height="1em" data-inline="false" class="iconify"><path d="M21 5v14c0 1.1-.9 2-2 2H5c-1.1 0-2-.9-2-2V5c0-1.1.9-2 2-2h14c1.1 0 2 .9 2 2m-2 6h-2V9h-2v2h-2v2h2v2h2v-2h2v-2m-9-4H8c-1.1 0-2 .9-2 2v2a2 2 0 0 0 2 2h2v2H6v2h4c1.1 0 2-.9 2-2V9a2 2 0 0 0-2-2M8 9h2v2H8V9z" fill="#646464"/></svg>
