<?xml version="1.0"?>
<svg xmlns="http://www.w3.org/2000/svg" xmlns:xlink="http://www.w3.org/1999/xlink" aria-hidden="true" width="1em" height="1em" viewBox="0 0 24 24" data-icon="mdi:numeric-6-box-multiple-outline" data-width="1em" data-height="1em" data-inline="false" class="iconify"><path d="M13 11h2v2h-2m0 2h2c1.1 0 2-.9 2-2v-2a2 2 0 0 0-2-2h-2V7h4V5h-4c-1.1 0-2 .9-2 2v6a2 2 0 0 0 2 2m8 2H7V3h14m0-2H7c-1.1 0-2 .9-2 2v14c0 1.1.9 2 2 2h14c1.1 0 2-.9 2-2V3c0-1.1-.9-2-2-2M3 5H1v16c0 1.1.9 2 2 2h16v-2H3V5z" fill="#646464"/></svg>
