<?xml version="1.0"?>
<svg xmlns="http://www.w3.org/2000/svg" xmlns:xlink="http://www.w3.org/1999/xlink" aria-hidden="true" width="1em" height="1em" viewBox="0 0 24 24" data-icon="mdi:numeric" data-width="1em" data-height="1em" data-inline="false" class="iconify"><path d="M4 17V9H2V7h4v10H4m18-2a2 2 0 0 1-2 2h-4v-2h4v-2h-2v-2h2V9h-4V7h4c1.1 0 2 .9 2 2v1.5c0 .83-.67 1.5-1.5 1.5.83 0 1.5.67 1.5 1.5V15m-8 0v2H8v-4a2 2 0 0 1 2-2h2V9H8V7h4c1.1 0 2 .9 2 2v2a2 2 0 0 1-2 2h-2v2h4z" fill="#646464"/></svg>
