<?xml version="1.0"?>
<svg xmlns="http://www.w3.org/2000/svg" xmlns:xlink="http://www.w3.org/1999/xlink" aria-hidden="true" width="1em" height="1em" viewBox="0 0 24 24" data-icon="mdi:numeric-9-plus-box-outline" data-width="1em" data-height="1em" data-inline="false" class="iconify"><path d="M19 11h-2V9h-2v2h-2v2h2v2h2v-2h2v6H5V5h14m0-2H5c-1.1 0-2 .9-2 2v14c0 1.1.9 2 2 2h14c1.1 0 2-.9 2-2V5c0-1.1-.9-2-2-2M9 11v-1h1v1m2 3v-4a2 2 0 0 0-2-2H9c-1.1 0-2 .9-2 2v1a2 2 0 0 0 2 2h1v1H7v2h3c1.1 0 2-.9 2-2z" fill="#646464"/></svg>
