<?xml version="1.0"?>
<svg xmlns="http://www.w3.org/2000/svg" xmlns:xlink="http://www.w3.org/1999/xlink" aria-hidden="true" width="1em" height="1em" viewBox="0 0 24 24" data-icon="mdi:one-up" data-width="1em" data-height="1em" data-inline="false" class="iconify"><path d="M10 19c-.6 0-1-.4-1-1v-1c0-.5.4-1 1-1 .5 0 1 .4 1 1v1c0 .6-.4 1-1 1m5-1v-1c0-.5-.4-1-1-1-.5 0-1 .4-1 1v1c0 .5.4 1 1 1s1-.4 1-1m7-6c0 2.6-1.6 4.9-4 6.4V20c0 1.1-.9 2-2 2H8c-1.1 0-2-.9-2-2v-1.6c-2.4-1.5-4-3.8-4-6.4C2 6.48 6.48 2 12 2s10 4.48 10 10M7 10c0-1.1-.6-2.1-1.5-2.6C4.5 8.7 4 10.3 4 12c0 .3 0 .7.1 1 1.6-.1 2.9-1.4 2.9-3m2-1c0 1.7 1.3 3 3 3s3-1.3 3-3-1.3-3-3-3-3 1.3-3 3m7 11v-4.5c-1.2-.3-2.6-.5-4-.5s-2.8.2-4 .5V20h8m3.9-7c.1-.3.1-.7.1-1 0-1.7-.5-3.3-1.5-4.6-.9.5-1.5 1.5-1.5 2.6 0 1.6 1.3 2.9 2.9 3z" fill="#646464"/></svg>
