<?xml version="1.0"?>
<svg xmlns="http://www.w3.org/2000/svg" xmlns:xlink="http://www.w3.org/1999/xlink" aria-hidden="true" width="1em" height="1em" viewBox="0 0 24 24" data-icon="mdi:onedrive" data-width="1em" data-height="1em" data-inline="false" class="iconify"><path d="M20.08 13.64c1.09.17 1.92 1.11 1.92 2.25 0 .89-.5 1.66-1.25 2.03l-.17.08H9.16c-1.45 0-2.62-1.19-2.62-2.64 0-1.46 1.18-2.64 2.64-2.64l.22.01-.01-.2c0-1.82 1.48-3.3 3.3-3.3 1.28 0 2.39.73 2.94 1.77.45-.27.99-.45 1.58-.45a2.88 2.88 0 0 1 2.88 2.88l-.01.21M8.82 12.16a3.218 3.218 0 0 0-2.86 3.2c0 .68.21 1.3.54 1.82H4.73C3.22 17.18 2 15.96 2 14.45c0-1.45 1.12-2.62 2.53-2.72l-.07-.67C4.46 9.36 5.84 8 7.54 8c.63 0 1.23.18 1.72.5a4.252 4.252 0 0 1 3.81-2.35c2.2 0 4.01 1.68 4.23 3.82h-.09c-.48 0-.94.1-1.37.28a3.87 3.87 0 0 0-3.15-1.61 3.89 3.89 0 0 0-3.87 3.52z" fill="#646464"/></svg>
