<?xml version="1.0"?>
<svg xmlns="http://www.w3.org/2000/svg" xmlns:xlink="http://www.w3.org/1999/xlink" aria-hidden="true" width="1em" height="1em" viewBox="0 0 24 24" data-icon="mdi:onepassword" data-width="1em" data-height="1em" data-inline="false" class="iconify"><path d="M12 1C5.92 1 1 5.92 1 12s4.92 11 11 11 11-4.92 11-11S18.08 1 12 1m0 19c-4.42 0-8-3.58-8-8s3.58-8 8-8 8 3.58 8 8-3.58 8-8 8m1-6.5c0 .63.4 1.2 1 1.41V18h-4v-6.09c.78-.27 1.19-1.11.93-1.91a1.5 1.5 0 0 0-.93-.91V6h4v6.09c-.6.21-1 .78-1 1.41z" fill="#646464"/></svg>
