<?xml version="1.0"?>
<svg xmlns="http://www.w3.org/2000/svg" xmlns:xlink="http://www.w3.org/1999/xlink" aria-hidden="true" width="1em" height="1em" viewBox="0 0 24 24" data-icon="mdi:origin" data-width="1em" data-height="1em" data-inline="false" class="iconify"><path d="M12 2.13c0 .1-.05.2-.11.28-.39.59-.73 1.23-.85 1.92l-.04.23 1-.06c4.14 0 7.5 3.36 7.5 7.5 0 1.62-.5 3.11-1.38 4.34-1.39 2.34-3.4 4.31-5.78 5.63-.09.03-.22.03-.28-.04-.06-.1-.06-.23.03-.32.38-.52.64-1.11.78-1.76l.06-.41-.93.06c-4.14 0-7.5-3.36-7.5-7.5 0-1.61.5-3.11 1.38-4.33C7.26 5.32 9.28 3.34 11.67 2c.11-.05.27 0 .33.13M12 9c-1.66 0-3 1.34-3 3s1.34 3 3 3 3-1.34 3-3-1.34-3-3-3z" fill="#646464"/></svg>
