<?xml version="1.0"?>
<svg xmlns="http://www.w3.org/2000/svg" xmlns:xlink="http://www.w3.org/1999/xlink" aria-hidden="true" width="1em" height="1em" viewBox="0 0 24 24" data-icon="mdi:ornament-variant" data-width="1em" data-height="1em" data-inline="false" class="iconify"><path d="M12 1c1.66 0 3 1.34 3 3v1c.55 0 1 .45 1 1v1.07c2.39 1.38 4 3.97 4 6.93 0 4.42-3.58 8-8 8s-8-3.58-8-8c0-2.96 1.61-5.55 4-6.93V6c0-.55.45-1 1-1V4c0-1.66 1.34-3 3-3m0 2c-.55 0-1 .45-1 1v1h2V4c0-.55-.45-1-1-1m0 5c-1.78 0-3.37.77-4.47 2h8.94c-1.1-1.23-2.69-2-4.47-2m0 12c1.78 0 3.37-.77 4.47-2H7.53c1.1 1.23 2.69 2 4.47 2m0-8c-1.1 0-2 .9-2 2s.9 2 2 2 2-.9 2-2-.9-2-2-2m6 2c0-.69-.12-1.35-.33-2-.95.19-1.67 1-1.67 2s.72 1.81 1.67 1.97c.21-.62.33-1.28.33-1.97M6 14c0 .69.12 1.35.33 1.97C7.28 15.81 8 15 8 14s-.72-1.81-1.67-2c-.21.65-.33 1.31-.33 2z" fill="#646464"/></svg>
