<?xml version="1.0"?>
<svg xmlns="http://www.w3.org/2000/svg" xmlns:xlink="http://www.w3.org/1999/xlink" aria-hidden="true" width="1em" height="1em" viewBox="0 0 24 24" data-icon="mdi:paper-cut-vertical" data-width="1em" data-height="1em" data-inline="false" class="iconify"><path d="M11.43 3.23L12 4l.57-.77v.01C13.12 2.5 14 2 15 2c1.66 0 3 1.34 3 3a3 3 0 0 1-.17 1H20c1.1 0 2 .9 2 2v12c0 1.1-.9 2-2 2H4c-1.1 0-2-.9-2-2V8c0-1.1.9-2 2-2h2.17A3 3 0 0 1 6 5c0-1.66 1.34-3 3-3 1 0 1.88.5 2.43 1.24v-.01M4 8v12h7c0-.55.45-1 1-1s1 .45 1 1h7V8h-5.1l2.1 2.92-1.6 1.18L12.42 8h-.84L8.6 12.1 7 10.92 9.1 8H4m5-4c-.55 0-1 .45-1 1s.45 1 1 1 1-.45 1-1-.45-1-1-1m6 0c-.55 0-1 .45-1 1s.45 1 1 1 1-.45 1-1-.45-1-1-1m-3 12c.55 0 1 .45 1 1s-.45 1-1 1-1-.45-1-1 .45-1 1-1m0-3c.55 0 1 .45 1 1s-.45 1-1 1-1-.45-1-1 .45-1 1-1m0-3c.55 0 1 .45 1 1s-.45 1-1 1-1-.45-1-1 .45-1 1-1z" fill="#646464"/></svg>
