<?xml version="1.0"?>
<svg xmlns="http://www.w3.org/2000/svg" xmlns:xlink="http://www.w3.org/1999/xlink" aria-hidden="true" width="1em" height="1em" viewBox="0 0 24 24" data-icon="mdi:peace" data-width="1em" data-height="1em" data-inline="false" class="iconify"><path d="M12 2C6.48 2 2 6.48 2 12s4.48 10 10 10 10-4.48 10-10S17.52 2 12 2m-1 12.41v5.52a7.988 7.988 0 0 1-3.9-1.62l3.9-3.9m2 0l3.9 3.9a7.988 7.988 0 0 1-3.9 1.62v-5.52M4 12c0-4.03 3-7.43 7-7.93v7.52L5.69 16.9A7.913 7.913 0 0 1 4 12m14.31 4.9L13 11.59V4.07c4 .5 7 3.9 7 7.93 0 1.78-.59 3.5-1.69 4.9z" fill="#646464"/></svg>
