<?xml version="1.0"?>
<svg xmlns="http://www.w3.org/2000/svg" xmlns:xlink="http://www.w3.org/1999/xlink" aria-hidden="true" width="1em" height="1em" viewBox="0 0 24 24" data-icon="mdi:pencil-lock" data-width="1em" data-height="1em" data-inline="false" class="iconify"><path d="M5.5 2A2.5 2.5 0 0 0 3 4.5V5c-.55 0-1 .45-1 1v4c0 .55.45 1 1 1h5c.55 0 1-.45 1-1V6c0-.55-.45-1-1-1v-.5A2.5 2.5 0 0 0 5.5 2m0 1C6.33 3 7 3.67 7 4.5V5H4v-.5C4 3.67 4.67 3 5.5 3m14.16 0c-.26 0-.5.09-.69.28l-1.84 1.85 3.75 3.75 1.84-1.85c.39-.39.39-1.03 0-1.4l-2.34-2.35c-.2-.19-.47-.28-.72-.28m-3.6 3.19L5 17.25V21h3.75L19.81 9.94l-3.75-3.75z" fill="#646464"/></svg>
