<?xml version="1.0"?>
<svg xmlns="http://www.w3.org/2000/svg" xmlns:xlink="http://www.w3.org/1999/xlink" aria-hidden="true" width="1em" height="1em" viewBox="0 0 24 24" data-icon="mdi:pencil-box-outline" data-width="1em" data-height="1em" data-inline="false" class="iconify"><path d="M19 19V5H5v14h14m0-16c1.1 0 2 .9 2 2v14a2 2 0 0 1-2 2H5c-1.1 0-2-.9-2-2V5c0-1.1.9-2 2-2h14m-2.3 6.35l-1 1-2.05-2.05 1-1c.21-.22.56-.22.77 0l1.28 1.28c.22.21.22.56 0 .77M7 14.94l6.06-6.06 2.06 2.06L9.06 17H7v-2.06z" fill="#646464"/></svg>
