<?xml version="1.0"?>
<svg xmlns="http://www.w3.org/2000/svg" xmlns:xlink="http://www.w3.org/1999/xlink" aria-hidden="true" width="1em" height="1em" viewBox="0 0 24 24" data-icon="mdi:pencil-box" data-width="1em" data-height="1em" data-inline="false" class="iconify"><path d="M19 3c1.1 0 2 .9 2 2v14a2 2 0 0 1-2 2H5c-1.1 0-2-.9-2-2V5c0-1.1.9-2 2-2h14m-2.3 6.35c.22-.21.22-.56 0-.77L15.42 7.3a.532.532 0 0 0-.77 0l-1 1 2.05 2.05 1-1M7 14.94V17h2.06l6.06-6.06-2.06-2.06L7 14.94z" fill="#646464"/></svg>
