<?xml version="1.0"?>
<svg xmlns="http://www.w3.org/2000/svg" xmlns:xlink="http://www.w3.org/1999/xlink" aria-hidden="true" width="1em" height="1em" viewBox="0 0 24 24" data-icon="mdi:periodic-table-co2" data-width="1em" data-height="1em" data-inline="false" class="iconify"><path d="M5 7c-1.1 0-2 .9-2 2v6c0 1.1.9 2 2 2h3v-2H5V9h3V7H5m6 0c-1.1 0-2 .9-2 2v6c0 1.1.9 2 2 2h2c1.1 0 2-.9 2-2V9c0-1.1-.9-2-2-2h-2m0 2h2v6h-2V9m5 1.5V12h3v1.5h-1.5c-.83 0-1.5.67-1.5 1.5v3h4.5v-1.5h-3V15H19c.83 0 1.5-.67 1.5-1.5V12c0-.83-.67-1.5-1.5-1.5h-3z" fill="#646464"/></svg>
