<?xml version="1.0"?>
<svg xmlns="http://www.w3.org/2000/svg" xmlns:xlink="http://www.w3.org/1999/xlink" aria-hidden="true" width="1em" height="1em" viewBox="0 0 24 24" data-icon="mdi:periscope" data-width="1em" data-height="1em" data-inline="false" class="iconify"><path d="M12 7c0 1.1-.9 2-2 2s-2-.9-2-2a5.002 5.002 0 0 0 4 8c2.76 0 5-2.24 5-5s-2.24-5-5-5c-.43 0-.84.05-1.23.15C11.5 5.45 12 6.17 12 7m0-5a7.998 7.998 0 0 1 7.43 10.96C17.89 17.38 13.63 22 12 22s-5.89-4.62-7.43-9.04A7.998 7.998 0 0 1 12 2z" fill="#646464"/></svg>
