<?xml version="1.0"?>
<svg xmlns="http://www.w3.org/2000/svg" xmlns:xlink="http://www.w3.org/1999/xlink" aria-hidden="true" width="1em" height="1em" viewBox="0 0 24 24" data-icon="mdi:periodic-table" data-width="1em" data-height="1em" data-inline="false" class="iconify"><path d="M2 4v2h2V4H2m18 0v2h2V4h-2M2 7v2h2V7H2m3 0v2h2V7H5m9 0v2h2V7h-2m3 0v2h2V7h-2m3 0v2h2V7h-2M2 10v2h2v-2H2m3 0v2h2v-2H5m3 0v2h2v-2H8m3 0v2h2v-2h-2m3 0v2h2v-2h-2m3 0v2h2v-2h-2m3 0v2h2v-2h-2M2 13v2h2v-2H2m3 0v2h2v-2H5m3 0v2h2v-2H8m3 0v2h2v-2h-2m3 0v2h2v-2h-2m3 0v2h2v-2h-2m3 0v2h2v-2h-2M5 17v2h2v-2H5m3 0v2h2v-2H8m3 0v2h2v-2h-2m3 0v2h2v-2h-2m3 0v2h2v-2h-2z" fill="#646464"/></svg>
