<?xml version="1.0"?>
<svg xmlns="http://www.w3.org/2000/svg" xmlns:xlink="http://www.w3.org/1999/xlink" aria-hidden="true" width="1em" height="1em" viewBox="0 0 24 24" data-icon="mdi:phone-plus" data-width="1em" data-height="1em" data-inline="false" class="iconify"><path d="M4 3c-.55 0-1 .45-1 1 0 9.39 7.61 17 17 17 .55 0 1-.45 1-1v-3.5c0-.55-.45-1-1-1-1.24 0-2.45-.2-3.57-.57-.35-.11-.74-.03-1.02.25l-2.2 2.2a15.149 15.149 0 0 1-6.59-6.59l2.2-2.21c.28-.27.36-.66.25-1.01C8.7 6.45 8.5 5.24 8.5 4c0-.55-.45-1-1-1M16 3v3h-3v2h3v3h2V8h3V6h-3V3" fill="#646464"/></svg>
