<?xml version="1.0"?>
<svg xmlns="http://www.w3.org/2000/svg" xmlns:xlink="http://www.w3.org/1999/xlink" aria-hidden="true" width="1em" height="1em" viewBox="0 0 24 24" data-icon="mdi:phone-rotate-landscape" data-width="1em" data-height="1em" data-inline="false" class="iconify"><path d="M9 1H3c-1.1 0-2 .9-2 2v13c0 1.1.9 2 2 2h6c1.1 0 2-.9 2-2V3c0-1.1-.9-2-2-2m0 14H3V3h6v12m12-2h-8v2h8v6H9v-1H6v1c0 1.1.9 2 2 2h13c1.1 0 2-.9 2-2v-6c0-1.1-.9-2-2-2m2-3l-4-2 1.91-.91A7.516 7.516 0 0 0 14 2.5V1a9 9 0 0 1 9 9z" fill="#646464"/></svg>
