<?xml version="1.0"?>
<svg xmlns="http://www.w3.org/2000/svg" xmlns:xlink="http://www.w3.org/1999/xlink" aria-hidden="true" width="1em" height="1em" viewBox="0 0 24 24" data-icon="mdi:phone-rotate-portrait" data-width="1em" data-height="1em" data-inline="false" class="iconify"><path d="M9 1H3c-1.1 0-2 .9-2 2v13c0 1.1.9 2 2 2h1v-3H3V3h6v8h2V3c0-1.1-.9-2-2-2m14 20v-6c0-1.1-.9-2-2-2H8c-1.1 0-2 .9-2 2v6c0 1.1.9 2 2 2h13c1.1 0 2-.9 2-2M9 21v-6h12v6H9m14-11h-1.5c0-3-1.81-5.73-4.58-6.91L16 5l-2-4a9 9 0 0 1 9 9z" fill="#646464"/></svg>
