<?xml version="1.0"?>
<svg xmlns="http://www.w3.org/2000/svg" xmlns:xlink="http://www.w3.org/1999/xlink" aria-hidden="true" width="1em" height="1em" viewBox="0 0 24 24" data-icon="mdi:phone-return" data-width="1em" data-height="1em" data-inline="false" class="iconify"><path d="M21 6v5h-1.5V7.5h-5.63l2.43 2.43L15.24 11 11 6.75l4.24-4.25 1.06 1.07L13.87 6H21M8.82 8.58c.26-.26.35-.65.24-1C8.69 6.42 8.5 5.22 8.5 4c0-.55-.45-1-1-1H4c-.55 0-1 .45-1 1 0 9.39 7.61 17 17 17 .55 0 1-.45 1-1v-3.5c0-.55-.45-1-1-1-1.21 0-2.42-.19-3.57-.57a.997.997 0 0 0-1 .24l-2.2 2.2a15.097 15.097 0 0 1-6.59-6.59l2.18-2.2z" fill="#646464"/></svg>
