<?xml version="1.0"?>
<svg xmlns="http://www.w3.org/2000/svg" xmlns:xlink="http://www.w3.org/1999/xlink" aria-hidden="true" width="1em" height="1em" viewBox="0 0 24 24" data-icon="mdi:pickaxe" data-width="1em" data-height="1em" data-inline="false" class="iconify"><path d="M14.79 10.62L3.5 21.9l-1.4-1.4L13.38 9.21l1.41 1.41m4.48-2.89l.59-.59-.79-.79.64-.64-1.42-1.42-.64.64-.79-.79-.59.59c-1.74-1.42-3.7-2.56-5.8-3.36l-.83 1.79c1.75.92 3.36 2.03 4.86 3.34L14 7l3 3 .5-.5c1.31 1.5 2.42 3.11 3.34 4.86l1.79-.83c-.8-2.1-1.94-4.06-3.36-5.8z" fill="#646464"/></svg>
