<?xml version="1.0"?>
<svg xmlns="http://www.w3.org/2000/svg" xmlns:xlink="http://www.w3.org/1999/xlink" aria-hidden="true" width="1em" height="1em" viewBox="0 0 24 24" data-icon="mdi:pistol" data-width="1em" data-height="1em" data-inline="false" class="iconify"><path d="M7 5h16v4h-1v1h-6c-.55 0-1 .45-1 1v1c0 1.1-.9 2-2 2H9.62c-.38 0-.73.22-.9.56l-2.45 4.89c-.17.34-.51.55-.89.55H2s-3 0 1-6c0 0 3-4-1-4V5h1l.5-1h3L7 5m7 7v-1c0-.55-.45-1-1-1h-1s-1 1 0 2c-1.1 0-2-.9-2-2-.55 0-1 .45-1 1v1c0 .55.45 1 1 1h3c.55 0 1-.45 1-1z" fill="#646464"/></svg>
