<?xml version="1.0"?>
<svg xmlns="http://www.w3.org/2000/svg" xmlns:xlink="http://www.w3.org/1999/xlink" aria-hidden="true" width="1em" height="1em" viewBox="0 0 24 24" data-icon="mdi:piston" data-width="1em" data-height="1em" data-inline="false" class="iconify"><path d="M13 16.18c.5.17.9.45 1.23.82H15v4h-.79c-.32.35-.71.63-1.21.8-1.15.42-2.42.07-3.22-.8H9v-4h.77c.33-.37.73-.65 1.23-.82V12h2v4.18M12 20c.55 0 1-.45 1-1s-.45-1-1-1-1 .45-1 1 .45 1 1 1m5-16h-2v1h2v6H7V5h2V4H7V2h10v2m-5 5c.55 0 1-.45 1-1s-.45-1-1-1-1 .45-1 1 .45 1 1 1z" fill="#646464"/></svg>
