<?xml version="1.0"?>
<svg xmlns="http://www.w3.org/2000/svg" xmlns:xlink="http://www.w3.org/1999/xlink" aria-hidden="true" width="1em" height="1em" viewBox="0 0 24 24" data-icon="mdi:plus-network" data-width="1em" data-height="1em" data-inline="false" class="iconify"><path d="M16 11V9h-3V6h-2v3H8v2h3v3h2v-3h3m1-8c1.1 0 2 .9 2 2v10c0 1.1-.9 2-2 2h-4v2h1c.55 0 1 .45 1 1h7v2h-7c0 .55-.45 1-1 1h-4c-.55 0-1-.45-1-1H2v-2h7c0-.55.45-1 1-1h1v-2H7a2 2 0 0 1-2-2V5c0-1.1.9-2 2-2h10z" fill="#646464"/></svg>
