<?xml version="1.0"?>
<svg xmlns="http://www.w3.org/2000/svg" xmlns:xlink="http://www.w3.org/1999/xlink" aria-hidden="true" width="1em" height="1em" viewBox="0 0 24 24" data-icon="mdi:pocket" data-width="1em" data-height="1em" data-inline="false" class="iconify"><path d="M21.9 4.26c-.26-.71-.94-1.19-1.7-1.19H3.81c-.74 0-1.42.47-1.69 1.17-.08.21-.12.42-.12.64v6.04l.07 1.2c.29 2.73 1.71 5.11 3.9 6.78.03.03.08.06.12.1h.02c1.18.86 2.49 1.44 3.89 1.73.68.13 1.35.2 2 .2.63 0 1.25-.06 1.85-.17.08-.01.15-.03.22-.04.02-.01.04-.02.07-.03A9.72 9.72 0 0 0 17.89 19h.02c.04-.04.09-.07.12-.1 2.19-1.67 3.61-4.05 3.9-6.78l.07-1.2V4.88c0-.2-.03-.41-.1-.62m-4.23 6.29l-4.71 4.51c-.26.26-.61.38-.96.38-.33 0-.67-.12-.94-.38l-4.7-4.51a1.373 1.373 0 0 1 1.9-1.98l3.74 3.6 3.77-3.6c.54-.52 1.41-.5 1.94.04.52.55.5 1.42-.04 1.94z" fill="#646464"/></svg>
