<?xml version="1.0"?>
<svg xmlns="http://www.w3.org/2000/svg" xmlns:xlink="http://www.w3.org/1999/xlink" aria-hidden="true" width="1em" height="1em" viewBox="0 0 24 24" data-icon="mdi:podcast" data-width="1em" data-height="1em" data-inline="false" class="iconify"><path d="M17 18.25v3.25H7v-3.25c0-1.38 2.24-2.5 5-2.5s5 1.12 5 2.5M12 5.5a6.5 6.5 0 0 1 6.5 6.5c0 1.25-.35 2.42-.96 3.41L16 14.04c.32-.61.5-1.31.5-2.04 0-2.5-2-4.5-4.5-4.5s-4.5 2-4.5 4.5c0 .73.18 1.43.5 2.04l-1.54 1.37c-.61-.99-.96-2.16-.96-3.41A6.5 6.5 0 0 1 12 5.5m0-4c5.8 0 10.5 4.7 10.5 10.5 0 2.28-.73 4.39-1.96 6.11l-1.5-1.35c.92-1.36 1.46-3 1.46-4.76 0-4.69-3.81-8.5-8.5-8.5-4.69 0-8.5 3.81-8.5 8.5 0 1.76.54 3.4 1.46 4.76l-1.5 1.35A10.473 10.473 0 0 1 1.5 12C1.5 6.2 6.2 1.5 12 1.5m0 8a2.5 2.5 0 0 1 0 5 2.5 2.5 0 0 1 0-5z" fill="#646464"/></svg>
