<?xml version="1.0"?>
<svg xmlns="http://www.w3.org/2000/svg" xmlns:xlink="http://www.w3.org/1999/xlink" aria-hidden="true" width="1em" height="1em" viewBox="0 0 24 24" data-icon="mdi:pokeball" data-width="1em" data-height="1em" data-inline="false" class="iconify"><path d="M12 2c5.52 0 10 4.48 10 10s-4.48 10-10 10S2 17.52 2 12 6.48 2 12 2m0 2c-4.08 0-7.45 3.05-7.94 7h4.07c.44-1.73 2.01-3 3.87-3 1.86 0 3.43 1.27 3.87 3h4.07c-.49-3.95-3.86-7-7.94-7m0 16c4.08 0 7.45-3.05 7.94-7h-4.07c-.44 1.73-2.01 3-3.87 3-1.86 0-3.43-1.27-3.87-3H4.06c.49 3.95 3.86 7 7.94 7m0-10c-1.1 0-2 .9-2 2s.9 2 2 2 2-.9 2-2-.9-2-2-2z" fill="#646464"/></svg>
