<?xml version="1.0"?>
<svg xmlns="http://www.w3.org/2000/svg" xmlns:xlink="http://www.w3.org/1999/xlink" aria-hidden="true" width="1em" height="1em" viewBox="0 0 24 24" data-icon="mdi:pool" data-width="1em" data-height="1em" data-inline="false" class="iconify"><path d="M2 15c1.67-.75 3.33-1.5 5-1.83V5c0-1.66 1.34-3 3-3 1.31 0 2.42.83 2.83 2H10c-.55 0-1 .45-1 1v1h5V5c0-1.66 1.34-3 3-3 1.31 0 2.42.83 2.83 2H17c-.55 0-1 .45-1 1v9.94c2-.32 4-1.94 6-1.94v2c-2.22 0-4.44 2-6.67 2-2.22 0-4.44-2-6.66-2-2.23 0-4.45 1-6.67 2v-2m12-7H9v2h5V8m0 4H9v1c1.67.16 3.33 1.31 5 1.79V12M2 19c2.22-1 4.44-2 6.67-2 2.22 0 4.44 2 6.66 2 2.23 0 4.45-2 6.67-2v2c-2.22 0-4.44 2-6.67 2-2.22 0-4.44-2-6.66-2-2.23 0-4.45 1-6.67 2v-2z" fill="#646464"/></svg>
