<?xml version="1.0"?>
<svg xmlns="http://www.w3.org/2000/svg" xmlns:xlink="http://www.w3.org/1999/xlink" aria-hidden="true" width="1em" height="1em" viewBox="0 0 24 24" data-icon="mdi:pound-box" data-width="1em" data-height="1em" data-inline="false" class="iconify"><path d="M3 5c0-1.1.9-2 2-2h14c1.1 0 2 .9 2 2v14c0 1.1-.9 2-2 2H5a2 2 0 0 1-2-2V5m4 13h2l.35-2h4L13 18h2l.35-2h2l.36-2h-2l.7-4h2l.35-2h-2l.36-2h-2l-.36 2h-4l.36-2h-2l-.36 2h-2l-.35 2h2l-.7 4h-2l-.36 2h2L7 18m3.41-8h4l-.7 4h-4l.7-4z" fill="#646464"/></svg>
