<?xml version="1.0"?>
<svg xmlns="http://www.w3.org/2000/svg" xmlns:xlink="http://www.w3.org/1999/xlink" aria-hidden="true" width="1em" height="1em" viewBox="0 0 24 24" data-icon="mdi:power-socket-au" data-width="1em" data-height="1em" data-inline="false" class="iconify"><path d="M4.22 2C2.99 2 2 2.99 2 4.22v15.56C2 21 3 22 4.22 22h15.56c1.23 0 2.22-.99 2.22-2.22V4.22C22 3 21 2 19.78 2H4.22M12 4c4.42 0 8 3.58 8 8s-3.58 8-8 8-8-3.58-8-8 3.58-8 8-8M8.27 7.54l-2 3.46L8 12l2-3.46-1.73-1m7.46 0l-1.73 1L16 12l1.73-1-2-3.46M11 14v4h2v-4h-2z" fill="#646464"/></svg>
