<?xml version="1.0"?>
<svg xmlns="http://www.w3.org/2000/svg" xmlns:xlink="http://www.w3.org/1999/xlink" aria-hidden="true" width="1em" height="1em" viewBox="0 0 24 24" data-icon="mdi:power-socket-us" data-width="1em" data-height="1em" data-inline="false" class="iconify"><path d="M8 7h2v5H8V7M4.22 2h15.56C21 2 22 3 22 4.22v15.56c0 1.23-.99 2.22-2.22 2.22H4.22C3 22 2 21 2 19.78V4.22C2 2.99 2.99 2 4.22 2M12 4c-4.42 0-8 3.58-8 8s3.58 8 8 8 8-3.58 8-8-3.58-8-8-8m2 3.5h2v4h-2v-4m-3.5 8.75c0-.83.67-1.5 1.5-1.5s1.5.67 1.5 1.5V17h-3v-.75z" fill="#646464"/></svg>
