<?xml version="1.0"?>
<svg xmlns="http://www.w3.org/2000/svg" xmlns:xlink="http://www.w3.org/1999/xlink" aria-hidden="true" width="1em" height="1em" viewBox="0 0 24 24" data-icon="mdi:power-settings" data-width="1em" data-height="1em" data-inline="false" class="iconify"><path d="M15 24h2v-2h-2m1.56-17.56l-1.45 1.45A5.969 5.969 0 0 1 18 11c0 3.31-2.69 6-6 6s-6-2.69-6-6c0-2.17 1.16-4.06 2.88-5.12L7.44 4.44A7.961 7.961 0 0 0 4 11c0 4.42 3.58 8 8 8s8-3.58 8-8c0-2.72-1.36-5.12-3.44-6.56M13 2h-2v10h2m-2 12h2v-2h-2m-4 2h2v-2H7v2z" fill="#646464"/></svg>
