<?xml version="1.0"?>
<svg xmlns="http://www.w3.org/2000/svg" xmlns:xlink="http://www.w3.org/1999/xlink" aria-hidden="true" width="1em" height="1em" viewBox="0 0 24 24" data-icon="mdi:power-standby" data-width="1em" data-height="1em" data-inline="false" class="iconify"><path d="M13 3h-2v10h2V3m4.83 2.17l-1.42 1.42A6.944 6.944 0 0 1 19 12c0 3.87-3.13 7-7 7A6.995 6.995 0 0 1 7.58 6.58L6.17 5.17a9.001 9.001 0 0 0-1.03 12.69c3.22 3.78 8.9 4.24 12.69 1.02A9.003 9.003 0 0 0 21 12c0-2.63-1.16-5.13-3.17-6.83z" fill="#646464"/></svg>
