<?xml version="1.0"?>
<svg xmlns="http://www.w3.org/2000/svg" xmlns:xlink="http://www.w3.org/1999/xlink" aria-hidden="true" width="1em" height="1em" viewBox="0 0 24 24" data-icon="mdi:presentation-play" data-width="1em" data-height="1em" data-inline="false" class="iconify"><path d="M2 3h8c0-1.1.9-2 2-2s2 .9 2 2h8v2h-1v11h-5.75L17 22h-2l-1.75-6h-2.5L9 22H7l1.75-6H3V5H2V3m3 2v9h14V5H5m6.85 6.85a.495.495 0 0 1-.85-.35v-4a.495.495 0 0 1 .85-.35l1.4 1.39c.32.32.64.64.64.96 0 .32-.32.64-.64.96l-1.4 1.39z" fill="#646464"/></svg>
