<?xml version="1.0"?>
<svg xmlns="http://www.w3.org/2000/svg" xmlns:xlink="http://www.w3.org/1999/xlink" aria-hidden="true" width="1em" height="1em" viewBox="0 0 24 24" data-icon="mdi:printer-wireless" data-width="1em" data-height="1em" data-inline="false" class="iconify"><path d="M4.93 3.92l1.41 1.41c3.12-3.13 8.19-3.13 11.32 0l1.41-1.41C15.17 0 8.84 0 4.93 3.92m2.83 2.83l1.41 1.41a4.008 4.008 0 0 1 5.66 0l1.41-1.41a6 6 0 0 0-8.48 0M19 14c-.55 0-1-.45-1-1s.45-1 1-1 1 .45 1 1-.45 1-1 1m-3 6H8v-5h8v5m3-10H5c-1.66 0-3 1.34-3 3v5h4v4h12v-4h4v-5c0-1.66-1.34-3-3-3z" fill="#646464"/></svg>
