<?xml version="1.0"?>
<svg xmlns="http://www.w3.org/2000/svg" xmlns:xlink="http://www.w3.org/1999/xlink" aria-hidden="true" width="1em" height="1em" viewBox="0 0 24 24" data-icon="mdi:printer-3d" data-width="1em" data-height="1em" data-inline="false" class="iconify"><path d="M19 6c.55 0 1-.45 1-1s-.45-1-1-1-1 .45-1 1 .45 1 1 1m0-4c1.66 0 3 1.34 3 3v6h-4V7H6v4H2V5c0-1.66 1.34-3 3-3h14m-1 16.25c0 .38-.21.71-.53.88l-4.9 2.69c-.17.12-.36.18-.57.18-.21 0-.41-.06-.57-.18l-4.9-2.69a.991.991 0 0 1-.53-.88V13c0-.38.21-.71.53-.88l4.9-2.44c.16-.12.36-.18.57-.18.21 0 .4.06.57.18l4.9 2.44c.32.17.53.5.53.88v5.25m-6-6.6L9.04 13 12 14.6l2.96-1.6L12 11.65m-4 6.01l3 1.63v-2.96l-3-1.62v2.95m8 0v-2.95l-3 1.62v2.96l3-1.63z" fill="#646464"/></svg>
