<?xml version="1.0"?>
<svg xmlns="http://www.w3.org/2000/svg" xmlns:xlink="http://www.w3.org/1999/xlink" aria-hidden="true" width="1em" height="1em" viewBox="0 0 24 24" data-icon="mdi:projector" data-width="1em" data-height="1em" data-inline="false" class="iconify"><path d="M16 6c-1.13 0-2.23.35-3.16 1H4c-1.11 0-2 .89-2 2v6c0 1.11.89 2 2 2h1v1c0 .55.45 1 1 1h2c.55 0 1-.45 1-1v-1h6v1c0 .55.45 1 1 1h2c.55 0 1-.45 1-1v-1h1c1.11 0 2-.89 2-2V9c0-1.11-.89-2-2-2h-.85c-.92-.65-2.02-1-3.15-1m0 1.5c1.93 0 3.5 1.57 3.5 3.5s-1.57 3.5-3.5 3.5-3.5-1.57-3.5-3.5 1.57-3.5 3.5-3.5M4 9h4v1H4V9m12 0c-1.1 0-2 .9-2 2s.9 2 2 2 2-.9 2-2-.9-2-2-2M4 11h4v1H4v-1m0 2h4v1H4v-1z" fill="#646464"/></svg>
