<?xml version="1.0"?>
<svg xmlns="http://www.w3.org/2000/svg" xmlns:xlink="http://www.w3.org/1999/xlink" aria-hidden="true" width="1em" height="1em" viewBox="0 0 24 24" data-icon="mdi:puzzle" data-width="1em" data-height="1em" data-inline="false" class="iconify"><path d="M20.5 11H19V7a2 2 0 0 0-2-2h-4V3.5a2.5 2.5 0 0 0-5 0V5H4c-1.1 0-2 .9-2 2v3.8h1.5c1.5 0 2.7 1.2 2.7 2.7 0 1.5-1.2 2.7-2.7 2.7H2V20c0 1.1.9 2 2 2h3.8v-1.5c0-1.5 1.2-2.7 2.7-2.7 1.5 0 2.7 1.2 2.7 2.7V22H17c1.1 0 2-.9 2-2v-4h1.5a2.5 2.5 0 0 0 0-5z" fill="#646464"/></svg>
