<?xml version="1.0"?>
<svg xmlns="http://www.w3.org/2000/svg" xmlns:xlink="http://www.w3.org/1999/xlink" aria-hidden="true" width="1em" height="1em" viewBox="0 0 24 24" data-icon="mdi:qrcode-scan" data-width="1em" data-height="1em" data-inline="false" class="iconify"><path d="M4 4h6v6H4V4m16 0v6h-6V4h6m-6 11h2v-2h-2v-2h2v2h2v-2h2v2h-2v2h2v3h-2v2h-2v-2h-3v2h-2v-4h3v-1m2 0v3h2v-3h-2M4 20v-6h6v6H4M6 6v2h2V6H6m10 0v2h2V6h-2M6 16v2h2v-2H6m-2-5h2v2H4v-2m5 0h4v4h-2v-2H9v-2m2-5h2v4h-2V6M2 2v4H0V2C0 .9.9 0 2 0h4v2H2m20-2c1.1 0 2 .9 2 2v4h-2V2h-4V0h4M2 18v4h4v2H2c-1.1 0-2-.9-2-2v-4h2m20 4v-4h2v4c0 1.1-.9 2-2 2h-4v-2h4z" fill="#646464"/></svg>
