<?xml version="1.0"?>
<svg xmlns="http://www.w3.org/2000/svg" xmlns:xlink="http://www.w3.org/1999/xlink" aria-hidden="true" width="1em" height="1em" viewBox="0 0 24 24" data-icon="mdi:quality-high" data-width="1em" data-height="1em" data-inline="false" class="iconify"><path d="M14.5 13.5h2v-3h-2M18 14c0 .55-.45 1-1 1h-.75v1.5h-1.5V15H14c-.55 0-1-.45-1-1v-4c0-.55.45-1 1-1h3c.55 0 1 .45 1 1m-7 5H9.5v-2h-2v2H6V9h1.5v2.5h2V9H11m8-5H5c-1.11 0-2 .89-2 2v12c0 1.1.9 2 2 2h14c1.1 0 2-.9 2-2V6a2 2 0 0 0-2-2z" fill="#646464"/></svg>
