<?xml version="1.0"?>
<svg xmlns="http://www.w3.org/2000/svg" xmlns:xlink="http://www.w3.org/1999/xlink" aria-hidden="true" width="1em" height="1em" viewBox="0 0 24 24" data-icon="mdi:quality-medium" data-width="1em" data-height="1em" data-inline="false" class="iconify"><path d="M21 6v12c0 1.1-.9 2-2 2H5c-1.1 0-2-.9-2-2V6c0-1.1.9-2 2-2h14c1.1 0 2 .9 2 2m-9 4c0-.5-.5-1-1-1H6.5c-.5 0-1 .5-1 1v5H7v-4.5h1V14h1.5v-3.5h1V15H12v-5m2.5-1c-.55 0-1 .45-1 1v4c0 .55.45 1 1 1h1v1.5h1.25V15h.75c.55 0 1-.45 1-1v-4c0-.55-.45-1-1-1h-3m.5 1.5h2v3h-2v-3z" fill="#646464"/></svg>
