<?xml version="1.0"?>
<svg xmlns="http://www.w3.org/2000/svg" xmlns:xlink="http://www.w3.org/1999/xlink" aria-hidden="true" width="1em" height="1em" viewBox="0 0 24 24" data-icon="mdi:quality-low" data-width="1em" data-height="1em" data-inline="false" class="iconify"><path d="M14.5 13.5h2v-3h-2M18 14c0 .6-.4 1-1 1h-.75v1.5h-1.5V15H14c-.6 0-1-.4-1-1v-4c0-.6.4-1 1-1h3c.6 0 1 .4 1 1m1-6H5c-1.1 0-2 .9-2 2v12c0 1.1.9 2 2 2h14c1.1 0 2-.9 2-2V6c0-1.1-.9-2-2-2m-8 9.5V15H6V9h1.5v4.5H11z" fill="#646464"/></svg>
