<?xml version="1.0"?>
<svg xmlns="http://www.w3.org/2000/svg" xmlns:xlink="http://www.w3.org/1999/xlink" aria-hidden="true" width="1em" height="1em" viewBox="0 0 24 24" data-icon="mdi:quicktime" data-width="1em" data-height="1em" data-inline="false" class="iconify"><path d="M12 3a9 9 0 0 1 9 9c0 1.76-.5 3.4-1.38 4.79L21 18.17V20c0 .55-.45 1-1 1h-1.82l-1.39-1.38A8.887 8.887 0 0 1 12 21a9 9 0 0 1 0-18m0 4c-2.76 0-5 2.24-5 5s2.24 5 5 5c.65 0 1.26-.12 1.83-.35l-2.88-2.88c-.78-.77-.78-2.05 0-2.83.78-.78 2.05-.78 2.83 0l2.88 2.88A5.002 5.002 0 0 0 12 7z" fill="#646464"/></svg>
