<?xml version="1.0"?>
<svg xmlns="http://www.w3.org/2000/svg" xmlns:xlink="http://www.w3.org/1999/xlink" aria-hidden="true" width="1em" height="1em" viewBox="0 0 24 24" data-icon="mdi:radiator-off" data-width="1em" data-height="1em" data-inline="false" class="iconify"><path d="M3.28 2L2 3.27l2.77 2.77.87 1.35L4.22 9.6l1.73.9 1.28-2 3.5 3.5H4c-1.1 0-2 .9-2 2v8h2v-2h14.73L20 21.27V22h2v-1.28L3.28 2M7 17c0 .55-.45 1-1 1s-1-.45-1-1v-2c0-.55.45-1 1-1s1 .45 1 1v2m4 0c0 .55-.45 1-1 1s-1-.45-1-1v-2c0-.55.45-1 1-1s1 .45 1 1v2m4 0c0 .55-.45 1-1 1s-1-.45-1-1v-2c0-.21.08-.39.18-.55L15 16.27V17m1.25-7.5l1.42-2.2-1.42-2.2 2-3.1 1.75.89-1.44 2.21L20 7.3v.01l-2 3.09-1.75-.9M22 14v4.18l-3-3V15c0-.55-.45-1-1-1-.05 0-.1 0-.15.03L15.82 12H20a2 2 0 0 1 2 2M11.64 7.3l-1.42-2.2 2-3.1 1.73.89-1.42 2.21 1.42 2.2-.01.01L12.84 9l-1.4-1.38.2-.32M7.5 3.69L6.1 2.28l.12-.19L7.95 3l-.45.69z" fill="#646464"/></svg>
