<?xml version="1.0"?>
<svg xmlns="http://www.w3.org/2000/svg" xmlns:xlink="http://www.w3.org/1999/xlink" aria-hidden="true" width="1em" height="1em" viewBox="0 0 24 24" data-icon="mdi:radioactive" data-width="1em" data-height="1em" data-inline="false" class="iconify"><path d="M12 10c1.1 0 2 .9 2 2s-.9 2-2 2-2-.9-2-2 .9-2 2-2m0 12c-1.95 0-3.78-.56-5.31-1.53l3.31-5a4.037 4.037 0 0 0 4 0l3.31 5A9.903 9.903 0 0 1 12 22M2 12c0-4.14 2.5-7.7 6.11-9.22l2.23 5.58A4.008 4.008 0 0 0 8 12H2m14 0c0-1.62-.96-3-2.34-3.64l2.23-5.58A9.985 9.985 0 0 1 22 12h-6z" fill="#646464"/></svg>
