<?xml version="1.0"?>
<svg xmlns="http://www.w3.org/2000/svg" xmlns:xlink="http://www.w3.org/1999/xlink" aria-hidden="true" width="1em" height="1em" viewBox="0 0 24 24" data-icon="mdi:radiator" data-width="1em" data-height="1em" data-inline="false" class="iconify"><path d="M7.95 3L6.53 5.19 7.95 7.4h-.01l-1.99 3.1-1.73-.9 1.42-2.21-1.42-2.2 2-3.1L7.95 3m6-.11L12.53 5.1l1.42 2.2-.01.01-1.99 3.09-1.73-.9 1.42-2.2-1.42-2.2 2-3.1 1.73.89m6.05 0L18.56 5.1 20 7.3v.01l-2 3.09-1.75-.9 1.42-2.2-1.42-2.2 2-3.1 1.75.89M2 22v-8c0-1.1.9-2 2-2h16c1.1 0 2 .9 2 2v8h-2v-2H4v2H2m4-8c-.55 0-1 .45-1 1v2c0 .55.45 1 1 1s1-.45 1-1v-2c0-.55-.45-1-1-1m4 0c-.55 0-1 .45-1 1v2c0 .55.45 1 1 1s1-.45 1-1v-2c0-.55-.45-1-1-1m4 0c-.55 0-1 .45-1 1v2c0 .55.45 1 1 1s1-.45 1-1v-2c0-.55-.45-1-1-1m4 0c-.55 0-1 .45-1 1v2c0 .55.45 1 1 1s1-.45 1-1v-2c0-.55-.45-1-1-1z" fill="#646464"/></svg>
