<?xml version="1.0"?>
<svg xmlns="http://www.w3.org/2000/svg" xmlns:xlink="http://www.w3.org/1999/xlink" aria-hidden="true" width="1em" height="1em" viewBox="0 0 24 24" data-icon="mdi:radiator-disabled" data-width="1em" data-height="1em" data-inline="false" class="iconify"><path d="M20 12H4c-1.1 0-2 .9-2 2v8h2v-2h16v2h2v-8c0-1.1-.9-2-2-2M7 17c0 .55-.45 1-1 1s-1-.45-1-1v-2c0-.55.45-1 1-1s1 .45 1 1v2m4 0c0 .55-.45 1-1 1s-1-.45-1-1v-2c0-.55.45-1 1-1s1 .45 1 1v2m4 0c0 .55-.45 1-1 1s-1-.45-1-1v-2c0-.55.45-1 1-1s1 .45 1 1v2m4 0c0 .55-.45 1-1 1s-1-.45-1-1v-2c0-.55.45-1 1-1s1 .45 1 1v2z" fill="#646464"/></svg>
