<?xml version="1.0"?>
<svg xmlns="http://www.w3.org/2000/svg" xmlns:xlink="http://www.w3.org/1999/xlink" aria-hidden="true" width="1em" height="1em" viewBox="0 0 24 24" data-icon="mdi:radio-tower" data-width="1em" data-height="1em" data-inline="false" class="iconify"><path d="M12 10a2 2 0 1 1 1.53 3.29L16.7 22h-2.13L12 14.93 9.43 22H7.3l3.17-8.71A2 2 0 0 1 12 10m0-2c-2.21 0-4 1.79-4 4 0 .5.1 1 .28 1.46l-.88 2.4A6.005 6.005 0 0 1 12 6a6.005 6.005 0 0 1 4.6 9.86l-.88-2.4C15.9 13 16 12.5 16 12c0-2.21-1.79-4-4-4m0-4c-4.42 0-8 3.58-8 8 0 2.36 1 4.5 2.64 5.94l-.72 2A10.005 10.005 0 0 1 2 12C2 6.48 6.48 2 12 2s10 4.48 10 10c0 3.23-1.54 6.11-3.92 7.94l-.72-2C19 16.5 20 14.36 20 12c0-4.42-3.58-8-8-8z" fill="#646464"/></svg>
