<?xml version="1.0"?>
<svg xmlns="http://www.w3.org/2000/svg" xmlns:xlink="http://www.w3.org/1999/xlink" aria-hidden="true" width="1em" height="1em" viewBox="0 0 24 24" data-icon="mdi:raspberrypi" data-width="1em" data-height="1em" data-inline="false" class="iconify"><path d="M20 8h2v2h-2V8M4 5h16c1.1 0 2 .9 2 2h-3v2H5v4h3v3h11v1h3c0 1.1-.9 2-2 2h-4v1h-2v-1h-3v1H7v-1H4c-1.1 0-2-.9-2-2V7c0-1.1.9-2 2-2m15 10H9v-5h10v1h3v2h-3v2m-6-3v2h2v-2h-2M5 6v2h1V6H5m2 0v2h1V6H7m2 0v2h1V6H9m2 0v2h1V6h-1m2 0v2h1V6h-1m2 0v2h1V6h-1m5 8h2v2h-2v-2z" fill="#646464"/></svg>
