<?xml version="1.0"?>
<svg xmlns="http://www.w3.org/2000/svg" xmlns:xlink="http://www.w3.org/1999/xlink" aria-hidden="true" width="1em" height="1em" viewBox="0 0 24 24" data-icon="mdi:record-rec" data-width="1em" data-height="1em" data-inline="false" class="iconify"><path d="M12.5 5C8.36 5 5 8.36 5 12.5c0 4.14 3.36 7.5 7.5 7.5 4.14 0 7.5-3.36 7.5-7.5C20 8.36 16.64 5 12.5 5M7 10h2c.55 0 1 .45 1 1v1c0 .5-.38.9-.86.97L10.31 15H9.15L8 13v2H7m5-5h2v1h-2v1h2v1h-2v1h2v1h-2c-.55 0-1-.45-1-1v-3c0-.55.45-1 1-1m4 0h2v1h-2v3h2v1h-2c-.55 0-1-.45-1-1v-3c0-.55.45-1 1-1m-8 1v1h1v-1" fill="#646464"/></svg>
