<?xml version="1.0"?>
<svg xmlns="http://www.w3.org/2000/svg" xmlns:xlink="http://www.w3.org/1999/xlink" aria-hidden="true" width="1em" height="1em" viewBox="0 0 24 24" data-icon="mdi:reflect-vertical" data-width="1em" data-height="1em" data-inline="false" class="iconify"><path d="M18 23H6c-.39 0-.74-.21-.91-.55a.998.998 0 0 1 .1-1.05l6.01-8.02c.38-.51 1.22-.51 1.6 0l6.01 8.02c.23.3.27.71.1 1.05-.17.34-.52.55-.91.55m0-22c.39 0 .74.21.91.55.17.34.13.75-.1 1.05l-6.01 8.02c-.38.51-1.22.51-1.6 0L5.19 2.6a.998.998 0 0 1-.1-1.05C5.26 1.21 5.61 1 6 1h12M8 3l4 5.35L16 3H8z" fill="#646464"/></svg>
