<?xml version="1.0"?>
<svg xmlns="http://www.w3.org/2000/svg" xmlns:xlink="http://www.w3.org/1999/xlink" aria-hidden="true" width="1em" height="1em" viewBox="0 0 24 24" data-icon="mdi:registered-trademark" data-width="1em" data-height="1em" data-inline="false" class="iconify"><path d="M12 2C6.48 2 2 6.48 2 12s4.48 10 10 10 10-4.48 10-10S17.52 2 12 2m0 18c-4.41 0-8-3.59-8-8s3.59-8 8-8 8 3.59 8 8-3.59 8-8 8m.25-6.73h-1.44v3.23H9V7.71h3.26c1.03 0 1.83.23 2.4.69.56.47.84 1.1.84 1.96 0 .6-.13 1.1-.39 1.5-.26.4-.65.72-1.18.95l1.9 3.59v.1h-1.94l-1.64-3.23m-1.44-1.46h1.46c.45 0 .8-.12 1.05-.35.25-.23.37-.55.37-.96 0-.41-.11-.73-.35-.97-.23-.24-.59-.35-1.08-.35h-1.45v2.63z" fill="#646464"/></svg>
