<?xml version="1.0"?>
<svg xmlns="http://www.w3.org/2000/svg" xmlns:xlink="http://www.w3.org/1999/xlink" aria-hidden="true" width="1em" height="1em" viewBox="0 0 24 24" data-icon="mdi:reminder" data-width="1em" data-height="1em" data-inline="false" class="iconify"><path d="M7.25 3c.65 0 1.25.21 1.75.56V3c0-1.1.9-2 2-2s2 .9 2 2v.57c.5-.35 1.1-.57 1.75-.57 1.66 0 3 1.34 3 3 0 1.58-1.21 2.87-2.75 3h-2v1h1.24l.48.13 4.59 2.29c.82.31 1.22.92 1.22 1.83l-.03.14v.14l-1 6.75c-.06.47-.28.88-.66 1.22-.37.34-.79.5-1.26.5H10c-.55 0-1-.19-1.42-.59L2 15.84l1.05-1.07c.28-.27.64-.43 1.08-.43h.32l4.55.99V9H7a3.021 3.021 0 0 1-2.75-3c0-1.66 1.34-3 3-3M9 6c0-.97-.78-1.75-1.75-1.75S5.5 5.03 5.5 6c0 .88.65 1.61 1.5 1.73v.02h2V6m6 1.75v-.01c.85-.12 1.5-.85 1.5-1.74 0-.96-.78-1.74-1.75-1.74S13 5.04 13 6v1.75h2z" fill="#646464"/></svg>
