<?xml version="1.0"?>
<svg xmlns="http://www.w3.org/2000/svg" xmlns:xlink="http://www.w3.org/1999/xlink" aria-hidden="true" width="1em" height="1em" viewBox="0 0 24 24" data-icon="mdi:reproduction" data-width="1em" data-height="1em" data-inline="false" class="iconify"><path d="M12.72 13.15l.9-.89c-.02-1.26.69-2.82 2-4.12 1.95-1.96 4.49-2.59 5.66-1.42s.54 3.71-1.42 5.66c-1.3 1.31-2.86 2.02-4.12 2l-.89.9c-.35.33-.85.38-1.25.13-.84.3-1.6.67-2.04 1.39-.53.88-.53 2.3-1.09 3.15-.56.86-1.68 1.15-2.86 1.15S5 21 3.95 19.5l2.48.42c.57.08 2.07-.53 2.62-1.38.56-.86.56-2.27 1.09-3.16.47-.78 1.36-1.15 2.29-1.47-.01-.27.07-.55.29-.76M7 2c2.76 0 5 2.24 5 5s-2.24 5-5 5-5-2.24-5-5 2.24-5 5-5m0 2C5.34 4 4 5.34 4 7s1.34 3 3 3 3-1.34 3-3-1.34-3-3-3z" fill="#646464"/></svg>
