<?xml version="1.0"?>
<svg xmlns="http://www.w3.org/2000/svg" xmlns:xlink="http://www.w3.org/1999/xlink" aria-hidden="true" width="1em" height="1em" viewBox="0 0 24 24" data-icon="mdi:resistor-nodes" data-width="1em" data-height="1em" data-inline="false" class="iconify"><path d="M2 11h1.67c.41-1.17 1.52-2 2.83-2a2.996 2.996 0 0 1 2.44 4.74l1.13 1.61L13.11 4l1.5 2.13 2.09 2.98.8-.11c1.31 0 2.42.83 2.83 2H22v2h-1.67a2.99 2.99 0 0 1-2.83 2 2.996 2.996 0 0 1-2.44-4.74l-1.13-1.61L10.89 20 7.3 14.89A2.99 2.99 0 0 1 3.67 13H2v-2m15.5-.5c-.83 0-1.5.67-1.5 1.5s.67 1.5 1.5 1.5S19 12.83 19 12s-.67-1.5-1.5-1.5m-11 0c-.83 0-1.5.67-1.5 1.5s.67 1.5 1.5 1.5S8 12.83 8 12s-.67-1.5-1.5-1.5z" fill="#646464"/></svg>
