<?xml version="1.0"?>
<svg xmlns="http://www.w3.org/2000/svg" xmlns:xlink="http://www.w3.org/1999/xlink" aria-hidden="true" width="1em" height="1em" viewBox="0 0 24 24" data-icon="mdi:responsive" data-width="1em" data-height="1em" data-inline="false" class="iconify"><path d="M4 6v10h5v-4c0-1.1.9-2 2-2h5c1.1 0 2 .9 2 2v4h2V6H4M0 20v-2h4c-1.1 0-2-.9-2-2V6c0-1.1.9-2 2-2h16c1.1 0 2 .9 2 2v10c0 1.1-.9 2-2 2h4v2h-6a2 2 0 0 1-2 2h-5c-1.1 0-2-.9-2-2H0m11.5 0c-.28 0-.5.22-.5.5s.22.5.5.5.5-.22.5-.5-.22-.5-.5-.5m4 0c-.28 0-.5.22-.5.5s.22.5.5.5.5-.22.5-.5-.22-.5-.5-.5M13 20v1h1v-1h-1m-2-8v7h5v-7h-5z" fill="#646464"/></svg>
