<?xml version="1.0"?>
<svg xmlns="http://www.w3.org/2000/svg" xmlns:xlink="http://www.w3.org/1999/xlink" aria-hidden="true" width="1em" height="1em" viewBox="0 0 24 24" data-icon="mdi:rice" data-width="1em" data-height="1em" data-inline="false" class="iconify"><path d="M22 11h-2.3c-.3-1.1-.8-2.2-1.5-3l3.4-5.4-1.7-1.1-3.2 5.1c-.4-.3-.7-.5-1.2-.7l.9-3.6-1.9-.5-.8 3.4c-.6-.1-1.1-.2-1.7-.2-3.7 0-6.8 2.6-7.7 6H2c0 4.1 2.5 7.6 6 9.2V22h8v-1.8c3.5-1.6 6-5.1 6-9.2M12 7c2.6 0 4.8 1.7 5.6 4H6.4c.8-2.3 3-4 5.6-4z" fill="#646464"/></svg>
