<?xml version="1.0"?>
<svg xmlns="http://www.w3.org/2000/svg" xmlns:xlink="http://www.w3.org/1999/xlink" aria-hidden="true" width="1em" height="1em" viewBox="0 0 24 24" data-icon="mdi:robot-vacuum" data-width="1em" data-height="1em" data-inline="false" class="iconify"><path d="M12 2c2.65 0 5.19 1.06 7.07 2.93l-1.42 1.42A7.994 7.994 0 0 0 12 4c-2.12 0-4.16.84-5.65 2.35L4.93 4.93C6.81 3.06 9.35 2 12 2M3.66 6.5l1.45 1.44A8.043 8.043 0 0 0 4 12c0 4.42 3.58 8 8 8s8-3.58 8-8c0-1.43-.39-2.83-1.12-4.06l1.46-1.44A9.93 9.93 0 0 1 22 12c0 5.52-4.48 10-10 10S2 17.52 2 12c0-1.96.58-3.88 1.66-5.5M12 6c3.31 0 6 2.69 6 6 0 1.59-.63 3.12-1.76 4.24l-1.41-1.41a4.004 4.004 0 0 1-5.66 0l-1.41 1.41A5.97 5.97 0 0 1 6 12c0-3.31 2.69-6 6-6m0 2c-.55 0-1 .45-1 1s.45 1 1 1 1-.45 1-1-.45-1-1-1z" fill="#646464"/></svg>
