<?xml version="1.0"?>
<svg xmlns="http://www.w3.org/2000/svg" xmlns:xlink="http://www.w3.org/1999/xlink" aria-hidden="true" width="1em" height="1em" viewBox="0 0 24 24" data-icon="mdi:robot-industrial" data-width="1em" data-height="1em" data-inline="false" class="iconify"><path d="M18.41 4L16 6.41v.18L18.41 9H22v2h-4.41L16 9.41V12h-1c-1.1 0-2-.9-2-2V7.5H9.86c-.09.37-.24.72-.44 1.05L15.18 19H20c1.1 0 2 .9 2 2v1H2v-1c0-1.1.9-2 2-2h6.61l-4.69-8.5a4.006 4.006 0 0 1-3.81-3A4 4 0 0 1 5 2.63c2.13-.55 4.31.73 4.86 2.87H13V3c0-1.1.9-2 2-2h1v2.59L17.59 2H22v2h-3.59M6 4.5c-1.1 0-2 .9-2 2s.9 2 2 2 2-.9 2-2-.9-2-2-2z" fill="#646464"/></svg>
