<?xml version="1.0"?>
<svg xmlns="http://www.w3.org/2000/svg" xmlns:xlink="http://www.w3.org/1999/xlink" aria-hidden="true" width="1em" height="1em" viewBox="0 0 24 24" data-icon="mdi:robot" data-width="1em" data-height="1em" data-inline="false" class="iconify"><path d="M12 2c1.1 0 2 .9 2 2 0 .74-.4 1.39-1 1.73V7h1c3.87 0 7 3.13 7 7h1c.55 0 1 .45 1 1v3c0 .55-.45 1-1 1h-1v1c0 1.1-.9 2-2 2H5c-1.1 0-2-.9-2-2v-1H2c-.55 0-1-.45-1-1v-3c0-.55.45-1 1-1h1c0-3.87 3.13-7 7-7h1V5.73c-.6-.34-1-.99-1-1.73 0-1.1.9-2 2-2M7.5 13a2.5 2.5 0 0 0 0 5 2.5 2.5 0 0 0 0-5m9 0a2.5 2.5 0 0 0 0 5 2.5 2.5 0 0 0 0-5z" fill="#646464"/></svg>
