<?xml version="1.0"?>
<svg xmlns="http://www.w3.org/2000/svg" xmlns:xlink="http://www.w3.org/1999/xlink" aria-hidden="true" width="1em" height="1em" viewBox="0 0 24 24" data-icon="mdi:rotate-right-variant" data-width="1em" data-height="1em" data-inline="false" class="iconify"><path d="M10 4V1l4 4-4 4V6c-3.31 0-6 2.69-6 6l.08 1H2.06L2 12c0-4.42 3.58-8 8-8m7-2h3c1.1 0 2 .9 2 2v16c0 1.1-.9 2-2 2h-3c-1.1 0-2-.9-2-2V4c0-1.1.9-2 2-2M4 15h9v7H4c-1.1 0-2-.9-2-2v-3c0-1.1.9-2 2-2z" fill="#646464"/></svg>
