<?xml version="1.0"?>
<svg xmlns="http://www.w3.org/2000/svg" xmlns:xlink="http://www.w3.org/1999/xlink" aria-hidden="true" width="1em" height="1em" viewBox="0 0 24 24" data-icon="mdi:rotate-left-variant" data-width="1em" data-height="1em" data-inline="false" class="iconify"><path d="M4 2h3c1.1 0 2 .9 2 2v16c0 1.1-.9 2-2 2H4c-1.1 0-2-.9-2-2V4c0-1.1.9-2 2-2m16 13c1.1 0 2 .9 2 2v3c0 1.1-.9 2-2 2h-9v-7h9M14 4c4.42 0 8 3.58 8 8l-.06 1h-2.02l.08-1c0-3.31-2.69-6-6-6v3l-4-4 4-4v3z" fill="#646464"/></svg>
