<?xml version="1.0"?>
<svg xmlns="http://www.w3.org/2000/svg" xmlns:xlink="http://www.w3.org/1999/xlink" aria-hidden="true" width="1em" height="1em" viewBox="0 0 24 24" data-icon="mdi:rotate-3d" data-width="1em" data-height="1em" data-inline="false" class="iconify"><path d="M12 5c4.97 0 9 2.69 9 6 0 1.68-1.04 3.2-2.71 4.29 1.07-.87 1.71-1.97 1.71-3.16C20 9.29 16.42 7 12 7v3L8 6l4-4v3m0 14c-4.97 0-9-2.69-9-6 0-1.68 1.04-3.2 2.71-4.29C4.64 9.58 4 10.68 4 11.88 4 14.71 7.58 17 12 17v-3l4 4-4 4v-3z" fill="#646464"/></svg>
