<?xml version="1.0"?>
<svg xmlns="http://www.w3.org/2000/svg" xmlns:xlink="http://www.w3.org/1999/xlink" aria-hidden="true" width="1em" height="1em" viewBox="0 0 24 24" data-icon="mdi:router-wireless-settings" data-width="1em" data-height="1em" data-inline="false" class="iconify"><path d="M20.2 4.9C19 3.8 17.5 3.2 16 3.2s-3 .6-4.2 1.7l-.8-.8C12.4 2.7 14.2 2 16 2c1.8 0 3.6.7 5 2.1l-.8.8m-.9.8l-.8.8c-.7-.7-1.6-1-2.5-1-.9 0-1.8.3-2.5 1l-.8-.8c.9-.9 2.1-1.4 3.3-1.4 1.2 0 2.4.5 3.3 1.4M19 12c1.1 0 2 .9 2 2v4c0 1.1-.9 2-2 2H5c-1.1 0-2-.9-2-2v-4c0-1.1.9-2 2-2h10V8h2v4h2M8 17v-2H6v2h2m3.5 0v-2h-2v2h2m3.5 0v-2h-2v2h2m-8 5h2v2H7v-2m4 0h2v2h-2v-2m4 0h2v2h-2v-2z" fill="#646464"/></svg>
