<?xml version="1.0"?>
<svg xmlns="http://www.w3.org/2000/svg" xmlns:xlink="http://www.w3.org/1999/xlink" aria-hidden="true" width="1em" height="1em" viewBox="0 0 24 24" data-icon="mdi:router-wireless" data-width="1em" data-height="1em" data-inline="false" class="iconify"><path d="M20.2 5.9l.8-.8C19.6 3.7 17.8 3 16 3c-1.8 0-3.6.7-5 2.1l.8.8C13 4.8 14.5 4.2 16 4.2s3 .6 4.2 1.7m-.9.8c-.9-.9-2.1-1.4-3.3-1.4-1.2 0-2.4.5-3.3 1.4l.8.8c.7-.7 1.6-1 2.5-1 .9 0 1.8.3 2.5 1l.8-.8M19 13h-2V9h-2v4H5c-1.1 0-2 .9-2 2v4c0 1.1.9 2 2 2h14c1.1 0 2-.9 2-2v-4c0-1.1-.9-2-2-2M8 18H6v-2h2v2m3.5 0h-2v-2h2v2m3.5 0h-2v-2h2v2z" fill="#646464"/></svg>
