<?xml version="1.0"?>
<svg xmlns="http://www.w3.org/2000/svg" xmlns:xlink="http://www.w3.org/1999/xlink" aria-hidden="true" width="1em" height="1em" viewBox="0 0 24 24" data-icon="mdi:rowing" data-width="1em" data-height="1em" data-inline="false" class="iconify"><path d="M8.5 14.5L4 19l1.5 1.5L9 17h2l-2.5-2.5M15 1c-1.1 0-2 .9-2 2s.9 2 2 2 2-.9 2-2-.9-2-2-2m6 20l-3 3-3-3v-1.5l-7.09-7.09c-.31.05-.61.09-.91.09v-2.18c1.66.03 3.61-.87 4.67-2.04l1.4-1.55c.19-.23.43-.38.69-.5.29-.14.62-.23.96-.23h.03C16 6 17 7 17 8.26V14c0 .85-.35 1.62-.92 2.17l-3.58-3.58v-2.27c-.63.52-1.43 1.02-2.29 1.39L16.5 18H18l3 3z" fill="#646464"/></svg>
