<?xml version="1.0"?>
<svg xmlns="http://www.w3.org/2000/svg" xmlns:xlink="http://www.w3.org/1999/xlink" aria-hidden="true" width="1em" height="1em" viewBox="0 0 24 24" data-icon="mdi:rss-box" data-width="1em" data-height="1em" data-inline="false" class="iconify"><path d="M5 3h14c1.1 0 2 .9 2 2v14c0 1.1-.9 2-2 2H5c-1.1 0-2-.9-2-2V5c0-1.1.9-2 2-2m2.5 12c-.83 0-1.5.67-1.5 1.5S6.67 18 7.5 18 9 17.33 9 16.5 8.33 15 7.5 15M6 10v2c3.31 0 6 2.69 6 6h2c0-4.42-3.58-8-8-8m0-4v2c5.52 0 10 4.48 10 10h2c0-6.63-5.37-12-12-12z" fill="#646464"/></svg>
