<?xml version="1.0"?>
<svg xmlns="http://www.w3.org/2000/svg" xmlns:xlink="http://www.w3.org/1999/xlink" aria-hidden="true" width="1em" height="1em" viewBox="0 0 24 24" data-icon="mdi:rss" data-width="1em" data-height="1em" data-inline="false" class="iconify"><path d="M6.18 15.64c1.2 0 2.18.98 2.18 2.18C8.36 19 7.38 20 6.18 20 5 20 4 19 4 17.82c0-1.2.98-2.18 2.18-2.18M4 4.44c8.59 0 15.56 6.97 15.56 15.56h-2.83c0-7.03-5.7-12.73-12.73-12.73V4.44m0 5.66c5.47 0 9.9 4.43 9.9 9.9h-2.83c0-3.9-3.17-7.07-7.07-7.07V10.1z" fill="#646464"/></svg>
