<?xml version="1.0"?>
<svg xmlns="http://www.w3.org/2000/svg" xmlns:xlink="http://www.w3.org/1999/xlink" aria-hidden="true" width="1em" height="1em" viewBox="0 0 24 24" data-icon="mdi:ruler" data-width="1em" data-height="1em" data-inline="false" class="iconify"><path d="M1.39 18.36l1.77-1.76L4.58 18l1.06-1.05-1.42-1.41 1.42-1.42 2.47 2.48 1.06-1.06-2.47-2.48 1.41-1.41 1.42 1.41L10.59 12l-1.42-1.41 1.42-1.42 2.47 2.48 1.06-1.06-2.47-2.48 1.41-1.41 1.41 1.41 1.07-1.06-1.42-1.41 1.42-1.42L18 6.7l1.07-1.06-2.47-2.48 1.76-1.77 4.25 4.25L5.64 22.61l-4.25-4.25z" fill="#646464"/></svg>
