<?xml version="1.0"?>
<svg xmlns="http://www.w3.org/2000/svg" xmlns:xlink="http://www.w3.org/1999/xlink" aria-hidden="true" width="1em" height="1em" viewBox="0 0 24 24" data-icon="mdi:safe" data-width="1em" data-height="1em" data-inline="false" class="iconify"><path d="M4 4c-1.1 0-2 .9-2 2v11c0 1.1.9 2 2 2v1h2v-1h11v1h2v-1c1.1 0 2-.9 2-2v-1h1v-2h-1V9h1V7h-1V6c0-1.1-.9-2-2-2H4m0 2h15v11H4V6m9.5 1.5c-2.21 0-4 1.79-4 4s1.79 4 4 4 4-1.79 4-4-1.79-4-4-4M5 9v5h2V9H5m8.5.5c1.1 0 2 .9 2 2s-.9 2-2 2-2-.9-2-2 .9-2 2-2z" fill="#646464"/></svg>
