<?xml version="1.0"?>
<svg xmlns="http://www.w3.org/2000/svg" xmlns:xlink="http://www.w3.org/1999/xlink" aria-hidden="true" width="1em" height="1em" viewBox="0 0 24 24" data-icon="mdi:sale" data-width="1em" data-height="1em" data-inline="false" class="iconify"><path d="M18.65 2.85l.61 3.86 3.51 1.79L21 12l1.78 3.5-3.54 1.79-.61 3.86-3.89-.61-2.77 2.76-2.78-2.8-3.86.64-.62-3.89-3.49-1.78L3 11.97 1.23 8.5l3.51-1.81.61-3.83 3.87.64L12 .69l2.77 2.77 3.88-.61M9.5 7C8.67 7 8 7.67 8 8.5S8.67 10 9.5 10 11 9.33 11 8.5 10.33 7 9.5 7m5 7c-.83 0-1.5.67-1.5 1.5s.67 1.5 1.5 1.5 1.5-.67 1.5-1.5-.67-1.5-1.5-1.5m-6.09 3L17 8.41 15.59 7 7 15.59 8.41 17z" fill="#646464"/></svg>
