<?xml version="1.0"?>
<svg xmlns="http://www.w3.org/2000/svg" xmlns:xlink="http://www.w3.org/1999/xlink" aria-hidden="true" width="1em" height="1em" viewBox="0 0 24 24" data-icon="mdi:satellite-variant" data-width="1em" data-height="1em" data-inline="false" class="iconify"><path d="M11.62 1l5.66 5.67-2.12 2.12-2.12-2.12-1.42 1.42 2.33 2.32-1.16 1.17.45.46a2.5 2.5 0 0 1 2.83.5l-3.53 3.53a2.5 2.5 0 0 1-.5-2.83l-.46-.45-1.17 1.16-2.32-2.33-1.42 1.42 2.12 2.12-2.12 2.12L1 11.62 3.14 9.5l2.12 2.12 1.41-1.41-2.83-2.83c-.78-.78-.78-2.05 0-2.83l.71-.71c.78-.78 2.05-.78 2.83 0l2.83 2.83 1.41-1.41L9.5 3.14 11.62 1M18 14c0 2.21-1.79 4-4 4v-2c1.1 0 2-.9 2-2h2m4 0c0 4.42-3.58 8-8 8v-2c3.31 0 6-2.69 6-6h2z" fill="#646464"/></svg>
