<?xml version="1.0"?>
<svg xmlns="http://www.w3.org/2000/svg" xmlns:xlink="http://www.w3.org/1999/xlink" aria-hidden="true" width="1em" height="1em" viewBox="0 0 24 24" data-icon="mdi:saxophone" data-width="1em" data-height="1em" data-inline="false" class="iconify"><path d="M4 2c-.55 0-1 .45-1 1s.45 1 1 1c1.66 0 3 1.34 3 3v8.5c0 3.6 2.9 6.5 6.5 6.5s6.5-2.9 6.5-6.5V13c.55 0 1-.45 1-1s-.45-1-1-1h-6c-.55 0-1 .45-1 1s.45 1 1 1v2c0 .55-.45 1-1 1s-1-.45-1-1v-4c.55 0 1-.45 1-1s-.45-1-1-1V8c.55 0 1-.45 1-1s-.45-1-1-1v-.5C12 3.57 10.43 2 8.5 2H4z" fill="#646464"/></svg>
