<?xml version="1.0"?>
<svg xmlns="http://www.w3.org/2000/svg" xmlns:xlink="http://www.w3.org/1999/xlink" aria-hidden="true" width="1em" height="1em" viewBox="0 0 24 24" data-icon="mdi:scale" data-width="1em" data-height="1em" data-inline="false" class="iconify"><path d="M8.46 15.06l-1.41 1.41-1.37-1.37A7.941 7.941 0 0 0 4.06 19H6v2H2v-1c0-4.84 3.44-8.87 8-9.8v-2L2 5V3h20v2l-8 3.2v2c4.56.93 8 4.96 8 9.8v1h-4v-2h1.94a7.941 7.941 0 0 0-1.62-3.9l-1.37 1.37-1.41-1.41 1.37-1.38A7.976 7.976 0 0 0 13 12.06V14h-2v-1.94c-1.46.18-2.8.76-3.91 1.62l1.37 1.38M12 18c1.1 0 2 .9 2 2s-.9 2-2 2c-.32 0-.62-.07-.88-.21L7.27 20l3.85-1.79c.26-.14.56-.21.88-.21z" fill="#646464"/></svg>
