<?xml version="1.0"?>
<svg xmlns="http://www.w3.org/2000/svg" xmlns:xlink="http://www.w3.org/1999/xlink" aria-hidden="true" width="1em" height="1em" viewBox="0 0 24 24" data-icon="mdi:script-text" data-width="1em" data-height="1em" data-inline="false" class="iconify"><path d="M17.8 20c-.4 1.2-1.5 2-2.8 2H5c-1.7 0-3-1.3-3-3v-1h12.2c.4 1.2 1.5 2 2.8 2h.8M19 2c1.7 0 3 1.3 3 3v1h-2V5c0-.6-.4-1-1-1s-1 .4-1 1v13h-1c-.6 0-1-.4-1-1v-1H5V5c0-1.7 1.3-3 3-3h11M8 6v2h7V6H8m0 4v2h6v-2H8z" fill="#646464"/></svg>
