<?xml version="1.0"?>
<svg xmlns="http://www.w3.org/2000/svg" xmlns:xlink="http://www.w3.org/1999/xlink" aria-hidden="true" width="1em" height="1em" viewBox="0 0 24 24" data-icon="mdi:seal" data-width="1em" data-height="1em" data-inline="false" class="iconify"><path d="M20.39 19.37L16.38 18 15 22l-3.08-6L9 22l-1.38-4-4.01 1.37 2.92-6A6.97 6.97 0 0 1 5 9c0-3.87 3.13-7 7-7s7 3.13 7 7c0 1.65-.57 3.17-1.53 4.37l2.92 6M7 9l2.69 1.34-.19 3 2.5-1.66 2.5 1.65-.17-2.99L17 9l-2.68-1.35.18-2.98L12 6.31 9.5 4.65l.17 3.01L7 9z" fill="#646464"/></svg>
