<?xml version="1.0"?>
<svg xmlns="http://www.w3.org/2000/svg" xmlns:xlink="http://www.w3.org/1999/xlink" aria-hidden="true" width="1em" height="1em" viewBox="0 0 24 24" data-icon="mdi:seat-legroom-extra" data-width="1em" data-height="1em" data-inline="false" class="iconify"><path d="M4 12V3H2v9c0 2.76 2.24 5 5 5h6v-2H7c-1.66 0-3-1.34-3-3m18.83 5.24c-.38-.74-1.29-.97-2.03-.63l-1.09.5-3.41-6.98A2.022 2.022 0 0 0 14.5 9H11V3H5v8c0 1.66 1.34 3 3 3h7l3.41 7 3.72-1.7c.77-.36 1.1-1.3.7-2.06z" fill="#646464"/></svg>
