<?xml version="1.0"?>
<svg xmlns="http://www.w3.org/2000/svg" xmlns:xlink="http://www.w3.org/1999/xlink" aria-hidden="true" width="1em" height="1em" viewBox="0 0 24 24" data-icon="mdi:security-network" data-width="1em" data-height="1em" data-inline="false" class="iconify"><path d="M13 18h1c.55 0 1 .45 1 1h7v2h-7c0 .55-.45 1-1 1h-4c-.55 0-1-.45-1-1H2v-2h7c0-.55.45-1 1-1h1v-1.66C8.07 15.13 6 12 6 8.67v-4L12 2l6 2.67v4c0 3.33-2.07 6.46-5 7.67V18M12 4L8 5.69V9h4V4m0 5v6c1.91-.47 4-2.94 4-5V9h-4z" fill="#646464"/></svg>
