<?xml version="1.0"?>
<svg xmlns="http://www.w3.org/2000/svg" xmlns:xlink="http://www.w3.org/1999/xlink" aria-hidden="true" width="1em" height="1em" viewBox="0 0 24 24" data-icon="mdi:select" data-width="1em" data-height="1em" data-inline="false" class="iconify"><path d="M4 3h1v2H3V4c0-.55.45-1 1-1m16 0c.55 0 1 .45 1 1v1h-2V3h1m-5 2V3h2v2h-2m-4 0V3h2v2h-2M7 5V3h2v2H7m14 15c0 .55-.45 1-1 1h-1v-2h2v1m-6 1v-2h2v2h-2m-4 0v-2h2v2h-2m-4 0v-2h2v2H7m-3 0c-.55 0-1-.45-1-1v-1h2v2H4m-1-6h2v2H3v-2m18 0v2h-2v-2h2M3 11h2v2H3v-2m18 0v2h-2v-2h2M3 7h2v2H3V7m18 0v2h-2V7h2z" fill="#646464"/></svg>
