<?xml version="1.0"?>
<svg xmlns="http://www.w3.org/2000/svg" xmlns:xlink="http://www.w3.org/1999/xlink" aria-hidden="true" width="1em" height="1em" viewBox="0 0 24 24" data-icon="mdi:server-off" data-width="1em" data-height="1em" data-inline="false" class="iconify"><path d="M4 1h16c.55 0 1 .45 1 1v4c0 .55-.45 1-1 1H8.82l-2-2H7V3H5v.18L3.21 1.39C3.39 1.15 3.68 1 4 1m18 21.72L20.73 24l-1-1H4c-.55 0-1-.45-1-1v-4c0-.55.45-1 1-1h9.73l-2-2H4c-.55 0-1-.45-1-1v-4c0-.55.45-1 1-1h1.73L3.68 6.95c-.3-.1-.53-.33-.63-.63L1 4.27 2.28 3 22 22.72M20 9c.55 0 1 .45 1 1v4c0 .55-.45 1-1 1h-3.18l-6-6H20m0 8c.55 0 1 .45 1 1v1.18L18.82 17H20M9 5h1V3H9v2m0 8h.73L9 12.27V13m0 8h1v-2H9v2M5 11v2h2v-2H5m0 8v2h2v-2H5z" fill="#646464"/></svg>
