<?xml version="1.0"?>
<svg xmlns="http://www.w3.org/2000/svg" xmlns:xlink="http://www.w3.org/1999/xlink" aria-hidden="true" width="1em" height="1em" viewBox="0 0 24 24" data-icon="mdi:server-security" data-width="1em" data-height="1em" data-inline="false" class="iconify"><path d="M3 1h16c.55 0 1 .45 1 1v4c0 .55-.45 1-1 1H3c-.55 0-1-.45-1-1V2c0-.55.45-1 1-1m0 8h16c.55 0 1 .45 1 1v.67l-2.5-1.11-6.5 2.88V15H3c-.55 0-1-.45-1-1v-4c0-.55.45-1 1-1m0 8h8c.06 2.25 1 4.4 2.46 6H3c-.55 0-1-.45-1-1v-4c0-.55.45-1 1-1M8 5h1V3H8v2m0 8h1v-2H8v2m0 8h1v-2H8v2M4 3v2h2V3H4m0 8v2h2v-2H4m0 8v2h2v-2H4m13.5-7l4.5 2v3c0 2.78-1.92 5.37-4.5 6-2.58-.63-4.5-3.22-4.5-6v-3l4.5-2m0 1.94L15 15.06v2.66c0 1.54 1.07 2.98 2.5 3.34v-7.12z" fill="#646464"/></svg>
