<?xml version="1.0"?>
<svg xmlns="http://www.w3.org/2000/svg" xmlns:xlink="http://www.w3.org/1999/xlink" aria-hidden="true" width="1em" height="1em" viewBox="0 0 24 24" data-icon="mdi:server-network-off" data-width="1em" data-height="1em" data-inline="false" class="iconify"><path d="M13 18h1c.55 0 1 .45 1 1h.73L13 16.27V18m9 1v1.18L20.82 19H22m-1 2.72L19.73 23l-2-2H15c0 .55-.45 1-1 1h-4c-.55 0-1-.45-1-1H2v-2h7c0-.55.45-1 1-1h1v-2H4c-.55 0-1-.45-1-1v-4c0-.55.45-1 1-1h2.73l-2-2H4c-.55 0-1-.45-1-1v-.73l-2-2L2.28 3 21 21.72M4 2h16c.55 0 1 .45 1 1v4c0 .55-.45 1-1 1H9.82L7 5.18V4H5.82L3.84 2H4m16 8c.55 0 1 .45 1 1v4c0 .55-.45 1-1 1h-2.18l-6-6H20M9 6h1V4H9v2m0 8h1v-.73l-1-1V14m-4-2v2h2v-2H5z" fill="#646464"/></svg>
