<?xml version="1.0"?>
<svg xmlns="http://www.w3.org/2000/svg" xmlns:xlink="http://www.w3.org/1999/xlink" aria-hidden="true" width="1em" height="1em" viewBox="0 0 24 24" data-icon="mdi:server-network" data-width="1em" data-height="1em" data-inline="false" class="iconify"><path d="M13 18h1c.55 0 1 .45 1 1h7v2h-7c0 .55-.45 1-1 1h-4c-.55 0-1-.45-1-1H2v-2h7c0-.55.45-1 1-1h1v-2H4c-.55 0-1-.45-1-1v-4c0-.55.45-1 1-1h16c.55 0 1 .45 1 1v4c0 .55-.45 1-1 1h-7v2M4 2h16c.55 0 1 .45 1 1v4c0 .55-.45 1-1 1H4c-.55 0-1-.45-1-1V3c0-.55.45-1 1-1m5 4h1V4H9v2m0 8h1v-2H9v2M5 4v2h2V4H5m0 8v2h2v-2H5z" fill="#646464"/></svg>
