<?xml version="1.0"?>
<svg xmlns="http://www.w3.org/2000/svg" xmlns:xlink="http://www.w3.org/1999/xlink" aria-hidden="true" width="1em" height="1em" viewBox="0 0 24 24" data-icon="mdi:server-remove" data-width="1em" data-height="1em" data-inline="false" class="iconify"><path d="M4 4h16c.55 0 1 .45 1 1v4c0 .55-.45 1-1 1H4c-.55 0-1-.45-1-1V5c0-.55.45-1 1-1m5 4h1V6H9v2M5 6v2h2V6H5m5.59 11L8 14.41 9.41 13 12 15.59 14.59 13 16 14.41 13.41 17 16 19.59 14.59 21 12 18.41 9.41 21 8 19.59 10.59 17z" fill="#646464"/></svg>
