<?xml version="1.0"?>
<svg xmlns="http://www.w3.org/2000/svg" xmlns:xlink="http://www.w3.org/1999/xlink" aria-hidden="true" width="1em" height="1em" viewBox="0 0 24 24" data-icon="mdi:set-none" data-width="1em" data-height="1em" data-inline="false" class="iconify"><path d="M9 5c-3.87 0-7 3.13-7 7s3.13 7 7 7c1.04 0 2.06-.24 3-.68.94.44 1.96.68 3 .68 3.87 0 7-3.13 7-7s-3.13-7-7-7c-1.04 0-2.06.24-3 .68-.94-.44-1.96-.68-3-.68m0 2c.34 0 .67.03 1 .1-1.28 1.31-2 3.07-2 4.9 0 1.83.72 3.59 2 4.89-.33.07-.66.11-1 .11-2.76 0-5-2.24-5-5s2.24-5 5-5m6 0c2.76 0 5 2.24 5 5a5.002 5.002 0 0 1-6 4.9c1.28-1.31 2-3.07 2-4.9 0-1.83-.72-3.59-2-4.89.33-.07.66-.11 1-.11m-3 1c1.26.95 2 2.43 2 4 0 1.57-.74 3.05-2 4a5.01 5.01 0 0 1-2-4c0-1.57.74-3.05 2-4z" fill="#646464"/></svg>
