<?xml version="1.0"?>
<svg xmlns="http://www.w3.org/2000/svg" xmlns:xlink="http://www.w3.org/1999/xlink" aria-hidden="true" width="1em" height="1em" viewBox="0 0 24 24" data-icon="mdi:set-right" data-width="1em" data-height="1em" data-inline="false" class="iconify"><path d="M15 19c-1.04 0-2.06-.24-3-.68-.94.44-1.96.68-3 .68-3.87 0-7-3.13-7-7s3.13-7 7-7c1.04 0 2.06.24 3 .68.94-.44 1.96-.68 3-.68 3.87 0 7 3.13 7 7s-3.13 7-7 7m-6-2l1-.11c-1.28-1.3-2-3.06-2-4.89 0-1.83.72-3.59 2-4.9L9 7c-2.76 0-5 2.24-5 5s2.24 5 5 5m3-1c1.26-.95 2-2.43 2-4 0-1.57-.74-3.05-2-4-1.26.95-2 2.43-2 4 0 1.57.74 3.05 2 4z" fill="#646464"/></svg>
