<?xml version="1.0"?>
<svg xmlns="http://www.w3.org/2000/svg" xmlns:xlink="http://www.w3.org/1999/xlink" aria-hidden="true" width="1em" height="1em" viewBox="0 0 24 24" data-icon="mdi:set-left-right" data-width="1em" data-height="1em" data-inline="false" class="iconify"><path d="M9 5c1.04 0 2.06.24 3 .68.94-.44 1.96-.68 3-.68 3.87 0 7 3.13 7 7s-3.13 7-7 7c-1.04 0-2.06-.24-3-.68-.94.44-1.96.68-3 .68-3.87 0-7-3.13-7-7s3.13-7 7-7m0 7c0 2.22 1.21 4.16 3 5.2 1.79-1.04 3-2.98 3-5.2s-1.21-4.16-3-5.2C10.21 7.84 9 9.78 9 12z" fill="#646464"/></svg>
