<?xml version="1.0"?>
<svg xmlns="http://www.w3.org/2000/svg" xmlns:xlink="http://www.w3.org/1999/xlink" aria-hidden="true" width="1em" height="1em" viewBox="0 0 24 24" data-icon="mdi:set-top-box" data-width="1em" data-height="1em" data-inline="false" class="iconify"><path d="M5 15.5c0 .28-.22.5-.5.5h-1c-.28 0-.5-.22-.5-.5V15H2c-.55 0-1-.45-1-1v-3c0-.55.45-1 1-1h20c.55 0 1 .45 1 1v3c0 .55-.45 1-1 1h-1v.5c0 .28-.22.5-.5.5h-1c-.28 0-.5-.22-.5-.5V15H5v.5M3 12v1h2v-1H3m3 0v1h2v-1H6m14.5-.5c-.55 0-1 .45-1 1s.45 1 1 1 1-.45 1-1-.45-1-1-1z" fill="#646464"/></svg>
