<?xml version="1.0"?>
<svg xmlns="http://www.w3.org/2000/svg" xmlns:xlink="http://www.w3.org/1999/xlink" aria-hidden="true" width="1em" height="1em" viewBox="0 0 24 24" data-icon="mdi:set-all" data-width="1em" data-height="1em" data-inline="false" class="iconify"><path d="M9 5c1.04 0 2.06.24 3 .68.94-.44 1.96-.68 3-.68 3.87 0 7 3.13 7 7s-3.13 7-7 7c-1.04 0-2.06-.24-3-.68-.94.44-1.96.68-3 .68-3.87 0-7-3.13-7-7s3.13-7 7-7m-.5 7c0 1.87.79 3.56 2.06 4.75l1-.46c-1.25-1-2.06-2.55-2.06-4.29 0-1.74.81-3.29 2.06-4.29l-1-.46A6.491 6.491 0 0 0 8.5 12m7 0c0-1.87-.79-3.56-2.06-4.75l-1 .46c1.25 1 2.06 2.55 2.06 4.29 0 1.74-.81 3.29-2.06 4.29l1 .46A6.491 6.491 0 0 0 15.5 12z" fill="#646464"/></svg>
