<?xml version="1.0"?>
<svg xmlns="http://www.w3.org/2000/svg" xmlns:xlink="http://www.w3.org/1999/xlink" aria-hidden="true" width="1em" height="1em" viewBox="0 0 24 24" data-icon="mdi:settings-outline" data-width="1em" data-height="1em" data-inline="false" class="iconify"><path d="M19.43 12.97l2.11 1.66c.19.15.24.42.12.64l-2 3.46c-.12.22-.39.3-.61.22l-2.49-1.01c-.52.4-1.06.73-1.69.99l-.37 2.65c-.04.24-.25.42-.5.42h-4c-.25 0-.46-.18-.5-.42l-.37-2.65c-.63-.25-1.17-.59-1.69-.99l-2.49 1.01c-.22.08-.49 0-.61-.22l-2-3.46a.493.493 0 0 1 .12-.64l2.11-1.66L4.5 12l.07-1-2.11-1.63a.493.493 0 0 1-.12-.64l2-3.46c.12-.22.39-.31.61-.22l2.49 1c.52-.39 1.06-.73 1.69-.98l.37-2.65c.04-.24.25-.42.5-.42h4c.25 0 .46.18.5.42l.37 2.65c.63.25 1.17.59 1.69.98l2.49-1c.22-.09.49 0 .61.22l2 3.46c.12.22.07.49-.12.64L19.43 11l.07 1-.07.97M6.5 12c0 .58.09 1.13.25 1.66l-2.07 1.7.75 1.3 2.52-.94c.74.81 1.73 1.4 2.85 1.65l.44 2.63h1.5l.44-2.63c1.12-.24 2.12-.83 2.87-1.64l2.51.94.75-1.3-2.07-1.7c.17-.53.26-1.09.26-1.67 0-.57-.09-1.13-.25-1.65l2.06-1.69-.75-1.3-2.5.93a5.526 5.526 0 0 0-2.87-1.66L12.75 4h-1.5l-.44 2.63c-1.12.25-2.12.84-2.87 1.66l-2.5-.94-.75 1.3 2.06 1.7c-.16.52-.25 1.08-.25 1.65M12 8.5c1.93 0 3.5 1.57 3.5 3.5s-1.57 3.5-3.5 3.5-3.5-1.57-3.5-3.5 1.57-3.5 3.5-3.5m0 2c-.83 0-1.5.67-1.5 1.5s.67 1.5 1.5 1.5 1.5-.67 1.5-1.5-.67-1.5-1.5-1.5z" fill="#646464"/></svg>
