<?xml version="1.0"?>
<svg xmlns="http://www.w3.org/2000/svg" xmlns:xlink="http://www.w3.org/1999/xlink" aria-hidden="true" width="1em" height="1em" viewBox="0 0 24 24" data-icon="mdi:shield-key" data-width="1em" data-height="1em" data-inline="false" class="iconify"><path d="M12 8c.55 0 1 .45 1 1s-.45 1-1 1-1-.45-1-1 .45-1 1-1m9 3c0 5.55-3.84 10.74-9 12-5.16-1.26-9-6.45-9-12V5l9-4 9 4v6m-9-5c-1.66 0-3 1.34-3 3 0 1.31.83 2.42 2 2.83V18h2v-2h2v-2h-2v-2.17c1.17-.41 2-1.52 2-2.83 0-1.66-1.34-3-3-3z" fill="#646464"/></svg>
