<?xml version="1.0"?>
<svg xmlns="http://www.w3.org/2000/svg" xmlns:xlink="http://www.w3.org/1999/xlink" aria-hidden="true" width="1em" height="1em" viewBox="0 0 24 24" data-icon="mdi:shopping" data-width="1em" data-height="1em" data-inline="false" class="iconify"><path d="M12 13c-2.76 0-5-2.24-5-5h2c0 1.66 1.34 3 3 3s3-1.34 3-3h2c0 2.76-2.24 5-5 5m0-10c1.66 0 3 1.34 3 3H9c0-1.66 1.34-3 3-3m7 3h-2c0-2.76-2.24-5-5-5S7 3.24 7 6H5c-1.11 0-2 .89-2 2v12c0 1.1.9 2 2 2h14c1.1 0 2-.9 2-2V8a2 2 0 0 0-2-2z" fill="#646464"/></svg>
