<?xml version="1.0"?>
<svg xmlns="http://www.w3.org/2000/svg" xmlns:xlink="http://www.w3.org/1999/xlink" aria-hidden="true" width="1em" height="1em" viewBox="0 0 24 24" data-icon="mdi:shower" data-width="1em" data-height="1em" data-inline="false" class="iconify"><path d="M21 14v1c0 1.91-1.07 3.57-2.65 4.41L19 22h-2l-.5-2h-9L7 22H5l.65-2.59A4.987 4.987 0 0 1 3 15v-1H2v-2h18V5c0-.55-.45-1-1-1-.5 0-.88.34-1 .79.63.54 1 1.34 1 2.21h-6c0-1.66 1.34-3 3-3h.17c.41-1.16 1.52-2 2.83-2 1.66 0 3 1.34 3 3v9h-1m-2 0H5v1c0 1.66 1.34 3 3 3h8c1.66 0 3-1.34 3-3v-1z" fill="#646464"/></svg>
