<?xml version="1.0"?>
<svg xmlns="http://www.w3.org/2000/svg" xmlns:xlink="http://www.w3.org/1999/xlink" aria-hidden="true" width="1em" height="1em" viewBox="0 0 24 24" data-icon="mdi:signal-3g" data-width="1em" data-height="1em" data-inline="false" class="iconify"><path d="M11 16.5v-2.25C11 13 10 12 8.75 12 10 12 11 11 11 9.75V7.5c0-1.66-1.34-3-3-3H2v3h6v3H5v3h3v3H2v3h6c1.66 0 3-1.34 3-3m11 0v-6h-4.5v3H19v3h-3v-9h6v-3h-6c-1.66 0-3 1.34-3 3v9c0 1.66 1.34 3 3 3h3c1.66 0 3-1.34 3-3z" fill="#646464"/></svg>
