<?xml version="1.0"?>
<svg xmlns="http://www.w3.org/2000/svg" xmlns:xlink="http://www.w3.org/1999/xlink" aria-hidden="true" width="1em" height="1em" viewBox="0 0 24 24" data-icon="mdi:silverware-variant" data-width="1em" data-height="1em" data-inline="false" class="iconify"><path d="M8.1 13.34L3.91 9.16a4.008 4.008 0 0 1 0-5.66l7.02 7-2.83 2.84m5.31-.34l6.88 6.88-1.41 1.41L12 14.41l-6.88 6.88-1.41-1.41 9.65-9.66-.2-.22a1.98 1.98 0 0 1 0-2.81l4.34-4.37.93.92L15.19 7l.96.94 3.24-3.25.92.92-3.25 3.24.94.96 3.26-3.25.92.94-4.37 4.34c-.78.78-2.04.78-2.81 0l-.22-.2L13.41 13z" fill="#646464"/></svg>
