<?xml version="1.0"?>
<svg xmlns="http://www.w3.org/2000/svg" xmlns:xlink="http://www.w3.org/1999/xlink" aria-hidden="true" width="1em" height="1em" viewBox="0 0 24 24" data-icon="mdi:skull" data-width="1em" data-height="1em" data-inline="false" class="iconify"><path d="M12 2a9 9 0 0 0-9 9 8.99 8.99 0 0 0 4 7.47V22h2v-3h2v3h2v-3h2v3h2v-3.54c2.47-1.65 4-4.46 4-7.46a9 9 0 0 0-9-9m-4 9c1.1 0 2 .9 2 2s-.9 2-2 2-2-.9-2-2 .9-2 2-2m8 0c1.1 0 2 .9 2 2s-.9 2-2 2-2-.9-2-2 .9-2 2-2m-4 3l1.5 3h-3l1.5-3z" fill="#646464"/></svg>
