<?xml version="1.0"?>
<svg xmlns="http://www.w3.org/2000/svg" xmlns:xlink="http://www.w3.org/1999/xlink" aria-hidden="true" width="1em" height="1em" viewBox="0 0 24 24" data-icon="mdi:skull-crossbones" data-width="1em" data-height="1em" data-inline="false" class="iconify"><path d="M15.8 18.5l6 1.6-.4 1.9-9.4-2.5L2.6 22l-.5-1.9 6-1.6L2 16.9l.5-1.9 9.4 2.5 9.4-2.5.5 1.9-6 1.6M18 8c0 1.8-.8 3.3-2 4.4V15h-2v-2h-1v2h-2v-2h-1v2H8v-2.6C6.8 11.3 6 9.8 6 8c0-3.31 2.69-6 6-6s6 2.69 6 6m-7-.5c0-.8-.7-1.5-1.5-1.5S8 6.7 8 7.5 8.7 9 9.5 9 11 8.3 11 7.5m2 3.5l-1-2-1 2h2m3-3.5c0-.8-.7-1.5-1.5-1.5S13 6.7 13 7.5 13.7 9 14.5 9 16 8.3 16 7.5z" fill="#646464"/></svg>
