<?xml version="1.0"?>
<svg xmlns="http://www.w3.org/2000/svg" xmlns:xlink="http://www.w3.org/1999/xlink" aria-hidden="true" width="1em" height="1em" viewBox="0 0 24 24" data-icon="mdi:skull-outline" data-width="1em" data-height="1em" data-inline="false" class="iconify"><path d="M8 15c-1.1 0-2-.9-2-2s.9-2 2-2 2 .9 2 2-.9 2-2 2m2.5 2l1.5-3 1.5 3h-3m5.5-2c-1.1 0-2-.9-2-2s.9-2 2-2 2 .9 2 2-.9 2-2 2m6-4c0-5.52-4.48-10-10-10S2 5.48 2 11c0 2.8 1.2 5.3 3 7.1V22h14v-3.9c1.8-1.8 3-4.3 3-7.1m-5 9h-2v-2h-2v2h-2v-2H9v2H7v-2.8c-1.8-1.5-3-3.7-3-6.2 0-4.42 3.58-8 8-8s8 3.58 8 8c0 2.5-1.2 4.8-3 6.2V20z" fill="#646464"/></svg>
