<?xml version="1.0"?>
<svg xmlns="http://www.w3.org/2000/svg" xmlns:xlink="http://www.w3.org/1999/xlink" aria-hidden="true" width="1em" height="1em" viewBox="0 0 24 24" data-icon="mdi:smog" data-width="1em" data-height="1em" data-inline="false" class="iconify"><path d="M12 2c-1.92 0-3.5 1.35-3.91 3.15A3.467 3.467 0 0 0 5.5 4C3.57 4 2 5.57 2 7.5S3.57 11 5.5 11h1.18v1h4.04v-1h2.56v1h4.04v-1h1.18c1.93 0 3.5-1.57 3.5-3.5S20.43 4 18.5 4c-1.03 0-1.95.44-2.59 1.15C15.5 3.35 13.92 2 12 2M7.2 14l-.8 8H11l-.8-8h-3m6.6 0l-.8 8h4.6l-.8-8h-3z" fill="#646464"/></svg>
