<?xml version="1.0"?>
<svg xmlns="http://www.w3.org/2000/svg" xmlns:xlink="http://www.w3.org/1999/xlink" aria-hidden="true" width="1em" height="1em" viewBox="0 0 24 24" data-icon="mdi:snapchat" data-width="1em" data-height="1em" data-inline="false" class="iconify"><path d="M12 20.45c-1.19 0-1.9-.51-2.53-.95-.47-.32-.89-.63-1.39-.71-1.15-.06-1.49 0-2.11.11-.11 0-.24-.03-.29-.21-.18-.75-.23-.96-.36-.98-1.32-.21-2.13-.51-2.29-.88-.03-.23.04-.33.15-.33 1.07-.19 2.02-.75 2.82-1.69.63-.72.93-1.42.96-1.49.16-.32.19-.6.1-.82-.17-.41-.75-.59-1.38-.8-.34-.13-.89-.41-.82-.8.06-.28.43-.48.95-.44.35.16.65.24.92.24.33 0 .48-.12.52-.16-.11-1.76-.2-3.29.19-4.16C8.61 3.76 11.08 3.55 12 3.55c.92 0 3.39.21 4.56 2.83.39.87.3 2.4.19 4.16.04.04.19.16.52.16.27 0 .57-.08.92-.24.52-.04.89.16.95.44.07.39-.48.67-.82.8-.63.21-1.21.39-1.38.8-.09.22-.06.5.1.82.03.07.33.77.96 1.49.8.94 1.75 1.5 2.82 1.69.11 0 .18.1.15.33-.16.37-.97.67-2.29.88-.13.02-.18.23-.36.98-.05.18-.18.21-.29.21-.62-.11-.96-.17-2.11-.11-.5.08-.92.39-1.39.71-.63.44-1.34.95-2.53.95z" fill="#646464"/></svg>
