<?xml version="1.0"?>
<svg xmlns="http://www.w3.org/2000/svg" xmlns:xlink="http://www.w3.org/1999/xlink" aria-hidden="true" width="1em" height="1em" viewBox="0 0 24 24" data-icon="mdi:soccer-field" data-width="1em" data-height="1em" data-inline="false" class="iconify"><path d="M4 4c-1.11 0-2 .89-2 2v12c0 1.1.9 2 2 2h16c1.1 0 2-.9 2-2V6a2 2 0 0 0-2-2H4m0 2h7v2.13c-1.76.46-3 2.05-3 3.87a4.01 4.01 0 0 0 3 3.87V18H4v-2h3V8H4V6m9 0h7v2h-3v8h3v2h-7v-2.13c1.76-.46 3-2.05 3-3.87a4.01 4.01 0 0 0-3-3.87V6m-9 4h1v4H4v-4m15 0h1v4h-1v-4m-6 .27c.62.36 1 1.02 1 1.73s-.38 1.37-1 1.73v-3.46m-2 0v3.46c-.62-.36-1-1.02-1-1.73s.38-1.37 1-1.73z" fill="#646464"/></svg>
