<?xml version="1.0"?>
<svg xmlns="http://www.w3.org/2000/svg" xmlns:xlink="http://www.w3.org/1999/xlink" aria-hidden="true" width="1em" height="1em" viewBox="0 0 24 24" data-icon="mdi:sofa" data-width="1em" data-height="1em" data-inline="false" class="iconify"><path d="M7 6h2c1.1 0 2 .9 2 2v4H5V8c0-1.1.9-2 2-2m8 0h2c1.1 0 2 .9 2 2v4h-6V8c0-1.1.9-2 2-2M1 9h1c.55 0 1 .45 1 1v2c0 1.1.9 2 2 2h14c1.1 0 2-.9 2-2v-2c0-.55.45-1 1-1h1c.55 0 1 .45 1 1v9h-3v-2H3v2H0v-9c0-.55.45-1 1-1z" fill="#646464"/></svg>
