<?xml version="1.0"?>
<svg xmlns="http://www.w3.org/2000/svg" xmlns:xlink="http://www.w3.org/1999/xlink" aria-hidden="true" width="1em" height="1em" viewBox="0 0 24 24" data-icon="mdi:source-merge" data-width="1em" data-height="1em" data-inline="false" class="iconify"><path d="M7 3c1.66 0 3 1.34 3 3 0 1.29-.81 2.39-1.96 2.81.54 5 5.04 5.96 7.15 6.15A2.985 2.985 0 0 1 18 13c1.66 0 3 1.34 3 3s-1.34 3-3 3c-1.31 0-2.43-.84-2.84-2-4.25-.2-5.72-1.81-7.16-3.61v1.78c1.17.41 2 1.52 2 2.83 0 1.66-1.34 3-3 3s-3-1.34-3-3c0-1.31.83-2.42 2-2.83V8.83A2.99 2.99 0 0 1 4 6c0-1.66 1.34-3 3-3m0 2c-.55 0-1 .45-1 1s.45 1 1 1 1-.45 1-1-.45-1-1-1m0 12c-.55 0-1 .45-1 1s.45 1 1 1 1-.45 1-1-.45-1-1-1m11-2c-.55 0-1 .45-1 1s.45 1 1 1 1-.45 1-1-.45-1-1-1z" fill="#646464"/></svg>
