<?xml version="1.0"?>
<svg xmlns="http://www.w3.org/2000/svg" xmlns:xlink="http://www.w3.org/1999/xlink" aria-hidden="true" width="1em" height="1em" viewBox="0 0 24 24" data-icon="mdi:source-pull" data-width="1em" data-height="1em" data-inline="false" class="iconify"><path d="M6 3c1.66 0 3 1.34 3 3 0 1.31-.83 2.42-2 2.83v6.34c1.17.41 2 1.52 2 2.83 0 1.66-1.34 3-3 3s-3-1.34-3-3c0-1.31.83-2.42 2-2.83V8.83A2.99 2.99 0 0 1 3 6c0-1.66 1.34-3 3-3m0 2c-.55 0-1 .45-1 1s.45 1 1 1 1-.45 1-1-.45-1-1-1m0 12c-.55 0-1 .45-1 1s.45 1 1 1 1-.45 1-1-.45-1-1-1m15 1c0 1.66-1.34 3-3 3s-3-1.34-3-3c0-1.31.83-2.42 2-2.83V7h-2v3.25L10.75 6 15 1.75V5h2c1.1 0 2 .9 2 2v8.17c1.17.41 2 1.52 2 2.83m-3-1c-.55 0-1 .45-1 1s.45 1 1 1 1-.45 1-1-.45-1-1-1z" fill="#646464"/></svg>
