<?xml version="1.0"?>
<svg xmlns="http://www.w3.org/2000/svg" xmlns:xlink="http://www.w3.org/1999/xlink" aria-hidden="true" width="1em" height="1em" viewBox="0 0 24 24" data-icon="mdi:speaker" data-width="1em" data-height="1em" data-inline="false" class="iconify"><path d="M12 12c-1.66 0-3 1.34-3 3s1.34 3 3 3 3-1.34 3-3-1.34-3-3-3m0 8c-2.76 0-5-2.24-5-5s2.24-5 5-5 5 2.24 5 5-2.24 5-5 5m0-16c1.1 0 2 .9 2 2s-.9 2-2 2a2 2 0 0 1-2-2c0-1.11.89-2 2-2m5-2H7c-1.11 0-2 .89-2 2v16c0 1.1.9 2 2 2h10c1.1 0 2-.9 2-2V4a2 2 0 0 0-2-2z" fill="#646464"/></svg>
