<?xml version="1.0"?>
<svg xmlns="http://www.w3.org/2000/svg" xmlns:xlink="http://www.w3.org/1999/xlink" aria-hidden="true" width="1em" height="1em" viewBox="0 0 24 24" data-icon="mdi:speaker-off" data-width="1em" data-height="1em" data-inline="false" class="iconify"><path d="M2 5.27L3.28 4 21 21.72 19.73 23l-1.46-1.46c-.34.29-.77.46-1.27.46H7a2 2 0 0 1-2-2V8.27l-3-3M12 18c-1.66 0-3-1.34-3-3 0-.76.28-1.46.75-2l-1.42-1.4a5.002 5.002 0 0 0 7.07 7.07L14 17.25c-.55.47-1.24.75-2 .75m5-3c0-2.76-2.24-5-5-5h-.18l-6.7-6.7C5.41 2.54 6.14 2 7 2h10c1.1 0 2 .9 2 2v13.18l-2-2.01V15M12 4c-1.11 0-2 .89-2 2 0 1.1.9 2 2 2s2-.9 2-2a2 2 0 0 0-2-2z" fill="#646464"/></svg>
