<?xml version="1.0"?>
<svg xmlns="http://www.w3.org/2000/svg" xmlns:xlink="http://www.w3.org/1999/xlink" aria-hidden="true" width="1em" height="1em" viewBox="0 0 24 24" data-icon="mdi:square-inc" data-width="1em" data-height="1em" data-inline="false" class="iconify"><path d="M6 3h12c1.66 0 3 1.34 3 3v12c0 1.66-1.34 3-3 3H6c-1.66 0-3-1.34-3-3V6c0-1.66 1.34-3 3-3m1 3c-.55 0-1 .45-1 1v10c0 .55.45 1 1 1h10c.55 0 1-.45 1-1V7c0-.55-.45-1-1-1H7m2.5 3h5c.28 0 .5.22.5.5v5c0 .28-.22.5-.5.5h-5c-.28 0-.5-.22-.5-.5v-5c0-.28.22-.5.5-.5z" fill="#646464"/></svg>
