<?xml version="1.0"?>
<svg xmlns="http://www.w3.org/2000/svg" xmlns:xlink="http://www.w3.org/1999/xlink" aria-hidden="true" width="1em" height="1em" viewBox="0 0 24 24" data-icon="mdi:square-root-box" data-width="1em" data-height="1em" data-inline="false" class="iconify"><path d="M5 3c-1.11 0-2 .89-2 2v14c0 1.1.9 2 2 2h14c1.1 0 2-.9 2-2V5c0-1.1-.9-2-2-2H5m6.24 3H19v2h-6.24L10 18H8l-1.75-6H5v-2h2.75L9 14.28 11.24 6M14 10.59l1.79 1.79 1.8-1.79L19 12l-1.79 1.79 1.79 1.8L17.59 17l-1.8-1.79L14 17l-1.41-1.41 1.79-1.8L12.59 12 14 10.59z" fill="#646464"/></svg>
