<?xml version="1.0"?>
<svg xmlns="http://www.w3.org/2000/svg" xmlns:xlink="http://www.w3.org/1999/xlink" aria-hidden="true" width="1em" height="1em" viewBox="0 0 24 24" data-icon="mdi:star-circle-outline" data-width="1em" data-height="1em" data-inline="false" class="iconify"><path d="M8.58 17.25l.92-3.89-3-2.58 3.95-.37L12 6.8l1.55 3.65 3.95.33-3 2.58.92 3.89L12 15.19l-3.42 2.06M12 2c5.52 0 10 4.48 10 10s-4.48 10-10 10S2 17.52 2 12 6.48 2 12 2m0 2c-4.42 0-8 3.58-8 8s3.58 8 8 8 8-3.58 8-8-3.58-8-8-8z" fill="#646464"/></svg>
