<?xml version="1.0"?>
<svg xmlns="http://www.w3.org/2000/svg" xmlns:xlink="http://www.w3.org/1999/xlink" aria-hidden="true" width="1em" height="1em" viewBox="0 0 24 24" data-icon="mdi:stethoscope" data-width="1em" data-height="1em" data-inline="false" class="iconify"><path d="M19 8c.56 0 1 .43 1 1 0 .55-.45 1-1 1-.57 0-1-.45-1-1 0-.57.43-1 1-1M2 2v9c0 2.96 2.19 5.5 5.14 5.91.62 3.01 3.28 5.09 6.36 5.09a6.5 6.5 0 0 0 6.5-6.5v-3.69c1.16-.42 2-1.52 2-2.81 0-1.66-1.34-3-3-3s-3 1.34-3 3c0 1.29.84 2.4 2 2.81v3.6c0 2.5-2 4.5-4.5 4.5-2 0-3.68-1.21-4.28-3.01C12 16.3 14 13.8 14 11V2h-4v3h2v6c0 2.21-1.79 4-4 4s-4-1.79-4-4V5h2V2H2z" fill="#646464"/></svg>
