<?xml version="1.0"?>
<svg xmlns="http://www.w3.org/2000/svg" xmlns:xlink="http://www.w3.org/1999/xlink" aria-hidden="true" width="1em" height="1em" viewBox="0 0 24 24" data-icon="mdi:sticker-emoji" data-width="1em" data-height="1em" data-inline="false" class="iconify"><path d="M5.5 2C3.56 2 2 3.56 2 5.5v13C2 20.44 3.56 22 5.5 22H16l6-6V5.5C22 3.56 20.44 2 18.5 2h-13m.25 2h12.5c.97 0 1.75.78 1.75 1.75V15h-1.5c-1.94 0-3.5 1.56-3.5 3.5V20H5.75C4.78 20 4 19.22 4 18.25V5.75C4 4.78 4.78 4 5.75 4m8.69 2.77c-.16 0-.32.02-.47.06-.94.26-1.47 1.22-1.23 2.17.05.15.12.3.21.44l3.23-.88c0-.17-.02-.34-.06-.51-.21-.75-.9-1.28-1.68-1.28M8.17 8.5c-.17 0-.32 0-.47.05-.93.26-1.48 1.22-1.23 2.15.03.16.12.3.21.46l3.23-.88c0-.17-.02-.34-.06-.5A1.72 1.72 0 0 0 8.17 8.5m8.55 2.76l-9.13 2.51a5.266 5.266 0 0 0 5.36 1.64 5.273 5.273 0 0 0 3.77-4.15z" fill="#646464"/></svg>
