<?xml version="1.0"?>
<svg xmlns="http://www.w3.org/2000/svg" xmlns:xlink="http://www.w3.org/1999/xlink" aria-hidden="true" width="1em" height="1em" viewBox="0 0 24 24" data-icon="mdi:stove" data-width="1em" data-height="1em" data-inline="false" class="iconify"><path d="M6 14h2l3 3H9l-3-3M4 4h1V3c0-.55.45-1 1-1h4c.55 0 1 .45 1 1v1h2V3c0-.55.45-1 1-1h4c.55 0 1 .45 1 1v1h1c1.1 0 2 .9 2 2v13c0 1.1-.9 2-2 2v1h-3v-1H7v1H4v-1c-1.1 0-2-.9-2-2V6c0-1.1.9-2 2-2m14 3c.55 0 1 .45 1 1s-.45 1-1 1-1-.45-1-1 .45-1 1-1m-4 0c.55 0 1 .45 1 1s-.45 1-1 1-1-.45-1-1 .45-1 1-1m6-1H4v4h16V6M4 19h16v-7H4v7M6 7c.55 0 1 .45 1 1s-.45 1-1 1-1-.45-1-1 .45-1 1-1m7 7h2l3 3h-2l-3-3z" fill="#646464"/></svg>
