<?xml version="1.0"?>
<svg xmlns="http://www.w3.org/2000/svg" xmlns:xlink="http://www.w3.org/1999/xlink" aria-hidden="true" width="1em" height="1em" viewBox="0 0 24 24" data-icon="mdi:surround-sound-2-0" data-width="1em" data-height="1em" data-inline="false" class="iconify"><path d="M17 7h2c1.1 0 2 .9 2 2v6c0 1.1-.9 2-2 2h-2c-1.1 0-2-.9-2-2V9c0-1.1.9-2 2-2m0 2v6h2V9h-2m-8 8H3v-2l4-6H3V7h4c1.1 0 2 .9 2 2 0 .42-.13.81-.35 1.13L5.41 15H9v2m3 0c-.55 0-1-.45-1-1s.45-1 1-1 1 .45 1 1-.45 1-1 1z" fill="#646464"/></svg>
