<?xml version="1.0"?>
<svg xmlns="http://www.w3.org/2000/svg" xmlns:xlink="http://www.w3.org/1999/xlink" aria-hidden="true" width="1em" height="1em" viewBox="0 0 24 24" data-icon="mdi:svg" data-width="1em" data-height="1em" data-inline="false" class="iconify"><path d="M5.13 10.71h3.74L6.22 8.06c-1.01 0-1.83-.82-1.83-1.84 0-1.01.82-1.83 1.83-1.83 1.02 0 1.84.82 1.84 1.83l2.65 2.65V5.13a1.84 1.84 0 0 1 0-2.59 1.81 1.81 0 0 1 2.58 0c.71.71.71 1.87 0 2.59v3.74l2.66-2.65a1.83 1.83 0 0 1 3.66 0c0 1.02-.82 1.84-1.83 1.84l-2.65 2.65h3.74a1.84 1.84 0 0 1 2.59 0c.72.71.72 1.87 0 2.58-.71.71-1.87.71-2.59 0h-3.74l2.65 2.66a1.83 1.83 0 1 1-1.83 1.83l-2.66-2.65v3.74c.71.72.71 1.88 0 2.59-.71.72-1.87.72-2.58 0a1.84 1.84 0 0 1 0-2.59v-3.74l-2.65 2.65c0 1.01-.82 1.83-1.84 1.83a1.83 1.83 0 0 1 0-3.66l2.65-2.66H5.13c-.72.71-1.88.71-2.59 0a1.81 1.81 0 0 1 0-2.58 1.84 1.84 0 0 1 2.59 0z" fill="#646464"/></svg>
