<?xml version="1.0"?>
<svg xmlns="http://www.w3.org/2000/svg" xmlns:xlink="http://www.w3.org/1999/xlink" aria-hidden="true" width="1em" height="1em" viewBox="0 0 24 24" data-icon="mdi:swim" data-width="1em" data-height="1em" data-inline="false" class="iconify"><path d="M2 18c2.22-1 4.44-2 6.67-2 2.22 0 4.44 2 6.66 2 2.23 0 4.45-2 6.67-2v3c-2.22 0-4.44 2-6.67 2-2.22 0-4.44-2-6.66-2-2.23 0-4.45 1-6.67 2v-3m6.67-5c-.78 0-1.55.12-2.32.32l4.92-3.44-1.04-1.24c-.14-.17-.23-.4-.23-.64 0-.34.17-.65.44-.83l5.72-4 1.15 1.63-4.84 3.39 5.23 6.23c-.79.33-1.58.58-2.37.58-2.22 0-4.44-2-6.66-2M18 7c1.1 0 2 .9 2 2s-.9 2-2 2-2-.9-2-2 .9-2 2-2z" fill="#646464"/></svg>
