<?xml version="1.0"?>
<svg xmlns="http://www.w3.org/2000/svg" xmlns:xlink="http://www.w3.org/1999/xlink" aria-hidden="true" width="1em" height="1em" viewBox="0 0 24 24" data-icon="mdi:tab-unselected" data-width="1em" data-height="1em" data-inline="false" class="iconify"><path d="M1 9h2V7H1v2m0 4h2v-2H1v2m0-8h2V3c-1.1 0-2 .9-2 2m8 16h2v-2H9v2m-8-4h2v-2H1v2m2 4v-2H1c0 1.1.9 2 2 2M21 3h-8v6h10V5c0-1.1-.9-2-2-2m0 14h2v-2h-2v2M9 5h2V3H9v2M5 21h2v-2H5v2M5 5h2V3H5v2m16 16c1.1 0 2-.9 2-2h-2v2m0-8h2v-2h-2v2m-8 8h2v-2h-2v2m4 0h2v-2h-2v2z" fill="#646464"/></svg>
