<?xml version="1.0"?>
<svg xmlns="http://www.w3.org/2000/svg" xmlns:xlink="http://www.w3.org/1999/xlink" aria-hidden="true" width="1em" height="1em" viewBox="0 0 24 24" data-icon="mdi:tab-remove" data-width="1em" data-height="1em" data-inline="false" class="iconify"><path d="M7.46 11.88l1.42-1.42L11 12.59l2.12-2.13 1.42 1.42L12.41 14l2.13 2.12-1.42 1.42L11 15.41l-2.12 2.13-1.42-1.42L9.59 14l-2.13-2.12M3 3h18c1.1 0 2 .9 2 2v14c0 1.1-.9 2-2 2H3c-1.1 0-2-.9-2-2V5c0-1.1.9-2 2-2m0 2v14h18V9h-8V5H3z" fill="#646464"/></svg>
