<?xml version="1.0"?>
<svg xmlns="http://www.w3.org/2000/svg" xmlns:xlink="http://www.w3.org/1999/xlink" aria-hidden="true" width="1em" height="1em" viewBox="0 0 24 24" data-icon="mdi:table-edit" data-width="1em" data-height="1em" data-inline="false" class="iconify"><path d="M21.7 13.35l-1 1-2.05-2.05 1-1c.21-.22.56-.22.77 0l1.28 1.28c.22.21.22.56 0 .77M12 18.94l6.07-6.06 2.05 2.05L14.06 21H12v-2.06M4 2h14c1.1 0 2 .9 2 2v4.17L16.17 12H12v4.17L10.17 18H4c-1.1 0-2-.9-2-2V4c0-1.1.9-2 2-2m0 4v4h6V6H4m8 0v4h6V6h-6m-8 6v4h6v-4H4z" fill="#646464"/></svg>
