<?xml version="1.0"?>
<svg xmlns="http://www.w3.org/2000/svg" xmlns:xlink="http://www.w3.org/1999/xlink" aria-hidden="true" width="1em" height="1em" viewBox="0 0 24 24" data-icon="mdi:table-border" data-width="1em" data-height="1em" data-inline="false" class="iconify"><path d="M21 19c0 .55-.45 1-1 1h-1v-2h2v1m-6 1v-2h2v2h-2m-4 0v-2h2v2h-2m-4 0v-2h2v2H7m-3 0c-.55 0-1-.45-1-1v-1h2v2H4M19 4H5c-1.1 0-2 .9-2 2v2h18V6c0-1.11-.89-2-2-2M5 14H3v2h2v-2m0-4H3v2h2v-2m16 0h-2v2h2v-2m0 4h-2v2h2v-2m-10 2v-2h2v2h-2m0-4v-2h2v2h-2" fill="#646464"/></svg>
