<?xml version="1.0"?>
<svg xmlns="http://www.w3.org/2000/svg" xmlns:xlink="http://www.w3.org/1999/xlink" aria-hidden="true" width="1em" height="1em" viewBox="0 0 24 24" data-icon="mdi:table-large" data-width="1em" data-height="1em" data-inline="false" class="iconify"><path d="M4 3h16c1.1 0 2 .9 2 2v15c0 1.1-.9 2-2 2H4c-1.1 0-2-.9-2-2V5c0-1.1.9-2 2-2m0 4v3h4V7H4m6 0v3h4V7h-4m10 3V7h-4v3h4M4 12v3h4v-3H4m0 8h4v-3H4v3m6-8v3h4v-3h-4m0 8h4v-3h-4v3m10 0v-3h-4v3h4m0-8h-4v3h4v-3z" fill="#646464"/></svg>
