<?xml version="1.0"?>
<svg xmlns="http://www.w3.org/2000/svg" xmlns:xlink="http://www.w3.org/1999/xlink" aria-hidden="true" width="1em" height="1em" viewBox="0 0 24 24" data-icon="mdi:table-column-remove" data-width="1em" data-height="1em" data-inline="false" class="iconify"><path d="M4 2h7c1.1 0 2 .9 2 2v16c0 1.1-.9 2-2 2H4c-1.1 0-2-.9-2-2V4c0-1.1.9-2 2-2m0 8v4h7v-4H4m0 6v4h7v-4H4M4 4v4h7V4H4m13.59 8L15 9.41 16.41 8 19 10.59 21.59 8 23 9.41 20.41 12 23 14.59 21.59 16 19 13.41 16.41 16 15 14.59 17.59 12z" fill="#646464"/></svg>
