<?xml version="1.0"?>
<svg xmlns="http://www.w3.org/2000/svg" xmlns:xlink="http://www.w3.org/1999/xlink" aria-hidden="true" width="1em" height="1em" viewBox="0 0 24 24" data-icon="mdi:taco" data-width="1em" data-height="1em" data-inline="false" class="iconify"><path d="M19 18H5c-2.21 0-4-1.79-4-4 0-4.42 3.58-8 8-8 1.06 0 2.07.21 3 .58.93-.37 1.94-.58 3-.58 4.42 0 8 3.58 8 8 0 2.21-1.79 4-4 4M3 14c0 1.1.9 2 2 2s2-.9 2-2c0-2.37 1.03-4.5 2.67-5.96L9 8c-3.31 0-6 2.69-6 6m16 2c1.1 0 2-.9 2-2 0-3.31-2.69-6-6-6s-6 2.69-6 6c0 .73-.19 1.41-.54 2H19z" fill="#646464"/></svg>
