<?xml version="1.0"?>
<svg xmlns="http://www.w3.org/2000/svg" xmlns:xlink="http://www.w3.org/1999/xlink" aria-hidden="true" width="1em" height="1em" viewBox="0 0 24 24" data-icon="mdi:tag-faces" data-width="1em" data-height="1em" data-inline="false" class="iconify"><path d="M15 18c-3.32 0-6-2.69-6-6 0-3.32 2.68-6 6-6 3.31 0 6 2.69 6 6s-2.69 6-6 6M4 13c-.55 0-1-.45-1-1s.45-1 1-1 1 .45 1 1-.45 1-1 1M22 3H7.63c-.66 0-1.25.32-1.63.81L0 12l6 8.18c.38.5.97.82 1.63.82H22c1.1 0 2-.9 2-2V5a2 2 0 0 0-2-2m-9 8c.55 0 1-.45 1-1s-.45-1-1-1-1 .45-1 1 .45 1 1 1m2 5c1.86 0 3.35-1.28 3.8-3h-7.6c.45 1.72 1.94 3 3.8 3m2-5c.55 0 1-.45 1-1s-.45-1-1-1-1 .45-1 1 .45 1 1 1z" fill="#646464"/></svg>
