<?xml version="1.0"?>
<svg xmlns="http://www.w3.org/2000/svg" xmlns:xlink="http://www.w3.org/1999/xlink" aria-hidden="true" width="1em" height="1em" viewBox="0 0 24 24" data-icon="mdi:tag-plus" data-width="1em" data-height="1em" data-inline="false" class="iconify"><path d="M21.41 11.58l-9-9C12.04 2.21 11.53 2 11 2H4c-1.1 0-2 .9-2 2v7c0 .53.21 1.04.59 1.41l.41.4c.9-.54 1.94-.81 3-.81 3.31 0 6 2.69 6 6 0 1.06-.28 2.09-.82 3l.4.4c.37.38.89.6 1.42.6.53 0 1.04-.21 1.41-.59l7-7c.38-.37.59-.88.59-1.41 0-.53-.21-1.04-.59-1.42M5.5 7C4.67 7 4 6.33 4 5.5S4.67 4 5.5 4 7 4.67 7 5.5 6.33 7 5.5 7M10 19H7v3H5v-3H2v-2h3v-3h2v3h3v2z" fill="#646464"/></svg>
