<?xml version="1.0"?>
<svg xmlns="http://www.w3.org/2000/svg" xmlns:xlink="http://www.w3.org/1999/xlink" aria-hidden="true" width="1em" height="1em" viewBox="0 0 24 24" data-icon="mdi:tag-multiple" data-width="1em" data-height="1em" data-inline="false" class="iconify"><path d="M5.5 9C6.33 9 7 8.33 7 7.5S6.33 6 5.5 6 4 6.67 4 7.5 4.67 9 5.5 9m11.91 2.58c.36.36.59.86.59 1.42 0 .55-.22 1.05-.59 1.41l-5 5a1.996 1.996 0 0 1-2.83 0l-6.99-6.99C2.22 12.05 2 11.55 2 11V6c0-1.11.89-2 2-2h5c.55 0 1.05.22 1.41.58l7 7m-3.87-5.87l1-1 6.87 6.87c.37.36.59.87.59 1.42 0 .55-.22 1.05-.58 1.41l-5.38 5.38-1-1L20.75 13l-7.21-7.29z" fill="#646464"/></svg>
