<?xml version="1.0"?>
<svg xmlns="http://www.w3.org/2000/svg" xmlns:xlink="http://www.w3.org/1999/xlink" aria-hidden="true" width="1em" height="1em" viewBox="0 0 24 24" data-icon="mdi:tag-text-outline" data-width="1em" data-height="1em" data-inline="false" class="iconify"><path d="M5.5 7C6.33 7 7 6.33 7 5.5S6.33 4 5.5 4 4 4.67 4 5.5 4.67 7 5.5 7m15.91 4.58c.36.36.59.86.59 1.42 0 .55-.22 1.05-.59 1.41l-7 7c-.36.36-.86.59-1.41.59-.55 0-1.05-.23-1.42-.59l-8.99-9C2.22 12.05 2 11.55 2 11V4c0-1.11.89-2 2-2h7c.55 0 1.05.22 1.41.58l9 9M13 20l7-7-8.5-8.5-7 7L13 20M10.09 8.91L11.5 7.5 17 13l-1.41 1.41-5.5-5.5m-2.5 2.5L9 10l4 4-1.41 1.41-4-4z" fill="#646464"/></svg>
