<?xml version="1.0"?>
<svg xmlns="http://www.w3.org/2000/svg" xmlns:xlink="http://www.w3.org/1999/xlink" aria-hidden="true" width="1em" height="1em" viewBox="0 0 24 24" data-icon="mdi:tag-heart-outline" data-width="1em" data-height="1em" data-inline="false" class="iconify"><path d="M4 2c-1.1 0-2 .9-2 2v7c0 .55.22 1.05.59 1.42l9 9c.36.36.86.58 1.41.58.55 0 1.05-.22 1.41-.59l7-7c.37-.36.59-.86.59-1.41 0-.55-.23-1.06-.59-1.42l-9-9C12.05 2.22 11.55 2 11 2H4m7 2l9 9-7 7-9-9V4h7M6.5 5C5.67 5 5 5.67 5 6.5S5.67 8 6.5 8 8 7.33 8 6.5 7.33 5 6.5 5m4.45 5.5c-1.13 0-2.05.92-2.05 2.05 0 .57.23 1.07.6 1.45l3.5 3.5 3.5-3.5a2.053 2.053 0 0 0-1.45-3.5c-.55 0-1.08.23-1.45.6l-.6.6-.6-.59c-.37-.38-.9-.61-1.45-.61z" fill="#646464"/></svg>
