<?xml version="1.0"?>
<svg xmlns="http://www.w3.org/2000/svg" xmlns:xlink="http://www.w3.org/1999/xlink" aria-hidden="true" width="1em" height="1em" viewBox="0 0 24 24" data-icon="mdi:tag" data-width="1em" data-height="1em" data-inline="false" class="iconify"><path d="M5.5 7C4.67 7 4 6.33 4 5.5S4.67 4 5.5 4 7 4.67 7 5.5 6.33 7 5.5 7m15.91 4.58l-9-9C12.05 2.22 11.55 2 11 2H4c-1.11 0-2 .89-2 2v7c0 .55.22 1.05.59 1.41l8.99 9c.37.36.87.59 1.42.59.55 0 1.05-.23 1.41-.59l7-7c.37-.36.59-.86.59-1.41 0-.56-.23-1.06-.59-1.42z" fill="#646464"/></svg>
