<?xml version="1.0"?>
<svg xmlns="http://www.w3.org/2000/svg" xmlns:xlink="http://www.w3.org/1999/xlink" aria-hidden="true" width="1em" height="1em" viewBox="0 0 24 24" data-icon="mdi:television-classic" data-width="1em" data-height="1em" data-inline="false" class="iconify"><path d="M8.16 3L6.75 4.41 9.34 7H4c-1.11 0-2 .89-2 2v10c0 1.11.89 2 2 2h16c1.11 0 2-.89 2-2V9c0-1.11-.89-2-2-2h-5.34l2.59-2.59L15.84 3 12 6.84 8.16 3M4 9h13v10H4V9m15.5 0c.55 0 1 .45 1 1s-.45 1-1 1-1-.45-1-1 .45-1 1-1m0 3c.55 0 1 .45 1 1s-.45 1-1 1-1-.45-1-1 .45-1 1-1z" fill="#646464"/></svg>
