<?xml version="1.0"?>
<svg xmlns="http://www.w3.org/2000/svg" xmlns:xlink="http://www.w3.org/1999/xlink" aria-hidden="true" width="1em" height="1em" viewBox="0 0 24 24" data-icon="mdi:television-off" data-width="1em" data-height="1em" data-inline="false" class="iconify"><path d="M.5 2.77L1.78 1.5 21 20.72 19.73 22l-3-3H16v2H8v-2H3c-1.1 0-2-.9-2-2V5c0-.5.17-.93.46-1.27L.5 2.77M21 17V5H7.82l-2-2H21c1.1 0 2 .9 2 2v12c0 .85-.55 1.59-1.3 1.87L19.82 17H21M3 17h11.73L3 5.27V17z" fill="#646464"/></svg>
