<?xml version="1.0"?>
<svg xmlns="http://www.w3.org/2000/svg" xmlns:xlink="http://www.w3.org/1999/xlink" aria-hidden="true" width="1em" height="1em" viewBox="0 0 24 24" data-icon="mdi:television-classic-off" data-width="1em" data-height="1em" data-inline="false" class="iconify"><path d="M2 5.27L3.28 4 21 21.72 19.73 23l-2-2H4c-1.11 0-2-.89-2-2V9c0-1 .76-1.86 1.75-2L2 5.27M8.16 3L12 6.84 15.84 3l1.41 1.41L14.66 7H20c1.11 0 2 .89 2 2v10c0 .34-.08.66-.23.94L17 15.18V9h-6.18l-2-2h.52L6.75 4.41 8.16 3M4 9v10h11.73l-10-10H4m15.5 0c-.55 0-1 .45-1 1s.45 1 1 1 1-.45 1-1-.45-1-1-1m0 3c-.55 0-1 .45-1 1s.45 1 1 1 1-.45 1-1-.45-1-1-1z" fill="#646464"/></svg>
