<?xml version="1.0"?>
<svg xmlns="http://www.w3.org/2000/svg" xmlns:xlink="http://www.w3.org/1999/xlink" aria-hidden="true" width="1em" height="1em" viewBox="0 0 24 24" data-icon="mdi:temperature-celsius" data-width="1em" data-height="1em" data-inline="false" class="iconify"><path d="M16.5 5c1.55 0 3 .47 4.19 1.28l-1.16 2.89A4.47 4.47 0 0 0 16.5 8C14 8 12 10 12 12.5s2 4.5 4.5 4.5c1.03 0 1.97-.34 2.73-.92l1.14 2.85A7.47 7.47 0 0 1 16.5 20C12.36 20 9 16.64 9 12.5 9 8.36 12.36 5 16.5 5M6 3c1.66 0 3 1.34 3 3S7.66 9 6 9 3 7.66 3 6s1.34-3 3-3m0 2c-.55 0-1 .45-1 1s.45 1 1 1 1-.45 1-1-.45-1-1-1z" fill="#646464"/></svg>
