<?xml version="1.0"?>
<svg xmlns="http://www.w3.org/2000/svg" xmlns:xlink="http://www.w3.org/1999/xlink" aria-hidden="true" width="1em" height="1em" viewBox="0 0 24 24" data-icon="mdi:text-to-speech" data-width="1em" data-height="1em" data-inline="false" class="iconify"><path d="M8 7c1.1 0 2 .9 2 2v5c0 1.1-.9 2-2 2s-2-.9-2-2V9c0-1.1.9-2 2-2m6 7c0 2.97-2.16 5.44-5 5.92V22H7v-2.08c-2.84-.48-5-2.95-5-5.92h2c0 2.21 1.79 4 4 4s4-1.79 4-4h2m7.41-4.59l-4.24 4.25L18.18 10H14c-1.1 0-2-.9-2-2V4c0-1.1.9-2 2-2h6c1.1 0 2 .9 2 2v4c0 .55-.22 1.05-.59 1.41z" fill="#646464"/></svg>
