<?xml version="1.0"?>
<svg xmlns="http://www.w3.org/2000/svg" xmlns:xlink="http://www.w3.org/1999/xlink" aria-hidden="true" width="1em" height="1em" viewBox="0 0 24 24" data-icon="mdi:textbox-password" data-width="1em" data-height="1em" data-inline="false" class="iconify"><path d="M17 7h5v10h-5v2c0 .55.45 1 1 1h2v2h-2.5c-.55 0-1.5-.45-1.5-1 0 .55-.95 1-1.5 1H12v-2h2c.55 0 1-.45 1-1V5c0-.55-.45-1-1-1h-2V2h2.5c.55 0 1.5.45 1.5 1 0-.55.95-1 1.5-1H20v2h-2c-.55 0-1 .45-1 1v2M2 7h11v2H4v6h9v2H2V7m18 8V9h-3v6h3M8.5 12c0-.83-.67-1.5-1.5-1.5s-1.5.67-1.5 1.5.67 1.5 1.5 1.5 1.5-.67 1.5-1.5m4.5-1.11c-.61-.56-1.56-.51-2.12.11-.56.6-.51 1.55.12 2.11.55.52 1.43.52 2 0v-2.22z" fill="#646464"/></svg>
