<?xml version="1.0"?>
<svg xmlns="http://www.w3.org/2000/svg" xmlns:xlink="http://www.w3.org/1999/xlink" aria-hidden="true" width="1em" height="1em" viewBox="0 0 24 24" data-icon="mdi:text-to-speech-off" data-width="1em" data-height="1em" data-inline="false" class="iconify"><path d="M2 5.27L3.28 4 20 20.72 18.73 22l-5.35-5.35A6 6 0 0 1 9 19.92V22H7v-2.08c-2.84-.48-5-2.95-5-5.92h2a3.999 3.999 0 0 0 7.84 1.11L10 13.27V14c0 1.1-.9 2-2 2s-2-.9-2-2V9.27l-4-4m19.41 4.14l-4.24 4.25L18.18 10H14c-1.1 0-2-.9-2-2V4c0-1.1.9-2 2-2h6c1.1 0 2 .9 2 2v4c0 .55-.22 1.05-.59 1.41z" fill="#646464"/></svg>
