<?xml version="1.0"?>
<svg xmlns="http://www.w3.org/2000/svg" xmlns:xlink="http://www.w3.org/1999/xlink" aria-hidden="true" width="1em" height="1em" viewBox="0 0 24 24" data-icon="mdi:theater" data-width="1em" data-height="1em" data-inline="false" class="iconify"><path d="M4 15h2c1.1 0 2 .9 2 2v2h1v-2c0-1.1.9-2 2-2h2c1.1 0 2 .9 2 2v2h1v-2c0-1.1.9-2 2-2h2c1.1 0 2 .9 2 2v2h1v3H1v-3h1v-2c0-1.1.9-2 2-2m7-8l4 3-4 3V7M4 2h16c1.1 0 2 .9 2 2v9.54a3.89 3.89 0 0 0-2-.54V4H4v9c-.73 0-1.41.19-2 .54V4c0-1.1.9-2 2-2z" fill="#646464"/></svg>
