<?xml version="1.0"?>
<svg xmlns="http://www.w3.org/2000/svg" xmlns:xlink="http://www.w3.org/1999/xlink" aria-hidden="true" width="1em" height="1em" viewBox="0 0 24 24" data-icon="mdi:thermostat-box" data-width="1em" data-height="1em" data-inline="false" class="iconify"><path d="M5 3c-1.1 0-2 .9-2 2v14c0 1.1.9 2 2 2h14c1.1 0 2-.9 2-2V5a2 2 0 0 0-2-2H5m7 2c1.57 0 3 .5 4.19 1.4L14 8.56c-.57-.35-1.26-.56-2-.56-2.21 0-4 1.79-4 4 0 1.1.45 2.1 1.17 2.83l-2.12 2.12A6.976 6.976 0 0 1 5 12c0-3.87 3.13-7 7-7m5.6 2.81A6.86 6.86 0 0 1 19 12c0 1.93-.78 3.68-2.05 4.95l-2.12-2.12C15.55 14.1 16 13.1 16 12c0-.74-.21-1.43-.57-2l2.17-2.19z" fill="#646464"/></svg>
