<?xml version="1.0"?>
<svg xmlns="http://www.w3.org/2000/svg" xmlns:xlink="http://www.w3.org/1999/xlink" aria-hidden="true" width="1em" height="1em" viewBox="0 0 24 24" data-icon="mdi:thought-bubble" data-width="1em" data-height="1em" data-inline="false" class="iconify"><path d="M3.5 19c.83 0 1.5.67 1.5 1.5S4.33 22 3.5 22 2 21.33 2 20.5 2.67 19 3.5 19m5-3a2.5 2.5 0 0 1 0 5 2.5 2.5 0 0 1 0-5m6-1c-1.19 0-2.27-.5-3-1.35-.73.85-1.81 1.35-3 1.35-1.96 0-3.59-1.41-3.93-3.26A4.02 4.02 0 0 1 2 8c0-2.21 1.79-4 4-4 .26 0 .5.03.77.07C7.5 3.41 8.45 3 9.5 3c1.19 0 2.27.5 3 1.35.73-.85 1.81-1.35 3-1.35 1.96 0 3.59 1.41 3.93 3.26A4.02 4.02 0 0 1 22 10c0 2.21-1.79 4-4 4l-.77-.07c-.73.66-1.68 1.07-2.73 1.07z" fill="#646464"/></svg>
