<?xml version="1.0"?>
<svg xmlns="http://www.w3.org/2000/svg" xmlns:xlink="http://www.w3.org/1999/xlink" aria-hidden="true" width="1em" height="1em" viewBox="0 0 24 24" data-icon="mdi:thumb-up-outline" data-width="1em" data-height="1em" data-inline="false" class="iconify"><path d="M5 9v12H1V9h4m4 12c-1.1 0-2-.9-2-2V9c0-.55.22-1.05.59-1.41L14.17 1l1.06 1.06c.27.27.44.64.44 1.05l-.03.32L14.69 8H21a2 2 0 0 1 2 2v2c0 .26-.05.5-.14.73l-3.02 7.05C19.54 20.5 18.83 21 18 21H9m0-2h9.03L21 12v-2h-8.79l1.13-5.32L9 9.03V19z" fill="#646464"/></svg>
