<?xml version="1.0"?>
<svg xmlns="http://www.w3.org/2000/svg" xmlns:xlink="http://www.w3.org/1999/xlink" aria-hidden="true" width="1em" height="1em" viewBox="0 0 24 24" data-icon="mdi:ticket-percent" data-width="1em" data-height="1em" data-inline="false" class="iconify"><path d="M4 4c-1.1 0-2 .9-2 2v4a2 2 0 1 1 0 4v4c0 1.1.9 2 2 2h16c1.1 0 2-.9 2-2v-4a2 2 0 1 1 0-4V6a2 2 0 0 0-2-2H4m11.5 3L17 8.5 8.5 17 7 15.5 15.5 7m-6.69.04c.98 0 1.77.79 1.77 1.77s-.79 1.77-1.77 1.77-1.77-.79-1.77-1.77.79-1.77 1.77-1.77m6.38 6.38c.98 0 1.77.79 1.77 1.77s-.79 1.77-1.77 1.77-1.77-.79-1.77-1.77.79-1.77 1.77-1.77z" fill="#646464"/></svg>
