<?xml version="1.0"?>
<svg xmlns="http://www.w3.org/2000/svg" xmlns:xlink="http://www.w3.org/1999/xlink" aria-hidden="true" width="1em" height="1em" viewBox="0 0 24 24" data-icon="mdi:ticket-account" data-width="1em" data-height="1em" data-inline="false" class="iconify"><path d="M20 12c0 1.1.9 2 2 2v4c0 1.1-.9 2-2 2H4c-1.1 0-2-.9-2-2v-4a2 2 0 1 0 0-4V6a2 2 0 0 1 2-2h16c1.1 0 2 .9 2 2v4c-1.1 0-2 .9-2 2m-3.5 4.25c0-1.5-3-2.25-4.5-2.25s-4.5.75-4.5 2.25V17h9v-.75m-4.5-4c1.24 0 2.25-1.01 2.25-2.25S13.24 7.75 12 7.75 9.75 8.76 9.75 10s1.01 2.25 2.25 2.25z" fill="#646464"/></svg>
