<?xml version="1.0"?>
<svg xmlns="http://www.w3.org/2000/svg" xmlns:xlink="http://www.w3.org/1999/xlink" aria-hidden="true" width="1em" height="1em" viewBox="0 0 24 24" data-icon="mdi:ticket" data-width="1em" data-height="1em" data-inline="false" class="iconify"><path d="M15.58 16.8L12 14.5l-3.58 2.3 1.08-4.12L6.21 10l4.25-.26L12 5.8l1.54 3.94 4.25.26-3.29 2.68M20 12a2 2 0 0 1 2-2V6a2 2 0 0 0-2-2H4c-1.1 0-2 .9-2 2v4a2 2 0 1 1 0 4v4c0 1.1.9 2 2 2h16c1.1 0 2-.9 2-2v-4c-1.1 0-2-.9-2-2z" fill="#646464"/></svg>
