<?xml version="1.0"?>
<svg xmlns="http://www.w3.org/2000/svg" xmlns:xlink="http://www.w3.org/1999/xlink" aria-hidden="true" width="1em" height="1em" viewBox="0 0 24 24" data-icon="mdi:ticket-outline" data-width="1em" data-height="1em" data-inline="false" class="iconify"><path d="M4 4c-1.1 0-2 .9-2 2v4c1.1 0 2 .9 2 2s-.9 2-2 2v4c0 1.1.9 2 2 2h16c1.1 0 2-.9 2-2v-4c-1.1 0-2-.9-2-2s.9-2 2-2V6c0-1.1-.9-2-2-2H4m0 2h16v2.54c-1.24.71-2 2.03-2 3.46 0 1.43.76 2.75 2 3.46V18H4v-2.54c1.24-.71 2-2.03 2-3.46 0-1.43-.76-2.75-2-3.46V6z" fill="#646464"/></svg>
