<?xml version="1.0"?>
<svg xmlns="http://www.w3.org/2000/svg" xmlns:xlink="http://www.w3.org/1999/xlink" aria-hidden="true" width="1em" height="1em" viewBox="0 0 24 24" data-icon="mdi:timer" data-width="1em" data-height="1em" data-inline="false" class="iconify"><path d="M12 20c-3.87 0-7-3.13-7-7s3.13-7 7-7 7 3.13 7 7-3.13 7-7 7m7.03-12.61l1.42-1.42c-.45-.51-.9-.97-1.41-1.41L17.62 6c-1.55-1.26-3.5-2-5.62-2a9 9 0 0 0 0 18c5 0 9-4.03 9-9 0-2.12-.74-4.07-1.97-5.61M11 14h2V8h-2m4-7H9v2h6V1z" fill="#646464"/></svg>
