<?xml version="1.0"?>
<svg xmlns="http://www.w3.org/2000/svg" xmlns:xlink="http://www.w3.org/1999/xlink" aria-hidden="true" width="1em" height="1em" viewBox="0 0 24 24" data-icon="mdi:timeline-outline" data-width="1em" data-height="1em" data-inline="false" class="iconify"><path d="M6 12c0 1.1-.9 2-2 2s-2-.9-2-2 .9-2 2-2 2 .9 2 2M5 2v6H3V2h2M3 22v-6h2v6H3M22 7v10c0 1.1-.9 2-2 2h-9c-1.1 0-2-.9-2-2v-3l-2-2 2-2V7c0-1.1.9-2 2-2h9c1.1 0 2 .9 2 2m-2 0h-9v3.83L9.83 12 11 13.17V17h9V7z" fill="#646464"/></svg>
