<?xml version="1.0"?>
<svg xmlns="http://www.w3.org/2000/svg" xmlns:xlink="http://www.w3.org/1999/xlink" aria-hidden="true" width="1em" height="1em" viewBox="0 0 24 24" data-icon="mdi:timetable" data-width="1em" data-height="1em" data-inline="false" class="iconify"><path d="M14 12h1.5v2.82l2.44 1.41-.75 1.3L14 15.69V12M4 2h14c1.1 0 2 .9 2 2v6.1c1.24 1.26 2 2.99 2 4.9 0 3.87-3.13 7-7 7-1.91 0-3.64-.76-4.9-2H4c-1.1 0-2-.9-2-2V4c0-1.1.9-2 2-2m0 13v3h4.67c-.43-.91-.67-1.93-.67-3H4m0-7h6V5H4v3m14 0V5h-6v3h6M4 13h4.29c.34-1.15.97-2.18 1.81-3H4v3m11-2.85c-2.68 0-4.85 2.17-4.85 4.85 0 2.68 2.17 4.85 4.85 4.85 2.68 0 4.85-2.17 4.85-4.85 0-2.68-2.17-4.85-4.85-4.85z" fill="#646464"/></svg>
