<?xml version="1.0"?>
<svg xmlns="http://www.w3.org/2000/svg" xmlns:xlink="http://www.w3.org/1999/xlink" aria-hidden="true" width="1em" height="1em" viewBox="0 0 24 24" data-icon="mdi:timer-off" data-width="1em" data-height="1em" data-inline="false" class="iconify"><path d="M12 20c-3.87 0-7-3.13-7-7 0-1.28.35-2.5.95-3.5l9.55 9.54c-1 .61-2.22.96-3.5.96M3 4L1.75 5.27 4.5 8.03A8.905 8.905 0 0 0 3 13a9 9 0 0 0 9 9c1.84 0 3.55-.55 5-1.5l2.5 2.5 1.25-1.27L13.04 14 3 4m8 5.44l2 2V8h-2m4-7H9v2h6m4.04 1.55l-1.42 1.42A9.012 9.012 0 0 0 12 4c-1.83 0-3.53.55-4.95 1.5L8.5 6.94a6.995 6.995 0 0 1 9.56 9.56l1.44 1.44c.95-1.41 1.5-3.11 1.5-4.94 0-2.12-.74-4.07-1.97-5.61l1.42-1.42-1.41-1.42z" fill="#646464"/></svg>
