<?xml version="1.0"?>
<svg xmlns="http://www.w3.org/2000/svg" xmlns:xlink="http://www.w3.org/1999/xlink" aria-hidden="true" width="1em" height="1em" viewBox="0 0 24 24" data-icon="mdi:toggle-switch-outline" data-width="1em" data-height="1em" data-inline="false" class="iconify"><path d="M17 10c1.1 0 2 .9 2 2s-.9 2-2 2-2-.9-2-2 .9-2 2-2m0-3c2.76 0 5 2.24 5 5s-2.24 5-5 5H7c-2.76 0-5-2.24-5-5s2.24-5 5-5h10M7 9c-1.66 0-3 1.34-3 3s1.34 3 3 3h10c1.66 0 3-1.34 3-3s-1.34-3-3-3H7z" fill="#646464"/></svg>
