<?xml version="1.0"?>
<svg xmlns="http://www.w3.org/2000/svg" xmlns:xlink="http://www.w3.org/1999/xlink" aria-hidden="true" width="1em" height="1em" viewBox="0 0 24 24" data-icon="mdi:toolbox" data-width="1em" data-height="1em" data-inline="false" class="iconify"><path d="M9 5v1h6V5H9m13 13c0 .53-.21 1-.6 1.41-.4.4-.85.59-1.4.59H4c-.55 0-1-.19-1.4-.59C2.21 19 2 18.53 2 18v-4h5v1h2v-1h6v1h2v-1h5v4M4.5 7.22C4.84 6.41 5.45 6 6.33 6H7V5c0-.55.18-1 .57-1.41C7.96 3.2 8.44 3 9 3h6c.56 0 1.04.2 1.43.59.39.41.57.86.57 1.41v1h.67c.88 0 1.49.41 1.83 1.22L21.58 12H17v-1h-2v1H9v-1H7v1H2.42L4.5 7.22z" fill="#646464"/></svg>
