<?xml version="1.0"?>
<svg xmlns="http://www.w3.org/2000/svg" xmlns:xlink="http://www.w3.org/1999/xlink" aria-hidden="true" width="1em" height="1em" viewBox="0 0 24 24" data-icon="mdi:tooltip-image-outline" data-width="1em" data-height="1em" data-inline="false" class="iconify"><path d="M4 2h16c1.1 0 2 .9 2 2v12c0 1.1-.9 2-2 2h-4l-4 4-4-4H4c-1.1 0-2-.9-2-2V4c0-1.1.9-2 2-2m0 2v12h4.83L12 19.17 15.17 16H20V4H4m3.5 2C8.33 6 9 6.67 9 7.5S8.33 9 7.5 9 6 8.33 6 7.5 6.67 6 7.5 6M6 14l5-5 2 2 5-5v8H6z" fill="#646464"/></svg>
