<?xml version="1.0"?>
<svg xmlns="http://www.w3.org/2000/svg" xmlns:xlink="http://www.w3.org/1999/xlink" aria-hidden="true" width="1em" height="1em" viewBox="0 0 24 24" data-icon="mdi:trackpad-lock" data-width="1em" data-height="1em" data-inline="false" class="iconify"><path d="M3 1c-1.11 0-2 .89-2 2v14c0 1.11.89 2 2 2h11v-2h-2v-4h4.68c.82-.65 1.79-1 2.82-1 .5 0 1 .09 1.5.26V3c0-1.11-.89-2-2-2H3m0 2h16v8H3V3m0 10h7v4H3v-4m16.5 1a2.5 2.5 0 0 0-2.5 2.5v.5c-.55 0-1 .45-1 1v4c0 .55.45 1 1 1h5c.55 0 1-.45 1-1v-4c0-.55-.45-1-1-1v-.5a2.5 2.5 0 0 0-2.5-2.5m0 1c.83 0 1.5.67 1.5 1.5v.5h-3v-.5c0-.83.67-1.5 1.5-1.5z" fill="#646464"/></svg>
