<?xml version="1.0"?>
<svg xmlns="http://www.w3.org/2000/svg" xmlns:xlink="http://www.w3.org/1999/xlink" aria-hidden="true" width="1em" height="1em" viewBox="0 0 24 24" data-icon="mdi:traffic-light" data-width="1em" data-height="1em" data-inline="false" class="iconify"><path d="M12 9a2 2 0 1 1 0-4c1.11 0 2 .89 2 2 0 1.1-.9 2-2 2m0 5a2 2 0 1 1 0-4c1.11 0 2 .89 2 2 0 1.1-.9 2-2 2m0 5a2 2 0 1 1 0-4c1.11 0 2 .89 2 2 0 1.1-.9 2-2 2m8-9h-3V8.86c1.72-.45 3-2 3-3.86h-3V4c0-.55-.45-1-1-1H8c-.55 0-1 .45-1 1v1H4c0 1.86 1.28 3.41 3 3.86V10H4c0 1.86 1.28 3.41 3 3.86V15H4c0 1.86 1.28 3.41 3 3.86V20c0 .55.45 1 1 1h8c.55 0 1-.45 1-1v-1.14c1.72-.45 3-2 3-3.86h-3v-1.14c1.72-.45 3-2 3-3.86z" fill="#646464"/></svg>
