<?xml version="1.0"?>
<svg xmlns="http://www.w3.org/2000/svg" xmlns:xlink="http://www.w3.org/1999/xlink" aria-hidden="true" width="1em" height="1em" viewBox="0 0 24 24" data-icon="mdi:transcribe-close" data-width="1em" data-height="1em" data-inline="false" class="iconify"><path d="M12 23l-4-4h8l-4 4m8-20c1.1 0 2 .9 2 2v10c0 1.1-.9 2-2 2H4c-1.1 0-2-.9-2-2V5c0-1.1.9-2 2-2h16m-2 12v-2h-5.5l-2 2H18M6 15h2.5l6.85-6.88c.2-.19.2-.51 0-.7l-1.76-1.77c-.2-.2-.52-.2-.71 0L6 12.53V15z" fill="#646464"/></svg>
