<?xml version="1.0"?>
<svg xmlns="http://www.w3.org/2000/svg" xmlns:xlink="http://www.w3.org/1999/xlink" aria-hidden="true" width="1em" height="1em" viewBox="0 0 24 24" data-icon="mdi:transition" data-width="1em" data-height="1em" data-inline="false" class="iconify"><path d="M15 2c3.87 0 7 3.13 7 7 0 2.71-1.54 5.05-3.78 6.22a7.117 7.117 0 0 1-3 3A7.014 7.014 0 0 1 9 22c-3.87 0-7-3.13-7-7 0-2.71 1.54-5.05 3.78-6.22a7.117 7.117 0 0 1 3-3A7.014 7.014 0 0 1 15 2m-3 17c-3.87 0-7-3.13-7-7a5.002 5.002 0 0 0 7 7m3-3c-3.87 0-7-3.13-7-7a5.002 5.002 0 0 0 7 7m0-12c-1.13 0-2.16.37-3 1 3.87 0 7 3.13 7 7a5.002 5.002 0 0 0-4-8m-5 5c0 2.76 2.24 5 5 5 .6 0 1.17-.1 1.7-.3.2-.53.3-1.1.3-1.7 0-2.76-2.24-5-5-5-.6 0-1.17.1-1.7.3-.2.53-.3 1.1-.3 1.7z" fill="#646464"/></svg>
