<?xml version="1.0"?>
<svg xmlns="http://www.w3.org/2000/svg" xmlns:xlink="http://www.w3.org/1999/xlink" aria-hidden="true" width="1em" height="1em" viewBox="0 0 24 24" data-icon="mdi:transition-masked" data-width="1em" data-height="1em" data-inline="false" class="iconify"><path d="M15 2c1.94 0 3.59.7 4.95 2.05C21.3 5.41 22 7.06 22 9c0 1.56-.5 2.96-1.42 4.2-.94 1.23-2.14 2.07-3.61 2.5l.03-.32V15c0-2.19-.77-4.07-2.35-5.65S11.19 7 9 7h-.37l-.33.03c.43-1.47 1.27-2.67 2.5-3.61C12.04 2.5 13.44 2 15 2M9 8c3.87 0 7 3.13 7 7s-3.13 7-7 7-7-3.13-7-7 3.13-7 7-7m0 2c-2.76 0-5 2.24-5 5s2.24 5 5 5 5-2.24 5-5-2.24-5-5-5z" fill="#646464"/></svg>
