<?xml version="1.0"?>
<svg xmlns="http://www.w3.org/2000/svg" xmlns:xlink="http://www.w3.org/1999/xlink" aria-hidden="true" width="1em" height="1em" viewBox="0 0 24 24" data-icon="mdi:trello" data-width="1em" data-height="1em" data-inline="false" class="iconify"><path d="M19.5 2h-15A2.5 2.5 0 0 0 2 4.5v15A2.5 2.5 0 0 0 4.5 22h15a2.5 2.5 0 0 0 2.5-2.5v-15A2.5 2.5 0 0 0 19.5 2m-8.8 15.2c0 .66-.54 1.2-1.2 1.2H5.8c-.66 0-1.2-.54-1.2-1.2V5.8c0-.66.54-1.2 1.2-1.2h3.7c.66 0 1.2.54 1.2 1.2v11.4m8.7-5c0 .66-.54 1.2-1.2 1.2h-3.7c-.66 0-1.2-.54-1.2-1.2V5.8c0-.66.54-1.2 1.2-1.2h3.7c.66 0 1.2.54 1.2 1.2v6.4z" fill="#646464"/></svg>
