<?xml version="1.0"?>
<svg xmlns="http://www.w3.org/2000/svg" xmlns:xlink="http://www.w3.org/1999/xlink" aria-hidden="true" width="1em" height="1em" viewBox="0 0 24 24" data-icon="mdi:truck-fast" data-width="1em" data-height="1em" data-inline="false" class="iconify"><path d="M3 13.5L2.25 12H7.5l-.6-1.5H2L1.25 9h7.8l-.6-1.5H1.11L.25 6H4c0-1.1.9-2 2-2h12v4h3l3 4v5h-2c0 1.66-1.34 3-3 3s-3-1.34-3-3h-4c0 1.66-1.34 3-3 3s-3-1.34-3-3H4v-3.5H3m16 5c.83 0 1.5-.67 1.5-1.5s-.67-1.5-1.5-1.5-1.5.67-1.5 1.5.67 1.5 1.5 1.5m1.5-9H18V12h4.46L20.5 9.5M9 18.5c.83 0 1.5-.67 1.5-1.5s-.67-1.5-1.5-1.5-1.5.67-1.5 1.5.67 1.5 1.5 1.5z" fill="#646464"/></svg>
