<?xml version="1.0"?>
<svg xmlns="http://www.w3.org/2000/svg" xmlns:xlink="http://www.w3.org/1999/xlink" aria-hidden="true" width="1em" height="1em" viewBox="0 0 24 24" data-icon="mdi:tshirt-v-outline" data-width="1em" data-height="1em" data-inline="false" class="iconify"><path d="M16 21H8c-.55 0-1-.45-1-1v-7.93l-1.3 1.05c-.39.38-1.02.38-1.41 0l-2.83-2.83a.996.996 0 0 1 0-1.41L7.34 3H9c0 1.1 1 3 3 4.25C14 6 15 4.1 15 3h1.66l5.88 5.88c.39.39.39 1.02 0 1.41l-2.83 2.83c-.39.38-1.02.38-1.41 0L17 12.07V20c0 .55-.45 1-1 1m4.42-11.42l-4.31-4.3C15 7 14 8.25 12 9.25c-2-1-3-2.25-4.11-3.97l-4.31 4.3L5 11l3-2h1v10h6V9h1l3 2 1.42-1.42z" fill="#646464"/></svg>
