<?xml version="1.0"?>
<svg xmlns="http://www.w3.org/2000/svg" xmlns:xlink="http://www.w3.org/1999/xlink" aria-hidden="true" width="1em" height="1em" viewBox="0 0 24 24" data-icon="mdi:twitter-circle" data-width="1em" data-height="1em" data-inline="false" class="iconify"><path d="M17.71 9.33c.48-.4 1.04-.88 1.29-1.41-.41.21-.9.34-1.44.41.5-.36.91-.83 1.12-1.47-.52.28-1.05.52-1.71.64-1.55-1.87-5.26-.35-4.6 2.45-2.61-.16-4.2-1.34-5.52-2.79-.75 1.22-.1 3.07.79 3.58-.46-.03-.81-.17-1.14-.33.04 1.54.89 2.28 2.08 2.68-.36.07-.76.09-1.14.03.37 1.07 1.14 1.74 2.46 1.88-.9.76-2.56 1.29-3.9 1.08 1.15.73 2.46 1.31 4.28 1.23 4.41-.2 7.36-3.36 7.43-7.98M12 2c5.52 0 10 4.48 10 10s-4.48 10-10 10S2 17.52 2 12 6.48 2 12 2z" fill="#646464"/></svg>
