<?xml version="1.0"?>
<svg xmlns="http://www.w3.org/2000/svg" xmlns:xlink="http://www.w3.org/1999/xlink" aria-hidden="true" width="1em" height="1em" viewBox="0 0 24 24" data-icon="mdi:ultra-high-definition" data-width="1em" data-height="1em" data-inline="false" class="iconify"><path d="M9 7h2v4h2V7h2v10h-2v-4h-2v4H9V7m8 0h3c1.66 0 3 1.34 3 3v4c0 1.66-1.34 3-3 3h-3V7m3 8c.55 0 1-.45 1-1v-4c0-.55-.45-1-1-1h-1v6h1M7 14c0 1.66-1.34 3-3 3s-3-1.34-3-3V7h2v7c0 .55.45 1 1 1s1-.45 1-1V7h2v7z" fill="#646464"/></svg>
