<?xml version="1.0"?>
<svg xmlns="http://www.w3.org/2000/svg" xmlns:xlink="http://www.w3.org/1999/xlink" aria-hidden="true" width="1em" height="1em" viewBox="0 0 24 24" data-icon="mdi:umbraco" data-width="1em" data-height="1em" data-inline="false" class="iconify"><path d="M8.6 8.6l-1.43-.22c-.67 3.29-.71 5.86.44 7.12.99 1.11 4.28 1.11 4.28 1.11s3.4 0 4.39-1.11c1.15-1.26 1.1-3.83.44-7.12l-1.43.22s1.25 5.28-.6 6.09c-.88.38-2.8.38-2.8.38s-1.81 0-2.69-.38c-1.85-.81-.6-6.09-.6-6.09M12 3a9 9 0 1 1-.001 18.001A9 9 0 0 1 12 3z" fill="#646464"/></svg>
