<?xml version="1.0"?>
<svg xmlns="http://www.w3.org/2000/svg" xmlns:xlink="http://www.w3.org/1999/xlink" aria-hidden="true" width="1em" height="1em" viewBox="0 0 24 24" data-icon="mdi:usb" data-width="1em" data-height="1em" data-inline="false" class="iconify"><path d="M15 7v4h1v2h-3V5h2l-3-4-3 4h2v8H8v-2.07c.7-.37 1.2-1.08 1.2-1.93A2.2 2.2 0 0 0 7 6.8c-1.22 0-2.2.98-2.2 2.2 0 .85.5 1.56 1.2 1.93V13c0 1.1.9 2 2 2h3v3.05a2.194 2.194 0 0 0 1 4.15 2.194 2.194 0 0 0 1-4.15V15h3c1.1 0 2-.9 2-2v-2h1V7h-4z" fill="#646464"/></svg>
