<?xml version="1.0"?>
<svg xmlns="http://www.w3.org/2000/svg" xmlns:xlink="http://www.w3.org/1999/xlink" aria-hidden="true" width="1em" height="1em" viewBox="0 0 24 24" data-icon="mdi:van-passenger" data-width="1em" data-height="1em" data-inline="false" class="iconify"><path d="M3 7c-1.11 0-2 .89-2 2v8h2c0 1.66 1.34 3 3 3s3-1.34 3-3h6c0 1.66 1.34 3 3 3s3-1.34 3-3h2v-4c0-1.11-.89-2-2-2l-3-4H3m0 1.5h4V11H3V8.5m6 0h4V11H9V8.5m6 0h2.5l1.96 2.5H15V8.5m-9 7c.83 0 1.5.67 1.5 1.5s-.67 1.5-1.5 1.5-1.5-.67-1.5-1.5.67-1.5 1.5-1.5m12 0c.83 0 1.5.67 1.5 1.5s-.67 1.5-1.5 1.5-1.5-.67-1.5-1.5.67-1.5 1.5-1.5z" fill="#646464"/></svg>
