<?xml version="1.0"?>
<svg xmlns="http://www.w3.org/2000/svg" xmlns:xlink="http://www.w3.org/1999/xlink" aria-hidden="true" width="1em" height="1em" viewBox="0 0 24 24" data-icon="mdi:vanish" data-width="1em" data-height="1em" data-inline="false" class="iconify"><path d="M16 13v-2h5v2h-5m-1.17-5.24l2.83-2.83 1.41 1.41-2.83 2.83-1.41-1.41M11 16h2v5h-2v-5m0-13h2v5h-2V3M4.93 17.66l2.83-2.83 1.41 1.41-2.83 2.83-1.41-1.41m0-11.32l1.41-1.41 2.83 2.83-1.41 1.41-2.83-2.83M8 13H3v-2h5v2m11.07 4.66l-1.41 1.41-2.83-2.83 1.41-1.41 2.83 2.83z" fill="#646464"/></svg>
