<?xml version="1.0"?>
<svg xmlns="http://www.w3.org/2000/svg" xmlns:xlink="http://www.w3.org/1999/xlink" aria-hidden="true" width="1em" height="1em" viewBox="0 0 24 24" data-icon="mdi:vector-intersection" data-width="1em" data-height="1em" data-inline="false" class="iconify"><path d="M3.14 1C1.96 1 1 1.96 1 3.14V5h2V3h2V1H3.14M7 1v2h3V1H7m5 0v2h2v2h2V3.14C16 1.96 15.04 1 13.86 1H12M1 7v3h2V7H1m8 0c-1.11 0-2 .89-2 2v7h6.86c1.18 0 2.14-.96 2.14-2.14V7H9m9 0v2h2v2h2V9c0-1.11-.89-2-2-2h-2M9 9h5v5H9V9m-8 3v1.86C1 15.04 1.96 16 3.14 16H5v-2H3v-2H1m19 1v3h2v-3h-2M7 18v2c0 1.11.89 2 2 2h2v-2H9v-2H7m13 0v2h-2v2h2c1.11 0 2-.89 2-2v-2h-2m-7 2v2h3v-2h-3z" fill="#646464"/></svg>
