<?xml version="1.0"?>
<svg xmlns="http://www.w3.org/2000/svg" xmlns:xlink="http://www.w3.org/1999/xlink" aria-hidden="true" width="1em" height="1em" viewBox="0 0 24 24" data-icon="mdi:vector-combine" data-width="1em" data-height="1em" data-inline="false" class="iconify"><path d="M3 1c-1.11 0-2 .89-2 2v11c0 1.11.89 2 2 2h4v4c0 1.11.89 2 2 2h11c1.11 0 2-.89 2-2V9c0-1.11-.89-2-2-2h-4V3c0-1.11-.89-2-2-2H3m0 2h11v4H9c-1.11 0-2 .89-2 2v5H3V3m6 6h5v5H9V9m7 0h4v11H9v-4h5c1.11 0 2-.89 2-2V9z" fill="#646464"/></svg>
