<?xml version="1.0"?>
<svg xmlns="http://www.w3.org/2000/svg" xmlns:xlink="http://www.w3.org/1999/xlink" aria-hidden="true" width="1em" height="1em" viewBox="0 0 24 24" data-icon="mdi:vector-curve" data-width="1em" data-height="1em" data-inline="false" class="iconify"><path d="M18.5 2c.83 0 1.5.67 1.5 1.5a1.498 1.498 0 0 1-2.15 1.35l-3.69 3.7.34.45c2.19-1.26 4.76-2 7.5-2l1 .03v2.01L22 9c-2.58 0-5 .75-7 2.04 0 2.19-1.77 3.96-3.96 3.96C9.75 17 9 19.42 9 22l.04 1H7.03L7 22c0-2.74.74-5.31 2-7.5l-.45-.34-3.7 3.69A1.498 1.498 0 0 1 3.5 20c-.83 0-1.5-.67-1.5-1.5a1.498 1.498 0 0 1 2.15-1.35l3.69-3.7C7.31 12.78 7 11.92 7 11c0-2.21 1.79-4 4-4 .92 0 1.78.31 2.45.84l3.7-3.69A1.498 1.498 0 0 1 18.5 2M11 9c-1.1 0-2 .9-2 2s.9 2 2 2 2-.9 2-2-.9-2-2-2z" fill="#646464"/></svg>
