<?xml version="1.0"?>
<svg xmlns="http://www.w3.org/2000/svg" xmlns:xlink="http://www.w3.org/1999/xlink" aria-hidden="true" width="1em" height="1em" viewBox="0 0 24 24" data-icon="mdi:vector-difference" data-width="1em" data-height="1em" data-inline="false" class="iconify"><path d="M3 1c-1.11 0-2 .89-2 2v11c0 1.11.89 2 2 2h2v-2H3V3h11v2h2V3c0-1.11-.89-2-2-2H3m6 6c-1.11 0-2 .89-2 2v2h2V9h2V7H9m4 0v2h1v1h2V7h-3m5 0v2h2v11H9v-2H7v2c0 1.11.89 2 2 2h11c1.11 0 2-.89 2-2V9c0-1.11-.89-2-2-2h-2m-4 5v2h-2v2h2c1.11 0 2-.89 2-2v-2h-2m-7 1v3h3v-2H9v-1H7z" fill="#646464"/></svg>
