<?xml version="1.0"?>
<svg xmlns="http://www.w3.org/2000/svg" xmlns:xlink="http://www.w3.org/1999/xlink" aria-hidden="true" width="1em" height="1em" viewBox="0 0 24 24" data-icon="mdi:vector-selection" data-width="1em" data-height="1em" data-inline="false" class="iconify"><path d="M3 1h2v2H3v2H1V3c0-1.1.9-2 2-2m11 0c1.1 0 2 .9 2 2v2h-2V3h-2V1h2m6 6c1.1 0 2 .9 2 2v2h-2V9h-2V7h2m2 13c0 1.1-.9 2-2 2h-2v-2h2v-2h2v2m-2-7h2v3h-2v-3m-7-4V7h3v3h-2V9h-1m0 13v-2h3v2h-3m-4 0c-1.1 0-2-.9-2-2v-2h2v2h2v2H9m-2-6v-3h2v1h1v2H7M7 3V1h3v2H7M3 16c-1.1 0-2-.9-2-2v-2h2v2h2v2H3M1 7h2v3H1V7m8 0h2v2H9v2H7V9c0-1.1.9-2 2-2m7 7c0 1.1-.9 2-2 2h-2v-2h2v-2h2v2z" fill="#646464"/></svg>
