<?xml version="1.0"?>
<svg xmlns="http://www.w3.org/2000/svg" xmlns:xlink="http://www.w3.org/1999/xlink" aria-hidden="true" width="1em" height="1em" viewBox="0 0 24 24" data-icon="mdi:vector-difference-ba" data-width="1em" data-height="1em" data-inline="false" class="iconify"><path d="M20 22c1.11 0 2-.89 2-2v-2h-2v2h-2v2h2m-4 0v-2h-3v2h3m-5 0v-2H9v-2H7v2c0 1.11.89 2 2 2h2m11-6v-3h-2v3h2M9 16V9h7V3c0-1.11-.89-2-2-2H3c-1.11 0-2 .89-2 2v11c0 1.11.89 2 2 2h6m-2-2H3V3h11v4H9c-1.11 0-2 .89-2 2v5m15-3V9c0-1.11-.89-2-2-2h-2v2h2v2h2z" fill="#646464"/></svg>
