<?xml version="1.0"?>
<svg xmlns="http://www.w3.org/2000/svg" xmlns:xlink="http://www.w3.org/1999/xlink" aria-hidden="true" width="1em" height="1em" viewBox="0 0 24 24" data-icon="mdi:vector-bezier" data-width="1em" data-height="1em" data-inline="false" class="iconify"><path d="M7.5 4C6.67 4 6 4.67 6 5.5a1.498 1.498 0 0 0 2.91.5H13c.67-.67 1.33-1 2-1H8.91c-.21-.6-.78-1-1.41-1M19 5C8 5 14 17 5 17v2c11 0 5-12 14-12V5m-2.5 12c-.63 0-1.2.4-1.41 1H11c-.67.67-1.33 1-2 1h6.09a1.497 1.497 0 0 0 2.91-.5c0-.83-.67-1.5-1.5-1.5z" fill="#646464"/></svg>
