<?xml version="1.0"?>
<svg xmlns="http://www.w3.org/2000/svg" xmlns:xlink="http://www.w3.org/1999/xlink" aria-hidden="true" width="1em" height="1em" viewBox="0 0 24 24" data-icon="mdi:video-4k-box" data-width="1em" data-height="1em" data-inline="false" class="iconify"><path d="M5 3h14c1.1 0 2 .9 2 2v14c0 1.1-.9 2-2 2H5c-1.1 0-2-.9-2-2V5c0-1.1.9-2 2-2m13.09 12l-2.01-3 2.01-3h-1.73l-1.97 3V9h-1.5v6h1.5v-3l1.97 3h1.73m-6.23-1.5V12h-.98V9h-1.5v3h-1.5V9h-1.5v4.5h3V15h1.5v-1.5h.98z" fill="#646464"/></svg>
