<?xml version="1.0"?>
<svg xmlns="http://www.w3.org/2000/svg" xmlns:xlink="http://www.w3.org/1999/xlink" aria-hidden="true" width="1em" height="1em" viewBox="0 0 24 24" data-icon="mdi:video-vintage" data-width="1em" data-height="1em" data-inline="false" class="iconify"><path d="M18 14.5V11c0-.55-.45-1-1-1h-1c2.24-1.61 2.76-4.73 1.15-7a5.02 5.02 0 0 0-6.98-1.13C9.5 2.35 8.96 3 8.6 3.73a4.985 4.985 0 0 0-6.88 1.64 5.002 5.002 0 0 0 1.64 6.88c.21.12.42.25.64.33V21c0 .55.45 1 1 1h12c.55 0 1-.45 1-1v-3.5l4 4v-11l-4 4M13 4c1.1 0 2 .9 2 2s-.9 2-2 2-2-.9-2-2 .9-2 2-2M6 6c1.1 0 2 .9 2 2s-.9 2-2 2-2-.9-2-2 .9-2 2-2z" fill="#646464"/></svg>
