<?xml version="1.0"?>
<svg xmlns="http://www.w3.org/2000/svg" xmlns:xlink="http://www.w3.org/1999/xlink" aria-hidden="true" width="1em" height="1em" viewBox="0 0 24 24" data-icon="mdi:video-off-outline" data-width="1em" data-height="1em" data-inline="false" class="iconify"><path d="M3.41 1.86L2 3.27 4.73 6H4c-.55 0-1 .45-1 1v10c0 .55.45 1 1 1h12c.21 0 .39-.08.55-.18L19.73 21l1.41-1.41-8.86-8.86-8.87-8.87M5 16V8h1.73l8 8H5m10-8v2.61l6 6V6.5l-4 4V7c0-.55-.45-1-1-1h-5.61l2 2H15z" fill="#646464"/></svg>
