<?xml version="1.0"?>
<svg xmlns="http://www.w3.org/2000/svg" xmlns:xlink="http://www.w3.org/1999/xlink" aria-hidden="true" width="1em" height="1em" viewBox="0 0 24 24" data-icon="mdi:video-input-antenna" data-width="1em" data-height="1em" data-inline="false" class="iconify"><path d="M12 5c-3.87 0-7 3.13-7 7h2c0-2.76 2.24-5 5-5s5 2.24 5 5h2c0-3.87-3.13-7-7-7m1 9.29c.88-.39 1.5-1.26 1.5-2.29a2.5 2.5 0 0 0-5 0c0 1 .62 1.9 1.5 2.29v3.3L7.59 21 9 22.41l3-3 3 3L16.41 21 13 17.59v-3.3M12 1C5.92 1 1 5.92 1 12h2a9 9 0 0 1 18 0h2c0-6.08-4.92-11-11-11z" fill="#646464"/></svg>
