<?xml version="1.0"?>
<svg xmlns="http://www.w3.org/2000/svg" xmlns:xlink="http://www.w3.org/1999/xlink" aria-hidden="true" width="1em" height="1em" viewBox="0 0 24 24" data-icon="mdi:view-week" data-width="1em" data-height="1em" data-inline="false" class="iconify"><path d="M13 5h-3c-.55 0-1 .45-1 1v12c0 .55.45 1 1 1h3c.55 0 1-.45 1-1V6c0-.55-.45-1-1-1m7 0h-3c-.55 0-1 .45-1 1v12c0 .55.45 1 1 1h3c.55 0 1-.45 1-1V6c0-.55-.45-1-1-1M6 5H3c-.55 0-1 .45-1 1v12c0 .55.45 1 1 1h3c.55 0 1-.45 1-1V6c0-.55-.45-1-1-1z" fill="#646464"/></svg>
