<?xml version="1.0"?>
<svg xmlns="http://www.w3.org/2000/svg" xmlns:xlink="http://www.w3.org/1999/xlink" aria-hidden="true" width="1em" height="1em" viewBox="0 0 24 24" data-icon="mdi:violin" data-width="1em" data-height="1em" data-inline="false" class="iconify"><path d="M11 2c-.55 0-1 .45-1 1v6c0 .28.22.5.5.5H12c.28 0 .5.22.5.5s-.22.5-.5.5h-1.5C9.73 10.5 9 9.77 9 9V5.16C7.27 5.6 6 7.13 6 9v1.5a2.5 2.5 0 0 1 0 5V17c0 2.77 2.23 5 5 5h2c2.77 0 5-2.23 5-5v-1.5a2.5 2.5 0 0 1 0-5V9c0-2.22-1.78-4-4-4V3c0-.55-.45-1-1-1h-2m-.25 14.5h2.5l-.5 3.5h-1.5l-.5-3.5z" fill="#646464"/></svg>
