<?xml version="1.0"?>
<svg xmlns="http://www.w3.org/2000/svg" xmlns:xlink="http://www.w3.org/1999/xlink" aria-hidden="true" width="1em" height="1em" viewBox="0 0 24 24" data-icon="mdi:virtual-reality" data-width="1em" data-height="1em" data-inline="false" class="iconify"><path d="M5 3a2 2 0 0 0-2 2v14c0 1.1.9 2 2 2h14c1.1 0 2-.9 2-2V5c0-1.1-.9-2-2-2H5m1 6h1.5l1 3.43L9.5 9H11l-1.75 6h-1.5L6 9m7 0h3.5c.85 0 1.5.65 1.5 1.5v1c0 .6-.4 1.15-.9 1.4L18 15h-1.5l-.85-2H14.5v2H13V9m1.5 1.5v1h2v-1h-2z" fill="#646464"/></svg>
