<?xml version="1.0"?>
<svg xmlns="http://www.w3.org/2000/svg" xmlns:xlink="http://www.w3.org/1999/xlink" aria-hidden="true" width="1em" height="1em" viewBox="0 0 24 24" data-icon="mdi:voice" data-width="1em" data-height="1em" data-inline="false" class="iconify"><path d="M9 5c2.21 0 4 1.79 4 4s-1.79 4-4 4-4-1.79-4-4 1.79-4 4-4m0 10c2.67 0 8 1.34 8 4v2H1v-2c0-2.66 5.33-4 8-4m7.76-9.64c2.02 2.2 2.02 5.25 0 7.27l-1.68-1.69c.84-1.18.84-2.71 0-3.89l1.68-1.69M20.07 2c3.93 4.05 3.9 10.11 0 14l-1.63-1.63c2.77-3.18 2.77-7.72 0-10.74L20.07 2z" fill="#646464"/></svg>
