<?xml version="1.0"?>
<svg xmlns="http://www.w3.org/2000/svg" xmlns:xlink="http://www.w3.org/1999/xlink" aria-hidden="true" width="1em" height="1em" viewBox="0 0 24 24" data-icon="mdi:vpn" data-width="1em" data-height="1em" data-inline="false" class="iconify"><path d="M9 5h6l-3 3-3-3m1.5 9.66c-.3.34-.5.84-.5 1.34 0 1.1.9 2 2 2s2-.9 2-2c0-.55-.22-1.05-.59-1.41l1.42-1.42C15.55 13.9 16 14.9 16 16c0 2.21-1.79 4-4 4a3.999 3.999 0 0 1-2.9-6.75l-.01-.01 7.08-7.07A3.99 3.99 0 0 1 19 5c2.21 0 4 1.79 4 4s-1.79 4-4 4c-1.1 0-2.1-.45-2.83-1.17l1.42-1.42c.36.37.86.59 1.41.59 1.1 0 2-.9 2-2s-.9-2-2-2c-.55 0-1.05.22-1.41.59l-7.09 7.07M6.41 7.59C6.05 7.22 5.55 7 5 7c-1.1 0-2 .9-2 2s.9 2 2 2c.55 0 1.05-.22 1.41-.59l1.42 1.42C7.1 12.55 6.1 13 5 13c-2.21 0-4-1.79-4-4s1.79-4 4-4c1.11 0 2.11.45 2.83 1.17l2.76 2.76-1.42 1.42-2.76-2.76z" fill="#646464"/></svg>
