<?xml version="1.0"?>
<svg xmlns="http://www.w3.org/2000/svg" xmlns:xlink="http://www.w3.org/1999/xlink" aria-hidden="true" width="1em" height="1em" viewBox="0 0 24 24" data-icon="mdi:watch-export-variant" data-width="1em" data-height="1em" data-inline="false" class="iconify"><path d="M14 11h5l-2.5-2.5 1.42-1.42L22.84 12l-4.92 4.92-1.42-1.42L19 13h-5v-2M8 0h8l.83 5H17c.28 0 .54.06.78.16L15.94 7H7v10h8.94l1.84 1.84c-.24.1-.5.16-.78.16h-.17L16 24H8l-.83-5H7c-1.1 0-2-.9-2-2V7a2 2 0 0 1 2-2h.17L8 0z" fill="#646464"/></svg>
