<?xml version="1.0"?>
<svg xmlns="http://www.w3.org/2000/svg" xmlns:xlink="http://www.w3.org/1999/xlink" aria-hidden="true" width="1em" height="1em" viewBox="0 0 24 24" data-icon="mdi:watch-import" data-width="1em" data-height="1em" data-inline="false" class="iconify"><path d="M2 11h5L4.5 8.5l1.42-1.42L10.84 12l-4.92 4.92L4.5 15.5 7 13H2v-2m10 7c3.31 0 6-2.69 6-6s-2.69-6-6-6c-1.4 0-2.69.5-3.71 1.29L6.87 5.87l.18-.14L8 0h8l.95 5.73A7.94 7.94 0 0 1 20 12c0 2.54-1.19 4.81-3.05 6.27L16 24H8l-.95-5.73-.18-.14 1.42-1.42C9.31 17.5 10.6 18 12 18z" fill="#646464"/></svg>
