<?xml version="1.0"?>
<svg xmlns="http://www.w3.org/2000/svg" xmlns:xlink="http://www.w3.org/1999/xlink" aria-hidden="true" width="1em" height="1em" viewBox="0 0 24 24" data-icon="mdi:watch-export" data-width="1em" data-height="1em" data-inline="false" class="iconify"><path d="M14 11h5l-2.5-2.5 1.42-1.42L22.84 12l-4.92 4.92-1.42-1.42L19 13h-5v-2m-2 7c-3.31 0-6-2.69-6-6s2.69-6 6-6c1.4 0 2.69.5 3.71 1.29l1.42-1.42-.18-.14L16 0H8l-.95 5.73A7.955 7.955 0 0 0 4 12a7.94 7.94 0 0 0 3.05 6.27L8 24h8l.95-5.73.18-.14-1.42-1.42A6.066 6.066 0 0 1 12 18z" fill="#646464"/></svg>
