<?xml version="1.0"?>
<svg xmlns="http://www.w3.org/2000/svg" xmlns:xlink="http://www.w3.org/1999/xlink" aria-hidden="true" width="1em" height="1em" viewBox="0 0 24 24" data-icon="mdi:watch-vibrate" data-width="1em" data-height="1em" data-inline="false" class="iconify"><path d="M3 17V7h2v10H3m16 0V7h2v10h-2m3-8h2v6h-2V9M0 15V9h2v6H0m17.96-3.03c0 1.9-.89 3.6-2.28 4.7l-.71 4.28H9l-.73-4.28A5.976 5.976 0 0 1 6 11.97c0-1.9.88-3.6 2.27-4.69L9 3h5.97l.71 4.28a5.95 5.95 0 0 1 2.28 4.69m-10.46 0c0 2.48 2 4.49 4.47 4.49 2.49 0 4.49-2 4.49-4.49 0-2.47-2.01-4.47-4.49-4.47-2.47 0-4.47 2-4.47 4.47z" fill="#646464"/></svg>
