<?xml version="1.0"?>
<svg xmlns="http://www.w3.org/2000/svg" xmlns:xlink="http://www.w3.org/1999/xlink" aria-hidden="true" width="1em" height="1em" viewBox="0 0 24 24" data-icon="mdi:water-pump" data-width="1em" data-height="1em" data-inline="false" class="iconify"><path d="M19 14.5s2 2.17 2 3.5c0 1.1-.9 2-2 2s-2-.9-2-2c0-1.33 2-3.5 2-3.5M5 18V9c-1.1 0-2-.9-2-2s.9-2 2-2V4c0-1.1.9-2 2-2h2c1.1 0 2 .9 2 2v1h8c1.1 0 2 .9 2 2v4c.55 0 1 .45 1 1s-.45 1-1 1h-4c-.55 0-1-.45-1-1s.45-1 1-1V9h-6v9h1c1.1 0 2 .9 2 2v2H2v-2c0-1.1.9-2 2-2h1z" fill="#646464"/></svg>
