<?xml version="1.0"?>
<svg xmlns="http://www.w3.org/2000/svg" xmlns:xlink="http://www.w3.org/1999/xlink" aria-hidden="true" width="1em" height="1em" viewBox="0 0 24 24" data-icon="mdi:water-percent" data-width="1em" data-height="1em" data-inline="false" class="iconify"><path d="M12 3.25S6 10 6 14c0 3.32 2.69 6 6 6s6-2.69 6-6c0-4-6-10.75-6-10.75m2.47 6.72l1.06 1.06-6 6-1.06-1.06M9.75 10a1.25 1.25 0 1 1 0 2.5 1.25 1.25 0 0 1 0-2.5m4.5 4.5a1.25 1.25 0 1 1 0 2.5 1.25 1.25 0 0 1 0-2.5z" fill="#646464"/></svg>
