<?xml version="1.0"?>
<svg xmlns="http://www.w3.org/2000/svg" xmlns:xlink="http://www.w3.org/1999/xlink" aria-hidden="true" width="1em" height="1em" viewBox="0 0 24 24" data-icon="mdi:weather-windy" data-width="1em" data-height="1em" data-inline="false" class="iconify"><path d="M4 10c-.55 0-1-.45-1-1s.45-1 1-1h8c1.1 0 2-.9 2-2s-.9-2-2-2c-.55 0-1.05.22-1.41.59a.973.973 0 0 1-1.42 0c-.39-.39-.39-1.03 0-1.42C9.9 2.45 10.9 2 12 2c2.21 0 4 1.79 4 4s-1.79 4-4 4H4m15 2c.55 0 1-.45 1-1a1.003 1.003 0 0 0-1.71-.71.996.996 0 0 1-1.41 0c-.38-.39-.38-1.02 0-1.41A2.996 2.996 0 0 1 22 11c0 1.66-1.34 3-3 3H5c-.55 0-1-.45-1-1s.45-1 1-1h14m-1 6H4c-.55 0-1-.45-1-1s.45-1 1-1h14c1.66 0 3 1.34 3 3a2.996 2.996 0 0 1-5.12 2.12c-.38-.39-.38-1.02 0-1.41a.996.996 0 0 1 1.41 0A1.003 1.003 0 0 0 19 19c0-.55-.45-1-1-1z" fill="#646464"/></svg>
