<?xml version="1.0"?>
<svg xmlns="http://www.w3.org/2000/svg" xmlns:xlink="http://www.w3.org/1999/xlink" aria-hidden="true" width="1em" height="1em" viewBox="0 0 24 24" data-icon="mdi:weather-cloudy" data-width="1em" data-height="1em" data-inline="false" class="iconify"><path d="M6 19c-2.76 0-5-2.24-5-5s2.24-5 5-5c1-2.35 3.3-4 6-4 3.43 0 6.24 2.66 6.5 6.03L19 11c2.21 0 4 1.79 4 4s-1.79 4-4 4H6m13-6h-2v-1a5.004 5.004 0 1 0-9.94-.81C6.73 11.07 6.37 11 6 11c-1.66 0-3 1.34-3 3s1.34 3 3 3h13c1.1 0 2-.9 2-2s-.9-2-2-2z" fill="#646464"/></svg>
