<?xml version="1.0"?>
<svg xmlns="http://www.w3.org/2000/svg" xmlns:xlink="http://www.w3.org/1999/xlink" aria-hidden="true" width="1em" height="1em" viewBox="0 0 24 24" data-icon="mdi:weather-windy-variant" data-width="1em" data-height="1em" data-inline="false" class="iconify"><path d="M6 6l.69.06A5.499 5.499 0 0 1 12 2c3.04 0 5.5 2.46 5.5 5.5l-.08.95c.46-.29 1-.45 1.58-.45 1.66 0 3 1.34 3 3s-1.34 3-3 3H6c-2.21 0-4-1.79-4-4s1.79-4 4-4m0 2c-1.1 0-2 .9-2 2s.9 2 2 2h13c.55 0 1-.45 1-1s-.45-1-1-1h-3.5V7.5C15.5 5.57 13.93 4 12 4S8.5 5.57 8.5 7.5V8H6m12 10H4c-.55 0-1-.45-1-1s.45-1 1-1h14c1.66 0 3 1.34 3 3a2.996 2.996 0 0 1-5.12 2.12c-.38-.39-.38-1.02 0-1.41a.996.996 0 0 1 1.41 0A1.003 1.003 0 0 0 19 19c0-.55-.45-1-1-1z" fill="#646464"/></svg>
