<?xml version="1.0"?>
<svg xmlns="http://www.w3.org/2000/svg" xmlns:xlink="http://www.w3.org/1999/xlink" aria-hidden="true" width="1em" height="1em" viewBox="0 0 24 24" data-icon="mdi:weather-sunset-up" data-width="1em" data-height="1em" data-inline="false" class="iconify"><path d="M3 12h4c0-2.76 2.24-5 5-5s5 2.24 5 5h4c.55 0 1 .45 1 1s-.45 1-1 1H3c-.55 0-1-.45-1-1s.45-1 1-1m12 0c0-1.66-1.34-3-3-3s-3 1.34-3 3h6M12 2l2.39 3.42C13.65 5.15 12.84 5 12 5c-.84 0-1.65.15-2.39.42L12 2M3.34 7l4.16-.35A7.2 7.2 0 0 0 5.94 8.5c-.44.74-.69 1.5-.83 2.29L3.34 7m17.31 0l-1.77 3.79a7.023 7.023 0 0 0-2.38-4.15l4.15.36m-7.94 9.3l3.11 3.11a.996.996 0 1 1-1.41 1.41L12 18.41l-2.41 2.41a.996.996 0 1 1-1.41-1.41l3.11-3.11c.21-.2.45-.3.71-.3.26 0 .5.1.71.3z" fill="#646464"/></svg>
