<?xml version="1.0"?>
<svg xmlns="http://www.w3.org/2000/svg" xmlns:xlink="http://www.w3.org/1999/xlink" aria-hidden="true" width="1em" height="1em" viewBox="0 0 24 24" data-icon="mdi:weather-rainy" data-width="1em" data-height="1em" data-inline="false" class="iconify"><path d="M6 14c.55 0 1 .45 1 1s-.45 1-1 1c-2.76 0-5-2.24-5-5s2.24-5 5-5c1-2.35 3.3-4 6-4 3.43 0 6.24 2.66 6.5 6.03L19 8c2.21 0 4 1.79 4 4s-1.79 4-4 4h-1c-.55 0-1-.45-1-1s.45-1 1-1h1c1.1 0 2-.9 2-2s-.9-2-2-2h-2V9a5.004 5.004 0 1 0-9.94-.81C6.73 8.07 6.37 8 6 8c-1.66 0-3 1.34-3 3s1.34 3 3 3m8.83 1.67c1.56 1.56 1.56 3.83 0 5.41-.78.78-1.83.92-2.83.92s-2.05-.14-2.83-.92c-1.56-1.58-1.56-3.85 0-5.41L12 11l2.83 4.67m-1.42 1.02L12 14.25l-1.41 2.44c-.79.81-.79 2.01 0 2.81.41.43.91.5 1.41.5.5 0 1-.07 1.41-.5.79-.8.79-2 0-2.81z" fill="#646464"/></svg>
