<?xml version="1.0"?>
<svg xmlns="http://www.w3.org/2000/svg" xmlns:xlink="http://www.w3.org/1999/xlink" aria-hidden="true" width="1em" height="1em" viewBox="0 0 24 24" data-icon="mdi:weather-snowy-rainy" data-width="1em" data-height="1em" data-inline="false" class="iconify"><path d="M18.5 18.67c0 1.29-1 2.33-2.25 2.33S14 19.96 14 18.67c0-1.55 2.25-4.17 2.25-4.17s2.25 2.62 2.25 4.17M4 17.36c-.14-.54.18-1.11.73-1.25L7 15.5l-1.67-1.64c-.4-.4-.4-1.05 0-1.46.4-.4 1.07-.4 1.46 0l1.66 1.65.59-2.25c.14-.56.71-.88 1.25-.73.56.14.88.71.71 1.26l-.58 2.25 2.25-.58a.99.99 0 0 1 1.26.71c.15.54-.17 1.11-.73 1.25l-2.25.59 1.65 1.66c.4.39.4 1.06 0 1.46-.4.4-1.06.4-1.45 0L9.5 18l-.61 2.27c-.14.56-.71.87-1.25.73-.56-.14-.87-.71-.73-1.26l.59-2.24-2.24.59c-.55.14-1.12-.17-1.26-.73M1 11c0-2.76 2.24-5 5-5 1-2.35 3.3-4 6-4 3.43 0 6.24 2.66 6.5 6.03L19 8c2.21 0 4 1.79 4 4s-1.79 4-4 4c-.55 0-1-.45-1-1s.45-1 1-1c1.1 0 2-.9 2-2s-.9-2-2-2h-2V9a5.004 5.004 0 1 0-9.94-.81C6.73 8.07 6.37 8 6 8c-1.66 0-3 1.34-3 3 0 .85.35 1.61.91 2.16.36.39.35 1-.03 1.38a.996.996 0 0 1-1.41 0A4.988 4.988 0 0 1 1 11z" fill="#646464"/></svg>
