<?xml version="1.0"?>
<svg xmlns="http://www.w3.org/2000/svg" xmlns:xlink="http://www.w3.org/1999/xlink" aria-hidden="true" width="1em" height="1em" viewBox="0 0 24 24" data-icon="mdi:weather-fog" data-width="1em" data-height="1em" data-inline="false" class="iconify"><path d="M3 15h10c.55 0 1 .45 1 1s-.45 1-1 1H3c-.55 0-1-.45-1-1s.45-1 1-1m13 0h5c.55 0 1 .45 1 1s-.45 1-1 1h-5c-.55 0-1-.45-1-1s.45-1 1-1M1 12c0-2.76 2.24-5 5-5 1-2.35 3.3-4 6-4 3.43 0 6.24 2.66 6.5 6.03L19 9c2.19 0 3.97 1.76 4 4h-2c0-1.1-.9-2-2-2h-2v-1a5.004 5.004 0 1 0-9.94-.81C6.73 9.07 6.37 9 6 9c-1.66 0-3 1.34-3 3a3 3 0 0 0 .17 1H1.1L1 12m2 7h2c.55 0 1 .45 1 1s-.45 1-1 1H3c-.55 0-1-.45-1-1s.45-1 1-1m5 0h13c.55 0 1 .45 1 1s-.45 1-1 1H8c-.55 0-1-.45-1-1s.45-1 1-1z" fill="#646464"/></svg>
