<?xml version="1.0"?>
<svg xmlns="http://www.w3.org/2000/svg" xmlns:xlink="http://www.w3.org/1999/xlink" aria-hidden="true" width="1em" height="1em" viewBox="0 0 24 24" data-icon="mdi:weather-partlycloudy" data-width="1em" data-height="1em" data-inline="false" class="iconify"><path d="M12.74 5.47c2.36 1.03 3.61 3.56 3.18 5.99A6.002 6.002 0 0 1 18 16v.17a3 3 0 0 1 1-.17c1.66 0 3 1.34 3 3s-1.34 3-3 3H6c-2.21 0-4-1.79-4-4s1.79-4 4-4h.27C5 12.45 4.6 10.24 5.5 8.26a5.49 5.49 0 0 1 7.24-2.79m-.81 1.83c-1.77-.8-3.84.01-4.62 1.77-.46 1.02-.38 2.15.1 3.06A5.988 5.988 0 0 1 12 10c.7 0 1.38.12 2 .34a3.506 3.506 0 0 0-2.07-3.04m1.62-3.66c-.55-.24-1.1-.41-1.67-.52l2.49-1.3.9 2.89a7.67 7.67 0 0 0-1.72-1.07m-7.46.8c-.49.35-.92.75-1.29 1.19l.11-2.81 2.96.68c-.62.21-1.22.53-1.78.94M18 9.71c-.09-.59-.22-1.16-.41-1.71l2.38 1.5-2.05 2.23c.11-.65.13-1.33.08-2.02M3.04 11.3c.07.6.2 1.17.39 1.7l-2.37-1.5L3.1 9.28c-.1.65-.13 1.33-.06 2.02M19 18h-3v-2c0-2.21-1.79-4-4-4s-4 1.79-4 4H6c-1.1 0-2 .9-2 2s.9 2 2 2h13c.55 0 1-.45 1-1s-.45-1-1-1z" fill="#646464"/></svg>
