<?xml version="1.0"?>
<svg xmlns="http://www.w3.org/2000/svg" xmlns:xlink="http://www.w3.org/1999/xlink" aria-hidden="true" width="1em" height="1em" viewBox="0 0 24 24" data-icon="mdi:weather-pouring" data-width="1em" data-height="1em" data-inline="false" class="iconify"><path d="M9 12c.53.14.85.69.71 1.22l-1.3 4.83c-.14.54-.69.85-1.22.71a.967.967 0 0 1-.69-1.22l1.28-4.83c.14-.54.69-.85 1.22-.71m4 0c.53.14.85.69.71 1.22l-2.07 7.73c-.14.55-.69.85-1.23.71-.53-.16-.85-.69-.71-1.23l2.08-7.72c.14-.54.69-.85 1.22-.71m4 0c.53.14.85.69.71 1.22l-1.3 4.83c-.14.54-.69.85-1.22.71a.967.967 0 0 1-.69-1.22l1.28-4.83c.14-.54.69-.85 1.22-.71m0-2V9a5.004 5.004 0 1 0-9.94-.81C6.73 8.07 6.37 8 6 8c-1.66 0-3 1.34-3 3 0 1.11.6 2.08 1.5 2.6v-.01c.5.28.64.91.37 1.37-.28.47-.87.64-1.37.36v.01A4.98 4.98 0 0 1 1 11c0-2.76 2.24-5 5-5 1-2.35 3.3-4 6-4 3.43 0 6.24 2.66 6.5 6.03L19 8c2.21 0 4 1.79 4 4 0 1.5-.8 2.77-2 3.46-.5.27-1.09.11-1.37-.37-.27-.48-.13-1.09.37-1.37v.01c.6-.34 1-.99 1-1.73 0-1.1-.9-2-2-2h-2z" fill="#646464"/></svg>
