<?xml version="1.0"?>
<svg xmlns="http://www.w3.org/2000/svg" xmlns:xlink="http://www.w3.org/1999/xlink" aria-hidden="true" width="1em" height="1em" viewBox="0 0 24 24" data-icon="mdi:weather-lightning-rainy" data-width="1em" data-height="1em" data-inline="false" class="iconify"><path d="M4.5 13.59c.5.28.64.91.37 1.37-.28.48-.87.64-1.37.37A4.98 4.98 0 0 1 1 11c0-2.76 2.24-5 5-5 1-2.35 3.3-4 6-4 3.43 0 6.24 2.66 6.5 6.03L19 8c2.21 0 4 1.79 4 4s-1.79 4-4 4c-.55 0-1-.45-1-1s.45-1 1-1c1.1 0 2-.9 2-2s-.9-2-2-2h-2V9a5.004 5.004 0 1 0-9.94-.81C6.73 8.07 6.37 8 6 8c-1.66 0-3 1.34-3 3 0 1.11.6 2.08 1.5 2.6v-.01m5-2.59h3l-2 4h2l-3.75 7 .75-5H7l2.5-6m8 7.67c0 1.29-1 2.33-2.25 2.33S13 19.96 13 18.67c0-1.55 2.25-4.17 2.25-4.17s2.25 2.62 2.25 4.17z" fill="#646464"/></svg>
