<?xml version="1.0"?>
<svg xmlns="http://www.w3.org/2000/svg" xmlns:xlink="http://www.w3.org/1999/xlink" aria-hidden="true" width="1em" height="1em" viewBox="0 0 24 24" data-icon="mdi:webcam" data-width="1em" data-height="1em" data-inline="false" class="iconify"><path d="M12 2c3.87 0 7 3.13 7 7s-3.13 7-7 7-7-3.13-7-7 3.13-7 7-7m0 2C9.24 4 7 6.24 7 9s2.24 5 5 5 5-2.24 5-5-2.24-5-5-5m0 2c1.66 0 3 1.34 3 3s-1.34 3-3 3-3-1.34-3-3 1.34-3 3-3M6 22c-1.1 0-2-.9-2-2 0-.38.1-.73.29-1.03l1.82-3.16A9.007 9.007 0 0 0 12 18c2.25 0 4.31-.83 5.89-2.19l1.82 3.16c.19.3.29.65.29 1.03 0 1.1-.9 2-2 2H6z" fill="#646464"/></svg>
