<?xml version="1.0"?>
<svg xmlns="http://www.w3.org/2000/svg" xmlns:xlink="http://www.w3.org/1999/xlink" aria-hidden="true" width="1em" height="1em" viewBox="0 0 24 24" data-icon="mdi:weight-pound" data-width="1em" data-height="1em" data-inline="false" class="iconify"><path d="M12 3c2.21 0 4 1.79 4 4 0 .73-.19 1.41-.54 2H18c.95 0 1.75.67 1.95 1.56C21.96 18.57 22 18.78 22 19c0 1.1-.9 2-2 2H4c-1.1 0-2-.9-2-2 0-.22.04-.43 2.05-8.44C4.25 9.67 5.05 9 6 9h2.54A3.89 3.89 0 0 1 8 7c0-2.21 1.79-4 4-4m0 2c-1.1 0-2 .9-2 2s.9 2 2 2 2-.9 2-2-.9-2-2-2m-6 6v8h5v-2H8v-6H6m7 0v8h3c1.11 0 2-.89 2-2v-.5c0-.57-.25-1.12-.68-1.5.43-.38.68-.93.68-1.5V13c0-1.11-.89-2-2-2h-3m2 2h1v1h-1v-1m0 3h1v1h-1v-1z" fill="#646464"/></svg>
