<?xml version="1.0"?>
<svg xmlns="http://www.w3.org/2000/svg" xmlns:xlink="http://www.w3.org/1999/xlink" aria-hidden="true" width="1em" height="1em" viewBox="0 0 24 24" data-icon="mdi:white-balance-incandescent" data-width="1em" data-height="1em" data-inline="false" class="iconify"><path d="M17.24 18.15l1.8 1.8 1.41-1.42-1.79-1.79M20 12.5h3v-2h-3m-5-4.19V1.5H9v4.81C7.21 7.35 6 9.28 6 11.5c0 3.31 2.69 6 6 6s6-2.69 6-6c0-2.22-1.21-4.15-3-5.19M4 10.5H1v2h3m7 9.95h2V19.5h-2m-7.45-.97l1.41 1.42 1.8-1.8-1.42-1.41-1.79 1.79z" fill="#646464"/></svg>
