<?xml version="1.0"?>
<svg xmlns="http://www.w3.org/2000/svg" xmlns:xlink="http://www.w3.org/1999/xlink" aria-hidden="true" width="1em" height="1em" viewBox="0 0 24 24" data-icon="mdi:white-balance-sunny" data-width="1em" data-height="1em" data-inline="false" class="iconify"><path d="M3.55 18.54l1.41 1.41 1.8-1.79-1.42-1.42M11 22.45h2V19.5h-2m1-14c-3.31 0-6 2.69-6 6s2.69 6 6 6 6-2.69 6-6c0-3.32-2.69-6-6-6m8 7h3v-2h-3m-2.76 7.66l1.8 1.79 1.41-1.41-1.79-1.8m1.79-12.28l-1.41-1.41-1.8 1.79 1.42 1.42M13 .55h-2V3.5h2m-9 7H1v2h3m2.76-7.66l-1.8-1.79-1.41 1.41 1.79 1.8 1.42-1.42z" fill="#646464"/></svg>
