<?xml version="1.0"?>
<svg xmlns="http://www.w3.org/2000/svg" xmlns:xlink="http://www.w3.org/1999/xlink" aria-hidden="true" width="1em" height="1em" viewBox="0 0 24 24" data-icon="mdi:wifi-strength-1-alert" data-width="1em" data-height="1em" data-inline="false" class="iconify"><path d="M12 3C7.79 3 3.7 4.41.38 7 4.41 12.06 7.89 16.37 12 21.5c2.45-3.05 4.68-5.82 7-8.72V9.59l-3.39 4.22A8.432 8.432 0 0 0 12 13c-1.25 0-2.5.28-3.61.8L3.27 7.44C5.91 5.85 8.93 5 12 5c3.07 0 6.09.86 8.71 2.45l-.44.55h2.57c.25-.3.57-.71.81-1C20.32 4.41 16.22 3 12 3m9 7v8h2v-8m-2 10v2h2v-2" fill="#646464"/></svg>
