<?xml version="1.0"?>
<svg xmlns="http://www.w3.org/2000/svg" xmlns:xlink="http://www.w3.org/1999/xlink" aria-hidden="true" width="1em" height="1em" viewBox="0 0 24 24" data-icon="mdi:wiper" data-width="1em" data-height="1em" data-inline="false" class="iconify"><path d="M12 4C5 4 2 9 2 9l7 7s.5-.9 1.4-1.5l.3 2c-.4.3-.7.9-.7 1.5 0 1.1.9 2 2 2s2-.9 2-2c0-.9-.5-1.6-1.3-1.9l-.4-2.1c1.8.2 2.7 2 2.7 2l7-7s-3-5-10-5m3.1 9.1c-.8-.6-1.8-1.1-3.1-1.1l-1-5.9c.3-.1.7-.1 1-.1 3.7 0 6.1 1.7 7.3 2.9l-4.2 4.2m-6.2 0L4.7 8.9C5.5 8 7 7 9 6.4l1 6c-.4.2-.8.4-1.1.7z" fill="#646464"/></svg>
