<?xml version="1.0"?>
<svg xmlns="http://www.w3.org/2000/svg" xmlns:xlink="http://www.w3.org/1999/xlink" aria-hidden="true" width="1em" height="1em" viewBox="0 0 24 24" data-icon="mdi:wunderlist" data-width="1em" data-height="1em" data-inline="false" class="iconify"><path d="M17 17.5L12 15l-5 2.5V5H5v14h14V5h-2v12.5m-5-5.08l2.25 1.35-.6-2.55 1.99-1.72L13 9.27l-1-2.41-1 2.41-2.64.23 1.99 1.72-.6 2.55L12 12.42M5 3h14c1.1 0 2 .9 2 2v14c0 1.1-.9 2-2 2H5c-1.1 0-2-.9-2-2V5c0-1.1.9-2 2-2z" fill="#646464"/></svg>
