<?xml version="1.0"?>
<svg xmlns="http://www.w3.org/2000/svg" xmlns:xlink="http://www.w3.org/1999/xlink" aria-hidden="true" width="1em" height="1em" viewBox="0 0 24 24" data-icon="mdi:xbox-controller-battery-unknown" data-width="1em" data-height="1em" data-inline="false" class="iconify"><path d="M21.67 5C22.4 5 23 5.6 23 6.33v13.34c0 .73-.6 1.33-1.33 1.33h-7.34c-.73 0-1.33-.6-1.33-1.33v-2.92H7.75C5.75 16.75 5 19 3 20c-2 0-3.5-3 .5-11.5h.25l.44-.83S7 6 8.33 7.23H13v-.9C13 5.6 13.6 5 14.33 5H16V3h4v2h1.67M11 8c-.55 0-1 .45-1 1s.45 1 1 1 1-.45 1-1-.45-1-1-1m7.19 0c-.87 0-1.57.2-2.11.59-.52.41-.78.98-.77 1.77l.01.03h1.93c.01-.3.1-.53.28-.69a1 1 0 0 1 .66-.23c.31 0 .57.1.75.28.18.19.26.45.26.75 0 .32-.07.59-.23.82-.14.23-.35.43-.61.59-.51.34-.86.64-1.05.91-.2.26-.31.68-.31 1.18h2c0-.31.04-.56.13-.74.09-.18.26-.36.51-.52.45-.24.82-.53 1.11-.93.29-.4.44-.81.44-1.31 0-.76-.27-1.37-.81-1.82-.53-.45-1.26-.68-2.19-.68M17 15v2h2v-2h-2z" fill="#646464"/></svg>
