<?xml version="1.0"?>
<svg xmlns="http://www.w3.org/2000/svg" xmlns:xlink="http://www.w3.org/1999/xlink" aria-hidden="true" width="1em" height="1em" viewBox="0 0 24 24" data-icon="mdi:xbox-controller-battery-alert" data-width="1em" data-height="1em" data-inline="false" class="iconify"><path d="M21 19V7h-6v12h6m.67-14C22.4 5 23 5.6 23 6.33v13.34c0 .73-.6 1.33-1.33 1.33h-7.34c-.73 0-1.33-.6-1.33-1.33v-2.92H7.75C5.75 16.75 5 19 3 20c-2 0-3.5-3 .5-11.5h.25l.44-.83S7 6 8.33 7.23H13v-.9C13 5.6 13.6 5 14.33 5H16V3h4v2h1.67M11 8c-.55 0-1 .45-1 1s.45 1 1 1 1-.45 1-1-.45-1-1-1m6 1h2v5h-2V9m0 6h2v2h-2v-2z" fill="#646464"/></svg>
