<?xml version="1.0"?>
<svg xmlns="http://www.w3.org/2000/svg" xmlns:xlink="http://www.w3.org/1999/xlink" aria-hidden="true" width="1em" height="1em" viewBox="0 0 24 24" data-icon="mdi:xbox-controller" data-width="1em" data-height="1em" data-inline="false" class="iconify"><path d="M8.75 15.75C6.75 15.75 6 18 4 19c-2 0-3.5-3 .5-11.5h.25l.44-.83S8 5 9.33 6.23h5.34c1.33-1.23 4.14.44 4.14.44l.44.83h.25C23.5 16 22 19 20 19c-2-1-2.75-3.25-4.75-3.25h-6.5M12 7c-.55 0-1 .45-1 1s.45 1 1 1 1-.45 1-1-.45-1-1-1z" fill="#646464"/></svg>
