<?xml version="1.0"?>
<svg xmlns="http://www.w3.org/2000/svg" xmlns:xlink="http://www.w3.org/1999/xlink" aria-hidden="true" width="1em" height="1em" viewBox="0 0 24 24" data-icon="mdi:xda" data-width="1em" data-height="1em" data-inline="false" class="iconify"><path d="M-.05 16.79l3.24-3.82-3.24-3.82L1.5 7.86l3 3.55 3-3.55 1.55 1.29-3.24 3.82 3.24 3.82-1.55 1.28-3-3.57-3 3.57-1.55-1.28M24 17c0 .55-.45 1-1 1h-3c-1.1 0-2-.9-2-2v-2c0-1.1.9-2 2-2h2v-2h-4V8h5c.55 0 1 .45 1 1m-2 5h-2v2h2v-2m-6 3c0 .55-.45 1-1 1h-3c-1.1 0-2-.9-2-2v-6c0-1.1.9-2 2-2h2V5h2v12m-2-1v-6h-2v6h2z" fill="#646464"/></svg>
