<?xml version="1.0"?>
<svg xmlns="http://www.w3.org/2000/svg" xmlns:xlink="http://www.w3.org/1999/xlink" aria-hidden="true" width="1em" height="1em" viewBox="0 0 24 24" data-icon="mdi:yahoo" data-width="1em" data-height="1em" data-inline="false" class="iconify"><path d="M12.03 3.36C8.5 3.36 5.15 2.9 2 2v20c3.15-.9 6.5-1.36 10.03-1.36 3.47 0 6.82.45 9.97 1.36V2c-3.15.91-6.5 1.36-9.97 1.36m.81 9.68l.13 5.88-.97-.13c-.09 0-.81.1-1 .14l.16-5.89c-.28-.5-4.49-7.6-4.72-7.97l1.06.18c.33 0 .62-.04 1-.08.53.98 3.38 5.66 3.5 5.86 0 0 2.97-4.88 3.61-5.9.27.08.56.12.89.12.28 0 .57-.04 1.07-.18l-4.73 7.97z" fill="#646464"/></svg>
