<?xml version="1.0"?>
<svg xmlns="http://www.w3.org/2000/svg" xmlns:xlink="http://www.w3.org/1999/xlink" aria-hidden="true" width="1em" height="1em" viewBox="0 0 24 24" data-icon="mdi:yammer" data-width="1em" data-height="1em" data-inline="false" class="iconify"><path d="M13.54 5.93L9.18 17.11c-.02.08-.92 2.54-3.95 2.54-.55 0-1-.45-1-1 0-.56.45-1 1-1 1.56 0 2.03-1.12 2.08-1.24l.37-1.01-3.86-9.46c-.2-.51.04-1.1.55-1.3a1 1 0 0 1 1.31.55l3.07 7.53 2.93-7.52c.2-.52.78-.77 1.32-.57.5.2.75.78.54 1.3m4.96.45c-.18 0-.37.07-.5.19 0 0-4.2 2.99-4 3.31.19.32 4.83-1.85 4.84-1.88.31-.1.54-.41.54-.77 0-.47-.38-.85-.88-.85m.77 10.46c-.1-.17-.27-.3-.44-.38 0 0-4.66-2.17-4.83-1.85-.19.33 4 3.31 4 3.31.25.22.63.26.94.08.41-.23.56-.75.33-1.16m1.7-5.42c-.18-.1-.37-.13-.57-.1 0 0-5.11.53-5.1.9.01.37 5.11.78 5.12.78.34.05.69-.1.87-.42.21-.41.09-.93-.32-1.16z" fill="#646464"/></svg>
