<?xml version="1.0"?>
<svg xmlns="http://www.w3.org/2000/svg" xmlns:xlink="http://www.w3.org/1999/xlink" aria-hidden="true" width="1em" height="1em" viewBox="0 0 24 24" data-icon="mdi:yeast" data-width="1em" data-height="1em" data-inline="false" class="iconify"><path d="M18 14c2.21 0 4 1.79 4 4s-1.79 4-4 4-4-1.79-4-4l.09-.85c-.04-.7-.17-1.31-.54-1.65-.2-.2-.48-.31-.8-.37a6.5 6.5 0 1 1 2.38-2.38c.06.32.17.6.37.8.34.37.95.5 1.65.54L18 14M7.5 10c.83 0 1.5.67 1.5 1.5S8.33 13 7.5 13 6 12.33 6 11.5 6.67 10 7.5 10m2-5C7 5 5 7 5 9.5S7 14 9.5 14 14 12 14 9.5 12 5 9.5 5z" fill="#646464"/></svg>
