<?xml version="1.0"?>
<svg xmlns="http://www.w3.org/2000/svg" xmlns:xlink="http://www.w3.org/1999/xlink" aria-hidden="true" width="1em" height="1em" viewBox="0 0 24 24" data-icon="mdi:youtube-tv" data-width="1em" data-height="1em" data-inline="false" class="iconify"><path d="M2.5 4.5h19c.84 0 1.5.65 1.5 1.5v11.5c0 .85-.66 1.5-1.5 1.5h-19c-.85 0-1.5-.65-1.5-1.5V6c0-.85.65-1.5 1.5-1.5m7.21 4V15l5.71-3.3-5.71-3.2M17.25 21H6.65c-.3 0-.5-.2-.5-.5s.2-.5.5-.5h10.7c.3 0 .5.2.5.5s-.3.5-.6.5z" fill="#646464"/></svg>
