<?xml version="1.0"?>
<svg xmlns="http://www.w3.org/2000/svg" xmlns:xlink="http://www.w3.org/1999/xlink" aria-hidden="true" width="1em" height="1em" viewBox="0 0 24 24" data-icon="mdi:youtube-gaming" data-width="1em" data-height="1em" data-inline="false" class="iconify"><path d="M6 3.54c-.19 0-.37.08-.54.17L.55 6.5c-.34.2-.55.56-.55.95v6.23c0 .39.21.75.55.95l10.91 6.2c.17.09.35.17.54.17.19 0 .37-.08.54-.17l10.91-6.2c.34-.19.55-.55.55-.94V7.45c0-.39-.21-.75-.55-.95l-4.91-2.79c-.17-.09-.35-.17-.54-.17-.19 0-.37.08-.54.17L12.54 6.5c-.33.2-.74.2-1.08 0L6.54 3.71c-.17-.09-.35-.17-.54-.17m12.14.55l5.32 3-5.32 3.14V4.09z" fill="#646464"/></svg>
