<?xml version="1.0"?>
<svg xmlns="http://www.w3.org/2000/svg" xmlns:xlink="http://www.w3.org/1999/xlink" aria-hidden="true" width="1em" height="1em" viewBox="0 0 24 24" data-icon="mdi:zodiac-scorpio" data-width="1em" data-height="1em" data-inline="false" class="iconify"><path d="M17.71 15.29l-1.42 1.42 1.3 1.29H16c-1.1 0-2-.9-2-2V6c0-1.66-1.34-3-3-3-.75 0-1.45.29-2 .78a2.997 2.997 0 0 0-4 0C4.45 3.28 3.74 3 3 3v2c.55 0 1 .45 1 1v10h2V6c0-.55.45-1 1-1s1 .45 1 1v10h2V6c0-.55.45-1 1-1s1 .45 1 1v10c0 2.21 1.79 4 4 4h1.59l-1.3 1.29 1.42 1.42 3.7-3.71-3.7-3.71z" fill="#646464"/></svg>
