<?xml version="1.0"?>
<svg xmlns="http://www.w3.org/2000/svg" xmlns:xlink="http://www.w3.org/1999/xlink" aria-hidden="true" width="1em" height="1em" viewBox="0 0 24 24" data-icon="mdi:zodiac-libra" data-width="1em" data-height="1em" data-inline="false" class="iconify"><path d="M20 16v2h-7v-2.09c3-.55 4.96-3.41 4.41-6.41-.55-3-3.41-4.96-6.41-4.41-3 .56-4.96 3.41-4.41 6.41.41 2.24 2.17 4 4.41 4.41V18H4v-2h2.92a7.428 7.428 0 0 1-2.42-5.5C4.5 6.36 7.86 3 12 3c4.14 0 7.5 3.36 7.5 7.5 0 2.09-.87 4.09-2.42 5.5H20m0 3H4v2h16v-2z" fill="#646464"/></svg>
