<?xml version="1.0"?>
<svg xmlns="http://www.w3.org/2000/svg" xmlns:xlink="http://www.w3.org/1999/xlink" aria-hidden="true" width="1em" height="1em" viewBox="0 0 24 24" data-icon="mdi:zodiac-leo" data-width="1em" data-height="1em" data-inline="false" class="iconify"><path d="M20 17c0 1.66-1.34 3-3 3a3.163 3.163 0 0 1-3-3c.16-1.61.5-3.2 1-4.74.54-1.71.87-3.47 1-5.26a5.136 5.136 0 0 0-5-5 5.136 5.136 0 0 0-5 5c.15 1.53.5 3.03 1 4.5l.21.7c-2.11-.67-4.35.5-5.02 2.6-.69 2.11.49 4.36 2.6 5.03 2.11.67 4.35-.5 5.02-2.61.13-.39.19-.81.19-1.22-.16-1.73-.5-3.44-1.09-5.08A18.76 18.76 0 0 1 8 7a3.163 3.163 0 0 1 3-3c1.62.08 2.92 1.38 3 3a22.6 22.6 0 0 1-1 4.74c-.54 1.71-.87 3.47-1 5.26a5.136 5.136 0 0 0 5 5c2.76 0 5-2.24 5-5h-2M6 18c-1.1 0-2-.9-2-2s.9-2 2-2 2 .9 2 2-.9 2-2 2z" fill="#646464"/></svg>
