<?xml version="1.0"?>
<svg xmlns="http://www.w3.org/2000/svg" xmlns:xlink="http://www.w3.org/1999/xlink" aria-hidden="true" width="1em" height="1em" viewBox="0 0 24 24" data-icon="mdi:zodiac-aries" data-width="1em" data-height="1em" data-inline="false" class="iconify"><path d="M16 2c-1.05 0-2.09.27-3 .81-.36.19-.7.45-1 .73-.3-.28-.64-.54-1-.73C10.09 2.27 9.05 2 8 2 4.69 2 2 4.69 2 8s2.69 6 6 6v-2c-2.21 0-4-1.79-4-4s1.79-4 4-4a4.029 4.029 0 0 1 3 1.36V22h2V5.36c.08-.09.16-.18.25-.26a4 4 0 0 1 5.66.15 3.997 3.997 0 0 1-.15 5.65C18 11.61 17.03 12 16 12v2c3.31 0 6-2.69 6-6s-2.69-6-6-6z" fill="#646464"/></svg>
