<?xml version="1.0"?>
<svg xmlns="http://www.w3.org/2000/svg" xmlns:xlink="http://www.w3.org/1999/xlink" aria-hidden="true" width="1em" height="1em" viewBox="0 0 24 24" data-icon="mdi:zodiac-capricorn" data-width="1em" data-height="1em" data-inline="false" class="iconify"><path d="M15 13c-.7 0-1.39.19-2 .55V6c0-1.66-1.34-3-3-3-.75 0-1.45.29-2 .78C7.45 3.28 6.74 3 6 3v2c.55 0 1 .45 1 1v10h2V6c0-.55.45-1 1-1s1 .45 1 1v11c0 1.1-.9 2-2 2v2c1.15 0 2.25-.5 3-1.38a3.974 3.974 0 0 0 5.64.38c1.67-1.42 1.86-3.95.4-5.62A4.01 4.01 0 0 0 15 13m0 6c-1.1 0-2-.9-2-2s.9-2 2-2 2 .9 2 2-.9 2-2 2z" fill="#646464"/></svg>
