<?xml version="1.0"?>
<svg xmlns="http://www.w3.org/2000/svg" xmlns:xlink="http://www.w3.org/1999/xlink" aria-hidden="true" width="1em" height="1em" viewBox="0 0 24 24" data-icon="mdi:zodiac-taurus" data-width="1em" data-height="1em" data-inline="false" class="iconify"><path d="M15.59 9A6.996 6.996 0 0 0 19 3h-2c0 2.76-2.24 5-5 5S7 5.76 7 3H5c0 2.46 1.3 4.74 3.41 6C5.09 11 4 15.28 6 18.6c1.97 3.32 6.27 4.4 9.59 2.4 3.32-1.96 4.41-6.26 2.41-9.58A6.896 6.896 0 0 0 15.59 9M12 20c-2.76 0-5-2.24-5-5s2.24-5 5-5 5 2.24 5 5-2.24 5-5 5z" fill="#646464"/></svg>
