<?xml version="1.0"?>
<svg xmlns="http://www.w3.org/2000/svg" xmlns:xlink="http://www.w3.org/1999/xlink" aria-hidden="true" width="1em" height="1em" viewBox="0 0 24 24" data-icon="mdi:zodiac-virgo" data-width="1em" data-height="1em" data-inline="false" class="iconify"><path d="M18.5 19.13C20 17.77 20 15.18 20 14c0-2.21-1.79-4-4-4-.7 0-1.4.2-2 .56V6c0-1.66-1.34-3-3-3-.75 0-1.45.29-2 .78a2.997 2.997 0 0 0-4 0C4.45 3.28 3.74 3 3 3v2c.55 0 1 .45 1 1v10h2V6c0-.55.45-1 1-1s1 .45 1 1v10h2V6c0-.55.45-1 1-1s1 .45 1 1v8c0 1.18 0 3.77 1.5 5.13-.78.41-1.62.71-2.5.87v2c1.29 0 3.84-1.26 5-1.87 1.16.61 3.71 1.87 5 1.87v-2c-.88-.16-1.72-.46-2.5-.87M16 12c1.1 0 2 .9 2 2 0 2.92-.54 4-2 4s-2-1.08-2-4c0-1.1.9-2 2-2z" fill="#646464"/></svg>
