<!-- Generated by IcoMoon.io -->
<svg version="1.1" xmlns="http://www.w3.org/2000/svg" width="512" height="512" viewBox="0 0 512 512">
<title></title>
<g id="icomoon-ignore">
</g>
<path d="M505.733 475.6l-42.534-42.534c0 0-0.134-0.134-0.134-0.134l-121.733-121.733c-0.134-0.134-0.4-0.4-0.534-0.534l-197.733-197.733c0 0 0 0-0.133-0.133l-106.666-106.666c-8.267-8.267-21.866-8.267-30.134 0s-8.267 21.866 0 30.133l70.4 70.4h-12.534c-35.334 0-64 28.666-64 64v234.666c0 35.334 28.666 64 64 64h375.2l36.4 36.4c4.134 4.134 9.6 6.267 15.067 6.267s10.933-2.134 15.067-6.267c8.4-8.267 8.4-21.866 0-30.134zM206.534 236.667l90.134 90.133c-11.466 9.6-25.866 14.933-41.066 14.933-35.333 0-64-28.666-64-64 0-15.2 5.333-29.6 14.934-41.066zM64 426.666c-11.733 0-21.334-9.6-21.334-21.334v-234.667c0-11.733 9.6-21.333 21.334-21.333h55.2l57.067 57.066c-17.466 19.333-27.334 44.667-27.334 71.333 0 58.8 47.867 106.666 106.666 106.666 26.534 0 51.867-10 71.334-27.466l69.6 69.6h-332.534z"></path>
<path d="M192 85.334h116.534l36.267 54.533c4 6 10.666 9.466 17.733 9.466h85.334c11.733 0 21.334 9.6 21.334 21.333v199.2c0 11.733 9.6 21.334 21.334 21.334s21.334-9.6 21.334-21.334v-199.2c0-35.334-28.666-64-64-64h-73.866l-36.267-54.533c-4-6-10.666-9.467-17.733-9.467h-128c-11.733 0-21.334 9.6-21.334 21.334s9.6 21.334 21.334 21.334z"></path>
</svg>
