<!-- Generated by IcoMoon.io -->
<svg version="1.1" xmlns="http://www.w3.org/2000/svg" width="512" height="512" viewBox="0 0 512 512">
<title></title>
<g id="icomoon-ignore">
</g>
<path d="M448 106.666h-73.866l-36.267-54.533c-4-6-10.666-9.467-17.733-9.467h-128c-7.066 0-13.733 3.6-17.733 9.466l-36.534 54.533h-73.867c-35.334 0-64 28.666-64 64v234.666c0 35.334 28.666 64 64 64h384c35.334 0 64-28.666 64-64v-234.667c0-35.333-28.666-64-64-64zM469.334 405.334c0 11.733-9.6 21.334-21.334 21.334h-384c-11.733 0-21.334-9.6-21.334-21.334v-234.667c0-11.733 9.6-21.333 21.334-21.333h85.334c7.066 0 13.733-3.6 17.733-9.466l36.4-54.534h105.2l36.267 54.534c4 6 10.666 9.466 17.733 9.466h85.334c11.733 0 21.334 9.6 21.334 21.334v234.667z"></path>
<path d="M256 170.667c-58.8 0-106.666 47.867-106.666 106.667s47.867 106.666 106.666 106.666 106.666-47.866 106.666-106.666-47.867-106.666-106.666-106.666zM256 341.334c-35.334 0-64-28.666-64-64s28.666-64 64-64c35.334 0 64 28.666 64 64s-28.666 64-64 64z"></path>
</svg>
