<svg width="19" height="19" viewBox="0 0 19 19" fill="none" xmlns="http://www.w3.org/2000/svg">
<g clip-path="url(#clip0_3_33)">
<path d="M15.8333 13.8542C16.1383 13.8543 16.4315 13.9718 16.6522 14.1822C16.8729 14.3927 17.0042 14.68 17.0189 14.9846C17.0335 15.2892 16.9304 15.5878 16.7309 15.8185C16.5314 16.0491 16.2509 16.1942 15.9473 16.2236L15.8333 16.2292H3.16666C2.86169 16.229 2.56848 16.1115 2.34777 15.9011C2.12706 15.6906 1.99577 15.4033 1.98112 15.0987C1.96646 14.7941 2.06956 14.4956 2.26905 14.2649C2.46853 14.0342 2.74912 13.8891 3.05266 13.8597L3.16666 13.8542H15.8333ZM15.8333 8.3125C16.1483 8.3125 16.4503 8.43761 16.673 8.66031C16.8957 8.88301 17.0208 9.18506 17.0208 9.5C17.0208 9.81495 16.8957 10.117 16.673 10.3397C16.4503 10.5624 16.1483 10.6875 15.8333 10.6875H3.16666C2.85171 10.6875 2.54967 10.5624 2.32697 10.3397C2.10427 10.117 1.97916 9.81495 1.97916 9.5C1.97916 9.18506 2.10427 8.88301 2.32697 8.66031C2.54967 8.43761 2.85171 8.3125 3.16666 8.3125H15.8333ZM15.8333 2.77084C16.1483 2.77084 16.4503 2.89595 16.673 3.11865C16.8957 3.34135 17.0208 3.64339 17.0208 3.95834C17.0208 4.27328 16.8957 4.57533 16.673 4.79803C16.4503 5.02072 16.1483 5.14584 15.8333 5.14584H3.16666C2.85171 5.14584 2.54967 5.02072 2.32697 4.79803C2.10427 4.57533 1.97916 4.27328 1.97916 3.95834C1.97916 3.64339 2.10427 3.34135 2.32697 3.11865C2.54967 2.89595 2.85171 2.77084 3.16666 2.77084H15.8333Z" fill="white"/>
</g>
<defs>
<clipPath id="clip0_3_33">
<rect width="19" height="19" fill="white"/>
</clipPath>
</defs>
</svg>
