<?xml version="1.0" standalone="no"?>
<!DOCTYPE svg PUBLIC "-//W3C//DTD SVG 1.1//EN" "http://www.w3.org/Graphics/SVG/1.1/DTD/svg11.dtd" >
<svg xmlns="http://www.w3.org/2000/svg">
<metadata></metadata>
<defs>
<font id="FreeSetCyrillic" horiz-adv-x="1163" >
<font-face units-per-em="2048" ascent="1638" descent="-410" />
<missing-glyph horiz-adv-x="719" />
<glyph horiz-adv-x="0" />
<glyph horiz-adv-x="0" />
<glyph unicode=" "  horiz-adv-x="719" />
<glyph unicode="&#x09;" horiz-adv-x="719" />
<glyph unicode="&#xa0;" horiz-adv-x="719" />
<glyph unicode="!" horiz-adv-x="577" d="M205 0v176h167v-176h-167zM205 1434h167l-24 -1076h-118z" />
<glyph unicode="&#x22;" horiz-adv-x="671" d="M102 1434h193l-45 -354h-104zM377 1434h193l-46 -354h-104z" />
<glyph unicode="#" horiz-adv-x="1337" d="M114 410l26 118h232l68 406h-231l25 118h231l57 324h94l-55 -324h334l55 324h96l-57 -324h233l-24 -118h-234l-67 -406h231l-24 -118h-232l-57 -324h-94l57 324h-336l-55 -324h-96l57 324h-234zM467 528h336l67 406h-334z" />
<glyph unicode="$" horiz-adv-x="1054" d="M102 1094q0 87 33 151.5t87 106.5t119 63.5t132 26.5v168h90v-164q155 0 313 -52l-18 -126q-138 62 -295 61v-533q140 -70 219.5 -125t124.5 -133t45 -194q0 -127 -68 -202.5t-154.5 -107.5t-166.5 -40v-170h-90v164q-199 0 -361 63l15 133q161 -78 346 -78v584 q-117 51 -197 104.5t-127 127.5t-47 172zM248 1094q0 -82 57.5 -139t167.5 -107v475q-225 -33 -225 -229zM563 114q121 28 182.5 89t61.5 145q0 109 -61.5 172.5t-182.5 120.5v-527z" />
<glyph unicode="%" horiz-adv-x="2017" d="M205 1063q0 104 40.5 192t117.5 139.5t182 51.5q104 0 181.5 -51.5t117.5 -139t40 -192.5q0 -104 -40 -192t-117.5 -139.5t-181.5 -51.5q-105 0 -182 51.5t-117.5 139.5t-40.5 192zM334 1063q0 -153 60 -217t151 -64q90 0 150.5 64t60.5 217q0 152 -60 216.5t-151 64.5 t-151 -64.5t-60 -216.5zM463 56l1003 1390l88 -58l-1009 -1400zM1132 370q0 104 40.5 192t118 140t181.5 52t182 -52t118 -140t40 -192t-40 -191.5t-118 -139t-182 -51.5t-181 51.5t-118 139t-41 191.5zM1262 370q0 -152 60 -216t150 -64q91 0 151.5 64t60.5 216 q0 153 -60 217.5t-152 64.5q-91 0 -150.5 -64.5t-59.5 -217.5z" />
<glyph unicode="&#x26;" horiz-adv-x="1491" d="M144 344q0 150 59.5 249.5t136 148.5t148.5 69q-69 67 -109 112t-64 99t-24 118q0 78 35.5 148t117.5 116t212 46q163 0 262 -84q98 -84 98 -226q0 -89 -39 -152.5t-112 -110.5t-187 -95l391 -405q110 151 117 419h135q-7 -148 -37 -255.5t-65 -171.5t-70 -111l239 -258 h-184l-143 160q-92 -91 -191.5 -133.5t-226.5 -42.5q-141 0 -255 43t-179 125t-65 192zM289 350q0 -122 103.5 -186t250.5 -64q199 0 346 170l-440 459q-148 -48 -204 -148.5t-56 -230.5zM426 1140q0 -68 54 -143t126 -137q274 104 274 280q0 76 -54 134.5t-170 58.5 q-138 0 -184 -60.5t-46 -132.5z" />
<glyph unicode="'" horiz-adv-x="397" d="M102 1434h193l-45 -354h-104z" />
<glyph unicode="(" horiz-adv-x="864" d="M205 672q0 240 88.5 465t248.5 485l118 2q-144 -240 -227 -483t-83 -469q0 -82 24.5 -208.5t89 -300t173.5 -366.5l-101 -2q-126 191 -199.5 359t-102.5 295t-29 223z" />
<glyph unicode=")" horiz-adv-x="864" d="M205 1624l117 -2q72 -116 133 -229.5t107 -230.5t72 -240.5t26 -249.5q0 -69 -16 -159t-52.5 -198t-104 -243.5t-159.5 -276.5l-100 2q109 194 172.5 366.5t88.5 299.5t25 209q0 156 -39 318t-108 321t-162 313z" />
<glyph unicode="*" horiz-adv-x="909" d="M102 926l248 131v6l-248 133l60 102l240 -149l4 4l-8 281h116l-8 -281l4 -4l240 147l57 -100l-248 -133v-6l248 -133l-57 -103l-240 150l-6 -3l8 -282h-116l10 282l-6 3l-240 -147z" />
<glyph unicode="+" horiz-adv-x="1548" d="M144 674v114h573v574h115v-574h573v-114h-573v-574h-115v574h-573z" />
<glyph unicode="," horiz-adv-x="497" d="M102 -264l113 446h181l-152 -446h-142z" />
<glyph unicode="-" horiz-adv-x="778" d="M164 492v108h450v-108h-450z" />
<glyph unicode="." horiz-adv-x="372" d="M102 0v176h168v-176h-168z" />
<glyph unicode="/" horiz-adv-x="1120" d="M102 -484l826 1954l90 -36l-826 -1954z" />
<glyph unicode="0" horiz-adv-x="1208" d="M123 717q0 112 12.5 223.5t59 231t147 199t262.5 79.5q163 0 263.5 -79.5t146.5 -198t59 -230.5t13 -225q0 -733 -482 -733q-481 0 -481 733zM268 717q0 -180 26 -314.5t100 -218.5t210 -84q198 0 267 166t69 451q0 286 -69 451t-267 165q-137 0 -210.5 -83.5t-99.5 -218 t-26 -314.5z" />
<glyph unicode="1" horiz-adv-x="735" d="M82 1174l324 260h124v-1434h-134v1276l-240 -196z" />
<glyph unicode="2" horiz-adv-x="1071" d="M102 0v125q250 266 380 414.5t210 288.5q80 142 80 266q0 240 -282 239q-184 1 -326 -81l-24 116q164 82 350 82q169 0 264.5 -56.5t129.5 -135.5q34 -78 34 -162q0 -134 -65 -263.5t-141 -221.5t-228 -261q-130 -146 -232 -231v-5l131 2h585v-116h-866z" />
<glyph unicode="3" horiz-adv-x="1118" d="M72 49l20 125q152 -74 369 -74q73 0 153 26.5t138 93.5q57 68 57 178q0 104 -49 168t-122.5 92t-149.5 28h-212v117h214q131 0 218.5 83.5t87.5 209.5q0 83 -72 160t-242 77q-188 1 -340 -71l-13 124q169 64 353 64q116 0 220 -38t169 -118q65 -78 65 -198 q0 -70 -23 -136t-83 -123t-164 -89v-2q113 -23 200.5 -107.5t87.5 -240.5q0 -130 -66.5 -224t-180 -142t-246.5 -48q-223 0 -389 65z" />
<glyph unicode="4" horiz-adv-x="1214" d="M82 342v123l651 969h181v-975h218v-117h-218v-342h-136v342h-696zM213 461l2 -5l109 3h454v725l4 126h-6l-68 -116l-432 -645z" />
<glyph unicode="5" horiz-adv-x="1143" d="M164 35v133q162 -68 334 -68q50 0 129 21.5t153 100.5q74 78 74 232q0 124 -61.5 193.5t-142 93t-152.5 23.5q-200 0 -332 -37v707h766v-117h-631v-457q98 22 203 22q150 0 263 -55t173 -153t60 -220q0 -94 -32.5 -178t-96.5 -150.5t-158.5 -104t-214.5 -37.5 q-182 0 -334 51z" />
<glyph unicode="6" horiz-adv-x="1175" d="M123 540q0 478 144 694q145 216 391 216q210 0 338 -30l-13 -122q-115 34 -323 35q-126 0 -208 -63.5t-124 -158.5t-57 -186t-19 -177l-2 -46h2q117 202 342 203q113 0 217.5 -46t172.5 -150q68 -105 68 -267q0 -128 -51.5 -232.5t-153.5 -165t-245 -60.5q-194 0 -301 95 t-142.5 220t-35.5 241zM276 444q0 -108 41 -185t113 -118t162 -41q89 0 161.5 41t113.5 119q41 76 41 184t-41.5 186t-113 118t-161.5 40t-162 -40t-113 -118t-41 -186z" />
<glyph unicode="7" horiz-adv-x="962" d="M41 1317v117h881v-124l-554 -1310h-153l563 1317h-737z" />
<glyph unicode="8" horiz-adv-x="1255" d="M144 362q0 154 107 247t241 129v2q-296 124 -296 366q0 94 54 173t150 125q94 46 214 46q126 0 226.5 -39t158.5 -117t58 -188q0 -242 -293 -368v-3q348 -99 348 -383q0 -162 -96 -244t-199 -103t-178 -21q-147 0 -260 50t-174 136t-61 192zM289 364q0 -84 48 -144 t127.5 -90t172.5 -30q154 0 241.5 72.5t87.5 175.5q0 84 -47 147t-126 106t-191 77q-128 -38 -220.5 -113t-92.5 -201zM342 1106q0 -82 39 -141t103.5 -100t156.5 -77q160 68 215.5 148t55.5 170q0 78 -40 129.5t-106 74.5t-148 23q-88 0 -150.5 -32.5t-94 -84.5t-31.5 -110 z" />
<glyph unicode="9" horiz-adv-x="1186" d="M123 985q0 132 54 237.5t157.5 166.5t243.5 61q154 0 253.5 -59t149 -147t66 -177t16.5 -172q0 -318 -60 -520.5t-176.5 -296.5t-290.5 -94q-226 0 -344 34l8 119q116 -37 332 -37q382 0 402 560l2 73h-6q-126 -203 -340 -203q-114 0 -202.5 36t-147 98.5t-88 145 t-29.5 175.5zM268 985q0 -144 84.5 -241t237.5 -97q94 0 167 48.5t113 129t40 171.5q0 80 -39 158t-115 128.5t-178 50.5q-77 0 -147.5 -35.5t-116.5 -113.5t-46 -199z" />
<glyph unicode=":" horiz-adv-x="372" d="M102 0v176h168v-176h-168zM102 874v176h168v-176h-168z" />
<glyph unicode=";" horiz-adv-x="497" d="M102 -264l113 446h181l-152 -446h-142zM198 874v176h168v-176h-168z" />
<glyph unicode="&#x3c;" horiz-adv-x="1325" d="M114 723l1045 659v-116l-852 -543l852 -545v-114z" />
<glyph unicode="=" horiz-adv-x="1548" d="M144 488v114h1261v-114h-1261zM144 860v115h1261v-115h-1261z" />
<glyph unicode="&#x3e;" horiz-adv-x="1325" d="M166 64v114l852 545l-852 543v116l1044 -659z" />
<glyph unicode="?" horiz-adv-x="911" d="M102 1280v127q126 43 264 43q78 0 173 -18.5t182.5 -95t87.5 -228.5q0 -92 -31.5 -166t-73.5 -126t-139 -158q-56 -62 -88.5 -115.5t-32.5 -122.5v-62h-116v62q0 97 42 170q44 72 122 160q84 95 128 173.5t44 184.5q0 74 -41 125.5t-109 75.5t-146 24q-146 0 -266 -53z M301 0v176h168v-176h-168z" />
<glyph unicode="@" horiz-adv-x="1644" d="M102 680q0 142 48 278t143 248t235.5 178t319.5 66q188 0 346 -69.5t253 -213t95 -350.5q0 -135 -37 -236t-97.5 -166t-130.5 -97q-71 -32 -137 -32t-112.5 41t-46.5 107q0 10 4 35h-4q-54 -82 -129.5 -132.5t-151.5 -50.5q-112 0 -200 71t-88 221q0 144 56 271t156 204 t224 77q78 0 133 -41t80 -110l25 137h102l-106 -614q-6 -26 -7 -52q-1 -80 65 -80q82 0 156.5 53.5t121 156t46.5 239.5q0 182 -86 309.5t-227 189.5t-301 62q-133 0 -254 -49t-215.5 -142.5t-147.5 -224t-53 -284.5q0 -170 75 -313.5t219 -228.5t339 -85q215 0 387 68v-78 q-184 -59 -387 -59q-204 0 -344.5 68.5t-220.5 176t-113 226.5t-33 225zM520 582q0 -112 61 -158.5t134 -46.5q94 0 181.5 85.5t119.5 241.5q8 44 8 132q0 106 -59 157t-131 51q-84 0 -156 -60t-115 -166t-43 -236z" />
<glyph unicode="A" horiz-adv-x="1411" d="M30 0l570 1434h176l604 -1434h-145l-166 396h-733l-160 -396h-146zM379 512h641l-278 654l-52 134h-6l-45 -134z" />
<glyph unicode="B" horiz-adv-x="1181" d="M205 0v1434h383q220 0 320 -105t100 -256q0 -243 -248 -323v-6q80 -14 145.5 -60t104 -118t38.5 -162q0 -93 -36 -183t-142 -155q-104 -66 -294 -66h-371zM340 116h217q346 0 346 286q0 124 -70 186.5t-143 77.5q-72 16 -118 16h-232v-566zM340 798h230q132 0 212 73.5 t80 199.5q0 119 -78 182.5t-210 63.5h-234v-519z" />
<glyph unicode="C" horiz-adv-x="1343" d="M205 694q0 202 75.5 374t232.5 277t388 105q223 0 367 -56l-12 -122q-150 61 -342 61q-157 0 -285.5 -77.5t-203.5 -223.5t-75 -340q0 -130 42.5 -241t118.5 -189t177.5 -120t216.5 -42q116 0 220.5 23t156.5 45v-129q-172 -55 -398 -55q-164 0 -292 57t-214 157 t-129.5 229t-43.5 267z" />
<glyph unicode="D" horiz-adv-x="1409" d="M205 0v1434h350q282 0 511.5 -145t229.5 -579q0 -107 -41 -262.5t-206 -301.5t-494 -146h-350zM340 116h200q142 0 255.5 40t193 117t121 189t41.5 255q0 366 -185.5 483t-425.5 117h-200v-1201z" />
<glyph unicode="E" horiz-adv-x="1042" d="M205 0v1434h696v-117h-561v-519h534v-116h-534v-566h600v-116h-735z" />
<glyph unicode="F" horiz-adv-x="973" d="M205 0v1434h686v-117h-551v-519h520v-116h-520v-682h-135z" />
<glyph unicode="G" horiz-adv-x="1456" d="M112 717q0 154 48 287.5t144.5 234t239.5 155.5q142 56 328 56q182 0 371 -78l-21 -127q-182 88 -350 88q-138 0 -252.5 -43.5t-195.5 -125.5t-123.5 -195.5t-42.5 -251.5q0 -140 46.5 -255.5t131 -197t195.5 -124t239 -42.5q144 0 287 52v483h-348v117h483v-686 q-217 -82 -430 -82q-154 0 -289 44t-239 135t-163 231t-59 325z" />
<glyph unicode="H" horiz-adv-x="1220" d="M102 0v1434h136v-633h745v633h135v-1434h-135v684h-745v-684h-136z" />
<glyph unicode="I" horiz-adv-x="545" d="M205 0v1434h135v-1434h-135z" />
<glyph unicode="J" horiz-adv-x="729" d="M41 4l12 119q59 -25 131 -25q88 0 146.5 59t58.5 201v1076h135v-1090q0 -202 -94 -282t-232 -80q-70 0 -157 22z" />
<glyph unicode="K" horiz-adv-x="1294" d="M205 0v1434h135v-580v-82h2l49 52l613 610h172l-697 -678l775 -756h-191l-686 686l-35 39l-2 -2v-67v-656h-135z" />
<glyph unicode="L" horiz-adv-x="966" d="M205 0v1434h135v-1318h586v-116h-721z" />
<glyph unicode="M" horiz-adv-x="1917" d="M205 0v1434h213l477 -1114l59 -191h8l60 191l477 1114h213v-1434h-135v1110l4 194h-8l-70 -188l-475 -1116h-139l-475 1116l-70 188h-8l4 -194v-1110h-135z" />
<glyph unicode="N" horiz-adv-x="1480" d="M205 0v1434h174l698 -1160l63 -130h5l-5 165v1125h136v-1434h-174l-688 1136l-76 154h-6l8 -166v-1124h-135z" />
<glyph unicode="O" horiz-adv-x="1523" d="M112 715q0 214 79.5 381.5t227 260.5t343.5 93q148 0 268 -53t205.5 -151t130.5 -233.5t45 -297.5q0 -136 -37 -265.5t-115.5 -235t-203.5 -168t-293 -62.5t-292.5 62t-203 168t-116.5 236.5t-38 264.5zM258 715q0 -216 76 -353.5t191 -199.5t237 -62q88 0 177 34 t162.5 106t119 191t45.5 284q0 215 -76 354t-192 201.5t-236 62.5t-236 -62t-192 -201.5t-76 -354.5z" />
<glyph unicode="P" horiz-adv-x="1089" d="M205 0v1434h373q122 0 219.5 -48t154 -142t56.5 -224t-56 -224t-154 -142t-220 -48h-238v-606h-135zM340 723h211q104 0 207.5 54.5t103.5 242.5q0 140 -82 218.5t-229 78.5h-211v-594z" />
<glyph unicode="Q" horiz-adv-x="1523" d="M112 715q0 214 79.5 381.5t227 260.5t343.5 93q220 0 367 -107.5t214.5 -276t67.5 -351.5q0 -134 -37 -269.5t-126 -248.5t-232 -164l332 -301h-189l-289 260q-50 -8 -116 -8q-182 0 -328.5 88t-230 254t-83.5 389zM258 715q0 -216 76 -353.5t191 -199.5t237 -62 q88 0 177 34t162.5 106t119 191t45.5 284q0 215 -76 354t-192 201.5t-236 62.5t-236 -62t-192 -201.5t-76 -354.5z" />
<glyph unicode="R" horiz-adv-x="1229" d="M205 0v1434h369q196 0 293 -75t121 -158t24 -153q0 -92 -43 -165t-113 -116q-72 -43 -154 -52v-5q66 -9 97 -47.5t59 -105.5l248 -557h-150l-235 530q-34 74 -68.5 103t-132.5 29h-180v-662h-135zM340 778h198q137 0 232.5 75t95.5 193q0 60 -22.5 121.5t-85.5 105.5 q-62 44 -174 44h-244v-539z" />
<glyph unicode="S" horiz-adv-x="1014" d="M102 47l14 133q169 -80 320 -80q79 0 155 27t125.5 83t49.5 140q0 88 -38.5 147t-100 99t-185.5 104q-106 55 -167 95.5t-112 114.5q-51 76 -51 184q0 99 44 179.5t143 128.5t256 48q159 0 311 -51l-18 -127q-138 61 -293 61q-166 0 -231.5 -70.5t-65.5 -168.5 q0 -68 34 -116t86.5 -81t178.5 -103q130 -72 201 -125t112.5 -131t41.5 -194q0 -95 -50 -177t-158 -132.5t-268 -50.5q-170 0 -334 63z" />
<glyph unicode="T" horiz-adv-x="1054" d="M30 1317v117h994v-117h-428v-1317h-135v1317h-431z" />
<glyph unicode="U" horiz-adv-x="1458" d="M205 477v957h135v-952q0 -130 55 -216t144 -126t190 -40q102 0 190.5 40t143.5 126t55 216v952h136v-957q0 -159 -70 -270.5t-189 -167t-266 -55.5t-266 55.5t-188.5 167t-69.5 270.5z" />
<glyph unicode="V" horiz-adv-x="1333" d="M41 1434h149l449 -1139l43 -166h4l52 166l419 1139h135l-532 -1434h-152z" />
<glyph unicode="W" horiz-adv-x="1980" d="M41 1434h147l342 -1160l38 -158h4l32 160l322 1158h147l342 -1160l37 -158h4l33 160l321 1158h130l-402 -1434h-170l-336 1090l-43 160h-6l-41 -162l-288 -1088h-170z" />
<glyph unicode="X" horiz-adv-x="1317" d="M41 0l529 760l-498 674h168l368 -518l46 -68h2l46 68l367 518h155l-484 -674l536 -760h-168l-370 526l-84 138h-5l-86 -144l-360 -520h-162z" />
<glyph unicode="Y" horiz-adv-x="1243" d="M4 1434h158l399 -636l49 -83l64 98l399 621h166l-563 -836v-598h-136v598z" />
<glyph unicode="Z" horiz-adv-x="1151" d="M102 0v127l684 1053l90 137l-2 2l-162 -2h-593v117h899v-138l-670 -1040l-92 -137l2 -5l138 2h652v-116h-946z" />
<glyph unicode="[" horiz-adv-x="676" d="M205 -448v1882h369v-117h-226v-1649h226v-116h-369z" />
<glyph unicode="\" horiz-adv-x="1243" d="M164 1434l90 36l826 -1954l-91 -36z" />
<glyph unicode="]" horiz-adv-x="676" d="M102 -332h226v1649h-226v117h369v-1882h-369v116z" />
<glyph unicode="^" horiz-adv-x="1081" d="M114 887l426 575l426 -575h-110l-316 421l-312 -421h-114z" />
<glyph unicode="_" horiz-adv-x="1444" d="M164 -350h1188v-98h-1188v98z" />
<glyph unicode="`" horiz-adv-x="702" d="M164 1548h192l182 -272h-104z" />
<glyph unicode="a" horiz-adv-x="1061" d="M92 280q0 216 170 288.5t432 72.5h68v37q0 280 -242 280q-170 0 -313 -80v124q147 65 308 65h5q162 0 244 -66.5t104.5 -150.5t22.5 -174v-446l6 -230h-115v178h-4q-106 -194 -342 -194q-115 0 -192.5 42.5t-114.5 110t-37 143.5zM228 289q0 -60 28.5 -104.5t76 -68.5 t101.5 -24q107 0 180.5 47t110.5 129t37 188v76h-117q-191 0 -304 -53t-113 -190z" />
<glyph unicode="b" d="M164 0l8 203v1357h129v-698q113 205 317 205q132 0 235 -62.5t161 -184.5q57 -124 57 -296q0 -173 -57.5 -295.5t-159.5 -183.5t-236 -61q-104 0 -189.5 62t-135.5 171h-7l-2 -217h-120zM301 524q0 -144 46.5 -241t119.5 -144t151 -47q79 0 152 47t120 145q46 96 46 240 t-46 243t-119 145t-153 46t-152 -46t-118.5 -145t-46.5 -243z" />
<glyph unicode="c" horiz-adv-x="936" d="M92 524q0 168 64 291.5t173 187.5t239 64q158 0 298 -41l-6 -114q-114 46 -280 46q-112 0 -192 -58t-120 -156q-40 -100 -40 -220q0 -182 75 -278.5t160 -125t141 -28.5q154 0 258 43l12 -111q-118 -40 -272 -40q-146 0 -263 66t-182 189t-65 285z" />
<glyph unicode="d" d="M92 524q0 194 66.5 316t169 174.5t217.5 52.5q119 0 196 -62.5t121 -142.5v698h129v-1357l9 -203h-122l-2 217h-6q-46 -104 -130 -168.5t-195 -64.5q-116 0 -218.5 51t-168.5 173q-66 120 -66 316zM228 524q0 -144 46 -241t119 -144t152 -47q78 0 151 47t119.5 144 t46.5 241t-46 243t-118.5 145t-152.5 46t-152.5 -46t-118.5 -144q-46 -100 -46 -244z" />
<glyph unicode="e" horiz-adv-x="1040" d="M82 542q0 150 54 270t158 188q102 67 244 67q186 0 279 -94.5t117 -209.5t24 -235v-40h-741q0 -106 44.5 -199t130.5 -150t202 -57q128 0 284 78v-119q-144 -61 -292 -61q-101 0 -191.5 32t-161.5 100t-111 176t-40 254zM217 596h607q0 136 -59 249t-227 113 q-106 0 -179 -55t-107 -139t-35 -168z" />
<glyph unicode="f" horiz-adv-x="901" d="M144 942v108h218v216q0 117 44 183.5t101 90.5t103 24q87 0 148 -18v-106q-50 16 -132 16q-134 0 -134 -180v-226h248v-108h-248v-942h-130v942h-218z" />
<glyph unicode="g" d="M92 526q0 173 57 295.5t159 184t237 61.5q68 0 130.5 -28.5t112.5 -81.5t82 -123h6l2 216h122l-9 -202v-846q0 -461 -518 -461h-5q-144 0 -278 57v128q158 -76 308 -76q176 0 270 99t94 265v174q-114 -204 -317 -204q-132 0 -235 62t-160.5 185t-57.5 295zM228 526 q0 -145 46 -243t118.5 -144.5t152.5 -46.5t152.5 46.5t118.5 144.5t46 243q0 143 -46.5 240.5t-119 144.5t-151.5 47t-152 -47t-119 -144t-46 -241z" />
<glyph unicode="h" horiz-adv-x="1153" d="M164 0v1560h129v-497l-11 -229h4q30 72 81 124t116 80.5t139 28.5h2q364 0 365 -413v-654h-129v647q0 142 -47 226.5t-211 84.5q-88 0 -159 -48.5t-110.5 -129t-39.5 -168.5v-612h-129z" />
<glyph unicode="i" horiz-adv-x="325" d="M92 1352v164h142v-164h-142zM98 0v1050h130v-1050h-130z" />
<glyph unicode="j" horiz-adv-x="682" d="M164 -326q58 -16 92 -16q133 0 133 178v1214h129v-1202q0 -296 -236 -296q-61 0 -118 18v104zM389 1356v164h129v-164h-129z" />
<glyph unicode="k" horiz-adv-x="1042" d="M164 0v1560h129v-972h10l477 462h168l-518 -485l572 -565h-183l-516 516h-10v-516h-129z" />
<glyph unicode="l" horiz-adv-x="456" d="M164 0v1560h129v-1560h-129z" />
<glyph unicode="m" horiz-adv-x="1753" d="M164 1050h127v-204h4q38 94 116.5 157.5t182.5 63.5q126 0 210 -57q84 -58 108 -164h2q46 102 132 161.5t195 59.5q348 -1 348 -367v-700h-129v694q0 264 -219 264q-88 0 -155.5 -44.5t-104.5 -124t-37 -177.5v-612h-129v694q0 264 -221 264q-89 0 -156.5 -50t-103 -130 t-35.5 -166v-612h-129v852z" />
<glyph unicode="n" horiz-adv-x="1159" d="M164 1050h114v-216h4q42 97 127 165t217 68h2q368 0 368 -413v-654h-130v647q0 94 -15 158.5t-71 108.5q-58 44 -172 44q-94 0 -164 -49.5t-107.5 -130t-37.5 -166.5v-612h-129v809z" />
<glyph unicode="o" horiz-adv-x="1155" d="M92 524q0 112 31 211t93 174t154 116.5t208 41.5q154 0 264 -72.5t166 -196.5q55 -124 55 -274t-56.5 -273t-166.5 -195q-108 -72 -262 -72t-264 72t-166 195t-56 273zM228 524q0 -72 19 -147t60.5 -140t109 -105t161.5 -40t161 40t109 105.5t61 140.5q19 74 19 146 q0 100 -35 199.5t-114 167t-201 67.5t-201 -67.5t-114 -167t-35 -199.5z" />
<glyph unicode="p" d="M164 1050h122v-216h7q87 233 323 233h2q152 0 254 -70.5t150 -192.5q49 -124 49 -278q0 -147 -39.5 -252.5t-104.5 -168.5t-146 -92t-163 -29q-72 0 -133 27.5t-106.5 74t-75.5 102.5h-6l4 -100v-536h-129v1296zM301 526q0 -145 46.5 -243t118.5 -144.5t152 -46.5 t153 46.5t119 145t46 242.5q0 143 -46.5 240.5t-119 144.5t-152.5 47q-79 0 -151.5 -47t-119 -144.5t-46.5 -240.5z" />
<glyph unicode="q" d="M92 526q0 148 39 254.5t105 169t145 90t164 27.5q112 0 195.5 -64.5t129.5 -168.5h6l2 216h122l-9 -202v-1296h-129v636q-26 -46 -66.5 -92t-104 -79t-146.5 -33q-115 0 -217.5 52.5t-169 174t-66.5 315.5zM228 526q0 -145 46 -243t118.5 -144.5t152.5 -46.5t152.5 46.5 t118.5 144.5t46 243q0 143 -46.5 240.5t-119 144.5t-151.5 47t-152 -47t-119 -144t-46 -241z" />
<glyph unicode="r" horiz-adv-x="721" d="M164 1050h122v-224h3q22 102 87.5 173.5t168.5 71.5q51 -1 115 -23v-122q-48 22 -103 22q-72 0 -130.5 -44t-92 -123t-33.5 -177v-604h-129v858z" />
<glyph unicode="s" horiz-adv-x="858" d="M102 30l8 124q129 -62 273 -62q146 0 191.5 66t45.5 124q0 88 -46 128t-128 76q-96 40 -143 63.5t-91 59t-70 85.5t-26 117q0 112 95 184t258 72h4q124 0 246 -55l-9 -102q-120 48 -247 48q-132 0 -175.5 -49.5t-43.5 -97.5q0 -74 44 -113q44 -40 168 -90 q84 -34 144.5 -67.5t108 -97t47.5 -161.5q0 -130 -98 -214t-279 -84q-147 0 -277 46z" />
<glyph unicode="t" horiz-adv-x="733" d="M41 942v108h215v263l129 47v-310h250v-108h-250v-645q0 -90 13.5 -134.5t39.5 -57.5t72 -13q74 0 131 22v-108q-63 -22 -145 -22q-109 0 -162.5 51t-65.5 114t-12 140v653h-215z" />
<glyph unicode="u" horiz-adv-x="1143" d="M164 370v680h129v-690q0 -268 229 -268q93 0 166.5 48.5t113.5 129t40 172.5v608h129v-810l8 -240h-121v209h-2q-42 -108 -132.5 -166.5t-201.5 -58.5q-136 0 -247 78t-111 308z" />
<glyph unicode="v" horiz-adv-x="952" d="M41 1050h135l283 -858l20 -82h7l20 84l280 856h126l-355 -1050h-151z" />
<glyph unicode="w" horiz-adv-x="1646" d="M41 1050h137l250 -800l33 -142h6l35 140l242 802h164l262 -800l36 -142h6l35 142l227 800h132l-316 -1050h-162l-282 846l-22 98h-7l-23 -100l-254 -844h-159z" />
<glyph unicode="x" horiz-adv-x="1020" d="M62 0l364 561l-340 489h164l198 -304l58 -99h2l57 101l185 302h151l-321 -489l378 -561h-168l-233 379l-51 94h-2l-54 -94l-239 -379h-149z" />
<glyph unicode="y" horiz-adv-x="1003" d="M62 1050h136l277 -800l33 -104h2l32 102l267 802h133l-448 -1288q-37 -106 -91 -158t-141 -52q-85 0 -137 16l12 114q49 -14 107 -14q61 0 92.5 39t59.5 121l44 137z" />
<glyph unicode="z" horiz-adv-x="971" d="M92 0v106l541 730l84 106h-615v108h750v-122l-536 -719l-82 -101h644v-108h-786z" />
<glyph unicode="{" horiz-adv-x="704" d="M102 512v86q81 11 123.5 51.5t57 100.5t14.5 147q0 48 -3 132q-3 85 -3 141q0 82 17.5 159.5t86 147t207.5 83.5v-92q-110 -10 -143 -69t-33 -143q0 -47 3 -145.5t3 -215.5q0 -106 -32 -193.5t-144 -125.5l-53 -19v-6l53 -17q176 -54 176 -319q0 -115 -3 -215t-3 -146 q0 -84 33 -142t143 -70v-92q-139 15 -207.5 84t-86 146.5t-17.5 159.5q0 57 3 141.5t3 131.5q0 134 -39.5 209t-155.5 90z" />
<glyph unicode="|" horiz-adv-x="344" d="M114 -574v2157h116v-2157h-116z" />
<glyph unicode="}" horiz-adv-x="704" d="M102 -358q110 11 143 69.5t33 142.5q0 46 -3 146t-3 215q0 265 176 319l54 17v6l-54 19q-112 39 -144 126.5t-32 192.5q0 116 3 214.5t3 146.5q0 85 -33 144.5t-143 67.5v92q139 -15 208 -84t86.5 -146.5t17.5 -159.5q0 -56 -3 -140.5t-3 -132.5q0 -87 14 -147 t56.5 -100.5t123.5 -51.5v-86q-116 -15 -155 -90.5t-39 -208.5q0 -48 3 -131.5t3 -141.5q0 -358 -312 -390v92z" />
<glyph unicode="~" horiz-adv-x="1100" d="M164 484q72 164 208 163q31 0 64.5 -6t62.5 -15t59 -20q30 -10 64 -24q56 -20 103 -21q89 0 137 88l74 -49q-40 -80 -89 -120t-124 -40q-48 0 -88.5 10t-93 31t-64.5 25q-55 20 -113 20q-82 0 -130 -90z" />
<glyph unicode="&#xa1;" horiz-adv-x="1192" d="M30 1434h152l369 -762l73 -180h7l63 172l320 770h147l-507 -1206q-49 -114 -108.5 -182t-168.5 -68q-61 0 -143 30l6 115q58 -29 104 -29q66 0 105.5 47.5t68.5 120.5l35 86zM307 1696l61 78q98 -116 238 -117q140 1 238 117l61 -78q-52 -72 -130 -116t-169 -44 q-90 0 -167 44t-132 116z" />
<glyph unicode="&#xa2;" horiz-adv-x="1003" d="M62 1050h136l277 -800l33 -104h2l32 102l267 802h133l-448 -1288q-37 -106 -91 -158t-141 -52q-85 0 -137 16l12 114q27 -10 55 -12q16 -2 52 -2q61 0 92.5 39t59.5 121l44 137zM186 1452l62 72q98 -116 238 -117q140 1 237 117l61 -72q-52 -72 -129.5 -116t-168.5 -44 q-180 0 -300 160z" />
<glyph unicode="&#xa3;" horiz-adv-x="729" d="M41 4l12 119q59 -25 131 -25q88 0 146.5 59t58.5 201v1076h135v-1090q0 -202 -94 -282t-232 -80q-70 0 -157 22z" />
<glyph unicode="&#xa5;" horiz-adv-x="960" d="M205 0v1434h600v307h135v-424h-600v-1317h-135z" />
<glyph unicode="&#xa8;" horiz-adv-x="1042" d="M205 0v1434h696v-117h-561v-519h534v-116h-534v-566h600v-116h-735zM217 1564v164h141v-164h-141zM686 1564v164h142v-164h-142z" />
<glyph unicode="&#xa9;" horiz-adv-x="1695" d="M102 717q0 164 63 302.5t171 238t241 152t271 52.5q164 0 302 -63t237.5 -170.5t153 -241t53.5 -270.5q0 -138 -53 -271.5t-152 -241.5t-237 -170t-304 -62q-136 0 -270 53t-242 152.5t-171 238.5t-63 301zM184 717q0 -147 55 -269.5t151 -211t215 -136t243 -47.5 q166 0 319.5 83t249 235t95.5 346q0 146 -56 270t-152 212.5t-214 134.5t-242 46t-243 -46.5t-214 -135t-151 -212t-56 -269.5zM467 715q0 119 45.5 219t133.5 158.5t210 58.5q151 0 242 -33l-4 -92q-88 35 -230 35q-160 0 -222 -109.5t-62 -236.5q0 -105 39 -183t109 -119 t156 -41q108 0 206 40l10 -92q-92 -38 -218 -38q-100 0 -177 33.5t-131 94t-80.5 139t-26.5 166.5z" />
<glyph unicode="&#xab;" horiz-adv-x="1175" d="M205 628l287 422h116l-268 -424l268 -423h-116zM568 628l286 422h117l-269 -424l269 -423h-117z" />
<glyph unicode="&#xae;" horiz-adv-x="1695" d="M102 721q0 138 53 271.5t153 241.5t238 170t302 62q165 0 302.5 -62t237.5 -170t153 -241t53 -272q0 -164 -63 -302.5t-170.5 -237.5t-241 -152t-271.5 -53t-271 52.5t-241 152t-171 239t-63 301.5zM184 721q0 -147 55 -269.5t151 -211.5t215 -135.5t243 -46.5 q166 0 320 83t249 234.5t95 345.5q0 146 -56 270t-152 212.5t-214 134.5t-242 46t-243 -46.5t-214 -135t-151 -212t-56 -269.5zM586 280v871h246q137 0 203.5 -61.5t66.5 -171.5q0 -78 -54 -133t-136 -66v-4q64 -9 100 -95l147 -340h-105l-144 324q-20 42 -39 61t-79 19 h-110v-404h-96zM682 766h119q78 0 138.5 39t60.5 113q0 152 -172 151h-146v-303z" />
<glyph unicode="&#xb4;" horiz-adv-x="801" d="M164 0v1050h500v206h116v-314h-487v-942h-129z" />
<glyph unicode="&#xb8;" horiz-adv-x="1040" d="M82 542q0 150 54 270t158 188q102 67 244 67q186 0 279 -94.5t117 -209.5t24 -235v-40h-741q0 -106 44.5 -199t130.5 -150t202 -57q128 0 284 78v-119q-144 -61 -292 -61q-101 0 -191.5 32t-161.5 100t-111 176t-40 254zM217 596h607q0 136 -59 249t-227 113 q-106 0 -179 -55t-107 -139t-35 -168zM226 1352v164h140v-164h-140zM674 1352v164h141v-164h-141z" />
<glyph unicode="&#xbb;" horiz-adv-x="1175" d="M205 203l268 423l-268 424h117l286 -422l-286 -425h-117zM568 203l268 423l-268 424h116l287 -422l-287 -425h-116z" />
<glyph unicode="&#xbf;" horiz-adv-x="661" d="M92 1352v164h136v-164h-136zM266 0v1050h130v-1050h-130zM434 1352v164h136v-164h-136z" />
<glyph unicode="&#x2013;" horiz-adv-x="1548" d="M144 674v114h1261v-114h-1261z" />
<glyph unicode="&#x2014;" horiz-adv-x="837" d="M102 910v94h633v-94h-633z" />
<glyph unicode="&#x2018;" horiz-adv-x="620" d="M164 1114l152 446h140l-112 -446h-180z" />
<glyph unicode="&#x2019;" horiz-adv-x="497" d="M102 987l113 447h181l-152 -447h-142z" />
<glyph unicode="&#x201a;" horiz-adv-x="497" d="M102 -264l113 446h181l-152 -446h-142z" />
<glyph unicode="&#x201c;" horiz-adv-x="975" d="M164 1114l152 446h140l-112 -446h-180zM518 1114l152 446h141l-113 -446h-180z" />
<glyph unicode="&#x201d;" horiz-adv-x="852" d="M102 987l113 447h181l-152 -447h-142zM456 987l114 447h180l-152 -447h-142z" />
<glyph unicode="&#x201e;" horiz-adv-x="852" d="M102 -264l113 446h181l-152 -446h-142zM456 -264l114 446h180l-152 -446h-142z" />
<glyph unicode="&#x2022;" horiz-adv-x="778" d="M144 731q0 62 30.5 118.5t87 92t127.5 35.5t127.5 -35.5t87.5 -92t31 -118.5t-31 -118.5t-87.5 -91.5t-127.5 -35t-127.5 35t-87 92t-30.5 118z" />
<glyph unicode="&#x2026;" horiz-adv-x="1118" d="M102 0v176h168v-176h-168zM475 0v176h168v-176h-168zM848 0v176h168v-176h-168z" />
<glyph unicode="&#x2039;" horiz-adv-x="813" d="M205 628l287 422h116l-268 -424l268 -423h-116z" />
<glyph unicode="&#x203a;" horiz-adv-x="813" d="M205 203l268 423l-268 424h117l286 -422l-286 -425h-117z" />
<glyph unicode="&#x2122;" horiz-adv-x="1855" d="M102 1069v90h596v-90h-248v-770h-98v770h-250zM821 299v860h160l287 -686l24 -103h2l25 103l287 686h147v-860h-98v665l10 118h-4l-43 -116l-287 -667h-88l-285 674l-38 109h-4l4 -118v-665h-99z" />
<glyph unicode="&#xe000;" horiz-adv-x="1050" d="M0 0v1050h1050v-1050h-1050z" />
</font>
</defs>
</svg>
