<?xml version="1.0" standalone="no"?>
<!DOCTYPE svg PUBLIC "-//W3C//DTD SVG 1.1//EN" "http://www.w3.org/Graphics/SVG/1.1/DTD/svg11.dtd" >
<svg xmlns="http://www.w3.org/2000/svg">
<metadata></metadata>
<defs>
<font id="FreeSetBoldCyrillic" horiz-adv-x="1245" >
<font-face units-per-em="2048" ascent="1638" descent="-410" />
<missing-glyph horiz-adv-x="719" />
<glyph horiz-adv-x="0" />
<glyph horiz-adv-x="0" />
<glyph unicode=" "  horiz-adv-x="719" />
<glyph unicode="&#x09;" horiz-adv-x="719" />
<glyph unicode="&#xa0;" horiz-adv-x="719" />
<glyph unicode="!" horiz-adv-x="579" d="M144 1434h292l-30 -1006h-230zM146 0v274h290v-274h-290z" />
<glyph unicode="&#x22;" horiz-adv-x="971" d="M123 1434h281l-50 -531h-182zM568 1434h280l-50 -533h-182z" />
<glyph unicode="#" horiz-adv-x="1476" d="M114 402l32 147h231l61 365h-231l31 147h231l55 315h162l-53 -315h333l54 315h164l-56 -315h234l-31 -147h-233l-62 -365h234l-31 -147h-231l-56 -316h-162l56 316h-336l-54 -316h-163l55 316h-234zM540 549h334l62 365h-334z" />
<glyph unicode="$" horiz-adv-x="1194" d="M102 1046q0 110 54 199.5t148 141t208 55.5v143h164v-135q174 -4 336 -58l-31 -228q-152 64 -305 63v-365l59 -24q196 -80 276.5 -179.5t80.5 -232.5q0 -136 -64 -228t-159 -140t-193 -62v-144h-164v132q-210 4 -396 72l32 249q176 -75 364 -79v398l-47 23 q-104 52 -147 75t-96 68.5t-86 109.5q-34 62 -34 146zM393 1077q0 -105 129 -153v286q-60 -13 -94.5 -50.5t-34.5 -82.5zM666 252q58 18 93 55.5t35 83.5q0 106 -128 158v-297z" />
<glyph unicode="%" horiz-adv-x="1810" d="M123 1050q0 118 39.5 208.5t116.5 141t184 50.5t184 -50t116.5 -141t39.5 -209t-39.5 -208t-116 -140t-184.5 -50t-184.5 50t-116.5 140q-39 90 -39 208zM356 1050q0 -128 19 -197t88 -69q68 0 87 70q20 68 20 196t-19.5 197.5t-87.5 69.5q-69 0 -88 -69.5t-19 -197.5z M385 56l891 1433l156 -97l-894 -1439zM1008 383q0 179 89 289t251 110q107 0 184 -50t116.5 -141t39.5 -208q0 -118 -39.5 -208.5t-117 -140.5t-183.5 -50q-162 0 -251 110t-89 289zM1241 383q0 -128 18.5 -197.5t88.5 -69.5q69 0 87.5 70t18.5 197q0 128 -18.5 197 t-87.5 69t-88 -69.5t-19 -196.5z" />
<glyph unicode="&#x26;" horiz-adv-x="1519" d="M92 420q0 134 87 235t217 143q-90 97 -133.5 168.5t-43.5 159.5q0 84 41.5 161t133.5 126t234 49q138 0 236.5 -43t147.5 -117q49 -76 49 -166q0 -148 -93.5 -239t-193.5 -135l272 -306q88 133 88 320h252q-8 -308 -184 -508l236 -268h-336l-86 94q-91 -66 -190 -95 t-232 -29q-174 0 -286 65t-164 168t-52 217zM372 408q0 -88 64 -158t174 -70q148 0 258 92l-326 361q-62 -26 -116 -82q-54 -55 -54 -143zM498 1140q0 -76 90 -169l45 -47q68 28 120 82t52 124q0 59 -47 96.5t-109 37.5q-66 0 -108.5 -34t-42.5 -90z" />
<glyph unicode="'" horiz-adv-x="526" d="M123 1434h281l-50 -531h-182z" />
<glyph unicode="(" horiz-adv-x="772" d="M82 498q0 112 17.5 213t57 210t107 236t164.5 277h262q-76 -123 -135 -239.5t-98 -227.5t-59.5 -228t-20.5 -241q0 -243 76.5 -459.5t236.5 -476.5h-262q-98 152 -165 278t-106.5 235t-57 210t-17.5 213z" />
<glyph unicode=")" horiz-adv-x="772" d="M82 -438q78 124 136 238t97 225t60 229q21 120 21 244q0 164 -36 316t-104 301t-174 319h262q96 -148 164.5 -277t108 -237t56.5 -209t17 -213q0 -146 -32 -282.5t-107.5 -294t-206.5 -359.5h-262z" />
<glyph unicode="*" horiz-adv-x="989" d="M102 580l252 122l-252 122l92 157l228 -157l-20 278h184l-23 -278l231 157l93 -157l-252 -122l252 -122l-93 -158l-231 158l23 -279h-184l20 279l-228 -158z" />
<glyph unicode="+" d="M92 622v185h438v438h185v-438h438v-185h-438v-438h-185v438h-438z" />
<glyph unicode="," horiz-adv-x="588" d="M102 -236l96 512h288l-142 -512h-242z" />
<glyph unicode="-" horiz-adv-x="1071" d="M123 479v240h825v-240h-825z" />
<glyph unicode="." horiz-adv-x="532" d="M123 0v291h287v-291h-287z" />
<glyph unicode="/" horiz-adv-x="1278" d="M62 -528l999 2150l155 -68l-1005 -2150z" />
<glyph unicode="0" horiz-adv-x="1216" d="M92 717q0 236 50 387t128.5 225t162 97.5t175.5 23.5q128 0 240 -49t194 -212t82 -472q0 -310 -82 -472.5t-194 -211.5t-240 -49t-240 49t-194 211.5t-82 472.5zM389 717q0 -217 41.5 -362.5t177.5 -145.5q94 0 143 78.5t63 187.5t14 242q0 216 -42 361.5t-178 145.5 t-177.5 -145t-41.5 -362z" />
<glyph unicode="1" horiz-adv-x="878" d="M62 1075l411 359h262v-1434h-291v1120l-80 -72l-166 -143z" />
<glyph unicode="2" horiz-adv-x="1173" d="M102 0v238q186 166 305.5 288t189 215t98 163t28.5 132q0 90 -67.5 137t-176.5 47q-72 0 -161.5 -30.5t-169.5 -77.5l-25 234q228 104 434 104q180 0 285.5 -61t146.5 -147t41 -169q0 -102 -53 -217.5t-139 -227.5t-191 -214t-211 -182l2 -6l140 10h493v-236h-969z" />
<glyph unicode="3" horiz-adv-x="1181" d="M102 43l14 241q178 -76 340 -75q150 0 218 64t68 151q0 207 -314 207h-148v225h134q178 0 247.5 55t69.5 152q0 70 -59.5 115.5t-192.5 45.5q-163 0 -327 -63l-17 233q197 56 389 56q205 0 320 -60t154 -140q40 -80 40 -158q0 -129 -70 -221.5t-196 -110.5v-6 q90 -16 152 -67t93 -123t31 -148t-30 -150.5t-100 -139t-186 -103.5t-278 -39q-164 0 -352 59z" />
<glyph unicode="4" horiz-adv-x="1261" d="M82 284v246l540 904h376v-924h182v-226h-182v-284h-292v284h-624zM348 512l2 -4l102 2h254v477l4 158h-4l-296 -535z" />
<glyph unicode="5" horiz-adv-x="1181" d="M133 37l7 252q168 -72 286 -72q114 0 185 36.5t101 92t30 117.5q0 93 -69 167t-227 74q-164 0 -288 -40v770h844v-226h-554v-284q54 6 99 6q135 0 249 -48t183 -154t69 -269q0 -119 -55 -227t-183 -178t-328 -70q-188 0 -349 53z" />
<glyph unicode="6" horiz-adv-x="1198" d="M92 678q0 323 98 494.5t232 224.5q132 53 280 53q176 0 314 -47l-33 -231q-129 52 -256 52q-143 0 -220 -71t-102 -162t-26 -174h6q48 67 112.5 104t162.5 37q88 0 168 -28t143 -86t99 -147t36 -207q0 -224 -125 -365t-371 -141q-230 0 -345 115t-144 261.5t-29 317.5z M406 471q0 -142 57 -202t139 -60q84 0 140 60t56 202t-56 202t-140 60t-140 -60t-56 -202z" />
<glyph unicode="7" horiz-adv-x="1059" d="M62 1208v226h936v-216l-525 -1218h-325l552 1208h-638z" />
<glyph unicode="8" d="M112 406q0 42 15 104.5t71.5 134t167.5 107.5q-96 42 -154 124t-58 191q0 92 38 165.5t104 121.5t150 72t176 24q146 0 253 -46.5t162 -127.5q55 -80 55 -182q0 -113 -60 -198.5t-164 -123.5q118 -41 191 -133.5t73 -228.5q0 -144 -74 -240t-192 -141t-244 -45 q-124 0 -239.5 40t-193 135t-77.5 247zM410 400q0 -83 60 -137t152 -54q102 0 158 55q56 56 56 136q0 144 -240 233q-186 -83 -186 -233zM430 1069q0 -74 56.5 -118.5t156.5 -86.5q75 28 123.5 87t48.5 118q0 70 -55.5 116t-137.5 46q-75 0 -133.5 -44.5t-58.5 -117.5z" />
<glyph unicode="9" horiz-adv-x="1198" d="M92 944q0 146 54 260t165 180t277 66q230 0 345 -115t144 -262t29 -317q0 -323 -98 -495t-232 -225q-132 -52 -280 -52q-176 0 -314 46l33 232q133 -53 256 -53q144 0 221 71.5t101.5 161.5t25.5 174h-6q-101 -142 -275 -141q-118 0 -220 51.5t-164 156.5t-62 261z M400 962q0 -142 57 -202t139 -60t139 60t57 202t-56 202t-140 60t-140 -60t-56 -202z" />
<glyph unicode=":" horiz-adv-x="532" d="M123 0v291h287v-291h-287zM123 770v291h287v-291h-287z" />
<glyph unicode=";" horiz-adv-x="588" d="M102 -236l96 512h288l-142 -512h-242zM180 770v291h287v-291h-287z" />
<glyph unicode="&#x3c;" horiz-adv-x="1376" d="M114 733l1096 600v-217l-698 -387l698 -387v-217z" />
<glyph unicode="=" horiz-adv-x="1308" d="M123 428v184h1061v-184h-1061zM125 817v185h1061v-185h-1061z" />
<glyph unicode="&#x3e;" horiz-adv-x="1376" d="M166 125v217l698 387l-698 387v217l1096 -600z" />
<glyph unicode="?" horiz-adv-x="1081" d="M102 1386q191 66 400 66q174 0 281.5 -54.5t151.5 -134t44 -157.5q0 -118 -50.5 -208t-150.5 -192q-72 -72 -107.5 -125t-35.5 -133v-40h-267v40q0 72 17.5 128t56.5 114q40 60 113 146q59 70 88 116t29 105q0 75 -46 123.5t-155 48.5q-192 0 -348 -76zM358 0v254h287 v-254h-287z" />
<glyph unicode="@" horiz-adv-x="1618" d="M92 717q0 140 52 271.5t150 236.5t234 165t298 60q184 0 344 -72t258 -218.5t98 -356.5q0 -135 -51 -237t-133 -156q-80 -54 -172 -54q-78 0 -127 48t-49 124h-7q-78 -150 -258 -149q-100 0 -184 72.5t-84 212.5q0 124 46 222t126 152t174 54q146 0 207 -132h6l14 99h162 l-64 -447q0 -48 20 -69t42 -21q40 0 82.5 34t71 98t28.5 149q0 120 -44.5 213.5t-122 156.5t-175.5 95t-208 32q-126 0 -234.5 -47t-187 -129.5t-120.5 -188t-42 -218.5q0 -148 73 -282.5t211.5 -218t319.5 -83.5q198 0 358 82l62 -137q-184 -94 -426 -94q-168 0 -308 59.5 t-238 163.5t-150 236.5t-52 273.5zM662 668q0 -78 42 -112q40 -34 86 -34q56 0 110 52.5t68 158.5q2 22 3 68q0 70 -37.5 107.5t-91.5 37.5q-74 0 -127 -76t-53 -202z" />
<glyph unicode="A" horiz-adv-x="1534" d="M30 0l572 1434h332l569 -1434h-327l-122 322h-591l-121 -322h-312zM555 559h413l-210 586h-4z" />
<glyph unicode="B" horiz-adv-x="1282" d="M144 0v1434h470q98 0 203 -23t190 -102t85 -229q0 -149 -71 -225.5t-163 -104.5v-4q130 -19 215.5 -110.5t85.5 -231.5q0 -94 -44.5 -185t-170.5 -155t-348 -64h-452zM434 226h162q82 0 139.5 25t87 70t29.5 105q0 200 -256 200h-162v-400zM434 852h142q128 0 175 57.5 t47 120.5q0 68 -48 123t-187 55h-129v-356z" />
<glyph unicode="C" horiz-adv-x="1290" d="M92 708q0 168 55 306t159 235.5t253 149t332 51.5q163 0 317 -49l-12 -246q-132 53 -284 53q-147 0 -263.5 -58t-182.5 -170t-66 -268q0 -172 71 -281.5t183 -157t237 -47.5q160 0 299 63l18 -244q-184 -61 -370 -61q-152 0 -288 46t-239 138t-161 229t-58 311z" />
<glyph unicode="D" horiz-adv-x="1468" d="M144 0v1434h452q116 0 235 -19t246 -88t213 -218.5t86 -391.5q0 -234 -81.5 -382.5t-204.5 -219.5t-248.5 -93t-245.5 -22h-452zM434 242h166q208 0 312.5 93.5t130.5 197t26 184.5t-26 184t-130.5 197t-312.5 94h-166v-950z" />
<glyph unicode="E" horiz-adv-x="1102" d="M144 0v1434h856v-254h-566v-324h514v-236h-514v-366h566v-254h-856z" />
<glyph unicode="F" horiz-adv-x="1007" d="M144 0v1434h802v-242h-512v-348h488v-236h-488v-608h-290z" />
<glyph unicode="G" horiz-adv-x="1493" d="M92 717q0 186 61 326t170 230.5t251 133.5t310 43q232 0 420 -62l-16 -256q-184 84 -410 84q-154 0 -262 -64t-162 -178t-54 -257q0 -140 53 -252.5t158 -175.5t255 -63q117 0 193 28v342h-293v225h584v-759q-276 -78 -502 -78q-240 0 -411 93t-258 259t-87 381z" />
<glyph unicode="H" horiz-adv-x="1450" d="M144 0v1434h290v-578h582v578h290v-1434h-290v620h-582v-620h-290z" />
<glyph unicode="I" horiz-adv-x="577" d="M144 0v1434h290v-1434h-290z" />
<glyph unicode="J" horiz-adv-x="776" d="M41 10v234q74 -18 139 -18q88 0 125 50t37 160v998h291v-1018q0 -83 -10 -151.5t-46.5 -133.5t-113.5 -106t-201 -41q-109 0 -221 26z" />
<glyph unicode="K" horiz-adv-x="1356" d="M144 0v1434h290v-613h6l518 613h346l-598 -650l636 -784h-369l-533 712h-6v-712h-290z" />
<glyph unicode="L" horiz-adv-x="1044" d="M144 0v1434h290v-1192h570v-242h-860z" />
<glyph unicode="M" horiz-adv-x="1976" d="M144 0v1434h491l287 -834l63 -254h6l63 254l288 834h491v-1434h-291v1008l4 221h-6l-66 -205l-348 -1024h-276l-348 1024l-66 205h-6l4 -221v-1008h-290z" />
<glyph unicode="N" horiz-adv-x="1526" d="M144 0v1434h376l496 -904l76 -194h6l-6 254v844h290v-1434h-376l-500 938l-72 160h-6l6 -254v-844h-290z" />
<glyph unicode="O" horiz-adv-x="1589" d="M92 717q0 232 91 397.5t250 250.5t361 85t362 -85t250.5 -251t90.5 -397t-90.5 -397t-250.5 -251t-362 -85t-361 85t-250 251t-91 397zM400 717q0 -208 62.5 -325.5t151 -160.5t180.5 -43q66 0 133 22t127 79t98 163t38 265q0 208 -63 325.5t-152 160t-181 42.5 t-180.5 -42.5t-151 -160.5t-62.5 -325z" />
<glyph unicode="P" horiz-adv-x="1200" d="M144 0v1434h424q316 0 433 -144t117 -305q0 -114 -55 -216.5t-168 -166.5t-275 -64h-186v-538h-290zM434 764h134q116 0 179.5 66t63.5 164q0 92 -58.5 153t-184.5 61h-134v-444z" />
<glyph unicode="Q" horiz-adv-x="1589" d="M92 717q0 232 91 397.5t250 250.5t361 85q203 0 362.5 -85t250 -250.5t90.5 -397.5q0 -195 -80.5 -385.5t-326.5 -292.5l334 -309h-344l-265 254q-185 0 -349.5 72t-269 237t-104.5 424zM400 717q0 -208 62.5 -325.5t151 -160.5t180.5 -43q66 0 133 22t127 79t98 163 t38 265q0 208 -63 325.5t-152 160t-181 42.5t-180.5 -42.5t-151 -160.5t-62.5 -325z" />
<glyph unicode="R" horiz-adv-x="1423" d="M205 0v1434h507q272 0 377 -114t105 -276q0 -148 -82 -228t-194 -106v-4q52 -12 87 -50t62 -101l233 -555h-325l-185 454q-29 71 -72.5 103.5t-111.5 32.5h-110v-590h-291zM496 815h156q129 0 186 63.5t57 135.5q0 74 -51.5 134t-191.5 60h-156v-393z" />
<glyph unicode="S" horiz-adv-x="1130" d="M102 1046q0 80 36 172t137 162t278 70q229 0 409 -62l-30 -229q-170 70 -314 70q-122 0 -168 -48t-46 -104q0 -80 53 -124.5t137 -80.5q150 -64 233 -111t142 -134t59 -225q0 -80 -31 -154t-97 -134t-171 -95t-247 -35q-178 0 -374 72l32 249q82 -37 181 -61.5t173 -24.5 q102 0 165.5 50.5t63.5 121.5q0 52 -21.5 88t-57.5 61t-92 51.5t-118 55.5q-110 56 -181 106t-111 121.5t-40 171.5z" />
<glyph unicode="T" horiz-adv-x="1179" d="M30 1180v254h1119v-254h-414v-1180h-291v1180h-414z" />
<glyph unicode="U" horiz-adv-x="1483" d="M144 545v889h290v-889q0 -336 308 -336q306 0 306 336v889h292v-889q0 -176 -56.5 -289t-146 -172t-188.5 -79.5t-203 -20.5q-148 0 -282 42t-227 167t-93 352z" />
<glyph unicode="V" horiz-adv-x="1435" d="M41 1434h311l310 -932l63 -222h4l61 222l314 932h290l-495 -1434h-359z" />
<glyph unicode="W" horiz-adv-x="2136" d="M41 1434h305l213 -856l61 -324h4l58 324l192 856h394l202 -856l60 -324h4l60 324l208 856h293l-387 -1434h-368l-220 932l-49 274h-4l-45 -274l-211 -932h-375z" />
<glyph unicode="X" horiz-adv-x="1431" d="M41 0l479 750l-436 684h344l230 -400l65 -120h6l65 120l236 400h318l-436 -684l478 -750h-344l-274 454l-62 111h-6l-61 -111l-285 -454h-317z" />
<glyph unicode="Y" horiz-adv-x="1343" d="M4 1434h336l295 -504l45 -98h6l49 98l297 504h308l-516 -852v-582h-292v586z" />
<glyph unicode="Z" horiz-adv-x="1210" d="M102 0v244l668 940l-166 -4h-483v254h965v-250l-662 -930h684v-254h-1006z" />
<glyph unicode="[" horiz-adv-x="739" d="M123 -446v1986h514v-202h-237v-1582h237v-202h-514z" />
<glyph unicode="\" horiz-adv-x="1306" d="M164 1434l156 55l823 -1952l-154 -57z" />
<glyph unicode="]" horiz-adv-x="739" d="M102 -244h238v1582h-238v202h514v-1986h-514v202z" />
<glyph unicode="^" horiz-adv-x="1194" d="M114 244l480 770l486 -770h-238l-246 391l-244 -391h-238z" />
<glyph unicode="_" horiz-adv-x="1003" d="M0 -242h1004v-184h-1004v184z" />
<glyph unicode="`" horiz-adv-x="702" d="M110 1501h288l180 -327h-170z" />
<glyph unicode="a" horiz-adv-x="1190" d="M72 307q0 152 119 251.5t407 99.5h80q26 -2 76 -2h24l-2 44q-4 92 -70 137q-68 45 -168 45q-85 0 -165.5 -20t-174.5 -74v220q174 69 384 69h6q206 0 309.5 -67.5t131.5 -154.5t28 -185v-670h-273v156h-4q-52 -102 -147 -137t-185 -35q-133 0 -217.5 47t-121.5 121 t-37 155zM354 309q0 -58 40 -97.5t130 -39.5q70 0 128 28t92 92q34 62 34 162v28h-47q-170 0 -273.5 -32t-103.5 -141z" />
<glyph unicode="b" d="M133 0v1536h279v-444l-6 -174h4q93 159 302 159h3q152 0 255.5 -74.5t153.5 -198.5q50 -126 50 -274q0 -182 -66 -306t-168.5 -182t-212.5 -58q-96 0 -193 42q-98 40 -153 158h-4v-184h-244zM412 530q0 -100 31 -174t85 -112.5t119 -38.5q100 0 167.5 87.5t67.5 237.5 q0 99 -31.5 173.5t-85 113.5t-118.5 39t-119 -39t-85 -113t-31 -174z" />
<glyph unicode="c" horiz-adv-x="948" d="M72 540q0 136 61.5 258.5t191 200.5t320.5 78q122 -1 235 -29l-16 -200q-70 28 -172 28q-98 0 -173.5 -46t-116 -127t-40.5 -177q0 -102 41 -180t112 -120t159 -42q120 0 213 44l10 -204q-127 -40 -273 -40q-190 0 -314.5 83t-181.5 211q-56 128 -56 262z" />
<glyph unicode="d" horiz-adv-x="1239" d="M72 530q0 172 62 295.5t167 187.5t229 64h2q198 0 304 -159h4l-6 174v444h278v-1536h-244v184h-4q-109 -200 -346 -200q-92 0 -173 34.5t-143 103.5t-96 173.5t-34 234.5zM362 530q0 -100 31.5 -174t85.5 -112.5t119 -38.5q100 0 168 87.5t68 237.5q0 99 -32 173.5 t-86 113.5t-118 39q-65 0 -119 -39t-85 -113q-32 -74 -32 -174z" />
<glyph unicode="e" horiz-adv-x="1157" d="M72 530q0 154 65 279.5t185 196.5t274 71q130 0 241 -55t180 -182.5t69 -329.5v-64h-724q8 -118 91 -190t225 -72q166 0 332 74v-209q-176 -65 -367 -65q-112 0 -212.5 30t-182.5 95.5t-129 171t-47 249.5zM362 637h436q0 118 -62 183q-62 64 -156 64q-64 0 -114 -35 t-76.5 -92.5t-27.5 -119.5z" />
<glyph unicode="f" horiz-adv-x="829" d="M41 856v205h205v75q0 177 61.5 296.5t282.5 119.5q98 0 198 -24l-8 -195q-54 15 -106 15q-67 0 -99.5 -26t-41.5 -72t-9 -128v-61h250v-205h-250v-856h-278v856h-205z" />
<glyph unicode="g" horiz-adv-x="1253" d="M72 526q0 170 59.5 293t159.5 185.5t217 62.5q113 0 205 -44.5t139 -140.5h6v179h262v-977q0 -124 -36 -241.5t-156 -207t-348 -89.5q-212 0 -396 73l23 233q175 -88 327 -88q142 0 225 72t83 213v139h-6q-84 -192 -324 -192q-108 0 -191.5 43t-138 116t-82.5 169 t-28 202zM362 532q0 -117 36 -187t92 -99t118 -29q103 0 168.5 90.5t65.5 245.5q0 126 -66 207.5t-188 81.5q-104 0 -165 -86q-61 -88 -61 -224z" />
<glyph unicode="h" horiz-adv-x="1253" d="M133 0v1536h279v-477l-10 -164h6q70 104 165 143t173 39q176 0 275 -97q99 -98 99 -278v-702h-278v610q0 106 -34 173t-146 67q-93 0 -172 -78q-78 -80 -78 -244v-528h-279z" />
<glyph unicode="i" horiz-adv-x="553" d="M133 1218v288h287v-288h-287zM137 0v1061h279v-1061h-279z" />
<glyph unicode="j" horiz-adv-x="532" d="M-41 -244q27 -8 71 -8q57 0 77 38t20 120v1155h279v-1145q0 -158 -58 -265t-266 -107q-52 0 -123 16v196zM123 1241v258h287v-258h-287z" />
<glyph unicode="k" horiz-adv-x="1130" d="M133 0v1536h279v-916h10l332 441h319l-389 -481l426 -580h-340l-348 538h-10v-538h-279z" />
<glyph unicode="l" horiz-adv-x="545" d="M133 0v1536h279v-1536h-279z" />
<glyph unicode="m" horiz-adv-x="1847" d="M133 0v1061h265v-181h6q28 62 76 106t112 67.5t137 23.5q84 0 170.5 -37.5t120.5 -161.5h6q68 123 167 161t181 38q208 0 274 -116.5t66 -254.5v-706h-278v596q0 116 -29 185t-129 69q-92 0 -153.5 -73t-61.5 -191v-586h-279v596q0 115 -28 184.5t-125 69.5 q-92 0 -155 -70q-64 -68 -64 -194v-586h-279z" />
<glyph unicode="n" horiz-adv-x="1253" d="M133 0v1061h269v-166h6q70 106 164 144t172 38q102 0 188 -36.5t137 -111.5t51 -185v-744h-278v641q0 91 -47 150t-133 59q-74 0 -132 -40.5t-88 -104.5q-30 -63 -30 -133v-572h-279z" />
<glyph unicode="o" horiz-adv-x="1239" d="M72 530q0 246 146 396.5t402 150.5q129 0 231 -38.5t172.5 -111t107.5 -174t37 -223.5q0 -162 -65 -286t-189 -192t-294 -68q-171 0 -294.5 68.5t-188.5 192t-65 285.5zM362 530q0 -108 34 -186.5t93 -119t131 -40.5q110 0 183 92q73 90 73 254t-72 255q-74 91 -184 91 q-72 0 -131 -40t-93 -118.5t-34 -187.5z" />
<glyph unicode="p" d="M133 -438v1499h244v-185h4q54 92 142.5 146.5t203.5 54.5q135 0 236 -61.5t156 -185.5t55 -300q0 -149 -41 -255.5t-108.5 -170.5t-147 -92t-162.5 -28q-199 0 -305 160h-4l6 -174v-408h-279zM412 530q0 -100 31 -174t85 -112.5t119 -38.5q100 0 167.5 87.5t67.5 237.5 q0 99 -31.5 173.5t-85 113.5t-118.5 39t-119 -39t-85 -113t-31 -174z" />
<glyph unicode="q" d="M72 532q0 167 55 290.5t157 189t234 65.5q240 -1 346 -199h4v183h244v-1497h-278v408l6 174h-4q-108 -162 -306 -162q-82 0 -163 29t-148 93.5t-107 172t-40 253.5zM362 530q0 -100 31.5 -174t85.5 -112.5t119 -38.5q100 0 168 87.5t68 237.5q0 99 -32 173.5t-86 113.5 t-118 39q-65 0 -119 -39t-85 -113q-32 -74 -32 -174z" />
<glyph unicode="r" horiz-adv-x="811" d="M133 0v1061h254v-229h6q22 110 98.5 177.5t186.5 67.5q39 0 92 -12l-10 -203q-36 6 -90 6q-94 0 -176 -77t-82 -281v-510h-279z" />
<glyph unicode="s" horiz-adv-x="930" d="M82 45l12 217q165 -72 299 -72q92 0 134.5 34t42.5 81q0 60 -43.5 87.5t-141.5 61.5q-92 34 -151 69t-96.5 93t-37.5 148q0 78 39 150t126 117.5t223 45.5q196 0 340 -45l-25 -200q-130 50 -242 50q-107 0 -146.5 -34t-39.5 -76q0 -53 37 -78q36 -24 124 -53 q129 -40 220.5 -108.5t91.5 -220.5q0 -172 -129 -250t-285 -78q-78 0 -176 17.5t-176 43.5z" />
<glyph unicode="t" horiz-adv-x="811" d="M20 856v205h210v211l278 88v-299h246v-205h-246v-481q0 -62 8 -100.5t38 -62.5t91 -24q59 0 109 19v-197q-116 -26 -216 -26q-308 0 -308 328v544h-210z" />
<glyph unicode="u" horiz-adv-x="1253" d="M133 375v686h279v-641q0 -209 180 -209q72 0 129 38t89 104q32 67 32 147v561h278v-1061h-268v166h-6q-69 -106 -163.5 -144t-172.5 -38q-235 0 -306 126t-71 265z" />
<glyph unicode="v" horiz-adv-x="1157" d="M20 1061h306l223 -655l43 -156h6l39 156l215 655h284l-390 -1061h-328z" />
<glyph unicode="w" horiz-adv-x="1861" d="M20 1061h298l176 -588l53 -217h4l49 223l174 582h330l180 -588l54 -219h4l50 221l168 586h281l-348 -1061h-329l-196 660l-40 176h-6l-38 -174l-184 -662h-330z" />
<glyph unicode="x" horiz-adv-x="1161" d="M20 0l357 547l-326 514h332l147 -248l62 -121h6l64 125l139 244h309l-326 -514l356 -547h-331l-176 282l-63 120h-7l-65 -124l-168 -278h-310z" />
<glyph unicode="y" horiz-adv-x="1128" d="M6 1061h308l198 -586l60 -203h10l65 212l193 577h282l-448 -1190q-40 -102 -79 -166.5t-125 -110.5t-230 -46q-77 0 -162 28l20 207q54 -23 109 -23q78 0 122.5 27.5t70.5 91.5l24 61z" />
<glyph unicode="z" horiz-adv-x="1100" d="M102 0v211l472 541l92 98v6h-537v205h848v-205l-453 -542l-94 -103v-6h568v-205h-896z" />
<glyph unicode="{" horiz-adv-x="909" d="M62 444v205h44q176 -1 176 219v281q0 108 26 190.5t126 141.5t299 59h45l8 -202h-22q-97 0 -144.5 -32t-59 -79t-11.5 -121v-198q0 -132 -32.5 -219t-144.5 -124l-36 -12v-13l36 -12q110 -36 143.5 -123t33.5 -219v-198q0 -106 31.5 -157t75.5 -63t108 -12h22l-8 -202 h-45q-198 0 -298.5 59t-126.5 141t-26 190v282q0 218 -176 218h-44z" />
<glyph unicode="|" horiz-adv-x="430" d="M123 -574v2157h184v-2157h-184z" />
<glyph unicode="}" horiz-adv-x="909" d="M123 -244h23q96 0 143 31.5t59 78.5q12 48 12 122v198q0 132 33 219t143 123l38 12v13l-38 12q-111 38 -143.5 124.5t-32.5 218.5v198q0 112 -37 172t-177 60h-23l8 202h45q200 0 299 -59t125 -141.5t26 -190.5v-281q0 -220 177 -219h45v-205h-45q-177 0 -177 -218v-282 q0 -108 -26 -190t-125 -141t-299 -59h-45z" />
<glyph unicode="~" horiz-adv-x="1233" d="M123 522q64 100 132.5 153.5t168.5 53.5q70 -1 137 -23q39 -14 96 -40t85 -36t63 -10q113 0 182 103l123 -92q-72 -104 -136 -155.5t-165 -51.5q-64 0 -114.5 16t-129.5 52q-90 40 -137 40q-48 0 -97 -24.5t-85 -77.5z" />
<glyph unicode="&#xa1;" horiz-adv-x="1360" d="M30 1434h326l285 -610l61 -152h6l62 154l272 608h287l-573 -1221q-56 -119 -146 -174t-233 -55q-73 0 -179 44l34 218q58 -31 122 -31q58 0 97 18q39 19 65 79l41 96zM312 1774l149 80q52 -134 229 -134q176 0 230 134l149 -80q-97 -240 -379 -240t-378 240z" />
<glyph unicode="&#xa2;" horiz-adv-x="1159" d="M20 1061h310l200 -590l64 -199h4l66 212l192 577h282l-448 -1190q-32 -88 -75 -155.5t-131 -117.5t-228 -50q-75 0 -164 28l20 207q66 -23 111 -23q147 0 193 119l24 61zM244 1468l102 94q78 -114 236 -114q164 0 235 114l103 -94q-106 -200 -338 -200q-230 0 -338 200z " />
<glyph unicode="&#xa3;" horiz-adv-x="776" d="M41 10v234q74 -18 139 -18q88 0 125 50t37 160v998h291v-1018q0 -83 -10 -151.5t-46.5 -133.5t-113.5 -106t-201 -41q-109 0 -221 26z" />
<glyph unicode="&#xa5;" horiz-adv-x="1044" d="M144 0v1434h589v284h291v-538h-590v-1180h-290z" />
<glyph unicode="&#xa8;" horiz-adv-x="1102" d="M144 0v1434h856v-254h-566v-324h514v-236h-514v-366h566v-254h-856zM228 1634v236h235v-236h-235zM696 1634v236h236v-236h-236z" />
<glyph unicode="&#xa9;" horiz-adv-x="1712" d="M123 717q0 162 61.5 298.5t166.5 233.5t237.5 149t267.5 52q162 0 297.5 -62t233 -167t150 -236t52.5 -268t-51.5 -268t-149 -237t-234 -167t-298.5 -61q-136 0 -267 52.5t-237 150t-167.5 234t-61.5 296.5zM293 717q0 -164 80.5 -293.5t211 -199.5t271.5 -70 q164 0 293 80.5t200 211t71 271.5t-70.5 271t-200 211t-293.5 81q-141 0 -271.5 -70t-211 -199.5t-80.5 -293.5zM520 735q0 94 39 176.5t124 134.5t214 52q92 0 168 -25l-8 -137q-61 20 -139 20q-38 0 -83.5 -18t-80.5 -68t-35 -135q0 -83 28.5 -139t74.5 -83t98 -27 q78 0 147 30l8 -141q-86 -33 -178 -33q-138 0 -222 58t-119.5 147t-35.5 188z" />
<glyph unicode="&#xab;" horiz-adv-x="1204" d="M82 645l248 416h288l-248 -416l248 -432h-288zM586 645l248 416h288l-248 -416l248 -432h-288z" />
<glyph unicode="&#xae;" horiz-adv-x="1712" d="M123 717q0 162 61.5 298.5t166.5 233.5t237.5 149t267.5 52q162 0 297.5 -62t233 -167t150 -236t52.5 -268t-51.5 -268t-149 -237t-234 -167t-298.5 -61q-136 0 -267 52.5t-237 150t-167.5 234t-61.5 296.5zM293 717q0 -164 80.5 -293.5t211 -199.5t271.5 -70 q164 0 293 80.5t200 211t71 271.5t-70.5 271t-200 211t-293.5 81q-141 0 -271.5 -70t-211 -199.5t-80.5 -293.5zM580 340v748h325q75 0 132 -25t88.5 -71t31.5 -108q0 -68 -41.5 -114t-103.5 -60v-2q28 -6 49 -31t29 -46l120 -291h-198l-96 238q-7 20 -31 39.5t-66 19.5h-57 v-297h-182zM762 778h80q126 0 126 90q0 30 -28 54t-98 24h-80v-168z" />
<glyph unicode="&#xb4;" horiz-adv-x="903" d="M123 0v1061h483v249h264l2 -464h-470v-846h-279z" />
<glyph unicode="&#xb8;" horiz-adv-x="1157" d="M72 530q0 154 65 279.5t185 196.5t274 71q130 0 241 -55t180 -182.5t69 -329.5v-64h-724q8 -118 91 -190t225 -72q166 0 332 74v-209q-176 -65 -367 -65q-112 0 -212.5 30t-182.5 95.5t-129 171t-47 249.5zM260 1227v237h248v-237h-248zM362 637h436q0 118 -62 183 q-62 64 -156 64q-64 0 -114 -35t-76.5 -92.5t-27.5 -119.5zM652 1227v237h247v-237h-247z" />
<glyph unicode="&#xbb;" horiz-adv-x="1204" d="M82 213l248 432l-248 416h288l248 -416l-248 -432h-288zM586 213l248 432l-248 416h288l248 -416l-248 -432h-288z" />
<glyph unicode="&#xbf;" horiz-adv-x="942" d="M123 1218v288h277v-288h-277zM332 0v1061h278v-1061h-278zM542 1218v288h277v-288h-277z" />
<glyph unicode="&#x2013;" horiz-adv-x="1188" d="M92 618v185h1004v-185h-1004z" />
<glyph unicode="&#x2014;" horiz-adv-x="1745" d="M82 471v187h1581v-187h-1581z" />
<glyph unicode="&#x2018;" horiz-adv-x="588" d="M123 1198l96 512h246l-51 -512h-291z" />
<glyph unicode="&#x2019;" horiz-adv-x="592" d="M102 922l96 512h292l-142 -512h-246z" />
<glyph unicode="&#x201a;" horiz-adv-x="588" d="M102 -236l96 512h288l-142 -512h-242z" />
<glyph unicode="&#x201c;" horiz-adv-x="1079" d="M123 1198l96 512h246l-51 -512h-291zM614 1198l96 512h246l-51 -512h-291z" />
<glyph unicode="&#x201d;" horiz-adv-x="1124" d="M123 922l96 512h291l-142 -512h-245zM614 922l96 512h292l-142 -512h-246z" />
<glyph unicode="&#x201e;" horiz-adv-x="1124" d="M123 -236l96 512h291l-142 -512h-245zM614 -236l96 512h292l-142 -512h-246z" />
<glyph unicode="&#x2022;" horiz-adv-x="825" d="M62 717q0 102 50.5 182.5t133 125t168.5 44.5q101 0 181.5 -50.5t124.5 -132.5t44 -169q0 -88 -44 -168.5t-124 -131.5t-182 -51q-87 0 -169.5 44.5t-132.5 125t-50 181.5z" />
<glyph unicode="&#x2026;" horiz-adv-x="1505" d="M102 0v297h298v-297h-298zM604 0v297h297v-297h-297zM1106 0v297h297v-297h-297z" />
<glyph unicode="&#x2039;" horiz-adv-x="661" d="M82 645l238 416h260l-226 -416l226 -432h-260z" />
<glyph unicode="&#x203a;" horiz-adv-x="661" d="M82 213l225 432l-225 416h260l238 -416l-238 -432h-260z" />
<glyph unicode="&#x2122;" horiz-adv-x="2029" d="M123 1286v148h678v-148h-240v-616h-201v616h-237zM932 670v764h280l158 -436l43 -136h13l42 136l158 436h280v-764h-200v434l4 137h-6l-39 -123l-151 -448h-189l-151 448l-40 123h-6l4 -137v-434h-200z" />
<glyph unicode="&#xe000;" horiz-adv-x="1060" d="M0 0v1060h1060v-1060h-1060z" />
</font>
</defs>
</svg>
