<?xml version="1.0" encoding="UTF-8"?>
<svg xmlns="http://www.w3.org/2000/svg" xmlns:xlink="http://www.w3.org/1999/xlink" width="18px" height="18px" viewBox="0 0 18 18" version="1.1">
<g id="surface1">
<path style=" stroke:none;fill-rule:nonzero;fill:rgb(0%,0%,0%);fill-opacity:1;" d="M 15.6875 0.265625 C 15.363281 0.355469 15.117188 0.496094 14.867188 0.730469 C 14.179688 1.382812 14.085938 2.421875 14.65625 3.175781 C 15.085938 3.746094 15.800781 4.027344 16.46875 3.890625 C 16.625 3.859375 16.855469 3.78125 16.980469 3.71875 C 17.265625 3.582031 17.628906 3.226562 17.78125 2.933594 C 18.304688 1.933594 17.816406 0.691406 16.75 0.3125 C 16.472656 0.214844 15.945312 0.191406 15.6875 0.265625 Z M 16.398438 1.308594 C 16.601562 1.371094 16.847656 1.625 16.90625 1.839844 C 17.035156 2.292969 16.769531 2.734375 16.304688 2.851562 C 15.980469 2.929688 15.617188 2.765625 15.441406 2.464844 C 15.363281 2.332031 15.34375 2.261719 15.34375 2.074219 C 15.347656 1.503906 15.84375 1.144531 16.398438 1.308594 Z M 16.398438 1.308594 "/>
<path style=" stroke:none;fill-rule:nonzero;fill:rgb(0%,0%,0%);fill-opacity:1;" d="M 10.179688 3.34375 C 10.109375 3.617188 10.0625 3.851562 10.078125 3.867188 C 10.09375 3.882812 10.367188 3.957031 10.6875 4.042969 C 11.007812 4.125 11.28125 4.203125 11.296875 4.21875 C 11.308594 4.230469 10.707031 4.59375 9.960938 5.027344 C 9.210938 5.457031 8.59375 5.816406 8.585938 5.820312 C 8.5625 5.835938 9.089844 6.714844 9.125 6.714844 C 9.144531 6.710938 9.765625 6.359375 10.511719 5.925781 C 11.257812 5.496094 11.867188 5.148438 11.871094 5.148438 C 11.875 5.148438 11.800781 5.441406 11.703125 5.796875 C 11.609375 6.152344 11.535156 6.449219 11.539062 6.453125 C 11.574219 6.476562 12.53125 6.714844 12.542969 6.699219 C 12.566406 6.675781 13.367188 3.683594 13.351562 3.671875 C 13.34375 3.667969 12.683594 3.484375 11.882812 3.269531 C 11.082031 3.054688 10.398438 2.871094 10.367188 2.863281 C 10.320312 2.851562 10.285156 2.9375 10.179688 3.34375 Z M 10.179688 3.34375 "/>
<path style=" stroke:none;fill-rule:nonzero;fill:rgb(0%,0%,0%);fill-opacity:1;" d="M 3.761719 4.894531 C 2.820312 4.964844 1.90625 5.398438 1.210938 6.097656 C 0.375 6.9375 -0.046875 8.03125 0.0117188 9.195312 C 0.105469 11.109375 1.488281 12.695312 3.382812 13.0625 C 3.761719 13.132812 4.496094 13.132812 4.875 13.0625 C 6.84375 12.683594 8.261719 10.984375 8.261719 9 C 8.261719 7.46875 7.394531 6.039062 6.03125 5.335938 C 5.320312 4.972656 4.59375 4.828125 3.761719 4.894531 Z M 4.851562 6.015625 C 5.015625 6.054688 5.292969 6.152344 5.46875 6.242188 C 7.503906 7.226562 7.816406 9.976562 6.054688 11.394531 C 4.714844 12.472656 2.71875 12.226562 1.6875 10.855469 C 1.4375 10.527344 1.261719 10.164062 1.152344 9.765625 C 1.039062 9.351562 1.039062 8.648438 1.152344 8.234375 C 1.492188 6.972656 2.5625 6.058594 3.832031 5.945312 C 4.1875 5.914062 4.492188 5.933594 4.851562 6.015625 Z M 4.851562 6.015625 "/>
<path style=" stroke:none;fill-rule:nonzero;fill:rgb(0%,0%,0%);fill-opacity:1;" d="M 8.832031 11.726562 C 8.691406 11.972656 8.582031 12.179688 8.585938 12.179688 C 8.59375 12.183594 9.207031 12.539062 9.960938 12.972656 C 10.707031 13.40625 11.308594 13.769531 11.296875 13.785156 C 11.277344 13.796875 11.007812 13.875 10.6875 13.957031 C 10.367188 14.042969 10.09375 14.117188 10.078125 14.132812 C 10.0625 14.148438 10.109375 14.382812 10.179688 14.65625 C 10.285156 15.0625 10.320312 15.148438 10.367188 15.136719 C 10.398438 15.128906 11.082031 14.945312 11.882812 14.730469 C 12.683594 14.515625 13.34375 14.332031 13.351562 14.328125 C 13.367188 14.316406 12.566406 11.324219 12.542969 11.300781 C 12.53125 11.285156 11.574219 11.523438 11.539062 11.546875 C 11.535156 11.550781 11.609375 11.847656 11.703125 12.203125 C 11.800781 12.558594 11.875 12.851562 11.871094 12.851562 C 11.867188 12.851562 11.257812 12.503906 10.511719 12.074219 C 9.765625 11.640625 9.144531 11.289062 9.125 11.285156 C 9.105469 11.285156 8.972656 11.484375 8.832031 11.726562 Z M 8.832031 11.726562 "/>
<path style=" stroke:none;fill-rule:nonzero;fill:rgb(0%,0%,0%);fill-opacity:1;" d="M 15.75 14.117188 C 15.121094 14.253906 14.613281 14.699219 14.394531 15.3125 C 13.941406 16.546875 14.929688 17.863281 16.242188 17.777344 C 17.203125 17.71875 17.925781 16.996094 17.988281 16.03125 C 18.050781 15.132812 17.40625 14.304688 16.507812 14.117188 C 16.207031 14.050781 16.046875 14.050781 15.75 14.117188 Z M 16.363281 15.167969 C 16.59375 15.238281 16.75 15.367188 16.855469 15.582031 C 17.015625 15.90625 16.960938 16.226562 16.699219 16.488281 C 16.183594 17.003906 15.351562 16.660156 15.34375 15.925781 C 15.34375 15.554688 15.546875 15.277344 15.902344 15.167969 C 16.09375 15.105469 16.164062 15.105469 16.363281 15.167969 Z M 16.363281 15.167969 "/>
</g>
</svg>
