<?xml version="1.0"?>
<svg xmlns="http://www.w3.org/2000/svg" xmlns:xlink="http://www.w3.org/1999/xlink" aria-hidden="true" width="1em" height="1em" viewBox="0 0 512 512" data-icon="ion:ios-battery-dead" data-width="1em" data-height="1em" data-inline="false" class="iconify"><path d="M396 144H64c-26.4 0-48 21.6-48 48v128c0 26.4 21.6 48 48 48h332c26.4 0 48-21.6 48-48V192c0-26.4-21.6-48-48-48zm20 176c0 11-9 20-20 20H64c-11 0-20-9-20-20V192c0-11 9-20 20-20h332c11 0 20 9 20 20v128z" fill="#646464"/><path d="M464 204.6v102.8c16 0 32-27.7 32-51.4s-16-51.4-32-51.4z" fill="#646464"/></svg>
