<?xml version="1.0"?>
<svg xmlns="http://www.w3.org/2000/svg" xmlns:xlink="http://www.w3.org/1999/xlink" aria-hidden="true" width="1em" height="1em" viewBox="0 0 512 512" data-icon="ion:ios-browsers" data-width="1em" data-height="1em" data-inline="false" class="iconify"><path d="M48 181.4V424c0 22.1 17.9 40 40 40h242.6c22.1 0 40-17.9 40-40V181.4c0-22.1-17.9-40-40-40H88c-22.1 0-40 17.9-40 40z" fill="#646464"/><path d="M141.4 88v28.4c0 2.2 1.8 4 4 4h198.2c26.4 0 48 21.6 48 48v198.2c0 2.2 1.8 4 4 4H424c22.1 0 40-17.9 40-40V88c0-22.1-17.9-40-40-40H181.4c-22.1 0-40 17.9-40 40z" fill="#646464"/></svg>
