<?xml version="1.0"?>
<svg xmlns="http://www.w3.org/2000/svg" xmlns:xlink="http://www.w3.org/1999/xlink" aria-hidden="true" width="1em" height="1em" viewBox="0 0 512 512" data-icon="ion:logo-designernews" data-width="1em" data-height="1em" data-inline="false" class="iconify"><path d="M290.4 145L227 96l63.6 102.2z" fill="#646464"/><path d="M329 96v163h-36.4l-63.2-98.6 1.7 98.6H191V152l-37.3-29.3c1 1.2 2 2.4 2.9 3.7 10 13.9 15 30.5 15 50.5 0 49.2-30.6 82.1-76.9 82.1H32v.4L231.6 416H480V214.1L329 96z" fill="#646464"/><path d="M129.9 178.1c0-29-14.2-45.1-39.7-45.1H71v89h19c26 0 39.9-15.4 39.9-43.9z" fill="#646464"/></svg>
