<?xml version="1.0"?>
<svg xmlns="http://www.w3.org/2000/svg" xmlns:xlink="http://www.w3.org/1999/xlink" aria-hidden="true" width="1em" height="1em" viewBox="0 0 512 512" data-icon="ion:ios-fitness" data-width="1em" data-height="1em" data-inline="false" class="iconify"><path d="M352 280H160c-4.4 0-8-3.6-8-8v-32c0-4.4 3.6-8 8-8h192c4.4 0 8 3.6 8 8v32c0 4.4-3.6 8-8 8z" fill="#646464"/><path d="M378 362V150c0-12.1 9.9-22 22-22s22 9.9 22 22v212c0 12.1-9.9 22-22 22s-22-9.9-22-22z" fill="#646464"/><path d="M460 192h-12c-4.4 0-8 3.6-8 8v112c0 4.4 3.6 8 8 8h12c11 0 20-9 20-20v-88c0-11-9-20-20-20z" fill="#646464"/><path d="M134 362V150c0-12.1-9.9-22-22-22s-22 9.9-22 22v212c0 12.1 9.9 22 22 22s22-9.9 22-22z" fill="#646464"/><path d="M64 192H52c-11 0-20 9-20 20v88c0 11 9 20 20 20h12c4.4 0 8-3.6 8-8V200c0-4.4-3.6-8-8-8z" fill="#646464"/></svg>
