<?xml version="1.0"?>
<svg xmlns="http://www.w3.org/2000/svg" xmlns:xlink="http://www.w3.org/1999/xlink" aria-hidden="true" width="1em" height="1em" viewBox="0 0 512 512" data-icon="ion:logo-flickr" data-width="1em" data-height="1em" data-inline="false" class="iconify"><path d="M352 64H160c-52.8 0-96 43.2-96 96v192c0 52.8 43.2 96 96 96h192c52.8 0 96-43.2 96-96V160c0-52.8-43.2-96-96-96zM184 304c-26.5 0-48-21.5-48-48s21.5-48 48-48 48 21.5 48 48-21.5 48-48 48zm144 0c-26.5 0-48-21.5-48-48s21.5-48 48-48 48 21.5 48 48-21.5 48-48 48z" fill="#646464"/></svg>
