<?xml version="1.0"?>
<svg xmlns="http://www.w3.org/2000/svg" xmlns:xlink="http://www.w3.org/1999/xlink" aria-hidden="true" width="1em" height="1em" viewBox="0 0 512 512" data-icon="ion:ios-journal" data-width="1em" data-height="1em" data-inline="false" class="iconify"><path d="M92.1 32C76.6 32 64 44.6 64 60.1V452c0 15.5 12.6 28.1 28.1 28.1H432c8.8 0 16-7.2 16-16s-7.2-16-16-16H112.5c-8.2 0-15.4-6-16.4-14.1-1.1-9.7 6.5-18 15.9-18h208V32H92.1z" fill="#646464"/><path d="M432 416c8.8 0 16-7.2 16-16V60.1c0-15.5-12.6-28.1-28.1-28.1H368v384h64z" fill="#646464"/></svg>
