<?xml version="1.0"?>
<svg xmlns="http://www.w3.org/2000/svg" xmlns:xlink="http://www.w3.org/1999/xlink" aria-hidden="true" width="1em" height="1em" viewBox="0 0 512 512" data-icon="ion:ios-list" data-width="1em" data-height="1em" data-inline="false" class="iconify"><circle cx="92" cy="256" r="28" fill="#646464"/><circle cx="92" cy="132" r="28" fill="#646464"/><circle cx="92" cy="380" r="28" fill="#646464"/><path d="M432 240H191.5c-8.8 0-16 7.2-16 16s7.2 16 16 16H432c8.8 0 16-7.2 16-16s-7.2-16-16-16z" fill="#646464"/><path d="M432 364H191.5c-8.8 0-16 7.2-16 16s7.2 16 16 16H432c8.8 0 16-7.2 16-16s-7.2-16-16-16z" fill="#646464"/><path d="M191.5 148H432c8.8 0 16-7.2 16-16s-7.2-16-16-16H191.5c-8.8 0-16 7.2-16 16s7.2 16 16 16z" fill="#646464"/></svg>
