<?xml version="1.0"?>
<svg xmlns="http://www.w3.org/2000/svg" xmlns:xlink="http://www.w3.org/1999/xlink" aria-hidden="true" width="1em" height="1em" viewBox="0 0 512 512" data-icon="ion:ios-more" data-width="1em" data-height="1em" data-inline="false" class="iconify"><path d="M255.8 218c-21 0-38 17-38 38s17 38 38 38 38-17 38-38-17-38-38-38z" fill="#646464"/><path d="M102 218c-21 0-38 17-38 38s17 38 38 38 38-17 38-38-17-38-38-38z" fill="#646464"/><path d="M410 218c-21 0-38 17-38 38s17 38 38 38 38-17 38-38-17-38-38-38z" fill="#646464"/></svg>
