<?xml version="1.0"?>
<svg xmlns="http://www.w3.org/2000/svg" xmlns:xlink="http://www.w3.org/1999/xlink" aria-hidden="true" width="1em" height="1em" viewBox="0 0 512 512" data-icon="ion:ios-options" data-width="1em" data-height="1em" data-inline="false" class="iconify"><path d="M299.3 376c6.2-14.1 20.3-24 36.7-24s30.5 9.9 36.7 24H448c8.8 0 16 7.2 16 16s-7.2 16-16 16h-75.3c-6.2 14.1-20.3 24-36.7 24s-30.5-9.9-36.7-24H64c-8.8 0-16-7.2-16-16s7.2-16 16-16h235.3z" fill="#646464"/><path d="M139.3 240c6.2-14.1 20.3-24 36.7-24s30.5 9.9 36.7 24H448c8.8 0 16 7.2 16 16s-7.2 16-16 16H212.7c-6.2 14.1-20.3 24-36.7 24s-30.5-9.9-36.7-24H64c-8.8 0-16-7.2-16-16s7.2-16 16-16h75.3z" fill="#646464"/><path d="M299.3 104c6.2-14.1 20.3-24 36.7-24s30.5 9.9 36.7 24H448c8.8 0 16 7.2 16 16s-7.2 16-16 16h-75.3c-6.2 14.1-20.3 24-36.7 24s-30.5-9.9-36.7-24H64c-8.8 0-16-7.2-16-16s7.2-16 16-16h235.3z" fill="#646464"/></svg>
