<?xml version="1.0"?>
<svg xmlns="http://www.w3.org/2000/svg" xmlns:xlink="http://www.w3.org/1999/xlink" aria-hidden="true" width="1em" height="1em" viewBox="0 0 512 512" data-icon="ion:ios-pause" data-width="1em" data-height="1em" data-inline="false" class="iconify"><path d="M199.9 416h-63.8c-4.5 0-8.1-3.6-8.1-8V104c0-4.4 3.6-8 8.1-8h63.8c4.5 0 8.1 3.6 8.1 8v304c0 4.4-3.6 8-8.1 8z" fill="#646464"/><path d="M375.9 416h-63.8c-4.5 0-8.1-3.6-8.1-8V104c0-4.4 3.6-8 8.1-8h63.8c4.5 0 8.1 3.6 8.1 8v304c0 4.4-3.6 8-8.1 8z" fill="#646464"/></svg>
