<?xml version="1.0"?>
<svg xmlns="http://www.w3.org/2000/svg" xmlns:xlink="http://www.w3.org/1999/xlink" aria-hidden="true" width="1em" height="1em" viewBox="0 0 512 512" data-icon="ion:ios-photos" data-width="1em" data-height="1em" data-inline="false" class="iconify"><path d="M464 144H128c-17.6 0-32 14.4-32 32v240c0 17.6 14.4 32 32 32h336c17.6 0 32-14.4 32-32V176c0-17.6-14.4-32-32-32z" fill="#646464"/><path d="M100 116h332V96c0-17.6-14.4-32-32-32H48c-17.6 0-32 14.4-32 32v256c0 17.6 14.4 32 32 32h20V148c0-17.6 14.4-32 32-32z" fill="#646464"/></svg>
