<?xml version="1.0"?>
<svg xmlns="http://www.w3.org/2000/svg" xmlns:xlink="http://www.w3.org/1999/xlink" aria-hidden="true" width="1em" height="1em" viewBox="0 0 512 512" data-icon="ion:ios-podium" data-width="1em" data-height="1em" data-inline="false" class="iconify"><path d="M64 199.9v208.2c0 4.4 3.5 7.9 7.9 7.9h96.2c4.4 0 7.9-3.5 7.9-7.9V199.9c0-4.4-3.5-7.9-7.9-7.9H71.9c-4.4 0-7.9 3.5-7.9 7.9z" fill="#646464"/><path d="M199.9 96c-4.4 0-7.9 3.5-7.9 7.9V416h120.1c4.4 0 7.9-3.5 7.9-7.9V103.9c0-4.4-3.5-7.9-7.9-7.9H199.9z" fill="#646464"/><path d="M440.1 256h-96.2c-4.4 0-7.9 3.5-7.9 7.9v144.2c0 4.4 3.5 7.9 7.9 7.9h96.2c4.4 0 7.9-3.5 7.9-7.9V263.9c0-4.4-3.5-7.9-7.9-7.9z" fill="#646464"/></svg>
