<?xml version="1.0"?>
<svg xmlns="http://www.w3.org/2000/svg" xmlns:xlink="http://www.w3.org/1999/xlink" aria-hidden="true" width="1em" height="1em" viewBox="0 0 512 512" data-icon="ion:ios-resize" data-width="1em" data-height="1em" data-inline="false" class="iconify"><path d="M418.3 80H307.8c-7.5 0-13.7 6.1-13.7 13.7v.2c0 7.5 6.1 13.7 13.7 13.7h76.5L107.6 384.3v-76.5c0-7.5-6.1-13.7-13.7-13.7h-.2c-7.5 0-13.7 6.1-13.7 13.7v110.5c0 7.5 6.1 13.7 13.7 13.7h110.5c7.5 0 13.7-6.1 13.7-13.7v-.2c0-7.5-6.1-13.7-13.7-13.7h-76.5l276.7-276.7v76.5c0 7.5 6.1 13.7 13.7 13.7h.2c7.5 0 13.7-6.1 13.7-13.7V93.7c0-7.6-6.1-13.7-13.7-13.7z" fill="#646464"/></svg>
