<?xml version="1.0"?>
<svg xmlns="http://www.w3.org/2000/svg" xmlns:xlink="http://www.w3.org/1999/xlink" aria-hidden="true" width="1em" height="1em" viewBox="0 0 512 512" data-icon="ion:ios-square-outline" data-width="1em" data-height="1em" data-inline="false" class="iconify"><path d="M388 96H124c-15.4 0-28 12.6-28 28v264c0 15.4 12.6 28 28 28h264c15.4 0 28-12.6 28-28V124c0-15.4-12.6-28-28-28zm0 284c0 4.4-3.6 8-8 8H132c-4.4 0-8-3.6-8-8V132c0-4.4 3.6-8 8-8h248c4.4 0 8 3.6 8 8v248z" fill="#646464"/></svg>
