<?xml version="1.0"?>
<svg xmlns="http://www.w3.org/2000/svg" xmlns:xlink="http://www.w3.org/1999/xlink" aria-hidden="true" width="1em" height="1em" viewBox="0 0 512 512" data-icon="ion:ios-swap" data-width="1em" data-height="1em" data-inline="false" class="iconify"><path d="M388.9 266.3c-5.1-5-5.2-13.3-.1-18.4L436 200H211c-7.2 0-13-5.8-13-13s5.8-13 13-13h224.9l-47.2-47.9c-5-5.1-5-13.3.1-18.4 5.1-5 13.3-5 18.4.1l69 70c1.1 1.2 2.1 2.5 2.7 4.1.7 1.6 1 3.3 1 5 0 3.4-1.3 6.6-3.7 9.1l-69 70c-5 5.2-13.2 5.3-18.3.3z" fill="#646464"/><path d="M123.1 404.3c5.1-5 5.2-13.3.1-18.4L76.1 338H301c7.2 0 13-5.8 13-13s-5.8-13-13-13H76.1l47.2-47.9c5-5.1 5-13.3-.1-18.4-5.1-5-13.3-5-18.4.1l-69 70c-1.1 1.2-2.1 2.5-2.7 4.1-.7 1.6-1 3.3-1 5 0 3.4 1.3 6.6 3.7 9.1l69 70c5 5.2 13.2 5.3 18.3.3z" fill="#646464"/></svg>
