<?xml version="1.0"?>
<svg xmlns="http://www.w3.org/2000/svg" xmlns:xlink="http://www.w3.org/1999/xlink" aria-hidden="true" width="1em" height="1em" viewBox="0 0 512 512" data-icon="ion:ios-volume-mute" data-width="1em" data-height="1em" data-inline="false" class="iconify"><path d="M326.9 145.6c-2.2-1.1-4.6-1.6-6.9-1.6-3.6 0-7.1 1.2-10 3.5L244.8 200H192c-8.8 0-16 7.2-16 16v80c0 8.8 7.2 16 16 16h52.8l65.2 52.5c2.9 2.3 6.5 3.5 10 3.5 2.3 0 4.7-.5 6.9-1.6 5.6-2.7 9.1-8.3 9.1-14.4V160c0-6.2-3.5-11.8-9.1-14.4z" fill="#646464"/></svg>
