<?xml version="1.0"?>
<svg xmlns="http://www.w3.org/2000/svg" xmlns:xlink="http://www.w3.org/1999/xlink" aria-hidden="true" width="1em" height="1em" viewBox="0 0 512 512" data-icon="ion:ios-wallet" data-width="1em" data-height="1em" data-inline="false" class="iconify"><path d="M404 160H108c-33.1 0-60 26.9-60 60v168c0 33.1 26.9 60 60 60h296c33.1 0 60-26.9 60-60V220c0-33.1-26.9-60-60-60z" fill="#646464"/><path d="M342.9 65L108 110.9c-18 4-44 22.1-44 44.1 0 0 15-19 49-19h287v-20.5c0-12.6-5-28.7-13.9-37.6-11.3-11.3-27.5-16.2-43.2-12.9z" fill="#646464"/></svg>
