<svg xmlns="http://www.w3.org/2000/svg" viewBox="0 0 237.8 146.8">
<g fill="none"><path fill-rule="evenodd" clip-rule="evenodd" d="M58.7 91.5h34c1.9 0 3.5 1.5 3.5 3.5 0 1.9-1.5 3.5-3.5 3.5h-34c-1.9 0-3.5-1.5-3.5-3.5.1-2 1.6-3.5 3.5-3.5zM67.9 66.1h20.2c1.9 0 3.5 1.5 3.5 3.5 0 1.9-1.5 3.5-3.5 3.5H67.9c-1.9 0-3.5-1.5-3.5-3.5.1-1.9 1.6-3.5 3.5-3.5zM3.5 66.1h51.2c1.9 0 3.5 1.5 3.5 3.5 0 1.9-1.5 3.5-3.5 3.5H3.5C1.5 73 0 71.5 0 69.6s1.5-3.5 3.5-3.5zM33.8 40.8h49.1c1.9 0 3.5 1.5 3.5 3.5 0 1.9-1.5 3.5-3.5 3.5H33.8c-1.9 0-3.5-1.5-3.5-3.5s1.6-3.5 3.5-3.5zM36.8 91.5h8.6c1.9 0 3.5 1.5 3.5 3.5 0 1.9-1.5 3.5-3.5 3.5h-8.6c-1.9 0-3.5-1.5-3.5-3.5.1-2 1.6-3.5 3.5-3.5z"/><circle fill-rule="evenodd" clip-rule="evenodd" fill="#FFF" cx="131.1" cy="39.5" r="6.1"/>
<path d="M131.7 30.5s-3.8-.5-7.6-.8l-8.5-.6c-1.9 0-3.5 1.5-3.5 3.5 0 1.1.7 2 1.3 2.7l4.5 4.7c2.5 2.4 5.4 5 6.4 6 1.7 1.7 4 2.8 6.5 2.8 5 0 9.1-4.1 9.1-9.1.2-4.9-3.5-8.8-8.2-9.2zM131 43c-1.9 0-3.5-1.5-3.5-3.5 0-1.9 1.5-3.5 3.5-3.5 1.9 0 3.5 1.5 3.5 3.5-.1 2-1.6 3.5-3.5 3.5z"/>
<path fill-rule="evenodd" clip-rule="evenodd" d="M198.1 143.3H59.3"/>
<path d="M223.5 31c-.6-1.2-2.1-1.6-4-1.7-2.3-.1-4.6.1-5.3.2-1.5.2-1.6 2.4.3 2.6 2.8.1 4.3.6 5.7 2.1 1.3 1.4 1.1 2.7 1.7 3 1 .6 1.4 0 1.7-.9.1-.4.2-1.2.3-2.1.1-1 .2-2.1-.4-3.2z"/>
<path fill-rule="evenodd" clip-rule="evenodd" d="M234.3 19.5c-3.6-3.6-8.9-3.9-12.1-4-28.1-.8-75.3-2-110.6-2.9-6-.1-10.3-.3-13.3-.4-.6 0-1.1-.3-1.4-.8C96 10 94.8 8.3 93.3 7c-3.1-3-7.4-3.8-7.4-3.8L63.5 0s-2.4-.4-4 1c-1.8 1.5-1.9 3.8-1.5 5.2.4 1.3 1.3 4.7 1.3 4.7s1.6 5.6 6.7 4.4c3.3-.9 3.9-3.8 4-4.8 0-.2.2-.3.3-.3l12 1.6c1.2.2 2.4.6 3.5 1.2.7.4 1.5 1 2.1 1.7 1.8 2 2.6 5.3 2.6 5.3l16.6 85.8s1.4 11.7 8.7 16.7c1 .7 2.1 1.2 3.2 1.7.1 0 .1.1.1.2-1.4 2.2-2.1 4.8-2.1 7.6s.8 5.3 2.1 7.5c.1.1 0 .2-.1.2H59.4c-1.9 0-3.5 1.5-3.6 3.3-.1 2 1.5 3.6 3.5 3.6h137c8 0 14.8-6.3 15-14.3.2-8.3-6.4-15.1-14.7-15.1h-65l-5.3-.1h-.1c-3 0-5.4-2.5-5.4-5.5 0-2.8 2.1-5.1 4.9-5.4l67.7-8.3s9.5-1.2 16.3-5.3C216 89 220.2 83 220.2 83c.1-.1.2-.1.4-.1h1.2c3.2 0 6-2.1 7-5 1.2-2.9 3.5-9.6 5.8-20.8 2.8-14 2.9-19.9 3.2-26.1.1-3 .3-7.7-3.5-11.5zm-37.7 107.1c3 0 5.5 2.5 5.5 5.5s-2.4 5.5-5.5 5.5c-3 0-5.5-2.4-5.5-5.5 0-3 2.5-5.5 5.5-5.5zm-51.2 0h37.4c.1 0 .2.1.1.2-.6 1.6-1 3.4-1 5.3 0 2.8.8 5.3 2.1 7.5.1.1 0 .2-.1.2h-39.6c-.1 0-.2-.1-.1-.2 1.3-2.2 2.1-4.8 2.1-7.5 0-1.9-.3-3.6-1-5.3-.1-.1 0-.2.1-.2zm-13.9 0h.2c3 0 5.4 2.5 5.4 5.5s-2.4 5.5-5.5 5.5c-3 0-5.5-2.4-5.5-5.5 0-3 2.4-5.4 5.4-5.5zM227 50.1c-2.4 13.5-4.9 20.6-5.5 22.1l-.1.2c-.6 1.2-1.9 2.1-3.3 2.1-.3 0-.6 0-.9-.1s-13.5-3.6-28.3-3.6-44.7 5.9-53.5 1.2c-5.3-2.9-6.3-6.1-6.5-7.3-.1-.3 0-.6.3-.8.3-.3.7-.6 1.4-.8 1.3-.4 3-.5 3.1-.9.1-.3-3.7-2.3-9.7-.5-3.7 1.1-5.8 3.6-6.4 4.6-1.1 1.7-1.8 4.8.6 6.3 1.5.9 2.9.4 3.6-.2.8-.6 1.2-1.4 1.4-1.8.1-.2.4-.2.5-.1.6.7 2 2.3 3 3.4.3.3.6.7 1 1 .1.1.2.3.2.5v.1c-.3 1.7-.7 4.6-.6 5.9 0 1.9 1.5 3.4 3.4 3.4 1.2 0 2.3-.7 3.3-1.4.9-.7 3.2-2.6 3.2-2.6.1-.1.2-.1.4-.1.1 0 .2 0 .2.1 1.2.3 2.5.5 3.9.5.3 0 .5.2.6.5 0 .1.1.3.2.4 1 2.5 1.9 4.1 4.3 4.1 1.9 0 3-1.3 3.9-3.5.2-.4.4-1 .6-1.5.1-.2.3-.4.6-.4 1.6-.1 3.5-.3 5.3-.5.3 0 .5.2.6.4 1.1 2.1 2.6 3.5 4.5 3.5s2.9-1.3 3.8-3.4c.1-.3.3-.7.4-.9.1-.2.3-.3.5-.3 7.6-.7 15.5-1.4 21.6-1.6 7.5-.2 14.4.8 20 2 .6.1 1.1.7 1.1 1.3 0 .3-.1.6-.3.8-.1.1-.1.2-.2.3-1.3 1.3-3.2 2.9-5.6 4-5.6 2.6-13.3 3.2-13.3 3.2L128 97.5s-7.9.2-11.6 4.2c-.2.2-.5.1-.5-.2l-15-76.2c-.2-1.3 0-3.4 2.7-3.3 2.1.1 4.5.1 7.4.2 35.6.9 110.9 2.9 110.9 2.9s3.1.1 5.1 1.6c2.2 1.6 2.3 5.1 2.3 5.1s-.1 4.4-2.3 18.3z"/></g></svg>